<?xml version="1.0" encoding="UTF-8" standalone="no"?>
<!-- Created with Inkscape (http://www.inkscape.org/) -->

<svg
   width="29.998241mm"
   height="46.463215mm"
   viewBox="0 0 29.998241 46.463215"
   version="1.1"
   id="svg237104"
   inkscape:version="1.2 (dc2aeda, 2022-05-15)"
   sodipodi:docname="Brainstem_Navigator_R_medial.svg"
   xmlns:inkscape="http://www.inkscape.org/namespaces/inkscape"
   xmlns:sodipodi="http://sodipodi.sourceforge.net/DTD/sodipodi-0.dtd"
   xmlns="http://www.w3.org/2000/svg"
   xmlns:svg="http://www.w3.org/2000/svg">
  <sodipodi:namedview
     id="namedview237106"
     pagecolor="#ffffff"
     bordercolor="#000000"
     borderopacity="0.25"
     inkscape:showpageshadow="2"
     inkscape:pageopacity="0.0"
     inkscape:pagecheckerboard="0"
     inkscape:deskcolor="#d1d1d1"
     inkscape:document-units="mm"
     showgrid="false"
     inkscape:zoom="4.9999164"
     inkscape:cx="43.300724"
     inkscape:cy="126.40211"
     inkscape:window-width="1470"
     inkscape:window-height="792"
     inkscape:window-x="0"
     inkscape:window-y="340"
     inkscape:window-maximized="1"
     inkscape:current-layer="layer1" />
  <defs
     id="defs237101">
    <clipPath
       id="clipPath238646">
      <rect
         x="53.501259"
         y="27.311251"
         width="468.9975"
         height="356.68875"
         id="rect238644" />
    </clipPath>
    <clipPath
       id="clipPath238650">
      <rect
         x="53.501259"
         y="27.311251"
         width="468.9975"
         height="356.68875"
         id="rect238648" />
    </clipPath>
    <clipPath
       id="clipPath238654">
      <rect
         x="53.501259"
         y="27.311251"
         width="468.9975"
         height="356.68875"
         id="rect238652" />
    </clipPath>
    <clipPath
       id="clipPath238658">
      <rect
         x="53.501259"
         y="27.311251"
         width="468.9975"
         height="356.68875"
         id="rect238656" />
    </clipPath>
    <clipPath
       id="clipPath238662">
      <rect
         x="53.501259"
         y="27.311251"
         width="468.9975"
         height="356.68875"
         id="rect238660" />
    </clipPath>
    <clipPath
       id="clipPath238666">
      <rect
         x="53.501259"
         y="27.311251"
         width="468.9975"
         height="356.68875"
         id="rect238664" />
    </clipPath>
    <clipPath
       id="clipPath238670">
      <rect
         x="53.501259"
         y="27.311251"
         width="468.9975"
         height="356.68875"
         id="rect238668" />
    </clipPath>
    <clipPath
       id="clipPath238674">
      <rect
         x="53.501259"
         y="27.311251"
         width="468.9975"
         height="356.68875"
         id="rect238672" />
    </clipPath>
    <clipPath
       id="clipPath238678">
      <rect
         x="53.501259"
         y="27.311251"
         width="468.9975"
         height="356.68875"
         id="rect238676" />
    </clipPath>
    <clipPath
       id="clipPath238682">
      <rect
         x="53.501259"
         y="27.311251"
         width="468.9975"
         height="356.68875"
         id="rect238680" />
    </clipPath>
    <clipPath
       id="clipPath238686">
      <rect
         x="53.501259"
         y="27.311251"
         width="468.9975"
         height="356.68875"
         id="rect238684" />
    </clipPath>
    <clipPath
       id="clipPath238690">
      <rect
         x="53.501259"
         y="27.311251"
         width="468.9975"
         height="356.68875"
         id="rect238688" />
    </clipPath>
    <clipPath
       id="clipPath238694">
      <rect
         x="53.501259"
         y="27.311251"
         width="468.9975"
         height="356.68875"
         id="rect238692" />
    </clipPath>
    <clipPath
       id="clipPath238698">
      <rect
         x="53.501259"
         y="27.311251"
         width="468.9975"
         height="356.68875"
         id="rect238696" />
    </clipPath>
    <clipPath
       id="clipPath238702">
      <rect
         x="53.501259"
         y="27.311251"
         width="468.9975"
         height="356.68875"
         id="rect238700" />
    </clipPath>
    <clipPath
       id="clipPath238706">
      <rect
         x="53.501259"
         y="27.311251"
         width="468.9975"
         height="356.68875"
         id="rect238704" />
    </clipPath>
    <clipPath
       id="clipPath238710">
      <rect
         x="53.501259"
         y="27.311251"
         width="468.9975"
         height="356.68875"
         id="rect238708" />
    </clipPath>
    <clipPath
       id="clipPath238714">
      <rect
         x="53.501259"
         y="27.311251"
         width="468.9975"
         height="356.68875"
         id="rect238712" />
    </clipPath>
    <clipPath
       id="clipPath238718">
      <rect
         x="53.501259"
         y="27.311251"
         width="468.9975"
         height="356.68875"
         id="rect238716" />
    </clipPath>
    <clipPath
       id="clipPath238722">
      <rect
         x="53.501259"
         y="27.311251"
         width="468.9975"
         height="356.68875"
         id="rect238720" />
    </clipPath>
    <clipPath
       id="clipPath238726">
      <rect
         x="53.501259"
         y="27.311251"
         width="468.9975"
         height="356.68875"
         id="rect238724" />
    </clipPath>
    <clipPath
       id="clipPath238730">
      <rect
         x="53.501259"
         y="27.311251"
         width="468.9975"
         height="356.68875"
         id="rect238728" />
    </clipPath>
    <clipPath
       id="clipPath238734">
      <rect
         x="53.501259"
         y="27.311251"
         width="468.9975"
         height="356.68875"
         id="rect238732" />
    </clipPath>
    <clipPath
       id="clipPath238738">
      <rect
         x="53.501259"
         y="27.311251"
         width="468.9975"
         height="356.68875"
         id="rect238736" />
    </clipPath>
    <clipPath
       id="clipPath238742">
      <rect
         x="53.501259"
         y="27.311251"
         width="468.9975"
         height="356.68875"
         id="rect238740" />
    </clipPath>
    <clipPath
       id="clipPath238746">
      <rect
         x="53.501259"
         y="27.311251"
         width="468.9975"
         height="356.68875"
         id="rect238744" />
    </clipPath>
    <clipPath
       id="clipPath238750">
      <rect
         x="53.501259"
         y="27.311251"
         width="468.9975"
         height="356.68875"
         id="rect238748" />
    </clipPath>
    <clipPath
       id="clipPath238754">
      <rect
         x="53.501259"
         y="27.311251"
         width="468.9975"
         height="356.68875"
         id="rect238752" />
    </clipPath>
    <clipPath
       id="clipPath238758">
      <rect
         x="53.501259"
         y="27.311251"
         width="468.9975"
         height="356.68875"
         id="rect238756" />
    </clipPath>
    <clipPath
       id="clipPath238762">
      <rect
         x="53.501259"
         y="27.311251"
         width="468.9975"
         height="356.68875"
         id="rect238760" />
    </clipPath>
    <clipPath
       id="clipPath238766">
      <rect
         x="53.501259"
         y="27.311251"
         width="468.9975"
         height="356.68875"
         id="rect238764" />
    </clipPath>
    <clipPath
       id="clipPath238770">
      <rect
         x="53.501259"
         y="27.311251"
         width="468.9975"
         height="356.68875"
         id="rect238768" />
    </clipPath>
    <clipPath
       id="clipPath238774">
      <rect
         x="53.501259"
         y="27.311251"
         width="468.9975"
         height="356.68875"
         id="rect238772" />
    </clipPath>
    <clipPath
       id="clipPath238778">
      <rect
         x="53.501259"
         y="27.311251"
         width="468.9975"
         height="356.68875"
         id="rect238776" />
    </clipPath>
    <clipPath
       id="clipPath238782">
      <rect
         x="53.501259"
         y="27.311251"
         width="468.9975"
         height="356.68875"
         id="rect238780" />
    </clipPath>
    <clipPath
       id="clipPath238786">
      <rect
         x="53.501259"
         y="27.311251"
         width="468.9975"
         height="356.68875"
         id="rect238784" />
    </clipPath>
    <clipPath
       id="clipPath238790">
      <rect
         x="53.501259"
         y="27.311251"
         width="468.9975"
         height="356.68875"
         id="rect238788" />
    </clipPath>
    <clipPath
       id="clipPath238794">
      <rect
         x="53.501259"
         y="27.311251"
         width="468.9975"
         height="356.68875"
         id="rect238792" />
    </clipPath>
    <clipPath
       id="clipPath238798">
      <rect
         x="53.501259"
         y="27.311251"
         width="468.9975"
         height="356.68875"
         id="rect238796" />
    </clipPath>
    <clipPath
       id="clipPath238802">
      <rect
         x="53.501259"
         y="27.311251"
         width="468.9975"
         height="356.68875"
         id="rect238800" />
    </clipPath>
    <clipPath
       id="clipPath238806">
      <rect
         x="53.501259"
         y="27.311251"
         width="468.9975"
         height="356.68875"
         id="rect238804" />
    </clipPath>
    <clipPath
       id="clipPath238810">
      <rect
         x="53.501259"
         y="27.311251"
         width="468.9975"
         height="356.68875"
         id="rect238808" />
    </clipPath>
    <clipPath
       id="clipPath238814">
      <rect
         x="53.501259"
         y="27.311251"
         width="468.9975"
         height="356.68875"
         id="rect238812" />
    </clipPath>
    <clipPath
       id="clipPath238818">
      <rect
         x="53.501259"
         y="27.311251"
         width="468.9975"
         height="356.68875"
         id="rect238816" />
    </clipPath>
    <clipPath
       id="clipPath238822">
      <rect
         x="53.501259"
         y="27.311251"
         width="468.9975"
         height="356.68875"
         id="rect238820" />
    </clipPath>
    <clipPath
       id="clipPath238826">
      <rect
         x="53.501259"
         y="27.311251"
         width="468.9975"
         height="356.68875"
         id="rect238824" />
    </clipPath>
    <clipPath
       id="clipPath238830">
      <rect
         x="53.501259"
         y="27.311251"
         width="468.9975"
         height="356.68875"
         id="rect238828" />
    </clipPath>
    <clipPath
       id="clipPath238834">
      <rect
         x="53.501259"
         y="27.311251"
         width="468.9975"
         height="356.68875"
         id="rect238832" />
    </clipPath>
    <clipPath
       id="clipPath238838">
      <rect
         x="53.501259"
         y="27.311251"
         width="468.9975"
         height="356.68875"
         id="rect238836" />
    </clipPath>
    <clipPath
       id="clipPath238842">
      <rect
         x="53.501259"
         y="27.311251"
         width="468.9975"
         height="356.68875"
         id="rect238840" />
    </clipPath>
    <clipPath
       id="clipPath238846">
      <rect
         x="53.501259"
         y="27.311251"
         width="468.9975"
         height="356.68875"
         id="rect238844" />
    </clipPath>
    <clipPath
       id="clipPath238850">
      <rect
         x="53.501259"
         y="27.311251"
         width="468.9975"
         height="356.68875"
         id="rect238848" />
    </clipPath>
    <clipPath
       id="clipPath238854">
      <rect
         x="53.501259"
         y="27.311251"
         width="468.9975"
         height="356.68875"
         id="rect238852" />
    </clipPath>
    <clipPath
       id="clipPath238858">
      <rect
         x="53.501259"
         y="27.311251"
         width="468.9975"
         height="356.68875"
         id="rect238856" />
    </clipPath>
    <clipPath
       id="clipPath238862">
      <rect
         x="53.501259"
         y="27.311251"
         width="468.9975"
         height="356.68875"
         id="rect238860" />
    </clipPath>
    <clipPath
       id="clipPath238866">
      <rect
         x="53.501259"
         y="27.311251"
         width="468.9975"
         height="356.68875"
         id="rect238864" />
    </clipPath>
    <clipPath
       id="clipPath238870">
      <rect
         x="53.501259"
         y="27.311251"
         width="468.9975"
         height="356.68875"
         id="rect238868" />
    </clipPath>
    <clipPath
       id="clipPath238874">
      <rect
         x="53.501259"
         y="27.311251"
         width="468.9975"
         height="356.68875"
         id="rect238872" />
    </clipPath>
    <clipPath
       id="clipPath238878">
      <rect
         x="53.501259"
         y="27.311251"
         width="468.9975"
         height="356.68875"
         id="rect238876" />
    </clipPath>
    <clipPath
       id="clipPath238882">
      <rect
         x="53.501259"
         y="27.311251"
         width="468.9975"
         height="356.68875"
         id="rect238880" />
    </clipPath>
    <clipPath
       id="clipPath238886">
      <rect
         x="53.501259"
         y="27.311251"
         width="468.9975"
         height="356.68875"
         id="rect238884" />
    </clipPath>
    <clipPath
       id="clipPath238890">
      <rect
         x="53.501259"
         y="27.311251"
         width="468.9975"
         height="356.68875"
         id="rect238888" />
    </clipPath>
    <clipPath
       id="clipPath238894">
      <rect
         x="53.501259"
         y="27.311251"
         width="468.9975"
         height="356.68875"
         id="rect238892" />
    </clipPath>
    <clipPath
       id="clipPath238898">
      <rect
         x="53.501259"
         y="27.311251"
         width="468.9975"
         height="356.68875"
         id="rect238896" />
    </clipPath>
    <clipPath
       id="clipPath238902">
      <rect
         x="53.501259"
         y="27.311251"
         width="468.9975"
         height="356.68875"
         id="rect238900" />
    </clipPath>
    <clipPath
       id="clipPath238906">
      <rect
         x="53.501259"
         y="27.311251"
         width="468.9975"
         height="356.68875"
         id="rect238904" />
    </clipPath>
    <clipPath
       id="clipPath238910">
      <rect
         x="53.501259"
         y="27.311251"
         width="468.9975"
         height="356.68875"
         id="rect238908" />
    </clipPath>
  </defs>
  <g
     inkscape:label="Layer 1"
     inkscape:groupmode="layer"
     id="layer1"
     transform="translate(-30.011593)">
    <path
       d="m 49.990566,36.601632 c -0.09073,-0.204198 -0.273117,-0.614756 -0.390104,-1.008671 -0.116989,-0.393913 -0.166537,-0.761085 -0.149415,-1.127268 0.01712,-0.366184 0.102897,-0.721539 0.349169,-0.93704 0.24627,-0.2155 0.650631,-0.289021 0.985399,-0.249857 0.334765,0.03916 0.588301,0.182967 0.950856,0.613239 0.362556,0.430274 0.824944,1.140232 1.092433,1.654717 0.267488,0.514485 0.341008,0.833073 0.383644,1.096397 0.04263,0.263324 0.05489,0.471647 0.06712,0.716702 0.01224,0.245054 0.02449,0.526893 -0.127573,0.844824 -0.152058,0.317931 -0.468495,0.674703 -0.8093,0.78187 -0.340806,0.107168 -0.699768,-0.03309 -1.08695,-0.444663 -0.387182,-0.411566 -0.776279,-1.066104 -0.975418,-1.401095 -0.199141,-0.334993 -0.199144,-0.334956 -0.289861,-0.539155 z"
       clip-path="none"
       style="fill:#482878;stroke:#000000;stroke-width:0.124536;stroke-linecap:butt;stroke-linejoin:miter;stroke-dasharray:none"
       id="path1441842">
      <title
         id="title263229">ION_medial_R</title>
    </path>
    <path
       d="m 54.909162,31.568027 c 0.05013,0.02506 0.147425,0.07371 0.242806,0.140147 0.09538,0.06643 0.189239,0.149868 0.245992,0.2127 0.05676,0.06283 0.07764,0.104591 0.110843,0.160153 0.03321,0.05556 0.07838,0.125076 0.16738,0.293334 0.089,0.16826 0.221019,0.432827 0.171664,0.534959 -0.04936,0.10213 -0.289392,0.04437 -0.507404,-0.05878 -0.218015,-0.103144 -0.426521,-0.256056 -0.547591,-0.43639 -0.121068,-0.180333 -0.152345,-0.388846 -0.233394,-0.552974 -0.08104,-0.16413 -0.218029,-0.286997 -0.174424,-0.334318 0.04361,-0.04733 0.256238,-0.01599 0.365115,5e-5 0.108876,0.01604 0.108881,0.01604 0.159013,0.04111 z"
       clip-path="none"
       style="fill:#ece51b;stroke:#000000;stroke-width:0.124536;stroke-linecap:butt;stroke-linejoin:miter;stroke-dasharray:none"
       id="path1441846">
      <title
         id="title261807">sMRtl_medial_R</title>
    </path>
    <path
       d="m 53.568916,30.669418 c 0.02153,0.01722 0.06186,0.04948 0.09988,0.09014 0.03803,0.04066 0.07431,0.08905 0.08938,0.213926 0.01509,0.124884 0.01106,0.326595 -0.04358,0.507242 -0.05463,0.180648 -0.159524,0.34201 -0.284558,0.525504 -0.125034,0.183495 -0.27028,0.389264 -0.369173,0.536658 -0.09889,0.147393 -0.151316,0.236106 -0.193118,0.28999 -0.04181,0.05388 -0.07408,0.07405 -0.127803,0.08829 -0.05373,0.01423 -0.130354,0.02234 -0.233262,0.03445 -0.102906,0.0121 -0.232004,0.02823 -0.332448,0.019 -0.100439,-0.0092 -0.173038,-0.04552 -0.274201,-0.133738 -0.101165,-0.08821 -0.230255,-0.229412 -0.310871,-0.316188 -0.08061,-0.08677 -0.112913,-0.119071 -0.146765,-0.201368 -0.03385,-0.08229 -0.0676,-0.215221 0.06009,-0.359554 0.127691,-0.144331 0.406181,-0.290968 0.61664,-0.412107 0.210459,-0.121139 0.347627,-0.213923 0.452401,-0.288494 0.104776,-0.07457 0.177415,-0.131069 0.334964,-0.229998 0.157548,-0.09893 0.399606,-0.240129 0.520249,-0.310504 0.120644,-0.07038 0.120641,-0.07048 0.142175,-0.05324 z"
       clip-path="none"
       style="fill:#35b779;stroke:#000000;stroke-width:0.124536;stroke-linecap:butt;stroke-linejoin:miter;stroke-dasharray:none"
       id="path1441850">
      <title
         id="title260369">SOC_medial_R</title>
    </path>
    <path
       d="m 57.660696,41.001854 c 0.04456,0.343651 0.132723,1.023589 0.25338,1.607176 0.120658,0.583587 0.271604,1.06015 0.284324,1.549306 0.01272,0.489155 -0.113553,0.98565 -0.382267,1.21203 -0.268716,0.226379 -0.674898,0.184604 -0.989736,0.01467 -0.31484,-0.16995 -0.514848,-0.454095 -0.726833,-0.968746 -0.211984,-0.514653 -0.430261,-1.253438 -0.569692,-1.849464 -0.139429,-0.596027 -0.199402,-1.048283 -0.142858,-1.376146 0.05654,-0.327863 0.227697,-0.526892 0.620931,-0.594948 0.393235,-0.06805 1.000693,-0.0028 1.304442,0.02981 0.30375,0.03261 0.30375,0.03266 0.348309,0.376321 z"
       clip-path="none"
       style="fill:#7fd34e;stroke:#000000;stroke-width:0.124536;stroke-linecap:butt;stroke-linejoin:miter;stroke-dasharray:none"
       id="path1441854">
      <title
         id="title265332">iMRtl_medial_R</title>
    </path>
    <path
       d="m 51.467059,34.001721 c 0.18275,0.106899 0.541546,0.31678 0.838149,0.613322 0.296602,0.296542 0.521477,0.671947 0.689667,1.006984 0.168189,0.335037 0.28063,0.630195 0.383926,0.962499 0.103297,0.332304 0.196615,0.697021 0.238983,1.078674 0.04236,0.381651 0.03215,0.771066 -0.02696,1.070469 -0.05911,0.299404 -0.166836,0.510553 -0.390874,0.615605 -0.224039,0.105052 -0.565178,0.104746 -0.799044,0.08401 -0.233866,-0.02074 -0.360352,-0.06289 -0.554784,-0.155017 -0.194434,-0.09212 -0.457068,-0.234964 -0.630557,-0.405437 -0.173492,-0.170474 -0.25156,-0.359434 -0.318158,-0.594138 -0.06659,-0.234704 -0.115774,-0.494493 -0.169224,-0.810809 -0.05345,-0.316315 -0.109666,-0.681723 -0.184646,-1.075975 -0.07498,-0.394251 -0.168962,-0.817579 -0.204259,-1.203626 -0.0353,-0.386047 -0.01176,-0.724521 0.03182,-0.940412 0.04357,-0.21589 0.105999,-0.299774 0.260157,-0.336339 0.154155,-0.03657 0.40373,-0.02638 0.528395,-0.02131 0.124663,0.0051 0.124663,0.0046 0.307411,0.111497 z"
       clip-path="none"
       style="fill:#1f9e89;stroke:#000000;stroke-width:0.124536;stroke-linecap:butt;stroke-linejoin:miter;stroke-dasharray:none"
       id="path1441858">
      <title
         id="title263934">RPa_medial_B</title>
    </path>
    <path
       d="m 54.397013,31.35251 c 0.114163,0.257344 0.33716,0.760018 0.456731,1.214423 0.119572,0.454403 0.129047,0.835692 -0.112284,1.263933 -0.241329,0.428237 -0.732179,0.895489 -1.20848,0.880961 -0.476301,-0.01452 -0.94096,-0.510909 -1.15367,-0.986107 -0.212707,-0.475198 -0.171772,-0.922165 -0.04001,-1.183658 0.131751,-0.261494 0.352777,-0.331771 0.524566,-0.451006 0.17179,-0.119237 0.295676,-0.28818 0.4134,-0.478956 0.117723,-0.190775 0.226873,-0.398965 0.394494,-0.489222 0.167621,-0.09027 0.387612,-0.05924 0.499359,-0.04348 0.111748,0.01576 0.111742,0.01576 0.225906,0.273105 z"
       clip-path="none"
       style="fill:#fde725;stroke:#000000;stroke-width:0.124536;stroke-linecap:butt;stroke-linejoin:miter;stroke-dasharray:none"
       id="path1441862">
      <title
         id="title261090">sMRtm_medial_R</title>
    </path>
    <path
       d="m 54.717861,32.754976 c 0.206605,-0.237089 0.410251,-0.232257 0.632432,-0.146022 0.22218,0.08624 0.4633,0.252003 0.711606,0.501064 0.248306,0.24906 0.504496,0.580606 0.726836,0.977292 0.222342,0.396686 0.408859,0.851292 0.566549,1.364766 0.157689,0.513474 0.280683,1.066521 0.54952,1.831321 0.268836,0.764799 0.673815,1.713135 0.705329,2.441546 0.03152,0.728412 -0.314275,1.225394 -0.788367,1.442536 -0.474092,0.217143 -1.076398,0.155493 -1.32454,-0.40912 -0.248144,-0.564614 -0.137983,-1.61703 -0.477223,-2.842832 -0.33924,-1.225803 -1.122994,-2.601414 -1.415809,-3.530325 -0.292815,-0.928912 -0.09294,-1.393138 0.113667,-1.630226 z"
       clip-path="none"
       style="fill:#5ec962;stroke:#000000;stroke-width:0.124536;stroke-linecap:butt;stroke-linejoin:miter;stroke-dasharray:none"
       id="path1441866">
      <title
         id="title262520">VSM_medial_R</title>
    </path>
    <path
       d="m 53.248989,32.181419 c 0.254875,-0.121716 0.504807,-0.209749 0.727757,-0.153828 0.222953,0.05593 0.40336,0.250967 0.565438,0.572018 0.162076,0.321051 0.297544,0.753201 0.440592,1.236489 0.143048,0.483288 0.289278,1.002837 0.441495,1.412403 0.15222,0.409566 0.304185,0.693105 0.450261,1.060453 0.146078,0.367352 0.281537,0.807993 0.404992,1.165743 0.123456,0.357748 0.232853,0.62846 0.339427,0.99703 0.106574,0.36857 0.207241,0.825517 0.152303,1.340106 -0.05494,0.514588 -0.26582,1.085961 -0.632846,1.288975 -0.367026,0.203014 -0.881111,0.04024 -1.247126,-0.342525 -0.366015,-0.382779 -0.55883,-0.957997 -0.774429,-1.620127 -0.215598,-0.662128 -0.449488,-1.397904 -0.597577,-1.962953 -0.148088,-0.565049 -0.208761,-0.951801 -0.400537,-1.408748 -0.19178,-0.456948 -0.506696,-0.966037 -0.634526,-1.507402 -0.127832,-0.541365 -0.06222,-1.091638 0.09817,-1.447912 0.160402,-0.356274 0.411727,-0.508005 0.666603,-0.629722 z"
       clip-path="none"
       style="fill:#1f978b;stroke:#000000;stroke-width:0.124536;stroke-linecap:butt;stroke-linejoin:miter;stroke-dasharray:none"
       id="path1441870">
      <title
         id="title264635">ROb_medial_B</title>
    </path>
    <path
       d="m 55.512603,26.526068 c 0.01151,0.26395 0.03407,0.781157 0.05176,1.069832 0.01769,0.288676 0.03048,0.356866 0.05558,0.523868 0.0251,0.167 0.06104,0.421426 0.02463,0.650233 -0.03641,0.228807 -0.145839,0.422631 -0.222314,0.503046 -0.07647,0.08041 -0.12333,0.04633 -0.163866,0.01452 -0.04053,-0.03181 -0.07462,-0.06165 -0.101437,-0.229797 -0.02682,-0.168149 -0.04387,-0.474867 -0.02288,-0.730941 0.02099,-0.256076 0.08062,-0.460542 0.04364,-1.019427 -0.03699,-0.558883 -0.172583,-1.480827 -0.134371,-1.716627 0.03821,-0.235798 0.242509,0.205935 0.350125,0.438623 0.107615,0.232685 0.107618,0.232713 0.119129,0.496664 z"
       clip-path="none"
       style="fill:#4ec36b;stroke:#000000;stroke-width:0.124536;stroke-linecap:butt;stroke-linejoin:miter;stroke-dasharray:none"
       id="path1441874">
      <title
         id="title258182">Ve_medial_R</title>
    </path>
    <path
       d="m 54.169974,29.433403 c -0.02858,0.411649 -0.07774,0.923183 -0.560324,1.05623 -0.482584,0.133047 -1.401245,-0.111338 -1.878291,-0.48624 -0.477049,-0.374904 -0.508149,-0.871684 -0.543196,-1.339777 -0.03505,-0.468094 -0.07357,-0.899003 0.307566,-1.077724 0.381136,-0.178721 1.158355,-0.105027 1.691504,0.07728 0.533151,0.182305 0.782556,0.464228 0.900796,0.758341 0.118241,0.294114 0.11052,0.600245 0.08194,1.011894 z"
       clip-path="none"
       style="fill:#31688e;stroke:#000000;stroke-width:0.124536;stroke-linecap:butt;stroke-linejoin:miter;stroke-dasharray:none"
       id="path1441878">
      <title
         id="title258915">PCRtA_medial_R</title>
    </path>
    <path
       d="m 52.4455,29.386109 c 0.392146,0.05707 0.748905,0.371501 0.949611,0.737727 0.200703,0.366226 0.23971,0.776534 0.133641,1.095893 -0.106072,0.319361 -0.358107,0.550142 -0.745879,0.783663 -0.387775,0.233521 -0.905701,0.466772 -1.314619,0.237926 -0.40892,-0.228848 -0.704596,-0.918058 -0.728237,-1.414613 -0.02364,-0.496555 0.225169,-0.792386 0.560497,-1.043436 0.33533,-0.251051 0.752841,-0.45423 1.144986,-0.39716 z"
       clip-path="none"
       style="fill:#26828e;stroke:#000000;stroke-width:0.124536;stroke-linecap:butt;stroke-linejoin:miter;stroke-dasharray:none"
       id="path1441882">
      <title
         id="title259644">RMg_medial_B</title>
    </path>
    <path
       d="m 50.521013,5.6101113 c 0.159499,-0.011517 0.47195,-0.034072 0.84652,0.05606 0.37457,0.090132 0.80907,0.2884906 1.076861,0.5950286 0.267791,0.306537 0.358028,0.709244 0.311083,1.092947 -0.04694,0.383702 -0.231667,0.741885 -0.404674,0.638207 -0.173007,-0.103678 -0.332762,-0.660608 -0.571948,-1.074498 -0.239183,-0.41389 -0.538597,-0.653326 -0.786535,-0.841781 -0.247941,-0.188454 -0.436624,-0.3195569 -0.533713,-0.387017 -0.09709,-0.067462 -0.09709,-0.067443 0.0624,-0.07895 z"
       clip-path="none"
       style="fill:#481f70;stroke:#000000;stroke-width:0.124536;stroke-linecap:butt;stroke-linejoin:miter;stroke-dasharray:none"
       id="path1441886">
      <title
         id="title250632">IC_medial_R</title>
    </path>
    <path
       d="m 45.343944,2.7968129 c 0.104038,0.031788 0.297079,0.090769 0.440626,0.1446324 0.143545,0.053865 0.212016,0.093806 0.369111,0.1963222 0.157095,0.1025166 0.391849,0.2599425 0.301405,0.5780402 -0.09045,0.3180976 -0.510195,0.7860641 -0.818578,1.1515564 C 45.328127,5.2328564 45.134142,5.4924537 44.779484,5.4383872 44.424826,5.3843192 43.909852,5.0172969 43.633521,4.7364476 43.357192,4.4555989 43.322209,4.2589719 43.310173,4.0899824 43.298123,3.9209929 43.309213,3.7911903 43.442481,3.6422515 43.575726,3.493312 43.82505,3.335084 44.071145,3.2209877 c 0.246096,-0.1140963 0.485744,-0.182568 0.679459,-0.2510523 0.193714,-0.068484 0.342054,-0.1369497 0.415676,-0.1709297 0.07362,-0.03398 0.07363,-0.03398 0.177664,-0.00219 z"
       clip-path="none"
       style="fill:#dae319;stroke:#000000;stroke-width:0.124536;stroke-linecap:butt;stroke-linejoin:miter;stroke-dasharray:none"
       id="path1441890">
      <title
         id="title246309">mRtl_medial_R</title>
    </path>
    <path
       d="m 45.830188,11.511286 c -0.631991,-0.158669 -0.938951,-0.823735 -0.877965,-1.431326 0.06099,-0.6075901 0.479964,-1.1288911 0.79864,-1.3654161 0.318675,-0.236526 0.512614,-0.164602 0.708006,-0.06661 0.195391,0.098 0.393522,0.221827 0.713179,0.614355 0.319656,0.392528 0.756875,1.0453281 0.500367,1.5500441 -0.256509,0.504714 -1.210237,0.857615 -1.842227,0.698946 z"
       clip-path="none"
       style="fill:#287c8e;stroke:#000000;stroke-width:0.124536;stroke-linecap:butt;stroke-linejoin:miter;stroke-dasharray:none"
       id="path1441894">
      <title
         id="title251405">PTg_medial_R</title>
    </path>
    <path
       d="m 51.739738,21.303334 c 0.09248,0.394078 0.27679,1.17948 0.485418,1.988842 0.208628,0.809363 0.441445,1.642659 0.630078,2.267022 0.188635,0.624363 0.328041,1.025814 0.321836,1.497779 -0.0062,0.471965 -0.160864,1.004043 -0.418906,1.279161 -0.258042,0.275118 -0.614869,0.294204 -0.900051,0.07312 -0.285182,-0.221091 -0.477873,-0.664302 -0.66014,-1.094047 -0.182268,-0.429747 -0.349354,-0.835224 -0.450795,-1.159139 -0.10144,-0.323915 -0.135328,-0.558208 -0.07052,-1.200493 0.0648,-0.642284 0.225522,-1.66167 0.345766,-2.403258 0.120245,-0.741588 0.197886,-1.191739 0.29525,-1.417435 0.09737,-0.225696 0.213096,-0.225686 0.271342,-0.225683 0.05825,6e-6 0.05825,6e-5 0.150726,0.394137 z"
       clip-path="none"
       style="fill:#40bd72;stroke:#000000;stroke-width:0.124536;stroke-linecap:butt;stroke-linejoin:miter;stroke-dasharray:none"
       id="path1441898">
      <title
         id="title256704">SubC_medial_R</title>
    </path>
    <path
       d="m 51.809698,27.531773 c -0.04115,-0.145321 -0.122287,-0.43189 -0.259836,-0.763132 -0.137553,-0.331244 -0.327553,-0.696835 -0.434073,-1.211096 -0.106519,-0.514261 -0.129173,-1.178647 -0.09656,-1.646594 0.03262,-0.467947 0.119332,-0.73327 0.302591,-0.642956 0.183257,0.09031 0.455719,0.532807 0.649368,1.105409 0.193648,0.572601 0.302653,1.255257 0.357499,1.768027 0.05484,0.512769 0.052,0.828171 -0.0369,1.04934 -0.08891,0.221169 -0.264576,0.353496 -0.352742,0.419909 -0.08816,0.06641 -0.08819,0.06641 -0.129341,-0.0789 z"
       clip-path="none"
       style="fill:#2b758e;stroke:#000000;stroke-width:0.124536;stroke-linecap:butt;stroke-linejoin:miter;stroke-dasharray:none"
       id="path1441902">
      <title
         id="title257445">PnO_PnC_medial_R</title>
    </path>
    <path
       d="M 50.028733,13.749237 C 49.9028,13.5402 49.715621,13.035692 49.687213,12.653918 c -0.0284,-0.381772 0.100513,-0.646332 0.418247,-0.855883 0.317735,-0.209553 0.817651,-0.361534 1.382112,-0.09093 0.56446,0.270603 1.185636,0.962851 1.886463,1.638559 0.700825,0.675709 1.471586,1.327294 1.991391,1.912407 0.519807,0.585113 0.765233,1.077034 0.820427,1.579429 0.05519,0.502393 -0.0833,1.005528 -0.32167,1.263293 -0.23837,0.257766 -0.577103,0.271909 -0.805798,0.279063 -0.228696,0.0072 -0.345887,0.0072 -0.431206,-0.181939 -0.08532,-0.189092 -0.136686,-0.57009 -0.481998,-1.046231 -0.345311,-0.476142 -0.982519,-1.043114 -1.414887,-1.458328 -0.432367,-0.415216 -0.671182,-0.689409 -1.048935,-0.984297 -0.377754,-0.29489 -0.884403,-0.602908 -1.17127,-0.717185 -0.286867,-0.114274 -0.355421,-0.03361 -0.481356,-0.242639 z"
       clip-path="none"
       style="fill:#424186;stroke:#000000;stroke-width:0.124536;stroke-linecap:butt;stroke-linejoin:miter;stroke-dasharray:none"
       id="path1441906">
      <title
         id="title252174">LPB_medial_R</title>
    </path>
    <path
       d="m 49.369508,14.056725 c 0.100291,-0.08957 0.215756,-0.2134 0.417154,-0.2626 0.201398,-0.0492 0.482869,-0.0239 0.731633,0.03888 0.248765,0.06277 0.453933,0.160905 0.596508,0.246116 0.142571,0.08522 0.222817,0.156544 0.508716,0.376348 0.285899,0.219805 0.766597,0.5803 1.111696,0.88004 0.345098,0.299739 0.531372,0.519763 0.714566,0.69044 0.183195,0.170676 0.363711,0.294085 0.575423,0.515823 0.211713,0.221738 0.457627,0.543725 0.585411,0.820836 0.127784,0.277113 0.12546,0.486408 0.13478,0.703509 0.0093,0.217101 0.02874,0.432621 -0.01483,0.685421 -0.04357,0.252798 -0.150136,0.532232 -0.294668,0.756634 -0.144532,0.224404 -0.326157,0.391967 -0.754703,0.175905 -0.428544,-0.216061 -1.104331,-0.815524 -1.599517,-1.209719 -0.495185,-0.394195 -0.809053,-0.581529 -1.265321,-0.85094 -0.456268,-0.269412 -1.037552,-0.610664 -1.347444,-1.032447 -0.309893,-0.421783 -0.336163,-0.910089 -0.350929,-1.313151 -0.01477,-0.403061 -0.01758,-0.708493 0.02414,-0.892233 0.04173,-0.183738 0.127089,-0.239303 0.227379,-0.328863 z"
       clip-path="none"
       style="fill:#375a8c;stroke:#000000;stroke-width:0.124536;stroke-linecap:butt;stroke-linejoin:miter;stroke-dasharray:none"
       id="path1441910">
      <title
         id="title254457">MPB_medial_R</title>
    </path>
    <path
       d="m 51.035881,17.43118 c -0.227267,-0.117161 -0.206715,-0.387835 -0.128392,-0.615805 0.07833,-0.227968 0.211061,-0.40627 0.451874,-0.567698 0.240813,-0.161429 0.581889,-0.300319 0.941245,0.04893 0.359355,0.34925 0.730532,1.184551 0.955448,1.733219 0.224918,0.548671 0.303394,0.80823 0.468013,1.112122 0.16462,0.30389 0.398341,0.625732 0.471807,0.981942 0.07347,0.35621 -0.02837,0.675084 -0.122211,0.79943 -0.09383,0.124346 -0.173552,0.03531 -0.262876,-0.04014 -0.08933,-0.07545 -0.191108,-0.13905 -0.318998,-0.316585 -0.127887,-0.177535 -0.280548,-0.470135 -0.426697,-0.812032 -0.146147,-0.341898 -0.286092,-0.735333 -0.426409,-1.126934 -0.140317,-0.3916 -0.274913,-0.7644 -0.58511,-0.938842 -0.310196,-0.174442 -0.790428,-0.140451 -1.017694,-0.257612 z"
       clip-path="none"
       style="fill:#46307e;stroke:#000000;stroke-width:0.124536;stroke-linecap:butt;stroke-linejoin:miter;stroke-dasharray:none"
       id="path1441914">
      <title
         id="title255210">LC_medial_R</title>
    </path>
    <path
       d="m 51.810203,16.951865 c 0.531341,0.695427 1.365185,2.348188 1.846208,3.47279 0.481026,1.1246 0.599898,1.700901 0.793088,2.432535 0.193189,0.731635 0.455061,1.600799 0.642146,2.604707 0.187085,1.003906 0.2949,2.121164 0.238383,2.780591 -0.05652,0.659427 -0.277501,0.846609 -0.487741,0.91461 -0.210238,0.068 -0.411717,0.01761 -0.599547,-0.08111 -0.187829,-0.09872 -0.354065,-0.240489 -0.561344,-0.503764 -0.207278,-0.263273 -0.44132,-0.631052 -0.64321,-1.051569 -0.201888,-0.420517 -0.371049,-0.894173 -0.591116,-1.663876 -0.220069,-0.769705 -0.490724,-1.835406 -0.651462,-2.478221 -0.160738,-0.642816 -0.211483,-0.862715 -0.266267,-1.304588 -0.05478,-0.441871 -0.113601,-1.110381 -0.192229,-1.689472 -0.07863,-0.579093 -0.174092,-1.049837 -0.260991,-1.631737 -0.0869,-0.581897 -0.162831,-1.260147 -0.09007,-1.741512 0.07277,-0.481367 0.292812,-0.754812 0.824152,-0.05938 z"
       clip-path="none"
       style="fill:#443983;stroke:#000000;stroke-width:0.124536;stroke-linecap:butt;stroke-linejoin:miter;stroke-dasharray:none"
       id="path1441918">
      <title
         id="title255959">LDTg_CGPn_medial_R</title>
    </path>
    <path
       d="m 46.52939,15.857456 c -0.145146,-0.196712 -0.287293,-0.38936 -0.290209,-0.926083 -0.003,-0.536725 0.132841,-1.369215 0.439542,-1.803072 0.306698,-0.433857 0.765946,-0.437457 1.118579,-0.334209 0.352634,0.103249 0.582381,0.311041 0.798488,0.623258 0.216107,0.312214 0.424508,0.737976 0.551418,1.079328 0.126911,0.341353 0.171864,0.593713 0.214776,0.909746 0.04291,0.316029 0.08156,0.679766 -0.05242,0.908636 -0.133975,0.228867 -0.441819,0.320732 -0.776132,0.350195 -0.334314,0.02947 -0.687729,-0.0033 -1.030417,-0.150068 -0.342689,-0.146886 -0.656209,-0.400723 -0.973627,-0.657713 0,0 0,-1.8e-5 0,-1.8e-5 z"
       clip-path="none"
       style="fill:#2e6f8e;stroke:#000000;stroke-width:0.124536;stroke-linecap:butt;stroke-linejoin:miter;stroke-dasharray:none"
       id="path1441922">
      <title
         id="title253700">PMnR_medial_B</title>
    </path>
    <path
       d="m 48.203248,13.920138 c -0.100173,-0.06194 -0.306353,-0.189434 -0.481753,-0.283437 -0.175399,-0.094 -0.325841,-0.157865 -0.386633,-0.302411 -0.06079,-0.144545 -0.03103,-0.366353 0.06709,-0.49595 0.09812,-0.129595 0.259042,-0.163974 0.411571,-0.147839 0.15253,0.01614 0.28223,0.08096 0.470387,0.223913 0.188154,0.142962 0.426773,0.358685 0.527546,0.563575 0.100774,0.20489 0.06305,0.39859 -0.04476,0.480805 -0.107814,0.08222 -0.287073,0.0525 -0.375173,0.0379 -0.08811,-0.01461 -0.0881,-0.01462 -0.18827,-0.07656 z"
       clip-path="none"
       style="fill:#3b528b;stroke:#000000;stroke-width:0.124536;stroke-linecap:butt;stroke-linejoin:miter;stroke-dasharray:none"
       id="path1441926">
      <title
         id="title252939">MnR_medial_B</title>
    </path>
    <path
       d="m 38.371601,8.2369869 c 0.122166,0.01129 0.350995,0.03243 0.429608,0.117351 0.07861,0.08491 -9.6e-4,0.232341 -0.05337,0.381616 -0.05236,0.149275 -0.07726,0.298317 -0.189202,0.476388 -0.111939,0.178072 -0.302643,0.372072 -0.424548,0.548171 -0.121904,0.176098 -0.172178,0.3310741 -0.33223,0.4636581 -0.160052,0.132583 -0.42013,0.236983 -0.836412,0.299676 -0.416283,0.06269 -0.958133,0.07863 -1.378129,-0.0054 -0.419998,-0.08391 -0.699445,-0.264287 -1.088172,-0.395831 -0.388725,-0.1315421 -0.833993,-0.2012761 -1.061954,-0.3958591 -0.227958,-0.194582 -0.179801,-0.465699 -0.112579,-0.684846 0.06722,-0.21915 0.146387,-0.357464 0.341155,-0.546724 0.194771,-0.189262 0.501377,-0.42325 0.776233,-0.556451 0.274854,-0.133201 0.511816,-0.165024 0.661247,-0.245803 0.149429,-0.08077 0.207613,-0.209874 0.326761,-0.266168 0.119146,-0.05629 0.296655,-0.04017 0.486348,-0.01177 0.189692,0.0284 0.391417,0.06874 0.623233,0.09433 0.231817,0.02559 0.494896,0.0369 0.739651,0.129214 0.244756,0.09231 0.472702,0.265528 0.633325,0.378022 0.160623,0.112494 0.249201,0.160974 0.293042,0.184968 0.04384,0.024 0.04382,0.02405 0.165997,0.03534 z"
       clip-path="none"
       style="fill:#25ab82;stroke:#000000;stroke-width:0.124536;stroke-linecap:butt;stroke-linejoin:miter;stroke-dasharray:none"
       id="path1441930">
      <title
         id="title245906">SN1_medial_R</title>
    </path>
    <path
       d="m 46.380858,3.5259929 c -0.01118,-0.1565511 -0.03373,-0.4722208 -0.02275,-0.667661 0.01098,-0.1954403 0.05607,-0.2687048 0.08704,-0.3221112 0.03096,-0.053406 0.04786,-0.087203 0.150045,-0.1527776 0.102184,-0.065574 0.288208,-0.1614051 0.441259,-0.2033114 0.15305,-0.041907 0.271441,-0.030613 0.412407,-0.013629 0.140965,0.016984 0.304436,0.039536 0.566669,0.1387071 0.262232,0.099171 0.623014,0.2739235 0.867986,0.4266319 0.24497,0.1527085 0.374614,0.2823468 0.47887,0.3895057 0.104256,0.1071588 0.183163,0.1917051 0.227209,0.2932289 0.04405,0.1015238 0.05532,0.219915 0.03493,0.3756386 -0.02039,0.1557228 -0.07036,0.3444822 -0.221642,0.4341368 -0.151288,0.089654 -0.404955,0.078363 -0.579095,0.064468 C 48.649643,4.2749217 48.553831,4.2580037 48.376337,4.2074967 48.198843,4.1569907 47.939521,4.0724355 47.595622,3.9792871 47.251721,3.8861391 46.823302,3.7846716 46.607669,3.7336007 46.392035,3.6825307 46.392038,3.6825517 46.380856,3.525997 Z"
       clip-path="none"
       style="fill:#20a486;stroke:#000000;stroke-width:0.124536;stroke-linecap:butt;stroke-linejoin:miter;stroke-dasharray:none"
       id="path1441934">
      <title
         id="title246707">SC_medial_R</title>
    </path>
    <path
       d="m 44.848724,7.3828539 c -0.279972,-0.452518 -0.833575,-1.347308 -0.770203,-1.8786765 0.06337,-0.5313691 0.739547,-0.6830002 1.217747,-0.627084 0.478201,0.055917 0.741368,0.3176102 1.10531,0.7647142 0.363941,0.4471023 0.816884,1.0648233 1.269145,1.6187313 0.452262,0.553909 0.881395,1.016686 1.254899,1.521636 0.373503,0.504953 0.677975,1.034708 0.818191,1.7832071 0.140217,0.748501 0.11297,1.706983 -0.355278,1.598904 -0.468248,-0.10808 -1.35765,-1.254032 -2.162955,-2.1778451 -0.805306,-0.92381 -1.439948,-1.526846 -1.768418,-1.838956 -0.328471,-0.312112 -0.328467,-0.312112 -0.608438,-0.764631 z"
       clip-path="none"
       style="fill:#481668;stroke:#000000;stroke-width:0.124536;stroke-linecap:butt;stroke-linejoin:miter;stroke-dasharray:none"
       id="path1441938">
      <title
         id="title249855">DR_medial_B</title>
    </path>
    <path
       d="m 45.480714,4.611328 c -0.0082,-0.4866498 0.379852,-0.8925509 0.919524,-1.0647991 0.539672,-0.1722481 1.218206,-0.1083832 1.919984,0.2613773 0.701778,0.3697598 1.412183,1.0367327 2.070725,1.6404842 0.658541,0.6037515 1.234852,1.1166115 1.571286,1.6055515 0.336433,0.488941 0.412372,0.924771 0.373334,1.290321 -0.03903,0.36555 -0.193847,0.649738 -0.419758,0.89046 -0.22591,0.240721 -0.524596,0.440104 -0.925949,0.517836 -0.401352,0.07773 -0.900231,0.03364 -1.329174,-0.06909 -0.428944,-0.102736 -0.788751,-0.266552 -1.110581,-0.575583 -0.32183,-0.309031 -0.588717,-0.743236 -0.958051,-1.247485 -0.369333,-0.50425 -0.827762,-1.059234 -1.262746,-1.625665 C 45.894325,5.668305 45.488903,5.0979807 45.480714,4.611331 Z"
       clip-path="none"
       style="fill:#34618d;stroke:#000000;stroke-width:0.124536;stroke-linecap:butt;stroke-linejoin:miter;stroke-dasharray:none"
       id="path1441942">
      <title
         id="title249074">PAG_medial_B</title>
    </path>
    <path
       d="m 31.452249,8.0853949 c -0.220706,-0.145223 -0.439547,-0.310064 -0.5837,-0.606263 -0.144152,-0.296199 -0.209494,-0.711429 -0.06854,-1.080243 0.140946,-0.368814 0.483712,-0.6769398 0.922428,-0.8811916 0.438716,-0.2042518 0.958195,-0.297417 1.396404,-0.3332007 0.438211,-0.035782 0.78624,-0.012988 1.166298,0.06731 0.380058,0.080297 0.790845,0.2172223 1.000491,0.588825 0.209646,0.3716033 0.221059,0.9763913 0.172797,1.3201073 -0.04827,0.343718 -0.156645,0.429285 -0.368604,0.475142 -0.211959,0.04586 -0.517561,0.05141 -0.800825,0.106562 -0.283262,0.05516 -0.531432,0.160697 -0.888479,0.29459 -0.357045,0.133893 -0.81089,0.291752 -1.154824,0.307464 -0.343933,0.01572 -0.572737,-0.113883 -0.793443,-0.259104 z"
       clip-path="none"
       style="fill:#2cb17e;stroke:#000000;stroke-width:0.124536;stroke-linecap:butt;stroke-linejoin:miter;stroke-dasharray:none"
       id="path1441946">
      <title
         id="title245501">SN2_medial_R</title>
    </path>
    <path
       d="M 35.421427,7.6076739 C 35.291796,7.2914219 35.031697,6.6568759 34.905564,6.1969829 34.779431,5.7370894 34.788237,5.450916 34.846324,5.1720561 34.904434,4.8931969 35.009028,4.6314443 35.09709,4.4320095 35.18515,4.2325747 35.253291,4.1033317 35.390818,4.067984 c 0.137528,-0.035345 0.338012,0.023062 0.506485,0.085451 0.168475,0.062386 0.293019,0.1246588 0.488155,0.2619204 0.195135,0.1372617 0.457043,0.3456011 0.951379,0.6305995 0.494337,0.2849976 1.198292,0.6335285 1.807174,1.263063 0.608881,0.629534 1.096622,1.51366 0.782227,1.793084 -0.314395,0.279426 -1.418655,-0.05583 -1.780075,0.07088 -0.361418,0.126717 0.03876,0.714338 0.443795,1.159202 0.405049,0.444866 0.808555,0.7412391 0.814669,0.9110241 0.0061,0.169787 -0.385697,0.203387 -0.951583,-0.05966 C 37.887158,9.9204999 37.149317,9.3587209 36.635986,8.9314929 36.122655,8.5042679 35.836554,8.2137909 35.693807,8.0688589 35.551059,7.9239259 35.551051,7.9239259 35.42142,7.6076739 Z"
       clip-path="none"
       style="fill:#6ece58;stroke:#000000;stroke-width:0.124536;stroke-linecap:butt;stroke-linejoin:miter;stroke-dasharray:none"
       id="path1441950">
      <title
         id="title243603">VTA_PBP_medial_R</title>
    </path>
    <path
       d="m 42.984798,3.6879078 c -0.671739,-0.472383 -1.287921,-1.1831106 -1.360281,-1.8162755 -0.07236,-0.6331649 0.398654,-1.16823511 1.046711,-1.17473671 0.648054,-0.0065 1.445496,0.51607631 2.142331,1.08844701 0.696836,0.5723705 1.270057,1.1759038 1.297415,1.6560752 0.02736,0.4801712 -0.495694,0.8251592 -1.115657,0.8850255 -0.619963,0.059867 -1.338779,-0.1661527 -2.010519,-0.6385355 z"
       clip-path="none"
       style="fill:#c8e020;stroke:#000000;stroke-width:0.124536;stroke-linecap:butt;stroke-linejoin:miter;stroke-dasharray:none"
       id="path1441954">
      <title
         id="title241561">mRtd_medial_R</title>
    </path>
    <path
       d="m 41.842234,7.4628019 c -0.14564,0.281864 -0.436756,0.845278 -0.861154,1.13259 -0.4244,0.287313 -0.977905,0.29881 -1.444226,0.05784 -0.46632,-0.240974 -0.827424,-0.724185 -0.816361,-1.233634 0.01107,-0.509454 0.396443,-1.0315 0.774473,-1.375224 0.378029,-0.343723 0.735861,-0.4998904 0.982518,-0.6126902 0.246659,-0.1127989 0.366103,-0.1750447 0.596691,0.1267644 0.230586,0.3018082 0.572901,0.9636168 0.743301,1.2930568 0.170402,0.32944 0.170402,0.329432 0.02476,0.611296 z"
       clip-path="none"
       style="fill:#21918c;stroke:#000000;stroke-width:0.124536;stroke-linecap:butt;stroke-linejoin:miter;stroke-dasharray:none"
       id="path1441958">
      <title
         id="title247500">RN2_medial_R</title>
    </path>
    <path
       d="M 40.156014,5.1452081 C 39.406308,4.8346386 38.68977,4.256622 38.559511,3.8283991 38.42925,3.4001764 38.892109,3.143632 39.37748,2.9845971 39.86285,2.825562 40.361153,2.7686132 40.81016,2.8362079 c 0.449006,0.067595 0.84741,0.2581342 1.154162,0.4960612 0.306754,0.2379275 0.517348,0.5148346 0.581639,0.8882728 0.0643,0.3734389 -0.02138,0.8377015 -0.447556,1.0529653 -0.426177,0.2152638 -1.192681,0.182271 -1.942391,-0.1282991 z"
       clip-path="none"
       style="fill:#b5de2b;stroke:#000000;stroke-width:0.124536;stroke-linecap:butt;stroke-linejoin:miter;stroke-dasharray:none"
       id="path1441962">
      <title
         id="title242382">mRta_medial_R</title>
    </path>
    <path
       d="m 40.406796,6.3411539 c 0.02808,-0.298851 0.31034,-0.7022198 0.493854,-0.9130498 0.183515,-0.2108298 0.260229,-0.2204351 0.418638,-0.2299444 0.15841,-0.00951 0.39822,-0.019083 0.691069,0.082577 0.292847,0.1016635 0.638179,0.3127031 0.949672,0.5721165 0.311493,0.2594137 0.589679,0.5663747 0.82449,0.8638917 0.234813,0.297518 0.426662,0.585291 0.406437,0.833583 -0.02022,0.248292 -0.250782,0.460064 -0.682476,0.484347 -0.431695,0.02428 -1.061404,-0.138242 -1.542057,-0.343022 -0.480656,-0.204778 -0.799843,-0.445424 -1.081001,-0.66051 -0.28116,-0.215085 -0.506709,-0.391139 -0.478626,-0.689989 z"
       clip-path="none"
       style="fill:#440154;stroke:#000000;stroke-width:0.124536;stroke-linecap:butt;stroke-linejoin:miter;stroke-dasharray:none"
       id="path1441966">
      <title
         id="title248289">CLi_RLi_medial_B</title>
    </path>
    <path
       d="m 38.819363,4.0340627 c 0.201756,0.095136 0.58723,0.2769014 0.816242,0.4971474 0.229012,0.2202459 0.270573,0.4480491 0.240857,0.674497 -0.02971,0.2264479 -0.131445,0.4363482 -0.355056,0.6791468 -0.223611,0.242798 -0.571647,0.520897 -0.932982,0.571531 -0.361335,0.05063 -0.728225,-0.125269 -1.032245,-0.389712 -0.30402,-0.2644431 -0.534562,-0.6067895 -0.579591,-0.9714034 -0.04503,-0.364614 0.09873,-0.722916 0.406613,-0.9182533 0.307883,-0.1953373 0.76702,-0.2165005 1.000713,-0.2272726 0.233693,-0.010772 0.233693,-0.010815 0.435449,0.084319 z"
       clip-path="none"
       style="fill:#23898e;stroke:#000000;stroke-width:0.124536;stroke-linecap:butt;stroke-linejoin:miter;stroke-dasharray:none"
       id="path1441970">
      <title
         id="title242790">RN1_medial_R</title>
    </path>
  </g>
</svg>
