<?xml version="1.0" encoding="UTF-8" standalone="no"?>
<!-- Created with Inkscape (http://www.inkscape.org/) -->

<svg
   width="29.849966mm"
   height="46.684978mm"
   viewBox="0 0 29.849966 46.684979"
   version="1.1"
   id="svg237104"
   inkscape:version="1.2 (dc2aeda, 2022-05-15)"
   sodipodi:docname="Brainstem_Navigator_R_lateral.svg"
   xmlns:inkscape="http://www.inkscape.org/namespaces/inkscape"
   xmlns:sodipodi="http://sodipodi.sourceforge.net/DTD/sodipodi-0.dtd"
   xmlns="http://www.w3.org/2000/svg"
   xmlns:svg="http://www.w3.org/2000/svg">
  <sodipodi:namedview
     id="namedview237106"
     pagecolor="#ffffff"
     bordercolor="#000000"
     borderopacity="0.25"
     inkscape:showpageshadow="2"
     inkscape:pageopacity="0.0"
     inkscape:pagecheckerboard="0"
     inkscape:deskcolor="#d1d1d1"
     inkscape:document-units="mm"
     showgrid="false"
     inkscape:zoom="7.7284836"
     inkscape:cx="50.592072"
     inkscape:cy="120.46348"
     inkscape:window-width="1470"
     inkscape:window-height="794"
     inkscape:window-x="0"
     inkscape:window-y="340"
     inkscape:window-maximized="1"
     inkscape:current-layer="layer1" />
  <defs
     id="defs237101">
    <clipPath
       id="clipPath238646">
      <rect
         x="53.501259"
         y="27.311251"
         width="468.9975"
         height="356.68875"
         id="rect238644" />
    </clipPath>
    <clipPath
       id="clipPath238650">
      <rect
         x="53.501259"
         y="27.311251"
         width="468.9975"
         height="356.68875"
         id="rect238648" />
    </clipPath>
    <clipPath
       id="clipPath238654">
      <rect
         x="53.501259"
         y="27.311251"
         width="468.9975"
         height="356.68875"
         id="rect238652" />
    </clipPath>
    <clipPath
       id="clipPath238658">
      <rect
         x="53.501259"
         y="27.311251"
         width="468.9975"
         height="356.68875"
         id="rect238656" />
    </clipPath>
    <clipPath
       id="clipPath238662">
      <rect
         x="53.501259"
         y="27.311251"
         width="468.9975"
         height="356.68875"
         id="rect238660" />
    </clipPath>
    <clipPath
       id="clipPath238666">
      <rect
         x="53.501259"
         y="27.311251"
         width="468.9975"
         height="356.68875"
         id="rect238664" />
    </clipPath>
    <clipPath
       id="clipPath238670">
      <rect
         x="53.501259"
         y="27.311251"
         width="468.9975"
         height="356.68875"
         id="rect238668" />
    </clipPath>
    <clipPath
       id="clipPath238674">
      <rect
         x="53.501259"
         y="27.311251"
         width="468.9975"
         height="356.68875"
         id="rect238672" />
    </clipPath>
    <clipPath
       id="clipPath238678">
      <rect
         x="53.501259"
         y="27.311251"
         width="468.9975"
         height="356.68875"
         id="rect238676" />
    </clipPath>
    <clipPath
       id="clipPath238682">
      <rect
         x="53.501259"
         y="27.311251"
         width="468.9975"
         height="356.68875"
         id="rect238680" />
    </clipPath>
    <clipPath
       id="clipPath238686">
      <rect
         x="53.501259"
         y="27.311251"
         width="468.9975"
         height="356.68875"
         id="rect238684" />
    </clipPath>
    <clipPath
       id="clipPath238690">
      <rect
         x="53.501259"
         y="27.311251"
         width="468.9975"
         height="356.68875"
         id="rect238688" />
    </clipPath>
    <clipPath
       id="clipPath238694">
      <rect
         x="53.501259"
         y="27.311251"
         width="468.9975"
         height="356.68875"
         id="rect238692" />
    </clipPath>
    <clipPath
       id="clipPath238698">
      <rect
         x="53.501259"
         y="27.311251"
         width="468.9975"
         height="356.68875"
         id="rect238696" />
    </clipPath>
    <clipPath
       id="clipPath238702">
      <rect
         x="53.501259"
         y="27.311251"
         width="468.9975"
         height="356.68875"
         id="rect238700" />
    </clipPath>
    <clipPath
       id="clipPath238706">
      <rect
         x="53.501259"
         y="27.311251"
         width="468.9975"
         height="356.68875"
         id="rect238704" />
    </clipPath>
    <clipPath
       id="clipPath238710">
      <rect
         x="53.501259"
         y="27.311251"
         width="468.9975"
         height="356.68875"
         id="rect238708" />
    </clipPath>
    <clipPath
       id="clipPath238714">
      <rect
         x="53.501259"
         y="27.311251"
         width="468.9975"
         height="356.68875"
         id="rect238712" />
    </clipPath>
    <clipPath
       id="clipPath238718">
      <rect
         x="53.501259"
         y="27.311251"
         width="468.9975"
         height="356.68875"
         id="rect238716" />
    </clipPath>
    <clipPath
       id="clipPath238722">
      <rect
         x="53.501259"
         y="27.311251"
         width="468.9975"
         height="356.68875"
         id="rect238720" />
    </clipPath>
    <clipPath
       id="clipPath238726">
      <rect
         x="53.501259"
         y="27.311251"
         width="468.9975"
         height="356.68875"
         id="rect238724" />
    </clipPath>
    <clipPath
       id="clipPath238730">
      <rect
         x="53.501259"
         y="27.311251"
         width="468.9975"
         height="356.68875"
         id="rect238728" />
    </clipPath>
    <clipPath
       id="clipPath238734">
      <rect
         x="53.501259"
         y="27.311251"
         width="468.9975"
         height="356.68875"
         id="rect238732" />
    </clipPath>
    <clipPath
       id="clipPath238738">
      <rect
         x="53.501259"
         y="27.311251"
         width="468.9975"
         height="356.68875"
         id="rect238736" />
    </clipPath>
    <clipPath
       id="clipPath238742">
      <rect
         x="53.501259"
         y="27.311251"
         width="468.9975"
         height="356.68875"
         id="rect238740" />
    </clipPath>
    <clipPath
       id="clipPath238746">
      <rect
         x="53.501259"
         y="27.311251"
         width="468.9975"
         height="356.68875"
         id="rect238744" />
    </clipPath>
    <clipPath
       id="clipPath238750">
      <rect
         x="53.501259"
         y="27.311251"
         width="468.9975"
         height="356.68875"
         id="rect238748" />
    </clipPath>
    <clipPath
       id="clipPath238754">
      <rect
         x="53.501259"
         y="27.311251"
         width="468.9975"
         height="356.68875"
         id="rect238752" />
    </clipPath>
    <clipPath
       id="clipPath238758">
      <rect
         x="53.501259"
         y="27.311251"
         width="468.9975"
         height="356.68875"
         id="rect238756" />
    </clipPath>
    <clipPath
       id="clipPath238762">
      <rect
         x="53.501259"
         y="27.311251"
         width="468.9975"
         height="356.68875"
         id="rect238760" />
    </clipPath>
    <clipPath
       id="clipPath238766">
      <rect
         x="53.501259"
         y="27.311251"
         width="468.9975"
         height="356.68875"
         id="rect238764" />
    </clipPath>
    <clipPath
       id="clipPath238770">
      <rect
         x="53.501259"
         y="27.311251"
         width="468.9975"
         height="356.68875"
         id="rect238768" />
    </clipPath>
    <clipPath
       id="clipPath238774">
      <rect
         x="53.501259"
         y="27.311251"
         width="468.9975"
         height="356.68875"
         id="rect238772" />
    </clipPath>
    <clipPath
       id="clipPath238778">
      <rect
         x="53.501259"
         y="27.311251"
         width="468.9975"
         height="356.68875"
         id="rect238776" />
    </clipPath>
    <clipPath
       id="clipPath238782">
      <rect
         x="53.501259"
         y="27.311251"
         width="468.9975"
         height="356.68875"
         id="rect238780" />
    </clipPath>
    <clipPath
       id="clipPath238786">
      <rect
         x="53.501259"
         y="27.311251"
         width="468.9975"
         height="356.68875"
         id="rect238784" />
    </clipPath>
    <clipPath
       id="clipPath238790">
      <rect
         x="53.501259"
         y="27.311251"
         width="468.9975"
         height="356.68875"
         id="rect238788" />
    </clipPath>
    <clipPath
       id="clipPath238794">
      <rect
         x="53.501259"
         y="27.311251"
         width="468.9975"
         height="356.68875"
         id="rect238792" />
    </clipPath>
    <clipPath
       id="clipPath238798">
      <rect
         x="53.501259"
         y="27.311251"
         width="468.9975"
         height="356.68875"
         id="rect238796" />
    </clipPath>
    <clipPath
       id="clipPath238802">
      <rect
         x="53.501259"
         y="27.311251"
         width="468.9975"
         height="356.68875"
         id="rect238800" />
    </clipPath>
    <clipPath
       id="clipPath238806">
      <rect
         x="53.501259"
         y="27.311251"
         width="468.9975"
         height="356.68875"
         id="rect238804" />
    </clipPath>
    <clipPath
       id="clipPath238810">
      <rect
         x="53.501259"
         y="27.311251"
         width="468.9975"
         height="356.68875"
         id="rect238808" />
    </clipPath>
    <clipPath
       id="clipPath238814">
      <rect
         x="53.501259"
         y="27.311251"
         width="468.9975"
         height="356.68875"
         id="rect238812" />
    </clipPath>
    <clipPath
       id="clipPath238818">
      <rect
         x="53.501259"
         y="27.311251"
         width="468.9975"
         height="356.68875"
         id="rect238816" />
    </clipPath>
    <clipPath
       id="clipPath238822">
      <rect
         x="53.501259"
         y="27.311251"
         width="468.9975"
         height="356.68875"
         id="rect238820" />
    </clipPath>
    <clipPath
       id="clipPath238826">
      <rect
         x="53.501259"
         y="27.311251"
         width="468.9975"
         height="356.68875"
         id="rect238824" />
    </clipPath>
    <clipPath
       id="clipPath238830">
      <rect
         x="53.501259"
         y="27.311251"
         width="468.9975"
         height="356.68875"
         id="rect238828" />
    </clipPath>
    <clipPath
       id="clipPath238834">
      <rect
         x="53.501259"
         y="27.311251"
         width="468.9975"
         height="356.68875"
         id="rect238832" />
    </clipPath>
    <clipPath
       id="clipPath238838">
      <rect
         x="53.501259"
         y="27.311251"
         width="468.9975"
         height="356.68875"
         id="rect238836" />
    </clipPath>
    <clipPath
       id="clipPath238842">
      <rect
         x="53.501259"
         y="27.311251"
         width="468.9975"
         height="356.68875"
         id="rect238840" />
    </clipPath>
    <clipPath
       id="clipPath238846">
      <rect
         x="53.501259"
         y="27.311251"
         width="468.9975"
         height="356.68875"
         id="rect238844" />
    </clipPath>
    <clipPath
       id="clipPath238850">
      <rect
         x="53.501259"
         y="27.311251"
         width="468.9975"
         height="356.68875"
         id="rect238848" />
    </clipPath>
    <clipPath
       id="clipPath238854">
      <rect
         x="53.501259"
         y="27.311251"
         width="468.9975"
         height="356.68875"
         id="rect238852" />
    </clipPath>
    <clipPath
       id="clipPath238858">
      <rect
         x="53.501259"
         y="27.311251"
         width="468.9975"
         height="356.68875"
         id="rect238856" />
    </clipPath>
    <clipPath
       id="clipPath238862">
      <rect
         x="53.501259"
         y="27.311251"
         width="468.9975"
         height="356.68875"
         id="rect238860" />
    </clipPath>
    <clipPath
       id="clipPath238866">
      <rect
         x="53.501259"
         y="27.311251"
         width="468.9975"
         height="356.68875"
         id="rect238864" />
    </clipPath>
    <clipPath
       id="clipPath238870">
      <rect
         x="53.501259"
         y="27.311251"
         width="468.9975"
         height="356.68875"
         id="rect238868" />
    </clipPath>
    <clipPath
       id="clipPath238874">
      <rect
         x="53.501259"
         y="27.311251"
         width="468.9975"
         height="356.68875"
         id="rect238872" />
    </clipPath>
    <clipPath
       id="clipPath238878">
      <rect
         x="53.501259"
         y="27.311251"
         width="468.9975"
         height="356.68875"
         id="rect238876" />
    </clipPath>
    <clipPath
       id="clipPath238882">
      <rect
         x="53.501259"
         y="27.311251"
         width="468.9975"
         height="356.68875"
         id="rect238880" />
    </clipPath>
    <clipPath
       id="clipPath238886">
      <rect
         x="53.501259"
         y="27.311251"
         width="468.9975"
         height="356.68875"
         id="rect238884" />
    </clipPath>
    <clipPath
       id="clipPath238890">
      <rect
         x="53.501259"
         y="27.311251"
         width="468.9975"
         height="356.68875"
         id="rect238888" />
    </clipPath>
    <clipPath
       id="clipPath238894">
      <rect
         x="53.501259"
         y="27.311251"
         width="468.9975"
         height="356.68875"
         id="rect238892" />
    </clipPath>
    <clipPath
       id="clipPath238898">
      <rect
         x="53.501259"
         y="27.311251"
         width="468.9975"
         height="356.68875"
         id="rect238896" />
    </clipPath>
    <clipPath
       id="clipPath238902">
      <rect
         x="53.501259"
         y="27.311251"
         width="468.9975"
         height="356.68875"
         id="rect238900" />
    </clipPath>
    <clipPath
       id="clipPath238906">
      <rect
         x="53.501259"
         y="27.311251"
         width="468.9975"
         height="356.68875"
         id="rect238904" />
    </clipPath>
    <clipPath
       id="clipPath238910">
      <rect
         x="53.501259"
         y="27.311251"
         width="468.9975"
         height="356.68875"
         id="rect238908" />
    </clipPath>
  </defs>
  <g
     inkscape:label="Layer 1"
     inkscape:groupmode="layer"
     id="layer1">
    <path
       d="m 7.762787,34.106247 c 0.05016,0.02508 0.147558,0.0738 0.200901,0.433438 0.05334,0.359645 0.06551,1.029249 0.05322,1.558677 -0.0123,0.529427 -0.04882,0.918999 -0.01078,1.390261 0.03804,0.47126 0.150097,1.024787 0.01039,1.33975 -0.139698,0.314963 -0.52604,0.392044 -0.802165,0.395446 -0.276124,0.0034 -0.42007,-0.06523 -0.59562,-0.138274 -0.175547,-0.07305 -0.358175,-0.14033 -0.458819,-0.354499 -0.100643,-0.214172 -0.105525,-0.55631 -0.04405,-0.939975 0.06147,-0.383665 0.189772,-0.804323 0.278404,-1.159818 0.08863,-0.355497 0.137411,-0.645828 0.238419,-0.956434 0.101007,-0.310607 0.25025,-0.632069 0.442253,-0.905608 0.192003,-0.273541 0.412647,-0.47871 0.525176,-0.583349 0.112529,-0.104637 0.112523,-0.1047 0.162685,-0.07961 z"
       clip-path="none"
       style="fill:#1f9e89;stroke:#000000;stroke-width:0.124536;stroke-linecap:butt;stroke-linejoin:miter;stroke-dasharray:none"
       id="path1441700">
      <title
         id="title286433">RPa_lateral_B</title>
    </path>
    <path
       d="m 7.198802,33.239987 c -0.0301,0.128436 -0.08989,0.383535 -0.137719,0.590823 -0.04782,0.207292 -0.0837,0.366738 -0.111621,0.486282 -0.02792,0.119543 -0.04784,0.199251 -0.08774,0.318652 -0.0399,0.119401 -0.09969,0.27884 -0.16146,0.420141 -0.06177,0.141301 -0.125549,0.264863 -0.18374,0.322412 -0.0582,0.05756 -0.11402,0.04962 -0.273581,-0.0809 -0.15956,-0.130514 -0.42263,-0.385612 -0.565133,-0.570782 -0.142503,-0.185166 -0.162433,-0.300769 -0.0766,-0.415975 0.08584,-0.115207 0.277167,-0.226818 0.450413,-0.338371 0.173246,-0.111552 0.328704,-0.223157 0.521988,-0.366632 0.193282,-0.143474 0.424475,-0.318865 0.539883,-0.406418 0.115407,-0.08755 0.115412,-0.08767 0.08531,0.04076 z"
       clip-path="none"
       style="fill:#1f978b;stroke:#000000;stroke-width:0.124536;stroke-linecap:butt;stroke-linejoin:miter;stroke-dasharray:none"
       id="path1441704">
      <title
         id="title284149">ROb_lateral_B</title>
    </path>
    <path
       d="m 8.01212,29.574501 c 0.02256,-0.0056 0.06605,-0.01652 0.06605,-0.01652 2e-6,0 -0.04347,0.01086 0.03128,-5.54e-4 0.07474,-0.01136 0.263215,-0.0443 0.397798,0.06731 0.134583,0.111608 0.207556,0.359664 0.255918,0.589708 0.04836,0.230046 0.06847,0.427169 0.05508,0.631607 -0.01338,0.20444 -0.06166,0.428433 -0.145322,0.550226 -0.08367,0.121793 -0.201819,0.145891 -0.327351,0.09452 -0.125536,-0.05138 -0.255856,-0.181689 -0.386757,-0.398625 -0.130902,-0.216936 -0.261219,-0.52101 -0.300095,-0.72296 -0.03888,-0.201951 0.01543,-0.2997 0.08656,-0.414597 0.07113,-0.114897 0.154265,-0.239557 0.199261,-0.307031 0.04499,-0.06747 0.045,-0.06751 0.06757,-0.07314 z"
       clip-path="none"
       style="fill:#26828e;stroke:#000000;stroke-width:0.124536;stroke-linecap:butt;stroke-linejoin:miter;stroke-dasharray:none"
       id="path1441708">
      <title
         id="title283568">RMg_lateral_B</title>
    </path>
    <path
       d="m 14.261912,5.1436531 c 0.243009,-0.03938 0.722971,-0.1171587 0.978375,0.060834 0.255404,0.1779948 0.280908,0.6089248 0.07666,1.0879168 -0.204253,0.478992 -0.63781,1.003049 -1.081644,1.54512 -0.443835,0.542068 -0.898282,1.102549 -1.234008,1.474115 -0.335725,0.371569 -0.552281,0.553936 -0.735736,0.7282771 -0.183453,0.174342 -0.333047,0.339919 -0.531753,0.5657 -0.198705,0.225782 -0.445217,0.510296 -0.705616,0.774808 -0.260398,0.264513 -0.53561,0.51 -0.78282,0.535699 -0.247212,0.02569 -0.462057,-0.166703 -0.536762,-0.4929 -0.0747,-0.326198 -0.0059,-0.772551 0.13983,-1.171096 0.145719,-0.3985431 0.364472,-0.7376391 0.611527,-1.1133421 0.247055,-0.375705 0.516075,-0.77835 0.742348,-1.071871 0.226274,-0.293522 0.408044,-0.475291 0.65045,-0.710121 0.242408,-0.23483 0.545361,-0.522636 0.916439,-0.893715 0.371078,-0.371079 0.810367,-0.8255181 1.030035,-1.052763 0.219671,-0.2272456 0.219668,-0.2272822 0.462677,-0.2666625 z"
       clip-path="none"
       style="fill:#481668;stroke:#000000;stroke-width:0.124536;stroke-linecap:butt;stroke-linejoin:miter;stroke-dasharray:none"
       id="path1441712">
      <title
         id="title276284">DR_lateral_B</title>
    </path>
    <path
       d="m 15.409585,7.6573769 c -0.02835,-0.08345 -0.08548,-0.251634 -0.04015,-0.446719 0.04534,-0.195084 0.191151,-0.412129 0.384631,-0.649744 0.193479,-0.237616 0.432414,-0.492474 0.543736,-0.382422 0.111321,0.110052 0.09493,0.58614 0.328826,0.789151 0.233895,0.203013 0.714698,0.130569 0.897294,0.165544 0.182594,0.03498 0.06637,0.179598 -0.04294,0.273899 -0.109313,0.0943 -0.2155,0.142096 -0.436378,0.232776 -0.220877,0.09068 -0.556631,0.224261 -0.844278,0.24831 -0.287646,0.02405 -0.516587,-0.05859 -0.639493,-0.102975 -0.122907,-0.04437 -0.122905,-0.04437 -0.151251,-0.12782 z"
       clip-path="none"
       style="fill:#440154;stroke:#000000;stroke-width:0.124536;stroke-linecap:butt;stroke-linejoin:miter;stroke-dasharray:none"
       id="path1441716">
      <title
         id="title273079">CLi_RLi_lateral_B</title>
    </path>
    <path
       d="m 19.801089,5.3631299 c 0.03363,-0.1456349 0.101531,-0.4397581 0.205695,-0.6419294 0.104165,-0.2021713 0.241083,-0.3073439 0.384871,-0.4189577 0.143788,-0.1116143 0.292348,-0.2280535 0.474563,-0.3164376 0.182213,-0.088385 0.392033,-0.1471886 0.621248,-0.1728866 0.229216,-0.025694 0.463497,-0.016882 0.660237,0.068679 0.196738,0.085557 0.342529,0.2422606 0.422087,0.4372763 0.07955,0.1950163 0.08963,0.4235263 -0.04545,0.57545 -0.135078,0.1519231 -0.414983,0.228568 -0.552123,0.2917126 -0.137141,0.063141 -0.126708,0.1098738 -0.259663,0.2073625 -0.132957,0.097488 -0.410436,0.2457396 -0.614266,0.3296099 -0.203832,0.08386 -0.33082,0.102493 -0.542611,0.05548 -0.211791,-0.04701 -0.500776,-0.1586705 -0.64449,-0.2142007 -0.143715,-0.055532 -0.143718,-0.055532 -0.110095,-0.2011661 z"
       clip-path="none"
       style="fill:#23898e;stroke:#000000;stroke-width:0.124536;stroke-linecap:butt;stroke-linejoin:miter;stroke-dasharray:none"
       id="path1441720">
      <title
         id="title269774">RN1_lateral_R</title>
    </path>
    <path
       d="m 18.116982,5.3044047 c 0.02864,-0.020043 0.08541,-0.05979 0.265275,-0.076632 0.179868,-0.01684 0.4808,-0.011147 0.679757,0.012155 0.198953,0.023302 0.295482,0.063049 0.372052,0.1031634 0.07658,0.040118 0.133349,0.079862 0.198745,0.116485 0.06539,0.036625 0.139174,0.070668 0.242379,0.1473337 0.103204,0.076666 0.240489,0.1988561 0.335962,0.3143751 0.09547,0.11552 0.133307,0.203098 0.09917,0.416485 -0.03413,0.213387 -0.14058,0.538824 -0.08748,0.800952 0.05309,0.26213 0.261013,0.44719 0.331833,0.601029 0.07082,0.153837 -0.0019,0.265794 -0.09723,0.394758 -0.09534,0.128964 -0.213711,0.275302 -0.416057,0.363604 -0.202349,0.0883 -0.482245,0.117166 -0.751733,0.0776 -0.269488,-0.03957 -0.513845,-0.145109 -0.780897,-0.361441 -0.267055,-0.216331 -0.539567,-0.529745 -0.589811,-0.755961 -0.05024,-0.226216 0.126908,-0.353296 0.241599,-0.476447 0.114692,-0.123151 0.165799,-0.242394 0.194382,-0.358225 0.02858,-0.115832 0.03425,-0.229401 0.0091,-0.407979 -0.02516,-0.178578 -0.08195,-0.422758 -0.132513,-0.5817546 -0.05056,-0.1589959 -0.09597,-0.2327712 -0.119557,-0.271113 -0.02359,-0.038343 -0.02359,-0.038343 0.0051,-0.058383 z"
       clip-path="none"
       style="fill:#21918c;stroke:#000000;stroke-width:0.124536;stroke-linecap:butt;stroke-linejoin:miter;stroke-dasharray:none"
       id="path1441724">
      <title
         id="title272426">RN2_lateral_R</title>
    </path>
    <path
       d="m 7.744815,30.152592 c 0.116622,0.106515 0.344653,0.314779 0.468072,0.643797 0.123422,0.329018 0.139066,0.774553 -0.0031,1.137016 -0.142195,0.362467 -0.441433,0.642592 -0.686784,0.73256 C 7.27765,32.755935 7.097457,32.656265 6.75887,32.374767 6.420284,32.093294 5.931056,31.632921 5.811809,31.218909 5.692562,30.804896 5.942277,30.447318 6.309138,30.259225 c 0.366864,-0.188093 0.844216,-0.200669 1.081648,-0.206927 0.237434,-0.0062 0.237437,-0.0062 0.354058,0.100294 z"
       clip-path="none"
       style="fill:#35b779;stroke:#000000;stroke-width:0.124536;stroke-linecap:butt;stroke-linejoin:miter;stroke-dasharray:none"
       id="path1441728">
      <title
         id="title282983">SOC_lateral_R</title>
    </path>
    <path
       d="m 5.661784,34.467125 c 0.183632,0.155037 0.547294,0.462072 0.738789,0.771396 0.191495,0.309325 0.214723,0.628309 0.143254,1.039647 -0.07147,0.411338 -0.235698,0.910092 -0.370537,1.278955 -0.134837,0.368864 -0.236797,0.598587 -0.332778,0.81349 -0.09598,0.214903 -0.181609,0.405196 -0.259103,0.568803 -0.07749,0.163605 -0.144422,0.295259 -0.237044,0.311608 -0.09262,0.01636 -0.211268,-0.08145 -0.272393,-0.184048 -0.06113,-0.102587 -0.06113,-0.20943 0.07072,-0.508846 0.131838,-0.299416 0.397296,-0.792268 0.570563,-1.305059 0.173265,-0.51279 0.251417,-1.034403 0.194472,-1.389915 -0.05694,-0.355512 -0.247361,-0.536293 -0.342656,-0.768283 -0.09529,-0.231991 -0.09117,-0.503411 -0.08904,-0.643099 0.0021,-0.139687 0.0021,-0.139687 0.185754,0.01536 z"
       clip-path="none"
       style="fill:#90d743;stroke:#000000;stroke-width:0.124536;stroke-linecap:butt;stroke-linejoin:miter;stroke-dasharray:none"
       id="path1441732">
      <title
         id="title286994">iMRtm_lateral_R</title>
    </path>
    <path
       d="M 5.4756,33.767381 C 5.765042,34.373737 5.55912,34.904019 5.270598,35.242569 4.982081,35.581121 4.613747,35.72479 4.199392,36.356296 3.785032,36.987802 3.32928,38.09978 3.010083,39.061282 2.690893,40.022785 2.512066,40.823393 2.187627,40.981813 1.863187,41.14023 1.392049,40.658522 1.174505,40.145651 0.956961,39.632779 0.996271,39.101277 1.137895,38.614885 1.279528,38.128491 1.519584,37.702134 1.733643,37.161162 1.947701,36.620189 2.134225,35.965733 2.443002,35.048268 2.75178,34.130802 3.176356,32.968742 3.786941,32.723501 c 0.610592,-0.245239 1.399208,0.437525 1.688649,1.04388 z"
       clip-path="none"
       style="fill:#5ec962;stroke:#000000;stroke-width:0.124536;stroke-linecap:butt;stroke-linejoin:miter;stroke-dasharray:none"
       id="path1441736">
      <title
         id="title285868">VSM_lateral_R</title>
    </path>
    <path
       d="m 5.851302,31.259792 c 0.08255,0.05863 0.240946,0.171156 0.406753,0.320747 0.165808,0.149593 0.326622,0.324805 0.480535,0.499356 0.153913,0.174552 0.286281,0.331849 0.379819,0.500285 0.09354,0.168433 0.143197,0.339951 0.129149,0.568355 -0.01404,0.228404 -0.09132,0.507318 -0.208977,0.732363 C 6.920926,34.105944 6.765033,34.271997 6.528583,34.383116 6.292132,34.494234 5.973224,34.551144 5.681648,34.548198 5.390075,34.545198 5.13078,34.483008 4.939399,34.419647 4.748015,34.356287 4.626276,34.291355 4.496382,34.222346 4.366495,34.153336 4.228537,34.080301 4.066225,33.8583 3.903914,33.636299 3.71823,33.26293 3.714039,32.910352 c -0.0042,-0.352579 0.170919,-0.672783 0.304524,-0.904506 0.133604,-0.231724 0.222891,-0.369723 0.430212,-0.501063 0.207329,-0.131344 0.51684,-0.249531 0.756795,-0.298939 0.239954,-0.04941 0.399241,-0.02736 0.481212,-0.01602 0.08196,0.01135 0.08196,0.01132 0.16452,0.06997 z"
       clip-path="none"
       style="fill:#ece51b;stroke:#000000;stroke-width:0.124536;stroke-linecap:butt;stroke-linejoin:miter;stroke-dasharray:none"
       id="path1441740">
      <title
         id="title285299">sMRtl_lateral_R</title>
    </path>
    <path
       d="m 3.78274,36.022871 c 0.115135,-0.1882 0.342083,-0.559153 0.547973,-0.765287 0.205889,-0.206131 0.374613,-0.233193 0.542518,-0.264945 0.167907,-0.03175 0.326669,-0.06674 0.609093,0.02499 0.282425,0.09173 0.684014,0.306427 0.648606,1.046397 -0.0354,0.739971 -0.510645,2.001631 -0.793911,2.719905 -0.283266,0.718277 -0.372271,0.889245 -0.525877,1.24521 C 4.657536,40.385106 4.442208,40.919868 4.287459,41.503989 4.132717,42.088112 4.040446,42.71308 3.884816,43.302926 3.729186,43.892773 3.512918,44.435191 3.214675,44.805031 2.916437,45.174875 2.533103,45.37662 2.193094,45.279935 1.853085,45.183245 1.563877,44.79501 1.502874,44.276963 1.441854,43.758915 1.61305,43.138859 1.749653,42.627104 1.886249,42.115345 1.984376,41.726285 2.170286,41.031551 2.356195,40.336819 2.628838,39.340683 2.893099,38.486201 3.157368,37.631718 3.411689,36.923602 3.539643,36.567317 3.667604,36.21103 3.667604,36.211067 3.78274,36.022866 Z"
       clip-path="none"
       style="fill:#7fd34e;stroke:#000000;stroke-width:0.124536;stroke-linecap:butt;stroke-linejoin:miter;stroke-dasharray:none"
       id="path1441744">
      <title
         id="title287551">iMRtl_lateral_R</title>
    </path>
    <path
       d="m 7.411157,34.822151 c 0.09538,-0.365217 0.286097,-1.095421 0.889558,-1.476591 0.603465,-0.381168 1.610219,-0.408888 1.821241,0.342722 0.21102,0.751611 -0.378479,2.280863 -0.835951,3.293116 -0.457472,1.01225 -0.783846,1.509654 -1.164134,1.809198 -0.380285,0.299547 -0.798515,0.396916 -1.056601,0.140471 -0.258085,-0.256445 -0.321667,-0.832361 -0.298058,-1.400301 0.0236,-0.567941 0.136611,-1.102857 0.242816,-1.487632 0.106206,-0.384776 0.206186,-0.620779 0.255966,-0.738281 0.04978,-0.117503 0.04978,-0.117485 0.145163,-0.482702 z"
       clip-path="none"
       style="fill:#482878;stroke:#000000;stroke-width:0.124536;stroke-linecap:butt;stroke-linejoin:miter;stroke-dasharray:none"
       id="path1441748">
      <title
         id="title284726">ION_lateral_R</title>
    </path>
    <path
       d="m 8.004413,17.403824 c 0.02387,0 0.06917,0 0.06917,0 -2e-6,0 -0.0453,0 -0.0058,0 0.03964,0 0.164205,0 0.300101,0 0.135894,0 0.283113,0 0.31914,0.189783 0.03602,0.189784 -0.03865,0.579575 -0.122491,1.096341 -0.08384,0.516766 -0.17728,1.162235 -0.236469,1.670355 -0.05918,0.508122 -0.08454,0.882382 -0.261614,1.704337 -0.177082,0.821955 -0.505496,2.090306 -0.805628,3.058318 -0.300103,0.968014 -0.571893,1.636166 -0.775707,2.088924 -0.203816,0.452761 -0.339706,0.690572 -0.49824,0.935661 -0.158534,0.245087 -0.340061,0.498098 -0.516415,0.676055 -0.176356,0.177955 -0.34163,0.277383 -0.507333,0.240501 -0.165705,-0.03688 -0.302181,-0.197375 -0.372306,-0.879994 -0.07012,-0.682619 -0.05644,-1.763001 -0.01665,-2.493602 0.03979,-0.730605 0.104441,-1.053884 0.195561,-1.378401 0.09111,-0.324517 0.206116,-0.641178 0.309487,-0.997198 0.103373,-0.356019 0.193798,-0.748494 0.301908,-1.192326 0.108111,-0.443834 0.231895,-0.930901 0.390461,-1.386021 0.158567,-0.455119 0.351086,-0.874133 0.50399,-1.287208 0.152904,-0.413075 0.26615,-0.82076 0.544661,-1.161841 0.278552,-0.341083 0.697164,-0.598718 0.928681,-0.741206 0.231518,-0.142487 0.231515,-0.142478 0.255384,-0.142478 z"
       clip-path="none"
       style="fill:#443983;stroke:#000000;stroke-width:0.124536;stroke-linecap:butt;stroke-linejoin:miter;stroke-dasharray:none"
       id="path1441752">
      <title
         id="title280603">LDTg_CGPn_lateral_R</title>
    </path>
    <path
       d="m 4.988967,24.150225 c 0.02067,-0.13753 0.06164,-0.410427 0.224249,-0.608738 0.162606,-0.198308 0.443569,-0.319197 0.729699,-0.276221 0.286131,0.04297 0.565983,0.247693 0.542497,0.666733 -0.02349,0.419041 -0.347783,1.038976 -0.611518,1.57665 -0.263732,0.537674 -0.450951,0.960515 -0.588782,1.358235 -0.13783,0.397718 -0.222028,0.759329 -0.38297,1.209643 -0.160942,0.450316 -0.397174,0.98468 -0.569109,1.024776 -0.171941,0.04009 -0.280255,-0.41183 -0.265954,-1.001979 0.01432,-0.590149 0.150113,-1.299229 0.23152,-1.733546 0.08141,-0.434319 0.106231,-0.582391 0.208894,-0.882569 0.102662,-0.300176 0.280593,-0.744939 0.370705,-0.970198 0.09012,-0.225256 0.09011,-0.225256 0.110769,-0.362786 z"
       clip-path="none"
       style="fill:#4ec36b;stroke:#000000;stroke-width:0.124536;stroke-linecap:butt;stroke-linejoin:miter;stroke-dasharray:none"
       id="path1441756">
      <title
         id="title281801">Ve_lateral_R</title>
    </path>
    <path
       d="m 5.415742,20.09791 c 0.09937,-0.190366 0.29878,-0.57239 0.550253,-0.880528 0.25147,-0.308139 0.553971,-0.540832 0.973204,-0.779466 0.419232,-0.238634 0.954428,-0.482968 1.209727,-0.499092 0.255301,-0.01613 0.232031,0.193298 0.187729,0.42698 -0.0443,0.233681 -0.108124,0.486787 -0.157101,0.869685 -0.04898,0.382899 -0.08152,0.885188 -0.2064,1.257501 C 7.848276,20.865303 7.631698,21.103462 7.511709,21.246109 7.391721,21.388754 7.368468,21.435252 7.25343,21.504731 7.138394,21.574211 6.929808,21.668194 6.691018,21.651297 6.452227,21.634407 6.189136,21.50815 5.953753,21.26099 5.71837,21.013832 5.517428,20.651158 5.416901,20.469716 5.316372,20.288275 5.316375,20.288275 5.415701,20.09791 Z"
       clip-path="none"
       style="fill:#46307e;stroke:#000000;stroke-width:0.124536;stroke-linecap:butt;stroke-linejoin:miter;stroke-dasharray:none"
       id="path1441760">
      <title
         id="title279998">LC_lateral_R</title>
    </path>
    <path
       d="M 6.3467,24.240774 C 6.338,23.926194 6.32041,23.294506 6.33037,22.708278 c 0.01,-0.586228 0.04771,-1.128085 0.359567,-1.690753 0.311855,-0.562669 0.888292,-1.13331 1.257827,-0.823855 0.369536,0.309453 0.520971,1.477501 0.683531,2.322283 0.162559,0.844782 0.322208,1.297809 0.379791,1.871069 0.05759,0.573261 0.0073,1.226313 -0.07502,1.781815 -0.08227,0.5555 -0.195462,1.001672 -0.680472,1.202484 C 7.770581,27.572133 6.914032,27.528449 6.533717,27.016471 6.153402,26.504493 6.253906,25.534846 6.30467,25.045082 6.35544,24.555318 6.35544,24.555355 6.34671,24.240774 Z"
       clip-path="none"
       style="fill:#40bd72;stroke:#000000;stroke-width:0.124536;stroke-linecap:butt;stroke-linejoin:miter;stroke-dasharray:none"
       id="path1441764">
      <title
         id="title281204">SubC_lateral_R</title>
    </path>
    <path
       d="m 6.770833,26.339841 c 0.199056,0.01332 0.588247,0.0394 0.900152,0.196116 0.311904,0.156725 0.534942,0.440677 0.697651,0.76327 0.162709,0.322591 0.26622,0.682906 0.207407,1.173368 -0.0588,0.490463 -0.280132,1.10638 -0.52384,1.503058 C 7.808494,30.372332 7.542707,30.550906 7.24949,30.662679 6.956271,30.774454 6.648365,30.815454 6.357565,30.660879 6.066766,30.506342 5.808278,30.163175 5.68239,29.791152 5.556502,29.419129 5.568517,29.032055 5.59375,28.693313 5.61898,28.354572 5.65639,28.0777 5.704097,27.78826 c 0.04771,-0.289442 0.104979,-0.585281 0.251679,-0.830717 0.1467,-0.245434 0.37944,-0.436645 0.497723,-0.533819 0.118279,-0.09718 0.118276,-0.09718 0.317333,-0.08385 z"
       clip-path="none"
       style="fill:#31688e;stroke:#000000;stroke-width:0.124536;stroke-linecap:butt;stroke-linejoin:miter;stroke-dasharray:none"
       id="path1441768">
      <title
         id="title282394">PCRtA_lateral_R</title>
    </path>
    <path
       d="m 12.844555,12.051864 c 0.105675,0.13858 0.309052,0.405287 0.38956,0.79043 0.08052,0.385144 0.03344,0.880008 0.01,1.186683 -0.02344,0.306678 -0.02344,0.424894 -0.102498,0.675493 -0.07906,0.2506 -0.23669,0.634827 -0.407966,0.961777 -0.171275,0.326951 -0.356744,0.597928 -0.647365,0.799898 -0.290624,0.201972 -0.683404,0.333896 -0.993087,0.424382 -0.309683,0.09049 -0.532217,0.137941 -0.715861,0.108279 -0.183644,-0.02966 -0.319118,-0.131359 -0.363553,-0.32375 -0.04443,-0.192391 0.01466,-0.468227 0.04443,-0.645251 0.02975,-0.177028 0.02975,-0.255841 0.06898,-0.517144 0.03923,-0.261305 0.118042,-0.704609 0.172257,-1.034571 0.05422,-0.329959 0.08377,-0.546682 0.17237,-0.773973 0.0886,-0.22729 0.236365,-0.463716 0.369567,-0.641372 0.133203,-0.177657 0.251418,-0.295872 0.422908,-0.465004 0.171488,-0.169132 0.395842,-0.388779 0.650126,-0.511132 0.254287,-0.122353 0.534996,-0.147467 0.679732,-0.160415 0.144737,-0.01294 0.144732,-0.0129 0.250406,0.12567 z"
       clip-path="none"
       style="fill:#2e6f8e;stroke:#000000;stroke-width:0.124536;stroke-linecap:butt;stroke-linejoin:miter;stroke-dasharray:none"
       id="path1441772">
      <title
         id="title278159">PMnR_lateral_B</title>
    </path>
    <path
       d="m 11.48852,12.553399 c 0.102112,0.0709 0.304151,0.211186 0.416767,0.339771 0.112613,0.128586 0.137367,0.244114 0.153686,0.347163 0.01633,0.103049 0.02458,0.193855 -0.01597,0.250068 -0.04055,0.05621 -0.131339,0.08098 -0.333129,0.09358 -0.201791,0.0126 -0.515386,0.0126 -0.701248,-0.0232 -0.185863,-0.0358 -0.243602,-0.110043 -0.230206,-0.280734 0.0134,-0.170692 0.100482,-0.436364 0.21463,-0.585624 0.114147,-0.149258 0.252233,-0.180241 0.322798,-0.196073 0.07056,-0.01584 0.07056,-0.01585 0.172675,0.05505 z"
       clip-path="none"
       style="fill:#3b528b;stroke:#000000;stroke-width:0.124536;stroke-linecap:butt;stroke-linejoin:miter;stroke-dasharray:none"
       id="path1441776">
      <title
         id="title277538">MnR_lateral_B</title>
    </path>
    <path
       d="m 9.64227,13.55398 c 0.170205,0.04596 0.501554,0.135436 0.767479,0.430829 0.265923,0.295391 0.458185,0.789877 0.413733,1.258384 -0.04446,0.468509 -0.326403,0.907389 -0.68898,1.273735 C 9.771927,16.883277 9.32857,17.177521 8.876417,17.45789 8.424262,17.738259 7.968599,18.001514 7.619764,18.246152 7.270927,18.49079 7.031219,18.715512 6.70549,19.021982 6.37976,19.328453 5.96707,19.717558 5.666022,19.669677 5.364973,19.621787 5.181851,19.149518 5.070978,18.781659 4.960105,18.4138 4.932493,18.187521 4.955308,17.995093 c 0.02281,-0.192428 0.09773,-0.342247 0.435487,-0.58268 0.337761,-0.240432 0.93704,-0.570041 1.288805,-0.779653 0.351767,-0.209614 0.456621,-0.299485 0.786285,-0.561706 0.329664,-0.26222 0.884,-0.696697 1.243152,-1.085578 0.359153,-0.38888 0.52396,-0.733487 0.618919,-0.972776 0.09496,-0.239288 0.119215,-0.370259 0.131663,-0.437471 0.01245,-0.06721 0.01245,-0.06721 0.182651,-0.02125 z"
       clip-path="none"
       style="fill:#375a8c;stroke:#000000;stroke-width:0.124536;stroke-linecap:butt;stroke-linejoin:miter;stroke-dasharray:none"
       id="path1441780">
      <title
         id="title279389">MPB_lateral_R</title>
    </path>
    <path
       d="m 4.872533,14.513415 c 0.181849,-0.181847 0.545539,-0.545536 0.818594,-0.788187 0.273054,-0.242653 0.454901,-0.363883 0.956002,-0.880049 0.501101,-0.516168 1.317968,-1.423144 1.995739,-1.54042 0.67777,-0.117278 1.205343,0.556487 1.346488,1.069912 0.141147,0.513423 -0.106394,0.86216 -0.351292,1.345877 -0.244898,0.483718 -0.486801,1.101765 -0.778565,1.601597 -0.291762,0.499833 -0.632931,0.880756 -1.014337,1.17785 C 7.463756,16.797087 7.044246,17.00912 6.521385,17.337679 5.998524,17.666237 5.382324,18.104986 4.880844,18.175516 4.379355,18.246046 3.998936,17.946883 3.788926,17.512118 3.578917,17.077354 3.544299,16.534037 3.730096,16.024345 3.915887,15.514653 4.296074,15.112584 4.493377,14.903923 4.690681,14.695262 4.690688,14.695262 4.872533,14.513415 Z"
       clip-path="none"
       style="fill:#424186;stroke:#000000;stroke-width:0.124536;stroke-linecap:butt;stroke-linejoin:miter;stroke-dasharray:none"
       id="path1441784">
      <title
         id="title278776">LPB_lateral_R</title>
    </path>
    <path
       d="m 20.004612,7.2323259 c 0.01269,-0.106412 0.03824,-0.320766 0.101786,-0.500798 0.06355,-0.180033 0.163888,-0.322768 0.238461,-0.434015 0.07457,-0.111248 0.123224,-0.190819 0.253868,-0.338678 0.130645,-0.147859 0.340926,-0.3615469 0.602509,-0.5453201 0.261583,-0.1837747 0.56852,-0.3328793 0.862435,-0.4767231 0.293915,-0.1438439 0.573385,-0.2817073 0.788216,-0.4088219 0.214831,-0.1271154 0.360321,-0.2407714 0.53046,-0.3603 0.170138,-0.1195292 0.360406,-0.2418966 0.607977,-0.2942529 0.24757,-0.052354 0.535305,-0.0315 0.662228,0.2497967 0.126927,0.2812974 0.08588,0.8194547 0.0028,1.4059339 -0.08305,0.5864774 -0.207967,1.2224174 -0.55981,1.8233364 -0.351845,0.600919 -0.931001,1.168718 -1.350943,1.543313 -0.41994,0.374594 -0.681127,0.556293 -0.926008,0.716023 -0.244881,0.159728 -0.473445,0.297433 -0.83101,0.4339331 -0.357564,0.136501 -0.840575,0.270666 -0.800768,0.09478 0.0398,-0.1758881 0.602291,-0.6592281 0.909191,-1.0491681 0.306901,-0.38994 0.353257,-0.672166 0.306959,-0.824905 -0.0463,-0.152739 -0.174794,-0.152854 -0.406872,-0.161672 -0.232078,-0.0088 -0.534815,-0.02526 -0.716297,-0.04664 -0.18148,-0.02136 -0.228289,-0.04691 -0.25382,-0.166724 -0.02553,-0.119815 -0.02984,-0.3381 -0.03196,-0.44539 -0.0021,-0.107288 -0.0021,-0.107288 0.01056,-0.213702 z"
       clip-path="none"
       style="fill:#6ece58;stroke:#000000;stroke-width:0.124536;stroke-linecap:butt;stroke-linejoin:miter;stroke-dasharray:none"
       id="path1441788">
      <title
         id="title270443">VTA_PBP_lateral_R</title>
    </path>
    <path
       d="m 26.376311,8.5853789 c 0.06755,0.117382 0.195507,0.339741 0.131962,0.551764 -0.06355,0.212023 -0.318669,0.397687 -0.662456,0.57072 -0.343783,0.173033 -0.778858,0.3341991 -1.193799,0.4413661 -0.41494,0.107167 -0.798433,0.158092 -1.230123,0.184613 -0.43169,0.02652 -0.893784,0.02743 -1.238249,-0.10947 -0.344465,-0.136898 -0.55991,-0.4066921 -0.691371,-0.6796891 -0.131461,-0.272996 -0.172356,-0.537861 -0.261234,-0.840564 -0.08888,-0.302703 -0.226934,-0.646545 -0.437188,-1.005833 -0.210251,-0.359286 -0.484039,-0.721265 -0.35715,-0.786091 0.126888,-0.06482 0.6431,0.170695 1.134951,0.308575 0.491851,0.137879 0.925329,0.168023 1.366991,0.186595 0.441661,0.01857 0.87261,0.02471 1.345364,0.0858 0.472755,0.06109 0.976753,0.1763 1.317953,0.34711 0.341201,0.170811 0.521296,0.396109 0.614047,0.512142 0.09275,0.116032 0.09275,0.115583 0.160302,0.232964 z"
       clip-path="none"
       style="fill:#25ab82;stroke:#000000;stroke-width:0.124536;stroke-linecap:butt;stroke-linejoin:miter;stroke-dasharray:none"
       id="path1441792">
      <title
         id="title271769">SN1_lateral_R</title>
    </path>
    <path
       d="m 22.00743,5.6595183 c 0.07904,-0.029618 0.232326,-0.087051 0.431081,-0.1472733 0.198756,-0.06022 0.438672,-0.1217406 0.888939,-0.2080534 0.450265,-0.086313 1.106005,-0.1966989 1.749824,-0.262863 0.643822,-0.066161 1.267571,-0.087034 1.727925,-0.043578 0.460357,0.043458 0.758672,0.1508485 1.067123,0.2839231 0.308453,0.1330743 0.620327,0.2890095 0.811649,0.4276541 0.19132,0.138645 0.263289,0.258591 0.341632,0.448148 0.07835,0.189557 0.163865,0.448821 0.07394,0.784795 -0.08993,0.335973 -0.35945,0.759402 -0.809943,0.95963 -0.450493,0.200227 -1.081747,0.181342 -1.578879,0.100428 -0.497133,-0.08092 -0.856988,-0.224849 -1.103031,-0.30328 -0.246045,-0.07843 -0.378009,-0.09043 -0.594018,-0.09654 -0.216008,-0.0061 -0.515883,-0.0061 -0.937278,-0.04445 -0.421394,-0.03833 -0.964265,-0.115325 -1.347295,-0.158059 -0.38303,-0.04274 -0.597458,-0.05064 -0.971791,-0.140957 -0.374333,-0.09032 -0.870736,-0.253794 -1.155416,-0.402441 -0.284677,-0.148647 -0.335801,-0.273088 -0.690702,-0.186186 -0.354901,0.08691 -1.005015,0.384291 -1.586379,0.559812 -0.581364,0.175522 -1.080144,0.225554 -1.400051,0.145153 -0.319908,-0.0804 -0.444888,-0.286062 -0.564405,-0.502946 -0.119515,-0.216884 -0.232499,-0.444394 -0.220276,-0.684683 0.01222,-0.24029 0.144836,-0.472907 0.396211,-0.6631576 0.251375,-0.1902516 0.610182,-0.3268109 0.930062,-0.3206724 0.319882,0.00613 0.592668,0.156273 0.877681,0.3167345 0.285013,0.1604625 0.577827,0.3286645 0.831983,0.4593225 0.254157,0.130658 0.462507,0.220071 0.696469,0.23651 0.23396,0.01644 0.489728,-0.04083 0.834607,-0.140584 0.344875,-0.09976 0.778588,-0.241768 0.999949,-0.314248 0.221359,-0.07248 0.221359,-0.07253 0.300394,-0.1021415 z"
       clip-path="none"
       style="fill:#2cb17e;stroke:#000000;stroke-width:0.124536;stroke-linecap:butt;stroke-linejoin:miter;stroke-dasharray:none"
       id="path1441796">
      <title
         id="title271108">SN2_lateral_R</title>
    </path>
    <path
       d="m 17.259434,4.4009497 c -0.02084,-0.079559 -0.06289,-0.240116 -0.05397,-0.4017882 0.0089,-0.1616722 0.06493,-0.3115854 0.11723,-0.4258735 0.05231,-0.1142889 0.09393,-0.1737452 0.189253,-0.2691334 0.09532,-0.095387 0.243872,-0.2261099 0.351178,-0.3094637 0.107306,-0.083354 0.172656,-0.1190033 0.223961,-0.1365995 0.0513,-0.017596 0.08696,-0.017596 0.151348,-0.050449 0.06439,-0.032853 0.159482,-0.09822 0.3061,-0.1370272 0.146619,-0.038807 0.345928,-0.051468 0.879455,0.00203 0.533529,0.0535 1.314503,0.161388 1.715934,0.3744067 0.401432,0.2130189 0.289111,0.4616614 0.118932,0.7053733 -0.170179,0.2437111 -0.387418,0.4586207 -0.647721,0.6630857 -0.2603,0.2044649 -0.565971,0.3999588 -0.882773,0.5315448 -0.316802,0.131586 -0.65172,0.202613 -0.948541,0.2247766 -0.296824,0.022167 -0.548272,-0.00459 -0.704558,-0.026682 -0.156286,-0.022089 -0.215708,-0.039902 -0.313923,-0.1104672 -0.09821,-0.070566 -0.234877,-0.1953501 -0.32164,-0.2960696 -0.08676,-0.1007203 -0.122402,-0.1779316 -0.140911,-0.21803 -0.0185,-0.0401 -0.0185,-0.040079 -0.03934,-0.1196393 z"
       clip-path="none"
       style="fill:#b5de2b;stroke:#000000;stroke-width:0.124536;stroke-linecap:butt;stroke-linejoin:miter;stroke-dasharray:none"
       id="path1441800">
      <title
         id="title269101">mRta_lateral_R</title>
    </path>
    <path
       d="m 13.107382,8.0948249 c 0.242597,0.100288 0.716218,0.296081 1.02193,0.521615 0.305708,0.225535 0.427103,0.47127 0.486939,0.669808 0.05984,0.198541 0.05984,0.35089 0.05555,0.511643 -0.0043,0.160754 -0.01275,0.3300621 -0.03825,0.5026241 -0.02548,0.172561 -0.06786,0.349636 -0.192845,0.514545 -0.124992,0.164909 -0.337268,0.321989 -0.584144,0.417938 -0.246878,0.09595 -0.537182,0.135283 -0.816801,0.08746 -0.279617,-0.04781 -0.53805,-0.179542 -0.75384,-0.393828 -0.215789,-0.214286 -0.376576,-0.498026 -0.469817,-0.794281 -0.09324,-0.2962551 -0.11041,-0.5782581 0.07834,-0.9372141 0.188741,-0.358955 0.575985,-0.775953 0.773162,-0.988278 0.197177,-0.212328 0.197181,-0.212328 0.439778,-0.112039 z"
       clip-path="none"
       style="fill:#287c8e;stroke:#000000;stroke-width:0.124536;stroke-linecap:butt;stroke-linejoin:miter;stroke-dasharray:none"
       id="path1441804">
      <title
         id="title275651">PTg_lateral_R</title>
    </path>
    <path
       d="M 9.183575,5.2752814 C 9.238877,5.2167189 9.349552,5.0995454 9.473429,4.9854604 9.597305,4.8713753 9.734032,4.7606929 9.809977,4.7054696 9.885927,4.650244 9.898954,4.650244 9.97054,4.5817596 c 0.071588,-0.068489 0.202917,-0.2041432 0.438801,-0.3899459 0.235883,-0.185802 0.57093,-0.4175445 0.903726,-0.5690026 0.332794,-0.1514589 0.655233,-0.2190057 0.935714,-0.2520889 0.280485,-0.03308 0.514183,-0.030943 0.670841,-0.026505 0.156657,0.00444 0.234757,0.010949 0.306261,0.047861 0.0715,0.036904 0.136653,0.1020508 0.185706,0.1440265 0.04905,0.041976 0.08156,0.061505 0.143206,0.1172167 0.06165,0.055713 0.152803,0.1468675 0.207645,0.2122048 0.05484,0.065335 0.07435,0.1043697 0.103624,0.1662741 0.02927,0.061907 0.06831,0.1464824 0.08716,0.2829638 0.01886,0.136482 0.01886,0.325259 -0.144109,0.6759227 -0.162962,0.3506635 -0.488491,0.8649961 -0.726134,1.2458941 -0.237643,0.380897 -0.387388,0.628307 -0.520698,0.816828 -0.133311,0.18852 -0.250501,0.318734 -0.403571,0.507646 -0.153069,0.188912 -0.341877,0.436311 -0.47501,0.588981 -0.133133,0.152669 -0.211261,0.211266 -0.289698,0.289681 -0.07844,0.07841 -0.156577,0.176085 -0.263695,0.276704 -0.107117,0.100619 -0.243842,0.204792 -0.338495,0.286393 -0.09465,0.0816 -0.146732,0.140189 -0.250626,0.224617 -0.103893,0.08442 -0.261861,0.196346 -0.463273,0.269895 -0.20141,0.07356 -0.451649,0.111222 -0.707311,0.133522 -0.255665,0.02231 -0.507651,0.0287 -0.736915,-0.02238 C 8.404426,9.5573779 8.211782,9.4521029 8.063516,9.3572749 7.915249,9.2624449 7.824304,9.1866599 7.701194,9.0617409 7.578084,8.9368229 7.450865,8.7923949 7.361163,8.5817749 7.271463,8.3711559 7.25148,8.1620809 7.263893,7.9980619 c 0.01242,-0.164019 0.05915,-0.270678 0.09242,-0.36937 0.03325,-0.09869 0.05279,-0.189853 0.06276,-0.26118 0.01,-0.07132 0.01,-0.123387 0.01623,-0.1726 0.0062,-0.04922 0.01931,-0.09483 0.250653,-0.346283 0.231337,-0.251449 0.680562,-0.707167 0.95726,-0.993623 C 8.919914,5.5685497 9.024135,5.4512998 9.0762,5.3927253 9.12827,5.3341503 9.12827,5.3338433 9.183572,5.2752894 Z"
       clip-path="none"
       style="fill:#34618d;stroke:#000000;stroke-width:0.124536;stroke-linecap:butt;stroke-linejoin:miter;stroke-dasharray:none"
       id="path1441808">
      <title
         id="title273728">PAG_lateral_B</title>
    </path>
    <path
       d="m 9.488913,5.5755109 c 0.01948,-0.045925 0.05894,-0.1389166 0.09324,-0.1960477 0.03431,-0.057135 0.06249,-0.076871 0.120083,-0.127484 0.05759,-0.050611 0.144963,-0.1323444 0.207162,-0.1860171 0.06219,-0.053673 0.09887,-0.079061 0.133319,-0.096035 0.03445,-0.016974 0.06539,-0.025397 0.107021,-0.049271 0.04164,-0.023873 0.0952,-0.063339 0.139466,-0.088815 0.04427,-0.025475 0.07802,-0.036714 0.10417,-0.050661 0.02615,-0.013947 0.04583,-0.030823 0.108325,-0.062005 0.0625,-0.031183 0.166777,-0.076275 0.287132,-0.1028671 0.120356,-0.026589 0.255629,-0.035034 0.36422,-0.03919 0.10859,-0.00417 0.190331,-0.00417 0.249522,-0.00417 0.05918,0 0.09583,0 0.159404,0.00726 0.06358,0.00726 0.153766,0.021327 0.20575,0.028156 0.05199,0.00684 0.06609,0.00684 0.12693,0.034329 0.06085,0.027507 0.167951,0.08106 0.248063,0.1336509 0.08011,0.052594 0.133678,0.1033384 0.192897,0.1568214 0.05923,0.053483 0.124073,0.1098788 0.1715,0.1665901 0.04742,0.056714 0.07841,0.1130367 0.09857,0.1452294 0.02016,0.032192 0.02866,0.040685 0.04336,0.081765 0.01471,0.041078 0.03724,0.1143408 0.04808,0.2028937 0.01083,0.088548 0.01083,0.1928334 0.0023,0.3562154 -0.0085,0.163382 -0.02544,0.386054 -0.08476,0.578341 -0.05931,0.192285 -0.160775,0.355756 -0.250925,0.49235 -0.09015,0.136594 -0.169085,0.246532 -0.288807,0.39721 -0.119722,0.150679 -0.280376,0.342335 -0.375161,0.44071 -0.09479,0.09837 -0.12574,0.104026 -0.256673,0.116808 -0.130934,0.01277 -0.362057,0.03253 -0.598544,0.02298 -0.236485,-0.0095 -0.478886,-0.049 -0.622535,-0.07817 -0.14365,-0.02918 -0.188745,-0.04891 -0.237619,-0.129837 -0.04888,-0.08093 -0.09961,-0.224673 -0.143287,-0.347285 -0.04368,-0.122609 -0.08033,-0.22407 -0.150631,-0.386133 -0.0703,-0.162064 -0.174598,-0.384751 -0.25064,-0.542611 -0.07604,-0.157859 -0.123944,-0.250836 -0.137616,-0.333275 -0.01368,-0.08244 0.0089,-0.152907 0.02584,-0.214751 0.01695,-0.06185 0.02823,-0.115404 0.05093,-0.161369 0.0227,-0.04596 0.05652,-0.082598 0.07347,-0.1009722 0.01695,-0.01837 0.01697,-0.018428 0.03644,-0.064343 z"
       clip-path="none"
       style="fill:#460b5e;stroke:#000000;stroke-width:0.124536;stroke-linecap:butt;stroke-linejoin:miter;stroke-dasharray:none"
       id="path1441812">
      <title
         id="title274373">CnF_lateral_R</title>
    </path>
    <path
       d="m 13.304127,5.9052979 c 0.03077,-0.04089 0.09269,-0.123179 0.149114,-0.188245 0.05642,-0.065073 0.107077,-0.1125321 0.189811,-0.154494 0.08273,-0.041961 0.185859,-0.074679 0.257274,-0.018303 0.07142,0.056377 0.102368,0.20193 0.11612,0.304568 0.01375,0.102636 0.01093,0.162744 -0.04638,0.220062 -0.05732,0.05732 -0.169849,0.114263 -0.270275,0.129046 -0.100426,0.01479 -0.190465,-0.0137 -0.239559,-0.0294 -0.04909,-0.0157 -0.05769,-0.01891 -0.07766,-0.03724 -0.01998,-0.01833 -0.05095,-0.05318 -0.0713,-0.08622 -0.02033,-0.03303 -0.02881,-0.06478 -0.03336,-0.08185 -0.0046,-0.01706 -0.0045,-0.01703 0.02624,-0.05793 z"
       clip-path="none"
       style="fill:#a2da37;stroke:#000000;stroke-width:0.124536;stroke-linecap:butt;stroke-linejoin:miter;stroke-dasharray:none"
       id="path1441816">
      <title
         id="title268424">isRt_lateral_R</title>
    </path>
    <path
       d="m 10.203158,7.0107279 c 0.02151,-0.07741 0.06497,-0.233913 0.104085,-0.368709 0.03911,-0.134796 0.07388,-0.247812 0.213382,-0.400849 0.139496,-0.153039 0.382918,-0.344294 0.566344,-0.44863 0.183423,-0.104335 0.305155,-0.12172 0.452998,-0.1390633 0.147843,-0.017343 0.321729,-0.034724 0.530945,-0.012103 0.209215,0.022622 0.43657,0.080112 0.606899,0.1492553 0.170329,0.06914 0.24786,0.137798 0.315868,0.201647 0.06801,0.06384 0.128843,0.124684 0.218194,0.211954 0.08935,0.08727 0.203348,0.197325 0.282384,0.327647 0.07904,0.130321 0.115145,0.268184 0.106156,0.474931 -0.009,0.206748 -0.0631,0.472367 -0.125666,0.673315 -0.06258,0.200949 -0.132021,0.331169 -0.286719,0.460934 -0.154699,0.129765 -0.3961,0.260228 -0.648763,0.372668 -0.252659,0.112437 -0.511147,0.204679 -0.788176,0.201216 -0.277026,-0.0035 -0.562401,-0.102567 -0.810277,-0.260354 -0.247873,-0.157785 -0.442749,-0.361885 -0.561474,-0.52367 -0.118724,-0.161787 -0.144802,-0.266111 -0.170846,-0.366073 -0.02605,-0.09996 -0.05213,-0.195593 -0.05708,-0.274505 -0.0049,-0.07891 0.01242,-0.139706 0.02134,-0.170936 0.0089,-0.03123 0.0089,-0.03125 0.03041,-0.108671 z"
       clip-path="none"
       style="fill:#3e4989;stroke:#000000;stroke-width:0.124536;stroke-linecap:butt;stroke-linejoin:miter;stroke-dasharray:none"
       id="path1441820">
      <title
         id="title276913">MiTg_PBG_lateral_R</title>
    </path>
    <path
       d="m 8.23358,5.4615588 c 0.01861,0 0.05338,0 0.08816,0 0.03477,0 0.06955,0 0.173814,-0.00442 0.104263,-0.00441 0.278123,-0.013091 0.494436,0.032315 0.216312,0.045406 0.474455,0.1436675 0.658983,0.2775241 0.184529,0.133857 0.299662,0.306347 0.375387,0.537151 0.07573,0.230806 0.111346,0.516877 0.129003,0.703402 0.01765,0.186524 0.01765,0.273408 -0.0087,0.372705 -0.02633,0.0993 -0.07849,0.212313 -0.189627,0.392944 -0.111136,0.180632 -0.284232,0.433591 -0.584847,0.581747 -0.300615,0.148155 -0.7359,0.193051 -1.009308,0.184931 -0.273412,-0.0081 -0.403791,-0.06896 -0.521215,-0.133915 -0.117424,-0.06496 -0.221753,-0.134504 -0.28311,-0.181899 -0.06136,-0.04738 -0.07869,-0.0734 -0.17409,-0.18217 -0.09535,-0.108774 -0.269215,-0.300028 -0.366107,-0.528787 -0.09689,-0.228761 -0.11411,-0.487007 -0.03608,-0.768992 0.07799,-0.281979 0.25186,-0.58624 0.47428,-0.804219 0.222422,-0.217979 0.49192,-0.3483878 0.626158,-0.4133438 0.134237,-0.064957 0.134239,-0.064976 0.152848,-0.064976 z"
       clip-path="none"
       style="fill:#481f70;stroke:#000000;stroke-width:0.124536;stroke-linecap:butt;stroke-linejoin:miter;stroke-dasharray:none"
       id="path1441824">
      <title
         id="title275014">IC_lateral_R</title>
    </path>
    <path
       d="m 13.978165,2.4894433 c 0.206737,-0.2005668 0.50473,-0.4084498 0.709483,-0.5731063 0.204753,-0.1646564 0.313313,-0.2840714 0.416773,-0.3765911 0.103462,-0.09252 0.201164,-0.1576628 0.271308,-0.2170158 0.07015,-0.059353 0.113588,-0.1136566 0.168475,-0.1574687 0.05489,-0.043812 0.120033,-0.076379 0.217359,-0.1467919 0.09733,-0.0704132 0.227593,-0.17897209 0.461817,-0.26590389 0.234224,-0.0869314 0.570749,-0.1520704 0.821143,-0.1486075 0.250398,0.00346 0.413714,0.073926 0.580262,0.1759911 0.166546,0.1020663 0.34843,0.24421319 0.429572,0.39048799 0.08114,0.1462744 0.07245,0.3124123 0.02249,0.4861147 -0.04996,0.1737025 -0.140968,0.3572366 -0.229601,0.5298372 -0.08863,0.1726008 -0.175777,0.3360038 -0.295145,0.4824835 -0.119367,0.1464801 -0.272414,0.2776515 -0.443012,0.4435688 -0.1706,0.1659178 -0.362166,0.3697802 -0.629845,0.4244724 C 16.211567,3.5916028 15.875338,3.4974278 15.61876,3.4281362 15.362181,3.3588432 15.188467,3.3154149 14.854501,3.2575869 14.520536,3.1997579 14.049111,3.1311432 13.858004,3.0013517 13.666897,2.8715604 13.771424,2.6900099 13.978164,2.4894433 Z"
       clip-path="none"
       style="fill:#c8e020;stroke:#000000;stroke-width:0.124536;stroke-linecap:butt;stroke-linejoin:miter;stroke-dasharray:none"
       id="path1441828">
      <title
         id="title266369">mRtd_lateral_R</title>
    </path>
    <path
       d="m 10.112269,3.8275159 c -0.03362,-0.1281461 -0.101663,-0.387512 -0.03332,-0.621261 0.06833,-0.2337486 0.269095,-0.4340592 0.585804,-0.6205017 0.316711,-0.1864422 0.745138,-0.35556 1.018561,-0.4626665 0.273424,-0.1071063 0.391797,-0.1522016 0.476913,-0.1745001 0.08511,-0.022298 0.13585,-0.022298 0.186309,-0.028137 0.05045,-0.00584 0.101138,-0.017089 0.290831,0.054795 0.18969,0.071884 0.50843,0.2210193 0.6331,0.4536868 0.124673,0.2326676 0.04717,0.5425894 -0.02231,0.7274541 -0.06949,0.1848644 -0.131491,0.2468682 -0.204782,0.3201585 -0.07329,0.073291 -0.157829,0.1578322 -0.340603,0.2759773 -0.182771,0.1181458 -0.46463,0.2703461 -0.742888,0.3466798 -0.278256,0.076334 -0.554474,0.076334 -0.816557,0.070761 -0.262082,-0.00558 -0.510105,-0.016833 -0.673505,-0.052474 -0.163402,-0.035641 -0.242324,-0.097651 -0.283125,-0.1297102 -0.0408,-0.032057 -0.04081,-0.032114 -0.07443,-0.1602604 z"
       clip-path="none"
       style="fill:#20a486;stroke:#000000;stroke-width:0.124536;stroke-linecap:butt;stroke-linejoin:miter;stroke-dasharray:none"
       id="path1441832">
      <title
         id="title267743">SC_lateral_R</title>
    </path>
    <path
       d="m 13.023806,4.6438749 c -0.120827,-0.1841109 -0.243308,-0.3707404 -0.264322,-0.53731 -0.02101,-0.1665698 0.05738,-0.3205599 0.164558,-0.4661358 0.10718,-0.1455764 0.241919,-0.2803159 0.355907,-0.3854152 0.113989,-0.1050991 0.204172,-0.178086 0.36341,-0.2697615 0.159235,-0.091675 0.38502,-0.2002324 0.633652,-0.2760809 0.248631,-0.075848 0.517642,-0.1188124 0.761798,-0.121024 0.244158,-0.00222 0.445505,0.035659 0.64969,0.087477 0.204185,0.051818 0.394241,0.1133852 0.559786,0.3332459 0.165545,0.2198601 0.300981,0.5942112 0.198182,0.9760483 -0.102799,0.381837 -0.447786,0.7789555 -0.880096,1.0044601 -0.432308,0.2255047 -0.958188,0.2844643 -1.278412,0.2906204 -0.320223,0.00613 -0.435734,-0.04197 -0.615863,-0.1594209 -0.180128,-0.1174538 -0.411627,-0.2950989 -0.64829,-0.4767034 z"
       clip-path="none"
       style="fill:#dae319;stroke:#000000;stroke-width:0.124536;stroke-linecap:butt;stroke-linejoin:miter;stroke-dasharray:none"
       id="path1441836">
      <title
         id="title267058">mRtl_lateral_R</title>
    </path>
  </g>
</svg>
