<?xml version="1.0" encoding="UTF-8" standalone="no"?>
<!-- Created with Inkscape (http://www.inkscape.org/) -->

<svg
   width="123.21405mm"
   height="49.508976mm"
   viewBox="0 0 123.21406 49.508977"
   version="1.1"
   id="svg63908"
   inkscape:version="1.2 (dc2aeda, 2022-05-15)"
   sodipodi:docname="subcortex_base_R.svg"
   xmlns:inkscape="http://www.inkscape.org/namespaces/inkscape"
   xmlns:sodipodi="http://sodipodi.sourceforge.net/DTD/sodipodi-0.dtd"
   xmlns="http://www.w3.org/2000/svg"
   xmlns:svg="http://www.w3.org/2000/svg">
  <sodipodi:namedview
     id="namedview63910"
     pagecolor="#ffffff"
     bordercolor="#000000"
     borderopacity="0.25"
     inkscape:showpageshadow="2"
     inkscape:pageopacity="0.0"
     inkscape:pagecheckerboard="0"
     inkscape:deskcolor="#d1d1d1"
     inkscape:document-units="mm"
     showgrid="false"
     inkscape:zoom="0.64521853"
     inkscape:cx="48.045737"
     inkscape:cy="103.84079"
     inkscape:window-width="1309"
     inkscape:window-height="456"
     inkscape:window-x="1920"
     inkscape:window-y="110"
     inkscape:window-maximized="0"
     inkscape:current-layer="layer1" />
  <defs
     id="defs63905">
    <inkscape:path-effect
       effect="bspline"
       id="path-effect37506"
       is_visible="true"
       lpeversion="1"
       weight="33.333333"
       steps="2"
       helper_size="0"
       apply_no_weight="true"
       apply_with_weight="true"
       only_selected="false" />
    <inkscape:path-effect
       effect="bspline"
       id="path-effect22483"
       is_visible="true"
       lpeversion="1"
       weight="33.333333"
       steps="2"
       helper_size="0"
       apply_no_weight="true"
       apply_with_weight="true"
       only_selected="false" />
    <inkscape:path-effect
       effect="bspline"
       id="path-effect22499"
       is_visible="true"
       lpeversion="1"
       weight="33.333333"
       steps="2"
       helper_size="0"
       apply_no_weight="true"
       apply_with_weight="true"
       only_selected="false" />
    <inkscape:path-effect
       effect="bspline"
       id="path-effect22515"
       is_visible="true"
       lpeversion="1"
       weight="33.333333"
       steps="2"
       helper_size="0"
       apply_no_weight="true"
       apply_with_weight="true"
       only_selected="false" />
    <inkscape:path-effect
       effect="bspline"
       id="path-effect22531"
       is_visible="true"
       lpeversion="1"
       weight="33.333333"
       steps="2"
       helper_size="0"
       apply_no_weight="true"
       apply_with_weight="true"
       only_selected="false" />
    <inkscape:path-effect
       effect="bspline"
       id="path-effect22699"
       is_visible="true"
       lpeversion="1"
       weight="33.333333"
       steps="2"
       helper_size="0"
       apply_no_weight="true"
       apply_with_weight="true"
       only_selected="false" />
    <inkscape:path-effect
       effect="bspline"
       id="path-effect22579"
       is_visible="true"
       lpeversion="1"
       weight="33.333333"
       steps="2"
       helper_size="0"
       apply_no_weight="true"
       apply_with_weight="true"
       only_selected="false" />
    <inkscape:path-effect
       effect="bspline"
       id="path-effect22595"
       is_visible="true"
       lpeversion="1"
       weight="33.333333"
       steps="2"
       helper_size="0"
       apply_no_weight="true"
       apply_with_weight="true"
       only_selected="false" />
    <inkscape:path-effect
       effect="bspline"
       id="path-effect22611"
       is_visible="true"
       lpeversion="1"
       weight="33.333333"
       steps="2"
       helper_size="0"
       apply_no_weight="true"
       apply_with_weight="true"
       only_selected="false" />
    <inkscape:path-effect
       effect="bspline"
       id="path-effect22655"
       is_visible="true"
       lpeversion="1"
       weight="33.333333"
       steps="2"
       helper_size="0"
       apply_no_weight="true"
       apply_with_weight="true"
       only_selected="false" />
    <inkscape:path-effect
       effect="bspline"
       id="path-effect22715"
       is_visible="true"
       lpeversion="1"
       weight="33.333333"
       steps="2"
       helper_size="0"
       apply_no_weight="true"
       apply_with_weight="true"
       only_selected="false" />
    <inkscape:path-effect
       effect="bspline"
       id="path-effect22731"
       is_visible="true"
       lpeversion="1"
       weight="33.333333"
       steps="2"
       helper_size="0"
       apply_no_weight="true"
       apply_with_weight="true"
       only_selected="false" />
  </defs>
  <g
     inkscape:label="Layer 1"
     inkscape:groupmode="layer"
     id="layer1"
     transform="translate(-0.82013557)">
    <path
       style="fill:none;fill-opacity:1;stroke:#000000;stroke-width:0.600001;stroke-linecap:square;stroke-dasharray:none;stroke-opacity:1;stop-color:#000000"
       d="m 83.471454,3.6578944 c 0.821845,-0.1147941 2.468985,-0.3448645 3.680659,-0.5851324 1.211674,-0.240268 1.991644,-0.4927908 3.328992,-0.4928573 1.337348,-6.64e-5 3.183936,0.2496359 4.831229,0.4939484 1.647293,0.2443126 3.074864,0.4805443 4.502528,0.7099915 1.427668,0.2294472 2.847318,0.4508232 3.892488,0.7337828 1.04517,0.2829596 1.7111,0.6271255 2.73275,1.0543497 1.02165,0.4272243 2.39307,0.9351574 3.66206,1.6883755 1.26898,0.7532181 2.42887,1.7482819 3.45508,2.6889731 1.02621,0.9406913 1.91779,1.8261673 2.88167,2.9693673 0.96387,1.1432 1.99618,2.539259 2.83704,4.206851 0.84085,1.667591 1.48379,3.593524 1.97601,5.508962 0.49222,1.915438 0.82748,3.791441 0.43117,4.920981 -0.3963,1.129541 -1.50853,1.468525 -3.26734,1.4592 -1.75882,-0.0093 -4.14987,-0.370308 -5.6751,-0.932368 -1.52524,-0.562061 -2.18709,-1.325738 -2.84899,-2.064011 -0.66189,-0.738273 -1.32375,-1.451043 -2.34197,-2.571083 -1.01822,-1.12004 -2.39284,-2.647397 -3.23269,-3.868563 -0.83985,-1.221166 -1.14532,-2.137584 -1.62904,-3.105378 -0.48371,-0.967795 -1.14557,-1.986037 -1.4767,-2.545071 -0.33114,-0.559033 -0.33114,-0.660855 -0.57619,-1.03237 -0.24506,-0.371514 -0.735849,-1.010969 -1.250755,-1.630898 C 98.869449,10.645017 98.332537,10.047091 97.747035,9.4707533 97.161532,8.8944154 96.529402,8.3415566 95.851959,7.8569481 95.174517,7.3723396 94.458013,6.9602987 93.781995,6.5565214 93.105978,6.1527442 92.476281,5.7607071 91.680167,5.3553686 90.884054,4.9500302 89.925785,4.5336705 88.738932,4.3331873 87.55208,4.1327042 86.138823,4.1481693 85.083785,4.0906105 84.028747,4.0330516 83.338297,3.9027012 82.993954,3.8376924 82.64961,3.7726836 82.64961,3.7726886 83.471454,3.6578944 Z"
       id="path37504"
       inkscape:path-effect="#path-effect37506"
       inkscape:original-d="m 82.64961,3.7726886 c 1.64372,-0.229365 3.29086,-0.459435 4.942529,-0.690366 0.771701,-0.249666 1.551671,-0.502189 2.339915,-0.75757 1.886359,0.255381 3.732947,0.505083 5.60235,0.75757 1.425173,0.236143 2.852744,0.472375 4.282712,0.708695 1.425364,0.222572 2.845014,0.44395 4.270494,0.665928 0.66475,0.343959 1.33068,0.688123 1.99778,1.032494 1.37624,0.51008 2.74766,1.018015 4.12387,1.527358 1.16164,0.997057 2.32153,1.992122 3.48238,2.9875134 0.89155,0.885971 1.78313,1.771448 2.67593,2.657605 1.03491,1.400198 2.06722,2.796257 3.10359,4.19718 0.64533,1.934144 1.28827,3.860076 1.93383,5.792827 0.33889,1.898075 0.67415,3.774077 1.01637,5.687324 -1.13448,0.345948 -2.24671,0.684931 -3.37109,1.027436 -2.39334,-0.361024 -4.78439,-0.722006 -7.17314,-1.082946 -0.6645,-0.761034 -1.32635,-1.524713 -1.98556,-2.291038 -0.6645,-0.710121 -1.32636,-1.422889 -1.98557,-2.138302 -1.37727,-1.524712 -2.75189,-3.052071 -4.12387,-4.582075 -0.30811,-0.913769 -0.61359,-1.830184 -0.91641,-2.749245 -0.6645,-1.015593 -1.32636,-2.033832 -1.98556,-3.054717 -0.003,-0.09918 -0.003,-0.201002 0,-0.305471 -0.4904,-0.638335 -0.981194,-1.277789 -1.472376,-1.918362 -0.538613,-0.599261 -1.075525,-1.197186 -1.612889,-1.7961744 -0.633609,-0.553656 -1.265739,-1.106515 -1.900036,-1.661765 -0.720522,-0.413935 -1.437026,-0.825976 -2.15663,-1.240216 -0.632444,-0.393318 -1.262141,-0.785355 -1.893925,-1.179121 -0.960389,-0.416901 -1.918658,-0.833261 -2.877003,-1.250033 -1.415218,0.01575 -2.828475,0.03122 -4.246591,0.04647 -0.69202,-0.130333 -1.38247,-0.260683 -2.0711,-0.391004 z"
       sodipodi:nodetypes="ccccccccccccccccccccccccccccc" />
    <path
       style="fill:none;fill-opacity:1;stroke:#000000;stroke-width:0.600001;stroke-linecap:square;stroke-dasharray:none;stroke-opacity:1;stop-color:#000000"
       d="m 116.5228,28.627282 c -0.0509,0.08488 -0.15091,0.251509 -0.25254,0.437277 -0.10162,0.185768 -0.20166,0.383678 -0.30335,0.536105 -0.10169,0.152427 -0.19827,0.247858 -0.37979,0.546194 -0.18152,0.298336 -0.44814,0.798239 -0.93203,1.297632 -0.4839,0.499393 -1.18377,0.999298 -1.78367,1.415827 -0.59991,0.41653 -1.09981,0.749798 -1.59605,1.025925 -0.49623,0.276127 -0.98253,0.492989 -1.6007,0.626587 -0.61816,0.133598 -1.35979,0.181053 -2.04734,0.18798 -0.68755,0.0069 -1.32076,-0.0264 -1.95285,-0.309716 -0.63208,-0.283316 -1.26529,-0.816545 -1.66484,-1.232577 -0.39954,-0.416032 -0.56618,-0.715975 -0.83319,-1.016482 -0.267,-0.300506 -0.6336,-0.600449 -1.02202,-0.864842 -0.38842,-0.264393 -0.79477,-0.491149 -1.42176,-0.620762 -0.62699,-0.129614 -1.462284,-0.159712 -2.17479,-0.135587 -0.712506,0.02413 -1.282928,0.101456 -1.793988,0.20646 -0.511059,0.105004 -0.94192,0.233374 -1.396061,0.390741 -0.454141,0.157367 -0.922946,0.34097 -1.307855,0.516556 -0.384909,0.175585 -0.68485,0.342219 -1.384379,0.39126 -0.699529,0.04904 -1.799312,-0.01761 -2.681763,-0.217763 -0.882452,-0.20015 -1.548988,-0.533418 -2.06526,-0.833266 -0.516273,-0.299848 -0.882868,-0.566462 -1.132454,-0.782754 -0.249586,-0.216291 -0.382891,-0.382925 -0.699447,-0.816086 -0.316556,-0.433162 -0.816453,-1.133019 -1.132979,-1.698989 -0.316526,-0.56597 -0.449832,-0.999219 -0.633245,-1.366466 -0.183412,-0.367247 -0.416702,-0.667188 -0.549924,-0.883065 -0.133222,-0.215877 -0.166554,-0.349177 -0.333265,-0.616514 -0.16671,-0.267336 -0.46665,-0.667258 -0.583541,-1.39926 -0.116891,-0.732002 -0.05024,-1.798461 0.04944,-2.598149 0.09968,-0.799688 0.232985,-1.332918 0.38238,-1.73285 0.149394,-0.399932 0.316032,-0.666547 0.416594,-0.866498 0.100562,-0.199951 0.133893,-0.333251 0.41624,-0.666755 0.282347,-0.333503 0.815575,-0.866733 1.231906,-1.217113 0.416332,-0.350379 0.716276,-0.517014 1.149536,-0.766921 0.43326,-0.249907 0.999815,-0.583175 1.366518,-0.816219 0.366704,-0.233044 0.533339,-0.366352 1.183067,-0.683414 0.649728,-0.317061 1.782841,-0.816964 2.432782,-1.083977 0.649942,-0.267013 0.816577,-0.30034 1.083123,-0.3999 0.266545,-0.09956 0.633141,-0.266196 1.033112,-0.399871 0.399971,-0.133675 0.833217,-0.233655 1.44417,-0.289812 0.610952,-0.05616 1.399217,-0.06782 2.152547,-0.083 0.75333,-0.01518 1.46256,-0.03367 2.100179,0.0052 0.637619,0.03889 1.189436,0.134123 1.926306,0.333849 0.73687,0.199727 1.64022,0.499278 2.3582,0.732284 0.71798,0.233006 1.25121,0.39964 1.75106,0.54962 0.49986,0.149979 0.96644,0.283288 1.24925,0.350192 0.28281,0.0669 0.38283,0.0669 0.7004,0.233313 0.31756,0.16641 0.85079,0.499678 1.48412,0.932978 0.63334,0.433299 1.36653,0.966528 1.9001,1.433406 0.53357,0.466878 0.86684,0.866801 1.2332,1.233157 0.36635,0.366356 0.76628,0.699623 1.0666,1.050126 0.30032,0.350502 0.50028,0.717097 0.95017,1.466854 0.44989,0.749758 1.14975,1.882867 1.51623,2.633547 0.36648,0.750681 0.39981,1.117273 0.43318,1.433826 0.0334,0.316553 0.0667,0.583163 0.18339,1.299616 0.11668,0.716452 0.31664,1.88289 0.41644,2.465045 0.0998,0.582154 0.0998,0.58215 0.0488,0.667024 z"
       id="path22481"
       inkscape:path-effect="#path-effect22483"
       inkscape:original-d="m 116.57372,28.542408 c -0.10263,0.16928 -0.20261,0.335914 -0.29994,0.499902 -0.10525,0.207962 -0.20528,0.405874 -0.31008,0.613472 -0.0985,0.09729 -0.19506,0.19274 -0.2898,0.286352 -0.26926,0.502548 -0.53588,1.00245 -0.79985,1.499706 -0.7025,0.502548 -1.40237,1.00245 -2.09959,1.499706 -0.50254,0.335914 -1.00244,0.669182 -1.4997,0.999804 -0.49557,0.221142 -0.98187,0.438003 -1.47436,0.657478 -0.74387,0.04785 -1.4855,0.0953 -2.22492,0.142366 -0.63585,-0.03068 -1.26906,-0.06401 -1.89962,-0.09998 -0.63586,-0.530583 -1.26907,-1.063812 -1.89963,-1.599687 -0.16928,-0.297295 -0.33592,-0.597236 -0.4999,-0.899823 -0.36924,-0.297296 -0.73584,-0.597237 -1.09979,-0.899824 -0.4107,-0.228769 -0.81706,-0.455522 -1.22694,-0.684655 -0.84393,-0.03014 -1.679224,-0.06023 -2.523819,-0.09094 -0.580376,0.07891 -1.150799,0.156238 -1.732947,0.234929 -0.43995,0.131264 -0.870811,0.259634 -1.308266,0.389783 -0.470823,0.184554 -0.939628,0.368156 -1.406414,0.550807 -0.302588,0.16928 -0.60253,0.335912 -0.899824,0.499901 -1.102431,-0.06401 -2.202214,-0.130662 -3.299354,-0.199962 -0.669182,-0.33062 -1.335717,-0.663889 -1.999607,-0.999802 -0.369242,-0.263969 -0.735836,-0.530585 -1.099786,-0.799843 -0.135953,-0.163989 -0.269258,-0.330623 -0.39992,-0.499904 -0.502553,-0.697217 -1.002443,-1.397079 -1.499703,-2.099587 -0.13595,-0.430603 -0.26926,-0.863851 -0.39992,-1.299746 -0.23593,-0.297295 -0.46922,-0.597236 -0.69987,-0.899823 -0.036,-0.130661 -0.0693,-0.263969 -0.1,-0.399922 -0.30258,-0.397275 -0.60252,-0.797197 -0.89982,-1.199765 0.064,-1.063811 0.13066,-2.130269 0.19996,-3.199372 0.13066,-0.530586 0.26397,-1.063815 0.39992,-1.59969 0.16399,-0.263969 0.33063,-0.530583 0.49991,-0.799843 0.0307,-0.130661 0.064,-0.263969 0.1,-0.399922 0.53058,-0.530583 1.06381,-1.063811 1.59968,-1.599686 0.29729,-0.163988 0.597235,-0.330622 0.899823,-0.499902 0.563909,-0.330622 1.130464,-0.66389 1.699664,-0.999804 0.163989,-0.130661 0.330624,-0.263969 0.499904,-0.399922 1.130464,-0.497256 2.263577,-0.997158 3.399332,-1.499706 0.163989,-0.03068 0.330624,-0.06401 0.499904,-0.09998 0.363948,-0.163988 0.730544,-0.330622 1.099783,-0.499902 0.430604,-0.09734 0.863851,-0.197315 1.299747,-0.299941 0.785567,-0.01136 1.573832,-0.02302 2.364799,-0.03498 0.715696,-0.0184 1.424926,-0.03689 2.141265,-0.05582 0.558841,0.09675 1.110659,0.191988 1.671879,0.288533 0.91246,0.302925 1.81581,0.602476 2.72031,0.902055 0.53058,0.16928 1.06381,0.335914 1.59969,0.499902 0.46392,0.135953 0.9305,0.26926 1.39972,0.399922 0.0973,0.0026 0.19732,0.0026 0.29994,0 0.53058,0.335914 1.06381,0.669182 1.59969,0.999804 0.73054,0.535874 1.46373,1.069103 2.19957,1.599686 0.33062,0.402568 0.66389,0.802489 0.9998,1.199765 0.39728,0.335914 0.7972,0.669182 1.19977,0.999804 0.19731,0.369241 0.39727,0.735836 0.59988,1.099785 0.69722,1.135757 1.39708,2.268868 2.09959,3.399333 0.0307,0.369241 0.064,0.735836 0.1,1.099785 0.0307,0.26926 0.064,0.535874 0.1,0.799843 0.19731,1.169084 0.39727,2.335522 0.59988,3.499314 z"
       sodipodi:nodetypes="cccccccccccccccccccccccccccccccccccccccccccccccccccccccc" />
    <path
       style="fill:none;fill-opacity:1;stroke:#000000;stroke-width:0.600001;stroke-linecap:square;stroke-dasharray:none;stroke-opacity:1;stop-color:#000000"
       d="m 94.651499,11.86157 c 0.249054,-0.230844 0.02708,-0.57026 -0.365144,-0.965893 C 93.894135,10.500044 93.331826,10.048294 92.595324,9.6620095 91.858822,9.2757253 90.954477,8.957666 90.23378,8.7179162 89.513084,8.4781663 88.984034,8.3194513 88.432558,8.1830601 87.881083,8.0466689 87.311281,7.9332458 86.779836,7.853541 c -0.531445,-0.079705 -1.01565,-0.1241822 -1.919275,-0.093291 -0.903624,0.030891 -2.226244,0.1367002 -3.3766,0.3829801 -1.150356,0.2462799 -2.121095,0.629239 -2.974729,1.0092408 -0.853633,0.3800019 -1.566514,0.7463846 -2.219423,1.1241934 -0.652909,0.377808 -1.233249,0.760159 -1.680169,1.108565 -0.44692,0.348406 -0.76546,0.666945 -1.08289,0.984374 -0.57514,0.581953 -1.147951,1.161551 -1.597817,1.75903 -0.449866,0.59748 -0.769019,1.202237 -1.295333,2.369432 -0.526313,1.167195 -1.257838,2.892878 -1.30873,4.53267 -0.05089,1.639793 0.578979,3.192434 1.394276,4.101258 0.815297,0.908824 1.812757,1.173403 2.70248,1.103758 0.889723,-0.06964 1.677503,-0.482997 3.157617,-0.590733 1.480114,-0.107737 3.563454,0.09032 4.835547,0.08628 1.272092,-0.004 1.695332,-0.215666 1.828878,-0.375378 0.133546,-0.159712 -0.02465,-0.265177 -0.163649,-0.729214 -0.138994,-0.464038 -0.258405,-1.286681 -0.257431,-2.365361 9.75e-4,-1.07868 0.122252,-2.41119 0.573971,-3.461593 0.451718,-1.050403 1.23283,-1.814742 1.880244,-2.386996 0.647415,-0.572253 1.161385,-0.952595 1.643212,-1.264592 0.481828,-0.311998 0.926764,-0.55283 1.357088,-0.774274 0.430324,-0.221445 0.837409,-0.418966 1.275261,-0.614052 0.437851,-0.195086 0.910984,-0.389715 1.488627,-0.628102 0.577643,-0.238387 1.239798,-0.512267 1.947494,-0.715971 0.707696,-0.203704 1.41396,-0.32335 1.663014,-0.554194 z"
       id="path22497"
       inkscape:path-effect="#path-effect22499"
       inkscape:original-d="M 95.122698,11.970398 C 94.900246,11.630927 94.678268,11.291511 94.456627,10.95194 93.893902,10.500334 93.331593,10.048584 92.768353,9.5956086 91.85871,9.2760436 90.954365,8.9579846 90.043831,8.6373906 89.512137,8.4813216 88.983087,8.3226076 88.456685,8.1612466 87.881022,8.0469746 87.31122,7.9335516 86.735013,7.8185356 86.248364,7.7741256 85.76416,7.7296456 85.2824,7.6851036 c -1.32527,0.108455 -2.64789,0.214265 -3.96787,0.317429 -0.98087,0.387116 -1.95161,0.770074 -2.93489,1.157821 -0.72399,0.372219 -1.43687,0.738603 -2.15958,1.1099094 -0.58312,0.38427 -1.16346,0.766621 -1.74102,1.147052 -0.31632,0.31632 -0.95229,0.952288 -0.95229,0.952288 0,0 -1.14795,1.161552 -1.72542,1.74586 -0.32236,0.610599 -0.64151,1.215358 -0.96196,1.822799 -0.73221,1.726944 -1.46374,3.452625 -2.19546,5.179134 0.62975,1.553261 1.25962,3.105902 1.88961,4.657923 1.00084,0.26581 1.9983,0.530391 3.004,0.79682 0.77388,-0.405935 1.56166,-0.819287 2.36335,-1.240063 2.15846,0.205493 4.2418,0.403554 6.36595,0.605205 0.42059,-0.208974 0.84383,-0.420593 1.26972,-0.634858 -0.16136,-0.103164 -0.31773,-0.211375 -0.47615,-0.317429 -0.11966,-0.822284 -0.23907,-1.644927 -0.35826,-2.468113 0.12119,-1.334239 0.24247,-2.666749 0.36428,-4.002453 0.78187,-0.765077 1.56298,-1.529418 2.34414,-2.293808 0.5137,-0.380075 1.02767,-0.760416 1.542866,-1.141733 0.448478,-0.242628 0.893414,-0.48346 1.344554,-0.727771 0.409511,-0.198562 0.816596,-0.396083 1.22199,-0.59292 0.47031,-0.193312 0.943443,-0.38794 1.419394,-0.583884 0.679335,-0.280831 1.34149,-0.554711 2.027847,-0.838758 0.729016,-0.12328 1.43528,-0.242926 2.155497,-0.365156 z"
       sodipodi:nodetypes="cccccccccccccccccccccccccccccc" />
    <path
       style="fill:none;fill-opacity:1;stroke:#000000;stroke-width:0.600001;stroke-linecap:square;stroke-dasharray:none;stroke-opacity:1;stop-color:#000000"
       d="M 88.87766,35.057913 C 88.618962,35.022293 88.107109,34.951814 87.354978,34.840098 86.602847,34.728381 85.605216,34.574634 84.639627,34.312983 83.674037,34.051332 82.752208,33.685727 81.943392,33.321592 81.134577,32.957456 80.451865,32.60073 79.609958,32.187834 78.76805,31.774938 77.78305,31.313804 76.769302,30.776206 75.755555,30.238608 74.718344,29.627076 73.881273,29.118639 73.044202,28.610202 72.407491,28.205023 71.635321,27.399082 70.863152,26.59314 69.954443,25.38547 69.346433,24.487946 68.738424,23.590423 68.43204,23.004581 68.127787,22.246013 67.823534,21.487446 67.522506,20.55856 67.144686,20.035487 c -0.377819,-0.523072 -0.82852,-0.633779 -1.176705,-0.54267 -0.348184,0.09111 -0.589549,0.376192 -0.892123,0.753361 -0.302574,0.377169 -0.656991,0.834855 -0.838644,1.658389 -0.181654,0.823534 -0.187826,2.002295 -0.002,3.0485 0.185776,1.046204 0.562316,1.94818 1.054808,2.882506 0.492492,0.934326 1.101671,1.903162 1.955764,2.839788 0.854092,0.936626 1.95566,1.84353 3.009807,2.698813 1.054147,0.855283 2.062878,1.660585 3.012942,2.352615 0.950064,0.692031 1.840866,1.270342 2.754775,1.920242 0.913909,0.6499 1.851827,1.372032 2.838831,2.156351 0.987004,0.784319 2.021582,1.629613 2.816006,2.273135 0.794425,0.643523 1.347003,1.083913 1.914032,1.545339 0.56703,0.461427 1.148108,0.943619 1.697974,1.396871 0.549866,0.453251 1.064567,0.874311 1.782601,1.394296 0.718034,0.519985 1.637342,1.13735 2.595227,1.525148 0.957884,0.387798 1.948005,0.543635 2.643927,0.476817 0.695922,-0.06682 1.090574,-0.354041 1.332615,-0.99479 0.24204,-0.64075 0.322492,-1.612721 0.219406,-2.504809 C 93.760792,44.0233 93.474445,43.222514 93.104233,42.314124 92.734021,41.405733 92.285337,40.403055 91.840553,39.491567 91.395769,38.580079 90.955751,37.761845 90.505596,37.04399 90.05544,36.326134 89.596061,35.710058 89.366205,35.401796 89.136348,35.093534 89.136357,35.093534 88.87766,35.057913 Z"
       id="path22513"
       inkscape:path-effect="#path-effect22515"
       inkscape:original-d="M 89.136357,35.093534 C 88.618922,35.022584 88.107068,34.95211 87.596024,34.881442 86.602801,34.72868 85.60517,34.574934 84.60471,34.420444 83.67391,34.051653 82.75208,33.686049 81.82323,33.317287 81.13441,32.957776 80.4517,32.601046 79.76195,32.240239 78.7679,31.775258 77.7829,31.314125 76.79323,30.850414 75.75537,30.238921 74.71816,29.627389 73.6816,29.015819 73.04224,28.613285 72.40553,28.208104 71.77146,27.800277 70.86286,26.59336 69.95415,25.38569 69.04533,24.177263 c -0.30722,-0.586676 -0.6136,-1.17252 -0.9205,-1.760105 -0.30161,-0.92961 -0.60264,-1.858496 -0.90532,-2.793558 -0.45272,-0.110873 -0.90342,-0.221581 -1.35211,-0.332124 -0.24763,0.292428 -0.48899,0.577514 -0.7351,0.868245 -0.35905,0.4636 -0.71347,0.921283 -1.07053,1.382459 -0.007,1.185917 -0.0126,2.364681 -0.0186,3.552169 0.37745,0.905056 0.75399,1.807032 1.12962,2.705928 0.60936,0.969819 1.21854,1.938655 1.82754,2.90651 1.09926,0.905489 2.20083,1.812391 3.30103,2.717687 1.0081,0.805271 2.01683,1.610575 3.0262,2.415913 0.89079,0.578739 1.78159,1.157054 2.67217,1.734781 0.93721,0.72206 1.87513,1.44419 2.81375,2.166393 1.03538,0.846428 2.06996,1.691719 3.10548,2.537306 0.55333,0.441464 1.10591,0.881851 1.66062,1.323468 0.57934,0.481236 1.16042,0.963426 1.74323,1.446572 0.51692,0.423364 1.031623,0.844421 1.547662,1.266092 0.920062,0.618313 1.83937,1.235678 2.761598,1.854563 0.993698,0.156706 1.983819,0.312543 2.977257,0.468596 0.398487,-0.289941 0.79314,-0.577163 1.195345,-0.869955 0.0816,-0.988775 0.162052,-1.960746 0.24346,-2.941341 -0.287658,-0.803448 -0.574005,-1.604234 -0.862284,-2.411427 -0.452146,-1.009559 -0.90083,-2.012237 -1.350403,-3.017758 -0.439992,-0.817428 -0.88001,-1.635662 -1.320053,-2.454699 -0.460249,-0.616622 -0.919628,-1.232698 -1.379044,-1.849444 z"
       sodipodi:nodetypes="ccccccccccccccccccccccccccccccccc" />
    <path
       style="fill:none;fill-opacity:1;stroke:#000000;stroke-width:0.600001;stroke-linecap:square;stroke-dasharray:none;stroke-opacity:1;stop-color:#000000"
       d="m 94.44307,33.297897 c -1.060459,-0.462266 -2.156604,-0.574165 -2.929062,-0.601949 -0.772459,-0.02778 -1.219338,0.02808 -1.357345,0.559635 -0.138007,0.531559 0.02957,1.537043 0.225108,2.206595 0.195534,0.669552 0.418975,1.004713 0.698346,1.563646 0.27937,0.558934 0.61453,1.340973 0.837915,1.983706 0.223385,0.642733 0.335104,1.145473 0.741671,2.196195 0.406567,1.050723 1.102359,2.637573 1.608884,3.819467 0.506524,1.181894 0.81057,1.928296 1.124939,2.386821 0.314369,0.458525 0.641498,0.634968 1.131262,0.682009 0.489765,0.04704 1.139859,-0.0351 1.59251,-0.235673 0.45265,-0.200578 0.699273,-0.51473 0.935726,-0.896479 0.236452,-0.381749 0.459893,-0.828631 0.572406,-1.415425 0.112514,-0.586795 0.112514,-1.312975 0.04307,-2.402216 -0.06944,-1.08924 -0.208587,-2.541603 -0.574036,-3.897483 -0.365449,-1.35588 -0.952769,-2.603708 -1.762636,-3.640988 -0.809866,-1.03728 -1.8283,-1.845594 -2.888759,-2.307861 z"
       id="path22529"
       inkscape:path-effect="#path-effect22531"
       inkscape:original-d="M 94.479788,32.947636 C 93.382582,32.83592 92.286437,32.72402 91.19136,32.611938 c -0.449527,0.0585 -0.896405,0.114366 -1.340641,0.167579 0.164934,1.008126 0.332515,2.013609 0.50274,3.016443 0.220795,0.337804 0.444236,0.672965 0.67032,1.00548 0.332515,0.784686 0.667676,1.566725 1.005482,2.346122 0.109075,0.505386 0.220792,1.008126 0.335159,1.50822 0.701531,1.600806 1.397323,3.187656 2.1043,4.799146 0.306071,0.752288 0.610117,1.49869 0.912143,2.239218 0.326862,0.176707 0.653991,0.353151 0.981386,0.529331 0.652332,-0.08219 1.302427,-0.164322 1.957777,-0.247353 0.249887,-0.318381 0.49651,-0.632532 0.747599,-0.9523 0.220792,-0.444233 0.444233,-0.891114 0.670319,-1.340639 -0.0026,-0.723535 -0.0026,-1.449715 0,-2.178542 -0.139172,-1.449627 -0.278317,-2.901989 -0.417433,-4.357081 -0.591813,-1.256546 -1.179134,-2.504374 -1.771637,-3.76404 -1.027143,-0.814752 -2.045576,-1.623067 -3.069086,-2.435886 z"
       sodipodi:nodetypes="ccccccccccccccccc" />
    <path
       style="fill:none;fill-opacity:1;stroke:#000000;stroke-width:0.600001;stroke-linecap:square;stroke-dasharray:none;stroke-opacity:1;stop-color:#000000"
       d="m 22.478212,13.157946 c -2.799666,1.115587 -7.089425,3.246151 -9.630902,4.909285 -2.541476,1.663134 -3.3385271,2.858712 -3.8510607,3.598755 -0.5125337,0.740043 -0.7402647,1.024706 -0.8816842,1.337883 -0.1414195,0.313177 -0.1983524,0.654768 -0.084128,0.99499 0.1142243,0.340223 0.3988863,0.681814 0.8544871,1.422258 0.4556007,0.740445 1.0818548,1.87909 1.9640179,2.988779 0.882163,1.109689 2.020805,2.1914 2.941369,3.408741 0.920565,1.217341 1.622928,2.570143 2.619053,2.91177 0.996125,0.341626 2.282843,-0.326149 3.107746,-0.983336 0.824903,-0.657186 1.179898,-1.298709 1.830602,-1.847377 0.650705,-0.548667 1.601444,-1.00796 2.822666,-1.171829 1.221223,-0.163868 2.698392,-0.03174 3.697442,0.176823 0.99905,0.208565 1.511442,0.493227 2.493804,0.760833 0.982361,0.267607 2.436048,0.518049 3.519233,0.404145 1.083186,-0.113903 1.794537,-0.593162 2.761483,-1.417228 0.966946,-0.824066 2.198215,-2.000171 2.935397,-3.381028 0.737182,-1.380857 0.9748,-2.957402 0.957009,-3.817554 -0.01779,-0.860153 -0.290946,-1.01207 -0.911958,-1.600684 -0.621012,-0.588614 -1.58886,-1.613394 -2.157954,-2.29609 -0.569094,-0.682695 -0.739891,-1.024289 -1.138681,-1.508742 -0.398791,-0.484454 -1.025044,-1.110707 -1.622629,-1.850521 -0.597585,-0.739814 -1.167039,-1.593996 -2.296339,-2.339793 -1.1293,-0.745798 -2.816811,-1.382434 -4.316992,-1.649941 -1.500182,-0.267507 -2.812316,-0.165727 -5.611981,0.949861 z"
       id="path22697"
       inkscape:path-effect="#path-effect22699"
       inkscape:original-d="m 23.96599,12.144119 c -4.28739,2.129522 -8.57715,4.260085 -12.86107,6.387616 -0.7997,1.198221 -1.59675,2.393799 -2.39115,3.586728 -0.23038,0.287306 -0.45811,0.571969 -0.68319,0.853983 -0.0596,0.344239 -0.11651,0.685834 -0.1708,1.024781 0.28202,0.344239 0.56668,0.685832 0.85399,1.024779 0.6236,1.141291 1.24986,2.279933 1.87876,3.415932 1.136,1.084358 2.27464,2.16607 3.41593,3.245136 0.7021,1.353068 1.40446,2.705872 2.10709,4.058407 1.28999,-0.66935 2.57671,-1.337122 3.87079,-2.008847 0.35558,-0.642801 0.71058,-1.284321 1.06461,-1.923894 0.94752,-0.457603 1.89826,-0.916895 2.85221,-1.377877 1.488415,0.13342 2.965584,0.265545 4.452219,0.398229 0.509744,0.287305 1.022136,0.571968 1.537171,0.853982 1.451383,0.250355 2.90507,0.500797 4.361065,0.751326 0.710468,-0.478578 1.421819,-0.957837 2.129206,-1.434512 1.226471,-1.17151 2.457739,-2.347615 3.693804,-3.528312 0.238074,-1.581056 0.475692,-3.157601 0.712393,-4.726563 -0.272238,-0.150995 -0.545393,-0.302912 -0.819468,-0.455753 -0.970494,-1.022133 -1.93834,-2.046915 -2.903543,-3.074339 -0.173442,-0.338947 -0.344239,-0.68054 -0.512389,-1.024779 -0.628902,-0.62361 -1.255154,-1.249863 -1.878764,-1.878764 -0.571968,-0.851337 -1.138674,-1.707351 -1.707965,-2.56195 -1.689124,-0.636881 -3.376635,-1.273517 -5.064494,-1.910649 -1.312365,0.102042 -2.624499,0.203822 -3.936405,0.30534 z"
       sodipodi:nodetypes="ccccccccccccccccccccccccc" />
    <path
       style="fill:none;fill-opacity:1;stroke:#000000;stroke-width:0.600001;stroke-linecap:square;stroke-dasharray:none;stroke-opacity:1;stop-color:#000000"
       d="M 38.985524,4.3649315 C 40.155806,4.2231448 40.918997,3.9063409 40.461122,3.6942681 40.003247,3.4821952 38.326594,3.3780068 37.016146,3.1360444 35.705697,2.8940819 34.773653,2.5164874 33.397025,2.5476618 32.020397,2.5788363 30.215586,3.016714 28.612037,3.2595719 27.008488,3.5024299 25.635712,3.5447968 23.819566,3.7833705 22.003421,4.0219442 19.743241,4.45557 17.085423,5.7668399 14.427606,7.0781098 11.382194,9.2633089 9.4013284,11.062159 7.4204626,12.86101 6.5021826,14.273747 5.8452152,15.389162 5.1882478,16.504577 4.8015492,17.306805 4.4110247,18.229901 4.0205002,19.152997 3.630793,20.186611 3.4010155,21.057228 3.171238,21.927845 3.1004352,22.635873 2.8391671,23.77929 2.577899,24.922708 2.1268144,26.501116 2.5064578,27.447174 c 0.3796434,0.946058 1.5907129,1.260174 2.6313101,1.391024 1.0405973,0.130849 1.9083171,0.07821 2.3978689,-0.43098 0.4895519,-0.509191 0.598862,-1.470194 1.5482291,-1.979448 0.9493671,-0.509254 2.7184971,-0.557172 4.2956281,-0.499092 1.577131,0.05808 2.938561,0.221678 3.94089,-1.075237 1.002329,-1.296915 1.639556,-4.058243 2.0527,-5.618619 0.413145,-1.560376 0.603797,-1.921069 0.813536,-2.314852 0.209739,-0.393784 0.430303,-0.805187 0.725803,-1.228754 0.295499,-0.423568 0.66139,-0.850586 1.037467,-1.298014 0.376076,-0.447427 0.771885,-0.926589 1.236743,-1.462976 0.464858,-0.536386 0.982594,-1.111607 1.608438,-1.818399 0.625845,-0.706791 1.353104,-1.5377793 1.991909,-2.2121003 0.638805,-0.674321 1.182186,-1.1850063 1.92377,-1.6818125 0.741584,-0.4968062 1.677914,-0.9751587 2.477933,-1.3836266 0.800019,-0.4084679 1.454841,-0.7425151 2.015205,-0.9643484 0.560364,-0.2218332 1.012948,-0.3265033 2.027329,-0.3624196 1.01438,-0.035916 2.584025,-8.014e-4 3.754307,-0.1425881 z"
       id="path22577"
       inkscape:path-effect="#path-effect22579"
       inkscape:original-d="m 39.387912,4.5419009 c 0.767949,-0.318624 1.53114,-0.635428 2.300586,-0.954983 -1.685268,-0.104443 -3.361921,-0.208631 -5.046724,-0.313607 -0.936207,-0.378909 -1.86825,-0.756504 -2.803118,-1.135615 -1.818213,0.44133 -3.623024,0.879208 -5.449418,1.322121 -1.380742,0.04287 -2.753518,0.08524 -4.118338,0.127101 -2.26744,0.435232 -4.52762,0.868858 -6.79448,1.303552 -3.04878,2.187687 -6.09419,4.372889 -9.13625,6.5556071 -0.91977,1.414892 -1.83805,2.827629 -2.76133,4.248195 -0.3907,0.810253 -0.7774,1.61248 -1.16739,2.421815 -0.39109,1.036857 -0.7808,2.07047 -1.16912,3.100838 -0.0735,0.710679 -0.14425,1.418712 -0.21241,2.124099 -0.45219,1.581636 -0.90328,3.160042 -1.35413,4.738289 1.21023,0.314232 2.4213,0.628346 3.6336,0.942449 0.86899,-0.05247 1.73671,-0.105105 2.60596,-0.158085 0.10961,-0.965676 0.21892,-1.926679 0.32949,-2.896721 1.7884,-0.04818 3.55753,-0.0961 5.34272,-0.144712 1.36903,0.164807 2.73046,0.328404 4.09864,0.492516 0.63458,-2.75868 1.27181,-5.520007 1.91168,-8.283979 0.18825,-0.356387 0.3789,-0.717081 0.57196,-1.082084 0.22642,-0.422564 0.44699,-0.833964 0.67253,-1.254425 0.36553,-0.426643 0.73142,-0.853662 1.09202,-1.274459 0.39155,-0.47406 0.78736,-0.953221 1.18742,-1.437479 0.52967,-0.588504 1.0474,-1.16373 1.573908,-1.748665 0.725179,-0.82865 1.452439,-1.6596371 2.181775,-2.4929621 0.5483,-0.515293 1.091681,-1.025978 1.6416,-1.542824 0.933294,-0.476672 1.869623,-0.955025 2.808989,-1.435058 0.660673,-0.336902 1.315495,-0.670949 1.976963,-1.008517 0.459252,-0.106009 0.911836,-0.210679 1.373931,-0.317752 1.566615,0.03532 3.13626,0.07043 4.708936,0.105345 z"
       sodipodi:nodetypes="cccccccccccccccccccccccccccccc" />
    <path
       style="fill:none;fill-opacity:1;stroke:#000000;stroke-width:0.600001;stroke-linecap:square;stroke-dasharray:none;stroke-opacity:1;stop-color:#000000"
       d="m 18.35405,26.842709 c -0.636257,-0.235071 -1.792427,-0.09903 -2.911447,-0.09056 -1.119021,0.0085 -2.176841,-0.109577 -2.933147,-0.212625 -0.756306,-0.103048 -1.174816,-0.186116 -1.648328,-0.251821 -0.473513,-0.0657 -0.9932719,-0.112504 -1.3789823,-0.05661 -0.3857104,0.05589 -0.6360807,0.212372 -0.8704878,0.416239 -0.2344071,0.203867 -0.45348,0.454234 -0.5108177,0.975826 -0.057338,0.521593 0.044132,1.313528 0.2949746,1.987567 0.2508422,0.67404 0.6497963,1.225377 1.0024049,1.599504 0.3526087,0.374126 0.6605993,0.572728 0.9876963,0.84496 0.327097,0.272232 0.670369,0.615502 1.150722,0.922882 0.480353,0.307381 1.096401,0.577707 1.756686,0.901184 0.660285,0.323478 1.361535,0.698468 1.86814,0.839894 0.506605,0.141426 0.817815,0.04724 1.116698,-0.06285 0.298883,-0.110093 0.575733,-0.232092 0.838574,-0.354799 0.26284,-0.122708 0.50268,-0.242335 0.896179,-0.53537 0.393498,-0.293036 0.926187,-0.74818 1.233516,-1.273401 0.30733,-0.525221 0.383496,-1.11601 0.338622,-1.827948 -0.04487,-0.711939 -0.210657,-1.543515 -0.348284,-2.263117 -0.137627,-0.719602 -0.246463,-1.32388 -0.882719,-1.558951 z"
       id="path22593"
       inkscape:path-effect="#path-effect22595"
       inkscape:original-d="m 18.88098,26.470776 c -1.16316,0.137093 -2.31933,0.273129 -3.48268,0.409777 -1.07475,-0.119644 -2.13257,-0.237693 -3.21593,-0.358886 -0.42928,-0.08489 -0.84779,-0.167957 -1.2732,-0.25271 -0.52158,-0.04668 -1.04134,-0.09347 -1.55927,-0.140397 -0.25302,0.159128 -0.50339,0.315611 -0.75111,0.469447 -0.22173,0.253019 -0.4408,0.503389 -0.65723,0.751115 0.10165,0.79566 0.20312,1.587595 0.30536,2.383218 0.39944,0.552634 0.79839,1.103974 1.19687,1.654022 0.30684,0.198295 0.61483,0.396897 0.92397,0.595803 0.34499,0.345513 0.68826,0.688785 1.03279,1.032782 0.6163,0.270819 1.23235,0.541142 1.8497,0.811662 0.70319,0.376433 1.40444,0.751425 2.10857,1.127548 0.3093,-0.09342 0.62051,-0.187601 0.93363,-0.282543 0.28465,-0.125287 0.5615,-0.247287 0.85026,-0.374682 0.23692,-0.118035 0.47676,-0.237663 0.71953,-0.358886 0.54419,-0.464936 1.07688,-0.920079 1.61542,-1.380259 0.0759,-0.590309 0.15204,-1.181101 0.2285,-1.772378 -0.16629,-0.832509 -0.33207,-1.664086 -0.49788,-2.497394 -0.10944,-0.605903 -0.21827,-1.210182 -0.3273,-1.817239 z"
       sodipodi:nodetypes="cccccccccccccccccccc" />
    <path
       style="fill:none;fill-opacity:1;stroke:#000000;stroke-width:0.600001;stroke-linecap:square;stroke-dasharray:none;stroke-opacity:1;stop-color:#000000"
       d="m 37.626351,25.989193 c 0.01576,-0.139366 0.04756,-0.420532 -0.189086,-0.499475 -0.236649,-0.07894 -0.737131,0.04555 -1.154032,0.123281 -0.416901,0.07773 -0.745291,0.108635 -1.316836,0.215609 -0.571545,0.106975 -1.374347,0.287984 -2.493207,0.429044 -1.118859,0.14106 -2.545777,0.240806 -3.476548,0.165594 -0.930771,-0.07521 -1.370134,-0.326278 -1.807786,-0.826462 -0.437653,-0.500185 -0.875802,-1.251297 -1.141925,-2.017324 -0.266122,-0.766027 -0.360011,-1.548437 -0.407094,-2.268081 -0.04708,-0.719643 -0.04708,-1.376868 -0.251831,-1.706804 -0.204749,-0.329935 -0.611604,-0.329935 -0.987405,-0.282563 -0.375801,0.04737 -0.72006,0.14126 -1.330147,0.595905 -0.610087,0.454644 -1.486386,1.268352 -2.143702,1.847212 -0.657317,0.57886 -1.095466,0.92312 -1.392287,1.220834 -0.296822,0.297714 -0.453304,0.548084 -0.594165,0.94108 -0.140862,0.392995 -0.267051,0.927548 -0.189647,1.494207 0.0774,0.56666 0.361502,1.178367 0.925119,1.708926 0.563617,0.53056 1.407747,0.984115 2.311422,1.333547 0.903675,0.349431 1.862195,0.592575 2.892176,0.686244 1.02998,0.09367 2.144962,0.03807 3.1641,-0.05176 1.019138,-0.08983 1.96504,-0.215953 2.725231,-0.310022 0.76019,-0.09407 1.346956,-0.157668 1.944901,-0.240118 0.597945,-0.08245 1.196081,-0.182056 1.736285,-0.32346 0.540203,-0.141405 1.001301,-0.319068 1.503085,-0.582318 0.501784,-0.263251 1.039039,-0.610887 1.316782,-0.873028 0.277743,-0.26214 0.30904,-0.449918 0.324938,-0.545309 0.0159,-0.09539 0.0159,-0.09539 0.03166,-0.234759 z"
       id="path22609"
       inkscape:path-effect="#path-effect22611"
       inkscape:original-d="m 37.610589,26.12856 c 0.03129,-0.27876 0.06309,-0.559926 0.0954,-0.843495 -0.505326,0.125897 -1.005809,0.25039 -1.503738,0.37405 -0.335897,0.03185 -0.664286,0.06276 -0.997642,0.09389 -0.809713,0.182773 -1.612515,0.363782 -2.420535,0.545763 -1.429726,0.100189 -2.856644,0.199935 -4.280749,0.299239 -0.437633,-0.24966 -0.876996,-0.500725 -1.31445,-0.751115 -0.440798,-0.748469 -0.878948,-1.499581 -1.314452,-2.253342 -0.09653,-0.779767 -0.190423,-1.562177 -0.281668,-2.347235 -0.0026,-0.654579 -0.0026,-1.311804 0,-1.971675 -0.409498,0.0026 -0.816353,0.0026 -1.22056,0 -0.346905,0.09654 -0.691165,0.190426 -1.032785,0.281667 -0.87895,0.816354 -1.75525,1.630061 -2.6289,2.441123 -0.4408,0.346908 -0.87895,0.691168 -1.31445,1.032782 -0.15913,0.253019 -0.31561,0.503391 -0.46945,0.751115 -0.12736,0.538667 -0.25355,1.073219 -0.37857,1.603661 0.2797,0.60307 0.5638,1.214775 0.84598,1.821527 0.8452,0.454535 1.68933,0.908091 2.53705,1.36317 0.95972,0.24378 1.91824,0.486924 2.873919,0.729017 1.104374,-0.05481 2.219356,-0.110411 3.322779,-0.165682 0.93487,-0.12442 1.880772,-0.250541 2.81668,-0.375558 0.584469,-0.06311 1.171234,-0.126712 1.760293,-0.190795 0.606842,-0.100835 1.204978,-0.200442 1.815042,-0.302254 0.470362,-0.181069 0.93146,-0.358732 1.4008,-0.539733 0.534216,-0.345576 1.071471,-0.693212 1.596118,-1.032783 0.02865,-0.185134 0.05995,-0.372911 0.09389,-0.563337 z"
       sodipodi:nodetypes="cccccccccccccccccccccccccc" />
    <path
       style="fill:none;fill-opacity:1;stroke:#000000;stroke-width:0.600001;stroke-linecap:square;stroke-dasharray:none;stroke-opacity:1;stop-color:#000000"
       d="M 54.902562,22.449677 C 54.853526,21.389888 54.756036,19.282899 54.450971,17.911148 54.145907,16.539398 53.633516,15.913143 53.18151,15.335664 52.729504,14.758184 52.336576,14.227685 51.677217,13.510633 51.017858,12.79358 50.09247,11.890202 49.101447,11.144034 48.110424,10.397867 47.055493,9.8100162 46.07056,9.3728074 45.085627,8.9355987 44.177917,8.6519392 43.142423,8.4268558 42.106929,8.2017725 40.955966,8.0378761 39.60733,7.9955666 c -1.348636,-0.04231 -2.885807,0.037707 -4.386787,0.441874 -1.500979,0.4041668 -2.975923,1.1362386 -4.217736,1.7986104 -1.241812,0.662372 -2.28301,1.273405 -3.012643,2.170524 -0.729633,0.897119 -1.211014,2.155289 -1.57299,3.299212 -0.361976,1.143923 -0.610564,2.186112 -0.721671,3.097548 -0.111107,0.911436 -0.08281,1.672135 0.0058,2.583763 0.08865,0.911629 0.235398,1.949958 0.574343,2.793024 0.338945,0.843066 0.868551,1.482812 1.497558,1.842066 0.629008,0.359254 1.357685,0.438569 2.327264,0.415849 0.969579,-0.02272 2.172165,-0.147294 3.407739,-0.369733 1.235575,-0.222438 2.50261,-0.542692 3.711258,-0.613986 1.208647,-0.07129 2.357452,0.106448 3.444053,0.206737 1.0866,0.100289 2.10651,0.122904 3.078558,0.139375 0.972049,0.01647 1.882979,0.02657 2.88584,0.02224 1.002862,-0.0043 2.095702,-0.02314 3.060689,0.279116 0.964988,0.302261 1.800457,0.924888 2.656432,0.546377 0.855976,-0.378512 1.728866,-1.754845 2.167695,-2.446772 0.43883,-0.691927 0.43883,-0.691923 0.389794,-1.751711 z"
       id="path22653"
       inkscape:path-effect="#path-effect22655"
       inkscape:original-d="m 54.951598,23.509465 c -0.0983,-2.119566 -0.19584,-4.226553 -0.29354,-6.344105 -0.51503,-0.623607 -1.02742,-1.249862 -1.53717,-1.878761 -0.39168,-0.528196 -0.78461,-1.058693 -1.1768,-1.588819 -0.92649,-0.903934 -1.85188,-1.80731 -2.77735,-2.711292 -1.05649,-0.588306 -2.11142,-1.1761581 -3.16883,-1.7658011 -0.91238,-0.284773 -1.82009,-0.568431 -2.73274,-0.853982 -1.158281,-0.164636 -2.309244,-0.328532 -3.466414,-0.493615 -1.540047,0.08042 -3.077218,0.160434 -4.611508,0.24005 -1.467629,0.728575 -2.942573,1.460647 -4.409594,2.1886521 -1.01661,0.596712 -2.057807,1.207745 -3.054395,1.792489 -0.462869,1.209358 -0.94425,2.467528 -1.417436,3.704707 -0.250814,1.050676 -0.499402,2.092866 -0.750104,3.144763 0.02841,0.77103 0.0567,1.531729 0.08569,2.303709 0.148283,1.051309 0.295033,2.089638 0.443138,3.135406 0.529795,0.64056 1.059401,1.280305 1.588816,1.919237 0.728855,0.07963 1.457532,0.158944 2.189237,0.238296 1.207509,-0.124847 2.410095,-0.249421 3.614926,-0.374466 1.266341,-0.319881 2.533376,-0.640135 3.801106,-0.960763 1.149472,0.178152 2.298277,0.355895 3.448038,0.53348 1.02348,0.02296 2.04339,0.04558 3.07083,0.06809 0.91666,0.01043 1.82759,0.02053 2.74121,0.03039 1.09211,-0.01854 2.18495,-0.03735 3.27849,-0.05643 0.83621,0.62364 1.67168,1.246266 2.50838,1.869352 0.8754,-1.380449 1.74829,-2.756782 2.62602,-4.140591 z"
       sodipodi:nodetypes="ccccccccccccccccccccccccc" />
    <path
       style="fill:none;fill-opacity:1;stroke:#000000;stroke-width:0.600001;stroke-linecap:square;stroke-dasharray:none;stroke-opacity:1;stop-color:#000000"
       d="m 33.11612,36.875683 c 0.360938,-0.521205 0.70253,-0.976661 0.902598,-1.346676 0.200069,-0.370016 0.257,-0.654675 0.370572,-1.024666 0.113571,-0.369992 0.284368,-0.82545 0.08452,-1.083357 -0.199842,-0.257907 -0.769165,-0.314839 -1.195367,-0.428819 -0.426203,-0.113981 -0.710863,-0.284777 -1.138788,-0.369941 -0.427925,-0.08517 -0.997248,-0.08517 -1.509861,0.05813 -0.512613,0.143297 -0.968069,0.427957 -1.280975,0.569321 -0.312905,0.141364 -0.483701,0.141364 -0.739787,0.342043 -0.256086,0.200679 -0.597679,0.599204 -0.939584,0.911933 -0.341906,0.312728 -0.6835,0.540457 -0.881765,0.740291 -0.198265,0.199834 -0.255197,0.37063 -0.625388,1.281555 -0.370192,0.910924 -1.053378,2.561956 -1.394311,3.871125 -0.340932,1.309168 -0.340932,2.277018 -0.340932,2.988668 0,0.71165 0,1.16711 0.08564,1.707538 0.08564,0.540427 0.256438,1.166677 0.427224,1.621631 0.170786,0.454953 0.341582,0.739618 0.512378,1.024278 0.170795,0.284661 0.341592,0.569321 0.852277,0.654528 0.510686,0.08521 1.364669,-0.02866 2.019701,-0.368994 0.655031,-0.340339 1.110488,-0.909662 1.39821,-1.692743 0.287722,-0.783081 0.406465,-1.786151 0.519742,-2.625067 0.113277,-0.838917 0.222014,-1.521076 0.513335,-2.351507 0.291321,-0.83043 0.763382,-1.804501 1.19124,-2.587859 0.427858,-0.783358 0.808376,-1.37021 1.169313,-1.891414 z"
       id="path22713"
       inkscape:path-effect="#path-effect22715"
       inkscape:original-d="m 33.137686,36.806974 c 0.338947,-0.452814 0.68054,-0.90827 1.024779,-1.366372 0.05429,-0.282017 0.11122,-0.566677 0.170796,-0.853985 0.168151,-0.452811 0.338947,-0.90827 0.512389,-1.366372 -0.571965,-0.05429 -1.141288,-0.11122 -1.707964,-0.170796 -0.287309,-0.168151 -0.571969,-0.338948 -0.853983,-0.51239 -0.571968,0.0026 -1.141291,0.0026 -1.707967,0 -0.458105,0.287306 -0.913561,0.571966 -1.366372,0.853982 -0.173445,0.0026 -0.344241,0.0026 -0.512392,0 -0.344239,0.401172 -0.685832,0.799696 -1.024779,1.195576 -0.344239,0.230375 -0.685832,0.458105 -1.024779,0.683186 -0.05958,0.173445 -0.116512,0.344241 -0.170796,0.512392 -0.685835,1.65368 -1.369021,3.304712 -2.049561,4.953097 -0.0026,0.9705 -0.0026,1.93835 0,2.90355 -0.0026,0.4581 -0.0026,0.91356 0,1.36637 0.168151,0.6289 0.338947,1.25515 0.51239,1.87876 0.16815,0.28731 0.338947,0.571974 0.512389,0.853994 0.168151,0.2873 0.338947,0.57196 0.51239,0.85398 0.851339,-0.11122 1.705321,-0.22509 2.561949,-0.34159 0.452814,-0.56668 0.90827,-1.136004 1.366375,-1.707974 0.117432,-0.99396 0.236176,-1.99703 0.354419,-2.99391 0.108324,-0.68096 0.21706,-1.36312 0.326209,-2.04647 0.473599,-0.97753 0.945662,-1.9516 1.419657,-2.929386 0.381765,-0.588919 0.762283,-1.175771 1.144851,-1.765642 z"
       sodipodi:nodetypes="cccccccccccccccccccccccc" />
    <path
       style="fill:none;fill-opacity:1;stroke:#000000;stroke-width:0.600001;stroke-linecap:square;stroke-dasharray:none;stroke-opacity:1;stop-color:#000000"
       d="m 57.66097,19.051941 c -0.242227,0.309192 -0.724525,0.924824 -1.052725,1.55692 -0.328201,0.632096 -0.501742,1.278734 -0.773791,1.93432 -0.272048,0.655586 -0.639679,1.312543 -0.937521,1.811813 -0.297842,0.499271 -0.525568,0.840859 -0.638417,1.01013 -0.112848,0.169272 -4.211968,4.268392 -4.809796,4.626544 -0.597828,0.358152 -1.781159,1.067071 -2.978742,1.63731 -1.197583,0.570238 -2.398394,0.995765 -3.141526,1.294449 -0.743132,0.298684 -1.027795,0.469482 -1.654032,0.745033 -0.626237,0.275551 -1.589195,0.654588 -2.594692,0.843394 -1.005498,0.188806 -2.037562,0.184553 -3.03671,0.564582 -0.999148,0.380028 -1.953783,1.141911 -2.566042,1.812272 -0.612258,0.670361 -0.880746,1.242124 -1.246261,1.863049 -0.365515,0.620924 -0.810789,1.263084 -1.16651,2.007715 -0.35572,0.744631 -0.596703,1.540391 -0.773794,2.36184 -0.177091,0.82145 -0.2861,1.65413 -0.26886,2.43453 0.01724,0.7804 0.160612,1.50745 0.609513,2.084586 0.448901,0.577136 1.202691,1.003405 2.041102,0.994667 0.83841,-0.0087 1.761277,-0.452522 2.488403,-0.852192 0.727126,-0.39967 1.251718,-0.751003 1.872048,-1.181369 0.620331,-0.430366 1.315635,-0.925389 2.016503,-1.424372 0.762268,-0.569707 1.526784,-1.141094 2.27548,-1.765432 0.748695,-0.624339 1.488816,-1.307528 2.340297,-2.023352 0.851481,-0.715824 1.814863,-1.464302 2.748381,-2.162671 0.933517,-0.698369 1.825017,-1.337716 2.656109,-1.990862 0.831093,-0.653146 1.583305,-1.305614 2.382169,-1.923138 0.798863,-0.617523 1.639633,-1.195396 2.274639,-1.650115 0.635006,-0.45472 1.051155,-0.776446 1.801392,-1.428674 0.750237,-0.652229 1.781088,-1.588554 2.545111,-2.703758 0.764022,-1.115203 1.235084,-2.380006 1.576376,-3.250905 0.341293,-0.8709 0.551532,-1.343651 0.655502,-1.919928 0.103971,-0.576276 0.09992,-1.239553 -0.0055,-1.801875 -0.105397,-0.562323 -0.311208,-1.012362 -0.727311,-1.629372 -0.416104,-0.61701 -1.04082,-1.398733 -1.354728,-1.791532 -0.313907,-0.3928 -0.313857,-0.3928 -0.556085,-0.08361 z"
       id="path22729"
       inkscape:path-effect="#path-effect22731"
       inkscape:original-d="m 57.903198,18.742748 c -0.48449,0.618358 -0.96679,1.233988 -1.44912,1.849737 -0.17421,0.648425 -0.34775,1.295063 -0.52233,1.946267 -0.36943,0.659966 -0.73706,1.316923 -1.10289,1.970865 -0.23038,0.344239 -0.4581,0.685831 -0.68319,1.024779 l -4.09912,4.09912 c -1.19561,0.716381 -2.37894,1.425301 -3.571,2.139344 -1.2031,0.426506 -2.40391,0.852036 -3.60246,1.276589 -0.2873,0.173442 -0.571964,0.344238 -0.853978,0.512389 -0.970872,0.382312 -1.93383,0.761349 -2.904121,1.143111 -1.04076,-0.004 -2.072824,-0.0083 -3.113398,-0.01283 -0.957695,0.764378 -1.91233,1.526261 -2.863905,2.285647 -0.273083,0.581249 -0.541572,1.153012 -0.814345,1.7342 -0.458197,0.660676 -0.903472,1.302836 -1.365796,1.969706 -0.24923,0.82238 -0.490212,1.61814 -0.735072,2.42731 -0.109379,0.83375 -0.218388,1.66643 -0.327208,2.49942 0.143222,0.7279 0.286594,1.45495 0.4304,2.182604 0.754123,0.42687 1.507913,0.85314 2.261991,1.27916 0.922973,-0.4437 1.845842,-0.88748 2.770386,-1.33221 0.529695,-0.35466 1.054287,-0.705994 1.588475,-1.063844 0.706469,-0.50289 2.102603,-1.49695 2.102603,-1.49695 0,0 1.526817,-1.14105 2.286804,-1.70912 0.737474,-0.68054 1.477594,-1.36373 2.220354,-2.04956 0.96013,-0.74589 1.92351,-1.49437 2.89014,-2.245429 0.90041,-0.645669 1.79191,-1.285016 2.69369,-1.931807 0.76039,-0.659526 1.5126,-1.311997 2.27282,-1.971443 0.83753,-0.575563 1.6783,-1.153435 2.52231,-1.733618 0.42599,-0.329278 0.84214,-0.651003 1.27427,-0.985141 1.06833,-0.970339 2.09918,-1.906666 3.15303,-2.863907 0.47404,-1.273233 0.9451,-2.538036 1.41942,-3.811148 0.20829,-0.468687 0.41853,-0.941438 0.63072,-1.418257 -0.004,-0.675682 -0.008,-1.338959 -0.0123,-2.01166 -0.207,-0.451797 -0.41281,-0.901836 -0.61847,-1.352387 -0.62652,-0.783383 -1.25124,-1.565102 -1.87876,-2.350937 z"
       sodipodi:nodetypes="cccccccccccccccccccccccccccccccccc" />
  </g>
</svg>
