<?xml version='1.0' encoding='UTF-8'?>
<svg version="1.1" xmlns="http://www.w3.org/2000/svg" width="1000" height="600" viewBox="0 0 1000 600">
  <path d="M 550.455,194.379 C 551.346,194.037 552.804,192.350 553.697,190.629 C 555.713,186.742 562.098,162.139 562.719,155.864 C 563.239,150.611 563.409,150.797 551.805,143.950 C 546.254,140.675 544.194,140.000 539.755,140.000 C 536.810,140.000 533.875,139.475 533.233,138.833 C 532.343,137.943 531.965,138.003 531.643,139.083 C 531.411,139.862 530.414,142.750 529.429,145.500 C 527.207,151.700 527.047,161.570 528.911,177.340 L 530.311,189.180 L 534.433,188.562 C 538.203,187.997 538.845,188.244 541.973,191.472 C 545.340,194.946 547.262,195.604 550.455,194.379 Z" fill="#fde724" stroke="black" stroke-width="0.5" fill-rule="evenodd"/>
</svg>
