<?xml version='1.0' encoding='UTF-8'?>
<svg version="1.1" xmlns="http://www.w3.org/2000/svg" width="1000" height="600" viewBox="0 0 1000 600">
  <path d="M 554.114,431.750 C 555.178,430.512 557.154,427.394 558.505,424.821 C 559.856,422.247 561.421,419.858 561.981,419.512 C 563.967,418.285 563.050,413.395 560.371,410.924 C 558.925,409.591 555.037,405.377 551.730,401.560 C 548.423,397.744 543.335,392.680 540.423,390.307 C 537.246,387.719 534.621,384.595 533.863,382.497 C 533.167,380.574 532.318,379.000 531.976,379.000 C 531.634,379.000 530.375,380.962 529.177,383.360 C 525.969,389.783 526.343,393.674 530.838,400.628 C 532.949,403.894 536.081,410.757 537.799,415.879 C 539.517,421.001 542.084,427.174 543.504,429.596 C 545.658,433.273 546.587,434.000 549.132,434.000 C 551.052,434.000 552.895,433.168 554.114,431.750 Z" fill="#fde724" stroke="black" stroke-width="0.5" fill-rule="evenodd"/>
</svg>
