<?xml version='1.0' encoding='UTF-8'?>
<svg version="1.1" xmlns="http://www.w3.org/2000/svg" width="1000" height="600" viewBox="0 0 1000 600">
  <path d="M 550.872,182.171 C 552.061,179.240 553.736,171.815 554.595,165.671 C 555.454,159.527 556.758,151.350 557.493,147.500 C 558.228,143.650 559.279,138.025 559.829,135.000 C 560.379,131.975 561.165,128.647 561.577,127.605 C 562.287,125.807 561.846,125.736 552.870,126.205 C 544.989,126.617 542.007,127.289 534.957,130.238 C 530.306,132.184 525.783,134.011 524.906,134.297 C 522.388,135.119 520.537,145.757 521.605,153.268 C 523.180,164.353 522.530,178.786 520.142,185.718 C 518.964,189.139 518.000,192.185 518.000,192.489 C 518.000,192.792 519.688,192.186 521.750,191.142 C 528.198,187.878 530.875,187.822 539.500,190.768 L 547.500,193.500 L 548.106,190.500 C 548.439,188.850 549.684,185.102 550.872,182.171 Z" fill="#fde724" stroke="black" stroke-width="0.5" fill-rule="evenodd"/>
</svg>
