<?xml version='1.0' encoding='UTF-8'?>
<svg version="1.1" xmlns="http://www.w3.org/2000/svg" width="1000" height="600" viewBox="0 0 1000 600">
  <path d="M 461.076,426.919 C 462.658,425.225 466.723,418.137 470.108,411.169 C 473.492,404.201 477.813,396.772 479.708,394.661 C 483.051,390.939 483.609,388.420 480.524,390.980 C 479.230,392.054 479.000,391.879 479.000,389.822 C 479.000,385.055 476.984,384.760 472.521,388.874 C 470.245,390.972 466.159,393.494 463.441,394.478 C 459.150,396.032 439.115,404.835 438.153,405.589 C 437.961,405.739 438.465,407.130 439.271,408.681 C 440.077,410.231 442.259,414.818 444.118,418.873 C 445.978,422.927 448.573,427.090 449.885,428.123 C 453.517,430.982 457.700,430.532 461.076,426.919 Z" fill="#fde724" stroke="black" stroke-width="0.5" fill-rule="evenodd"/>
</svg>
