<?xml version='1.0' encoding='UTF-8'?>
<svg version="1.1" xmlns="http://www.w3.org/2000/svg" width="1000" height="600" viewBox="0 0 1000 600">
  <path d="M 460.876,190.402 C 467.558,188.096 468.858,187.937 472.452,188.988 C 474.678,189.640 477.552,190.845 478.837,191.666 C 480.122,192.488 481.354,192.980 481.574,192.759 C 481.794,192.539 481.028,189.690 479.870,186.429 C 477.556,179.910 476.948,166.751 478.326,153.000 C 478.838,147.887 478.667,143.811 477.789,140.194 C 476.525,134.992 476.382,134.838 470.500,132.355 C 459.030,127.512 453.034,126.000 445.304,126.000 C 438.523,126.000 437.860,126.172 438.541,127.750 C 438.957,128.713 439.712,131.750 440.220,134.500 C 440.728,137.250 441.778,142.875 442.554,147.000 C 443.329,151.125 444.463,158.550 445.074,163.500 C 445.684,168.450 447.493,176.378 449.092,181.119 C 450.691,185.859 452.000,190.471 452.000,191.369 C 452.000,193.466 451.997,193.467 460.876,190.402 Z" fill="#fde724" stroke="black" stroke-width="0.5" fill-rule="evenodd"/>
</svg>
