<?xml version='1.0' encoding='UTF-8'?>
<svg version="1.1" xmlns="http://www.w3.org/2000/svg" width="1000" height="600" viewBox="0 0 1000 600">
  <path d="M 378.539,271.943 C 380.717,270.811 388.195,267.920 395.155,265.517 C 402.116,263.115 409.316,260.375 411.155,259.429 C 414.819,257.545 424.903,250.146 429.250,246.152 C 433.095,242.620 432.959,238.162 428.863,233.497 C 422.890,226.694 401.045,218.058 389.708,218.017 C 383.760,217.996 371.441,220.489 364.310,223.157 C 353.620,227.157 346.051,235.425 346.016,243.142 C 346.003,246.080 346.899,247.784 350.652,251.958 C 353.210,254.803 357.875,258.878 361.018,261.012 C 367.162,265.185 372.000,270.279 372.000,272.577 C 372.000,274.542 373.886,274.359 378.539,271.943 Z" fill="#90d643" stroke="black" stroke-width="0.5" fill-rule="evenodd"/>
</svg>
