<?xml version='1.0' encoding='UTF-8'?>
<svg version="1.1" xmlns="http://www.w3.org/2000/svg" width="1000" height="600" viewBox="0 0 1000 600">
  <path d="M 577.275,537.406 C 579.113,536.529 582.087,533.659 583.883,531.027 C 587.881,525.167 594.861,504.686 595.662,496.463 C 596.176,491.185 595.903,489.739 593.494,484.963 C 586.830,471.750 573.001,457.460 561.500,451.901 C 553.822,448.191 544.447,447.892 536.946,451.119 C 532.467,453.046 532.077,453.475 532.634,455.869 C 534.162,462.431 537.474,471.072 540.925,477.500 C 542.992,481.350 546.971,488.775 549.768,494.000 C 552.565,499.225 556.648,508.728 558.842,515.117 C 564.941,532.878 568.422,538.862 572.716,538.970 C 573.385,538.986 575.436,538.283 577.275,537.406 Z" fill="#90d643" stroke="black" stroke-width="0.5" fill-rule="evenodd"/>
</svg>
