<?xml version='1.0' encoding='UTF-8'?>
<svg version="1.1" xmlns="http://www.w3.org/2000/svg" width="1000" height="600" viewBox="0 0 1000 600">
  <path d="M 635.351,507.116 C 638.733,505.433 643.750,502.342 646.500,500.248 C 651.264,496.619 651.568,496.099 652.951,489.203 C 654.141,483.270 654.190,480.511 653.225,473.890 C 651.489,461.979 648.967,457.520 637.216,445.582 C 627.268,435.477 626.758,435.114 621.623,434.472 C 618.704,434.107 611.632,433.977 605.907,434.182 C 591.624,434.694 586.770,436.888 579.349,446.190 C 571.588,455.916 567.604,464.770 568.271,470.812 C 568.723,474.906 569.391,476.007 573.546,479.500 C 576.162,481.700 582.766,487.662 588.221,492.750 C 605.373,508.747 610.020,511.253 621.351,510.616 C 627.520,510.270 630.519,509.520 635.351,507.116 Z" fill="#90d643" stroke="black" stroke-width="0.5" fill-rule="evenodd"/>
</svg>
