<?xml version='1.0' encoding='UTF-8'?>
<svg version="1.1" xmlns="http://www.w3.org/2000/svg" width="1000" height="600" viewBox="0 0 1000 600">
  <path d="M 434.500,409.150 C 436.150,408.136 440.493,404.875 444.152,401.903 C 447.811,398.932 452.086,395.797 453.652,394.938 C 457.009,393.097 466.551,374.936 467.558,368.472 C 468.278,363.843 465.772,345.121 462.909,333.752 C 457.356,311.697 442.815,282.985 431.805,272.336 C 426.452,267.158 413.034,257.000 411.548,257.000 C 409.092,257.000 405.997,260.297 405.009,263.965 C 404.156,267.134 403.320,268.069 400.513,268.996 C 396.886,270.193 397.053,269.802 395.385,281.000 C 395.098,282.925 394.620,285.512 394.323,286.750 C 393.898,288.521 394.215,289.000 395.810,289.000 C 399.507,289.000 401.070,287.795 403.441,283.116 C 406.178,277.715 410.595,272.179 409.520,275.498 C 406.478,284.886 406.211,291.270 407.330,328.000 C 408.291,359.549 410.676,384.426 414.078,398.387 C 415.135,402.725 416.000,406.445 416.000,406.652 C 416.000,406.860 417.462,407.921 419.250,409.011 C 423.409,411.547 430.493,411.611 434.500,409.150 Z" fill="#443982" stroke="black" stroke-width="0.5" fill-rule="evenodd"/>
</svg>
