<?xml version='1.0' encoding='UTF-8'?>
<svg version="1.1" xmlns="http://www.w3.org/2000/svg" width="1000" height="600" viewBox="0 0 1000 600">
  <path d="M 579.452,409.585 C 583.558,407.869 584.299,406.551 586.395,397.239 C 589.246,384.571 591.034,365.393 592.245,334.500 C 593.684,297.764 593.553,286.951 591.591,280.547 C 588.970,271.991 591.393,273.468 597.017,283.852 C 599.143,287.779 600.055,288.550 602.894,288.823 C 606.130,289.134 606.227,289.042 605.530,286.323 C 605.132,284.770 604.430,280.882 603.970,277.682 C 603.023,271.103 602.172,269.728 597.967,267.986 C 595.924,267.140 595.000,266.058 595.000,264.514 C 595.000,261.598 591.361,257.000 589.054,257.000 C 586.568,257.000 570.110,269.908 564.677,276.120 C 559.261,282.310 549.292,299.498 544.427,311.031 C 539.378,323.001 535.516,337.498 533.567,351.793 C 531.688,365.569 532.147,371.645 535.468,377.000 C 536.662,378.925 539.032,383.506 540.734,387.180 C 542.999,392.067 544.685,394.303 547.016,395.508 C 548.768,396.414 553.419,399.869 557.351,403.185 C 561.283,406.501 565.400,409.587 566.500,410.044 C 569.646,411.349 575.748,411.132 579.452,409.585 Z" fill="#443982" stroke="black" stroke-width="0.5" fill-rule="evenodd"/>
</svg>
