<?xml version='1.0' encoding='UTF-8'?>
<svg version="1.1" xmlns="http://www.w3.org/2000/svg" width="1000" height="600" viewBox="0 0 1000 600">
  <path d="M 316.187,421.079 C 324.280,415.743 328.681,414.228 345.500,410.988 C 351.550,409.823 358.750,408.437 361.500,407.908 C 364.250,407.379 367.038,406.610 367.695,406.198 C 368.352,405.787 370.487,400.574 372.439,394.615 C 374.391,388.656 377.546,381.216 379.450,378.083 C 381.353,374.949 384.216,369.486 385.811,365.943 C 387.406,362.399 390.436,357.250 392.544,354.500 C 394.652,351.750 397.786,346.125 399.508,342.000 C 408.731,319.908 412.026,314.102 419.526,306.725 C 426.778,299.591 433.497,294.772 443.425,289.582 C 448.333,287.016 454.051,283.380 456.130,281.502 C 463.624,274.731 470.500,272.517 488.727,271.007 C 505.624,269.607 522.414,269.807 530.500,271.504 C 535.125,272.475 542.154,275.353 551.217,279.987 C 561.500,285.244 565.943,287.000 568.967,287.000 C 571.185,287.000 573.000,286.605 573.000,286.122 C 573.000,285.640 570.413,282.077 567.250,278.204 C 564.087,274.332 560.728,270.050 559.785,268.690 C 557.887,265.953 554.205,264.915 539.500,262.975 C 533.553,262.190 526.768,260.344 519.500,257.533 C 506.178,252.381 492.229,250.494 473.000,251.242 C 462.484,251.651 459.548,252.136 454.500,254.299 C 450.354,256.074 445.101,257.218 437.500,258.000 C 431.450,258.622 422.675,259.755 418.000,260.519 C 413.325,261.283 403.875,262.620 397.000,263.491 C 381.880,265.405 380.344,265.872 369.245,271.936 C 364.435,274.564 357.125,278.011 353.000,279.597 C 346.076,282.259 344.578,283.408 333.500,294.563 C 326.900,301.208 317.715,309.988 313.090,314.073 C 305.901,320.422 290.655,336.843 286.107,343.136 C 283.319,346.993 279.987,363.220 279.357,376.000 C 278.048,402.572 283.456,415.960 298.513,423.423 C 305.623,426.947 307.705,426.671 316.187,421.079 Z" fill="#443982" stroke="black" stroke-width="0.5" fill-rule="evenodd"/>
</svg>
