<?xml version='1.0' encoding='UTF-8'?>
<svg version="1.1" xmlns="http://www.w3.org/2000/svg" width="1000" height="600" viewBox="0 0 1000 600">
  <path d="M 301.000,412.829 C 305.627,411.004 309.515,410.542 325.500,409.917 C 342.084,409.269 345.499,408.842 352.356,406.566 C 362.869,403.075 363.418,402.748 371.592,395.119 C 375.493,391.479 379.826,387.732 381.222,386.794 C 385.872,383.668 390.156,374.431 392.191,363.140 C 394.229,351.838 399.769,333.941 403.281,327.314 C 408.776,316.945 423.430,301.069 435.656,292.238 C 450.655,281.404 454.793,279.166 468.000,274.742 L 480.500,270.555 L 496.000,270.643 C 508.827,270.716 512.880,271.118 519.500,272.974 C 528.533,275.505 535.549,277.149 544.949,278.935 C 550.228,279.938 555.899,282.129 565.333,286.809 C 565.791,287.036 565.491,285.917 564.667,284.323 C 563.013,281.124 550.191,270.184 544.877,267.437 C 543.020,266.477 539.925,264.478 538.000,262.996 C 535.845,261.336 533.076,260.232 530.796,260.122 C 526.001,259.891 519.849,257.693 514.092,254.155 C 510.690,252.063 507.427,251.094 501.500,250.416 C 482.970,248.294 437.845,250.928 425.000,254.881 C 421.425,255.981 413.999,258.013 408.497,259.396 C 397.261,262.220 390.307,264.966 371.500,274.008 C 364.350,277.446 355.277,281.732 351.338,283.532 C 342.499,287.573 334.833,292.805 324.753,301.680 C 313.911,311.224 297.093,329.587 291.535,337.948 C 285.114,347.606 279.414,361.198 276.408,374.018 C 275.020,379.934 273.307,385.566 272.599,386.533 C 271.513,388.019 271.793,389.415 274.407,395.535 C 278.774,405.762 287.545,415.001 292.885,414.999 C 294.323,414.999 297.975,414.023 301.000,412.829 Z" fill="#443982" stroke="black" stroke-width="0.5" fill-rule="evenodd"/>
</svg>
