<?xml version='1.0' encoding='UTF-8'?>
<svg version="1.1" xmlns="http://www.w3.org/2000/svg" width="1000" height="600" viewBox="0 0 1000 600">
  <path d="M 712.237,412.832 C 717.894,408.803 722.092,403.533 725.568,396.094 C 728.596,389.613 728.850,388.490 727.605,387.094 C 726.822,386.217 724.835,380.021 723.190,373.325 C 719.959,360.175 713.912,346.178 707.177,336.261 C 701.400,327.754 683.256,308.509 671.500,298.419 C 662.766,290.923 659.284,288.753 644.000,281.285 C 614.129,266.689 603.215,262.086 591.145,258.988 C 584.740,257.345 576.250,255.125 572.277,254.055 C 561.145,251.057 517.533,248.233 506.658,249.805 C 502.114,250.462 497.070,250.991 495.448,250.980 C 493.827,250.968 488.450,253.007 483.500,255.510 C 477.073,258.760 473.213,260.091 470.000,260.165 C 466.454,260.246 464.440,261.061 460.500,264.009 C 457.750,266.066 454.417,268.309 453.093,268.994 C 448.583,271.326 435.963,282.170 434.526,284.949 L 433.094,287.720 L 439.559,284.287 C 447.115,280.274 450.028,279.342 459.500,277.907 C 463.350,277.323 469.936,275.779 474.135,274.475 C 484.543,271.244 497.549,269.659 508.970,270.230 C 521.520,270.857 543.568,277.949 552.780,284.321 C 574.791,299.546 578.118,302.517 589.935,317.500 C 599.363,329.454 604.362,342.464 608.440,365.661 C 610.294,376.206 614.533,383.837 621.383,388.961 C 624.197,391.067 628.525,394.896 631.000,397.471 C 636.473,403.167 637.064,403.501 647.324,406.697 C 654.310,408.873 658.264,409.350 674.500,409.976 C 690.609,410.598 694.185,411.025 698.000,412.784 C 703.912,415.510 708.454,415.525 712.237,412.832 Z" fill="#443982" stroke="black" stroke-width="0.5" fill-rule="evenodd"/>
</svg>
