<?xml version='1.0' encoding='UTF-8'?>
<svg version="1.1" xmlns="http://www.w3.org/2000/svg" width="1000" height="600" viewBox="0 0 1000 600">
  <path d="M 455.846,537.378 C 458.956,536.487 463.993,534.531 467.040,533.033 C 478.894,527.206 509.662,505.820 540.500,481.972 C 548.750,475.592 561.884,465.573 569.687,459.707 C 590.231,444.263 600.517,435.462 609.790,425.396 C 620.631,413.628 626.382,405.898 630.171,398.000 C 631.887,394.425 635.285,388.019 637.724,383.765 C 641.988,376.325 642.126,375.830 641.321,370.775 C 640.496,365.595 640.389,365.465 633.815,361.680 L 627.145,357.839 L 621.822,362.041 C 616.167,366.507 615.056,367.932 607.438,380.500 C 601.046,391.044 580.769,411.439 569.000,419.160 C 556.674,427.246 536.057,437.292 515.899,445.034 C 506.219,448.752 496.994,452.453 495.399,453.258 C 493.805,454.063 489.905,455.015 486.732,455.372 C 479.489,456.188 472.163,458.944 465.525,463.352 C 460.759,466.517 460.006,467.596 455.561,477.638 C 439.371,514.208 438.276,517.832 439.917,529.419 C 440.440,533.114 441.403,536.781 442.057,537.568 C 443.621,539.454 448.862,539.382 455.846,537.378 Z" fill="#35b778" stroke="black" stroke-width="0.5" fill-rule="evenodd"/>
</svg>
