<?xml version='1.0' encoding='UTF-8'?>
<svg version="1.1" xmlns="http://www.w3.org/2000/svg" width="1000" height="600" viewBox="0 0 1000 600">
  <path d="M 400.071,504.432 C 406.348,500.861 412.686,496.301 415.998,492.975 C 419.024,489.936 424.141,485.223 427.368,482.502 L 433.237,477.555 L 432.744,471.027 C 432.082,462.260 427.827,451.933 423.204,447.874 C 419.222,444.378 411.435,440.642 404.482,438.891 C 400.531,437.896 400.026,437.474 400.569,435.624 C 401.732,431.664 405.668,423.475 407.125,421.984 C 407.922,421.168 409.550,418.925 410.742,417.000 C 411.934,415.075 414.295,412.209 415.990,410.632 C 420.480,406.452 421.988,402.874 423.000,394.000 C 424.130,384.092 425.360,381.734 433.166,374.507 C 439.604,368.546 440.190,367.019 438.403,360.842 C 437.708,358.438 436.220,358.087 420.088,356.528 C 412.064,355.752 403.408,354.336 400.850,353.380 L 396.200,351.643 L 388.441,355.026 C 384.173,356.887 378.390,360.244 375.591,362.486 C 372.791,364.728 369.167,367.409 367.538,368.443 C 365.909,369.478 361.591,373.064 357.942,376.412 C 354.294,379.760 347.748,385.693 343.396,389.595 C 334.853,397.256 323.273,413.289 319.672,422.443 C 315.744,432.428 317.513,452.547 323.304,463.747 C 324.512,466.082 330.050,473.734 335.611,480.750 C 345.621,493.381 345.828,493.567 356.511,499.504 C 381.592,513.442 383.799,513.692 400.071,504.432 Z" fill="#35b778" stroke="black" stroke-width="0.5" fill-rule="evenodd"/>
</svg>
