<?xml version='1.0' encoding='UTF-8'?>
<svg version="1.1" xmlns="http://www.w3.org/2000/svg" width="1000" height="600" viewBox="0 0 1000 600">
  <path d="M 595.497,416.868 C 602.095,414.624 609.126,411.956 611.121,410.938 C 616.282,408.305 619.741,403.744 621.551,397.183 C 622.414,394.058 624.041,388.931 625.167,385.790 L 627.214,380.081 L 620.518,372.629 C 614.831,366.301 612.893,364.842 607.661,362.955 C 604.272,361.732 598.473,358.947 594.772,356.765 C 584.389,350.642 576.663,349.736 567.494,353.567 C 562.087,355.826 556.636,355.406 553.134,352.459 L 550.114,349.918 L 546.707,355.244 C 542.299,362.135 538.167,365.559 529.284,369.681 C 518.666,374.608 510.516,383.479 508.507,392.296 C 507.184,398.102 507.086,397.904 515.540,406.470 C 520.263,411.256 527.166,413.670 547.000,417.473 C 553.875,418.791 561.750,420.323 564.500,420.877 C 572.868,422.563 582.356,421.336 595.497,416.868 Z" fill="#20908c" stroke="black" stroke-width="0.5" fill-rule="evenodd"/>
</svg>
