<?xml version='1.0' encoding='UTF-8'?>
<svg version="1.1" xmlns="http://www.w3.org/2000/svg" width="1000" height="600" viewBox="0 0 1000 600">
  <path d="M 422.770,408.989 C 433.749,407.832 444.521,405.282 446.010,403.488 C 446.789,402.550 446.166,399.959 443.694,393.852 C 441.834,389.259 439.522,383.339 438.554,380.699 C 437.587,378.058 433.225,371.420 428.860,365.947 C 420.450,355.400 417.908,353.576 405.219,348.983 C 401.765,347.733 398.701,346.325 398.410,345.855 C 397.434,344.274 396.222,344.981 395.589,347.500 C 394.878,350.334 391.956,350.857 390.000,348.500 C 386.628,344.437 383.995,347.792 377.695,364.181 C 373.193,375.893 372.572,378.405 372.554,385.000 C 372.526,394.844 374.344,398.355 382.037,403.309 C 391.452,409.372 403.366,411.033 422.770,408.989 Z" fill="#20908c" stroke="black" stroke-width="0.5" fill-rule="evenodd"/>
</svg>
