<?xml version='1.0' encoding='UTF-8'?>
<svg version="1.1" xmlns="http://www.w3.org/2000/svg" width="1000" height="600" viewBox="0 0 1000 600">
  <path d="M 383.703,295.793 C 385.241,295.129 388.815,293.140 391.644,291.373 C 396.470,288.359 397.194,287.334 403.321,274.830 C 410.672,259.829 416.514,252.515 427.868,244.098 C 433.887,239.635 445.218,227.202 446.639,223.499 C 446.912,222.786 446.043,220.019 444.707,217.351 C 443.371,214.683 441.261,209.350 440.018,205.500 C 436.658,195.089 435.030,192.067 431.915,190.456 C 425.228,186.998 416.928,189.548 407.853,197.848 C 401.241,203.895 389.663,217.328 384.679,224.735 C 379.371,232.622 374.167,247.060 372.869,257.500 C 371.773,266.320 372.221,293.930 373.493,295.989 C 374.350,297.376 380.301,297.261 383.703,295.793 Z" fill="#20908c" stroke="black" stroke-width="0.5" fill-rule="evenodd"/>
</svg>
