<?xml version='1.0' encoding='UTF-8'?>
<svg version="1.1" xmlns="http://www.w3.org/2000/svg" width="1000" height="600" viewBox="0 0 1000 600">
  <path d="M 441.981,419.469 C 458.188,416.626 469.544,413.891 477.501,410.914 C 482.439,409.066 484.204,407.573 490.250,400.131 C 496.091,392.942 485.686,376.887 470.111,369.056 C 460.547,364.247 457.135,361.444 452.998,354.997 L 449.791,349.998 L 446.819,352.499 C 443.260,355.494 438.835,355.732 432.770,353.257 C 430.124,352.177 426.028,351.540 422.000,351.582 C 416.156,351.644 414.441,352.198 405.000,357.076 C 399.225,360.059 392.445,363.298 389.933,364.273 C 386.697,365.530 383.521,368.107 379.040,373.112 L 372.714,380.177 L 374.316,383.537 C 375.198,385.385 376.646,389.706 377.536,393.139 C 379.478,400.634 381.981,405.738 385.153,408.670 C 388.464,411.732 408.074,418.972 419.500,421.351 C 423.850,422.257 428.122,421.900 441.981,419.469 Z" fill="#20908c" stroke="black" stroke-width="0.5" fill-rule="evenodd"/>
</svg>
