<?xml version='1.0' encoding='UTF-8'?>
<svg version="1.1" xmlns="http://www.w3.org/2000/svg" width="1000" height="600" viewBox="0 0 1000 600">
  <path d="M 603.618,408.620 C 615.079,406.567 625.193,399.698 627.092,392.677 C 628.896,386.012 627.469,377.982 622.026,364.161 C 616.962,351.304 614.674,347.000 612.903,347.000 C 612.362,347.000 610.564,348.002 608.908,349.226 C 606.339,351.126 605.761,351.236 604.964,349.976 C 604.451,349.164 604.024,347.754 604.015,346.843 C 604.002,345.437 602.813,345.686 596.195,348.477 C 578.794,355.816 578.781,355.826 564.790,373.773 C 563.300,375.684 561.089,380.227 559.878,383.866 C 558.667,387.506 556.620,392.872 555.329,395.791 C 551.708,403.978 553.343,405.493 568.500,407.993 C 581.462,410.130 593.943,410.353 603.618,408.620 Z" fill="#20908c" stroke="black" stroke-width="0.5" fill-rule="evenodd"/>
</svg>
