<?xml version='1.0' encoding='UTF-8'?>
<svg version="1.1" xmlns="http://www.w3.org/2000/svg" width="1000" height="600" viewBox="0 0 1000 600">
  <path d="M 443.500,422.565 C 451.886,421.612 457.415,420.393 461.857,418.518 C 465.353,417.042 471.203,415.377 474.857,414.819 C 482.606,413.634 486.212,411.663 491.879,405.516 C 496.246,400.778 497.093,397.004 495.014,391.538 C 493.348,387.154 485.228,379.362 477.682,374.905 C 464.518,367.129 456.752,361.541 453.147,357.250 C 451.184,354.913 448.816,352.759 447.886,352.464 C 446.957,352.169 444.514,353.069 442.458,354.464 C 440.151,356.029 437.339,356.996 435.110,356.990 C 431.341,356.980 421.779,353.070 420.513,351.021 C 419.995,350.184 419.006,350.545 417.140,352.254 C 415.688,353.583 412.331,355.469 409.681,356.445 C 407.031,357.420 401.856,360.675 398.181,363.677 C 394.506,366.679 388.277,371.605 384.338,374.623 C 375.885,381.099 374.000,384.465 374.000,393.085 C 374.000,400.340 376.537,406.591 381.008,410.354 C 385.131,413.822 404.919,421.916 411.705,422.908 C 420.424,424.184 430.179,424.079 443.500,422.565 Z" fill="#20908c" stroke="black" stroke-width="0.5" fill-rule="evenodd"/>
</svg>
