<?xml version='1.0' encoding='UTF-8'?>
<svg version="1.1" xmlns="http://www.w3.org/2000/svg" width="1000" height="600" viewBox="0 0 1000 600">
  <path d="M 424.855,432.420 C 436.506,428.866 439.000,426.303 439.000,417.879 C 439.000,412.070 438.654,411.087 434.341,404.660 C 431.779,400.840 427.798,392.942 425.494,387.108 C 423.191,381.274 420.357,374.643 419.196,372.374 C 418.035,370.105 414.797,362.511 412.000,355.500 C 409.203,348.489 406.065,341.088 405.028,339.055 C 401.749,332.627 394.272,324.347 387.913,320.101 C 378.593,313.877 372.019,314.421 365.255,321.977 C 361.799,325.838 355.613,337.501 351.717,347.500 C 349.789,352.450 346.070,361.900 343.454,368.500 L 338.698,380.500 L 339.886,387.481 C 340.539,391.321 341.661,395.371 342.380,396.481 C 343.099,397.592 343.977,401.996 344.332,406.268 C 345.029,414.660 347.505,420.839 351.209,423.434 C 354.968,426.067 362.123,425.414 369.526,421.763 L 376.089,418.527 L 391.794,426.684 C 409.971,436.124 411.717,436.427 424.855,432.420 Z" fill="#30678d" stroke="black" stroke-width="0.5" fill-rule="evenodd"/>
</svg>
