<?xml version='1.0' encoding='UTF-8'?>
<svg version="1.1" xmlns="http://www.w3.org/2000/svg" width="1000" height="600" viewBox="0 0 1000 600">
  <path d="M 356.762,314.454 C 361.788,310.934 365.831,301.001 369.422,283.355 C 370.891,276.135 372.449,271.244 373.845,269.470 C 375.030,267.963 376.000,265.932 376.000,264.956 C 376.000,263.980 378.210,258.753 380.912,253.341 C 383.613,247.928 386.591,240.800 387.528,237.500 C 388.465,234.200 391.292,225.927 393.809,219.117 C 399.278,204.319 400.485,203.172 416.736,197.331 C 430.081,192.535 435.607,188.039 434.477,182.896 C 433.378,177.892 428.061,165.860 425.366,162.279 C 424.033,160.507 421.661,156.203 420.096,152.713 C 416.857,145.495 412.003,140.795 403.471,136.617 C 397.976,133.927 397.822,133.910 392.568,135.437 C 380.863,138.840 368.062,152.297 357.606,172.189 C 354.914,177.310 348.309,188.250 342.928,196.500 C 327.829,219.649 325.967,228.000 329.881,255.000 C 331.038,262.975 332.666,275.006 333.500,281.735 C 334.334,288.464 335.929,296.408 337.044,299.388 C 339.159,305.042 344.779,313.189 347.764,314.928 C 350.323,316.419 354.252,316.212 356.762,314.454 Z" fill="#30678d" stroke="black" stroke-width="0.5" fill-rule="evenodd"/>
</svg>
