<?xml version='1.0' encoding='UTF-8'?>
<svg version="1.1" xmlns="http://www.w3.org/2000/svg" width="1000" height="600" viewBox="0 0 1000 600">
  <path d="M 653.821,313.497 C 658.297,309.731 662.752,302.150 664.417,295.467 C 665.234,292.185 666.614,283.217 667.482,275.537 C 668.350,267.857 669.720,257.507 670.526,252.537 C 673.218,235.943 672.096,224.486 666.600,212.451 C 665.332,209.674 660.674,202.024 656.249,195.451 C 651.824,188.878 645.425,178.360 642.028,172.077 C 630.157,150.120 618.927,138.212 607.084,135.023 C 603.214,133.981 602.312,134.134 596.627,136.794 C 588.211,140.732 583.452,145.153 579.814,152.413 C 578.137,155.761 575.257,160.975 573.415,164.000 C 568.800,171.576 564.836,182.498 565.598,185.533 C 566.607,189.554 572.266,193.572 581.650,196.932 C 586.518,198.675 592.750,201.315 595.500,202.800 C 601.559,206.072 603.833,210.245 610.033,229.474 C 612.343,236.638 616.430,247.104 619.116,252.731 C 621.802,258.358 624.000,263.494 624.000,264.143 C 624.000,264.793 625.090,267.185 626.423,269.459 C 627.755,271.732 629.562,277.397 630.437,282.046 C 632.631,293.696 634.670,300.403 638.063,307.126 C 642.672,316.255 647.989,318.405 653.821,313.497 Z" fill="#30678d" stroke="black" stroke-width="0.5" fill-rule="evenodd"/>
</svg>
