<?xml version='1.0' encoding='UTF-8'?>
<svg version="1.1" xmlns="http://www.w3.org/2000/svg" width="1000" height="600" viewBox="0 0 1000 600">
  <path d="M 377.009,451.750 C 380.087,450.188 382.839,447.513 386.014,443.000 C 390.148,437.123 391.446,436.075 399.543,432.074 C 414.130,424.866 422.286,425.393 449.500,435.304 C 464.455,440.750 468.574,441.288 474.041,438.510 C 480.763,435.094 494.994,423.776 498.360,419.168 C 503.023,412.784 512.785,396.587 515.637,390.500 C 519.318,382.645 518.476,365.625 513.876,354.933 C 510.657,347.452 501.510,340.737 487.195,335.349 C 478.720,332.159 476.212,330.836 465.370,323.841 C 454.877,317.070 447.796,315.188 431.180,314.753 C 420.381,314.471 388.578,318.122 381.951,320.405 C 373.177,323.428 356.852,334.411 344.650,345.500 C 337.993,351.550 331.477,357.625 330.171,359.000 C 327.034,362.303 315.585,391.429 313.580,401.208 C 311.643,410.656 311.589,415.093 313.360,419.282 C 316.867,427.576 329.669,438.923 343.998,446.438 C 358.834,454.218 368.942,455.845 377.009,451.750 Z" fill="#30678d" stroke="black" stroke-width="0.5" fill-rule="evenodd"/>
</svg>
