<?xml version='1.0' encoding='UTF-8'?>
<svg version="1.1" xmlns="http://www.w3.org/2000/svg" width="1000" height="600" viewBox="0 0 1000 600">
  <path d="M 540.500,400.940 C 554.914,398.798 566.675,398.662 575.882,400.531 C 584.310,402.242 584.972,402.248 587.413,400.649 C 591.117,398.222 594.733,392.330 597.719,383.854 C 602.741,369.604 601.755,347.344 595.561,335.121 C 589.570,323.297 575.817,309.469 564.214,303.603 C 557.392,300.153 527.254,289.953 515.000,286.947 C 501.303,283.586 480.191,283.528 467.706,286.817 C 456.725,289.710 455.032,290.455 447.000,295.933 C 435.285,303.924 416.293,324.839 413.081,333.286 C 411.053,338.620 409.700,357.513 410.871,364.157 C 412.345,372.526 418.173,384.522 422.989,389.104 C 429.207,395.019 442.322,399.106 460.811,400.891 C 472.507,402.020 532.982,402.057 540.500,400.940 Z" fill="#440154" stroke="black" stroke-width="0.5" fill-rule="evenodd"/>
</svg>
