<?xml version='1.0' encoding='UTF-8'?>
<svg version="1.1" xmlns="http://www.w3.org/2000/svg" width="1000" height="600" viewBox="0 0 1000 600">
  <path d="M 602.914,391.925 C 605.671,391.334 609.377,389.871 611.148,388.675 C 614.671,386.297 620.966,377.890 624.126,371.344 L 626.132,367.187 L 623.423,359.344 C 621.933,355.030 619.404,349.810 617.805,347.744 C 616.205,345.678 611.987,336.678 608.432,327.744 C 599.920,306.353 599.622,305.812 591.628,297.316 C 583.677,288.864 582.515,288.407 566.500,287.426 C 553.360,286.620 547.098,287.917 535.171,293.914 C 525.017,299.019 521.898,302.238 516.847,312.820 C 507.930,331.504 505.133,344.366 507.009,358.068 C 509.306,374.843 514.856,386.496 522.383,390.347 C 526.172,392.286 526.439,392.292 533.383,390.582 C 539.768,389.010 542.248,388.945 557.500,389.957 C 566.850,390.578 577.200,391.450 580.500,391.896 C 589.516,393.113 597.326,393.124 602.914,391.925 Z" fill="#440154" stroke="black" stroke-width="0.5" fill-rule="evenodd"/>
</svg>
