<?xml version='1.0' encoding='UTF-8'?>
<svg version="1.1" xmlns="http://www.w3.org/2000/svg" width="1000" height="600" viewBox="0 0 1000 600">
  <path d="M 606.000,391.821 C 611.377,390.812 626.000,384.737 626.000,383.512 C 626.000,383.173 623.103,378.385 619.563,372.873 C 612.151,361.332 610.917,357.130 607.996,333.500 C 605.094,310.023 602.936,302.984 594.489,289.429 C 591.999,285.435 587.409,276.842 584.289,270.334 C 571.513,243.684 564.336,235.966 542.519,225.417 L 531.539,220.108 L 525.019,225.889 C 517.184,232.836 513.286,240.003 509.460,254.500 C 507.143,263.281 506.818,266.451 506.796,280.500 C 506.773,294.432 507.095,297.737 509.283,306.074 C 512.768,319.355 516.969,328.964 524.129,340.034 C 530.435,349.784 536.464,360.871 541.337,371.680 C 544.506,378.706 550.305,384.600 557.771,388.384 C 567.714,393.423 589.277,394.959 606.000,391.821 Z" fill="#440154" stroke="black" stroke-width="0.5" fill-rule="evenodd"/>
</svg>
