<?xml version='1.0' encoding='UTF-8'?>
<svg version="1.1" xmlns="http://www.w3.org/2000/svg" width="1000" height="600" viewBox="0 0 1000 600">
  <path d="M 432.139,391.486 C 446.912,388.521 453.874,382.451 461.909,365.529 C 465.052,358.908 470.646,348.677 474.339,342.793 C 483.227,328.635 486.426,322.010 489.501,311.399 C 496.353,287.755 494.441,259.251 484.606,238.426 C 482.075,233.067 479.771,230.036 475.102,225.926 C 471.711,222.942 468.614,220.527 468.219,220.559 C 467.823,220.592 463.082,222.729 457.682,225.308 C 435.839,235.741 428.075,243.977 415.995,269.531 C 412.867,276.148 408.441,284.518 406.160,288.130 C 401.222,295.948 396.706,305.783 395.199,312.000 C 394.599,314.475 393.176,323.925 392.036,333.000 C 388.918,357.827 387.702,361.669 378.425,376.009 C 375.932,379.863 374.172,383.469 374.514,384.023 C 375.383,385.428 381.524,388.407 387.761,390.447 C 398.379,393.921 417.749,394.374 432.139,391.486 Z" fill="#440154" stroke="black" stroke-width="0.5" fill-rule="evenodd"/>
</svg>
