<?xml version='1.0' encoding='UTF-8'?>
<svg version="1.1" xmlns="http://www.w3.org/2000/svg" width="1000" height="600" viewBox="0 0 1000 600">
  <path d="M 425.135,391.100 C 432.445,389.491 462.803,389.378 468.162,390.939 C 472.533,392.212 473.127,392.147 477.662,389.898 C 491.652,382.963 497.729,353.147 489.929,329.714 C 486.607,319.734 478.615,303.759 475.277,300.426 C 471.129,296.284 459.955,290.549 452.000,288.478 C 446.829,287.132 443.242,286.923 434.452,287.453 C 418.201,288.434 416.607,288.965 409.797,295.678 C 402.625,302.747 398.707,308.472 395.963,315.895 C 390.448,330.807 384.409,344.469 381.981,347.523 C 380.502,349.384 378.068,354.355 376.572,358.569 C 373.404,367.492 373.501,367.945 381.034,379.407 C 386.826,388.222 388.772,389.961 394.749,391.658 C 399.935,393.131 417.358,392.811 425.135,391.100 Z" fill="#440154" stroke="black" stroke-width="0.5" fill-rule="evenodd"/>
</svg>
