<?xml version='1.0' encoding='UTF-8'?>
<svg version="1.1" xmlns="http://www.w3.org/2000/svg" width="1000" height="600" viewBox="0 0 1000 600">
  <path d="M 636.487,425.379 C 639.780,424.577 643.605,422.876 644.987,421.600 C 646.369,420.324 650.425,417.354 654.000,415.000 C 657.575,412.646 661.773,409.545 663.328,408.110 C 667.170,404.565 682.484,381.346 683.847,377.000 C 684.451,375.075 685.920,370.575 687.113,367.000 C 690.126,357.964 690.875,336.665 688.555,326.000 C 687.657,321.875 686.196,314.680 685.308,310.012 C 683.813,302.151 683.355,301.185 679.097,296.927 C 674.824,292.653 671.432,287.812 666.500,278.945 C 664.641,275.603 664.276,275.408 661.319,276.185 C 659.569,276.645 655.744,279.179 652.819,281.817 C 649.893,284.454 644.718,288.728 641.317,291.313 C 633.748,297.067 631.970,299.277 627.590,308.369 C 625.700,312.291 622.029,317.713 619.433,320.418 C 613.581,326.514 610.000,331.710 610.000,334.105 C 610.000,336.687 607.533,343.793 602.288,356.313 C 598.928,364.336 596.628,368.274 593.379,371.569 C 589.597,375.406 588.999,376.590 588.993,380.256 C 588.983,386.912 583.074,394.000 577.535,394.000 C 568.647,394.000 561.620,398.554 563.909,402.831 C 565.981,406.701 574.245,412.909 582.798,417.019 C 587.584,419.319 593.140,422.024 595.144,423.029 C 604.258,427.602 622.999,428.667 636.487,425.379 Z" fill="#ffbb78" stroke="black" stroke-width="0.5" fill-rule="evenodd"/>
</svg>
