<?xml version='1.0' encoding='UTF-8'?>
<svg version="1.1" xmlns="http://www.w3.org/2000/svg" width="1000" height="600" viewBox="0 0 1000 600">
  <path d="M 384.279,413.558 C 391.000,412.215 402.575,410.397 410.000,409.518 C 422.400,408.049 424.239,407.554 432.573,403.433 C 443.521,398.020 449.760,392.289 448.095,389.177 C 447.493,388.052 447.000,386.003 447.000,384.625 C 447.000,383.246 446.571,381.853 446.046,381.528 C 445.521,381.204 441.134,380.470 436.296,379.897 C 418.039,377.733 408.489,373.847 405.111,367.207 C 404.074,365.168 402.276,360.350 401.115,356.500 C 398.568,348.055 396.663,343.565 388.173,326.000 C 380.352,309.818 377.710,305.737 368.903,296.240 C 363.062,289.941 351.851,274.380 350.366,270.511 C 350.091,269.794 347.976,268.204 345.667,266.979 L 341.468,264.752 L 336.484,268.059 C 327.913,273.745 321.775,279.294 320.391,282.607 C 319.139,285.603 316.611,308.690 316.570,317.500 C 316.520,328.393 320.194,358.017 322.586,366.000 C 326.872,380.306 327.974,382.743 331.311,385.288 C 333.074,386.633 336.265,390.924 338.403,394.823 C 342.582,402.447 348.077,407.138 359.787,413.077 C 366.755,416.611 368.798,416.651 384.279,413.558 Z" fill="#ffbb78" stroke="black" stroke-width="0.5" fill-rule="evenodd"/>
</svg>
