<?xml version='1.0' encoding='UTF-8'?>
<svg version="1.1" xmlns="http://www.w3.org/2000/svg" width="1000" height="600" viewBox="0 0 1000 600">
  <path d="M 439.738,359.380 C 441.257,358.265 446.160,351.310 450.634,343.926 C 455.345,336.149 461.737,327.259 465.825,322.798 C 471.974,316.088 473.201,314.089 475.350,307.286 C 476.996,302.074 478.202,294.826 478.976,285.489 C 479.614,277.795 480.780,269.181 481.568,266.346 C 483.715,258.621 483.406,243.512 480.904,233.859 C 479.488,228.400 479.012,224.403 479.439,221.559 C 480.375,215.318 479.528,214.000 474.584,214.000 C 472.273,214.000 469.679,214.563 468.819,215.250 C 466.931,216.760 465.000,222.252 465.000,226.112 C 465.000,227.660 464.082,231.256 462.959,234.103 C 461.837,236.950 460.428,241.579 459.829,244.390 C 458.421,250.995 454.834,259.016 452.274,261.287 C 450.391,262.958 450.353,263.346 451.687,267.218 C 452.556,269.740 452.866,272.833 452.479,275.121 C 451.769,279.327 446.137,291.164 443.022,295.000 C 441.905,296.375 439.833,301.775 438.417,307.000 C 435.689,317.070 433.514,321.524 424.879,334.719 C 416.481,347.552 411.974,355.769 412.534,357.228 C 412.816,357.964 414.274,359.354 415.774,360.319 C 419.787,362.900 435.799,362.272 439.738,359.380 Z" fill="#17becf" stroke="black" stroke-width="0.5" fill-rule="evenodd"/>
</svg>
