<?xml version='1.0' encoding='UTF-8'?>
<svg version="1.1" xmlns="http://www.w3.org/2000/svg" width="1000" height="600" viewBox="0 0 1000 600">
  <path d="M 622.500,382.000 C 622.160,381.450 621.422,381.000 620.860,381.000 C 620.299,381.000 617.513,379.496 614.669,377.658 C 611.826,375.820 607.426,373.139 604.892,371.699 C 598.497,368.067 597.031,365.301 595.322,353.639 C 594.188,345.904 593.160,342.433 590.989,339.000 C 589.424,336.525 587.203,332.102 586.055,329.171 C 584.906,326.239 582.610,322.153 580.951,320.089 C 576.431,314.464 574.197,307.427 572.461,293.343 C 571.600,286.353 570.581,280.077 570.197,279.396 C 569.814,278.714 567.428,276.575 564.895,274.643 C 555.772,267.683 554.793,260.257 561.000,245.119 C 563.200,239.754 565.000,235.111 565.000,234.802 C 565.000,234.494 563.059,232.650 560.686,230.706 L 556.371,227.170 L 556.805,230.128 C 557.508,234.915 554.312,241.403 547.519,248.979 C 539.819,257.566 538.776,260.339 532.015,290.201 C 527.378,310.685 525.352,317.046 523.007,318.496 C 521.434,319.468 521.815,321.932 524.018,325.026 C 526.846,328.996 533.864,351.481 534.933,359.992 C 535.781,366.750 536.528,368.523 540.755,373.813 C 542.744,376.301 548.262,376.894 599.000,380.062 C 613.600,380.974 617.963,381.496 622.809,382.910 C 622.979,382.959 622.840,382.550 622.500,382.000 Z" fill="#17becf" stroke="black" stroke-width="0.5" fill-rule="evenodd"/>
</svg>
