<?xml version='1.0' encoding='UTF-8'?>
<svg version="1.1" xmlns="http://www.w3.org/2000/svg" width="1000" height="600" viewBox="0 0 1000 600">
  <path d="M 395.000,380.515 C 401.875,380.182 412.225,379.479 418.000,378.951 C 423.775,378.424 434.575,377.580 442.000,377.077 C 449.425,376.574 456.250,375.867 457.166,375.506 C 460.655,374.133 464.347,367.083 465.174,360.219 C 466.107,352.472 473.490,328.703 476.161,324.846 C 478.486,321.489 478.465,320.860 475.914,317.617 C 473.946,315.115 471.845,307.435 464.530,276.000 C 461.148,261.466 458.372,255.340 452.179,248.747 C 445.596,241.738 442.633,235.775 443.292,230.861 L 443.801,227.067 L 439.400,230.745 C 436.980,232.768 435.000,234.576 435.000,234.763 C 435.000,234.949 436.800,239.331 439.000,244.500 C 445.473,259.708 444.092,268.345 434.033,275.572 C 429.370,278.922 429.102,279.369 428.508,284.796 C 426.235,305.561 424.010,313.916 419.139,319.976 C 417.561,321.940 414.621,327.115 412.606,331.476 C 410.591,335.838 408.312,340.103 407.542,340.954 C 406.771,341.805 405.615,346.552 404.972,351.501 C 403.519,362.691 401.115,368.475 396.963,370.769 C 390.131,374.543 378.617,382.156 380.500,381.653 C 381.600,381.359 388.125,380.847 395.000,380.515 Z" fill="#17becf" stroke="black" stroke-width="0.5" fill-rule="evenodd"/>
</svg>
