<?xml version='1.0' encoding='UTF-8'?>
<svg version="1.1" xmlns="http://www.w3.org/2000/svg" width="1000" height="600" viewBox="0 0 1000 600">
  <path d="M 592.092,376.221 C 592.576,374.968 593.058,367.543 593.162,359.721 C 593.374,343.892 593.302,343.635 585.585,332.500 C 583.297,329.200 579.227,322.450 576.540,317.500 C 570.327,306.056 566.790,301.658 560.876,298.019 C 555.216,294.536 541.460,288.736 533.922,286.655 C 520.959,283.075 516.986,281.636 515.026,279.809 C 513.278,278.181 512.416,278.030 509.719,278.883 C 507.949,279.442 502.675,280.185 498.000,280.533 C 462.873,283.147 433.587,293.878 426.832,306.610 C 425.015,310.036 424.747,311.377 425.605,312.747 C 427.355,315.538 430.004,315.334 441.879,311.495 C 448.016,309.511 456.067,307.246 459.769,306.461 C 470.941,304.094 500.834,304.987 514.500,308.097 C 522.425,309.900 531.512,314.632 534.658,318.593 C 542.142,328.018 553.197,336.892 560.566,339.389 C 576.673,344.849 585.000,357.191 585.000,375.606 L 585.000,382.113 L 588.106,380.307 C 589.814,379.313 591.608,377.475 592.092,376.221 Z" fill="#17becf" stroke="black" stroke-width="0.5" fill-rule="evenodd"/>
</svg>
