<?xml version='1.0' encoding='UTF-8'?>
<svg version="1.1" xmlns="http://www.w3.org/2000/svg" width="1000" height="600" viewBox="0 0 1000 600">
  <path d="M 414.020,350.781 C 418.191,353.385 424.417,351.139 437.000,342.489 C 446.852,335.717 456.441,331.284 467.500,328.390 C 473.000,326.951 479.278,324.869 481.452,323.763 C 494.045,317.358 508.493,315.135 539.000,314.906 C 559.388,314.754 562.111,314.935 568.009,316.835 C 571.590,317.988 576.065,320.072 577.954,321.466 C 579.843,322.860 581.538,324.000 581.720,324.000 C 582.234,324.000 578.948,317.809 576.852,314.827 C 575.596,313.039 572.845,311.446 568.546,310.015 C 562.534,308.015 557.739,305.202 545.500,296.496 C 542.750,294.539 536.000,290.730 530.500,288.031 C 521.798,283.760 519.023,282.918 509.122,281.548 C 502.864,280.682 496.752,279.725 495.538,279.420 C 494.325,279.116 490.666,279.765 487.408,280.863 C 484.149,281.960 475.834,284.209 468.930,285.859 C 462.026,287.508 453.763,290.015 450.568,291.428 C 442.533,294.981 432.962,302.020 429.152,307.177 C 427.396,309.555 422.838,315.656 419.024,320.735 C 411.750,330.422 409.000,336.505 409.000,342.909 C 409.000,345.021 408.310,348.703 407.467,351.093 L 405.935,355.437 L 409.001,352.499 C 411.636,349.974 412.342,349.733 414.020,350.781 Z" fill="#17becf" stroke="black" stroke-width="0.5" fill-rule="evenodd"/>
</svg>
