<?xml version='1.0' encoding='UTF-8'?>
<svg version="1.1" xmlns="http://www.w3.org/2000/svg" width="1000" height="600" viewBox="0 0 1000 600">
  <path d="M 603.000,354.051 C 603.000,350.845 602.332,344.684 601.516,340.360 C 597.496,319.067 596.923,310.558 596.033,259.000 C 595.459,225.714 595.505,197.067 596.165,178.000 C 597.764,131.740 597.636,116.526 595.592,109.750 C 594.639,106.588 593.328,104.011 592.679,104.025 C 590.629,104.068 581.333,113.297 578.100,118.500 C 576.391,121.250 570.740,127.550 565.543,132.500 C 557.273,140.376 555.276,142.988 549.552,153.410 C 545.955,159.961 541.434,169.985 539.506,175.687 C 536.400,184.872 536.001,187.221 536.006,196.277 C 536.009,201.900 536.510,208.300 537.121,210.500 C 538.468,215.355 543.183,221.526 547.091,223.547 C 551.066,225.602 552.650,229.177 554.429,240.102 C 555.270,245.271 556.385,250.850 556.906,252.500 C 559.391,260.366 567.300,279.653 569.940,284.282 C 573.039,289.715 576.015,300.262 577.372,310.622 C 578.797,321.488 582.155,329.636 592.482,347.279 C 601.833,363.256 603.000,364.007 603.000,354.051 Z" fill="#c5b0d5" stroke="black" stroke-width="0.5" fill-rule="evenodd"/>
</svg>
