<?xml version='1.0' encoding='UTF-8'?>
<svg version="1.1" xmlns="http://www.w3.org/2000/svg" width="1000" height="600" viewBox="0 0 1000 600">
  <path d="M 723.000,356.294 C 723.000,352.109 719.028,338.018 715.895,331.092 C 714.237,327.426 710.792,322.281 708.134,319.500 C 705.505,316.750 701.394,312.025 698.999,309.000 C 691.629,299.692 685.779,294.017 679.000,289.599 C 675.425,287.269 668.675,282.512 664.000,279.027 C 652.018,270.095 645.135,267.239 614.500,258.483 C 599.650,254.239 585.350,249.680 582.721,248.352 C 580.093,247.024 573.568,244.714 568.221,243.219 C 558.743,240.568 557.838,240.501 532.000,240.535 C 517.425,240.555 502.083,240.924 497.907,241.356 C 490.894,242.081 489.901,242.483 484.907,246.612 C 477.627,252.633 469.230,256.503 459.000,258.553 C 454.325,259.490 449.375,261.041 448.000,262.000 C 446.625,262.959 443.250,264.878 440.500,266.264 C 433.101,269.993 431.629,272.080 430.930,279.838 C 430.600,283.502 430.378,286.585 430.437,286.688 C 430.495,286.792 433.799,285.810 437.779,284.506 C 447.909,281.188 463.602,278.882 474.910,279.050 C 480.185,279.128 487.610,278.640 491.411,277.966 C 500.041,276.433 519.215,277.249 527.500,279.501 C 534.710,281.461 552.359,289.780 567.318,298.270 C 579.436,305.147 584.682,310.175 589.839,319.850 C 593.563,326.836 604.100,338.773 611.378,344.250 C 614.119,346.312 616.681,348.000 617.071,348.000 C 617.462,348.000 619.743,347.110 622.141,346.022 C 628.886,342.961 634.918,343.399 644.289,347.631 C 651.939,351.085 652.724,351.236 660.415,350.737 C 665.147,350.431 670.693,349.339 673.787,348.107 C 681.760,344.930 686.428,345.329 695.730,349.985 C 700.109,352.177 706.574,354.882 710.096,355.997 C 713.618,357.112 717.363,358.686 718.418,359.495 C 720.834,361.348 723.000,359.835 723.000,356.294 Z" fill="#c5b0d5" stroke="black" stroke-width="0.5" fill-rule="evenodd"/>
</svg>
