<?xml version='1.0' encoding='UTF-8'?>
<svg version="1.1" xmlns="http://www.w3.org/2000/svg" width="1000" height="600" viewBox="0 0 1000 600">
  <path d="M 284.076,374.372 C 295.808,367.131 307.891,365.016 337.822,364.965 C 349.789,364.944 362.195,364.368 367.270,363.597 C 379.642,361.719 388.406,363.676 392.562,369.244 C 394.011,371.185 394.142,371.221 393.498,369.500 C 390.748,362.150 391.278,350.659 394.612,345.353 C 395.597,343.784 399.586,338.900 403.475,334.500 C 407.363,330.100 412.435,323.948 414.744,320.830 C 417.054,317.711 421.544,313.141 424.722,310.673 C 427.900,308.205 433.399,303.193 436.941,299.535 C 447.661,288.466 459.590,282.903 482.213,278.420 C 493.524,276.179 496.839,275.900 504.930,276.507 C 510.140,276.897 516.450,277.848 518.951,278.618 C 521.453,279.389 529.256,280.704 536.292,281.541 C 549.990,283.170 556.519,285.376 564.408,291.041 C 572.929,297.161 576.395,292.476 572.012,280.761 C 569.875,275.049 565.960,271.050 561.000,269.513 C 559.625,269.087 555.350,267.154 551.500,265.217 C 547.650,263.281 540.173,259.813 534.884,257.510 C 529.596,255.208 522.443,251.149 518.988,248.491 C 512.723,243.670 512.684,243.656 502.604,242.848 C 497.047,242.403 482.825,241.995 471.000,241.942 L 449.500,241.845 L 438.000,245.297 C 431.675,247.195 423.871,249.723 420.657,250.916 C 417.443,252.108 408.269,253.990 400.270,255.099 C 389.190,256.635 382.146,258.310 370.695,262.134 C 353.133,267.999 341.987,272.325 338.201,274.744 C 326.527,282.204 315.607,291.647 302.244,305.839 C 286.362,322.706 287.650,320.792 271.513,351.522 C 269.774,354.834 267.527,361.471 266.519,366.271 C 264.729,374.802 264.731,375.045 266.586,377.095 C 269.318,380.114 276.615,378.977 284.076,374.372 Z" fill="#c5b0d5" stroke="black" stroke-width="0.5" fill-rule="evenodd"/>
</svg>
