<?xml version='1.0' encoding='UTF-8'?>
<svg version="1.1" xmlns="http://www.w3.org/2000/svg" width="1000" height="600" viewBox="0 0 1000 600">
  <path d="M 601.398,356.967 C 601.342,355.060 599.850,350.417 598.081,346.649 C 594.105,338.176 591.329,327.537 589.982,315.612 C 589.416,310.601 588.472,302.675 587.885,298.000 C 584.764,273.174 585.246,198.547 588.662,177.500 C 590.011,169.189 590.168,163.194 589.589,142.000 C 589.206,127.975 588.321,113.350 587.623,109.500 C 585.620,98.461 580.788,89.000 577.153,89.000 C 576.308,89.000 572.215,91.182 568.058,93.848 C 563.901,96.514 558.169,100.141 555.319,101.908 C 548.750,105.980 531.524,123.913 527.235,131.144 C 520.525,142.454 519.375,158.618 523.623,181.889 C 525.677,193.135 526.028,197.001 525.234,199.591 L 524.217,202.904 L 526.598,201.344 C 529.285,199.583 528.901,199.035 531.471,208.291 C 532.461,211.855 534.368,215.509 536.428,217.791 C 542.965,225.034 546.227,234.195 551.990,261.500 C 554.568,273.713 555.731,277.032 561.105,287.500 C 567.744,300.433 569.648,305.256 573.973,320.096 C 575.512,325.374 577.652,331.674 578.729,334.096 C 580.647,338.408 590.835,352.771 595.886,358.281 C 599.287,361.993 601.530,361.458 601.398,356.967 Z" fill="#c5b0d5" stroke="black" stroke-width="0.5" fill-rule="evenodd"/>
</svg>
