<?xml version='1.0' encoding='UTF-8'?>
<svg version="1.1" xmlns="http://www.w3.org/2000/svg" width="1000" height="600" viewBox="0 0 1000 600">
  <path d="M 443.880,425.007 C 462.532,417.939 469.305,414.391 476.500,407.921 C 478.700,405.943 483.200,402.161 486.500,399.517 C 489.800,396.873 497.198,390.199 502.940,384.685 C 511.923,376.060 513.633,373.894 515.190,369.175 C 516.186,366.158 516.996,360.947 516.991,357.595 C 516.978,349.391 513.245,342.844 504.931,336.447 C 498.367,331.396 499.857,331.826 464.000,324.646 C 435.361,318.911 424.759,318.483 413.500,322.606 C 409.650,324.015 402.225,326.664 397.000,328.492 C 391.775,330.320 385.713,332.579 383.530,333.513 C 380.835,334.665 377.863,335.070 374.280,334.773 C 370.479,334.458 369.000,334.687 369.000,335.590 C 369.000,337.951 358.708,345.865 352.730,348.101 C 340.335,352.736 317.186,370.581 318.309,374.635 C 318.593,375.661 319.101,378.142 319.439,380.149 C 320.237,384.894 323.184,388.543 328.345,391.175 C 330.630,392.341 335.425,395.934 339.000,399.160 C 342.678,402.479 347.454,405.717 350.000,406.619 C 352.475,407.496 358.100,409.804 362.500,411.747 C 366.900,413.691 374.550,416.312 379.500,417.571 C 384.450,418.830 394.350,422.555 401.500,425.848 C 419.300,434.046 420.069,434.031 443.880,425.007 Z" fill="#8c564b" stroke="black" stroke-width="0.5" fill-rule="evenodd"/>
</svg>
