<?xml version='1.0' encoding='UTF-8'?>
<svg version="1.1" xmlns="http://www.w3.org/2000/svg" width="1000" height="600" viewBox="0 0 1000 600">
  <path d="M 362.959,316.041 C 366.804,312.196 369.450,305.085 376.467,279.739 C 377.345,276.570 378.700,267.921 379.480,260.518 C 380.260,253.116 381.371,246.175 381.949,245.095 C 384.007,241.251 382.936,237.816 376.250,226.804 L 369.500,215.687 L 369.600,204.593 C 369.671,196.737 370.489,189.707 372.404,180.500 C 374.089,172.398 375.305,162.790 375.632,155.000 L 376.157,142.500 L 374.111,145.544 C 372.985,147.218 369.184,151.133 365.663,154.243 C 357.134,161.777 352.015,171.949 347.822,189.689 C 346.157,196.735 343.271,208.125 341.408,215.000 C 336.741,232.226 336.000,236.770 336.000,248.179 C 336.000,259.594 338.052,270.799 341.619,278.865 C 342.988,281.961 345.218,288.440 346.574,293.263 C 349.706,304.404 353.184,312.275 356.392,315.483 C 359.423,318.513 360.403,318.597 362.959,316.041 Z" fill="#8c564b" stroke="black" stroke-width="0.5" fill-rule="evenodd"/>
</svg>
