<?xml version='1.0' encoding='UTF-8'?>
<svg version="1.1" xmlns="http://www.w3.org/2000/svg" width="1000" height="600" viewBox="0 0 1000 600">
  <path d="M 366.208,308.250 C 371.459,302.658 377.280,291.516 380.095,281.668 C 383.786,268.755 385.367,255.100 385.440,235.500 C 385.498,220.040 385.404,219.281 382.654,213.000 C 377.365,200.920 376.739,198.522 376.266,188.500 C 375.850,179.696 376.159,177.065 378.845,166.500 C 382.649,151.539 383.409,146.212 382.552,140.500 C 381.700,134.818 379.951,134.674 375.000,139.880 C 368.751,146.448 360.273,164.189 351.047,190.000 C 344.289,208.907 344.275,208.969 343.343,224.000 C 341.928,246.822 342.402,259.066 345.298,274.500 C 347.523,286.353 348.639,289.880 352.577,297.500 C 357.349,306.733 360.482,311.000 362.487,311.000 C 363.113,311.000 364.788,309.762 366.208,308.250 Z" fill="#8c564b" stroke="black" stroke-width="0.5" fill-rule="evenodd"/>
</svg>
