<?xml version='1.0' encoding='UTF-8'?>
<svg version="1.1" xmlns="http://www.w3.org/2000/svg" width="1000" height="600" viewBox="0 0 1000 600">
  <path d="M 463.163,422.553 C 473.251,420.415 480.156,416.703 486.056,410.248 C 494.196,401.342 494.202,401.276 487.781,392.744 C 483.499,387.055 480.925,384.706 476.233,382.205 C 464.765,376.092 459.530,367.410 459.530,354.500 C 459.529,339.854 465.030,330.459 475.120,327.873 C 479.048,326.866 479.784,326.364 478.770,325.382 C 478.072,324.706 471.005,320.922 463.066,316.973 C 455.127,313.024 446.924,308.714 444.836,307.396 C 440.112,304.415 434.914,304.308 425.503,306.999 C 421.659,308.099 413.335,309.702 407.007,310.561 C 375.271,314.873 354.280,323.953 340.914,339.149 C 334.225,346.754 333.000,348.892 333.000,352.970 C 333.000,355.666 333.555,356.309 337.250,357.892 C 343.502,360.572 357.081,364.691 368.775,367.456 C 381.212,370.396 390.849,374.904 401.500,382.765 C 410.427,389.353 415.182,395.309 417.959,403.380 C 420.395,410.460 421.566,412.636 425.687,417.736 C 427.659,420.176 430.465,422.363 432.305,422.896 C 437.257,424.328 455.758,424.123 463.163,422.553 Z" fill="#98df8a" stroke="black" stroke-width="0.5" fill-rule="evenodd"/>
  <path d="M 457.667,367.333 C 456.711,366.378 456.845,365.000 457.893,365.000 C 458.384,365.000 459.045,365.675 459.362,366.500 C 459.947,368.024 458.881,368.548 457.667,367.333 Z" fill="#98df8a" stroke="black" stroke-width="0.5" fill-rule="evenodd"/>
</svg>
