<?xml version='1.0' encoding='UTF-8'?>
<svg version="1.1" xmlns="http://www.w3.org/2000/svg" width="1000" height="600" viewBox="0 0 1000 600">
  <path d="M 389.953,250.005 C 394.104,245.784 400.200,240.828 403.500,238.991 C 406.800,237.153 410.850,234.538 412.500,233.180 C 415.674,230.566 420.000,225.159 420.000,223.806 C 420.000,222.102 415.540,223.114 412.360,225.539 C 407.049,229.590 401.697,231.081 396.216,230.037 C 389.783,228.811 388.108,228.070 386.972,225.948 C 385.172,222.585 385.876,222.000 391.750,221.978 L 397.500,221.956 L 393.000,219.916 C 390.525,218.794 387.600,217.067 386.500,216.078 C 385.400,215.089 381.439,213.531 377.697,212.615 C 372.117,211.250 370.187,211.163 366.954,212.132 C 361.739,213.694 352.507,221.273 348.232,227.500 C 345.314,231.751 344.871,233.129 345.272,236.703 C 345.556,239.235 346.773,242.130 348.332,243.983 C 349.756,245.675 351.203,248.733 351.548,250.779 C 351.892,252.826 352.365,255.207 352.598,256.071 C 353.217,258.368 362.669,261.000 370.298,261.000 C 374.608,261.000 377.367,261.477 378.197,262.366 C 379.260,263.504 379.718,263.227 380.940,260.705 C 381.746,259.041 385.802,254.225 389.953,250.005 Z" fill="#aec7e8" stroke="black" stroke-width="0.5" fill-rule="evenodd"/>
</svg>
