<?xml version='1.0' encoding='UTF-8'?>
<svg version="1.1" xmlns="http://www.w3.org/2000/svg" width="1000" height="600" viewBox="0 0 1000 600">
  <path d="M 587.543,540.552 C 588.457,538.364 589.000,533.672 589.000,527.963 C 589.000,516.497 583.649,478.342 580.996,470.897 C 579.898,467.816 579.000,464.143 579.000,462.736 C 579.000,457.049 565.072,449.403 552.827,448.368 C 548.648,448.015 543.981,448.039 542.456,448.422 C 539.700,449.113 539.732,449.164 548.092,457.309 C 556.935,465.924 561.298,472.685 563.605,481.350 C 565.372,487.985 565.322,496.813 563.500,500.000 C 561.305,503.839 561.716,508.226 565.065,516.724 C 568.821,526.255 578.600,543.898 581.384,546.166 C 583.304,547.731 583.510,547.717 584.757,545.936 C 585.488,544.893 586.741,542.471 587.543,540.552 Z" fill="#aec7e8" stroke="black" stroke-width="0.5" fill-rule="evenodd"/>
</svg>
