<?xml version='1.0' encoding='UTF-8'?>
<svg version="1.1" xmlns="http://www.w3.org/2000/svg" width="1000" height="600" viewBox="0 0 1000 600">
  <path d="M 418.377,543.833 C 419.620,542.550 422.021,540.761 423.712,539.858 C 428.156,537.484 433.999,526.795 440.359,509.404 C 449.034,485.682 451.722,479.392 456.240,472.238 C 459.722,466.724 460.452,464.734 460.313,461.137 C 460.220,458.726 460.545,455.697 461.036,454.406 C 461.845,452.279 461.579,451.965 458.214,451.075 C 456.171,450.535 449.790,449.617 444.033,449.035 C 433.866,448.007 433.423,448.048 428.521,450.446 C 425.746,451.804 421.906,454.560 419.988,456.570 L 416.500,460.226 L 420.750,458.093 C 425.373,455.772 426.062,456.381 423.090,460.159 C 420.630,463.286 409.706,479.791 408.090,482.822 C 406.533,485.743 404.046,508.643 404.020,520.303 C 404.009,525.144 404.704,532.344 405.565,536.303 C 406.933,542.593 407.657,543.973 411.315,547.255 C 415.456,550.970 415.503,550.984 415.808,548.588 C 415.978,547.256 417.134,545.116 418.377,543.833 Z" fill="#aec7e8" stroke="black" stroke-width="0.5" fill-rule="evenodd"/>
</svg>
