<?xml version='1.0' encoding='UTF-8'?>
<svg version="1.1" xmlns="http://www.w3.org/2000/svg" width="1000" height="600" viewBox="0 0 1000 600">
  <path d="M 629.450,260.972 C 636.413,260.944 647.166,258.247 647.613,256.416 C 647.736,255.912 648.109,253.864 648.442,251.865 C 648.775,249.866 650.379,246.266 652.006,243.865 C 655.129,239.256 655.663,235.874 653.970,231.421 C 651.360,224.557 639.867,213.846 633.188,212.054 C 628.394,210.767 616.602,213.676 611.817,217.326 C 609.960,218.743 607.329,220.345 605.970,220.887 C 603.859,221.730 604.263,221.882 608.750,221.937 C 614.474,222.006 615.157,222.947 612.228,226.733 C 611.102,228.188 608.686,229.308 605.295,229.948 C 599.063,231.125 593.009,229.634 587.757,225.628 C 584.578,223.203 580.000,222.063 580.000,223.696 C 580.000,225.808 585.912,232.363 590.599,235.446 C 593.569,237.401 598.488,240.639 601.530,242.642 C 607.270,246.423 615.676,254.949 618.685,260.043 C 619.830,261.982 620.756,262.644 621.410,261.990 C 621.954,261.446 625.572,260.987 629.450,260.972 Z" fill="#aec7e8" stroke="black" stroke-width="0.5" fill-rule="evenodd"/>
</svg>
