<?xml version='1.0' encoding='UTF-8'?>
<svg version="1.1" xmlns="http://www.w3.org/2000/svg" width="1000" height="600" viewBox="0 0 1000 600">
  <path d="M 427.622,532.316 C 437.530,513.844 439.765,505.711 436.500,500.000 C 433.421,494.614 435.483,480.456 440.783,470.594 C 442.277,467.813 447.229,461.871 451.786,457.390 C 460.751,448.574 460.798,448.000 452.555,448.000 C 438.895,448.000 421.000,456.253 421.000,462.552 C 421.000,463.858 420.155,467.080 419.123,469.713 C 418.091,472.346 416.751,478.100 416.146,482.500 C 415.541,486.900 414.138,496.575 413.028,504.000 C 409.732,526.042 410.590,540.574 415.507,546.008 C 417.157,547.831 417.272,547.810 419.659,545.234 C 421.009,543.777 424.592,537.964 427.622,532.316 Z" fill="#aec7e8" stroke="black" stroke-width="0.5" fill-rule="evenodd"/>
</svg>
