<?xml version='1.0' encoding='UTF-8'?>
<svg version="1.1" xmlns="http://www.w3.org/2000/svg" width="1000" height="600" viewBox="0 0 1000 600">
  <path d="M 545.000,414.583 C 553.933,412.971 572.698,406.583 575.228,404.294 C 577.262,402.453 580.000,394.092 580.000,389.723 C 580.000,385.297 577.055,381.137 571.304,377.437 C 564.546,373.089 562.678,370.234 563.550,365.587 C 564.278,361.705 569.256,353.500 571.377,352.686 C 572.409,352.290 572.479,351.037 571.705,346.841 C 569.318,333.907 569.497,334.213 561.360,329.164 C 557.227,326.599 550.271,322.171 545.903,319.326 C 537.619,313.927 534.189,312.426 522.416,309.047 C 518.520,307.929 512.445,305.140 508.916,302.850 C 502.039,298.386 492.239,294.000 489.142,294.000 C 485.793,294.000 484.847,296.647 482.988,311.217 C 478.128,349.302 475.021,361.692 468.075,370.690 C 463.661,376.407 463.138,377.652 462.508,383.918 C 461.883,390.142 462.087,391.445 464.549,396.929 C 471.564,412.561 485.644,417.471 520.500,416.440 C 529.850,416.163 540.875,415.328 545.000,414.583 Z" fill="#9edae5" stroke="black" stroke-width="0.5" fill-rule="evenodd"/>
</svg>
