<?xml version='1.0' encoding='UTF-8'?>
<svg version="1.1" xmlns="http://www.w3.org/2000/svg" width="1000" height="600" viewBox="0 0 1000 600">
  <path d="M 468.954,395.013 C 472.024,394.133 492.997,392.267 520.000,390.473 C 532.254,389.659 536.708,388.464 540.768,384.899 C 545.976,380.327 550.000,381.453 552.906,388.295 L 554.668,392.443 L 554.346,381.472 C 554.170,375.437 553.822,361.500 553.575,350.500 C 553.328,339.500 552.585,328.475 551.925,326.000 C 550.325,320.002 546.918,316.522 538.500,312.288 C 534.650,310.351 528.875,307.157 525.666,305.189 L 519.833,301.612 L 502.166,301.590 C 481.888,301.564 478.876,302.188 469.992,308.263 C 466.584,310.593 461.254,314.098 458.148,316.052 C 453.328,319.082 448.711,322.289 437.500,330.391 C 436.031,331.452 435.765,332.218 436.500,333.278 C 437.050,334.071 438.306,335.857 439.291,337.247 C 440.277,338.638 442.925,344.663 445.177,350.638 C 447.429,356.612 450.590,363.012 452.203,364.861 C 453.815,366.710 455.554,369.326 456.067,370.676 C 457.235,373.748 457.286,385.093 456.146,388.185 C 455.677,389.458 454.993,391.738 454.627,393.250 L 453.962,396.000 L 459.738,396.000 C 462.914,396.000 467.062,395.556 468.954,395.013 Z" fill="#9edae5" stroke="black" stroke-width="0.5" fill-rule="evenodd"/>
  <path d="M 547.596,376.454 C 544.601,373.458 541.297,357.829 544.014,359.509 C 546.049,360.767 548.749,367.630 549.222,372.750 C 549.488,375.637 549.580,378.000 549.425,378.000 C 549.270,378.000 548.447,377.304 547.596,376.454 Z" fill="#9edae5" stroke="black" stroke-width="0.5" fill-rule="evenodd"/>
</svg>
