<?xml version='1.0' encoding='UTF-8'?>
<svg version="1.1" xmlns="http://www.w3.org/2000/svg" width="1000" height="600" viewBox="0 0 1000 600">
  <path d="M 546.000,395.626 C 546.000,395.420 545.325,393.338 544.500,391.000 C 541.168,381.556 543.169,368.772 548.772,363.705 C 549.863,362.718 552.675,356.868 555.019,350.705 C 557.363,344.542 560.383,338.015 561.729,336.201 C 563.075,334.387 563.952,332.318 563.678,331.604 C 563.216,330.398 550.039,320.955 542.714,316.580 C 540.946,315.524 536.521,312.488 532.879,309.832 C 523.058,302.668 519.883,301.781 503.000,301.482 C 484.670,301.157 479.674,301.955 472.886,306.291 C 469.924,308.184 464.350,311.322 460.500,313.265 C 447.966,319.590 447.139,321.664 446.446,348.500 C 446.191,358.400 445.815,372.528 445.612,379.895 L 445.242,393.289 L 447.871,387.895 C 451.243,380.976 453.900,380.404 459.794,385.328 C 464.505,389.264 465.983,389.568 487.500,391.020 C 510.829,392.595 526.174,394.011 530.000,394.943 C 533.506,395.797 546.000,396.330 546.000,395.626 Z" fill="#9edae5" stroke="black" stroke-width="0.5" fill-rule="evenodd"/>
  <path d="M 451.061,372.250 C 451.782,366.275 454.670,359.000 456.321,359.000 C 457.771,359.000 456.318,367.389 453.892,373.030 C 452.716,375.763 451.442,378.000 451.060,378.000 C 450.679,378.000 450.679,375.413 451.061,372.250 Z" fill="#9edae5" stroke="black" stroke-width="0.5" fill-rule="evenodd"/>
</svg>
