<?xml version='1.0' encoding='UTF-8'?>
<svg version="1.1" xmlns="http://www.w3.org/2000/svg" width="1000" height="600" viewBox="0 0 1000 600">
  <path d="M 611.456,262.874 C 609.067,256.105 610.094,244.000 613.056,244.000 C 614.423,244.000 619.978,234.376 621.996,228.513 C 624.912,220.035 624.657,216.488 620.884,213.041 C 619.170,211.476 615.769,209.635 613.327,208.952 C 607.240,207.247 588.198,208.288 581.227,210.707 C 574.599,213.007 566.297,220.073 563.926,225.434 C 561.078,231.872 559.798,238.754 561.023,241.042 C 562.300,243.428 569.127,246.941 578.452,250.010 C 583.403,251.639 586.739,253.546 590.043,256.637 C 592.595,259.024 596.570,261.643 598.877,262.457 C 601.184,263.270 604.055,264.626 605.258,265.468 C 606.461,266.311 608.675,267.000 610.178,267.000 L 612.911,267.000 L 611.456,262.874 Z" fill="#1f77b4" stroke="black" stroke-width="0.5" fill-rule="evenodd"/>
</svg>
