<?xml version='1.0' encoding='UTF-8'?>
<svg version="1.1" xmlns="http://www.w3.org/2000/svg" width="1000" height="600" viewBox="0 0 1000 600">
  <path d="M 399.310,263.087 C 403.814,260.935 408.625,257.967 410.000,256.492 C 413.073,253.195 416.135,251.568 424.788,248.633 C 428.479,247.380 433.461,245.114 435.859,243.597 C 440.718,240.521 440.703,240.665 437.386,229.255 C 436.082,224.770 434.535,222.375 430.036,217.876 C 423.185,211.025 418.038,209.138 403.905,208.297 C 391.430,207.555 386.230,208.413 380.602,212.140 C 376.480,214.871 376.000,215.583 376.000,218.975 C 376.000,226.006 381.751,238.754 387.689,244.886 C 390.453,247.740 390.851,255.336 388.576,261.784 C 386.256,268.361 387.863,268.556 399.310,263.087 Z" fill="#1f77b4" stroke="black" stroke-width="0.5" fill-rule="evenodd"/>
</svg>
