<?xml version='1.0' encoding='UTF-8'?>
<svg version="1.1" xmlns="http://www.w3.org/2000/svg" width="1000" height="600" viewBox="0 0 1000 600">
  <path d="M 609.410,267.750 C 609.600,267.062 610.242,262.800 610.836,258.279 C 611.430,253.757 612.588,249.032 613.410,247.778 C 614.231,246.525 615.604,241.478 616.461,236.562 C 617.866,228.504 617.868,227.035 616.481,221.619 C 613.706,210.787 608.259,205.899 596.812,203.968 C 580.556,201.226 564.671,207.189 555.872,219.336 C 553.301,222.884 553.000,224.108 553.000,231.002 C 553.000,241.017 554.725,243.636 566.508,251.509 C 573.751,256.350 578.125,258.374 589.000,261.918 C 596.425,264.338 603.388,266.921 604.473,267.659 C 606.944,269.340 608.958,269.377 609.410,267.750 Z" fill="#1f77b4" stroke="black" stroke-width="0.5" fill-rule="evenodd"/>
</svg>
