<?xml version='1.0' encoding='UTF-8'?>
<svg version="1.1" xmlns="http://www.w3.org/2000/svg" width="1000" height="600" viewBox="0 0 1000 600">
  <path d="M 594.026,536.340 C 601.786,527.953 605.000,518.206 605.000,503.056 C 605.000,492.351 602.488,483.327 597.777,477.107 C 593.579,471.566 572.453,455.639 564.016,451.654 C 558.195,448.906 556.333,448.550 545.805,448.174 C 539.355,447.944 533.457,447.994 532.699,448.285 C 530.708,449.049 539.229,466.439 547.350,478.187 C 552.966,486.310 562.565,501.927 571.312,517.172 C 572.786,519.741 575.351,525.529 577.012,530.033 C 578.673,534.537 581.037,539.465 582.266,540.984 C 584.438,543.670 584.579,543.702 587.339,542.123 C 588.900,541.231 591.909,538.628 594.026,536.340 Z" fill="#1f77b4" stroke="black" stroke-width="0.5" fill-rule="evenodd"/>
</svg>
