<?xml version='1.0' encoding='UTF-8'?>
<svg version="1.1" xmlns="http://www.w3.org/2000/svg" width="1000" height="600" viewBox="0 0 1000 600">
  <path d="M 413.346,538.511 C 414.165,537.693 415.553,533.863 416.432,530.001 C 418.930,519.017 423.243,508.202 428.590,499.517 C 431.291,495.131 437.100,484.332 441.500,475.521 C 449.065,460.370 449.840,459.231 455.757,454.544 C 460.854,450.506 461.718,449.422 460.417,448.694 C 456.538,446.523 437.711,451.853 426.500,458.297 C 416.577,464.000 403.274,477.541 399.005,486.284 C 396.123,492.185 395.634,494.330 395.245,502.784 C 394.778,512.916 396.392,522.810 399.622,529.616 C 400.997,532.513 409.223,539.882 411.179,539.970 C 411.552,539.986 412.527,539.330 413.346,538.511 Z" fill="#1f77b4" stroke="black" stroke-width="0.5" fill-rule="evenodd"/>
</svg>
