<?xml version='1.0' encoding='UTF-8'?>
<svg version="1.1" xmlns="http://www.w3.org/2000/svg" width="1000" height="600" viewBox="0 0 1000 600">
  <path d="M 559.007,386.902 C 560.928,386.298 567.085,385.717 572.689,385.612 C 581.060,385.454 583.248,385.086 584.944,383.551 C 587.816,380.952 589.010,375.703 589.203,364.824 C 589.460,350.391 588.492,346.142 582.808,336.764 C 580.054,332.219 577.688,328.380 577.550,328.233 C 577.412,328.086 573.744,327.807 569.399,327.613 C 565.055,327.418 558.575,326.483 555.000,325.533 C 551.231,324.531 546.820,324.028 544.500,324.335 C 522.600,327.235 515.936,327.968 506.000,328.574 C 495.644,329.206 493.654,329.653 486.000,333.075 C 481.325,335.165 473.900,337.844 469.500,339.028 C 459.791,341.642 445.061,348.054 445.026,349.682 C 445.012,350.332 446.357,351.830 448.015,353.011 C 451.956,355.817 453.687,359.330 454.929,367.039 C 455.487,370.507 456.355,373.755 456.857,374.257 C 457.359,374.759 463.177,376.695 469.785,378.560 C 479.922,381.419 484.435,382.103 498.650,382.936 C 516.794,383.998 544.024,386.690 544.835,387.502 C 545.756,388.422 555.479,388.011 559.007,386.902 Z" fill="#c49c94" stroke="black" stroke-width="0.5" fill-rule="evenodd"/>
</svg>
