<?xml version='1.0' encoding='UTF-8'?>
<svg version="1.1" xmlns="http://www.w3.org/2000/svg" width="1000" height="600" viewBox="0 0 1000 600">
  <path d="M 561.846,390.557 C 563.306,389.763 566.579,388.844 569.120,388.515 C 576.013,387.622 582.153,383.200 587.438,375.322 C 592.330,368.030 593.161,363.535 591.007,356.025 C 589.289,350.035 573.540,326.468 569.246,323.459 C 568.246,322.759 562.357,320.955 556.161,319.450 C 544.963,316.731 544.849,316.725 537.419,318.357 C 533.192,319.286 525.501,320.000 519.722,320.000 C 511.136,320.000 493.461,322.146 481.530,324.636 C 479.872,324.982 475.898,327.771 472.530,330.951 C 469.214,334.083 462.000,339.720 456.500,343.477 C 443.672,352.239 441.123,354.245 441.055,355.631 C 441.025,356.254 442.575,357.964 444.501,359.433 C 448.972,362.843 450.798,366.430 451.619,373.414 C 451.980,376.486 452.627,379.000 453.057,379.000 C 453.487,379.000 456.687,378.263 460.169,377.362 C 465.662,375.940 470.604,375.808 497.500,376.366 C 518.318,376.798 530.920,377.491 535.869,378.477 C 544.919,380.280 557.344,386.738 557.820,389.886 C 558.199,392.394 558.404,392.428 561.846,390.557 Z" fill="#c49c94" stroke="black" stroke-width="0.5" fill-rule="evenodd"/>
</svg>
