<?xml version='1.0' encoding='UTF-8'?>
<svg version="1.1" xmlns="http://www.w3.org/2000/svg" width="1000" height="600" viewBox="0 0 1000 600">
  <path d="M 534.346,329.254 C 537.114,323.773 539.838,316.443 541.034,311.254 C 543.496,300.575 546.070,292.543 551.144,279.713 C 553.272,274.330 556.153,265.105 557.544,259.213 C 558.936,253.321 561.633,245.346 563.538,241.491 C 565.442,237.636 567.000,233.733 567.000,232.818 C 567.000,230.879 562.627,225.406 559.919,223.957 C 556.230,221.982 547.852,220.963 543.951,222.013 C 538.480,223.486 534.764,228.402 530.231,240.162 C 521.512,262.782 518.816,272.749 518.509,283.500 C 518.353,289.000 517.499,297.027 516.612,301.338 C 513.550,316.228 515.060,329.733 520.789,338.684 C 522.485,341.333 524.392,344.850 525.028,346.500 L 526.184,349.500 L 527.930,344.000 C 528.890,340.975 531.777,334.339 534.346,329.254 Z" fill="#c49c94" stroke="black" stroke-width="0.5" fill-rule="evenodd"/>
</svg>
