<?xml version='1.0' encoding='UTF-8'?>
<svg version="1.1" xmlns="http://www.w3.org/2000/svg" width="1000" height="600" viewBox="0 0 1000 600">
  <path d="M 479.349,338.742 C 483.828,330.072 484.165,328.881 484.667,319.992 C 485.087,312.555 484.734,308.230 483.034,300.014 C 481.814,294.114 481.128,288.134 481.464,286.339 C 482.422,281.234 480.384,271.452 475.024,255.433 C 469.151,237.879 463.615,226.377 459.672,223.537 C 454.304,219.670 441.900,221.849 435.750,227.740 C 432.181,231.159 432.282,233.204 436.409,241.033 C 438.300,244.622 441.009,252.396 442.496,258.500 C 443.969,264.550 447.439,275.350 450.206,282.500 C 452.974,289.650 456.517,300.691 458.079,307.036 C 459.937,314.579 463.007,323.058 466.951,331.536 C 470.268,338.666 472.986,345.288 472.991,346.250 C 473.009,349.763 474.667,347.805 479.349,338.742 Z" fill="#c49c94" stroke="black" stroke-width="0.5" fill-rule="evenodd"/>
</svg>
