<?xml version='1.0' encoding='UTF-8'?>
<svg version="1.1" xmlns="http://www.w3.org/2000/svg" width="1000" height="600" viewBox="0 0 1000 600">
  <path d="M 442.389,389.588 C 443.280,386.036 453.755,380.544 463.459,378.540 C 475.767,375.998 530.002,375.170 539.312,377.382 C 547.865,379.413 548.000,379.408 548.000,377.049 C 548.000,370.564 550.367,364.580 554.613,360.335 C 557.026,357.922 559.000,355.591 559.000,355.155 C 559.000,354.357 550.992,348.358 539.000,340.175 C 535.425,337.735 529.998,333.372 526.940,330.480 C 522.385,326.171 520.397,325.022 515.940,324.123 C 502.470,321.406 490.727,320.008 481.357,320.004 C 475.778,320.002 467.734,319.280 463.481,318.401 C 455.842,316.821 455.614,316.834 444.782,319.464 C 438.750,320.929 432.732,322.621 431.408,323.224 C 428.938,324.349 420.537,335.342 413.120,347.153 C 409.701,352.600 408.832,354.996 408.331,360.361 C 407.733,366.767 407.815,367.074 412.015,374.025 C 417.750,383.516 425.231,388.940 432.718,389.035 C 434.248,389.055 436.625,389.714 438.000,390.500 C 441.383,392.434 441.690,392.370 442.389,389.588 Z" fill="#c49c94" stroke="black" stroke-width="0.5" fill-rule="evenodd"/>
</svg>
