<?xml version='1.0' encoding='UTF-8'?>
<svg version="1.1" xmlns="http://www.w3.org/2000/svg" width="1000" height="600" viewBox="0 0 1000 600">
  <path d="M 540.549,412.544 C 543.870,411.556 547.175,409.532 550.203,406.630 C 552.735,404.204 556.425,401.685 558.403,401.032 C 562.319,399.740 563.217,398.000 559.968,398.000 C 555.930,398.000 551.000,395.215 551.000,392.934 C 551.000,391.741 553.545,386.206 556.655,380.633 C 566.604,362.806 566.201,363.900 565.403,356.845 C 564.821,351.699 564.155,350.013 561.860,347.869 C 560.305,346.417 557.504,344.942 555.635,344.591 C 550.917,343.706 544.972,339.146 539.304,332.062 C 535.217,326.954 533.225,325.466 525.964,322.092 C 521.269,319.910 514.294,317.243 510.464,316.165 C 501.585,313.666 498.360,312.391 497.534,311.054 C 496.829,309.915 488.000,319.572 488.000,321.482 C 488.000,322.088 490.078,324.590 492.617,327.042 C 498.400,332.626 500.950,338.002 500.978,344.673 C 501.005,350.917 497.925,355.246 491.496,358.002 C 487.966,359.515 487.065,360.555 485.308,365.147 C 482.338,372.908 470.942,389.954 466.182,393.754 C 462.286,396.866 462.155,397.151 463.195,400.254 C 463.794,402.039 464.969,404.292 465.806,405.261 C 468.404,408.264 479.694,411.020 493.987,412.141 C 501.419,412.724 509.300,413.587 511.500,414.060 C 517.074,415.257 534.481,414.348 540.549,412.544 Z" fill="#e377c2" stroke="black" stroke-width="0.5" fill-rule="evenodd"/>
</svg>
