<?xml version='1.0' encoding='UTF-8'?>
<svg version="1.1" xmlns="http://www.w3.org/2000/svg" width="1000" height="600" viewBox="0 0 1000 600">
  <path d="M 535.714,404.532 C 549.344,404.288 551.102,403.601 559.500,395.234 C 561.700,393.042 566.075,389.612 569.222,387.612 C 576.483,382.996 577.414,381.238 576.654,373.576 C 575.721,364.165 574.306,360.107 572.155,360.670 C 569.516,361.360 559.268,354.942 553.500,348.987 C 550.750,346.147 546.475,342.451 544.000,340.772 C 541.525,339.093 537.264,335.645 534.531,333.110 C 531.798,330.574 530.415,329.523 531.457,330.774 C 532.870,332.468 533.064,333.336 532.219,334.181 C 530.488,335.912 527.732,333.204 528.423,330.452 C 528.916,328.485 528.324,328.075 522.737,326.522 C 512.300,323.619 506.549,320.291 497.585,311.966 C 492.868,307.585 488.371,304.000 487.592,304.000 C 484.093,304.000 484.681,314.801 489.062,331.000 C 490.669,336.946 491.282,343.680 492.019,363.500 C 493.249,396.586 494.359,402.911 499.315,405.060 C 500.560,405.600 506.231,405.737 512.500,405.379 C 518.550,405.033 528.996,404.652 535.714,404.532 Z" fill="#e377c2" stroke="black" stroke-width="0.5" fill-rule="evenodd"/>
</svg>
