<?xml version='1.0' encoding='UTF-8'?>
<svg version="1.1" xmlns="http://www.w3.org/2000/svg" width="1000" height="600" viewBox="0 0 1000 600">
  <path d="M 395.820,310.248 C 396.247,307.240 398.204,306.390 406.388,305.662 C 415.479,304.853 417.567,303.359 419.542,296.244 C 422.490,285.627 427.054,275.389 431.468,269.487 C 436.119,263.269 438.039,257.947 437.299,253.323 C 436.043,245.477 433.629,235.358 432.749,234.250 C 430.660,231.622 427.208,232.907 423.342,237.750 C 421.257,240.363 416.614,245.655 413.025,249.512 C 408.424,254.457 404.799,259.813 400.730,267.679 C 397.557,273.814 392.922,281.603 390.431,284.987 C 383.226,294.774 382.493,296.849 383.849,303.603 C 385.327,310.963 387.289,313.190 391.949,312.799 C 394.760,312.562 395.567,312.031 395.820,310.248 Z" fill="#e377c2" stroke="black" stroke-width="0.5" fill-rule="evenodd"/>
</svg>
