<?xml version='1.0' encoding='UTF-8'?>
<svg version="1.1" xmlns="http://www.w3.org/2000/svg" width="1000" height="600" viewBox="0 0 1000 600">
  <path d="M 540.138,325.332 C 551.182,317.778 560.252,310.761 567.135,304.444 C 571.039,300.862 575.503,297.274 577.055,296.472 C 579.830,295.037 579.923,295.082 582.708,299.229 C 585.422,303.270 590.308,307.025 591.413,305.920 C 592.291,305.042 589.056,282.180 586.479,271.055 C 583.905,259.943 582.250,256.903 572.688,245.717 C 566.794,238.821 564.816,237.624 560.621,238.411 C 558.344,238.838 556.928,239.979 555.591,242.460 C 553.214,246.875 547.277,251.000 543.300,251.000 C 540.305,251.000 536.328,247.628 533.051,242.310 C 531.980,240.571 531.888,240.574 530.718,242.384 C 527.529,247.317 524.467,250.089 517.889,253.997 L 510.750,258.238 L 511.241,274.869 C 511.714,290.920 511.839,291.727 514.832,298.000 C 516.537,301.575 518.657,307.425 519.542,311.000 C 523.100,325.371 522.880,324.888 526.787,326.951 C 532.050,329.730 534.065,329.486 540.138,325.332 Z" fill="#e377c2" stroke="black" stroke-width="0.5" fill-rule="evenodd"/>
</svg>
