<?xml version='1.0' encoding='UTF-8'?>
<svg version="1.1" xmlns="http://www.w3.org/2000/svg" width="1000" height="600" viewBox="0 0 1000 600">
  <path d="M 646.086,466.073 C 648.280,465.013 653.996,461.244 658.787,457.699 C 663.579,454.153 671.876,448.872 677.225,445.962 C 682.573,443.052 689.998,438.276 693.725,435.348 C 697.451,432.420 702.991,428.268 706.036,426.120 C 714.677,420.026 719.002,414.727 718.990,410.247 C 718.975,404.570 714.936,397.111 708.703,391.250 C 704.141,386.960 702.423,385.971 699.310,385.841 C 690.201,385.462 684.236,386.284 679.004,388.640 C 671.762,391.901 654.508,395.223 644.500,395.284 C 634.534,395.344 622.855,392.248 615.642,387.634 C 612.779,385.802 609.325,383.727 607.968,383.022 L 605.500,381.741 L 608.128,384.620 C 609.573,386.204 611.261,388.483 611.878,389.684 C 613.874,393.570 613.018,408.481 609.923,423.750 C 608.947,428.564 608.628,429.000 606.088,429.000 C 604.564,429.000 601.109,428.330 598.409,427.511 C 595.709,426.692 592.263,426.017 590.750,426.011 C 588.469,426.002 588.000,426.433 588.000,428.540 C 588.000,432.683 591.823,438.962 595.779,441.315 C 597.798,442.517 602.038,444.655 605.202,446.067 C 609.143,447.827 611.874,449.907 613.880,452.676 C 623.806,466.379 635.438,471.217 646.086,466.073 Z" fill="#ff9896" stroke="black" stroke-width="0.5" fill-rule="evenodd"/>
  <path d="M 537.793,453.624 C 540.382,451.218 544.870,447.800 547.766,446.029 C 553.204,442.704 555.000,440.517 555.000,437.221 C 555.000,433.951 551.748,432.136 541.954,429.938 C 536.754,428.772 528.387,426.526 523.360,424.948 C 518.333,423.370 511.133,421.815 507.360,421.493 C 503.587,421.171 499.150,420.713 497.500,420.475 L 494.500,420.043 L 497.163,422.272 C 498.627,423.497 501.683,428.325 503.952,433.000 C 506.222,437.675 508.974,442.400 510.067,443.499 C 512.150,445.595 530.922,457.772 532.293,457.916 C 532.729,457.962 535.204,456.031 537.793,453.624 Z" fill="#ff9896" stroke="black" stroke-width="0.5" fill-rule="evenodd"/>
</svg>
