<?xml version='1.0' encoding='UTF-8'?>
<svg version="1.1" xmlns="http://www.w3.org/2000/svg" width="1000" height="600" viewBox="0 0 1000 600">
  <path d="M 371.829,465.587 C 376.976,462.979 384.024,456.470 386.782,451.778 C 387.983,449.734 391.210,447.552 397.503,444.529 C 407.980,439.495 409.874,437.701 411.524,431.251 C 412.704,426.639 412.672,426.491 410.440,426.190 C 409.175,426.020 405.777,426.583 402.889,427.440 C 395.787,429.549 391.283,429.480 390.593,427.250 C 389.376,423.319 387.000,404.606 387.000,398.957 C 387.000,392.657 388.562,388.347 392.367,384.144 C 394.306,382.003 394.046,382.058 389.500,384.751 C 386.750,386.380 382.925,388.645 381.000,389.783 C 375.310,393.149 365.333,395.317 356.000,395.215 C 345.443,395.100 329.234,391.991 321.978,388.689 C 316.711,386.292 311.453,385.580 301.190,385.876 C 297.444,385.984 296.150,386.686 291.297,391.250 C 285.321,396.869 281.026,404.532 281.010,409.602 C 280.996,413.822 284.449,418.623 291.363,424.000 C 294.546,426.475 300.365,431.075 304.294,434.222 C 308.224,437.368 316.496,442.732 322.677,446.141 C 328.859,449.550 337.423,455.013 341.708,458.282 C 345.994,461.551 351.300,465.065 353.500,466.091 C 359.136,468.719 366.022,468.529 371.829,465.587 Z" fill="#ff9896" stroke="black" stroke-width="0.5" fill-rule="evenodd"/>
  <path d="M 479.124,450.944 C 490.292,444.117 491.313,443.049 496.200,433.093 C 498.511,428.385 501.539,423.479 502.929,422.190 L 505.457,419.847 L 502.978,420.367 C 501.615,420.653 497.225,421.166 493.223,421.507 C 489.220,421.848 483.370,423.025 480.223,424.123 C 477.075,425.221 468.875,427.470 462.000,429.122 C 448.151,432.449 445.000,433.965 445.000,437.301 C 445.000,440.615 447.365,443.443 452.733,446.546 C 455.355,448.061 459.636,451.275 462.247,453.687 C 467.625,458.658 466.100,458.906 479.124,450.944 Z" fill="#ff9896" stroke="black" stroke-width="0.5" fill-rule="evenodd"/>
</svg>
