<?xml version='1.0' encoding='UTF-8'?>
<svg version="1.1" xmlns="http://www.w3.org/2000/svg" width="1000" height="600" viewBox="0 0 1000 600">
  <path d="M 644.342,463.843 C 646.629,462.686 653.225,458.953 659.000,455.548 C 664.775,452.143 673.746,447.139 678.936,444.428 C 686.014,440.732 690.941,437.125 698.646,430.000 C 708.244,421.124 708.892,420.282 708.512,417.188 C 707.235,406.788 699.309,400.679 685.613,399.538 C 674.547,398.616 669.927,399.423 656.099,404.693 C 649.720,407.124 640.955,409.638 636.622,410.279 C 628.971,411.411 628.671,411.560 626.197,415.472 C 624.796,417.688 622.973,421.219 622.146,423.319 L 620.642,427.138 L 615.571,426.319 C 610.884,425.562 598.334,425.521 558.000,426.133 C 543.391,426.354 542.045,426.211 534.587,423.636 C 525.682,420.562 517.582,416.087 509.828,409.959 C 506.940,407.676 500.510,403.778 495.539,401.298 C 490.567,398.818 485.586,395.951 484.469,394.926 C 482.767,393.365 483.187,395.333 487.064,407.089 C 491.147,419.474 492.213,421.664 496.173,425.808 C 498.640,428.388 502.953,433.449 505.758,437.052 C 511.427,444.337 517.313,448.117 525.724,449.876 C 531.947,451.177 542.389,449.513 554.110,445.353 C 563.359,442.070 572.262,441.972 587.000,444.989 C 600.567,447.766 608.768,451.072 617.772,457.394 C 630.544,466.362 632.097,467.124 636.342,466.506 C 638.455,466.199 642.055,465.000 644.342,463.843 Z" fill="#ff9896" stroke="black" stroke-width="0.5" fill-rule="evenodd"/>
</svg>
