<?xml version='1.0' encoding='UTF-8'?>
<svg version="1.1" xmlns="http://www.w3.org/2000/svg" width="1000" height="600" viewBox="0 0 1000 600">
  <path d="M 649.936,292.362 L 654.500,288.223 L 654.388,279.538 C 654.286,271.645 654.009,270.473 651.349,266.689 C 647.525,261.248 637.835,253.378 631.341,250.440 C 627.774,248.826 623.529,247.938 617.591,247.564 C 608.097,246.966 607.287,247.553 611.035,252.318 C 612.155,253.741 613.992,256.988 615.118,259.534 C 618.104,266.284 631.178,285.345 637.523,292.198 C 640.535,295.452 643.014,298.651 643.030,299.307 C 643.047,299.963 643.581,299.600 644.216,298.500 C 644.852,297.400 647.425,294.638 649.936,292.362 Z" fill="#ff9896" stroke="black" stroke-width="0.5" fill-rule="evenodd"/>
  <path d="M 602.852,216.927 C 606.896,216.412 610.615,215.738 611.116,215.428 C 611.618,215.118 612.954,213.050 614.085,210.833 C 615.217,208.615 617.976,204.812 620.218,202.380 L 624.293,197.958 L 623.660,189.747 C 623.137,182.969 622.314,180.050 618.940,173.018 C 616.693,168.333 613.770,163.078 612.445,161.340 C 611.120,159.602 608.378,154.736 606.351,150.526 C 601.998,141.482 600.368,140.402 585.449,136.680 C 572.665,133.491 570.977,132.797 566.552,128.912 C 562.046,124.955 559.630,120.343 557.956,112.500 C 556.185,104.206 555.431,103.000 552.020,103.000 C 547.541,103.000 534.684,109.329 529.551,114.059 C 526.536,116.839 523.705,120.925 521.346,125.902 C 519.366,130.081 515.746,137.028 513.301,141.341 C 507.878,150.909 506.039,158.911 506.023,173.000 C 506.009,185.453 507.172,190.326 511.094,194.248 C 512.692,195.846 514.000,197.569 514.000,198.077 C 514.000,198.585 514.450,199.000 515.000,199.000 C 515.550,199.000 516.000,198.591 516.000,198.091 C 516.000,197.590 518.362,197.809 521.250,198.577 C 530.404,201.012 537.909,201.312 546.860,199.599 C 557.609,197.543 574.076,197.471 577.928,199.463 C 581.292,201.202 582.359,203.461 581.008,205.984 C 579.552,208.707 572.366,214.591 567.638,216.934 L 563.500,218.984 L 579.500,218.423 C 588.300,218.114 598.808,217.441 602.852,216.927 Z" fill="#ff9896" stroke="black" stroke-width="0.5" fill-rule="evenodd"/>
</svg>
