<?xml version='1.0' encoding='UTF-8'?>
<svg version="1.1" xmlns="http://www.w3.org/2000/svg" width="1000" height="600" viewBox="0 0 1000 600">
  <path d="M 453.398,386.886 C 458.417,385.196 462.395,379.746 465.004,370.987 C 467.584,362.324 467.549,361.609 464.037,350.952 C 460.417,339.966 457.029,322.594 456.929,314.500 C 456.803,304.409 455.541,298.389 452.689,294.273 C 451.210,292.138 448.490,285.916 446.644,280.446 C 442.083,266.928 435.832,254.796 431.803,251.643 C 430.000,250.232 428.152,249.448 427.698,249.902 C 427.244,250.356 426.825,254.502 426.767,259.114 C 426.674,266.611 427.151,268.931 431.268,281.000 C 433.801,288.425 436.188,296.300 436.572,298.500 C 436.956,300.700 438.177,304.300 439.285,306.500 C 440.393,308.700 441.417,312.673 441.561,315.328 C 441.705,317.983 442.087,320.421 442.411,320.744 C 443.452,321.785 443.040,328.550 441.659,333.091 C 439.886,338.923 431.896,351.116 427.441,354.788 C 420.943,360.144 410.479,361.475 398.753,358.436 C 391.182,356.474 386.627,357.177 377.633,361.694 C 369.503,365.777 366.000,368.996 366.000,372.382 C 366.000,377.751 370.453,379.351 402.500,385.494 C 418.977,388.653 421.727,388.913 435.000,388.571 C 443.284,388.358 451.171,387.635 453.398,386.886 Z" fill="#dbdb8d" stroke="black" stroke-width="0.5" fill-rule="evenodd"/>
</svg>
