<?xml version='1.0' encoding='UTF-8'?>
<svg version="1.1" xmlns="http://www.w3.org/2000/svg" width="1000" height="600" viewBox="0 0 1000 600">
  <path d="M 435.000,395.475 C 435.000,393.618 434.511,389.818 433.913,387.030 C 432.871,382.171 432.943,381.829 435.663,378.725 C 437.223,376.944 440.960,370.765 443.966,364.994 C 453.922,345.879 465.740,336.862 488.689,330.872 C 501.850,327.437 503.121,326.905 507.737,322.895 C 511.706,319.448 517.313,317.818 526.500,317.441 C 530.350,317.283 535.300,316.679 537.500,316.100 C 539.700,315.521 543.525,315.003 546.000,314.948 C 551.137,314.834 557.196,312.911 557.762,311.215 C 558.310,309.569 549.504,300.467 545.544,298.588 C 540.995,296.429 532.508,296.592 523.705,299.007 C 519.681,300.111 512.003,301.430 506.644,301.937 C 497.458,302.806 496.674,303.062 492.972,306.407 C 488.861,310.121 483.114,313.000 479.813,313.000 C 478.745,313.000 476.798,314.275 475.487,315.833 C 472.913,318.892 464.800,323.543 456.000,327.004 C 452.976,328.194 446.103,331.636 440.728,334.653 C 435.353,337.670 430.181,339.989 429.235,339.807 C 428.289,339.625 426.879,338.148 426.101,336.526 L 424.687,333.576 L 423.301,338.331 C 422.432,341.312 420.454,344.546 417.999,347.001 C 415.845,349.155 413.105,352.848 411.909,355.209 C 410.714,357.569 408.169,361.245 406.255,363.378 C 395.963,374.843 397.017,385.942 409.730,399.991 C 412.865,403.456 418.089,408.225 421.338,410.589 L 427.245,414.887 L 431.123,406.869 C 433.277,402.414 435.000,397.351 435.000,395.475 Z" fill="#dbdb8d" stroke="black" stroke-width="0.5" fill-rule="evenodd"/>
</svg>
