<?xml version='1.0' encoding='UTF-8'?>
<svg version="1.1" xmlns="http://www.w3.org/2000/svg" width="1000" height="600" viewBox="0 0 1000 600">
  <path d="M 587.315,403.084 C 589.963,400.563 593.875,395.900 596.008,392.721 C 602.772,382.642 602.327,374.163 594.532,364.592 C 592.120,361.631 589.196,357.343 588.032,355.063 C 586.869,352.783 584.229,349.229 582.166,347.166 C 580.102,345.102 577.913,342.084 577.301,340.457 C 576.688,338.831 575.858,336.600 575.456,335.500 C 574.766,333.613 574.689,333.636 574.090,335.905 C 572.932,340.290 570.942,340.504 563.990,336.995 C 560.461,335.214 555.982,332.767 554.037,331.558 C 552.092,330.349 548.636,328.627 546.358,327.731 C 537.012,324.056 526.700,318.432 524.487,315.802 C 523.190,314.261 521.182,313.000 520.025,313.000 C 517.153,313.000 510.806,309.646 506.466,305.836 C 503.243,303.006 501.986,302.608 494.188,301.946 C 489.410,301.540 481.825,300.261 477.333,299.104 C 465.562,296.071 458.526,296.279 452.946,299.825 C 448.369,302.732 442.000,309.285 442.000,311.086 C 442.000,312.772 448.625,314.998 453.718,315.024 C 456.348,315.037 460.300,315.512 462.500,316.080 C 464.700,316.648 469.425,317.261 473.000,317.443 C 482.616,317.934 488.204,319.725 493.331,323.962 C 497.150,327.117 499.801,328.218 509.208,330.551 C 533.590,336.600 546.923,346.509 556.902,366.000 C 559.859,371.775 563.345,377.654 564.648,379.064 C 566.848,381.444 566.946,382.013 566.009,386.951 C 564.398,395.447 564.782,398.298 568.500,405.431 C 570.425,409.124 572.000,412.826 572.000,413.658 C 572.000,415.515 580.217,409.843 587.315,403.084 Z" fill="#dbdb8d" stroke="black" stroke-width="0.5" fill-rule="evenodd"/>
</svg>
