<?xml version='1.0' encoding='UTF-8'?>
<svg version="1.1" xmlns="http://www.w3.org/2000/svg" width="1000" height="600" viewBox="0 0 1000 600">
  <path d="M 590.500,386.499 C 628.391,379.751 634.000,377.936 634.000,372.422 C 634.000,369.343 628.926,364.494 622.124,361.073 C 614.385,357.180 609.563,356.540 602.247,358.436 C 590.454,361.492 579.730,360.082 572.434,354.517 C 568.090,351.204 559.358,338.025 557.859,332.520 C 556.440,327.311 558.280,311.343 560.894,306.179 C 561.918,304.156 563.068,300.925 563.449,299.000 C 563.829,297.075 566.210,289.425 568.739,282.000 C 572.916,269.737 573.326,267.696 573.216,259.731 C 573.149,254.908 572.815,250.509 572.473,249.956 C 572.113,249.373 570.178,250.275 567.876,252.098 C 563.197,255.804 558.208,265.124 553.985,278.046 C 552.394,282.916 550.058,288.782 548.796,291.081 C 547.533,293.381 545.941,296.270 545.257,297.503 C 544.573,298.735 543.595,305.539 543.083,312.622 C 542.069,326.655 539.298,340.935 535.456,351.933 C 532.469,360.483 532.440,361.946 535.083,370.645 C 537.323,378.014 541.165,384.483 544.299,386.160 C 550.830,389.655 571.904,389.810 590.500,386.499 Z" fill="#dbdb8d" stroke="black" stroke-width="0.5" fill-rule="evenodd"/>
</svg>
