<?xml version='1.0' encoding='UTF-8'?>
<svg version="1.1" xmlns="http://www.w3.org/2000/svg" width="1000" height="600" viewBox="0 0 1000 600">
  <path d="M 619.624,365.235 C 620.243,364.831 621.054,363.091 621.427,361.370 C 622.267,357.500 619.258,332.716 617.396,328.167 C 616.136,325.088 615.784,324.887 612.766,325.529 C 610.970,325.911 606.166,327.752 602.091,329.620 C 598.017,331.488 594.585,332.900 594.465,332.758 C 591.868,329.686 587.541,319.077 585.445,310.642 C 582.762,299.844 582.567,293.773 584.572,283.473 C 585.112,280.699 584.655,280.053 579.108,275.745 C 574.767,272.374 572.242,269.437 570.181,265.361 L 567.307,259.677 L 561.247,271.089 C 552.559,287.451 550.807,293.703 550.626,309.000 C 550.466,322.553 549.796,324.938 544.015,332.544 C 540.362,337.350 539.401,342.062 540.922,347.710 C 541.907,351.368 542.580,352.056 546.721,353.638 C 549.298,354.622 553.409,356.956 555.857,358.824 C 560.049,362.024 560.634,362.185 565.904,361.591 C 568.982,361.244 576.225,360.715 582.000,360.415 C 591.453,359.924 593.647,360.168 604.000,362.856 C 616.556,366.116 617.951,366.328 619.624,365.235 Z" fill="#bcbd22" stroke="black" stroke-width="0.5" fill-rule="evenodd"/>
</svg>
