<?xml version='1.0' encoding='UTF-8'?>
<svg version="1.1" xmlns="http://www.w3.org/2000/svg" width="1000" height="600" viewBox="0 0 1000 600">
  <path d="M 431.394,407.478 C 435.705,404.653 439.039,398.120 444.105,382.567 C 451.156,360.918 459.566,348.523 471.500,342.192 C 475.697,339.965 477.788,339.536 484.523,339.519 L 492.545,339.500 L 492.545,335.806 C 492.545,329.507 499.402,324.608 512.000,321.907 C 514.890,321.287 519.843,319.018 523.260,316.748 C 531.867,311.031 536.710,309.757 546.750,310.569 C 553.848,311.143 555.000,311.018 555.000,309.674 C 555.000,304.872 542.349,297.404 527.500,293.439 C 518.678,291.083 515.498,290.753 500.500,290.634 C 484.117,290.505 483.106,290.616 472.656,293.693 C 458.301,297.920 446.922,303.523 443.935,307.836 C 442.664,309.671 439.034,313.166 435.868,315.602 C 430.354,319.845 430.000,320.396 427.469,328.693 C 423.645,341.232 421.391,350.427 419.960,359.323 C 419.150,364.358 417.878,368.279 416.391,370.323 C 408.509,381.159 408.206,385.469 414.456,397.913 C 419.582,408.119 422.859,411.384 426.564,409.976 C 427.897,409.469 430.070,408.345 431.394,407.478 Z" fill="#bcbd22" stroke="black" stroke-width="0.5" fill-rule="evenodd"/>
</svg>
