<?xml version='1.0' encoding='UTF-8'?>
<svg version="1.1" xmlns="http://www.w3.org/2000/svg" width="1000" height="600" viewBox="0 0 1000 600">
  <path d="M 459.752,373.384 C 463.306,371.123 466.876,364.929 467.980,359.108 C 469.389,351.674 468.144,337.847 465.314,329.500 C 464.008,325.650 462.412,318.225 461.766,313.000 C 461.121,307.775 460.202,303.228 459.724,302.896 C 459.246,302.564 457.999,297.164 456.953,290.896 C 455.310,281.053 454.317,278.069 449.663,269.000 C 446.699,263.225 443.479,256.369 442.507,253.764 C 440.493,248.370 438.933,246.705 436.697,247.563 C 434.166,248.534 433.000,253.681 432.997,263.899 C 432.991,283.638 431.449,291.042 422.245,315.500 C 416.528,330.691 414.977,333.878 410.243,340.157 C 407.219,344.167 406.093,344.909 402.129,345.503 C 392.798,346.903 388.662,350.919 389.189,358.068 C 389.641,364.213 392.207,365.691 406.547,368.069 C 431.878,372.270 435.852,373.034 438.793,374.271 C 442.720,375.922 456.692,375.331 459.752,373.384 Z" fill="#bcbd22" stroke="black" stroke-width="0.5" fill-rule="evenodd"/>
</svg>
