<?xml version='1.0' encoding='UTF-8'?>
<svg version="1.1" xmlns="http://www.w3.org/2000/svg" width="1000" height="600" viewBox="0 0 1000 600">
  <path d="M 578.981,408.362 C 580.706,406.911 583.939,402.100 586.166,397.670 C 589.747,390.547 590.164,388.996 589.772,384.261 C 589.418,380.000 588.477,377.700 585.164,373.002 C 582.874,369.755 581.000,366.444 581.000,365.646 C 581.000,362.249 576.954,344.554 573.471,332.721 L 569.710,319.941 L 563.605,315.041 C 560.247,312.346 556.632,308.813 555.571,307.189 C 553.122,303.440 539.943,297.013 527.000,293.257 C 518.177,290.696 516.289,290.509 500.500,290.621 C 485.757,290.725 482.230,291.076 473.930,293.267 C 458.790,297.264 445.000,305.029 445.000,309.559 C 445.000,311.010 445.941,311.125 452.817,310.516 C 462.640,309.647 467.120,310.808 476.073,316.547 C 480.583,319.438 485.317,321.505 489.737,322.515 C 501.988,325.313 509.445,331.334 507.392,336.771 L 506.362,339.500 L 514.431,339.515 C 523.873,339.532 529.312,341.579 536.023,347.637 C 545.693,356.367 551.243,366.351 557.396,386.084 C 561.496,399.235 565.596,406.207 570.869,408.993 C 575.514,411.447 575.294,411.465 578.981,408.362 Z" fill="#bcbd22" stroke="black" stroke-width="0.5" fill-rule="evenodd"/>
</svg>
