<?xml version='1.0' encoding='UTF-8'?>
<svg version="1.1" xmlns="http://www.w3.org/2000/svg" width="1000" height="600" viewBox="0 0 1000 600">
  <path d="M 448.701,550.846 C 457.367,548.084 481.384,530.892 502.451,512.372 C 511.964,504.009 515.749,499.561 523.260,487.916 C 526.306,483.195 531.016,477.345 533.727,474.916 C 536.438,472.487 539.922,468.250 541.470,465.500 C 546.459,456.636 550.398,452.611 557.448,449.174 C 562.480,446.721 568.349,442.029 581.460,429.980 C 598.313,414.493 598.890,413.831 601.501,406.998 C 602.979,403.129 605.713,398.139 607.575,395.910 C 611.127,391.659 612.480,387.791 613.307,379.523 C 613.749,375.114 613.648,374.761 612.428,376.429 C 611.671,377.465 610.323,380.816 609.434,383.876 C 608.544,386.936 606.992,391.028 605.985,392.970 C 604.291,396.237 583.873,416.342 580.145,418.415 C 579.240,418.918 578.275,419.647 578.000,420.035 C 577.145,421.241 561.799,431.000 560.757,431.000 C 560.214,431.000 560.490,429.901 561.371,428.557 L 562.971,426.114 L 559.736,427.449 C 557.956,428.183 553.800,429.312 550.500,429.957 C 541.084,431.797 535.387,433.787 522.705,439.668 C 510.370,445.388 499.932,448.462 481.500,451.801 C 463.265,455.104 453.394,460.154 446.694,469.607 C 439.852,479.261 425.063,507.379 423.904,512.938 C 422.577,519.305 423.240,534.680 425.071,540.000 C 427.769,547.836 435.114,554.436 439.959,553.378 C 441.357,553.073 445.290,551.934 448.701,550.846 Z" fill="#ff7f0e" stroke="black" stroke-width="0.5" fill-rule="evenodd"/>
  <path d="M 579.774,414.032 L 581.850,409.500 L 578.919,413.000 C 577.307,414.925 574.528,417.733 572.744,419.239 L 569.500,421.978 L 573.599,420.271 C 576.807,418.935 578.148,417.579 579.774,414.032 Z" fill="#ff7f0e" stroke="black" stroke-width="0.5" fill-rule="evenodd"/>
</svg>
