<?xml version='1.0' encoding='UTF-8'?>
<svg version="1.1" xmlns="http://www.w3.org/2000/svg" width="1000" height="600" viewBox="0 0 1000 600">
  <path d="M 567.771,550.317 C 569.569,548.970 571.770,546.754 572.661,545.395 C 575.049,541.749 576.967,532.467 576.984,524.460 C 577.013,511.536 575.207,507.201 555.921,473.914 C 548.310,460.777 539.286,455.471 517.809,451.503 C 499.466,448.115 488.753,444.888 476.637,439.102 C 465.304,433.690 459.269,431.593 450.606,430.059 C 447.364,429.484 442.260,427.892 439.265,426.521 L 433.817,424.027 L 436.909,426.915 C 440.665,430.424 440.815,431.260 437.458,429.984 C 434.473,428.849 423.404,421.463 422.503,420.005 C 421.666,418.651 422.404,418.735 426.782,420.491 L 430.500,421.983 L 427.500,419.532 C 425.850,418.184 423.217,415.601 421.648,413.791 L 418.796,410.500 L 420.483,413.865 C 422.920,418.726 421.085,419.897 416.873,416.168 C 415.018,414.526 408.934,408.744 403.352,403.321 C 393.237,393.491 393.196,393.432 390.550,384.757 C 389.090,379.970 387.561,375.847 387.152,375.594 C 386.744,375.342 386.729,377.692 387.120,380.818 C 387.511,383.943 387.869,387.243 387.916,388.151 C 387.962,389.059 390.047,392.526 392.550,395.855 C 395.052,399.184 398.023,404.640 399.150,407.979 C 401.101,413.756 402.041,414.827 418.468,429.999 C 431.587,442.115 437.446,446.816 442.855,449.563 C 450.665,453.531 453.182,456.050 458.593,465.315 C 460.579,468.717 464.633,473.673 467.600,476.328 C 470.568,478.984 474.596,483.887 476.553,487.226 C 485.961,503.278 494.201,511.206 528.000,536.728 C 541.741,547.104 546.429,549.831 554.446,552.114 C 561.268,554.057 563.111,553.809 567.771,550.317 Z" fill="#ff7f0e" stroke="black" stroke-width="0.5" fill-rule="evenodd"/>
</svg>
