<?xml version='1.0' encoding='UTF-8'?>
<svg version="1.1" xmlns="http://www.w3.org/2000/svg" width="1000" height="600" viewBox="0 0 1000 600">
  <path d="M 439.391,391.773 C 437.322,388.323 432.843,382.575 429.437,379.000 C 426.031,375.425 421.566,369.828 419.515,366.563 C 417.464,363.298 412.929,356.882 409.437,352.305 C 402.430,343.123 401.403,339.996 402.425,330.964 C 403.560,320.925 405.695,315.720 412.492,306.415 C 416.074,301.512 422.037,293.225 425.742,288.000 C 429.447,282.775 434.573,275.727 437.133,272.338 C 442.964,264.617 444.402,260.367 443.721,252.860 C 443.139,246.436 440.871,241.731 436.950,238.808 C 433.891,236.529 422.924,234.500 405.582,233.007 C 392.221,231.856 387.091,232.164 378.078,234.657 C 370.295,236.809 351.677,246.394 346.904,250.706 C 342.210,254.947 338.110,262.535 335.024,272.695 L 332.860,279.821 L 336.066,292.660 C 339.021,304.496 339.262,306.686 339.138,320.662 L 339.003,335.824 L 342.835,340.662 C 344.943,343.323 347.439,346.135 348.381,346.911 C 354.279,351.771 356.613,360.225 354.402,368.715 C 352.780,374.942 352.589,378.845 354.090,375.091 C 355.426,371.749 357.762,370.267 362.916,369.492 L 367.331,368.828 L 363.416,367.072 C 358.716,364.965 357.477,363.532 356.668,359.263 C 355.901,355.210 358.902,352.000 363.459,352.000 C 370.419,352.000 388.207,358.207 391.938,361.938 C 395.179,365.179 394.499,366.793 389.250,368.328 L 384.500,369.717 L 393.041,370.168 C 404.316,370.764 409.884,373.586 411.821,379.687 C 413.091,383.687 413.442,383.954 420.821,386.545 C 433.467,390.983 438.324,393.634 440.385,397.220 C 441.434,399.045 442.465,399.956 442.711,399.273 C 442.953,398.598 441.459,395.223 439.391,391.773 Z" fill="#ff7f0e" stroke="black" stroke-width="0.5" fill-rule="evenodd"/>
</svg>
