<?xml version='1.0' encoding='UTF-8'?>
<svg version="1.1" xmlns="http://www.w3.org/2000/svg" width="1000" height="600" viewBox="0 0 1000 600">
  <path d="M 565.102,547.727 C 569.646,544.687 571.903,538.011 571.941,527.500 C 571.997,512.202 568.168,502.346 554.510,482.624 C 547.529,472.543 533.783,458.044 528.647,455.342 C 527.077,454.517 521.766,453.333 516.844,452.712 C 508.368,451.642 507.033,451.752 491.648,454.791 C 482.712,456.556 472.620,458.000 469.221,458.000 C 458.033,458.000 449.961,452.991 444.478,442.648 C 438.429,431.237 434.039,425.390 429.754,423.036 C 427.414,421.751 423.025,419.216 420.000,417.401 C 412.103,412.665 409.334,412.173 407.931,415.253 C 405.532,420.518 412.258,428.520 430.847,442.515 C 440.873,450.064 452.694,462.309 459.310,472.000 C 467.725,484.326 488.331,508.432 497.614,516.810 C 501.246,520.088 508.781,525.367 514.359,528.541 C 519.936,531.715 527.789,536.524 531.809,539.227 C 547.852,550.013 557.864,552.569 565.102,547.727 Z" fill="#ff7f0e" stroke="black" stroke-width="0.5" fill-rule="evenodd"/>
  <path d="M 462.856,428.708 C 460.852,426.944 456.802,424.655 453.856,423.621 C 445.413,420.660 445.084,420.691 451.636,423.832 C 455.011,425.450 459.503,427.949 461.619,429.387 C 466.785,432.897 467.296,432.617 462.856,428.708 Z" fill="#ff7f0e" stroke="black" stroke-width="0.5" fill-rule="evenodd"/>
</svg>
