<?xml version='1.0' encoding='UTF-8'?>
<svg version="1.1" xmlns="http://www.w3.org/2000/svg" width="1000" height="600" viewBox="0 0 1000 600">
  <path d="M 572.503,400.863 C 577.102,396.826 580.183,391.488 583.760,381.361 C 586.162,374.560 586.425,372.935 585.361,371.479 C 584.660,370.521 583.582,367.209 582.964,364.118 C 580.455,351.569 572.142,326.574 568.955,322.000 C 567.998,320.625 562.553,316.694 556.857,313.265 C 548.441,308.199 545.320,306.869 540.203,306.174 C 534.725,305.429 533.296,305.601 529.203,307.495 C 524.395,309.720 500.683,316.017 488.041,318.426 C 476.772,320.573 475.045,322.678 475.011,334.303 C 474.991,341.082 471.926,352.283 467.412,362.064 C 463.043,371.533 463.010,371.687 464.084,377.564 C 465.545,385.566 467.646,387.587 476.389,389.402 C 490.357,392.302 511.773,395.016 528.663,396.028 C 546.285,397.083 553.259,398.475 558.500,401.980 C 563.066,405.035 568.221,404.623 572.503,400.863 Z" fill="#c7c7c7" stroke="black" stroke-width="0.5" fill-rule="evenodd"/>
  <path d="M 447.500,308.745 C 452.450,306.280 457.175,303.979 458.000,303.632 C 458.825,303.284 457.250,303.155 454.500,303.344 C 450.686,303.606 447.365,304.917 440.500,308.870 C 435.550,311.721 429.909,314.308 427.964,314.620 C 425.492,315.017 424.429,315.709 424.429,316.924 C 424.429,318.479 425.161,318.377 431.464,315.943 C 435.334,314.449 442.550,311.210 447.500,308.745 Z" fill="#c7c7c7" stroke="black" stroke-width="0.5" fill-rule="evenodd"/>
</svg>
