<?xml version='1.0' encoding='UTF-8'?>
<svg version="1.1" xmlns="http://www.w3.org/2000/svg" width="1000" height="600" viewBox="0 0 1000 600">
  <path d="M 618.271,389.545 C 628.549,387.712 632.132,385.559 633.852,380.181 C 635.211,375.931 634.769,371.000 633.028,371.000 C 632.514,371.000 631.337,372.595 630.412,374.545 C 626.701,382.365 615.372,387.009 600.068,386.984 C 588.645,386.966 580.426,385.209 575.018,381.630 C 570.575,378.690 569.156,378.278 570.960,380.452 C 571.623,381.251 571.873,382.826 571.515,383.952 C 570.949,385.736 571.294,386.000 574.194,386.000 C 576.025,386.000 581.793,387.103 587.012,388.451 C 597.890,391.261 606.882,391.575 618.271,389.545 Z" fill="#c7c7c7" stroke="black" stroke-width="0.5" fill-rule="evenodd"/>
  <path d="M 543.500,363.000 C 540.751,361.819 539.172,361.819 541.000,363.000 C 541.825,363.533 543.175,363.945 544.000,363.914 C 544.989,363.878 544.819,363.567 543.500,363.000 Z" fill="#c7c7c7" stroke="black" stroke-width="0.5" fill-rule="evenodd"/>
  <path d="M 582.699,357.822 C 581.620,355.239 579.756,353.631 574.891,351.087 C 567.577,347.263 559.069,342.087 557.284,340.377 C 556.616,339.736 554.046,338.232 551.573,337.035 C 545.142,333.922 537.477,326.333 534.916,320.544 C 531.795,313.487 531.985,304.305 535.405,297.000 C 538.239,290.947 538.539,287.610 536.923,280.078 C 535.603,273.923 536.898,266.614 541.097,256.519 C 544.418,248.532 544.887,240.878 542.600,231.960 C 541.651,228.262 541.451,224.887 541.979,221.500 C 543.451,212.068 540.267,209.787 531.710,214.144 C 526.063,217.019 513.883,229.414 511.216,235.000 C 508.641,240.393 508.671,239.606 509.903,268.798 C 510.819,290.507 510.135,312.355 508.454,315.075 C 508.096,315.653 508.818,318.911 510.057,322.313 C 512.611,329.325 514.597,332.201 513.639,327.500 C 513.303,325.850 512.743,321.800 512.396,318.500 C 511.865,313.460 512.072,312.120 513.692,310.126 C 515.598,307.779 515.658,307.772 519.060,309.515 C 524.040,312.067 529.040,316.661 532.688,322.038 C 535.760,326.567 546.181,335.262 558.301,343.413 C 561.491,345.558 564.866,348.276 565.801,349.451 C 566.735,350.627 569.975,353.027 573.000,354.783 C 576.025,356.540 579.618,358.851 580.985,359.920 C 584.149,362.394 584.454,362.021 582.699,357.822 Z" fill="#c7c7c7" stroke="black" stroke-width="0.5" fill-rule="evenodd"/>
  <path d="M 562.621,301.790 C 563.108,298.124 562.829,296.419 561.361,294.101 L 559.475,291.123 L 559.609,301.812 C 559.819,318.611 560.386,318.606 562.621,301.790 Z" fill="#c7c7c7" stroke="black" stroke-width="0.5" fill-rule="evenodd"/>
  <path d="M 533.392,292.578 C 533.092,291.796 533.372,290.173 534.016,288.971 C 535.558,286.088 537.332,287.828 536.447,291.355 C 535.723,294.239 534.255,294.827 533.392,292.578 Z" fill="#c7c7c7" stroke="black" stroke-width="0.5" fill-rule="evenodd"/>
</svg>
