<?xml version="1.0" encoding="UTF-8" standalone="no"?>
<svg
   version="1.1"
   width="1000"
   height="600"
   viewBox="0 0 1000 600"
   id="svg235635"
   sodipodi:docname="rTtha_L_medial.svg"
   inkscape:version="1.2 (dc2aeda, 2022-05-15)"
   xmlns:inkscape="http://www.inkscape.org/namespaces/inkscape"
   xmlns:sodipodi="http://sodipodi.sourceforge.net/DTD/sodipodi-0.dtd"
   xmlns="http://www.w3.org/2000/svg"
   xmlns:svg="http://www.w3.org/2000/svg">
  <defs
     id="defs235639" />
  <sodipodi:namedview
     id="namedview235637"
     pagecolor="#ffffff"
     bordercolor="#000000"
     borderopacity="0.25"
     inkscape:showpageshadow="2"
     inkscape:pageopacity="0.0"
     inkscape:pagecheckerboard="0"
     inkscape:deskcolor="#d1d1d1"
     showgrid="false"
     inkscape:zoom="1.0874108"
     inkscape:cx="343.93624"
     inkscape:cy="338.41855"
     inkscape:window-width="1309"
     inkscape:window-height="456"
     inkscape:window-x="0"
     inkscape:window-y="340"
     inkscape:window-maximized="0"
     inkscape:current-layer="svg235635" />
  <path
     d="M 418.928,406.310 C 418.365,404.830 415.928,400.442 413.511,396.560 C 411.095,392.677 407.654,386.367 405.865,382.537 C 402.950,376.297 402.568,374.422 402.187,364.468 C 401.844,355.507 402.084,352.698 403.429,349.930 C 404.924,346.855 404.929,346.707 403.470,348.500 C 398.842,354.190 397.565,358.318 397.590,367.500 C 397.623,379.305 398.797,382.927 406.301,394.388 C 411.302,402.026 417.683,409.000 419.670,409.000 C 419.824,409.000 419.490,407.789 418.928,406.310 Z"
     fill="#c7c7c7"
     stroke="black"
     stroke-width="0.5"
     fill-rule="evenodd"
     id="path235623" />
  <path
     d="M 569.628,406.054 C 574.238,404.864 581.238,398.104 583.464,392.690 C 589.906,377.026 591.488,373.982 595.511,369.507 C 599.809,364.726 600.000,364.249 600.000,358.322 C 600.000,350.374 598.941,347.742 592.995,340.903 C 590.318,337.824 585.415,330.813 582.098,325.323 C 575.131,313.790 561.825,300.137 554.315,296.815 C 551.585,295.607 545.904,294.457 540.130,293.943 C 534.834,293.472 528.025,292.340 525.000,291.429 C 517.170,289.071 510.487,289.973 503.271,294.361 C 500.097,296.291 495.475,298.414 493.000,299.078 C 483.802,301.547 461.289,300.015 457.751,296.679 C 457.032,296.001 452.595,295.376 447.312,295.208 C 438.317,294.923 438.055,294.980 434.812,297.929 L 431.500,300.941 L 434.500,300.116 C 436.150,299.662 438.400,299.618 439.500,300.018 C 440.680,300.446 442.696,300.136 444.418,299.260 C 447.978,297.448 457.601,298.169 467.446,300.985 C 471.051,302.015 474.007,302.553 474.015,302.179 C 474.024,301.806 474.361,301.950 474.765,302.500 C 475.169,303.050 477.691,304.604 480.370,305.953 C 490.655,311.132 493.750,322.688 488.550,336.500 C 487.100,340.350 484.673,345.075 483.156,347.000 C 481.638,348.925 479.359,352.300 478.090,354.500 C 476.821,356.700 473.469,360.643 470.642,363.263 L 465.500,368.026 L 471.500,367.949 C 474.800,367.907 478.650,368.238 480.055,368.686 C 486.660,370.790 490.646,377.144 489.716,384.083 C 489.364,386.706 489.582,388.266 490.336,388.517 C 490.976,388.731 496.275,389.039 502.111,389.203 L 512.722,389.500 L 511.249,387.254 C 506.395,379.855 517.822,369.000 530.465,369.000 C 538.631,369.000 544.438,373.914 546.900,382.907 C 548.105,387.311 549.872,390.450 553.522,394.673 C 556.260,397.841 559.280,402.168 560.234,404.289 C 561.518,407.146 562.425,408.012 563.734,407.632 C 564.705,407.350 567.358,406.640 569.628,406.054 Z"
     fill="#c7c7c7"
     stroke="black"
     stroke-width="0.5"
     fill-rule="evenodd"
     id="path235625" />
</svg>
