<?xml version='1.0' encoding='UTF-8'?>
<svg version="1.1" xmlns="http://www.w3.org/2000/svg" width="1000" height="600" viewBox="0 0 1000 600">
  <path d="M 440.269,380.344 C 439.592,380.070 438.242,380.053 437.269,380.307 C 436.296,380.561 436.850,380.785 438.500,380.805 C 440.150,380.825 440.946,380.618 440.269,380.344 Z" fill="#c7c7c7" stroke="black" stroke-width="0.5" fill-rule="evenodd"/>
  <path d="M 465.935,347.241 C 466.539,344.898 468.157,340.441 469.530,337.337 C 472.557,330.492 472.093,329.209 468.747,335.171 C 460.687,349.535 454.000,361.972 454.000,362.599 C 454.000,362.997 456.438,360.663 459.418,357.412 C 463.006,353.496 465.207,350.062 465.935,347.241 Z" fill="#c7c7c7" stroke="black" stroke-width="0.5" fill-rule="evenodd"/>
  <path d="M 496.990,323.274 C 501.921,317.673 506.428,306.218 508.033,295.212 C 509.844,282.793 508.803,258.484 506.058,249.067 C 502.494,236.838 497.872,227.902 492.917,223.659 L 488.500,219.876 L 487.024,223.188 C 485.872,225.772 485.611,230.128 485.835,243.000 C 486.522,282.446 487.863,324.667 488.491,326.634 C 489.477,329.721 492.296,328.607 496.990,323.274 Z" fill="#c7c7c7" stroke="black" stroke-width="0.5" fill-rule="evenodd"/>
</svg>
