<?xml version='1.0' encoding='UTF-8'?>
<svg version="1.1" xmlns="http://www.w3.org/2000/svg" width="1000" height="600" viewBox="0 0 1000 600">
  <path d="M 412.053,388.519 C 417.249,387.154 423.218,386.029 425.317,386.019 C 428.706,386.002 429.062,385.770 428.485,383.952 C 428.127,382.826 428.358,381.273 428.998,380.503 C 429.638,379.732 426.916,380.766 422.951,382.800 L 415.740,386.500 L 401.120,386.500 C 388.194,386.500 385.951,386.247 381.767,384.314 C 375.126,381.246 370.422,377.432 368.977,373.946 C 367.999,371.582 367.461,371.203 366.372,372.106 C 364.502,373.658 364.682,376.704 366.937,381.669 C 369.223,386.704 371.205,387.860 380.414,389.533 C 391.876,391.614 401.434,391.308 412.053,388.519 Z" fill="#c7c7c7" stroke="black" stroke-width="0.5" fill-rule="evenodd"/>
  <path d="M 429.000,353.508 C 430.925,352.552 433.468,350.570 434.652,349.103 C 435.836,347.636 440.686,343.799 445.431,340.576 C 450.175,337.353 454.332,334.271 454.669,333.727 C 455.005,333.183 453.538,333.921 451.408,335.369 C 449.278,336.816 447.050,338.000 446.456,338.000 C 445.863,338.000 444.433,338.879 443.279,339.954 C 440.349,342.684 431.624,348.163 424.450,351.778 C 420.633,353.702 417.957,355.799 417.200,357.461 C 415.171,361.913 415.819,362.125 420.750,358.622 C 423.363,356.766 427.075,354.465 429.000,353.508 Z" fill="#c7c7c7" stroke="black" stroke-width="0.5" fill-rule="evenodd"/>
  <path d="M 467.674,321.763 C 472.762,314.832 477.783,310.295 481.917,308.893 C 488.003,306.830 489.056,310.949 486.418,326.500 C 485.554,331.596 487.189,330.289 489.547,324.000 C 491.529,318.716 491.525,318.844 490.168,304.000 C 489.453,296.187 489.425,285.127 490.080,269.500 C 490.610,256.850 491.018,245.157 490.988,243.516 C 490.884,237.898 486.304,230.078 478.613,222.387 C 471.233,215.007 466.298,212.000 461.567,212.000 C 458.153,212.000 457.122,214.523 457.957,220.835 C 458.412,224.269 458.189,227.997 457.332,231.303 C 455.168,239.643 455.605,248.896 458.458,255.129 C 462.880,264.794 464.430,272.721 463.135,279.060 C 461.517,286.985 461.749,290.870 464.148,296.000 C 467.197,302.522 467.972,307.733 466.822,313.980 C 465.591,320.667 463.995,323.870 459.193,329.285 L 455.500,333.451 L 459.694,330.186 C 462.001,328.390 465.592,324.600 467.674,321.763 Z" fill="#c7c7c7" stroke="black" stroke-width="0.5" fill-rule="evenodd"/>
  <path d="M 440.471,302.918 L 440.648,289.795 L 438.732,293.531 C 437.336,296.253 436.977,298.384 437.410,301.383 C 437.738,303.648 438.285,308.107 438.626,311.293 C 438.967,314.480 439.482,316.851 439.770,316.563 C 440.058,316.275 440.373,310.135 440.471,302.918 Z" fill="#c7c7c7" stroke="black" stroke-width="0.5" fill-rule="evenodd"/>
  <path d="M 463.545,292.141 C 462.873,290.025 463.781,287.000 465.088,287.000 C 466.247,287.000 467.366,291.598 466.535,292.943 C 465.535,294.562 464.199,294.204 463.545,292.141 Z" fill="#c7c7c7" stroke="black" stroke-width="0.5" fill-rule="evenodd"/>
</svg>
