<?xml version='1.0' encoding='UTF-8'?>
<svg version="1.1" xmlns="http://www.w3.org/2000/svg" width="1000" height="600" viewBox="0 0 1000 600">
  <path d="M 470.906,408.957 C 477.767,405.844 488.618,397.329 490.304,393.734 C 491.138,391.955 492.392,388.475 493.091,386.000 C 494.796,379.964 494.880,351.895 493.209,346.311 C 492.520,344.006 488.996,338.156 485.380,333.311 C 477.933,323.333 476.549,320.908 473.895,313.196 C 471.580,306.465 470.420,305.000 467.405,305.000 C 465.537,305.000 464.612,306.032 462.889,310.037 C 461.697,312.807 459.648,315.919 458.334,316.952 C 456.180,318.647 455.911,319.740 455.584,328.165 C 455.384,333.299 454.630,345.825 453.908,356.000 C 453.186,366.175 452.574,380.350 452.548,387.500 C 452.505,399.109 452.740,400.949 454.743,404.696 C 455.977,407.004 457.777,409.353 458.743,409.916 C 461.476,411.508 466.085,411.145 470.906,408.957 Z" fill="#7f7f7f" stroke="black" stroke-width="0.5" fill-rule="evenodd"/>
</svg>
