<?xml version='1.0' encoding='UTF-8'?>
<svg version="1.1" xmlns="http://www.w3.org/2000/svg" width="1000" height="600" viewBox="0 0 1000 600">
  <path d="M 441.442,207.297 C 442.506,204.016 444.375,201.000 446.499,199.135 C 451.266,194.950 453.503,194.464 456.640,196.931 C 462.263,201.354 467.078,198.723 469.863,189.707 C 480.216,156.189 473.020,127.934 449.646,110.327 C 446.266,107.781 440.800,103.090 437.500,99.903 C 430.763,93.397 427.900,92.000 421.303,92.000 C 411.537,92.000 406.716,98.223 404.988,113.058 C 403.641,124.626 401.796,130.601 397.918,135.955 C 391.007,145.494 388.772,150.087 388.016,156.297 C 387.292,162.245 387.408,162.747 390.843,168.500 C 392.813,171.800 396.717,178.999 399.517,184.497 C 403.039,191.412 405.570,195.111 407.730,196.497 C 426.778,208.722 437.703,214.503 439.127,213.112 C 439.472,212.776 440.514,210.158 441.442,207.297 Z" fill="#2ca02c" stroke="black" stroke-width="0.5" fill-rule="evenodd"/>
</svg>
