<?xml version='1.0' encoding='UTF-8'?>
<svg version="1.1" xmlns="http://www.w3.org/2000/svg" width="1000" height="600" viewBox="0 0 1000 600">
  <path d="M 345.013,436.149 C 353.577,429.817 354.906,429.244 362.711,428.514 C 372.898,427.561 380.488,425.126 388.962,420.092 C 396.683,415.505 402.529,409.342 400.956,407.447 C 400.418,406.799 398.071,406.000 395.739,405.672 C 393.408,405.343 389.137,404.366 386.250,403.499 C 380.094,401.651 380.203,402.176 382.997,387.785 C 385.261,376.123 385.493,369.399 383.889,361.920 C 383.012,357.827 381.628,355.491 377.287,350.769 C 371.615,344.598 367.950,337.844 365.992,329.948 C 364.749,324.938 366.116,325.664 350.265,321.599 C 341.066,319.240 330.168,319.564 319.507,322.512 C 314.561,323.881 309.234,325.000 307.669,325.000 C 303.970,325.000 293.116,330.083 290.317,333.126 C 287.408,336.289 279.553,350.597 276.395,358.487 C 275.000,361.970 271.813,368.123 269.313,372.160 C 264.089,380.593 262.247,388.814 263.440,398.366 C 264.393,405.994 267.621,409.512 281.453,418.000 C 287.279,421.575 297.098,427.811 303.273,431.857 L 314.500,439.213 L 328.259,438.788 C 340.510,438.409 342.347,438.119 345.013,436.149 Z" fill="#2ca02c" stroke="black" stroke-width="0.5" fill-rule="evenodd"/>
</svg>
