<?xml version='1.0' encoding='UTF-8'?>
<svg version="1.1" xmlns="http://www.w3.org/2000/svg" width="1000" height="600" viewBox="0 0 1000 600">
  <path d="M 443.754,210.585 C 444.799,209.257 446.435,204.196 447.389,199.338 C 449.501,188.589 452.101,182.420 454.891,181.535 C 457.849,180.596 458.477,181.212 462.641,189.136 C 466.642,196.750 467.781,197.723 470.803,196.106 C 472.345,195.280 473.196,192.661 474.807,183.779 C 478.005,166.150 478.194,163.291 477.040,149.985 C 475.976,137.732 471.339,116.472 468.567,111.146 C 465.620,105.483 448.374,93.518 439.184,90.761 C 433.075,88.928 432.514,88.914 428.380,90.493 C 421.206,93.233 413.600,103.385 409.635,115.515 C 407.904,120.809 404.579,126.064 396.704,135.948 C 391.772,142.139 387.413,152.587 388.976,154.471 C 389.446,155.037 390.124,158.875 390.484,163.000 C 390.844,167.125 392.034,175.195 393.127,180.933 C 395.299,192.335 395.756,193.100 406.021,202.537 C 411.149,207.252 418.997,211.291 425.000,212.305 C 426.375,212.538 430.730,212.789 434.677,212.864 C 441.159,212.987 442.039,212.766 443.754,210.585 Z" fill="#2ca02c" stroke="black" stroke-width="0.5" fill-rule="evenodd"/>
</svg>
