<?xml version='1.0' encoding='UTF-8'?>
<svg version="1.1" xmlns="http://www.w3.org/2000/svg" width="1000" height="600" viewBox="0 0 1000 600">
  <path d="M 352.924,429.589 C 367.700,428.754 376.029,427.544 384.049,425.067 C 392.086,422.584 403.007,416.119 404.979,412.674 C 406.332,410.314 406.280,409.853 404.384,407.312 C 401.902,403.988 397.195,402.476 383.500,400.604 C 378.000,399.852 374.962,399.183 376.750,399.118 C 379.345,399.024 380.000,398.578 380.000,396.904 C 380.000,395.752 380.820,393.614 381.822,392.154 C 385.480,386.828 387.957,379.488 387.136,376.414 L 386.357,373.500 L 371.968,371.796 C 364.055,370.859 355.537,369.434 353.040,368.630 C 350.543,367.825 345.800,366.850 342.500,366.462 C 332.400,365.277 330.382,364.010 329.103,358.045 C 328.496,355.216 327.998,352.136 327.996,351.201 C 327.991,348.804 324.480,343.327 322.149,342.080 C 320.521,341.208 319.290,341.757 314.846,345.336 C 311.905,347.704 306.040,351.761 301.811,354.353 C 293.665,359.346 289.779,363.200 287.578,368.468 C 286.824,370.273 284.526,372.732 282.365,374.049 C 274.537,378.817 270.163,383.246 267.566,389.031 C 264.431,396.018 264.432,395.946 267.424,401.851 C 271.303,409.504 284.272,418.931 296.540,423.013 C 300.000,424.165 310.168,426.152 319.136,427.429 C 330.746,429.083 335.718,430.191 336.404,431.279 C 337.210,432.557 337.704,432.596 339.434,431.520 C 340.597,430.796 346.490,429.953 352.924,429.589 Z" fill="#2ca02c" stroke="black" stroke-width="0.5" fill-rule="evenodd"/>
</svg>
