<?xml version='1.0' encoding='UTF-8'?>
<svg version="1.1" xmlns="http://www.w3.org/2000/svg" width="1000" height="600" viewBox="0 0 1000 600">
  <path d="M 617.984,206.110 C 624.331,198.746 630.517,192.353 631.732,191.903 C 636.329,190.203 635.935,180.641 630.582,164.000 C 628.724,158.225 626.623,151.250 625.913,148.500 C 623.828,140.415 612.008,129.031 602.053,125.519 C 598.398,124.229 598.289,124.264 595.612,127.620 C 586.631,138.876 578.587,152.019 575.817,159.964 C 572.217,170.290 569.915,173.955 560.970,183.601 C 553.397,191.769 552.482,194.155 553.186,203.889 C 553.493,208.141 554.254,210.491 556.012,212.613 C 558.323,215.404 558.789,215.527 567.958,215.783 C 573.206,215.929 581.100,216.906 585.500,217.954 C 589.900,219.002 596.412,219.779 599.972,219.680 L 606.444,219.500 L 617.984,206.110 Z" fill="#9467bd" stroke="black" stroke-width="0.5" fill-rule="evenodd"/>
</svg>
