<?xml version='1.0' encoding='UTF-8'?>
<svg version="1.1" xmlns="http://www.w3.org/2000/svg" width="1000" height="600" viewBox="0 0 1000 600">
  <path d="M 635.000,425.505 C 642.056,424.581 664.633,418.097 674.000,414.304 C 681.241,411.372 683.404,409.904 688.602,404.399 L 694.705,397.935 L 691.276,387.446 C 687.325,375.355 683.347,369.405 677.251,366.466 C 674.931,365.347 672.506,363.906 671.863,363.263 C 671.165,362.565 670.049,362.423 669.097,362.910 C 668.219,363.359 658.396,364.018 647.269,364.373 C 625.319,365.074 617.835,366.247 603.131,371.288 L 593.762,374.500 L 590.438,382.500 C 582.795,400.896 585.461,410.142 600.624,417.823 C 602.893,418.972 605.818,421.170 607.124,422.706 C 608.765,424.636 610.273,425.412 612.000,425.215 C 613.375,425.058 616.975,425.325 620.000,425.809 C 623.025,426.292 626.625,426.554 628.000,426.391 C 629.375,426.228 632.525,425.829 635.000,425.505 Z" fill="#9467bd" stroke="black" stroke-width="0.5" fill-rule="evenodd"/>
</svg>
