<?xml version='1.0' encoding='UTF-8'?>
<svg version="1.1" xmlns="http://www.w3.org/2000/svg" width="1000" height="600" viewBox="0 0 1000 600">
  <path d="M 338.716,288.212 C 338.885,286.720 339.689,282.575 340.502,279.000 C 341.315,275.425 342.411,267.275 342.936,260.890 C 344.337,243.858 350.644,223.224 356.301,217.165 C 362.428,210.603 368.349,210.740 373.036,217.553 C 374.698,219.967 377.982,223.268 380.336,224.887 C 382.689,226.506 385.199,228.535 385.913,229.395 C 386.926,230.615 387.656,230.719 389.244,229.869 C 392.982,227.869 397.415,226.987 408.791,225.982 C 417.676,225.197 421.672,224.317 427.541,221.854 L 435.000,218.723 L 434.987,214.611 C 434.966,208.221 431.363,192.281 429.132,188.713 C 421.080,175.835 416.125,164.896 412.644,152.314 C 411.702,148.911 409.636,143.267 408.051,139.772 C 406.466,136.277 404.485,130.112 403.649,126.073 C 402.199,119.067 400.000,114.404 400.000,118.335 C 400.000,121.266 396.999,124.848 393.668,125.893 C 391.926,126.440 388.562,127.387 386.193,127.998 C 377.799,130.161 370.238,139.958 359.181,163.000 C 356.137,169.342 351.738,176.426 348.071,180.890 L 342.000,188.279 L 341.980,208.890 C 341.960,230.021 340.864,241.717 337.048,261.489 C 333.811,278.262 333.347,286.354 335.437,289.544 C 337.384,292.516 338.269,292.156 338.716,288.212 Z" fill="#9467bd" stroke="black" stroke-width="0.5" fill-rule="evenodd"/>
</svg>
