<?xml version='1.0' encoding='UTF-8'?>
<svg version="1.1" xmlns="http://www.w3.org/2000/svg" width="1000" height="600" viewBox="0 0 1000 600">
  <path d="M 376.150,450.920 C 379.136,449.322 381.255,443.468 380.489,438.936 C 380.135,436.840 378.259,432.510 376.321,429.313 C 372.946,423.748 372.822,423.210 373.409,416.705 C 374.276,407.101 373.704,406.412 364.293,405.713 C 354.065,404.953 334.518,398.506 323.937,392.403 C 316.161,387.918 313.298,387.245 316.038,390.546 C 316.841,391.513 317.659,396.586 318.120,403.450 C 318.808,413.705 319.217,415.424 322.513,421.890 C 324.511,425.812 327.253,430.336 328.606,431.944 C 330.963,434.744 342.502,442.183 352.000,447.023 C 360.715,451.465 371.792,453.252 376.150,450.920 Z" fill="#fde724" stroke="black" stroke-width="0.5" fill-rule="evenodd"/>
</svg>
