<?xml version='1.0' encoding='UTF-8'?>
<svg version="1.1" xmlns="http://www.w3.org/2000/svg" width="1000" height="600" viewBox="0 0 1000 600">
  <path d="M 550.118,428.121 C 552.661,426.121 562.959,406.503 561.911,405.656 C 560.387,404.426 541.545,395.920 537.329,394.560 C 534.486,393.643 530.148,391.122 527.691,388.959 C 523.853,385.581 523.050,385.235 521.993,386.508 C 521.317,387.323 521.000,388.892 521.288,389.995 C 521.879,392.252 520.993,392.593 519.200,390.800 C 518.267,389.867 518.000,389.912 518.000,391.002 C 518.000,391.774 519.345,393.793 520.989,395.489 C 522.634,397.186 526.725,404.182 530.082,411.037 C 538.007,427.219 540.109,430.000 544.416,430.000 C 546.239,430.000 548.805,429.155 550.118,428.121 Z" fill="#fde724" stroke="black" stroke-width="0.5" fill-rule="evenodd"/>
</svg>
