<?xml version='1.0' encoding='UTF-8'?>
<svg version="1.1" xmlns="http://www.w3.org/2000/svg" width="1000" height="600" viewBox="0 0 1000 600">
  <path d="M 454.221,432.750 C 456.672,430.839 459.763,424.355 462.507,415.371 C 463.918,410.754 466.777,404.567 469.126,401.049 C 472.902,395.394 473.213,394.446 472.702,390.134 C 472.171,385.645 469.268,379.020 467.828,379.006 C 467.458,379.003 466.630,380.592 465.987,382.539 C 465.226,384.844 462.751,387.799 458.886,391.015 C 455.623,393.731 450.769,398.551 448.101,401.726 C 445.432,404.902 441.842,408.822 440.124,410.437 C 436.986,413.387 435.871,418.184 438.014,419.509 C 438.572,419.854 439.972,422.018 441.124,424.318 C 445.318,432.687 450.239,435.855 454.221,432.750 Z" fill="#fde724" stroke="black" stroke-width="0.5" fill-rule="evenodd"/>
</svg>
