<?xml version='1.0' encoding='UTF-8'?>
<svg version="1.1" xmlns="http://www.w3.org/2000/svg" width="1000" height="600" viewBox="0 0 1000 600">
  <path d="M 638.356,450.441 C 644.751,448.819 663.211,438.923 669.475,433.760 C 671.652,431.966 674.702,427.571 677.150,422.701 C 680.863,415.318 681.275,413.706 681.923,404.059 C 682.313,398.252 683.201,392.449 683.897,391.164 C 684.593,389.880 684.940,388.607 684.670,388.336 C 684.399,388.066 680.602,389.906 676.233,392.426 C 665.481,398.628 646.633,405.015 637.000,405.720 C 625.876,406.535 625.707,406.693 626.532,415.498 C 627.205,422.681 627.142,422.969 623.668,428.671 C 619.183,436.030 618.333,440.468 620.440,445.512 C 621.322,447.621 622.538,449.944 623.144,450.673 C 624.614,452.445 630.833,452.350 638.356,450.441 Z" fill="#fde724" stroke="black" stroke-width="0.5" fill-rule="evenodd"/>
</svg>
