<?xml version='1.0' encoding='UTF-8'?>
<svg version="1.1" xmlns="http://www.w3.org/2000/svg" width="1000" height="600" viewBox="0 0 1000 600">
  <path d="M 373.692,445.420 C 374.898,444.655 376.698,442.843 377.692,441.393 C 378.686,439.943 380.529,437.649 381.787,436.296 L 384.074,433.835 L 381.037,427.758 C 377.333,420.346 377.202,415.912 380.496,409.419 C 382.734,405.008 383.610,402.000 382.657,402.000 C 382.468,402.000 379.655,402.953 376.407,404.119 C 371.992,405.702 368.100,406.244 361.000,406.264 C 352.664,406.287 350.213,405.849 341.000,402.691 C 329.570,398.773 317.998,395.883 316.773,396.640 C 316.348,396.903 316.000,397.940 316.000,398.945 C 316.000,399.950 314.219,403.440 312.042,406.700 C 307.110,414.085 306.141,419.276 308.878,423.650 C 311.539,427.902 317.960,432.105 327.000,435.512 C 331.125,437.066 337.425,439.652 341.000,441.259 C 355.092,447.594 367.727,449.202 373.692,445.420 Z" fill="#fde724" stroke="black" stroke-width="0.5" fill-rule="evenodd"/>
</svg>
