<?xml version='1.0' encoding='UTF-8'?>
<svg version="1.1" xmlns="http://www.w3.org/2000/svg" width="1000" height="600" viewBox="0 0 1000 600">
  <path d="M 641.180,446.975 C 647.080,445.884 679.278,433.220 684.771,429.830 C 686.571,428.719 689.200,426.293 690.615,424.438 C 692.785,421.593 693.081,420.437 692.507,417.040 C 692.133,414.826 690.067,410.424 687.916,407.257 C 685.765,404.091 684.004,400.562 684.002,399.417 C 684.001,398.271 683.751,397.085 683.448,396.781 C 682.575,395.908 668.364,399.453 658.536,402.995 C 647.031,407.142 634.215,407.572 624.282,404.145 C 620.861,402.965 617.824,402.000 617.532,402.000 C 616.251,402.000 617.185,405.451 619.250,408.346 C 622.516,412.925 622.340,420.807 618.812,427.936 L 616.124,433.367 L 618.812,436.699 C 620.290,438.532 622.631,441.409 624.014,443.094 C 626.167,445.715 629.997,447.459 634.566,447.898 C 635.153,447.954 638.129,447.539 641.180,446.975 Z" fill="#fde724" stroke="black" stroke-width="0.5" fill-rule="evenodd"/>
</svg>
