<?xml version='1.0' encoding='UTF-8'?>
<svg version="1.1" xmlns="http://www.w3.org/2000/svg" width="1000" height="600" viewBox="0 0 1000 600">
  <path d="M 457.961,191.541 C 461.020,188.384 461.683,188.132 465.543,188.661 L 469.773,189.241 L 470.418,181.870 C 470.773,177.817 471.557,171.646 472.162,168.159 C 473.510,160.383 472.867,153.599 469.945,144.746 C 468.419,140.122 467.366,138.271 466.608,138.877 C 465.999,139.364 462.731,139.954 459.348,140.188 C 454.790,140.503 452.328,141.263 449.848,143.118 C 448.006,144.496 445.070,146.199 443.322,146.903 C 438.355,148.904 436.703,151.307 437.276,155.700 C 438.262,163.266 445.200,188.577 447.158,191.750 C 449.904,196.201 453.512,196.131 457.961,191.541 Z" fill="#fde724" stroke="black" stroke-width="0.5" fill-rule="evenodd"/>
</svg>
