<?xml version='1.0' encoding='UTF-8'?>
<svg version="1.1" xmlns="http://www.w3.org/2000/svg" width="1000" height="600" viewBox="0 0 1000 600">
  <path d="M 626.729,265.695 C 630.350,263.799 631.535,262.288 634.969,255.187 C 637.175,250.625 640.136,245.377 641.549,243.524 C 643.854,240.503 644.012,239.760 643.081,236.328 C 641.113,229.067 637.605,225.346 628.725,221.100 C 616.701,215.351 601.373,210.707 597.079,211.513 C 589.923,212.856 577.134,220.938 567.250,230.363 C 563.327,234.105 563.000,234.812 563.000,239.556 C 563.000,244.516 563.203,244.889 568.804,250.232 C 578.065,259.065 586.690,262.634 606.926,266.007 C 620.778,268.315 621.755,268.300 626.729,265.695 Z" fill="#90d643" stroke="black" stroke-width="0.5" fill-rule="evenodd"/>
</svg>
