<?xml version='1.0' encoding='UTF-8'?>
<svg version="1.1" xmlns="http://www.w3.org/2000/svg" width="1000" height="600" viewBox="0 0 1000 600">
  <path d="M 428.737,537.321 C 433.149,535.227 438.543,527.105 443.028,515.800 C 444.839,511.235 449.221,500.975 452.765,493.000 C 456.310,485.025 460.756,474.767 462.647,470.205 C 464.537,465.643 466.963,460.468 468.038,458.705 C 469.113,456.942 469.994,455.003 469.996,454.395 C 469.998,453.764 466.069,452.727 460.826,451.975 C 444.976,449.703 435.536,453.333 421.924,466.931 C 413.168,475.680 408.802,483.509 406.988,493.716 C 405.934,499.647 406.045,502.039 407.868,512.737 C 411.624,534.783 418.074,542.381 428.737,537.321 Z" fill="#90d643" stroke="black" stroke-width="0.5" fill-rule="evenodd"/>
</svg>
