<?xml version='1.0' encoding='UTF-8'?>
<svg version="1.1" xmlns="http://www.w3.org/2000/svg" width="1000" height="600" viewBox="0 0 1000 600">
  <path d="M 405.867,507.405 C 410.091,505.369 414.694,501.415 424.271,491.595 L 437.042,478.500 L 436.666,471.500 C 436.113,461.205 430.493,445.909 424.941,439.586 C 419.980,433.935 413.138,431.605 401.500,431.603 C 390.532,431.602 382.483,433.460 375.348,437.642 C 369.785,440.902 369.476,441.340 363.359,454.578 C 358.757,464.540 357.943,467.266 357.096,475.538 C 356.235,483.961 356.346,485.693 358.076,490.720 C 361.007,499.240 362.271,500.590 371.498,505.056 C 385.228,511.702 395.496,512.404 405.867,507.405 Z" fill="#90d643" stroke="black" stroke-width="0.5" fill-rule="evenodd"/>
</svg>
