<?xml version='1.0' encoding='UTF-8'?>
<svg version="1.1" xmlns="http://www.w3.org/2000/svg" width="1000" height="600" viewBox="0 0 1000 600">
  <path d="M 388.101,509.838 C 393.455,508.007 401.875,501.888 412.203,492.322 C 417.442,487.470 424.039,481.456 426.864,478.958 C 431.521,474.839 432.000,474.020 432.000,470.183 C 432.000,461.139 419.179,441.487 410.329,436.967 C 405.827,434.667 404.479,434.500 390.425,434.500 C 372.586,434.500 373.682,433.989 359.393,448.959 C 351.551,457.176 350.036,459.333 348.476,464.500 C 346.273,471.799 345.931,487.751 347.859,493.285 C 349.770,498.768 362.626,507.892 371.500,510.062 C 376.230,511.218 384.385,511.108 388.101,509.838 Z" fill="#90d643" stroke="black" stroke-width="0.5" fill-rule="evenodd"/>
</svg>
