<?xml version='1.0' encoding='UTF-8'?>
<svg version="1.1" xmlns="http://www.w3.org/2000/svg" width="1000" height="600" viewBox="0 0 1000 600">
  <path d="M 391.500,266.031 C 412.249,262.628 422.406,258.513 431.661,249.759 C 436.793,244.906 437.000,244.507 437.000,239.463 C 437.000,234.341 436.859,234.084 431.076,228.731 C 423.380,221.606 410.973,213.339 405.941,211.984 C 400.812,210.603 397.036,211.348 382.848,216.538 C 368.519,221.780 362.539,225.202 359.512,229.892 C 355.757,235.709 355.430,239.380 358.326,243.221 C 361.277,247.136 367.680,259.099 368.161,261.597 C 368.506,263.388 375.241,267.698 378.000,267.893 C 378.825,267.952 384.900,267.114 391.500,266.031 Z" fill="#90d643" stroke="black" stroke-width="0.5" fill-rule="evenodd"/>
</svg>
