<?xml version='1.0' encoding='UTF-8'?>
<svg version="1.1" xmlns="http://www.w3.org/2000/svg" width="1000" height="600" viewBox="0 0 1000 600">
  <path d="M 445.775,399.903 C 448.924,398.749 453.429,397.410 455.786,396.926 C 472.117,393.576 477.561,373.126 471.022,339.701 C 465.741,312.709 451.480,282.559 436.013,265.687 C 430.954,260.168 422.950,255.000 419.462,255.000 C 416.951,255.000 415.000,257.571 415.000,260.879 C 415.000,262.541 414.404,264.260 413.675,264.700 C 411.659,265.917 404.000,282.731 404.000,285.941 L 404.000,288.765 L 407.882,284.882 C 411.993,280.772 416.000,279.719 415.999,282.750 C 415.999,283.712 415.117,286.821 414.038,289.658 C 411.629,295.999 411.318,303.356 412.338,330.000 C 413.450,359.051 416.927,378.976 422.976,390.948 C 426.173,397.276 428.557,399.747 432.643,400.972 C 437.202,402.338 439.677,402.137 445.775,399.903 Z" fill="#443982" stroke="black" stroke-width="0.5" fill-rule="evenodd"/>
</svg>
