<?xml version='1.0' encoding='UTF-8'?>
<svg version="1.1" xmlns="http://www.w3.org/2000/svg" width="1000" height="600" viewBox="0 0 1000 600">
  <path d="M 414.516,335.507 C 418.662,329.960 420.025,326.100 423.427,310.259 C 427.038,293.450 429.726,285.179 433.319,279.825 C 434.658,277.829 436.650,271.447 438.303,263.856 C 441.721,248.152 447.163,233.178 455.263,217.185 C 462.161,203.565 463.369,201.918 467.808,200.080 C 469.484,199.385 471.165,198.071 471.542,197.158 C 472.459,194.940 473.494,171.736 473.422,155.000 C 473.370,142.874 473.079,140.686 470.565,133.500 C 464.546,116.297 461.525,111.088 452.587,102.500 C 445.473,95.664 443.915,94.605 441.881,95.220 C 440.571,95.616 435.987,96.665 431.693,97.551 C 425.737,98.780 423.029,99.913 420.276,102.331 C 414.163,107.698 413.304,111.074 412.351,133.500 C 411.293,158.377 411.603,167.417 414.014,182.000 C 417.638,203.916 418.433,232.826 416.568,274.877 C 415.651,295.570 414.441,315.425 413.879,319.000 C 413.317,322.575 410.865,331.468 408.429,338.762 C 405.993,346.055 404.022,352.580 404.050,353.262 C 404.077,353.943 405.938,350.903 408.184,346.507 C 410.431,342.111 413.280,337.161 414.516,335.507 Z" fill="#443982" stroke="black" stroke-width="0.5" fill-rule="evenodd"/>
</svg>
