<?xml version='1.0' encoding='UTF-8'?>
<svg version="1.1" xmlns="http://www.w3.org/2000/svg" width="1000" height="600" viewBox="0 0 1000 600">
  <path d="M 701.799,422.942 C 709.620,419.034 716.432,411.598 718.555,404.653 C 722.279,392.467 721.397,367.502 716.665,351.166 C 714.545,343.847 713.788,342.682 703.813,331.401 C 697.984,324.807 688.778,315.509 683.357,310.737 C 677.936,305.966 669.587,297.833 664.804,292.664 C 656.426,283.609 655.732,283.107 645.807,278.919 C 640.141,276.528 632.018,272.596 627.755,270.181 C 621.155,266.441 618.557,265.586 610.252,264.418 C 604.889,263.664 594.200,262.160 586.500,261.077 C 578.800,259.994 567.325,258.437 561.000,257.618 C 553.930,256.702 547.100,255.141 543.270,253.564 C 537.644,251.249 535.752,251.002 523.770,251.020 C 508.659,251.042 490.531,253.157 486.183,255.405 C 479.385,258.921 469.929,261.796 461.500,262.910 C 442.723,265.391 442.424,265.504 437.807,271.827 C 435.529,274.947 432.166,279.189 430.333,281.253 C 428.500,283.317 427.000,285.454 427.000,286.003 C 427.000,286.551 428.688,287.004 430.750,287.008 C 433.415,287.014 438.551,284.977 448.500,279.969 C 464.837,271.745 471.548,270.035 487.500,270.033 C 500.906,270.031 520.362,271.571 526.773,273.140 C 533.169,274.706 540.297,278.374 544.786,282.408 C 546.829,284.244 551.875,287.438 556.000,289.505 C 568.945,295.992 579.310,304.145 586.390,313.410 C 590.375,318.625 596.289,330.453 600.685,342.000 C 602.046,345.575 604.907,350.770 607.043,353.545 C 609.179,356.320 612.518,361.945 614.463,366.045 C 616.408,370.145 619.551,376.180 621.448,379.455 C 623.344,382.731 626.074,389.256 627.514,393.955 C 631.575,407.209 631.226,406.708 637.191,407.852 C 672.102,414.546 677.041,415.968 684.153,421.378 C 691.525,426.986 693.379,427.150 701.799,422.942 Z" fill="#443982" stroke="black" stroke-width="0.5" fill-rule="evenodd"/>
</svg>
