<?xml version='1.0' encoding='UTF-8'?>
<svg version="1.1" xmlns="http://www.w3.org/2000/svg" width="1000" height="600" viewBox="0 0 1000 600">
  <path d="M 570.003,399.999 C 572.998,398.395 577.632,391.599 579.945,385.416 C 583.706,375.365 586.752,353.979 587.624,331.500 C 588.633,305.497 588.361,296.965 586.355,291.650 C 584.143,285.792 583.514,281.000 584.956,281.000 C 586.789,281.000 590.238,283.000 593.250,285.809 L 596.000,288.374 L 596.000,285.689 C 596.000,284.212 594.473,280.076 592.607,276.497 C 590.741,272.918 588.932,268.867 588.588,267.495 C 588.244,266.123 587.295,265.000 586.481,265.000 C 585.461,265.000 585.000,263.933 585.000,261.571 C 585.000,258.153 582.923,255.000 580.671,255.000 C 578.366,255.000 569.451,260.269 565.678,263.861 C 553.664,275.297 539.242,301.479 532.441,324.199 C 529.242,334.884 526.000,354.784 526.000,363.731 C 526.000,381.661 534.429,397.000 544.282,397.000 C 545.831,397.000 548.537,397.743 550.293,398.652 C 552.050,399.560 554.615,400.671 555.994,401.121 C 559.094,402.134 567.232,401.481 570.003,399.999 Z" fill="#443982" stroke="black" stroke-width="0.5" fill-rule="evenodd"/>
</svg>
