<?xml version='1.0' encoding='UTF-8'?>
<svg version="1.1" xmlns="http://www.w3.org/2000/svg" width="1000" height="600" viewBox="0 0 1000 600">
  <path d="M 604.045,356.000 C 603.098,351.325 601.520,344.800 600.537,341.500 C 596.760,328.816 595.978,323.954 594.990,307.000 C 593.796,286.511 592.448,273.078 590.445,261.697 C 588.347,249.772 588.616,228.138 591.091,209.905 C 593.436,192.623 593.834,176.068 592.677,144.000 C 591.718,117.440 591.614,116.769 587.802,112.428 C 583.403,107.417 579.765,105.835 572.720,105.868 C 564.793,105.906 555.744,110.212 550.089,116.637 C 544.728,122.727 536.578,139.507 533.925,149.915 C 531.974,157.570 531.885,159.141 532.931,167.302 C 535.576,187.922 541.388,207.457 547.627,216.694 C 552.892,224.490 557.858,234.804 562.163,246.883 C 563.806,251.494 567.353,259.233 570.046,264.082 C 574.399,271.923 578.355,283.233 580.510,294.000 C 580.895,295.925 584.055,306.500 587.531,317.500 C 591.008,328.500 594.809,341.325 595.978,346.000 C 597.380,351.605 599.326,356.297 601.692,359.777 C 603.665,362.679 605.390,364.929 605.523,364.777 C 605.657,364.624 604.992,360.675 604.045,356.000 Z" fill="#443982" stroke="black" stroke-width="0.5" fill-rule="evenodd"/>
</svg>
