<?xml version='1.0' encoding='UTF-8'?>
<svg version="1.1" xmlns="http://www.w3.org/2000/svg" width="1000" height="600" viewBox="0 0 1000 600">
  <path d="M 400.605,356.629 C 401.470,355.050 403.247,349.538 404.555,344.381 C 405.863,339.224 409.003,328.816 411.533,321.253 C 414.062,313.689 417.902,300.525 420.066,292.000 C 423.210,279.616 425.183,274.188 429.883,265.000 C 433.119,258.675 436.964,250.153 438.429,246.062 C 442.896,233.588 447.058,224.837 452.034,217.456 C 458.590,207.732 465.337,185.007 467.492,165.390 C 468.649,154.869 462.705,135.931 454.117,122.776 C 446.384,110.931 438.712,105.918 428.237,105.868 C 421.001,105.834 416.589,107.618 412.000,112.436 L 408.500,116.110 L 407.523,140.305 C 406.128,174.834 406.448,190.006 408.988,209.788 C 411.516,229.474 411.387,251.528 408.652,267.500 C 407.804,272.450 406.620,284.600 406.021,294.500 C 404.571,318.489 403.460,327.000 400.405,337.537 C 398.212,345.101 393.990,363.174 394.005,364.929 C 394.013,365.877 398.923,359.703 400.605,356.629 Z" fill="#443982" stroke="black" stroke-width="0.5" fill-rule="evenodd"/>
</svg>
