<?xml version='1.0' encoding='UTF-8'?>
<svg version="1.1" xmlns="http://www.w3.org/2000/svg" width="1000" height="600" viewBox="0 0 1000 600">
  <path d="M 594.430,347.906 C 593.555,345.483 591.272,338.550 589.357,332.500 L 585.875,321.500 L 583.825,282.000 C 582.006,246.963 581.907,239.678 582.949,217.521 C 583.595,203.782 584.786,189.396 585.594,185.552 C 588.221,173.066 588.767,158.613 587.535,134.236 L 586.359,110.971 L 583.392,106.750 C 579.218,100.811 575.069,98.365 566.732,96.930 C 562.754,96.245 558.761,95.316 557.859,94.866 C 556.606,94.240 554.086,96.111 547.212,102.773 C 537.221,112.454 536.455,113.692 530.701,129.463 C 526.771,140.237 526.673,140.821 526.594,154.000 C 526.490,171.576 527.526,195.000 528.512,197.347 C 528.939,198.364 531.152,199.994 533.430,200.970 C 536.950,202.479 538.087,203.778 541.008,209.623 C 542.898,213.405 545.651,218.525 547.126,221.000 C 552.821,230.557 565.223,270.830 563.793,275.122 C 563.584,275.748 564.598,277.444 566.046,278.892 C 569.684,282.530 572.380,290.301 576.434,308.838 C 580.355,326.766 580.750,327.838 586.983,337.509 C 589.467,341.364 592.358,346.431 593.406,348.769 C 595.846,354.210 596.506,353.654 594.430,347.906 Z" fill="#443982" stroke="black" stroke-width="0.5" fill-rule="evenodd"/>
</svg>
