<?xml version='1.0' encoding='UTF-8'?>
<svg version="1.1" xmlns="http://www.w3.org/2000/svg" width="1000" height="600" viewBox="0 0 1000 600">
  <path d="M 402.500,409.831 C 427.796,403.007 438.853,398.686 437.797,396.036 C 437.634,395.627 434.003,392.241 429.729,388.513 C 422.674,382.359 421.500,380.780 416.979,371.360 C 414.241,365.654 412.000,359.994 412.000,358.782 C 412.000,357.368 409.516,354.171 405.067,349.861 C 395.483,340.576 393.814,333.928 398.320,322.976 C 401.273,315.800 404.312,311.518 418.891,294.000 C 430.348,280.233 431.141,278.987 434.577,269.346 C 438.669,257.865 438.516,255.531 433.535,253.450 C 428.160,251.204 400.136,246.857 391.000,246.852 C 383.548,246.847 381.206,247.331 372.000,250.779 C 366.225,252.942 359.152,255.901 356.283,257.356 C 353.414,258.810 350.636,260.000 350.110,260.000 C 349.584,260.000 347.798,258.859 346.140,257.465 L 343.127,254.929 L 341.529,258.298 C 340.650,260.150 337.250,264.492 333.973,267.946 C 328.880,273.315 327.635,275.408 325.398,282.363 C 321.912,293.197 321.060,309.853 323.312,323.163 C 324.181,328.298 325.173,335.875 325.517,340.000 C 325.861,344.125 327.176,353.650 328.439,361.167 C 330.367,372.640 331.341,375.931 334.507,381.667 C 336.582,385.425 338.972,389.300 339.819,390.277 C 344.659,395.862 372.644,411.479 380.377,412.911 C 385.733,413.903 389.189,413.421 402.500,409.831 Z" fill="#35b778" stroke="black" stroke-width="0.5" fill-rule="evenodd"/>
</svg>
