<?xml version='1.0' encoding='UTF-8'?>
<svg version="1.1" xmlns="http://www.w3.org/2000/svg" width="1000" height="600" viewBox="0 0 1000 600">
  <path d="M 623.106,421.660 C 625.523,419.823 634.475,414.874 643.000,410.663 C 656.359,404.064 659.128,402.281 663.048,397.753 C 670.771,388.832 672.726,385.777 676.011,377.500 C 683.795,357.883 684.883,329.455 678.824,304.000 C 676.803,295.511 669.838,280.828 665.630,276.187 C 661.563,271.701 637.078,256.669 623.423,250.274 C 617.987,247.728 616.555,247.505 606.000,247.567 C 596.996,247.619 593.147,248.097 588.267,249.770 C 584.839,250.944 579.214,252.416 575.767,253.041 C 572.320,253.665 568.938,254.641 568.250,255.210 C 565.708,257.314 566.867,263.665 571.351,272.209 C 579.515,287.764 584.026,295.326 587.764,299.720 C 598.953,312.873 602.000,319.827 602.000,332.211 C 602.000,343.815 597.670,358.181 592.890,362.441 C 591.300,363.857 590.000,365.842 590.000,366.852 C 590.000,367.862 587.745,371.266 584.989,374.415 C 578.820,381.465 577.000,384.879 577.000,389.403 C 577.000,394.884 575.222,397.554 569.919,400.038 C 567.241,401.292 564.072,403.359 562.878,404.630 C 559.708,408.004 561.586,409.506 570.760,410.933 C 584.119,413.010 594.842,415.866 602.412,419.364 C 606.433,421.222 610.036,423.250 610.420,423.871 C 611.908,426.278 618.555,425.119 623.106,421.660 Z" fill="#35b778" stroke="black" stroke-width="0.5" fill-rule="evenodd"/>
</svg>
