<?xml version='1.0' encoding='UTF-8'?>
<svg version="1.1" xmlns="http://www.w3.org/2000/svg" width="1000" height="600" viewBox="0 0 1000 600">
  <path d="M 554.712,535.000 C 556.668,531.115 556.297,516.483 554.017,507.567 C 551.291,496.907 542.960,481.412 534.973,472.145 C 531.349,467.940 526.456,461.876 524.099,458.668 L 519.816,452.836 L 511.658,453.489 L 503.500,454.142 L 479.500,442.797 C 437.765,423.069 426.052,416.011 413.840,403.228 C 407.272,396.353 405.231,393.235 398.210,379.354 C 393.768,370.572 389.316,362.393 388.317,361.179 C 386.045,358.417 375.799,356.012 373.204,357.631 C 372.267,358.216 370.447,361.575 369.161,365.097 C 365.650,374.707 366.455,380.353 373.328,394.315 C 386.318,420.703 395.375,430.523 433.012,459.030 C 445.960,468.837 463.967,483.269 473.027,491.102 C 500.415,514.780 520.187,528.260 537.000,534.717 C 547.369,538.700 552.806,538.786 554.712,535.000 Z" fill="#35b778" stroke="black" stroke-width="0.5" fill-rule="evenodd"/>
</svg>
