<?xml version='1.0' encoding='UTF-8'?>
<svg version="1.1" xmlns="http://www.w3.org/2000/svg" width="1000" height="600" viewBox="0 0 1000 600">
  <path d="M 634.235,406.577 C 655.956,395.499 661.666,390.528 667.626,377.503 C 669.879,372.580 673.242,354.416 674.477,340.500 C 674.818,336.650 675.814,329.282 676.689,324.127 C 678.828,311.530 678.041,293.160 674.970,284.000 C 671.840,274.666 670.345,272.145 664.413,266.204 C 661.504,263.290 658.600,259.319 657.960,257.378 C 656.827,253.946 656.754,253.906 655.346,255.916 C 652.400,260.122 650.696,260.203 642.622,256.524 C 638.462,254.628 631.108,251.663 626.279,249.934 C 615.019,245.904 607.206,245.821 585.500,249.501 C 568.623,252.363 563.342,253.944 562.392,256.421 C 561.487,258.780 567.825,276.543 571.339,281.496 C 573.078,283.945 579.919,292.601 586.543,300.731 C 593.167,308.862 599.662,317.736 600.977,320.453 C 606.527,331.918 603.965,342.516 593.476,351.477 C 589.882,354.547 588.000,356.920 588.000,358.381 C 588.000,359.605 586.916,362.833 585.592,365.554 C 584.267,368.274 582.012,373.030 580.580,376.121 C 578.642,380.305 575.953,383.537 570.066,388.759 C 562.645,395.341 562.243,395.902 563.586,397.819 C 565.362,400.355 571.827,402.803 590.750,408.104 C 615.681,415.089 617.683,415.018 634.235,406.577 Z" fill="#35b778" stroke="black" stroke-width="0.5" fill-rule="evenodd"/>
</svg>
