<?xml version='1.0' encoding='UTF-8'?>
<svg version="1.1" xmlns="http://www.w3.org/2000/svg" width="1000" height="600" viewBox="0 0 1000 600">
  <path d="M 459.246,535.860 C 476.954,529.802 499.245,515.294 523.500,494.039 C 538.910,480.535 547.951,473.236 567.500,458.514 C 605.535,429.870 612.818,422.033 626.187,395.360 C 633.577,380.617 634.295,376.249 631.009,366.029 C 628.036,356.783 627.396,356.322 619.675,357.864 C 611.752,359.446 610.788,360.598 601.421,379.684 C 594.976,392.815 592.962,395.938 586.523,402.782 C 573.984,416.111 560.672,424.245 521.437,442.552 L 496.500,454.188 L 489.734,453.532 C 481.076,452.692 479.641,453.208 476.030,458.456 C 474.394,460.834 469.773,466.611 465.761,471.294 C 451.567,487.861 444.987,502.744 444.227,520.000 C 443.644,533.219 445.163,538.000 449.945,538.000 C 451.621,538.000 455.806,537.037 459.246,535.860 Z" fill="#35b778" stroke="black" stroke-width="0.5" fill-rule="evenodd"/>
</svg>
