<?xml version='1.0' encoding='UTF-8'?>
<svg version="1.1" xmlns="http://www.w3.org/2000/svg" width="1000" height="600" viewBox="0 0 1000 600">
  <path d="M 398.836,506.845 C 402.200,505.110 407.550,501.467 410.726,498.750 C 413.902,496.032 421.078,490.715 426.673,486.933 C 432.269,483.152 437.125,479.182 437.464,478.112 C 438.325,475.401 435.512,463.931 432.591,458.241 C 430.324,453.823 422.767,445.802 413.601,438.083 C 409.800,434.882 409.536,434.817 403.163,435.499 L 396.624,436.199 L 398.158,433.850 C 399.001,432.557 402.340,429.676 405.577,427.446 C 410.736,423.893 411.551,422.878 412.174,419.230 C 412.564,416.941 414.203,412.465 415.816,409.284 C 417.428,406.103 420.241,400.389 422.067,396.587 C 423.893,392.785 427.138,387.651 429.279,385.178 C 434.405,379.255 435.683,375.621 437.484,361.853 L 438.092,357.207 L 431.796,356.524 C 428.333,356.149 421.675,355.022 417.000,354.021 C 412.325,353.019 404.841,351.660 400.369,351.000 C 392.893,349.897 391.875,349.962 387.722,351.799 C 385.238,352.898 378.919,356.814 373.680,360.502 C 366.159,365.797 363.221,368.605 359.711,373.854 C 357.266,377.509 351.494,384.598 346.883,389.607 C 333.785,403.837 328.507,414.266 325.457,431.942 C 324.625,436.764 323.506,442.234 322.972,444.098 C 321.584,448.936 321.797,458.513 323.447,465.509 C 327.930,484.516 336.354,492.309 363.500,502.563 C 382.767,509.841 382.672,509.813 388.110,509.914 C 391.442,509.976 394.414,509.126 398.836,506.845 Z" fill="#35b778" stroke="black" stroke-width="0.5" fill-rule="evenodd"/>
</svg>
