<?xml version='1.0' encoding='UTF-8'?>
<svg version="1.1" xmlns="http://www.w3.org/2000/svg" width="1000" height="600" viewBox="0 0 1000 600">
  <path d="M 391.079,422.592 C 398.890,417.284 413.029,413.032 431.115,410.551 C 433.653,410.203 436.578,409.298 437.615,408.540 C 439.444,407.202 439.432,407.089 437.211,404.724 C 435.951,403.384 432.475,401.050 429.486,399.537 C 424.819,397.176 423.976,396.308 423.525,393.394 C 423.236,391.527 422.757,388.436 422.459,386.524 C 422.162,384.613 420.474,381.255 418.709,379.063 C 416.944,376.871 414.206,373.482 412.625,371.531 C 411.044,369.580 409.750,366.900 409.750,365.576 C 409.750,364.086 409.054,362.986 407.925,362.691 C 403.350,361.494 398.000,345.423 398.000,332.876 C 398.000,320.607 401.530,312.382 412.209,299.773 C 416.115,295.161 427.707,275.712 431.039,268.180 C 433.284,263.104 433.566,258.146 431.750,255.695 C 431.029,254.723 427.960,253.562 424.500,252.953 C 421.200,252.373 415.575,250.908 412.000,249.699 C 406.777,247.932 403.240,247.503 394.000,247.516 C 382.528,247.533 382.481,247.543 374.459,251.628 C 356.960,260.540 337.545,272.493 333.833,276.638 C 332.916,277.662 330.288,281.820 327.992,285.878 C 316.563,306.088 313.811,346.420 322.142,371.601 C 325.751,382.507 328.692,387.805 336.000,396.564 C 341.170,402.761 342.400,403.597 356.500,410.516 C 364.750,414.564 373.749,419.479 376.497,421.438 C 382.437,425.672 386.118,425.964 391.079,422.592 Z" fill="#35b778" stroke="black" stroke-width="0.5" fill-rule="evenodd"/>
</svg>
