<?xml version='1.0' encoding='UTF-8'?>
<svg version="1.1" xmlns="http://www.w3.org/2000/svg" width="1000" height="600" viewBox="0 0 1000 600">
  <path d="M 630.011,506.219 C 653.483,494.393 653.862,494.109 665.149,479.950 C 676.336,465.916 679.250,460.294 681.641,448.142 C 684.585,433.180 681.887,422.782 670.864,406.601 C 662.712,394.636 661.325,393.034 653.487,386.537 C 650.194,383.807 644.550,378.857 640.945,375.537 C 631.723,367.045 618.618,357.769 611.175,354.466 C 604.918,351.690 604.798,351.677 600.175,353.308 C 595.893,354.818 588.532,355.876 570.968,357.506 C 567.375,357.840 563.838,358.482 563.106,358.934 C 562.374,359.387 561.424,361.682 560.994,364.035 L 560.211,368.314 L 567.593,375.282 C 575.254,382.514 576.983,385.785 576.994,393.068 C 577.005,400.045 579.705,406.371 584.986,411.793 C 587.744,414.624 590.000,417.658 590.000,418.535 C 590.000,419.412 591.325,421.244 592.944,422.606 C 595.431,424.699 600.000,433.997 600.000,436.967 C 600.000,437.457 597.436,438.603 594.302,439.514 C 586.603,441.753 578.089,446.190 574.762,449.698 C 571.156,453.499 567.000,465.543 567.000,472.189 C 567.000,477.229 567.184,477.577 572.162,481.958 C 575.001,484.456 580.064,489.212 583.412,492.526 C 587.332,496.407 593.415,500.768 600.495,504.776 C 614.648,512.788 616.766,512.892 630.011,506.219 Z" fill="#35b778" stroke="black" stroke-width="0.5" fill-rule="evenodd"/>
</svg>
