<?xml version='1.0' encoding='UTF-8'?>
<svg version="1.1" xmlns="http://www.w3.org/2000/svg" width="1000" height="600" viewBox="0 0 1000 600">
  <path d="M 631.500,504.174 C 663.648,492.293 671.446,485.742 676.490,466.379 C 678.233,459.683 678.454,450.041 676.979,444.993 C 676.417,443.072 675.526,438.514 674.999,434.864 C 673.554,424.869 669.317,412.323 664.771,404.579 C 662.536,400.773 656.885,393.573 652.213,388.579 C 647.540,383.586 642.011,376.800 639.926,373.500 C 636.971,368.822 633.919,365.892 626.077,360.203 C 612.159,350.106 610.586,349.538 600.568,350.994 C 596.131,351.639 589.800,352.776 586.500,353.521 C 583.200,354.266 576.450,355.422 571.500,356.089 C 566.550,356.757 562.370,357.403 562.210,357.525 C 561.623,357.973 564.114,371.654 565.630,376.302 C 566.491,378.943 568.942,383.122 571.077,385.590 C 575.732,390.968 579.323,397.062 581.043,402.500 C 581.738,404.700 583.410,408.252 584.757,410.394 C 586.105,412.536 587.502,416.352 587.863,418.874 C 588.465,423.085 589.000,423.789 594.395,427.480 C 597.627,429.691 600.969,432.555 601.821,433.845 L 603.370,436.190 L 597.825,435.497 C 593.745,434.988 591.515,435.200 589.389,436.302 C 584.366,438.905 569.278,453.794 567.095,458.304 C 563.771,465.169 561.509,475.627 562.756,478.363 C 563.336,479.637 568.427,483.789 574.069,487.589 C 579.711,491.390 586.391,496.311 588.913,498.525 C 603.953,511.725 609.190,512.419 631.500,504.174 Z" fill="#35b778" stroke="black" stroke-width="0.5" fill-rule="evenodd"/>
</svg>
