<?xml version='1.0' encoding='UTF-8'?>
<svg version="1.1" xmlns="http://www.w3.org/2000/svg" width="1000" height="600" viewBox="0 0 1000 600">
  <path d="M 558.359,536.750 C 560.335,533.586 561.135,524.475 560.033,517.701 C 559.519,514.547 556.654,506.236 553.665,499.233 C 538.619,463.981 539.636,465.540 527.781,459.557 C 523.151,457.220 518.955,455.945 514.281,455.455 C 510.552,455.063 505.475,453.736 503.000,452.504 C 500.525,451.273 492.200,447.907 484.500,445.025 C 466.089,438.134 442.825,426.796 431.000,418.951 C 419.666,411.432 398.270,390.426 393.000,381.642 C 385.485,369.116 382.648,365.361 377.934,361.693 L 373.041,357.886 L 366.126,361.994 C 359.554,365.899 359.179,366.323 358.542,370.570 C 358.080,373.646 358.318,375.887 359.306,377.768 C 376.123,409.812 379.222,414.334 395.450,430.515 C 404.285,439.324 415.718,448.796 438.298,466.015 C 519.444,527.894 536.328,538.652 552.727,538.929 C 556.073,538.985 557.247,538.531 558.359,536.750 Z" fill="#35b778" stroke="black" stroke-width="0.5" fill-rule="evenodd"/>
</svg>
