<?xml version='1.0' encoding='UTF-8'?>
<svg version="1.1" xmlns="http://www.w3.org/2000/svg" width="1000" height="600" viewBox="0 0 1000 600">
  <path d="M 435.324,405.405 C 442.395,402.996 444.000,400.313 444.000,390.903 C 444.000,375.755 436.053,362.848 420.542,352.801 C 408.363,344.912 405.417,344.075 400.186,347.015 L 396.154,349.282 L 392.045,347.141 C 389.063,345.586 387.845,345.342 387.601,346.250 C 384.835,356.542 376.631,379.002 374.185,382.977 C 372.074,386.408 372.071,386.468 374.005,387.502 C 375.082,388.079 377.268,390.608 378.863,393.123 C 382.521,398.891 385.985,401.356 393.522,403.557 C 405.902,407.172 427.355,408.120 435.324,405.405 Z" fill="#20908c" stroke="black" stroke-width="0.5" fill-rule="evenodd"/>
</svg>
