<?xml version='1.0' encoding='UTF-8'?>
<svg version="1.1" xmlns="http://www.w3.org/2000/svg" width="1000" height="600" viewBox="0 0 1000 600">
  <path d="M 593.883,421.492 C 602.149,418.961 617.225,412.097 619.847,409.671 C 623.901,405.922 626.000,400.596 626.000,394.060 C 626.000,384.793 623.969,380.981 615.664,374.661 C 611.724,371.663 605.575,366.702 602.000,363.637 C 598.166,360.350 593.169,357.191 589.817,355.935 C 586.692,354.765 583.354,352.943 582.398,351.888 C 580.687,349.996 580.632,349.997 578.581,351.905 C 572.786,357.294 562.582,358.285 556.811,354.018 C 553.091,351.268 551.089,351.965 546.453,357.623 C 542.955,361.891 532.871,369.139 521.515,375.547 C 515.601,378.884 507.395,386.335 505.413,390.169 C 504.636,391.671 504.000,394.733 504.000,396.973 C 504.000,400.353 504.700,401.804 508.121,405.516 C 513.271,411.102 517.366,413.652 522.500,414.467 C 529.584,415.592 535.403,417.265 539.500,419.353 C 548.063,423.718 582.228,425.062 593.883,421.492 Z" fill="#20908c" stroke="black" stroke-width="0.5" fill-rule="evenodd"/>
</svg>
