<?xml version='1.0' encoding='UTF-8'?>
<svg version="1.1" xmlns="http://www.w3.org/2000/svg" width="1000" height="600" viewBox="0 0 1000 600">
  <path d="M 625.798,296.146 C 627.665,294.962 628.548,269.930 627.128,258.453 C 625.952,248.949 621.637,235.594 617.289,228.000 C 610.959,216.946 592.243,196.328 584.514,191.895 C 576.955,187.559 567.970,188.344 564.497,193.646 C 563.597,195.018 561.349,200.640 559.501,206.139 C 557.653,211.637 555.434,217.214 554.570,218.533 C 552.261,222.057 552.565,223.254 557.250,229.078 C 563.025,236.257 568.390,241.513 576.300,247.740 C 585.523,255.002 591.139,262.481 597.954,276.580 C 603.249,287.533 604.247,288.950 608.647,291.771 C 616.426,296.759 622.421,298.288 625.798,296.146 Z" fill="#20908c" stroke="black" stroke-width="0.5" fill-rule="evenodd"/>
</svg>
