<?xml version='1.0' encoding='UTF-8'?>
<svg version="1.1" xmlns="http://www.w3.org/2000/svg" width="1000" height="600" viewBox="0 0 1000 600">
  <path d="M 390.108,286.409 C 392.334,285.136 395.974,280.713 400.697,273.542 C 410.188,259.132 416.552,252.060 425.959,245.468 C 435.588,238.721 441.522,232.383 442.919,227.355 C 444.421,221.944 444.240,207.490 442.592,201.300 C 440.828,194.677 437.926,190.613 433.776,188.957 C 431.974,188.239 429.178,186.738 427.561,185.623 L 424.622,183.595 L 414.742,194.047 C 404.371,205.019 388.372,225.390 385.124,231.758 C 380.773,240.291 378.097,250.767 376.992,263.591 C 375.883,276.469 374.448,285.182 372.969,288.019 C 372.282,289.336 373.146,289.460 379.446,288.944 C 383.849,288.584 388.054,287.584 390.108,286.409 Z" fill="#20908c" stroke="black" stroke-width="0.5" fill-rule="evenodd"/>
</svg>
