<?xml version='1.0' encoding='UTF-8'?>
<svg version="1.1" xmlns="http://www.w3.org/2000/svg" width="1000" height="600" viewBox="0 0 1000 600">
  <path d="M 627.014,288.027 C 625.457,285.117 624.237,277.786 623.066,264.291 C 621.916,251.051 619.470,241.857 614.475,232.000 C 610.409,223.975 596.215,205.656 584.262,193.007 C 575.992,184.254 575.152,183.630 573.500,185.007 C 572.515,185.828 569.419,187.625 566.620,189.000 C 559.319,192.587 556.850,197.790 556.218,210.919 C 555.361,228.716 558.255,234.272 574.479,245.985 C 584.230,253.024 590.219,259.396 596.770,269.701 C 603.505,280.295 607.742,285.792 610.182,287.097 C 611.347,287.721 615.495,288.568 619.400,288.980 C 623.305,289.391 626.853,289.790 627.285,289.864 C 627.717,289.939 627.595,289.112 627.014,288.027 Z" fill="#20908c" stroke="black" stroke-width="0.5" fill-rule="evenodd"/>
</svg>
