<?xml version='1.0' encoding='UTF-8'?>
<svg version="1.1" xmlns="http://www.w3.org/2000/svg" width="1000" height="600" viewBox="0 0 1000 600">
  <path d="M 603.500,404.201 C 614.767,401.173 618.038,398.913 622.879,390.815 C 624.091,388.789 625.739,386.989 626.541,386.815 C 627.720,386.561 627.574,385.828 625.782,383.000 C 623.488,379.379 615.571,358.538 613.816,351.500 C 613.267,349.300 612.651,346.943 612.445,346.262 C 612.178,345.376 611.048,345.629 608.468,347.151 L 604.864,349.278 L 600.014,347.006 L 595.164,344.735 L 588.438,347.882 C 574.647,354.336 564.938,363.256 558.923,375.000 C 557.130,378.502 556.526,381.621 556.200,389.068 C 555.810,397.996 555.940,398.817 558.141,401.358 C 562.285,406.142 566.833,407.115 582.500,406.570 C 591.655,406.251 598.923,405.432 603.500,404.201 Z" fill="#20908c" stroke="black" stroke-width="0.5" fill-rule="evenodd"/>
</svg>
