<?xml version='1.0' encoding='UTF-8'?>
<svg version="1.1" xmlns="http://www.w3.org/2000/svg" width="1000" height="600" viewBox="0 0 1000 600">
  <path d="M 363.959,303.041 C 367.385,299.615 370.183,292.890 373.115,281.036 C 375.142,272.838 376.824,268.354 378.942,265.505 C 380.579,263.302 383.123,259.475 384.595,257.000 C 386.068,254.525 388.341,250.925 389.648,249.000 C 391.993,245.544 391.997,245.489 390.011,244.597 C 388.905,244.101 388.000,243.401 388.000,243.042 C 388.000,242.126 394.397,226.244 399.093,215.500 C 402.048,208.740 403.833,205.980 406.264,204.411 C 410.472,201.694 419.037,198.533 426.186,197.058 C 430.782,196.110 432.554,195.129 435.436,191.940 C 440.548,186.281 440.363,181.515 434.426,165.913 C 428.152,149.423 420.749,133.940 417.884,131.317 C 407.773,122.058 390.381,128.166 377.121,145.634 C 374.254,149.410 367.895,160.661 362.990,170.635 C 358.085,180.609 351.955,191.859 349.368,195.635 C 346.782,199.411 343.309,205.396 341.651,208.936 L 338.637,215.372 L 340.403,227.436 C 341.373,234.071 342.394,248.050 342.670,258.500 C 343.181,277.858 344.829,290.856 347.393,295.764 C 348.975,298.793 353.672,303.449 356.000,304.296 C 359.071,305.414 362.057,304.943 363.959,303.041 Z" fill="#30678d" stroke="black" stroke-width="0.5" fill-rule="evenodd"/>
</svg>
