<?xml version='1.0' encoding='UTF-8'?>
<svg version="1.1" xmlns="http://www.w3.org/2000/svg" width="1000" height="600" viewBox="0 0 1000 600">
  <path d="M 645.190,450.373 C 658.577,445.563 677.572,435.137 684.847,428.607 C 686.138,427.448 688.101,424.732 689.208,422.572 C 694.275,412.689 689.516,391.465 678.298,373.915 C 674.988,368.737 670.141,360.847 667.528,356.383 C 662.866,348.418 662.522,348.096 649.138,339.161 C 633.603,328.789 630.005,327.042 616.907,323.507 C 602.807,319.702 590.807,318.008 577.907,318.004 C 564.586,317.999 563.983,318.169 539.249,328.837 C 527.425,333.937 521.643,337.032 518.021,340.201 C 515.283,342.596 510.467,345.893 507.319,347.528 C 504.171,349.162 499.125,352.791 496.105,355.592 C 490.706,360.599 490.608,360.791 490.212,367.092 C 489.660,375.866 492.465,395.191 496.259,408.761 L 499.407,420.021 L 509.454,429.899 C 520.754,441.010 522.809,441.985 534.940,441.994 C 541.848,442.000 542.851,441.715 548.964,438.022 C 568.708,426.092 581.195,425.629 602.054,436.055 C 605.109,437.582 609.492,440.404 611.793,442.327 C 620.242,449.386 627.600,452.878 634.190,452.956 C 636.220,452.980 641.170,451.818 645.190,450.373 Z" fill="#30678d" stroke="black" stroke-width="0.5" fill-rule="evenodd"/>
</svg>
