<?xml version='1.0' encoding='UTF-8'?>
<svg version="1.1" xmlns="http://www.w3.org/2000/svg" width="1000" height="600" viewBox="0 0 1000 600">
  <path d="M 600.091,434.656 C 602.516,433.916 609.000,430.387 614.500,426.812 C 629.415,417.119 627.771,417.566 635.862,421.009 C 639.728,422.654 644.423,424.000 646.297,424.000 C 653.328,424.000 661.410,415.230 664.562,404.181 C 665.453,401.056 667.353,396.255 668.783,393.511 C 670.772,389.696 671.481,386.639 671.796,380.511 C 672.303,370.656 670.561,364.979 662.432,350.000 C 651.032,328.995 643.092,318.675 635.503,315.001 C 630.349,312.507 627.567,312.815 619.110,316.816 C 614.588,318.956 612.968,320.519 609.046,326.527 C 602.931,335.894 597.278,349.185 594.384,361.000 C 591.448,372.987 576.986,402.093 570.497,409.076 C 565.339,414.627 564.584,416.740 565.946,421.800 C 567.444,427.361 570.987,432.222 575.020,434.248 C 579.325,436.411 593.574,436.643 600.091,434.656 Z" fill="#30678d" stroke="black" stroke-width="0.5" fill-rule="evenodd"/>
</svg>
