<?xml version='1.0' encoding='UTF-8'?>
<svg version="1.1" xmlns="http://www.w3.org/2000/svg" width="1000" height="600" viewBox="0 0 1000 600">
  <path d="M 642.068,452.388 C 657.990,447.662 680.779,431.234 686.226,420.557 C 689.999,413.161 687.395,400.061 677.070,374.500 C 671.276,360.154 670.761,359.283 665.256,354.529 C 662.090,351.795 656.125,346.332 652.000,342.389 C 644.323,335.051 626.028,322.980 618.623,320.367 C 616.372,319.573 608.674,318.260 601.515,317.449 C 594.357,316.638 585.293,315.508 581.373,314.938 C 576.490,314.227 571.120,314.221 564.315,314.920 C 548.056,316.588 544.991,317.576 533.258,324.926 C 527.309,328.653 517.730,333.576 511.971,335.867 C 500.614,340.383 489.722,347.720 486.706,352.886 C 482.815,359.548 480.706,379.920 483.163,387.101 C 484.670,391.504 492.518,405.341 499.270,415.500 C 503.635,422.067 506.415,424.881 514.791,431.211 C 520.402,435.451 526.744,439.392 528.883,439.968 C 533.146,441.116 535.630,440.500 554.000,433.732 C 576.780,425.341 585.500,425.119 600.471,432.551 C 609.672,437.117 610.796,438.002 615.013,444.000 C 617.684,447.799 621.020,451.226 623.041,452.248 C 627.374,454.439 634.972,454.494 642.068,452.388 Z" fill="#30678d" stroke="black" stroke-width="0.5" fill-rule="evenodd"/>
</svg>
