<?xml version='1.0' encoding='UTF-8'?>
<svg version="1.1" xmlns="http://www.w3.org/2000/svg" width="1000" height="600" viewBox="0 0 1000 600">
  <path d="M 643.685,303.936 C 646.744,302.781 651.596,298.562 653.138,295.718 C 655.102,292.096 656.998,277.139 657.032,265.000 C 657.071,251.374 658.287,235.492 660.135,224.479 C 661.648,215.463 660.235,210.898 651.977,198.129 C 648.681,193.032 641.688,180.341 636.438,169.928 C 625.433,148.101 618.444,138.465 609.086,132.216 C 599.302,125.683 589.101,125.338 582.298,131.311 C 578.457,134.684 575.180,141.248 566.438,163.080 C 560.647,177.541 559.698,183.596 562.405,188.800 C 564.892,193.579 568.300,195.688 577.943,198.415 C 583.136,199.883 589.506,202.239 592.097,203.650 C 596.332,205.954 597.213,207.090 600.789,214.857 C 607.225,228.835 612.200,242.037 611.611,243.572 C 611.309,244.357 610.319,245.000 609.409,245.000 C 607.882,245.000 607.879,245.171 609.375,247.250 C 610.266,248.488 611.854,251.087 612.903,253.026 C 613.953,254.965 616.903,259.333 619.459,262.733 C 623.357,267.919 624.492,270.510 626.501,278.809 C 629.228,290.071 631.344,295.867 634.692,301.250 C 637.159,305.215 638.914,305.739 643.685,303.936 Z" fill="#30678d" stroke="black" stroke-width="0.5" fill-rule="evenodd"/>
</svg>
