<?xml version='1.0' encoding='UTF-8'?>
<svg version="1.1" xmlns="http://www.w3.org/2000/svg" width="1000" height="600" viewBox="0 0 1000 600">
  <path d="M 424.500,434.119 C 429.537,431.806 431.542,429.550 433.506,423.984 C 435.611,418.016 434.663,414.623 429.281,408.869 C 424.847,404.129 413.622,384.025 409.254,373.000 C 408.056,369.975 406.136,363.739 404.989,359.143 C 400.581,341.486 389.638,321.368 382.224,317.291 C 372.242,311.803 366.703,312.221 358.755,319.062 C 349.974,326.621 331.423,357.782 328.965,369.102 C 327.174,377.349 328.054,386.724 331.186,392.761 C 332.621,395.526 334.115,399.299 334.506,401.144 C 335.643,406.513 341.959,417.757 345.664,421.010 C 350.181,424.976 354.925,424.961 363.765,420.952 L 370.486,417.905 L 374.493,420.127 C 376.697,421.350 382.378,424.943 387.118,428.112 C 397.475,435.037 399.867,435.800 411.500,435.888 C 418.227,435.939 421.510,435.492 424.500,434.119 Z" fill="#30678d" stroke="black" stroke-width="0.5" fill-rule="evenodd"/>
</svg>
