<?xml version='1.0' encoding='UTF-8'?>
<svg version="1.1" xmlns="http://www.w3.org/2000/svg" width="1000" height="600" viewBox="0 0 1000 600">
  <path d="M 377.606,449.158 C 380.848,447.499 385.737,444.268 388.470,441.978 C 394.266,437.124 397.909,435.167 407.500,431.755 C 416.773,428.456 422.347,427.738 429.000,428.987 C 434.557,430.030 448.824,436.315 453.999,439.999 C 456.179,441.552 458.411,442.000 463.962,442.000 C 476.418,442.000 479.173,440.795 490.057,430.584 C 495.383,425.588 500.229,420.375 500.827,419.000 C 502.950,414.114 506.932,397.342 508.454,386.872 C 510.361,373.762 510.418,365.935 508.637,361.673 C 506.904,357.525 499.755,351.214 492.271,347.225 C 489.071,345.520 483.889,341.881 480.756,339.139 C 477.623,336.397 474.033,333.844 472.780,333.465 C 471.526,333.087 463.075,329.565 454.000,325.639 L 437.500,318.501 L 425.685,318.165 C 411.636,317.766 401.602,318.973 385.807,322.963 C 371.775,326.508 363.310,330.601 347.922,341.280 C 337.178,348.736 336.026,349.859 331.922,356.872 C 329.490,361.028 324.688,368.944 321.250,374.464 C 309.779,392.884 305.775,411.706 311.021,422.544 C 314.011,428.721 321.565,434.549 336.500,442.202 C 359.497,453.986 366.016,455.089 377.606,449.158 Z" fill="#30678d" stroke="black" stroke-width="0.5" fill-rule="evenodd"/>
</svg>
