<?xml version='1.0' encoding='UTF-8'?>
<svg version="1.1" xmlns="http://www.w3.org/2000/svg" width="1000" height="600" viewBox="0 0 1000 600">
  <path d="M 600.072,430.451 C 604.707,427.949 611.842,424.324 615.926,422.396 L 623.353,418.890 L 630.185,421.945 C 634.909,424.057 638.589,425.000 642.109,425.000 C 646.525,425.000 647.633,424.567 650.467,421.733 C 653.901,418.299 656.000,411.602 656.000,404.078 C 656.000,401.975 656.962,398.078 658.139,395.419 C 662.202,386.234 661.466,381.007 653.151,360.000 C 642.329,332.658 635.527,320.493 629.153,317.082 C 623.131,313.859 613.690,317.386 604.882,326.148 C 597.824,333.168 595.180,337.653 587.948,354.861 C 584.796,362.362 580.660,372.100 578.756,376.500 C 576.853,380.900 574.007,387.650 572.431,391.500 C 570.856,395.350 567.639,401.317 565.283,404.760 C 561.300,410.581 561.000,411.484 561.000,417.642 C 561.000,423.871 561.201,424.453 564.383,427.455 C 568.346,431.192 578.934,434.743 586.572,434.897 C 590.800,434.983 593.047,434.243 600.072,430.451 Z" fill="#30678d" stroke="black" stroke-width="0.5" fill-rule="evenodd"/>
</svg>
