<?xml version='1.0' encoding='UTF-8'?>
<svg version="1.1" xmlns="http://www.w3.org/2000/svg" width="1000" height="600" viewBox="0 0 1000 600">
  <path d="M 424.000,400.500 C 431.187,398.571 442.822,398.611 456.473,400.614 C 465.653,401.960 473.526,402.137 503.988,401.682 C 543.109,401.099 550.393,400.364 564.872,395.543 C 575.071,392.146 579.903,387.999 584.500,378.696 C 589.319,368.943 590.524,360.671 589.105,347.079 C 588.249,338.879 587.336,335.150 585.044,330.500 C 579.503,319.253 559.724,299.170 546.724,291.591 C 544.401,290.237 537.325,287.926 531.000,286.457 C 520.614,284.044 518.241,283.840 506.500,284.350 C 491.996,284.981 481.906,287.281 457.478,295.526 C 432.183,304.062 421.999,310.564 410.949,325.229 C 403.454,335.175 402.621,336.826 400.622,345.697 C 396.412,364.381 401.065,388.878 410.795,399.250 C 413.749,402.399 416.096,402.621 424.000,400.500 Z" fill="#440154" stroke="black" stroke-width="0.5" fill-rule="evenodd"/>
</svg>
