<?xml version='1.0' encoding='UTF-8'?>
<svg version="1.1" xmlns="http://www.w3.org/2000/svg" width="1000" height="600" viewBox="0 0 1000 600">
  <path d="M 588.902,402.562 C 593.404,399.720 600.975,388.739 603.346,381.612 C 607.875,367.999 606.505,357.365 598.047,340.500 C 587.991,320.446 577.473,309.826 555.161,297.197 C 540.059,288.649 534.618,287.059 514.500,285.314 C 500.939,284.137 495.192,284.065 486.088,284.955 L 474.675,286.072 L 456.680,295.217 C 441.914,302.722 437.714,305.350 433.271,309.864 C 426.729,316.511 419.550,330.652 415.178,345.500 C 413.558,351.000 411.421,357.603 410.430,360.172 C 408.855,364.253 408.808,365.055 410.063,366.506 C 410.853,367.420 413.750,372.517 416.500,377.834 C 420.647,385.851 422.504,388.301 427.386,392.198 C 437.699,400.430 452.487,404.574 465.000,402.738 C 469.187,402.124 488.624,401.566 509.000,401.475 C 531.469,401.374 548.697,400.845 553.817,400.099 C 562.983,398.763 569.632,399.618 576.000,402.951 C 580.880,405.506 584.407,405.400 588.902,402.562 Z" fill="#440154" stroke="black" stroke-width="0.5" fill-rule="evenodd"/>
</svg>
