<?xml version='1.0' encoding='UTF-8'?>
<svg version="1.1" xmlns="http://www.w3.org/2000/svg" width="1000" height="600" viewBox="0 0 1000 600">
  <path d="M 591.000,384.564 C 601.035,383.966 606.410,382.590 609.058,379.942 C 610.963,378.037 610.929,377.902 606.291,369.016 L 601.595,360.019 L 600.912,338.759 C 600.536,327.067 599.706,315.250 599.068,312.500 C 598.430,309.750 595.470,302.292 592.489,295.926 C 589.509,289.561 584.760,277.861 581.936,269.926 C 576.076,253.461 570.883,243.080 563.727,233.525 C 552.763,218.885 540.907,214.201 525.932,218.593 C 521.758,219.817 519.384,221.366 515.682,225.280 C 509.845,231.449 502.951,245.196 499.847,256.854 C 497.757,264.702 497.695,265.865 498.829,276.065 C 499.493,282.037 501.131,291.102 502.468,296.211 C 505.523,307.884 514.421,328.799 520.444,338.463 C 522.972,342.518 527.039,350.143 529.482,355.407 C 536.304,370.105 540.088,375.435 546.210,378.963 C 549.120,380.640 553.300,382.518 555.500,383.137 C 560.084,384.426 573.820,385.705 579.000,385.326 C 580.925,385.185 586.325,384.842 591.000,384.564 Z" fill="#440154" stroke="black" stroke-width="0.5" fill-rule="evenodd"/>
</svg>
