<?xml version='1.0' encoding='UTF-8'?>
<svg version="1.1" xmlns="http://www.w3.org/2000/svg" width="1000" height="600" viewBox="0 0 1000 600">
  <path d="M 594.500,388.081 C 596.700,387.512 600.133,387.037 602.129,387.024 C 605.144,387.004 605.943,386.535 606.855,384.250 C 609.020,378.829 610.152,371.350 610.167,362.381 C 610.181,353.805 609.945,352.762 606.202,344.881 C 604.013,340.271 601.670,333.800 600.995,330.500 C 598.479,318.191 590.336,305.696 581.271,300.236 C 578.108,298.330 572.847,294.297 569.580,291.272 L 563.640,285.773 L 555.070,286.238 C 543.118,286.888 526.544,293.028 519.795,299.305 C 515.891,302.937 510.910,311.134 506.124,321.806 C 496.863,342.456 495.261,365.180 502.321,375.744 C 505.983,381.223 516.357,388.656 521.245,389.303 C 527.627,390.148 590.562,389.097 594.500,388.081 Z" fill="#440154" stroke="black" stroke-width="0.5" fill-rule="evenodd"/>
</svg>
