<?xml version='1.0' encoding='UTF-8'?>
<svg version="1.1" xmlns="http://www.w3.org/2000/svg" width="1000" height="600" viewBox="0 0 1000 600">
  <path d="M 440.000,383.923 C 446.963,382.732 455.201,378.732 459.456,374.478 C 461.270,372.663 465.376,365.851 468.581,359.340 C 471.785,352.828 476.816,343.495 479.759,338.601 C 490.756,320.315 498.983,296.612 501.189,276.854 C 502.299,266.918 502.232,265.662 500.187,258.024 C 495.283,239.701 486.108,224.041 477.757,219.739 C 472.887,217.231 463.557,216.427 457.151,217.964 C 442.296,221.528 428.322,239.935 418.030,269.500 C 415.732,276.100 411.242,287.125 408.050,294.000 C 404.859,300.875 401.684,308.750 400.994,311.500 C 400.304,314.250 399.427,325.950 399.044,337.500 C 398.294,360.110 397.487,363.974 391.749,372.418 C 389.258,376.084 389.148,377.998 391.272,380.743 C 394.401,384.789 423.747,386.704 440.000,383.923 Z" fill="#440154" stroke="black" stroke-width="0.5" fill-rule="evenodd"/>
</svg>
