<?xml version='1.0' encoding='UTF-8'?>
<svg version="1.1" xmlns="http://www.w3.org/2000/svg" width="1000" height="600" viewBox="0 0 1000 600">
  <path d="M 423.208,403.040 C 429.421,399.374 435.739,398.704 448.709,400.334 C 457.788,401.475 467.107,401.690 489.226,401.267 C 509.958,400.871 520.115,401.069 525.726,401.981 C 537.997,403.976 547.375,403.575 555.733,400.699 C 571.033,395.434 578.201,389.416 584.506,376.541 C 587.031,371.384 589.736,366.634 590.517,365.986 C 591.726,364.982 591.582,364.109 589.542,360.083 C 588.225,357.484 586.420,352.551 585.531,349.121 C 581.647,334.130 575.271,320.031 568.600,311.676 C 564.426,306.449 555.086,300.497 538.688,292.613 C 526.009,286.517 524.080,285.887 515.188,284.937 C 502.989,283.633 476.651,285.328 466.209,288.089 C 452.283,291.771 430.508,304.499 419.410,315.446 C 407.352,327.339 397.078,345.433 394.822,358.750 C 392.630,371.683 396.158,384.673 405.068,396.474 C 411.570,405.085 416.634,406.918 423.208,403.040 Z" fill="#440154" stroke="black" stroke-width="0.5" fill-rule="evenodd"/>
</svg>
