<?xml version='1.0' encoding='UTF-8'?>
<svg version="1.1" xmlns="http://www.w3.org/2000/svg" width="1000" height="600" viewBox="0 0 1000 600">
  <path d="M 484.000,387.276 C 490.010,384.306 494.968,380.097 498.550,374.924 C 501.459,370.724 501.499,370.485 501.439,357.583 C 501.390,347.205 500.914,342.846 499.133,336.500 C 495.996,325.315 486.149,305.425 481.251,300.378 C 474.151,293.062 458.930,287.068 445.443,286.278 L 436.387,285.748 L 430.443,291.245 C 427.174,294.269 421.719,298.499 418.319,300.647 C 408.310,306.969 402.050,316.698 398.557,331.360 C 397.658,335.134 395.411,341.434 393.565,345.360 C 391.718,349.287 390.012,354.525 389.773,357.000 C 389.196,362.978 390.672,376.384 392.528,382.036 L 394.018,386.571 L 404.759,388.083 C 412.602,389.186 424.135,389.581 447.500,389.547 C 478.510,389.501 479.639,389.431 484.000,387.276 Z" fill="#440154" stroke="black" stroke-width="0.5" fill-rule="evenodd"/>
</svg>
