<?xml version='1.0' encoding='UTF-8'?>
<svg version="1.1" xmlns="http://www.w3.org/2000/svg" width="1000" height="600" viewBox="0 0 1000 600">
  <path d="M 509.570,519.977 C 511.732,518.653 516.650,514.616 520.500,511.006 C 524.350,507.397 530.425,502.218 534.000,499.497 C 548.971,488.104 571.982,469.270 578.500,463.074 C 582.350,459.414 590.733,452.515 597.130,447.742 C 616.234,433.487 628.121,419.519 639.075,398.453 C 644.117,388.756 644.188,388.496 643.817,381.054 C 643.197,368.607 636.167,357.117 626.324,352.460 C 618.815,348.908 612.731,348.815 609.344,352.202 C 607.050,354.496 606.793,355.610 606.481,364.611 C 605.864,382.488 601.335,392.161 586.661,406.949 C 580.207,413.453 575.375,417.183 567.282,421.909 C 561.352,425.372 552.000,431.232 546.500,434.933 C 541.000,438.633 530.650,444.910 523.500,448.882 C 516.350,452.854 507.676,458.351 504.223,461.098 C 498.724,465.473 497.329,467.342 492.957,476.184 C 490.213,481.735 486.454,488.351 484.604,490.888 C 477.314,500.884 469.574,519.569 472.325,520.531 C 476.720,522.067 485.061,522.858 494.570,522.639 C 504.251,522.417 506.134,522.083 509.570,519.977 Z" fill="#ffbb78" stroke="black" stroke-width="0.5" fill-rule="evenodd"/>
</svg>
