<?xml version='1.0' encoding='UTF-8'?>
<svg version="1.1" xmlns="http://www.w3.org/2000/svg" width="1000" height="600" viewBox="0 0 1000 600">
  <path d="M 397.000,425.497 C 402.940,423.834 419.548,416.140 425.651,412.224 C 428.318,410.512 431.979,407.585 433.787,405.720 C 436.645,402.771 436.946,401.987 436.085,399.725 C 434.818,396.392 432.227,395.041 425.721,394.321 C 419.901,393.677 414.579,390.934 412.800,387.661 C 412.154,386.472 411.297,383.120 410.894,380.212 C 410.283,375.794 409.478,374.259 406.008,370.892 C 403.650,368.604 400.578,364.018 398.905,360.288 C 394.859,351.270 390.001,337.300 389.996,334.670 C 389.992,332.001 387.212,327.332 383.643,324.000 C 378.725,319.408 372.991,311.330 371.460,306.835 C 369.556,301.249 365.255,295.991 358.522,291.017 C 355.641,288.888 350.667,284.856 347.468,282.057 C 344.268,279.257 340.267,276.604 338.575,276.160 C 335.757,275.421 335.326,275.653 333.421,278.927 C 328.447,287.474 323.034,295.102 319.731,298.218 C 317.301,300.509 315.956,302.834 315.494,305.538 C 315.123,307.717 313.899,313.325 312.776,318.000 C 310.337,328.152 309.320,348.962 310.859,357.235 C 313.595,371.937 316.837,379.600 326.317,393.773 C 333.897,405.103 336.587,408.286 341.726,412.000 C 345.151,414.475 349.815,417.850 352.092,419.500 C 354.368,421.150 357.688,423.293 359.469,424.263 C 365.522,427.557 387.105,428.267 397.000,425.497 Z" fill="#ffbb78" stroke="black" stroke-width="0.5" fill-rule="evenodd"/>
</svg>
