<?xml version='1.0' encoding='UTF-8'?>
<svg version="1.1" xmlns="http://www.w3.org/2000/svg" width="1000" height="600" viewBox="0 0 1000 600">
  <path d="M 521.000,521.676 L 527.500,520.445 L 527.401,516.892 C 527.293,513.017 518.400,494.492 514.291,489.585 C 512.949,487.981 509.435,481.853 506.483,475.967 C 501.742,466.512 500.381,464.680 494.808,460.249 C 491.339,457.491 482.425,451.863 475.000,447.744 C 467.575,443.625 456.480,436.935 450.344,432.877 C 444.208,428.820 435.049,423.025 429.991,420.000 C 423.890,416.351 417.940,411.639 412.313,406.000 C 398.496,392.153 393.987,382.410 393.478,365.302 C 393.065,351.425 389.887,347.845 380.207,350.356 C 366.122,354.010 356.072,366.636 356.022,380.739 C 355.995,388.415 357.861,393.500 365.401,406.299 C 375.884,424.092 387.451,436.669 405.781,450.207 C 411.014,454.073 418.729,460.445 422.924,464.368 C 427.119,468.290 432.565,473.108 435.026,475.074 C 437.487,477.039 448.275,485.652 459.000,494.213 C 469.725,502.774 479.850,511.219 481.500,512.980 C 485.519,517.270 489.517,520.059 493.885,521.620 C 498.456,523.254 512.515,523.283 521.000,521.676 Z" fill="#ffbb78" stroke="black" stroke-width="0.5" fill-rule="evenodd"/>
</svg>
