<?xml version='1.0' encoding='UTF-8'?>
<svg version="1.1" xmlns="http://www.w3.org/2000/svg" width="1000" height="600" viewBox="0 0 1000 600">
  <path d="M 481.707,528.603 C 494.016,526.755 505.407,520.555 520.500,507.490 C 523.800,504.633 530.100,499.673 534.500,496.467 C 538.900,493.261 548.824,484.532 556.553,477.069 C 564.282,469.606 576.989,458.620 584.791,452.655 C 598.692,442.028 613.693,427.451 622.452,416.057 C 629.977,406.269 636.000,392.101 636.000,384.187 C 636.000,380.023 628.150,362.239 623.997,356.996 C 620.121,352.102 611.342,347.446 607.710,348.358 C 604.166,349.247 602.779,352.270 599.612,366.000 C 596.497,379.508 594.572,383.937 585.614,398.207 C 576.824,412.210 570.511,417.983 556.458,424.871 C 550.431,427.824 539.875,433.513 533.000,437.511 C 526.125,441.509 513.525,447.851 505.000,451.603 C 479.472,462.839 477.238,466.110 469.491,503.611 C 467.482,513.339 465.424,522.385 464.919,523.714 C 463.658,527.031 463.606,526.925 467.250,528.509 C 471.291,530.265 470.665,530.261 481.707,528.603 Z" fill="#ffbb78" stroke="black" stroke-width="0.5" fill-rule="evenodd"/>
</svg>
