<?xml version='1.0' encoding='UTF-8'?>
<svg version="1.1" xmlns="http://www.w3.org/2000/svg" width="1000" height="600" viewBox="0 0 1000 600">
  <path d="M 532.328,528.507 C 535.631,527.127 535.831,526.806 534.970,524.257 C 534.459,522.741 532.454,513.913 530.516,504.639 C 526.158,483.792 524.508,477.999 520.933,471.000 C 515.784,460.921 513.493,459.303 489.845,449.051 C 484.534,446.749 475.984,442.417 470.845,439.425 C 465.705,436.432 454.872,430.588 446.771,426.437 C 429.223,417.446 423.591,412.682 415.204,399.734 C 406.108,385.691 403.211,379.258 400.534,367.152 C 397.411,353.033 394.963,347.997 391.230,348.009 C 387.482,348.022 378.908,353.121 375.814,357.177 C 371.407,362.955 364.909,376.969 364.317,381.974 C 363.657,387.541 366.377,397.125 371.186,406.177 C 377.376,417.832 396.451,438.474 411.500,449.803 C 424.801,459.816 432.051,466.076 447.012,480.466 C 453.894,487.085 463.344,495.267 468.012,498.649 C 472.681,502.031 479.425,507.354 483.000,510.478 C 492.382,518.674 506.227,526.572 513.538,527.896 C 526.778,530.296 527.957,530.334 532.328,528.507 Z" fill="#ffbb78" stroke="black" stroke-width="0.5" fill-rule="evenodd"/>
</svg>
