<?xml version='1.0' encoding='UTF-8'?>
<svg version="1.1" xmlns="http://www.w3.org/2000/svg" width="1000" height="600" viewBox="0 0 1000 600">
  <path d="M 639.784,413.026 C 650.977,407.730 658.446,401.676 661.349,395.544 C 662.767,392.550 666.149,387.866 668.865,385.136 C 671.900,382.085 674.078,378.885 674.515,376.836 C 674.907,375.001 676.250,370.336 677.500,366.469 C 679.602,359.968 683.510,327.948 683.415,318.000 C 683.327,308.744 680.816,285.496 679.587,282.554 C 678.227,279.300 669.823,271.794 662.318,267.132 L 658.507,264.765 L 654.190,267.055 C 651.791,268.328 649.169,270.713 648.289,272.423 C 644.793,279.218 636.693,290.197 629.246,298.234 C 618.006,310.366 606.247,333.115 597.835,359.000 C 593.041,373.750 588.595,376.669 566.500,379.573 C 552.643,381.394 552.780,381.338 553.168,385.038 C 553.354,386.816 552.927,388.427 552.140,388.913 C 549.113,390.784 555.722,397.510 566.523,403.550 C 572.460,406.870 574.658,407.461 587.331,409.145 C 603.583,411.305 617.154,413.598 621.500,414.917 C 627.438,416.720 633.244,416.120 639.784,413.026 Z" fill="#ffbb78" stroke="black" stroke-width="0.5" fill-rule="evenodd"/>
</svg>
