<?xml version='1.0' encoding='UTF-8'?>
<svg version="1.1" xmlns="http://www.w3.org/2000/svg" width="1000" height="600" viewBox="0 0 1000 600">
  <path d="M 592.028,350.574 C 591.463,349.087 590.985,345.987 590.967,343.685 C 590.915,337.013 587.891,330.131 580.998,321.000 C 577.469,316.325 572.852,310.177 570.737,307.337 C 566.364,301.466 555.202,293.402 547.000,290.188 C 543.975,289.002 535.827,286.697 528.893,285.065 C 521.959,283.433 514.449,281.363 512.205,280.465 C 508.882,279.136 507.138,279.022 502.812,279.855 C 499.890,280.418 493.479,281.414 488.566,282.069 C 480.953,283.083 477.920,284.118 468.066,289.062 C 461.704,292.254 452.900,297.533 448.500,300.792 C 443.621,304.407 437.574,307.800 433.000,309.489 C 424.326,312.692 424.144,312.836 420.196,319.609 L 417.218,324.718 L 422.213,321.357 C 431.028,315.424 435.683,314.637 460.465,314.884 C 490.974,315.189 504.346,317.121 515.750,322.870 C 518.913,324.464 526.000,326.958 531.500,328.411 C 543.964,331.704 553.736,336.272 566.156,344.612 C 576.715,351.701 581.498,353.214 585.359,350.684 C 587.617,349.205 587.892,349.256 590.049,351.552 C 592.810,354.492 593.406,354.197 592.028,350.574 Z" fill="#17becf" stroke="black" stroke-width="0.5" fill-rule="evenodd"/>
</svg>
