<?xml version='1.0' encoding='UTF-8'?>
<svg version="1.1" xmlns="http://www.w3.org/2000/svg" width="1000" height="600" viewBox="0 0 1000 600">
  <path d="M 415.247,373.250 C 416.323,355.313 423.627,345.129 439.834,338.971 C 446.248,336.534 460.253,325.931 462.832,321.560 C 465.776,316.570 473.425,311.458 481.479,309.097 C 493.801,305.485 524.051,303.792 537.348,305.969 C 540.564,306.496 548.974,308.799 556.036,311.087 C 573.371,316.704 577.881,315.496 573.116,306.513 C 568.977,298.710 557.937,292.065 540.964,287.159 C 528.365,283.517 522.111,282.384 507.000,281.006 C 500.675,280.430 493.621,279.468 491.325,278.870 C 487.679,277.920 486.890,278.025 485.095,279.696 C 483.965,280.749 478.869,282.868 473.770,284.405 C 468.672,285.942 460.900,288.581 456.500,290.270 C 436.715,297.862 431.158,302.423 422.933,317.817 C 420.162,323.003 415.657,330.562 412.923,334.614 C 406.771,343.731 406.003,347.568 406.957,364.420 C 407.676,377.109 407.741,377.382 410.595,379.665 C 412.193,380.944 413.775,381.992 414.111,381.995 C 414.448,381.998 414.959,378.062 415.247,373.250 Z" fill="#17becf" stroke="black" stroke-width="0.5" fill-rule="evenodd"/>
</svg>
