<?xml version='1.0' encoding='UTF-8'?>
<svg version="1.1" xmlns="http://www.w3.org/2000/svg" width="1000" height="600" viewBox="0 0 1000 600">
  <path d="M 584.114,359.816 C 586.251,358.615 588.000,357.336 588.000,356.975 C 588.000,356.073 579.280,341.305 572.662,331.000 C 565.342,319.602 564.528,317.842 561.091,305.983 C 559.462,300.364 557.249,294.807 556.173,293.633 C 553.468,290.683 548.297,280.102 547.510,275.907 C 547.114,273.793 547.433,270.771 548.328,268.174 C 549.741,264.072 549.705,263.803 547.378,261.038 C 544.226,257.291 541.331,250.659 539.902,243.909 C 539.272,240.934 538.094,237.203 537.284,235.618 C 536.474,234.032 535.402,229.844 534.902,226.310 C 534.401,222.776 533.307,218.561 532.470,216.942 C 531.140,214.370 530.402,214.000 526.597,214.000 C 521.086,214.000 519.597,215.657 520.470,220.821 C 520.902,223.380 520.399,227.814 518.998,233.781 C 516.696,243.585 516.584,259.451 518.759,267.500 C 519.354,269.700 520.350,277.350 520.974,284.500 C 522.883,306.410 525.414,313.360 535.385,324.067 C 538.748,327.679 542.555,332.404 543.843,334.567 C 559.863,361.450 560.440,361.996 572.864,361.998 C 578.584,362.000 581.095,361.512 584.114,359.816 Z" fill="#17becf" stroke="black" stroke-width="0.5" fill-rule="evenodd"/>
</svg>
