<?xml version='1.0' encoding='UTF-8'?>
<svg version="1.1" xmlns="http://www.w3.org/2000/svg" width="1000" height="600" viewBox="0 0 1000 600">
  <path d="M 291.000,355.483 C 294.025,354.513 299.978,351.982 304.228,349.860 C 313.309,345.324 317.381,345.017 325.712,348.237 C 330.152,349.954 333.596,350.477 340.500,350.487 C 348.594,350.499 350.191,350.173 356.362,347.250 C 364.599,343.349 370.438,343.046 377.869,346.134 L 383.005,348.269 L 387.140,345.403 C 394.456,340.333 405.010,328.740 409.811,320.500 C 417.775,306.831 422.506,303.002 446.000,291.214 C 457.275,285.557 469.200,280.234 472.500,279.385 C 480.990,277.202 499.151,276.467 507.581,277.966 C 511.387,278.643 518.676,279.129 523.779,279.048 C 528.883,278.966 536.758,279.407 541.279,280.027 C 549.832,281.201 566.667,285.583 568.630,287.146 C 569.747,288.035 569.667,283.515 568.421,275.326 C 567.959,272.291 562.242,266.000 559.945,266.000 C 559.404,266.000 557.057,264.797 554.730,263.327 C 552.372,261.837 546.196,259.636 540.774,258.353 C 529.745,255.745 521.671,251.960 514.736,246.149 C 508.617,241.021 505.248,240.604 469.500,240.545 C 439.493,240.495 435.218,241.147 417.500,248.474 C 413.100,250.293 398.250,254.999 384.500,258.932 C 355.451,267.239 347.215,270.918 329.500,283.497 C 312.399,295.641 310.901,296.981 300.589,309.364 C 295.489,315.489 290.533,321.148 289.576,321.940 C 286.845,324.201 282.392,333.814 279.576,343.527 C 276.746,353.288 276.469,356.139 278.059,359.111 C 279.107,361.069 279.152,361.070 282.309,359.168 C 284.064,358.111 287.975,356.453 291.000,355.483 Z" fill="#c5b0d5" stroke="black" stroke-width="0.5" fill-rule="evenodd"/>
</svg>
