<?xml version='1.0' encoding='UTF-8'?>
<svg version="1.1" xmlns="http://www.w3.org/2000/svg" width="1000" height="600" viewBox="0 0 1000 600">
  <path d="M 733.113,377.110 L 735.447,375.220 L 733.101,365.490 C 731.811,360.139 729.485,353.452 727.931,350.630 C 726.378,347.809 722.340,340.199 718.959,333.719 C 713.320,322.915 711.562,320.606 697.746,305.860 C 683.334,290.477 670.266,279.373 659.500,273.362 C 655.726,271.255 630.768,262.079 619.206,258.547 C 616.294,257.658 607.314,256.016 599.250,254.898 C 589.283,253.517 582.120,251.914 576.877,249.892 C 565.330,245.439 555.422,242.889 546.500,242.074 C 537.052,241.211 492.642,242.610 488.927,243.887 C 487.512,244.374 483.237,247.041 479.427,249.813 C 475.617,252.585 470.160,255.771 467.301,256.892 C 464.441,258.013 457.691,261.137 452.301,263.833 C 446.910,266.529 441.375,269.065 440.000,269.468 C 431.847,271.857 426.598,279.233 426.535,288.390 C 426.502,293.165 426.671,293.520 429.110,293.803 C 430.781,293.997 432.816,293.184 434.763,291.546 C 441.229,286.105 449.952,283.023 463.120,281.525 C 469.929,280.751 477.750,279.446 480.500,278.625 C 483.250,277.804 489.550,276.835 494.500,276.472 C 509.961,275.338 537.884,281.912 550.794,289.726 C 554.224,291.802 560.971,297.325 565.788,302.000 C 570.605,306.675 576.224,311.757 578.273,313.293 C 580.323,314.828 583.874,318.653 586.165,321.793 C 588.455,324.932 593.637,331.173 597.679,335.662 C 601.721,340.152 605.722,345.485 606.570,347.514 C 608.869,353.016 608.676,363.683 606.175,369.337 C 605.041,371.901 604.252,374.000 604.423,374.000 C 604.594,374.000 605.879,372.270 607.278,370.156 C 608.677,368.042 611.451,365.539 613.444,364.594 C 617.583,362.629 626.635,362.361 634.886,363.958 C 637.849,364.531 650.053,365.000 662.005,365.000 C 690.295,365.000 706.192,367.728 715.174,374.124 C 721.952,378.950 729.325,380.177 733.113,377.110 Z" fill="#c5b0d5" stroke="black" stroke-width="0.5" fill-rule="evenodd"/>
</svg>
