<?xml version='1.0' encoding='UTF-8'?>
<svg version="1.1" xmlns="http://www.w3.org/2000/svg" width="1000" height="600" viewBox="0 0 1000 600">
  <path d="M 404.602,357.750 C 409.325,352.623 418.558,339.900 420.828,335.391 C 421.966,333.131 424.473,325.911 426.398,319.347 C 430.200,306.387 435.802,292.491 439.080,287.887 C 442.458,283.143 445.760,273.951 447.504,264.434 C 449.679,252.565 455.761,230.497 458.235,225.500 C 459.324,223.300 461.590,220.053 463.270,218.285 C 464.997,216.468 467.324,212.122 468.624,208.285 C 470.450,202.897 471.331,201.515 472.902,201.573 C 474.502,201.632 474.782,201.156 474.370,199.073 C 474.091,197.658 475.018,190.133 476.431,182.350 C 480.333,160.859 479.506,144.812 473.933,133.856 C 468.529,123.234 450.853,104.801 440.500,98.992 C 437.200,97.140 432.312,94.134 429.638,92.313 C 423.723,88.283 421.790,88.181 418.982,91.750 C 413.086,99.244 411.160,110.450 410.346,142.000 C 409.827,162.124 410.005,168.286 411.343,176.500 C 414.729,197.290 415.221,272.714 412.129,297.000 C 411.534,301.675 410.584,309.601 410.018,314.612 C 408.658,326.651 405.833,337.402 401.521,346.953 C 397.935,354.896 397.532,356.618 398.607,359.418 C 399.530,361.824 401.303,361.331 404.602,357.750 Z" fill="#c5b0d5" stroke="black" stroke-width="0.5" fill-rule="evenodd"/>
</svg>
