<?xml version='1.0' encoding='UTF-8'?>
<svg version="1.1" xmlns="http://www.w3.org/2000/svg" width="1000" height="600" viewBox="0 0 1000 600">
  <path d="M 408.343,346.238 C 412.004,340.043 415.000,334.719 415.000,334.407 C 415.000,334.094 416.503,330.837 418.339,327.169 C 420.814,322.227 421.856,318.558 422.364,313.000 C 423.226,303.553 426.332,292.206 430.115,284.680 C 437.646,269.698 443.659,252.782 445.483,241.450 C 447.471,229.097 448.969,225.676 453.697,222.691 C 455.815,221.354 458.887,218.328 460.524,215.967 C 463.360,211.875 463.516,211.106 463.837,199.587 C 464.151,188.292 463.966,186.845 461.006,177.500 C 459.027,171.252 454.961,162.287 450.169,153.605 C 443.202,140.981 441.694,138.969 433.691,131.619 C 428.845,127.169 423.526,121.272 421.870,118.514 C 418.705,113.244 409.426,104.000 407.301,104.000 C 406.616,104.000 405.274,106.588 404.318,109.750 C 402.300,116.426 402.207,129.465 403.838,177.000 C 404.485,195.843 404.535,225.284 403.978,258.500 C 403.100,310.832 402.830,314.828 398.498,339.673 C 396.945,348.576 396.554,357.675 397.607,360.417 C 398.414,362.520 399.800,360.690 408.343,346.238 Z" fill="#c5b0d5" stroke="black" stroke-width="0.5" fill-rule="evenodd"/>
</svg>
