<?xml version='1.0' encoding='UTF-8'?>
<svg version="1.1" xmlns="http://www.w3.org/2000/svg" width="1000" height="600" viewBox="0 0 1000 600">
  <path d="M 593.000,428.050 C 597.708,423.068 603.473,419.916 616.000,415.475 C 621.775,413.428 628.167,410.910 630.204,409.880 C 632.241,408.849 636.365,407.087 639.369,405.963 C 645.281,403.751 658.537,393.891 661.737,389.325 C 662.826,387.771 664.744,383.350 666.000,379.500 C 668.913,370.567 671.296,367.224 676.401,364.905 C 678.655,363.882 679.963,363.034 679.307,363.022 C 678.651,363.010 675.501,360.582 672.307,357.627 C 665.096,350.956 653.434,343.802 644.380,340.496 C 640.596,339.114 635.202,336.781 632.394,335.310 C 627.335,332.660 627.254,332.651 623.570,334.400 C 620.365,335.921 619.176,336.002 614.945,334.987 C 612.245,334.339 608.116,332.412 605.768,330.703 C 599.507,326.147 589.116,320.601 581.101,317.539 C 573.323,314.567 566.096,314.101 555.000,315.859 C 551.425,316.425 544.675,317.178 540.000,317.531 C 527.914,318.446 490.453,328.376 486.872,331.614 C 482.038,335.986 480.495,340.857 480.574,351.500 C 480.646,361.380 480.711,361.643 486.023,373.441 C 491.874,386.438 493.545,388.501 507.927,400.500 C 527.571,416.890 540.273,423.173 563.828,428.152 C 571.897,429.858 579.850,431.590 581.500,432.000 C 586.115,433.147 589.177,432.095 593.000,428.050 Z" fill="#8c564b" stroke="black" stroke-width="0.5" fill-rule="evenodd"/>
</svg>
