<?xml version='1.0' encoding='UTF-8'?>
<svg version="1.1" xmlns="http://www.w3.org/2000/svg" width="1000" height="600" viewBox="0 0 1000 600">
  <path d="M 421.833,431.078 C 426.050,430.021 434.450,428.173 440.500,426.970 C 457.091,423.673 473.812,415.384 488.995,402.929 C 503.785,390.797 508.201,386.320 510.723,380.903 C 519.606,361.822 519.500,362.178 519.500,351.529 C 519.500,342.484 519.240,341.058 516.854,336.999 C 513.009,330.460 511.516,329.481 501.000,326.601 C 495.775,325.171 487.450,322.864 482.500,321.475 C 477.500,320.071 466.866,318.271 458.572,317.423 C 450.362,316.585 443.260,315.661 442.790,315.370 C 442.320,315.080 438.463,314.848 434.218,314.856 C 423.288,314.876 411.602,319.425 395.531,329.916 C 386.557,335.775 381.710,336.905 376.391,334.381 C 372.673,332.617 372.633,332.621 367.717,335.366 C 365.002,336.882 359.660,339.248 355.847,340.623 C 346.521,343.987 334.631,351.275 327.116,358.232 L 320.941,363.949 L 324.303,365.353 C 328.971,367.304 331.451,370.845 334.446,379.838 C 337.455,388.873 340.689,393.144 349.326,399.485 C 356.267,404.582 365.832,409.099 382.491,415.149 C 396.291,420.160 404.631,424.574 407.371,428.317 C 409.105,430.687 411.680,432.527 413.833,432.937 C 414.017,432.971 417.617,432.135 421.833,431.078 Z" fill="#8c564b" stroke="black" stroke-width="0.5" fill-rule="evenodd"/>
</svg>
