<?xml version='1.0' encoding='UTF-8'?>
<svg version="1.1" xmlns="http://www.w3.org/2000/svg" width="1000" height="600" viewBox="0 0 1000 600">
  <path d="M 587.846,430.533 C 596.838,425.563 614.504,418.623 623.430,416.553 C 627.067,415.709 631.946,414.036 634.271,412.834 C 636.597,411.633 642.197,409.266 646.715,407.575 C 652.779,405.305 656.706,402.983 661.715,398.705 C 665.447,395.518 670.746,391.468 673.491,389.705 C 679.266,385.996 680.902,383.169 681.156,376.457 C 681.329,371.864 681.102,371.416 676.471,367.223 C 668.127,359.668 655.469,351.253 647.395,347.892 C 642.120,345.696 638.047,343.124 634.633,339.833 C 630.242,335.601 629.090,335.000 625.371,335.000 C 622.608,335.000 614.898,332.699 603.312,328.417 C 581.340,320.295 580.391,320.053 570.428,320.024 C 562.830,320.001 536.071,323.900 529.500,325.988 C 527.850,326.512 520.776,328.069 513.780,329.448 C 501.757,331.818 500.727,332.214 495.005,336.658 C 491.675,339.244 487.612,343.381 485.975,345.851 C 483.473,349.629 483.000,351.334 483.000,356.582 C 483.000,360.014 483.849,365.549 484.887,368.883 C 486.600,374.389 487.730,375.858 497.218,384.917 C 506.496,393.775 514.777,400.942 528.337,411.849 C 534.220,416.581 538.300,418.541 557.000,425.622 C 574.794,432.360 582.360,433.565 587.846,430.533 Z" fill="#8c564b" stroke="black" stroke-width="0.5" fill-rule="evenodd"/>
</svg>
