<?xml version='1.0' encoding='UTF-8'?>
<svg version="1.1" xmlns="http://www.w3.org/2000/svg" width="1000" height="600" viewBox="0 0 1000 600">
  <path d="M 643.204,316.054 C 646.200,313.697 650.008,305.452 653.911,292.870 C 655.510,287.716 658.274,279.450 660.054,274.500 C 665.626,259.002 665.361,237.842 659.355,218.759 C 658.015,214.502 655.608,205.052 654.007,197.759 C 648.805,174.078 643.354,161.990 634.420,154.333 C 631.319,151.675 627.660,147.925 626.287,146.000 L 623.792,142.500 L 624.402,155.000 C 624.738,161.875 626.148,173.125 627.536,180.000 C 630.792,196.129 631.641,207.399 630.069,213.642 C 629.400,216.297 626.186,222.732 622.927,227.942 C 616.597,238.059 616.278,239.297 618.393,245.500 C 619.144,247.700 620.059,253.775 620.429,259.000 C 621.790,278.257 633.112,315.251 638.288,317.350 C 640.297,318.165 640.633,318.077 643.204,316.054 Z" fill="#8c564b" stroke="black" stroke-width="0.5" fill-rule="evenodd"/>
</svg>
