<?xml version='1.0' encoding='UTF-8'?>
<svg version="1.1" xmlns="http://www.w3.org/2000/svg" width="1000" height="600" viewBox="0 0 1000 600">
  <path d="M 641.209,308.250 C 644.659,304.578 651.446,290.728 652.847,284.500 C 656.687,267.432 658.195,254.298 657.553,243.500 C 655.322,205.983 655.814,209.040 649.033,190.510 C 641.464,169.823 633.199,151.370 628.215,144.027 C 624.455,138.488 619.784,134.877 618.307,136.368 C 616.353,138.340 617.756,153.616 620.983,165.500 C 623.963,176.469 624.200,178.405 623.751,188.042 C 623.319,197.316 622.837,199.546 619.745,206.578 C 614.484,218.544 613.630,224.109 614.421,241.257 C 615.917,273.702 621.689,293.781 633.586,307.920 C 636.772,311.706 637.916,311.756 641.209,308.250 Z" fill="#8c564b" stroke="black" stroke-width="0.5" fill-rule="evenodd"/>
</svg>
