<?xml version='1.0' encoding='UTF-8'?>
<svg version="1.1" xmlns="http://www.w3.org/2000/svg" width="1000" height="600" viewBox="0 0 1000 600">
  <path d="M 392.173,286.771 C 393.643,285.522 397.636,279.787 401.048,274.028 C 408.645,261.201 415.587,251.769 424.423,242.271 C 432.111,234.007 432.299,232.340 425.869,229.441 C 423.622,228.428 421.193,226.676 420.473,225.549 C 419.752,224.422 418.655,219.245 418.036,214.045 C 417.364,208.408 416.165,203.359 415.067,201.545 C 414.054,199.870 412.065,194.418 410.646,189.429 C 408.355,181.368 402.078,167.628 397.487,160.621 C 394.705,156.375 389.179,152.738 386.522,153.405 C 384.567,153.896 383.303,156.202 379.209,166.749 C 376.486,173.762 373.255,183.325 372.028,188.000 C 370.801,192.675 368.949,199.301 367.914,202.724 C 366.737,206.612 366.220,210.552 366.534,213.224 C 366.810,215.576 367.503,226.050 368.073,236.500 C 369.038,254.204 371.570,282.492 371.868,278.910 C 372.094,276.186 378.094,265.000 379.328,264.999 C 380.186,264.999 380.408,268.899 380.155,279.564 L 379.810,294.130 L 384.655,291.586 C 387.320,290.187 390.703,288.020 392.173,286.771 Z" fill="#98df8a" stroke="black" stroke-width="0.5" fill-rule="evenodd"/>
</svg>
