<?xml version='1.0' encoding='UTF-8'?>
<svg version="1.1" xmlns="http://www.w3.org/2000/svg" width="1000" height="600" viewBox="0 0 1000 600">
  <path d="M 619.856,279.250 C 619.642,269.937 619.882,264.500 620.508,264.500 C 621.054,264.500 623.108,267.663 625.073,271.530 L 628.646,278.559 L 630.193,263.530 C 631.591,249.950 633.406,218.849 633.318,210.000 C 633.298,208.075 632.593,204.475 631.751,202.000 C 630.909,199.525 629.027,193.000 627.570,187.500 C 626.112,182.000 622.807,172.195 620.225,165.710 C 614.621,151.637 613.404,150.789 606.693,156.288 C 601.359,160.659 592.183,177.872 589.084,189.323 C 587.919,193.626 586.100,198.845 585.041,200.921 C 583.982,202.996 582.587,208.701 581.941,213.597 C 580.464,224.792 579.087,227.479 573.470,230.119 C 571.011,231.275 569.000,232.881 569.000,233.689 C 569.000,234.496 572.572,239.059 576.939,243.828 C 586.502,254.275 589.218,257.960 598.752,273.428 C 602.795,279.988 606.868,285.975 607.802,286.733 C 610.990,289.321 618.390,294.000 619.294,294.000 C 619.804,294.000 620.048,287.599 619.856,279.250 Z" fill="#98df8a" stroke="black" stroke-width="0.5" fill-rule="evenodd"/>
</svg>
