<?xml version='1.0' encoding='UTF-8'?>
<svg version="1.1" xmlns="http://www.w3.org/2000/svg" width="1000" height="600" viewBox="0 0 1000 600">
  <path d="M 569.811,421.663 C 574.205,419.304 578.404,413.158 582.410,403.224 C 586.504,393.070 590.803,387.764 600.168,381.309 C 611.767,373.315 618.948,370.204 634.285,366.531 C 642.103,364.659 652.550,361.587 657.500,359.704 C 666.058,356.449 666.516,356.123 666.819,353.069 C 667.003,351.217 666.401,348.725 665.395,347.179 C 661.345,340.949 652.131,331.631 646.513,328.082 C 629.671,317.446 619.150,314.102 589.500,309.964 C 585.100,309.350 578.640,307.982 575.145,306.924 C 567.709,304.673 560.262,304.436 557.473,306.362 C 556.388,307.110 547.741,311.648 538.258,316.444 C 528.775,321.241 520.788,325.533 520.510,325.983 C 520.232,326.433 522.201,327.329 524.886,327.973 C 543.202,332.367 546.652,363.685 530.392,377.960 C 528.486,379.634 524.805,382.079 522.213,383.394 C 517.814,385.625 514.643,388.861 509.158,396.715 C 507.084,399.686 507.025,400.148 508.385,402.778 C 511.056,407.943 519.201,416.068 524.294,418.649 C 532.151,422.630 540.024,423.966 554.000,423.689 C 563.721,423.496 567.236,423.046 569.811,421.663 Z" fill="#98df8a" stroke="black" stroke-width="0.5" fill-rule="evenodd"/>
  <path d="M 540.606,366.584 C 540.941,365.713 541.653,365.000 542.190,365.000 C 543.505,365.000 542.682,367.273 541.187,367.771 C 540.456,368.015 540.233,367.557 540.606,366.584 Z" fill="#98df8a" stroke="black" stroke-width="0.5" fill-rule="evenodd"/>
</svg>
