<?xml version='1.0' encoding='UTF-8'?>
<svg version="1.1" xmlns="http://www.w3.org/2000/svg" width="1000" height="600" viewBox="0 0 1000 600">
  <path d="M 399.799,284.428 C 401.033,283.564 403.914,280.301 406.202,277.178 C 420.756,257.306 431.439,245.051 439.123,239.410 C 448.675,232.398 448.834,227.627 439.626,224.321 C 434.694,222.550 434.336,222.160 430.168,213.990 C 427.785,209.321 423.681,202.125 421.049,198.000 C 418.417,193.875 415.127,187.350 413.739,183.500 C 410.881,175.575 401.072,154.270 396.473,146.000 C 394.791,142.975 392.788,140.500 392.022,140.500 C 391.090,140.500 390.029,143.245 388.812,148.798 C 387.812,153.362 385.705,159.887 384.129,163.298 C 382.553,166.709 380.491,171.869 379.547,174.764 C 378.348,178.438 376.779,180.830 374.349,182.683 C 371.403,184.930 370.981,185.735 371.600,187.919 C 372.003,189.339 372.459,196.800 372.615,204.500 C 372.989,223.050 375.553,258.925 377.061,266.711 C 377.946,271.285 377.979,274.043 377.183,277.178 C 376.018,281.766 376.194,282.616 378.067,281.459 C 378.727,281.051 380.750,280.627 382.563,280.517 C 385.152,280.360 386.308,280.926 387.959,283.158 C 389.617,285.401 390.849,286.000 393.807,286.000 C 395.869,286.000 398.565,285.293 399.799,284.428 Z" fill="#98df8a" stroke="black" stroke-width="0.5" fill-rule="evenodd"/>
</svg>
