<?xml version='1.0' encoding='UTF-8'?>
<svg version="1.1" xmlns="http://www.w3.org/2000/svg" width="1000" height="600" viewBox="0 0 1000 600">
  <path d="M 573.541,417.737 C 578.402,415.224 579.912,412.779 583.563,401.517 C 585.477,395.614 588.197,388.813 589.609,386.404 C 593.299,380.107 600.135,373.748 606.634,370.566 C 616.111,365.925 656.195,356.117 666.500,355.917 C 669.800,355.853 673.591,355.496 674.925,355.123 C 677.286,354.463 677.233,354.354 672.925,351.015 C 670.491,349.128 664.408,344.099 659.407,339.841 C 649.055,331.026 631.781,320.072 624.450,317.675 C 618.041,315.579 605.587,314.264 584.772,313.488 C 570.154,312.943 566.371,313.148 554.772,315.112 C 542.607,317.173 541.180,317.644 537.670,320.750 C 532.533,325.296 525.898,328.000 519.882,328.000 C 515.046,328.000 514.959,328.053 516.168,330.250 C 516.968,331.704 517.460,337.627 517.560,347.000 C 517.708,360.949 517.583,361.918 514.266,372.500 C 511.207,382.260 510.875,384.384 511.321,391.341 C 511.674,396.851 512.528,400.567 514.195,403.841 C 516.298,407.972 517.526,408.979 525.033,412.723 C 537.833,419.108 542.336,420.066 557.539,419.637 C 566.687,419.379 571.463,418.812 573.541,417.737 Z" fill="#98df8a" stroke="black" stroke-width="0.5" fill-rule="evenodd"/>
</svg>
