<?xml version='1.0' encoding='UTF-8'?>
<svg version="1.1" xmlns="http://www.w3.org/2000/svg" width="1000" height="600" viewBox="0 0 1000 600">
  <path d="M 612.004,282.995 C 613.548,281.343 615.416,280.179 616.156,280.409 C 616.895,280.639 618.909,281.069 620.631,281.365 L 623.763,281.903 L 622.750,277.912 C 622.031,275.081 622.088,272.117 622.944,267.711 C 624.420,260.113 627.060,223.227 627.397,205.500 C 627.532,198.350 627.984,190.893 628.400,188.928 C 629.096,185.641 628.878,185.144 625.667,182.695 C 623.453,181.007 621.550,178.292 620.459,175.267 C 619.513,172.645 617.501,167.751 615.988,164.391 C 614.475,161.031 612.454,154.731 611.498,150.391 C 609.003,139.072 609.329,139.753 607.003,140.998 C 604.089,142.558 591.066,169.373 584.658,187.008 C 583.757,189.488 581.427,193.935 579.480,196.890 C 573.648,205.746 569.345,213.424 568.099,217.199 C 566.657,221.569 564.849,223.164 558.812,225.390 C 556.217,226.346 553.952,227.873 553.739,228.809 C 553.088,231.664 555.713,235.618 560.720,239.324 C 568.087,244.775 575.695,253.142 587.913,269.228 C 594.065,277.329 599.865,284.402 600.800,284.948 C 604.294,286.985 609.052,286.156 612.004,282.995 Z" fill="#98df8a" stroke="black" stroke-width="0.5" fill-rule="evenodd"/>
</svg>
