<?xml version='1.0' encoding='UTF-8'?>
<svg version="1.1" xmlns="http://www.w3.org/2000/svg" width="1000" height="600" viewBox="0 0 1000 600">
  <path d="M 467.141,416.091 C 484.212,409.766 487.822,405.753 488.694,392.133 C 489.124,385.410 488.768,383.188 485.715,373.500 C 482.368,362.880 482.255,362.000 482.423,348.000 C 482.532,338.911 483.045,332.685 483.799,331.316 C 485.559,328.114 485.438,328.001 480.250,327.990 C 474.717,327.979 466.007,324.295 461.500,320.059 C 458.916,317.631 456.737,316.937 445.785,315.050 C 434.703,313.141 430.914,312.941 416.285,313.494 C 393.859,314.341 382.007,315.628 375.471,317.926 C 367.097,320.869 350.801,331.205 340.146,340.332 C 334.841,344.876 328.800,349.873 326.723,351.436 C 324.645,353.000 323.183,354.516 323.473,354.806 C 323.763,355.096 328.838,355.687 334.750,356.118 C 340.937,356.570 349.108,357.948 354.000,359.365 C 358.675,360.718 366.550,362.775 371.500,363.935 C 399.731,370.549 409.082,378.061 416.012,399.695 C 422.206,419.032 423.934,420.160 446.500,419.594 C 457.108,419.328 459.502,418.922 467.141,416.091 Z" fill="#98df8a" stroke="black" stroke-width="0.5" fill-rule="evenodd"/>
</svg>
