<?xml version='1.0' encoding='UTF-8'?>
<svg version="1.1" xmlns="http://www.w3.org/2000/svg" width="1000" height="600" viewBox="0 0 1000 600">
  <path d="M 379.888,260.818 C 382.425,258.518 385.462,255.106 386.637,253.235 C 387.812,251.365 390.229,248.620 392.007,247.135 L 395.241,244.436 L 393.955,238.468 C 393.248,235.185 392.294,232.004 391.834,231.397 C 391.338,230.741 389.070,230.479 386.242,230.751 C 383.626,231.002 379.483,230.669 377.036,230.010 C 373.301,229.004 372.872,228.651 374.365,227.815 C 375.908,226.952 375.543,226.499 371.618,224.410 C 363.274,219.967 356.109,221.572 345.780,230.196 C 342.122,233.250 340.675,235.357 339.351,239.556 C 338.411,242.537 337.932,245.266 338.286,245.620 C 338.641,245.974 342.048,245.455 345.859,244.467 C 355.101,242.070 357.823,243.141 362.121,250.869 C 365.075,256.180 372.444,264.592 374.388,264.872 C 374.877,264.942 377.352,263.118 379.888,260.818 Z" fill="#aec7e8" stroke="black" stroke-width="0.5" fill-rule="evenodd"/>
</svg>
