<?xml version='1.0' encoding='UTF-8'?>
<svg version="1.1" xmlns="http://www.w3.org/2000/svg" width="1000" height="600" viewBox="0 0 1000 600">
  <path d="M 630.369,260.670 C 632.963,258.289 636.366,253.902 637.931,250.920 C 642.119,242.942 644.084,242.122 653.432,244.450 C 657.594,245.487 661.297,246.036 661.661,245.672 C 662.569,244.764 660.011,237.310 657.532,233.642 C 656.414,231.988 652.590,228.645 649.033,226.213 C 642.946,222.050 642.238,221.815 636.975,222.195 C 630.489,222.665 622.235,226.855 625.523,228.008 C 628.949,229.210 624.926,230.434 616.710,230.689 C 612.425,230.822 608.552,231.159 608.103,231.436 C 607.653,231.714 606.694,234.730 605.971,238.138 L 604.656,244.334 L 608.176,247.417 C 610.113,249.113 612.722,251.999 613.975,253.832 C 616.252,257.163 623.988,264.928 625.077,264.975 C 625.394,264.989 627.776,263.052 630.369,260.670 Z" fill="#aec7e8" stroke="black" stroke-width="0.5" fill-rule="evenodd"/>
</svg>
