<?xml version='1.0' encoding='UTF-8'?>
<svg version="1.1" xmlns="http://www.w3.org/2000/svg" width="1000" height="600" viewBox="0 0 1000 600">
  <path d="M 593.984,539.221 C 596.009,531.294 596.355,519.619 595.034,503.692 C 593.545,485.721 592.765,483.529 582.478,468.377 C 575.246,457.726 574.495,455.129 579.619,458.486 C 584.029,461.376 583.290,459.427 578.293,454.991 C 570.779,448.321 568.618,447.724 556.680,449.021 C 551.081,449.629 544.599,450.599 542.275,451.176 C 538.459,452.123 538.154,452.420 539.126,454.235 C 539.717,455.340 539.942,457.540 539.625,459.123 C 538.915,462.674 539.997,465.650 545.054,474.060 C 549.482,481.422 551.705,486.730 559.667,508.950 C 565.863,526.245 571.980,537.549 576.431,539.931 C 580.799,542.269 584.000,545.983 584.000,548.713 C 584.000,551.096 584.069,551.077 588.389,547.538 C 591.755,544.779 593.058,542.842 593.984,539.221 Z" fill="#aec7e8" stroke="black" stroke-width="0.5" fill-rule="evenodd"/>
</svg>
