<?xml version='1.0' encoding='UTF-8'?>
<svg version="1.1" xmlns="http://www.w3.org/2000/svg" width="1000" height="600" viewBox="0 0 1000 600">
  <path d="M 510.000,414.923 C 523.200,412.573 533.414,404.706 536.669,394.382 C 538.046,390.014 538.140,388.058 537.235,382.597 C 536.329,377.133 535.395,375.123 531.595,370.458 C 529.091,367.383 526.548,362.985 525.945,360.684 C 525.342,358.383 524.221,354.250 523.454,351.500 C 521.926,346.025 517.572,318.626 516.461,307.500 C 516.076,303.650 515.140,298.981 514.380,297.125 C 512.318,292.091 510.725,292.571 485.500,305.831 C 482.200,307.565 475.675,310.097 471.000,311.457 C 465.376,313.092 459.962,315.590 455.000,318.840 C 450.875,321.541 443.794,326.096 439.265,328.962 C 430.332,334.615 429.893,335.330 428.440,346.596 C 427.843,351.224 428.027,351.936 430.443,354.352 C 433.479,357.388 436.946,364.454 436.978,367.673 C 437.008,370.596 432.922,375.270 427.624,378.374 C 422.530,381.360 420.000,384.813 420.000,388.783 C 420.000,393.402 422.971,402.062 425.382,404.473 C 429.864,408.955 452.745,415.198 469.000,416.374 C 478.160,417.037 503.081,416.155 510.000,414.923 Z" fill="#9edae5" stroke="black" stroke-width="0.5" fill-rule="evenodd"/>
</svg>
