<?xml version='1.0' encoding='UTF-8'?>
<svg version="1.1" xmlns="http://www.w3.org/2000/svg" width="1000" height="600" viewBox="0 0 1000 600">
  <path d="M 584.783,343.549 C 592.089,343.281 598.714,342.700 599.504,342.258 C 600.597,341.646 599.810,340.616 596.221,337.959 C 589.719,333.147 585.427,325.633 584.062,316.674 C 583.460,312.728 582.532,307.250 581.998,304.500 C 581.464,301.750 580.560,294.325 579.989,288.000 C 578.785,274.671 576.785,265.911 574.075,262.106 C 573.023,260.628 570.502,255.271 568.473,250.202 C 566.444,245.132 564.344,240.712 563.806,240.380 C 563.267,240.047 561.404,241.101 559.664,242.721 C 554.021,247.976 540.390,256.818 536.185,257.950 C 532.784,258.866 531.145,258.735 526.539,257.180 C 521.862,255.601 520.811,255.523 519.848,256.683 C 517.726,259.240 520.524,310.590 523.586,325.253 C 524.622,330.219 529.210,333.492 541.403,337.965 C 547.731,340.285 553.414,342.794 554.032,343.538 C 554.866,344.544 557.255,344.782 563.328,344.464 C 567.822,344.228 577.477,343.817 584.783,343.549 Z" fill="#9edae5" stroke="black" stroke-width="0.5" fill-rule="evenodd"/>
  <path d="M 550.500,339.137 C 548.300,338.136 545.825,336.498 545.000,335.497 C 543.584,333.778 543.725,333.706 547.522,334.213 C 552.194,334.835 562.000,338.839 562.000,340.123 C 562.000,341.655 554.651,341.025 550.500,339.137 Z" fill="#9edae5" stroke="black" stroke-width="0.5" fill-rule="evenodd"/>
</svg>
