<?xml version='1.0' encoding='UTF-8'?>
<svg version="1.1" xmlns="http://www.w3.org/2000/svg" width="1000" height="600" viewBox="0 0 1000 600">
  <path d="M 550.500,328.440 C 556.099,325.414 562.552,323.081 572.000,320.669 C 579.425,318.773 587.750,316.364 590.500,315.315 L 595.500,313.408 L 595.780,300.026 C 596.200,279.983 592.752,265.436 585.553,256.881 C 584.191,255.261 581.447,250.838 579.457,247.050 C 577.467,243.262 574.963,239.372 573.894,238.404 C 572.019,236.707 571.814,236.775 568.182,240.322 C 566.111,242.345 563.672,244.000 562.762,244.000 C 561.732,244.000 559.722,241.361 557.431,237.000 C 553.389,229.309 552.960,229.113 545.647,231.605 C 540.439,233.379 540.025,233.826 525.625,253.206 C 514.526,268.144 514.000,269.782 514.000,289.368 C 514.000,307.536 514.946,310.326 525.094,322.096 C 533.385,331.712 536.969,334.325 540.500,333.329 C 541.600,333.018 546.100,330.818 550.500,328.440 Z" fill="#9edae5" stroke="black" stroke-width="0.5" fill-rule="evenodd"/>
</svg>
