<?xml version='1.0' encoding='UTF-8'?>
<svg version="1.1" xmlns="http://www.w3.org/2000/svg" width="1000" height="600" viewBox="0 0 1000 600">
  <path d="M 446.314,342.977 C 448.200,341.864 453.513,339.579 458.121,337.898 C 469.379,333.792 473.529,331.324 475.414,327.613 C 478.327,321.880 482.390,268.220 480.624,258.807 L 479.962,255.281 L 474.295,257.151 C 470.601,258.369 467.426,258.795 465.180,258.374 C 461.832,257.746 445.099,247.129 439.945,242.363 C 438.540,241.063 436.924,240.000 436.353,240.000 C 435.783,240.000 434.064,243.262 432.534,247.250 C 431.003,251.238 428.296,257.200 426.517,260.500 C 422.495,267.960 421.438,272.346 420.010,287.500 C 419.387,294.100 418.496,301.075 418.028,303.000 C 417.561,304.925 416.875,309.135 416.504,312.355 C 416.133,315.575 415.184,320.383 414.396,323.040 C 412.689,328.786 406.231,337.312 401.880,339.562 C 399.728,340.675 399.090,341.490 399.810,342.210 C 400.403,342.803 409.138,343.556 420.175,343.965 C 430.804,344.358 440.262,344.752 441.193,344.840 C 442.124,344.928 444.429,344.090 446.314,342.977 Z" fill="#9edae5" stroke="black" stroke-width="0.5" fill-rule="evenodd"/>
  <path d="M 438.202,339.894 C 438.405,339.286 441.219,337.711 444.455,336.394 C 450.408,333.972 455.000,333.298 455.000,334.845 C 455.000,336.036 452.000,338.400 448.703,339.807 C 445.124,341.334 437.702,341.395 438.202,339.894 Z" fill="#9edae5" stroke="black" stroke-width="0.5" fill-rule="evenodd"/>
</svg>
