<?xml version='1.0' encoding='UTF-8'?>
<svg version="1.1" xmlns="http://www.w3.org/2000/svg" width="1000" height="600" viewBox="0 0 1000 600">
  <path d="M 465.500,331.827 C 468.173,330.427 481.239,315.403 483.613,311.000 C 485.268,307.929 485.500,305.230 485.498,289.000 C 485.495,267.725 485.396,267.393 475.119,254.393 C 472.028,250.484 467.380,244.317 464.788,240.688 C 459.580,233.396 455.898,230.953 449.709,230.681 L 445.586,230.500 L 442.260,237.250 C 440.130,241.572 438.331,244.000 437.259,244.000 C 436.338,244.000 433.889,242.345 431.818,240.322 C 428.084,236.676 428.032,236.661 425.949,238.546 C 424.793,239.592 422.231,243.385 420.256,246.974 C 418.282,250.563 415.215,255.525 413.442,258.000 C 409.265,263.831 407.410,268.405 405.530,277.508 C 403.866,285.565 403.422,310.539 404.901,312.875 C 406.057,314.700 413.928,317.429 428.191,320.949 C 439.234,323.675 442.589,325.009 454.423,331.376 C 459.295,333.998 461.206,334.076 465.500,331.827 Z" fill="#9edae5" stroke="black" stroke-width="0.5" fill-rule="evenodd"/>
</svg>
