<?xml version='1.0' encoding='UTF-8'?>
<svg version="1.1" xmlns="http://www.w3.org/2000/svg" width="1000" height="600" viewBox="0 0 1000 600">
  <path d="M 395.500,267.416 C 397.150,266.552 404.473,263.876 411.772,261.471 C 421.823,258.159 427.071,255.763 433.388,251.602 C 445.665,243.517 447.000,241.607 447.000,232.119 C 447.000,225.273 446.662,223.859 444.039,219.722 C 440.755,214.544 431.020,206.849 425.242,204.864 C 423.129,204.138 417.147,203.596 411.500,203.618 C 396.551,203.676 388.561,207.768 384.393,217.500 C 381.409,224.467 382.598,238.836 386.948,248.387 C 387.984,250.660 389.153,255.891 389.545,260.010 C 390.505,270.093 390.471,270.051 395.500,267.416 Z" fill="#1f77b4" stroke="black" stroke-width="0.5" fill-rule="evenodd"/>
</svg>
