<?xml version='1.0' encoding='UTF-8'?>
<svg version="1.1" xmlns="http://www.w3.org/2000/svg" width="1000" height="600" viewBox="0 0 1000 600">
  <path d="M 593.641,536.652 C 599.614,532.537 601.641,529.191 603.513,520.356 C 606.410,506.679 604.826,492.596 599.309,483.000 C 597.886,480.525 592.619,474.450 587.604,469.500 C 577.829,459.851 570.121,455.084 557.769,451.049 C 547.946,447.840 533.457,447.878 539.211,451.098 C 543.682,453.600 549.742,458.979 552.107,462.545 C 553.550,464.720 556.614,470.771 558.916,475.990 C 561.218,481.210 565.721,489.760 568.923,494.990 C 577.129,508.395 578.669,511.709 581.569,522.216 C 584.881,534.213 586.965,540.000 587.974,540.000 C 588.418,540.000 590.968,538.493 593.641,536.652 Z" fill="#1f77b4" stroke="black" stroke-width="0.5" fill-rule="evenodd"/>
</svg>
