<?xml version='1.0' encoding='UTF-8'?>
<svg version="1.1" xmlns="http://www.w3.org/2000/svg" width="1000" height="600" viewBox="0 0 1000 600">
  <path d="M 418.309,540.250 C 419.728,538.188 422.054,533.255 423.478,529.288 C 424.901,525.321 427.543,519.471 429.349,516.288 C 436.960,502.873 446.932,486.722 454.552,475.472 C 459.032,468.857 463.271,461.657 463.970,459.472 C 464.670,457.288 466.125,454.037 467.203,452.250 C 468.972,449.317 469.004,448.939 467.537,448.376 C 466.643,448.033 460.851,447.945 454.668,448.182 C 444.657,448.565 442.691,448.956 436.721,451.750 C 425.728,456.894 405.886,471.661 401.572,477.908 C 396.150,485.762 395.503,488.513 395.556,503.500 C 395.613,519.272 396.971,524.345 403.525,533.252 C 406.226,536.922 414.121,544.000 415.514,544.000 C 415.632,544.000 416.889,542.312 418.309,540.250 Z" fill="#1f77b4" stroke="black" stroke-width="0.5" fill-rule="evenodd"/>
</svg>
