<?xml version='1.0' encoding='UTF-8'?>
<svg version="1.1" xmlns="http://www.w3.org/2000/svg" width="1000" height="600" viewBox="0 0 1000 600">
  <path d="M 486.154,309.000 C 487.220,285.683 486.121,259.890 483.547,247.786 C 481.853,239.819 476.896,229.377 470.862,221.067 C 466.112,214.523 463.589,213.596 458.200,216.411 C 454.667,218.257 448.130,226.943 446.319,232.199 C 444.904,236.308 444.934,236.443 449.101,244.426 C 454.193,254.185 458.306,267.903 461.566,286.000 C 465.541,308.072 467.049,314.034 471.069,323.575 C 473.173,328.566 475.645,335.541 476.562,339.075 C 477.479,342.609 478.464,346.175 478.751,347.000 C 479.037,347.825 480.599,344.450 482.221,339.500 C 484.913,331.285 485.257,328.624 486.154,309.000 Z" fill="#c49c94" stroke="black" stroke-width="0.5" fill-rule="evenodd"/>
</svg>
