<?xml version='1.0' encoding='UTF-8'?>
<svg version="1.1" xmlns="http://www.w3.org/2000/svg" width="1000" height="600" viewBox="0 0 1000 600">
  <path d="M 523.738,338.785 C 525.035,334.292 527.439,327.557 529.080,323.818 C 532.630,315.730 535.145,305.935 538.004,289.061 C 541.648,267.559 546.190,253.008 553.084,240.755 C 555.095,237.180 555.119,236.798 553.614,232.380 C 552.058,227.815 546.634,220.143 542.579,216.772 C 541.435,215.822 538.895,215.034 536.934,215.022 C 533.618,215.002 532.997,215.529 528.103,222.540 C 518.079,236.897 515.614,244.933 513.938,268.727 C 512.906,283.385 513.563,318.844 515.037,328.000 C 516.027,334.145 520.258,348.036 520.940,347.378 C 521.182,347.145 522.441,343.278 523.738,338.785 Z" fill="#c49c94" stroke="black" stroke-width="0.5" fill-rule="evenodd"/>
</svg>
