<?xml version='1.0' encoding='UTF-8'?>
<svg version="1.1" xmlns="http://www.w3.org/2000/svg" width="1000" height="600" viewBox="0 0 1000 600">
  <path d="M 470.500,385.500 C 477.650,384.659 491.150,383.510 500.500,382.947 C 514.358,382.112 519.533,381.351 528.500,378.829 C 544.267,374.396 544.952,373.946 544.994,368.000 C 545.028,363.288 549.099,354.820 552.357,352.685 C 553.811,351.733 555.000,350.375 555.000,349.668 C 555.000,347.858 543.034,342.527 530.839,338.904 C 525.163,337.218 517.189,334.300 513.119,332.419 C 507.774,329.950 504.299,328.997 500.609,328.989 C 494.559,328.977 470.434,326.506 460.500,324.882 C 454.329,323.874 452.335,323.993 443.663,325.892 C 438.253,327.076 431.348,327.964 428.319,327.865 C 425.291,327.766 422.517,328.132 422.156,328.677 C 413.256,342.126 412.036,344.786 411.155,352.663 C 410.665,357.043 410.626,364.423 411.069,369.063 C 411.512,373.703 411.902,378.028 411.937,378.673 C 411.972,379.319 413.142,381.203 414.537,382.862 C 416.989,385.776 417.300,385.862 423.787,385.408 C 427.885,385.122 432.837,385.509 436.500,386.403 C 443.213,388.041 450.559,387.846 470.500,385.500 Z" fill="#c49c94" stroke="black" stroke-width="0.5" fill-rule="evenodd"/>
</svg>
