<?xml version='1.0' encoding='UTF-8'?>
<svg version="1.1" xmlns="http://www.w3.org/2000/svg" width="1000" height="600" viewBox="0 0 1000 600">
  <path d="M 473.441,326.734 C 477.279,324.559 477.449,324.225 479.941,314.000 C 481.348,308.225 483.821,300.810 485.435,297.523 C 488.232,291.825 488.390,290.793 488.811,275.400 C 489.317,256.921 489.972,258.529 479.220,251.890 C 475.552,249.625 472.080,246.555 470.871,244.507 C 468.456,240.413 467.497,240.170 465.913,243.250 C 460.482,253.807 451.881,253.257 443.747,241.831 C 439.387,235.708 434.625,237.035 426.267,246.704 C 417.980,256.289 415.303,261.332 413.177,271.354 C 410.884,282.168 407.717,305.050 408.416,305.750 C 409.460,306.793 415.619,302.229 417.914,298.711 L 420.328,295.011 L 423.414,296.958 C 425.111,298.029 430.325,302.277 435.000,306.398 C 446.959,316.940 463.968,328.926 467.000,328.948 C 468.375,328.959 471.273,327.962 473.441,326.734 Z" fill="#e377c2" stroke="black" stroke-width="0.5" fill-rule="evenodd"/>
</svg>
