<?xml version='1.0' encoding='UTF-8'?>
<svg version="1.1" xmlns="http://www.w3.org/2000/svg" width="1000" height="600" viewBox="0 0 1000 600">
  <path d="M 497.000,413.093 C 520.312,410.766 524.397,410.042 530.000,407.246 C 534.356,405.071 535.750,403.772 536.703,401.000 C 537.893,397.539 537.852,397.450 532.963,393.000 C 530.243,390.525 525.992,385.350 523.515,381.500 C 519.574,375.376 517.492,371.466 512.632,361.063 C 511.980,359.666 510.204,358.291 508.472,357.842 C 506.810,357.412 503.935,355.496 502.084,353.586 C 498.820,350.219 498.733,349.918 499.231,343.717 C 499.804,336.570 501.274,333.677 507.808,326.832 L 512.264,322.163 L 510.194,318.815 C 509.056,316.973 507.014,314.423 505.657,313.148 C 503.387,311.015 503.002,310.948 500.845,312.316 C 499.555,313.134 494.502,315.005 489.615,316.475 C 484.728,317.944 477.078,320.883 472.615,323.006 C 466.078,326.115 463.742,327.862 460.599,331.989 C 455.364,338.866 448.943,343.973 444.657,344.668 C 442.721,344.982 439.731,346.423 438.011,347.870 C 435.106,350.315 434.872,350.993 434.693,357.500 C 434.500,364.485 434.516,364.528 441.750,377.216 C 445.738,384.210 449.000,390.815 449.000,391.895 C 449.000,394.448 446.545,396.848 443.180,397.582 C 437.474,398.828 437.470,399.156 443.125,402.038 C 446.219,403.615 449.003,405.567 449.314,406.375 C 450.334,409.034 458.380,412.880 465.001,413.874 C 472.288,414.968 480.137,414.777 497.000,413.093 Z" fill="#e377c2" stroke="black" stroke-width="0.5" fill-rule="evenodd"/>
</svg>
