<?xml version='1.0' encoding='UTF-8'?>
<svg version="1.1" xmlns="http://www.w3.org/2000/svg" width="1000" height="600" viewBox="0 0 1000 600">
  <path d="M 501.750,404.011 C 503.538,402.921 505.003,401.910 505.006,401.765 C 505.009,401.619 505.471,398.800 506.032,395.500 C 506.593,392.200 507.460,378.250 507.959,364.500 C 508.593,347.035 509.356,337.692 510.492,333.500 C 513.897,320.941 515.094,313.466 514.455,308.750 C 514.019,305.530 513.339,304.000 512.343,304.000 C 511.535,304.000 507.414,307.278 503.187,311.284 C 492.734,321.189 490.892,322.345 480.306,325.639 C 472.114,328.188 471.167,328.726 471.620,330.574 C 472.190,332.900 469.713,335.559 467.976,334.485 C 467.364,334.107 467.134,333.093 467.465,332.231 C 467.795,331.370 465.820,332.765 463.076,335.332 C 460.331,337.900 457.628,340.000 457.070,340.000 C 456.511,340.000 452.329,343.498 447.777,347.774 C 438.586,356.407 431.095,361.276 427.723,360.808 C 425.768,360.537 425.361,361.164 424.346,366.000 C 422.845,373.157 422.732,379.630 424.064,382.119 C 424.649,383.212 427.559,385.662 430.530,387.563 C 433.502,389.464 437.861,392.846 440.217,395.079 C 449.750,404.115 450.113,404.240 468.156,404.619 C 477.031,404.806 484.526,405.193 484.813,405.479 C 485.099,405.766 488.296,405.998 491.917,405.996 C 496.715,405.994 499.381,405.455 501.750,404.011 Z" fill="#e377c2" stroke="black" stroke-width="0.5" fill-rule="evenodd"/>
</svg>
