<?xml version='1.0' encoding='UTF-8'?>
<svg version="1.1" xmlns="http://www.w3.org/2000/svg" width="1000" height="600" viewBox="0 0 1000 600">
  <path d="M 614.288,309.828 C 615.707,307.919 616.306,305.447 616.387,301.171 C 616.498,295.319 616.343,294.959 609.380,284.843 C 605.464,279.155 600.117,270.228 597.498,265.007 C 594.100,258.234 590.822,253.507 586.055,248.507 C 582.380,244.653 577.902,239.588 576.103,237.250 C 572.732,232.870 569.302,231.726 567.185,234.277 C 566.237,235.419 564.012,244.365 562.649,252.511 C 561.917,256.888 564.911,264.671 569.821,271.160 C 573.874,276.515 580.964,293.742 580.990,298.295 C 581.008,301.461 585.401,304.796 590.374,305.420 C 592.918,305.739 596.973,306.245 599.384,306.544 C 603.292,307.029 603.833,307.415 604.371,310.105 C 604.926,312.880 605.268,313.097 608.638,312.811 C 611.223,312.592 612.886,311.714 614.288,309.828 Z" fill="#e377c2" stroke="black" stroke-width="0.5" fill-rule="evenodd"/>
</svg>
