<?xml version='1.0' encoding='UTF-8'?>
<svg version="1.1" xmlns="http://www.w3.org/2000/svg" width="1000" height="600" viewBox="0 0 1000 600">
  <path d="M 653.365,310.385 L 660.500,306.957 L 660.591,299.729 C 660.640,295.753 661.023,290.691 661.441,288.481 C 661.883,286.143 661.747,282.774 661.115,280.428 C 659.475,274.337 641.748,248.384 635.133,242.390 C 624.785,233.011 622.225,222.638 628.296,214.679 C 633.046,208.451 633.036,208.347 626.054,190.622 C 622.882,182.569 622.114,181.486 616.363,176.967 C 612.928,174.267 607.498,168.558 604.297,164.279 C 599.258,157.545 597.530,156.030 591.433,153.000 C 587.559,151.075 583.161,148.650 581.659,147.612 C 577.769,144.921 565.215,125.738 563.883,120.449 C 563.267,118.002 562.433,116.000 562.031,116.000 C 557.566,116.000 540.354,126.652 534.692,132.919 C 532.712,135.111 529.848,138.838 528.328,141.202 C 526.809,143.566 524.553,146.754 523.317,148.286 L 521.069,151.071 L 522.982,154.786 C 524.234,157.214 525.451,163.346 526.499,172.500 C 527.412,180.479 528.729,187.459 529.560,188.729 C 531.375,191.503 534.663,193.226 543.550,196.061 C 547.372,197.281 552.118,199.089 554.095,200.080 C 558.169,202.123 564.000,208.306 564.000,210.584 C 564.000,214.146 567.469,218.161 575.223,223.573 C 587.144,231.896 596.319,241.142 602.248,250.810 C 606.258,257.349 608.531,259.918 612.624,262.536 C 618.159,266.077 625.370,274.326 627.643,279.716 C 628.388,281.485 629.405,285.805 629.902,289.315 C 630.631,294.458 631.723,297.038 635.527,302.599 C 641.453,311.261 645.393,315.877 645.865,314.712 C 646.065,314.217 649.440,312.270 653.365,310.385 Z" fill="#ff9896" stroke="black" stroke-width="0.5" fill-rule="evenodd"/>
</svg>
