<?xml version='1.0' encoding='UTF-8'?>
<svg version="1.1" xmlns="http://www.w3.org/2000/svg" width="1000" height="600" viewBox="0 0 1000 600">
  <path d="M 365.366,288.901 C 370.528,283.272 378.052,272.306 383.355,262.682 C 384.926,259.832 387.488,255.373 389.049,252.774 C 390.692,250.038 391.475,247.793 390.907,247.442 C 390.367,247.109 386.455,247.137 382.213,247.506 C 372.834,248.319 365.012,251.716 356.523,258.661 C 348.860,264.930 346.397,268.667 345.571,275.280 C 344.521,283.683 346.141,288.763 351.446,293.703 C 353.950,296.037 356.002,298.745 356.004,299.723 C 356.006,300.885 356.738,300.289 358.120,298.000 C 359.281,296.075 362.542,291.981 365.366,288.901 Z" fill="#ff9896" stroke="black" stroke-width="0.5" fill-rule="evenodd"/>
  <path d="M 431.243,215.964 C 424.137,212.413 417.729,205.946 418.668,203.272 C 419.010,202.298 420.237,200.723 421.395,199.772 C 424.239,197.438 438.828,197.398 453.259,199.685 C 463.558,201.318 464.421,201.311 473.462,199.534 C 481.200,198.012 483.185,197.909 484.453,198.961 C 485.745,200.033 486.000,199.967 486.000,198.558 C 486.000,197.630 487.337,195.746 488.971,194.371 C 490.605,192.996 492.402,190.213 492.965,188.186 C 494.441,182.871 494.202,164.618 492.555,156.845 C 490.818,148.650 476.347,120.427 470.785,114.387 C 464.491,107.551 449.074,101.174 445.195,103.802 C 444.477,104.288 443.020,108.168 441.956,112.425 C 438.289,127.101 432.451,132.548 416.062,136.585 C 410.321,138.000 403.530,140.218 400.970,141.515 C 396.948,143.553 395.948,144.723 393.605,150.125 C 392.114,153.563 389.399,158.429 387.572,160.938 C 385.745,163.447 382.592,169.100 380.566,173.500 C 377.620,179.898 376.764,183.148 376.294,189.729 L 375.706,197.957 L 379.701,202.292 C 381.899,204.676 384.905,208.688 386.382,211.208 C 388.562,214.929 389.766,215.931 392.783,216.543 C 396.571,217.310 416.527,218.543 429.910,218.837 L 437.319,219.000 L 431.243,215.964 Z" fill="#ff9896" stroke="black" stroke-width="0.5" fill-rule="evenodd"/>
</svg>
