<?xml version='1.0' encoding='UTF-8'?>
<svg version="1.1" xmlns="http://www.w3.org/2000/svg" width="1000" height="600" viewBox="0 0 1000 600">
  <path d="M 357.122,312.750 C 358.190,311.512 361.329,307.216 364.096,303.201 C 368.063,297.446 369.338,294.592 370.125,289.707 C 370.673,286.300 371.988,281.555 373.046,279.163 C 375.759,273.030 382.553,265.261 388.569,261.413 C 392.461,258.923 394.731,256.379 398.020,250.818 C 403.657,241.288 413.215,231.441 423.995,224.058 C 433.920,217.260 434.061,217.108 436.406,210.761 C 438.972,203.817 443.987,200.036 455.858,196.096 C 461.343,194.276 467.225,191.598 468.929,190.144 C 471.855,187.647 472.085,186.924 473.064,177.122 C 474.363,164.115 475.567,157.705 477.349,154.304 C 478.664,151.794 478.490,151.272 474.277,145.072 C 471.822,141.457 468.104,136.453 466.016,133.951 C 460.210,126.994 443.490,116.000 438.715,116.000 C 437.962,116.000 436.627,118.343 435.695,121.297 C 433.917,126.938 422.633,143.986 418.174,147.768 C 416.703,149.015 412.279,151.575 408.342,153.456 C 402.004,156.485 400.474,157.810 394.980,165.026 C 391.568,169.508 386.134,175.228 382.905,177.735 C 378.183,181.402 376.638,183.352 375.013,187.694 C 373.902,190.663 372.042,194.958 370.878,197.239 C 367.989,202.903 367.927,210.226 370.743,213.233 C 378.092,221.078 375.553,232.491 364.058,243.284 C 360.501,246.623 354.308,254.650 348.394,263.584 C 337.426,280.152 338.407,276.459 339.187,298.248 L 339.500,306.997 L 347.000,310.882 C 351.125,313.019 354.653,314.819 354.840,314.884 C 355.027,314.948 356.054,313.988 357.122,312.750 Z" fill="#ff9896" stroke="black" stroke-width="0.5" fill-rule="evenodd"/>
</svg>
