<?xml version='1.0' encoding='UTF-8'?>
<svg version="1.1" xmlns="http://www.w3.org/2000/svg" width="1000" height="600" viewBox="0 0 1000 600">
  <path d="M 369.282,465.624 C 371.052,464.868 375.650,461.882 379.500,458.989 C 388.137,452.498 395.926,448.871 407.072,446.147 C 425.073,441.748 436.077,441.669 446.677,445.864 C 449.524,446.991 455.848,448.606 460.730,449.453 C 468.660,450.829 470.222,450.833 475.385,449.488 C 484.896,447.011 489.174,444.113 495.267,436.022 C 497.554,432.985 501.486,428.250 504.005,425.500 C 508.978,420.070 509.175,419.652 514.288,403.682 L 517.750,392.865 L 515.125,395.327 C 513.681,396.682 508.977,399.424 504.671,401.421 C 500.366,403.419 493.166,407.803 488.671,411.163 C 471.870,423.727 457.903,427.897 437.500,426.442 C 422.492,425.372 391.734,425.313 384.938,426.342 L 379.375,427.184 L 377.863,423.342 C 377.031,421.229 375.196,417.676 373.786,415.447 C 371.325,411.554 370.928,411.347 363.784,410.237 C 359.693,409.601 350.755,406.962 343.923,404.372 C 331.739,399.755 331.277,399.664 319.896,399.643 C 309.331,399.624 307.804,399.861 302.841,402.289 C 296.519,405.383 293.730,408.147 292.139,412.899 C 290.130,418.897 290.766,420.076 301.362,430.000 C 309.592,437.707 313.770,440.715 323.503,445.941 C 330.101,449.484 339.550,454.845 344.500,457.855 C 353.730,463.467 361.130,466.870 364.282,466.953 C 365.262,466.979 367.512,466.381 369.282,465.624 Z" fill="#ff9896" stroke="black" stroke-width="0.5" fill-rule="evenodd"/>
</svg>
