<?xml version='1.0' encoding='UTF-8'?>
<svg version="1.1" xmlns="http://www.w3.org/2000/svg" width="1000" height="600" viewBox="0 0 1000 600">
  <path d="M 588.925,389.632 C 592.459,385.171 596.278,379.948 597.412,378.025 C 604.103,366.685 592.524,337.258 577.188,326.631 C 569.413,321.242 559.537,318.138 537.001,314.000 C 512.084,309.425 503.970,307.168 498.393,303.262 C 487.678,295.756 484.885,293.389 484.383,291.391 C 484.025,289.962 482.795,289.009 480.794,288.609 C 475.203,287.491 474.901,287.719 477.084,291.417 C 478.673,294.111 478.917,295.540 478.237,298.164 C 476.299,305.643 463.373,310.272 454.628,306.618 L 450.815,305.025 L 453.819,307.831 C 458.119,311.848 459.092,319.604 456.437,328.693 L 455.797,330.885 L 461.148,328.831 C 464.092,327.702 469.875,325.743 474.000,324.479 C 478.125,323.215 484.425,320.918 488.000,319.373 C 493.603,316.954 495.811,316.565 504.000,316.557 C 514.707,316.547 520.698,318.136 530.728,323.650 C 537.824,327.551 553.558,339.107 562.649,347.096 C 566.030,350.068 571.253,354.608 574.254,357.185 C 577.255,359.761 580.450,363.430 581.355,365.336 C 583.422,369.691 583.535,385.615 581.566,395.000 C 580.645,399.394 580.575,400.891 581.351,399.621 C 581.983,398.588 585.391,394.093 588.925,389.632 Z" fill="#dbdb8d" stroke="black" stroke-width="0.5" fill-rule="evenodd"/>
</svg>
