<?xml version='1.0' encoding='UTF-8'?>
<svg version="1.1" xmlns="http://www.w3.org/2000/svg" width="1000" height="600" viewBox="0 0 1000 600">
  <path d="M 575.500,382.971 C 596.609,381.276 604.424,380.214 608.860,378.439 L 613.046,376.765 L 612.497,372.189 C 611.862,366.902 611.416,366.184 609.783,367.817 C 606.262,371.338 591.978,367.027 579.573,358.700 C 575.133,355.719 567.655,350.775 562.955,347.713 C 548.144,338.064 541.087,328.442 538.912,314.933 C 537.718,307.519 538.505,301.250 541.479,294.500 C 544.291,288.115 550.907,282.000 555.003,282.000 C 557.833,282.000 558.000,281.777 558.000,278.000 C 558.000,273.606 557.672,273.401 554.000,275.500 C 549.977,277.800 544.706,277.381 542.046,274.549 C 539.021,271.328 539.060,264.708 542.136,259.495 L 544.349,255.743 L 542.124,256.934 C 538.908,258.655 526.784,259.490 524.302,258.161 C 522.380,257.133 522.208,257.398 521.618,262.281 C 519.837,277.016 519.801,279.604 521.303,284.656 C 524.304,294.747 525.343,311.134 524.178,330.000 C 522.904,350.629 523.376,354.027 529.235,366.369 C 533.771,375.926 536.464,378.654 544.000,381.331 C 552.079,384.201 556.993,384.457 575.500,382.971 Z" fill="#dbdb8d" stroke="black" stroke-width="0.5" fill-rule="evenodd"/>
</svg>
