<?xml version='1.0' encoding='UTF-8'?>
<svg version="1.1" xmlns="http://www.w3.org/2000/svg" width="1000" height="600" viewBox="0 0 1000 600">
  <path d="M 451.504,382.457 C 461.641,379.817 464.911,377.393 469.662,369.000 C 476.289,357.290 477.244,351.429 475.876,330.869 C 474.654,312.515 475.804,293.644 478.633,285.624 C 480.287,280.934 480.303,276.118 478.699,265.292 C 477.682,258.423 477.240,257.237 475.992,258.026 C 473.847,259.382 467.260,259.214 461.229,257.649 L 456.021,256.299 L 458.062,259.600 C 464.371,269.809 456.816,280.547 446.829,275.565 C 442.371,273.340 442.000,273.527 442.000,278.000 C 442.000,281.366 442.325,282.000 444.050,282.000 C 451.251,282.000 459.858,292.469 461.409,303.114 C 462.327,309.409 460.501,319.887 457.314,326.618 C 454.069,333.471 446.807,341.571 439.780,346.174 C 436.876,348.076 430.000,352.620 424.500,356.270 C 408.114,367.146 396.824,371.117 391.060,368.032 C 388.126,366.462 387.635,367.126 387.561,372.772 L 387.500,377.500 L 392.541,379.174 C 397.341,380.767 424.939,383.547 439.040,383.856 C 442.637,383.935 448.246,383.306 451.504,382.457 Z" fill="#dbdb8d" stroke="black" stroke-width="0.5" fill-rule="evenodd"/>
</svg>
