<?xml version='1.0' encoding='UTF-8'?>
<svg version="1.1" xmlns="http://www.w3.org/2000/svg" width="1000" height="600" viewBox="0 0 1000 600">
  <path d="M 418.005,393.025 C 417.452,390.111 417.000,383.609 417.000,378.575 C 417.000,363.987 417.778,362.960 446.500,339.650 C 459.234,329.316 470.019,322.293 477.798,319.270 C 483.360,317.108 486.201,316.655 494.500,316.605 C 503.327,316.552 505.263,316.875 511.000,319.354 C 514.575,320.898 521.932,323.487 527.350,325.107 C 532.767,326.727 538.546,328.748 540.193,329.600 C 543.917,331.526 544.301,331.162 542.872,327.064 C 541.507,323.146 542.410,312.550 544.363,309.569 C 545.691,307.542 545.569,307.500 538.445,307.500 C 531.979,307.500 530.699,307.167 526.907,304.500 C 521.480,300.683 520.311,296.971 522.894,291.750 C 524.894,287.706 524.671,287.516 519.206,288.609 C 517.228,289.004 515.971,289.967 515.616,291.359 C 515.020,293.696 503.889,302.550 497.494,305.773 C 491.987,308.548 488.591,309.375 463.637,314.020 C 433.112,319.702 422.658,324.166 413.882,335.268 C 403.537,348.357 398.312,365.631 401.782,375.274 C 403.236,379.315 417.866,399.468 418.723,398.611 C 418.880,398.453 418.557,395.939 418.005,393.025 Z" fill="#dbdb8d" stroke="black" stroke-width="0.5" fill-rule="evenodd"/>
</svg>
