<?xml version='1.0' encoding='UTF-8'?>
<svg version="1.1" xmlns="http://www.w3.org/2000/svg" width="1000" height="600" viewBox="0 0 1000 600">
  <path d="M 561.590,374.064 C 564.390,373.000 571.404,371.428 577.177,370.571 C 606.664,366.193 610.288,364.920 610.807,358.761 C 611.422,351.459 606.654,346.600 597.664,345.367 C 593.886,344.850 592.750,344.071 589.293,339.634 C 584.146,333.026 583.087,330.863 578.211,317.000 C 575.987,310.675 573.262,303.475 572.155,301.000 C 569.514,295.092 567.001,277.747 566.994,265.372 C 566.989,255.491 565.810,248.618 563.919,247.450 C 562.020,246.276 558.376,249.801 557.106,254.041 C 556.407,256.375 553.417,262.894 550.462,268.528 C 545.768,277.478 544.835,280.261 543.073,290.559 C 541.965,297.042 540.679,302.606 540.216,302.923 C 539.753,303.240 538.844,307.573 538.196,312.550 C 537.547,317.528 535.872,324.953 534.473,329.050 C 532.405,335.104 531.891,338.655 531.729,348.000 C 531.554,358.131 531.805,360.113 533.846,364.652 C 537.433,372.632 539.880,374.396 548.327,375.088 C 552.272,375.412 555.725,375.749 556.000,375.838 C 556.275,375.926 558.791,375.128 561.590,374.064 Z" fill="#bcbd22" stroke="black" stroke-width="0.5" fill-rule="evenodd"/>
</svg>
