<?xml version='1.0' encoding='UTF-8'?>
<svg version="1.1" xmlns="http://www.w3.org/2000/svg" width="1000" height="600" viewBox="0 0 1000 600">
  <path d="M 447.229,408.518 C 453.473,408.397 456.461,407.909 457.729,406.805 C 458.703,405.956 460.031,405.090 460.680,404.880 C 461.330,404.671 464.193,400.920 467.044,396.545 C 472.045,388.870 472.205,388.405 471.609,383.333 C 470.883,377.152 469.748,374.324 465.179,367.311 L 461.798,362.122 L 465.574,357.605 C 470.699,351.474 476.793,347.279 482.397,346.023 C 487.597,344.858 490.234,345.236 497.407,348.178 C 501.967,350.048 502.381,350.071 503.259,348.502 C 504.868,345.626 510.129,344.012 514.565,345.033 C 517.820,345.782 518.714,345.641 519.738,344.219 C 523.077,339.584 526.876,336.842 533.378,334.374 C 541.599,331.255 545.000,329.265 545.000,327.576 C 545.000,326.919 542.620,324.327 539.712,321.816 C 536.667,319.187 532.224,313.698 529.237,308.875 C 525.995,303.641 522.529,299.436 519.994,297.663 C 515.956,294.839 515.876,294.827 500.972,294.945 C 489.364,295.037 484.601,295.491 479.752,296.969 C 467.152,300.809 456.278,303.119 447.033,303.920 C 439.647,304.559 437.340,305.125 436.533,306.494 C 435.965,307.459 434.406,309.880 433.069,311.874 C 429.589,317.067 426.051,325.978 426.024,329.624 C 426.011,331.343 426.700,334.718 427.556,337.124 C 432.372,350.674 433.696,376.269 430.652,397.000 C 428.929,408.729 429.534,410.526 434.836,409.439 C 436.851,409.025 442.428,408.611 447.229,408.518 Z" fill="#bcbd22" stroke="black" stroke-width="0.5" fill-rule="evenodd"/>
</svg>
