<?xml version='1.0' encoding='UTF-8'?>
<svg version="1.1" xmlns="http://www.w3.org/2000/svg" width="1000" height="600" viewBox="0 0 1000 600">
  <path d="M 569.233,408.750 C 570.588,407.701 570.699,406.615 569.924,402.000 C 566.414,381.098 567.084,355.074 571.489,341.283 C 574.552,331.693 574.599,328.732 571.799,321.883 C 569.681,316.702 563.392,306.148 561.675,304.893 C 561.218,304.559 556.942,304.013 552.172,303.680 C 547.049,303.322 537.286,301.433 528.314,299.064 C 514.131,295.320 512.170,295.048 498.633,294.943 L 484.139,294.832 L 479.684,298.166 C 476.990,300.181 473.178,304.756 470.044,309.734 C 467.193,314.262 462.533,320.003 459.689,322.491 C 453.490,327.914 453.835,329.371 462.095,332.637 C 471.963,336.538 475.072,338.338 478.500,342.131 C 481.550,345.508 482.202,345.802 484.908,345.026 C 488.480,344.002 494.254,345.518 496.584,348.093 C 498.102,349.770 498.397,349.755 502.838,347.770 C 513.895,342.829 525.731,346.616 534.901,358.027 L 538.175,362.100 L 534.543,367.374 C 530.668,372.999 528.000,380.356 528.000,385.413 C 528.000,387.448 529.796,391.287 533.243,396.622 C 539.676,406.576 543.508,409.173 550.639,408.415 C 553.313,408.131 557.525,408.322 560.000,408.840 C 566.363,410.170 567.411,410.160 569.233,408.750 Z" fill="#bcbd22" stroke="black" stroke-width="0.5" fill-rule="evenodd"/>
</svg>
