<?xml version='1.0' encoding='UTF-8'?>
<svg version="1.1" xmlns="http://www.w3.org/2000/svg" width="1000" height="600" viewBox="0 0 1000 600">
  <path d="M 395.052,362.901 C 408.029,359.670 413.672,359.476 433.598,361.576 C 439.463,362.194 439.872,362.085 444.285,358.716 C 446.808,356.790 450.926,354.430 453.434,353.472 C 457.425,351.948 458.133,351.219 459.094,347.651 C 460.687,341.735 459.734,338.091 454.651,330.667 C 449.463,323.090 448.440,318.585 449.306,307.137 C 450.038,297.454 448.217,291.203 439.379,273.075 L 432.835,259.650 L 429.909,265.075 C 427.063,270.352 423.380,274.359 417.524,278.548 C 414.726,280.549 414.688,280.702 415.830,285.241 C 417.399,291.468 417.306,299.560 415.598,305.568 C 414.827,308.281 413.895,312.300 413.527,314.500 C 412.992,317.700 406.292,333.000 405.426,333.000 C 405.306,333.000 401.796,331.380 397.627,329.400 C 388.150,324.900 384.044,324.522 382.395,328.000 C 381.744,329.375 380.455,336.630 379.532,344.123 C 377.790,358.270 378.429,366.000 381.341,366.000 C 382.036,366.000 388.206,364.605 395.052,362.901 Z" fill="#bcbd22" stroke="black" stroke-width="0.5" fill-rule="evenodd"/>
</svg>
