<?xml version='1.0' encoding='UTF-8'?>
<svg version="1.1" xmlns="http://www.w3.org/2000/svg" width="1000" height="600" viewBox="0 0 1000 600">
  <path d="M 453.159,547.433 C 456.514,546.021 463.899,541.859 469.570,538.183 C 475.242,534.507 483.630,529.349 488.211,526.720 C 492.791,524.091 499.341,519.444 502.766,516.394 C 511.585,508.537 534.962,481.259 540.500,472.361 C 545.722,463.971 560.132,449.102 571.056,440.830 C 588.594,427.551 594.435,420.445 592.072,415.259 C 590.570,411.962 588.252,412.610 576.749,419.544 C 571.772,422.545 567.092,425.000 566.350,425.000 C 565.607,425.000 565.000,425.520 565.000,426.156 C 565.000,426.791 563.951,428.704 562.669,430.406 C 561.386,432.108 558.860,436.292 557.054,439.704 C 547.204,458.316 538.986,460.991 510.086,454.992 C 494.712,451.801 489.854,451.462 480.768,452.950 C 472.357,454.328 469.356,456.117 459.819,465.442 C 445.547,479.397 431.469,501.902 428.953,514.784 C 426.279,528.482 429.206,544.229 435.209,548.434 C 438.598,550.807 446.142,550.387 453.159,547.433 Z" fill="#ff7f0e" stroke="black" stroke-width="0.5" fill-rule="evenodd"/>
  <path d="M 543.565,425.231 C 542.857,424.524 537.511,427.799 535.019,430.465 C 532.938,432.693 533.457,432.515 538.240,429.365 C 541.377,427.300 543.773,425.439 543.565,425.231 Z" fill="#ff7f0e" stroke="black" stroke-width="0.5" fill-rule="evenodd"/>
</svg>
