<?xml version='1.0' encoding='UTF-8'?>
<svg version="1.1" xmlns="http://www.w3.org/2000/svg" width="1000" height="600" viewBox="0 0 1000 600">
  <path d="M 560.145,396.750 C 563.246,392.332 564.399,391.573 571.958,388.971 C 585.906,384.170 587.756,383.112 588.424,379.555 C 588.762,377.751 589.840,375.550 590.819,374.664 C 593.851,371.920 600.935,370.004 608.376,369.914 C 613.392,369.854 614.743,369.598 612.942,369.052 C 611.534,368.625 609.411,367.755 608.222,367.119 C 602.737,364.183 612.866,356.893 627.088,353.541 C 635.384,351.585 638.985,351.642 641.713,353.772 C 643.669,355.299 643.820,355.965 643.015,359.500 C 642.007,363.929 638.092,367.961 634.694,368.070 C 632.580,368.138 632.573,368.172 634.500,369.000 C 635.600,369.473 637.697,369.891 639.161,369.930 C 640.848,369.974 642.770,371.126 644.411,373.077 C 647.079,376.247 647.405,376.111 646.373,372.261 C 646.043,371.030 645.455,370.219 645.067,370.458 C 644.679,370.698 644.566,369.504 644.815,367.805 C 645.120,365.732 644.909,364.938 644.174,365.392 C 643.410,365.865 643.335,365.229 643.927,363.284 C 644.393,361.753 645.306,358.542 645.957,356.149 C 646.760,353.199 649.013,349.785 652.956,345.548 C 656.154,342.110 659.271,338.363 659.882,337.221 C 660.576,335.924 660.922,329.775 660.804,320.823 C 660.614,306.387 661.164,302.527 665.659,286.796 C 667.182,281.467 667.174,280.676 665.540,274.796 C 662.477,263.770 657.786,254.862 652.676,250.364 C 644.129,242.840 626.749,234.957 614.339,232.974 C 602.579,231.096 568.253,234.993 563.000,238.803 C 556.554,243.479 554.157,255.343 557.963,263.728 C 559.939,268.080 568.219,279.990 584.732,302.229 C 595.056,316.133 596.749,320.040 597.634,332.000 C 598.280,340.735 597.115,344.298 591.394,351.093 C 589.353,353.517 585.016,359.550 581.756,364.500 C 578.496,369.450 573.054,376.466 569.664,380.091 C 561.927,388.363 554.504,400.000 556.964,400.000 C 557.459,400.000 558.890,398.538 560.145,396.750 Z" fill="#ff7f0e" stroke="black" stroke-width="0.5" fill-rule="evenodd"/>
</svg>
