<?xml version='1.0' encoding='UTF-8'?>
<svg version="1.1" xmlns="http://www.w3.org/2000/svg" width="1000" height="600" viewBox="0 0 1000 600">
  <path d="M 576.812,376.916 C 579.177,376.091 580.992,373.995 584.389,368.166 C 589.103,360.076 593.295,355.000 595.263,355.000 C 595.913,355.000 595.445,354.299 594.223,353.443 C 593.000,352.587 592.004,350.900 592.010,349.693 C 592.025,346.372 596.644,337.137 600.332,333.054 C 602.134,331.060 606.945,324.526 611.024,318.534 C 620.252,304.976 628.352,296.080 632.161,295.318 C 634.045,294.941 635.000,294.131 635.000,292.910 C 635.000,290.036 645.689,274.181 651.635,268.234 C 654.586,265.284 657.000,262.060 657.000,261.070 C 657.000,257.800 653.149,254.282 640.119,245.655 C 622.304,233.857 620.919,233.500 593.000,233.500 C 553.950,233.500 546.500,236.624 546.500,253.000 C 546.500,260.923 548.407,264.927 557.931,277.000 C 561.618,281.675 567.377,289.325 570.728,294.000 C 574.078,298.675 579.392,305.425 582.535,309.000 C 594.833,322.987 596.022,334.486 586.368,346.079 C 575.573,359.041 569.238,370.826 570.455,375.678 C 571.106,378.271 572.273,378.498 576.812,376.916 Z" fill="#ff7f0e" stroke="black" stroke-width="0.5" fill-rule="evenodd"/>
  <path d="M 655.270,339.750 C 655.143,334.663 655.030,329.926 655.020,329.225 C 654.993,327.498 651.677,326.397 644.500,325.733 C 640.316,325.345 639.213,325.455 640.855,326.095 C 647.856,328.825 651.656,333.943 653.964,343.750 C 654.644,346.637 655.267,349.000 655.350,349.000 C 655.432,349.000 655.396,344.838 655.270,339.750 Z" fill="#ff7f0e" stroke="black" stroke-width="0.5" fill-rule="evenodd"/>
</svg>
