<?xml version='1.0' encoding='UTF-8'?>
<svg version="1.1" xmlns="http://www.w3.org/2000/svg" width="1000" height="600" viewBox="0 0 1000 600">
  <path d="M 429.976,375.128 C 429.899,369.855 422.104,356.077 413.609,346.197 C 404.052,335.083 405.188,322.668 416.946,309.714 C 419.548,306.846 427.038,297.342 433.589,288.593 C 440.140,279.844 446.556,271.294 447.847,269.593 C 456.968,257.573 455.637,242.480 445.000,237.315 C 433.900,231.925 390.695,231.325 376.088,236.358 C 372.045,237.750 354.114,249.156 347.250,254.701 C 341.538,259.315 341.611,261.855 347.613,267.308 C 352.909,272.121 365.000,289.882 365.000,292.850 C 365.000,294.222 365.878,295.034 367.825,295.461 C 371.858,296.347 379.444,304.580 389.513,319.000 C 394.314,325.875 399.597,333.046 401.253,334.935 C 404.738,338.911 407.946,345.502 407.978,348.750 C 407.990,349.988 407.100,351.900 406.000,353.000 C 404.900,354.100 404.397,355.000 404.881,355.000 C 406.745,355.000 412.349,361.804 416.131,368.659 C 419.320,374.439 420.796,376.106 423.791,377.309 C 427.779,378.911 430.020,378.121 429.976,375.128 Z" fill="#ff7f0e" stroke="black" stroke-width="0.5" fill-rule="evenodd"/>
  <path d="M 346.478,343.000 C 348.551,334.862 351.912,329.635 356.748,327.026 C 359.663,325.454 359.942,325.102 358.000,325.447 C 356.625,325.691 353.373,326.166 350.773,326.503 C 348.174,326.840 345.812,327.495 345.526,327.958 C 345.020,328.777 344.083,350.256 344.576,349.752 C 344.711,349.613 345.567,346.575 346.478,343.000 Z" fill="#ff7f0e" stroke="black" stroke-width="0.5" fill-rule="evenodd"/>
</svg>
