<?xml version='1.0' encoding='UTF-8'?>
<svg version="1.1" xmlns="http://www.w3.org/2000/svg" width="1000" height="600" viewBox="0 0 1000 600">
  <path d="M 542.905,356.871 C 541.152,353.917 538.015,348.125 535.933,344.000 C 529.992,332.229 528.857,331.659 532.562,342.306 C 535.225,349.961 537.014,353.292 540.717,357.492 C 543.326,360.452 545.603,362.731 545.776,362.557 C 545.949,362.384 544.657,359.825 542.905,356.871 Z" fill="#c7c7c7" stroke="black" stroke-width="0.5" fill-rule="evenodd"/>
  <path d="M 511.535,327.250 C 512.233,325.622 513.609,281.040 514.136,243.000 C 514.315,230.102 514.038,225.789 512.870,223.244 L 511.375,219.987 L 507.018,223.716 C 503.922,226.367 501.594,229.767 498.970,235.473 C 492.221,250.150 491.500,254.113 491.501,276.500 C 491.503,294.661 491.718,297.190 493.842,304.000 C 496.903,313.814 501.493,322.348 505.693,326.035 C 509.601,329.466 510.506,329.655 511.535,327.250 Z" fill="#c7c7c7" stroke="black" stroke-width="0.5" fill-rule="evenodd"/>
</svg>
