<?xml version='1.0' encoding='UTF-8'?>
<svg version="1.1" xmlns="http://www.w3.org/2000/svg" width="1000" height="600" viewBox="0 0 1000 600">
  <path d="M 440.657,402.067 C 446.783,398.332 452.616,397.155 470.557,396.032 C 486.281,395.047 497.728,393.663 520.357,390.008 C 532.081,388.115 535.877,384.591 536.288,375.221 C 536.456,371.384 535.793,369.027 533.117,363.936 C 528.467,355.091 526.104,346.381 524.998,334.000 C 524.153,324.550 523.801,323.275 521.474,321.250 C 520.052,320.012 517.721,319.000 516.293,319.000 C 512.100,319.000 477.359,310.134 471.637,307.603 C 462.604,303.608 454.934,305.646 437.901,316.563 C 431.888,320.418 430.521,321.844 428.583,326.290 C 425.560,333.223 418.471,355.986 416.995,363.500 C 416.347,366.800 415.232,370.423 414.516,371.550 C 413.444,373.240 413.454,374.031 414.572,376.050 C 415.319,377.398 415.945,379.188 415.965,380.028 C 416.036,383.127 423.243,396.616 426.768,400.250 C 431.018,404.631 435.493,405.217 440.657,402.067 Z" fill="#c7c7c7" stroke="black" stroke-width="0.5" fill-rule="evenodd"/>
  <path d="M 575.290,317.000 C 575.002,315.900 574.073,315.000 573.224,315.000 C 572.376,315.000 566.679,312.372 560.565,309.161 C 551.150,304.216 548.380,303.225 542.474,302.687 L 535.500,302.053 L 541.000,303.863 C 544.025,304.859 550.325,307.619 555.000,309.996 C 562.707,313.915 573.499,318.689 575.156,318.912 C 575.517,318.960 575.577,318.100 575.290,317.000 Z" fill="#c7c7c7" stroke="black" stroke-width="0.5" fill-rule="evenodd"/>
</svg>
