<?xml version='1.0' encoding='UTF-8'?>
<svg version="1.1" xmlns="http://www.w3.org/2000/svg" width="1000" height="600" viewBox="0 0 1000 600">
  <path d="M 543.085,407.909 C 548.585,402.021 548.835,397.505 545.982,355.500 C 545.422,347.250 544.739,335.609 544.466,329.631 C 544.017,319.843 543.742,318.585 541.701,316.979 C 540.454,315.998 538.359,312.902 537.046,310.098 C 535.291,306.352 534.107,305.004 532.579,305.015 C 529.256,305.040 528.149,306.255 526.147,312.072 C 523.297,320.356 519.652,327.017 514.521,333.316 C 506.360,343.334 505.529,346.169 505.533,364.000 C 505.538,387.821 507.950,394.814 518.974,402.973 C 530.957,411.841 538.054,413.294 543.085,407.909 Z" fill="#7f7f7f" stroke="black" stroke-width="0.5" fill-rule="evenodd"/>
</svg>
