<?xml version='1.0' encoding='UTF-8'?>
<svg version="1.1" xmlns="http://www.w3.org/2000/svg" width="1000" height="600" viewBox="0 0 1000 600">
  <path d="M 663.921,430.629 C 664.815,429.853 671.140,428.557 678.500,427.642 C 694.942,425.597 701.501,423.904 711.500,419.124 C 721.855,414.175 730.161,407.364 733.004,401.491 L 735.215,396.924 L 732.908,390.754 C 730.328,383.855 724.717,377.719 717.476,373.878 C 714.167,372.123 712.722,370.561 711.539,367.463 C 709.587,362.352 705.478,358.397 696.500,352.986 C 692.650,350.666 687.570,347.201 685.211,345.285 C 681.918,342.611 680.344,341.948 678.430,342.428 C 675.337,343.205 672.437,347.822 671.587,353.324 C 669.948,363.928 668.529,365.305 658.000,366.508 C 654.975,366.853 650.406,367.802 647.846,368.617 C 645.286,369.431 636.637,370.887 628.625,371.853 C 620.613,372.819 613.731,373.936 613.331,374.335 C 611.674,375.993 613.025,382.299 616.399,388.653 C 618.380,392.383 620.000,396.237 620.000,397.217 C 620.000,398.539 620.840,399.028 623.250,399.110 C 625.038,399.171 621.325,400.015 615.000,400.987 C 602.895,402.846 598.633,404.117 595.752,406.725 C 591.379,410.682 595.174,415.527 607.313,421.483 C 617.879,426.667 626.508,428.468 646.000,429.557 C 652.875,429.941 659.175,430.634 660.000,431.097 C 662.003,432.222 662.101,432.210 663.921,430.629 Z" fill="#2ca02c" stroke="black" stroke-width="0.5" fill-rule="evenodd"/>
</svg>
