<?xml version='1.0' encoding='UTF-8'?>
<svg version="1.1" xmlns="http://www.w3.org/2000/svg" width="1000" height="600" viewBox="0 0 1000 600">
  <path d="M 572.329,208.824 C 573.449,208.224 576.421,206.272 578.933,204.484 C 581.445,202.697 585.750,200.106 588.500,198.725 C 594.878,195.525 596.146,194.064 600.442,184.968 C 602.383,180.861 605.838,174.350 608.120,170.500 C 614.585,159.595 613.713,153.752 603.227,137.731 C 597.154,128.451 596.387,126.244 595.111,114.377 C 593.425,98.702 588.508,92.000 578.697,92.000 C 571.991,92.000 569.276,93.401 561.505,100.869 C 557.652,104.572 552.925,108.660 551.000,109.955 C 536.969,119.389 528.521,133.664 525.906,152.355 C 524.944,159.232 525.035,162.306 526.472,171.467 C 528.418,183.880 531.468,194.676 533.755,197.250 C 535.786,199.536 538.734,199.460 542.740,197.017 C 545.362,195.418 546.506,195.240 548.740,196.082 C 553.753,197.972 557.833,202.894 559.108,208.591 L 560.286,213.858 L 565.289,211.886 C 568.041,210.801 571.209,209.424 572.329,208.824 Z" fill="#2ca02c" stroke="black" stroke-width="0.5" fill-rule="evenodd"/>
</svg>
