<?xml version='1.0' encoding='UTF-8'?>
<svg version="1.1" xmlns="http://www.w3.org/2000/svg" width="1000" height="600" viewBox="0 0 1000 600">
  <path d="M 583.171,209.320 C 587.165,207.632 591.780,204.647 594.671,201.883 C 604.950,192.055 604.885,192.166 606.941,180.928 C 607.990,175.192 609.154,167.350 609.527,163.500 C 609.901,159.650 610.620,155.723 611.126,154.773 C 611.698,153.698 611.668,152.377 611.046,151.273 C 610.496,150.298 609.578,147.700 609.006,145.500 C 608.427,143.274 605.748,138.840 602.964,135.500 C 595.353,126.371 592.461,121.636 588.831,112.364 C 584.886,102.287 578.598,93.856 572.835,90.916 L 568.666,88.789 L 561.215,90.954 C 555.497,92.615 551.455,94.770 543.827,100.221 C 538.362,104.128 533.074,108.361 532.077,109.629 C 529.160,113.338 524.089,135.616 522.939,149.775 C 521.848,163.209 521.887,163.786 525.149,182.292 C 528.217,199.697 530.873,201.108 537.755,188.991 C 540.095,184.871 542.471,181.345 543.037,181.156 C 544.959,180.512 548.818,183.918 549.901,187.215 C 550.494,189.022 551.883,194.738 552.988,199.919 C 555.761,212.930 556.277,213.384 567.500,212.693 C 574.230,212.279 578.183,211.428 583.171,209.320 Z" fill="#2ca02c" stroke="black" stroke-width="0.5" fill-rule="evenodd"/>
</svg>
