<?xml version='1.0' encoding='UTF-8'?>
<svg version="1.1" xmlns="http://www.w3.org/2000/svg" width="1000" height="600" viewBox="0 0 1000 600">
  <path d="M 692.479,434.500 C 699.252,429.826 714.156,420.360 721.950,415.784 C 724.947,414.024 729.283,410.765 731.585,408.542 C 736.543,403.755 737.570,399.571 736.524,388.416 C 735.917,381.932 735.233,380.075 730.773,372.779 C 727.989,368.226 724.723,362.010 723.515,358.967 C 720.507,351.390 712.243,336.015 709.637,333.150 C 706.786,330.014 696.751,325.004 693.279,324.983 C 691.750,324.973 687.125,324.032 683.000,322.891 C 670.453,319.421 659.985,319.327 646.500,322.564 L 634.989,325.327 L 633.944,329.414 C 631.378,339.442 628.588,344.465 621.398,352.000 C 614.460,359.270 613.492,367.383 617.153,387.583 C 618.357,394.229 619.084,400.339 618.768,401.161 C 618.420,402.068 615.110,403.348 610.348,404.418 C 606.031,405.387 601.491,406.477 600.258,406.840 L 598.016,407.500 L 599.971,410.714 C 602.271,414.493 609.300,419.819 616.958,423.582 C 621.779,425.952 625.668,426.825 643.707,429.584 C 645.472,429.854 649.130,431.825 651.836,433.965 C 657.508,438.448 659.287,438.805 675.091,438.629 L 686.683,438.500 L 692.479,434.500 Z" fill="#2ca02c" stroke="black" stroke-width="0.5" fill-rule="evenodd"/>
</svg>
