<?xml version='1.0' encoding='UTF-8'?>
<svg version="1.1" xmlns="http://www.w3.org/2000/svg" width="1000" height="600" viewBox="0 0 1000 600">
  <path d="M 383.642,425.502 C 390.232,425.142 391.628,424.760 392.363,423.113 C 392.844,422.034 395.941,419.711 399.244,417.950 C 415.009,409.548 417.098,401.906 409.104,381.878 L 406.159,374.500 L 399.830,372.159 C 384.677,366.555 376.048,365.083 354.214,364.377 C 342.821,364.009 332.633,363.397 331.574,363.017 C 330.358,362.581 328.414,363.095 326.301,364.413 C 324.460,365.561 321.512,367.411 319.751,368.524 C 315.144,371.435 312.561,375.798 308.932,386.800 C 307.172,392.135 305.319,397.025 304.814,397.666 C 304.198,398.447 304.511,399.027 305.765,399.425 C 306.793,399.752 309.699,402.410 312.222,405.333 C 316.057,409.774 318.262,411.252 325.655,414.337 C 340.712,420.620 368.898,427.589 374.148,426.326 C 375.054,426.108 379.326,425.737 383.642,425.502 Z" fill="#9467bd" stroke="black" stroke-width="0.5" fill-rule="evenodd"/>
</svg>
