<?xml version='1.0' encoding='UTF-8'?>
<svg version="1.1" xmlns="http://www.w3.org/2000/svg" width="1000" height="600" viewBox="0 0 1000 600">
  <path d="M 665.581,279.500 C 665.219,275.100 664.006,267.000 662.886,261.500 C 659.222,243.524 658.040,231.053 658.020,210.184 C 658.007,196.786 657.607,189.125 656.845,187.684 C 656.210,186.483 653.796,183.250 651.480,180.500 C 645.889,173.859 642.884,168.913 639.322,160.490 C 635.350,151.095 625.827,135.933 621.528,132.159 C 619.432,130.319 615.215,128.255 610.960,126.988 C 603.422,124.743 600.000,122.249 600.000,119.000 C 600.000,116.273 598.151,116.463 597.565,119.250 C 597.305,120.487 596.615,123.914 596.032,126.864 C 595.449,129.814 593.672,135.214 592.084,138.864 C 590.495,142.514 587.782,150.115 586.053,155.756 C 583.171,165.162 577.452,177.585 570.734,189.029 C 567.854,193.936 564.653,209.343 565.191,215.708 C 565.487,219.204 565.788,219.473 572.431,222.189 C 577.662,224.329 582.196,225.272 590.923,226.037 C 597.282,226.595 604.852,227.797 607.746,228.709 L 613.007,230.367 L 615.754,227.813 C 617.264,226.408 619.763,224.457 621.307,223.477 C 622.850,222.497 625.439,219.769 627.059,217.415 C 630.510,212.398 632.767,211.438 637.466,212.989 C 641.671,214.377 646.174,219.343 648.983,225.694 C 652.528,233.709 656.703,251.947 657.407,262.500 C 657.775,268.000 658.713,274.975 659.492,278.000 C 660.271,281.025 661.122,285.300 661.383,287.500 C 661.644,289.700 661.904,291.725 661.962,292.000 C 662.019,292.275 663.005,291.375 664.152,290.000 C 666.028,287.751 666.172,286.696 665.581,279.500 Z" fill="#9467bd" stroke="black" stroke-width="0.5" fill-rule="evenodd"/>
</svg>
