<?xml version='1.0' encoding='UTF-8'?>
<svg version="1.1" xmlns="http://www.w3.org/2000/svg" width="1000" height="600" viewBox="0 0 1000 600">
  <path d="M 412.805,218.043 C 417.636,216.967 426.181,215.929 431.793,215.737 C 442.664,215.364 443.645,214.913 446.034,209.185 C 447.468,205.749 447.204,196.424 445.562,192.494 C 444.771,190.602 441.250,185.992 437.736,182.251 C 430.242,174.272 427.046,169.019 424.013,159.693 C 421.817,152.941 411.916,136.775 404.808,128.335 L 401.301,124.171 L 394.367,127.525 C 385.419,131.853 375.752,141.588 373.973,148.063 C 373.303,150.504 371.220,157.408 369.345,163.406 C 365.759,174.881 364.300,184.075 365.382,188.386 C 365.738,189.804 367.314,191.628 368.885,192.441 C 370.456,193.253 376.758,199.786 382.889,206.959 L 394.037,220.000 L 399.029,220.000 C 401.775,220.000 407.974,219.120 412.805,218.043 Z" fill="#9467bd" stroke="black" stroke-width="0.5" fill-rule="evenodd"/>
</svg>
