<?xml version='1.0' encoding='UTF-8'?>
<svg version="1.1" xmlns="http://www.w3.org/2000/svg" width="1000" height="600" viewBox="0 0 1000 600">
  <path d="M 444.000,438.979 C 474.022,437.885 481.259,436.456 486.750,430.534 C 490.796,426.171 490.958,424.537 487.250,425.491 C 485.738,425.880 480.900,426.803 476.500,427.542 C 472.100,428.280 463.325,430.110 457.000,431.609 C 447.694,433.813 443.115,434.334 433.000,434.338 C 416.382,434.345 401.000,430.606 401.000,426.559 C 401.000,425.195 409.938,418.000 411.634,418.000 C 412.110,417.999 414.441,415.746 416.812,412.991 L 421.125,407.984 L 419.193,405.242 C 418.131,403.734 416.072,399.969 414.618,396.876 C 409.260,385.479 400.716,378.849 383.500,372.729 C 373.940,369.331 370.094,368.944 342.664,368.618 L 318.827,368.334 L 313.292,371.667 C 305.585,376.308 302.977,376.079 297.186,370.250 L 292.467,365.500 L 292.330,373.575 L 292.194,381.650 L 295.347,383.378 C 300.297,386.092 301.955,389.268 303.988,399.935 C 305.029,405.398 306.569,411.199 307.410,412.826 C 309.450,416.771 315.278,421.263 322.494,424.455 C 325.741,425.891 329.770,428.111 331.449,429.389 C 337.469,433.971 342.877,436.003 351.720,437.004 C 356.549,437.550 362.975,438.613 366.000,439.365 C 371.983,440.854 395.739,440.736 444.000,438.979 Z" fill="#9467bd" stroke="black" stroke-width="0.5" fill-rule="evenodd"/>
</svg>
