<?xml version='1.0' encoding='UTF-8'?>
<svg version="1.1" xmlns="http://www.w3.org/2000/svg" width="1000" height="600" viewBox="0 0 1000 600">
  <path d="M 635.513,438.986 C 637.156,438.357 642.377,437.438 647.116,436.943 C 656.169,435.998 662.947,433.652 668.296,429.611 C 670.058,428.280 674.366,425.811 677.868,424.124 C 690.992,417.804 693.364,414.687 696.157,400.093 C 698.048,390.214 700.484,385.383 704.939,382.680 C 707.325,381.233 707.506,380.586 707.590,373.232 L 707.680,365.338 L 703.024,370.169 C 697.303,376.105 694.569,376.363 687.123,371.668 L 681.838,368.336 L 657.669,368.630 C 631.055,368.954 628.467,369.193 619.000,372.205 C 600.286,378.159 591.299,384.781 584.985,397.271 C 582.697,401.797 580.407,406.005 579.897,406.622 C 578.730,408.031 585.772,416.789 589.826,418.969 C 595.184,421.850 599.320,425.723 598.717,427.294 C 597.867,429.511 588.490,432.698 578.892,434.033 C 568.458,435.483 557.635,434.684 543.408,431.414 C 537.409,430.034 528.605,428.257 523.844,427.464 C 519.083,426.671 514.021,425.578 512.594,425.036 C 508.957,423.653 509.145,425.957 513.030,430.381 C 519.199,437.407 528.583,438.749 580.000,439.956 C 620.114,440.898 631.021,440.707 635.513,438.986 Z" fill="#9467bd" stroke="black" stroke-width="0.5" fill-rule="evenodd"/>
</svg>
