<?xml version="1.0" encoding="UTF-8" standalone="no"?>
<!-- Created with Inkscape (http://www.inkscape.org/) -->

<svg
   width="30.763308mm"
   height="46.463215mm"
   viewBox="0 0 30.763307 46.463215"
   version="1.1"
   id="svg237104"
   inkscape:version="1.2 (dc2aeda, 2022-05-15)"
   sodipodi:docname="Brainstem_Navigator_L_lateral.svg"
   xmlns:inkscape="http://www.inkscape.org/namespaces/inkscape"
   xmlns:sodipodi="http://sodipodi.sourceforge.net/DTD/sodipodi-0.dtd"
   xmlns="http://www.w3.org/2000/svg"
   xmlns:svg="http://www.w3.org/2000/svg">
  <sodipodi:namedview
     id="namedview237106"
     pagecolor="#ffffff"
     bordercolor="#000000"
     borderopacity="0.25"
     inkscape:showpageshadow="2"
     inkscape:pageopacity="0.0"
     inkscape:pagecheckerboard="0"
     inkscape:deskcolor="#d1d1d1"
     inkscape:document-units="mm"
     showgrid="false"
     inkscape:zoom="3.2381997"
     inkscape:cx="43.697119"
     inkscape:cy="75.041696"
     inkscape:window-width="1470"
     inkscape:window-height="792"
     inkscape:window-x="0"
     inkscape:window-y="340"
     inkscape:window-maximized="1"
     inkscape:current-layer="layer1" />
  <defs
     id="defs237101">
    <clipPath
       id="clipPath238646">
      <rect
         x="53.501259"
         y="27.311251"
         width="468.9975"
         height="356.68875"
         id="rect238644" />
    </clipPath>
    <clipPath
       id="clipPath238650">
      <rect
         x="53.501259"
         y="27.311251"
         width="468.9975"
         height="356.68875"
         id="rect238648" />
    </clipPath>
    <clipPath
       id="clipPath238654">
      <rect
         x="53.501259"
         y="27.311251"
         width="468.9975"
         height="356.68875"
         id="rect238652" />
    </clipPath>
    <clipPath
       id="clipPath238658">
      <rect
         x="53.501259"
         y="27.311251"
         width="468.9975"
         height="356.68875"
         id="rect238656" />
    </clipPath>
    <clipPath
       id="clipPath238662">
      <rect
         x="53.501259"
         y="27.311251"
         width="468.9975"
         height="356.68875"
         id="rect238660" />
    </clipPath>
    <clipPath
       id="clipPath238666">
      <rect
         x="53.501259"
         y="27.311251"
         width="468.9975"
         height="356.68875"
         id="rect238664" />
    </clipPath>
    <clipPath
       id="clipPath238670">
      <rect
         x="53.501259"
         y="27.311251"
         width="468.9975"
         height="356.68875"
         id="rect238668" />
    </clipPath>
    <clipPath
       id="clipPath238674">
      <rect
         x="53.501259"
         y="27.311251"
         width="468.9975"
         height="356.68875"
         id="rect238672" />
    </clipPath>
    <clipPath
       id="clipPath238678">
      <rect
         x="53.501259"
         y="27.311251"
         width="468.9975"
         height="356.68875"
         id="rect238676" />
    </clipPath>
    <clipPath
       id="clipPath238682">
      <rect
         x="53.501259"
         y="27.311251"
         width="468.9975"
         height="356.68875"
         id="rect238680" />
    </clipPath>
    <clipPath
       id="clipPath238686">
      <rect
         x="53.501259"
         y="27.311251"
         width="468.9975"
         height="356.68875"
         id="rect238684" />
    </clipPath>
    <clipPath
       id="clipPath238690">
      <rect
         x="53.501259"
         y="27.311251"
         width="468.9975"
         height="356.68875"
         id="rect238688" />
    </clipPath>
    <clipPath
       id="clipPath238694">
      <rect
         x="53.501259"
         y="27.311251"
         width="468.9975"
         height="356.68875"
         id="rect238692" />
    </clipPath>
    <clipPath
       id="clipPath238698">
      <rect
         x="53.501259"
         y="27.311251"
         width="468.9975"
         height="356.68875"
         id="rect238696" />
    </clipPath>
    <clipPath
       id="clipPath238702">
      <rect
         x="53.501259"
         y="27.311251"
         width="468.9975"
         height="356.68875"
         id="rect238700" />
    </clipPath>
    <clipPath
       id="clipPath238706">
      <rect
         x="53.501259"
         y="27.311251"
         width="468.9975"
         height="356.68875"
         id="rect238704" />
    </clipPath>
    <clipPath
       id="clipPath238710">
      <rect
         x="53.501259"
         y="27.311251"
         width="468.9975"
         height="356.68875"
         id="rect238708" />
    </clipPath>
    <clipPath
       id="clipPath238714">
      <rect
         x="53.501259"
         y="27.311251"
         width="468.9975"
         height="356.68875"
         id="rect238712" />
    </clipPath>
    <clipPath
       id="clipPath238718">
      <rect
         x="53.501259"
         y="27.311251"
         width="468.9975"
         height="356.68875"
         id="rect238716" />
    </clipPath>
    <clipPath
       id="clipPath238722">
      <rect
         x="53.501259"
         y="27.311251"
         width="468.9975"
         height="356.68875"
         id="rect238720" />
    </clipPath>
    <clipPath
       id="clipPath238726">
      <rect
         x="53.501259"
         y="27.311251"
         width="468.9975"
         height="356.68875"
         id="rect238724" />
    </clipPath>
    <clipPath
       id="clipPath238730">
      <rect
         x="53.501259"
         y="27.311251"
         width="468.9975"
         height="356.68875"
         id="rect238728" />
    </clipPath>
    <clipPath
       id="clipPath238734">
      <rect
         x="53.501259"
         y="27.311251"
         width="468.9975"
         height="356.68875"
         id="rect238732" />
    </clipPath>
    <clipPath
       id="clipPath238738">
      <rect
         x="53.501259"
         y="27.311251"
         width="468.9975"
         height="356.68875"
         id="rect238736" />
    </clipPath>
    <clipPath
       id="clipPath238742">
      <rect
         x="53.501259"
         y="27.311251"
         width="468.9975"
         height="356.68875"
         id="rect238740" />
    </clipPath>
    <clipPath
       id="clipPath238746">
      <rect
         x="53.501259"
         y="27.311251"
         width="468.9975"
         height="356.68875"
         id="rect238744" />
    </clipPath>
    <clipPath
       id="clipPath238750">
      <rect
         x="53.501259"
         y="27.311251"
         width="468.9975"
         height="356.68875"
         id="rect238748" />
    </clipPath>
    <clipPath
       id="clipPath238754">
      <rect
         x="53.501259"
         y="27.311251"
         width="468.9975"
         height="356.68875"
         id="rect238752" />
    </clipPath>
    <clipPath
       id="clipPath238758">
      <rect
         x="53.501259"
         y="27.311251"
         width="468.9975"
         height="356.68875"
         id="rect238756" />
    </clipPath>
    <clipPath
       id="clipPath238762">
      <rect
         x="53.501259"
         y="27.311251"
         width="468.9975"
         height="356.68875"
         id="rect238760" />
    </clipPath>
    <clipPath
       id="clipPath238766">
      <rect
         x="53.501259"
         y="27.311251"
         width="468.9975"
         height="356.68875"
         id="rect238764" />
    </clipPath>
    <clipPath
       id="clipPath238770">
      <rect
         x="53.501259"
         y="27.311251"
         width="468.9975"
         height="356.68875"
         id="rect238768" />
    </clipPath>
    <clipPath
       id="clipPath238774">
      <rect
         x="53.501259"
         y="27.311251"
         width="468.9975"
         height="356.68875"
         id="rect238772" />
    </clipPath>
    <clipPath
       id="clipPath238778">
      <rect
         x="53.501259"
         y="27.311251"
         width="468.9975"
         height="356.68875"
         id="rect238776" />
    </clipPath>
    <clipPath
       id="clipPath238782">
      <rect
         x="53.501259"
         y="27.311251"
         width="468.9975"
         height="356.68875"
         id="rect238780" />
    </clipPath>
    <clipPath
       id="clipPath238786">
      <rect
         x="53.501259"
         y="27.311251"
         width="468.9975"
         height="356.68875"
         id="rect238784" />
    </clipPath>
    <clipPath
       id="clipPath238790">
      <rect
         x="53.501259"
         y="27.311251"
         width="468.9975"
         height="356.68875"
         id="rect238788" />
    </clipPath>
    <clipPath
       id="clipPath238794">
      <rect
         x="53.501259"
         y="27.311251"
         width="468.9975"
         height="356.68875"
         id="rect238792" />
    </clipPath>
    <clipPath
       id="clipPath238798">
      <rect
         x="53.501259"
         y="27.311251"
         width="468.9975"
         height="356.68875"
         id="rect238796" />
    </clipPath>
    <clipPath
       id="clipPath238802">
      <rect
         x="53.501259"
         y="27.311251"
         width="468.9975"
         height="356.68875"
         id="rect238800" />
    </clipPath>
    <clipPath
       id="clipPath238806">
      <rect
         x="53.501259"
         y="27.311251"
         width="468.9975"
         height="356.68875"
         id="rect238804" />
    </clipPath>
    <clipPath
       id="clipPath238810">
      <rect
         x="53.501259"
         y="27.311251"
         width="468.9975"
         height="356.68875"
         id="rect238808" />
    </clipPath>
    <clipPath
       id="clipPath238814">
      <rect
         x="53.501259"
         y="27.311251"
         width="468.9975"
         height="356.68875"
         id="rect238812" />
    </clipPath>
    <clipPath
       id="clipPath238818">
      <rect
         x="53.501259"
         y="27.311251"
         width="468.9975"
         height="356.68875"
         id="rect238816" />
    </clipPath>
    <clipPath
       id="clipPath238822">
      <rect
         x="53.501259"
         y="27.311251"
         width="468.9975"
         height="356.68875"
         id="rect238820" />
    </clipPath>
    <clipPath
       id="clipPath238826">
      <rect
         x="53.501259"
         y="27.311251"
         width="468.9975"
         height="356.68875"
         id="rect238824" />
    </clipPath>
    <clipPath
       id="clipPath238830">
      <rect
         x="53.501259"
         y="27.311251"
         width="468.9975"
         height="356.68875"
         id="rect238828" />
    </clipPath>
    <clipPath
       id="clipPath238834">
      <rect
         x="53.501259"
         y="27.311251"
         width="468.9975"
         height="356.68875"
         id="rect238832" />
    </clipPath>
    <clipPath
       id="clipPath238838">
      <rect
         x="53.501259"
         y="27.311251"
         width="468.9975"
         height="356.68875"
         id="rect238836" />
    </clipPath>
    <clipPath
       id="clipPath238842">
      <rect
         x="53.501259"
         y="27.311251"
         width="468.9975"
         height="356.68875"
         id="rect238840" />
    </clipPath>
    <clipPath
       id="clipPath238846">
      <rect
         x="53.501259"
         y="27.311251"
         width="468.9975"
         height="356.68875"
         id="rect238844" />
    </clipPath>
    <clipPath
       id="clipPath238850">
      <rect
         x="53.501259"
         y="27.311251"
         width="468.9975"
         height="356.68875"
         id="rect238848" />
    </clipPath>
    <clipPath
       id="clipPath238854">
      <rect
         x="53.501259"
         y="27.311251"
         width="468.9975"
         height="356.68875"
         id="rect238852" />
    </clipPath>
    <clipPath
       id="clipPath238858">
      <rect
         x="53.501259"
         y="27.311251"
         width="468.9975"
         height="356.68875"
         id="rect238856" />
    </clipPath>
    <clipPath
       id="clipPath238862">
      <rect
         x="53.501259"
         y="27.311251"
         width="468.9975"
         height="356.68875"
         id="rect238860" />
    </clipPath>
    <clipPath
       id="clipPath238866">
      <rect
         x="53.501259"
         y="27.311251"
         width="468.9975"
         height="356.68875"
         id="rect238864" />
    </clipPath>
    <clipPath
       id="clipPath238870">
      <rect
         x="53.501259"
         y="27.311251"
         width="468.9975"
         height="356.68875"
         id="rect238868" />
    </clipPath>
    <clipPath
       id="clipPath238874">
      <rect
         x="53.501259"
         y="27.311251"
         width="468.9975"
         height="356.68875"
         id="rect238872" />
    </clipPath>
    <clipPath
       id="clipPath238878">
      <rect
         x="53.501259"
         y="27.311251"
         width="468.9975"
         height="356.68875"
         id="rect238876" />
    </clipPath>
    <clipPath
       id="clipPath238882">
      <rect
         x="53.501259"
         y="27.311251"
         width="468.9975"
         height="356.68875"
         id="rect238880" />
    </clipPath>
    <clipPath
       id="clipPath238886">
      <rect
         x="53.501259"
         y="27.311251"
         width="468.9975"
         height="356.68875"
         id="rect238884" />
    </clipPath>
    <clipPath
       id="clipPath238890">
      <rect
         x="53.501259"
         y="27.311251"
         width="468.9975"
         height="356.68875"
         id="rect238888" />
    </clipPath>
    <clipPath
       id="clipPath238894">
      <rect
         x="53.501259"
         y="27.311251"
         width="468.9975"
         height="356.68875"
         id="rect238892" />
    </clipPath>
    <clipPath
       id="clipPath238898">
      <rect
         x="53.501259"
         y="27.311251"
         width="468.9975"
         height="356.68875"
         id="rect238896" />
    </clipPath>
    <clipPath
       id="clipPath238902">
      <rect
         x="53.501259"
         y="27.311251"
         width="468.9975"
         height="356.68875"
         id="rect238900" />
    </clipPath>
    <clipPath
       id="clipPath238906">
      <rect
         x="53.501259"
         y="27.311251"
         width="468.9975"
         height="356.68875"
         id="rect238904" />
    </clipPath>
    <clipPath
       id="clipPath238910">
      <rect
         x="53.501259"
         y="27.311251"
         width="468.9975"
         height="356.68875"
         id="rect238908" />
    </clipPath>
  </defs>
  <g
     inkscape:label="Layer 1"
     inkscape:groupmode="layer"
     id="layer1"
     transform="translate(-29.246527)">
    <path
       d="m 51.870924,34.106247 c -0.05016,0.02508 -0.147558,0.0738 -0.200901,0.433438 -0.05334,0.359645 -0.06551,1.029249 -0.05322,1.558677 0.0123,0.529427 0.04882,0.918999 0.01078,1.390261 -0.03804,0.47126 -0.150097,1.024787 -0.01039,1.33975 0.139698,0.314963 0.52604,0.392044 0.802165,0.395446 0.276124,0.0034 0.42007,-0.06523 0.59562,-0.138274 0.175547,-0.07305 0.358175,-0.14033 0.458819,-0.354499 0.100643,-0.214172 0.105525,-0.55631 0.04405,-0.939975 -0.06147,-0.383665 -0.189772,-0.804323 -0.278404,-1.159818 -0.08863,-0.355497 -0.137411,-0.645828 -0.238419,-0.956434 -0.101007,-0.310607 -0.25025,-0.632069 -0.442253,-0.905608 -0.192003,-0.273541 -0.412647,-0.47871 -0.525176,-0.583349 -0.112529,-0.104637 -0.112523,-0.1047 -0.162685,-0.07961 z"
       clip-path="none"
       style="fill:#1f9e89;stroke:#000000;stroke-width:0.124536;stroke-linecap:butt;stroke-linejoin:miter;stroke-dasharray:none"
       id="path1441700">
      <title
         id="title286433">RPa_lateral_B</title>
    </path>
    <path
       d="m 52.434909,33.239987 c 0.0301,0.128436 0.08989,0.383535 0.137719,0.590823 0.04782,0.207292 0.0837,0.366738 0.111621,0.486282 0.02792,0.119543 0.04784,0.199251 0.08774,0.318652 0.0399,0.119401 0.09969,0.27884 0.16146,0.420141 0.06177,0.141301 0.125549,0.264863 0.18374,0.322412 0.0582,0.05756 0.11402,0.04962 0.273581,-0.0809 0.15956,-0.130514 0.42263,-0.385612 0.565133,-0.570782 0.142503,-0.185166 0.162433,-0.300769 0.0766,-0.415975 -0.08584,-0.115207 -0.277167,-0.226818 -0.450413,-0.338371 -0.173246,-0.111552 -0.328704,-0.223157 -0.521988,-0.366632 -0.193282,-0.143474 -0.424475,-0.318865 -0.539883,-0.406418 -0.115407,-0.08755 -0.115412,-0.08767 -0.08531,0.04076 z"
       clip-path="none"
       style="fill:#1f978b;stroke:#000000;stroke-width:0.124536;stroke-linecap:butt;stroke-linejoin:miter;stroke-dasharray:none"
       id="path1441704">
      <title
         id="title284149">ROb_lateral_BL</title>
    </path>
    <path
       d="m 51.621591,29.574501 c -0.02256,-0.0056 -0.06605,-0.01652 -0.06605,-0.01652 -2e-6,0 0.04347,0.01086 -0.03128,-5.54e-4 -0.07474,-0.01136 -0.263215,-0.0443 -0.397798,0.06731 -0.134583,0.111608 -0.207556,0.359664 -0.255918,0.589708 -0.04836,0.230046 -0.06847,0.427169 -0.05508,0.631607 0.01338,0.20444 0.06166,0.428433 0.145322,0.550226 0.08367,0.121793 0.201819,0.145891 0.327351,0.09452 0.125536,-0.05138 0.255856,-0.181689 0.386757,-0.398625 0.130902,-0.216936 0.261219,-0.52101 0.300095,-0.72296 0.03888,-0.201951 -0.01543,-0.2997 -0.08656,-0.414597 -0.07113,-0.114897 -0.154265,-0.239557 -0.199261,-0.307031 -0.04499,-0.06747 -0.045,-0.06751 -0.06757,-0.07314 z"
       clip-path="none"
       style="fill:#26828e;stroke:#000000;stroke-width:0.124536;stroke-linecap:butt;stroke-linejoin:miter;stroke-dasharray:none"
       id="path1441708">
      <title
         id="title283568">RMg_lateral_B</title>
    </path>
    <path
       d="m 45.371799,5.1436531 c -0.243009,-0.03938 -0.722971,-0.1171587 -0.978375,0.060834 -0.255404,0.1779948 -0.280908,0.6089248 -0.07666,1.0879168 0.204253,0.478992 0.63781,1.003049 1.081644,1.54512 0.443835,0.542068 0.898282,1.102549 1.234008,1.474115 0.335725,0.371569 0.552281,0.553936 0.735736,0.7282771 0.183453,0.174342 0.333047,0.339919 0.531753,0.5657 0.198705,0.225782 0.445217,0.510296 0.705616,0.774808 0.260398,0.264513 0.53561,0.51 0.78282,0.535699 0.247212,0.02569 0.462057,-0.166703 0.536762,-0.4929 0.0747,-0.326198 0.0059,-0.772551 -0.13983,-1.171096 C 49.639554,9.8535839 49.420801,9.5144879 49.173746,9.1387849 48.926691,8.7630799 48.657671,8.3604349 48.431398,8.0669139 48.205124,7.7733919 48.023354,7.5916229 47.780948,7.3567929 47.53854,7.1219629 47.235587,6.8341569 46.864509,6.4630779 46.493431,6.0919989 46.054142,5.6375598 45.834474,5.4103149 45.614803,5.1830693 45.614806,5.1830327 45.371797,5.1436524 Z"
       clip-path="none"
       style="fill:#481668;stroke:#000000;stroke-width:0.124536;stroke-linecap:butt;stroke-linejoin:miter;stroke-dasharray:none"
       id="path1441712">
      <title
         id="title276284">DR_lateral_B</title>
    </path>
    <path
       d="m 44.224126,7.6573769 c 0.02835,-0.08345 0.08548,-0.251634 0.04015,-0.446719 -0.04534,-0.195084 -0.191151,-0.412129 -0.384631,-0.649744 -0.193479,-0.237616 -0.432414,-0.492474 -0.543736,-0.382422 -0.111321,0.110052 -0.09493,0.58614 -0.328826,0.789151 -0.233895,0.203013 -0.714698,0.130569 -0.897294,0.165544 -0.182594,0.03498 -0.06637,0.179598 0.04294,0.273899 0.109313,0.0943 0.2155,0.142096 0.436378,0.232776 0.220877,0.09068 0.556631,0.224261 0.844278,0.24831 0.287646,0.02405 0.516587,-0.05859 0.639493,-0.102975 0.122907,-0.04437 0.122905,-0.04437 0.151251,-0.12782 z"
       clip-path="none"
       style="fill:#440154;stroke:#000000;stroke-width:0.124536;stroke-linecap:butt;stroke-linejoin:miter;stroke-dasharray:none"
       id="path1441716">
      <title
         id="title273079">CLi_RLi_lateral_B</title>
    </path>
    <path
       d="M 39.832622,5.3631299 C 39.798992,5.217495 39.731091,4.9233718 39.626927,4.7212005 39.522762,4.5190292 39.385844,4.4138566 39.242056,4.3022428 39.098268,4.1906285 38.949708,4.0741893 38.767493,3.9858052 38.58528,3.8974204 38.37546,3.8386166 38.146245,3.8129186 c -0.229216,-0.025694 -0.463497,-0.016882 -0.660237,0.068679 -0.196738,0.085557 -0.342529,0.2422606 -0.422087,0.4372763 -0.07955,0.1950163 -0.08963,0.4235263 0.04545,0.57545 0.135078,0.1519231 0.414983,0.228568 0.552123,0.2917126 0.137141,0.063141 0.126708,0.1098738 0.259663,0.2073625 0.132957,0.097488 0.410436,0.2457396 0.614266,0.3296099 0.203832,0.08386 0.33082,0.102493 0.542611,0.05548 0.211791,-0.04701 0.500776,-0.1586705 0.64449,-0.2142007 0.143715,-0.055532 0.143718,-0.055532 0.110095,-0.2011661 z"
       clip-path="none"
       style="fill:#23898e;stroke:#000000;stroke-width:0.124536;stroke-linecap:butt;stroke-linejoin:miter;stroke-dasharray:none"
       id="path1441720">
      <title
         id="title269774">RN1_lateral_L</title>
    </path>
    <path
       d="m 41.516729,5.3044047 c -0.02864,-0.020043 -0.08541,-0.05979 -0.265275,-0.076632 -0.179868,-0.01684 -0.4808,-0.011147 -0.679757,0.012155 -0.198953,0.023302 -0.295482,0.063049 -0.372052,0.1031634 -0.07658,0.040118 -0.133349,0.079862 -0.198745,0.116485 -0.06539,0.036625 -0.139174,0.070668 -0.242379,0.1473337 -0.103204,0.076666 -0.240489,0.1988561 -0.335962,0.3143751 -0.09547,0.11552 -0.133307,0.203098 -0.09917,0.416485 0.03413,0.213387 0.14058,0.538824 0.08748,0.800952 -0.05309,0.26213 -0.261013,0.44719 -0.331833,0.601029 -0.07082,0.153837 0.0019,0.265794 0.09723,0.394758 0.09534,0.128964 0.213711,0.275302 0.416057,0.363604 0.202349,0.0883 0.482245,0.117166 0.751733,0.0776 0.269488,-0.03957 0.513845,-0.145109 0.780897,-0.361441 0.267055,-0.216331 0.539567,-0.529745 0.589811,-0.755961 0.05024,-0.226216 -0.126908,-0.353296 -0.241599,-0.476447 -0.114692,-0.123151 -0.165799,-0.242394 -0.194382,-0.358225 -0.02858,-0.115832 -0.03425,-0.229401 -0.0091,-0.407979 0.02516,-0.178578 0.08195,-0.422758 0.132513,-0.5817546 0.05056,-0.1589959 0.09597,-0.2327712 0.119557,-0.271113 0.02359,-0.038343 0.02359,-0.038343 -0.0051,-0.058383 z"
       clip-path="none"
       style="fill:#21918c;stroke:#000000;stroke-width:0.124536;stroke-linecap:butt;stroke-linejoin:miter;stroke-dasharray:none"
       id="path1441724">
      <title
         id="title272426">RN2_lateral_L</title>
    </path>
    <path
       d="m 51.888896,30.152592 c -0.116622,0.106515 -0.344653,0.314779 -0.468072,0.643797 -0.123422,0.329018 -0.139066,0.774553 0.0031,1.137016 0.142195,0.362467 0.441433,0.642592 0.686784,0.73256 0.245353,0.08997 0.425546,-0.0097 0.764133,-0.291198 0.338586,-0.281473 0.827814,-0.741846 0.947061,-1.155858 0.119247,-0.414013 -0.130468,-0.771591 -0.497329,-0.959684 -0.366864,-0.188093 -0.844216,-0.200669 -1.081648,-0.206927 -0.237434,-0.0062 -0.237437,-0.0062 -0.354058,0.100294 z"
       clip-path="none"
       style="fill:#35b779;stroke:#000000;stroke-width:0.124536;stroke-linecap:butt;stroke-linejoin:miter;stroke-dasharray:none"
       id="path1441728">
      <title
         id="title282983">SOC_lateral_L</title>
    </path>
    <path
       d="m 53.971927,34.467125 c -0.183632,0.155037 -0.547294,0.462072 -0.738789,0.771396 -0.191495,0.309325 -0.214723,0.628309 -0.143254,1.039647 0.07147,0.411338 0.235698,0.910092 0.370537,1.278955 0.134837,0.368864 0.236797,0.598587 0.332778,0.81349 0.09598,0.214903 0.181609,0.405196 0.259103,0.568803 0.07749,0.163605 0.144422,0.295259 0.237044,0.311608 0.09262,0.01636 0.211268,-0.08145 0.272393,-0.184048 0.06113,-0.102587 0.06113,-0.20943 -0.07072,-0.508846 -0.131838,-0.299416 -0.397296,-0.792268 -0.570563,-1.305059 -0.173265,-0.51279 -0.251417,-1.034403 -0.194472,-1.389915 0.05694,-0.355512 0.247361,-0.536293 0.342656,-0.768283 0.09529,-0.231991 0.09117,-0.503411 0.08904,-0.643099 -0.0021,-0.139687 -0.0021,-0.139687 -0.185754,0.01536 z"
       clip-path="none"
       style="fill:#90d743;stroke:#000000;stroke-width:0.124536;stroke-linecap:butt;stroke-linejoin:miter;stroke-dasharray:none"
       id="path1441732">
      <title
         id="title286994">iMRtm_lateral_L</title>
    </path>
    <path
       d="m 54.158111,33.767381 c -0.289442,0.606356 -0.08352,1.136638 0.205002,1.475188 0.288517,0.338552 0.656851,0.482221 1.071206,1.113727 0.41436,0.631506 0.870112,1.743484 1.189309,2.704986 0.31919,0.961503 0.498017,1.762111 0.822456,1.920531 0.32444,0.158417 0.795578,-0.323291 1.013122,-0.836162 0.217544,-0.512872 0.178234,-1.044374 0.03661,-1.530766 -0.141633,-0.486394 -0.381689,-0.912751 -0.595748,-1.453723 -0.214058,-0.540973 -0.400582,-1.195429 -0.709359,-2.112894 -0.308778,-0.917466 -0.733354,-2.079526 -1.343939,-2.324767 -0.610592,-0.245239 -1.399208,0.437525 -1.688649,1.04388 z"
       clip-path="none"
       style="fill:#5ec962;stroke:#000000;stroke-width:0.124536;stroke-linecap:butt;stroke-linejoin:miter;stroke-dasharray:none"
       id="path1441736">
      <title
         id="title285868">VSM_lateral_L</title>
    </path>
    <path
       d="m 53.782409,31.259792 c -0.08255,0.05863 -0.240946,0.171156 -0.406753,0.320747 -0.165808,0.149593 -0.326622,0.324805 -0.480535,0.499356 -0.153913,0.174552 -0.286281,0.331849 -0.379819,0.500285 -0.09354,0.168433 -0.143197,0.339951 -0.129149,0.568355 0.01404,0.228404 0.09132,0.507318 0.208977,0.732363 0.117655,0.225046 0.273548,0.391099 0.509998,0.502218 0.236451,0.111118 0.555359,0.168028 0.846935,0.165082 0.291573,-0.003 0.550868,-0.06519 0.742249,-0.128551 0.191384,-0.06336 0.313123,-0.128292 0.443017,-0.197301 0.129887,-0.06901 0.267845,-0.142045 0.430157,-0.364046 0.162311,-0.222001 0.347995,-0.59537 0.352186,-0.947948 0.0042,-0.352579 -0.170919,-0.672783 -0.304524,-0.904506 -0.133604,-0.231724 -0.222891,-0.369723 -0.430212,-0.501063 -0.207329,-0.131344 -0.51684,-0.249531 -0.756795,-0.298939 -0.239954,-0.04941 -0.399241,-0.02736 -0.481212,-0.01602 -0.08196,0.01135 -0.08196,0.01132 -0.16452,0.06997 z"
       clip-path="none"
       style="fill:#ece51b;stroke:#000000;stroke-width:0.124536;stroke-linecap:butt;stroke-linejoin:miter;stroke-dasharray:none"
       id="path1441740">
      <title
         id="title285299">sMRtl_lateral_L</title>
    </path>
    <path
       d="m 55.850971,36.022871 c -0.115135,-0.1882 -0.342083,-0.559153 -0.547973,-0.765287 -0.205889,-0.206131 -0.374613,-0.233193 -0.542518,-0.264945 -0.167907,-0.03175 -0.326669,-0.06674 -0.609093,0.02499 -0.282425,0.09173 -0.684014,0.306427 -0.648606,1.046397 0.0354,0.739971 0.510645,2.001631 0.793911,2.719905 0.283266,0.718277 0.372271,0.889245 0.525877,1.24521 0.153606,0.355965 0.368934,0.890727 0.523683,1.474848 0.154742,0.584123 0.247013,1.209091 0.402643,1.798937 0.15563,0.589847 0.371898,1.132265 0.670141,1.502105 0.298238,0.369844 0.681572,0.571589 1.021581,0.474904 0.340009,-0.09669 0.629217,-0.484925 0.69022,-1.002972 0.06102,-0.518048 -0.110176,-1.138104 -0.246779,-1.649859 -0.136596,-0.511759 -0.234723,-0.900819 -0.420633,-1.595553 -0.185909,-0.694732 -0.458552,-1.690868 -0.722813,-2.54535 -0.264269,-0.854483 -0.51859,-1.562599 -0.646544,-1.918884 -0.127961,-0.356287 -0.127961,-0.35625 -0.243097,-0.544451 z"
       clip-path="none"
       style="fill:#7fd34e;stroke:#000000;stroke-width:0.124536;stroke-linecap:butt;stroke-linejoin:miter;stroke-dasharray:none"
       id="path1441744">
      <title
         id="title287551">iMRtl_lateral_L</title>
    </path>
    <path
       d="m 52.222554,34.822151 c -0.09538,-0.365217 -0.286097,-1.095421 -0.889558,-1.476591 -0.603465,-0.381168 -1.610219,-0.408888 -1.821241,0.342722 -0.21102,0.751611 0.378479,2.280863 0.835951,3.293116 0.457472,1.01225 0.783846,1.509654 1.164134,1.809198 0.380285,0.299547 0.798515,0.396916 1.056601,0.140471 0.258085,-0.256445 0.321667,-0.832361 0.298058,-1.400301 -0.0236,-0.567941 -0.136611,-1.102857 -0.242816,-1.487632 -0.106206,-0.384776 -0.206186,-0.620779 -0.255966,-0.738281 -0.04978,-0.117503 -0.04978,-0.117485 -0.145163,-0.482702 z"
       clip-path="none"
       style="fill:#482878;stroke:#000000;stroke-width:0.124536;stroke-linecap:butt;stroke-linejoin:miter;stroke-dasharray:none"
       id="path1441748">
      <title
         id="title284726">ION_lateral_L</title>
    </path>
    <path
       d="m 51.629298,17.403824 c -0.02387,0 -0.06917,0 -0.06917,0 2e-6,0 0.0453,0 0.0058,0 -0.03964,0 -0.164205,0 -0.300101,0 -0.135894,0 -0.283113,0 -0.31914,0.189783 -0.03602,0.189784 0.03865,0.579575 0.122491,1.096341 0.08384,0.516766 0.17728,1.162235 0.236469,1.670355 0.05918,0.508122 0.08454,0.882382 0.261614,1.704337 0.177082,0.821955 0.505496,2.090306 0.805628,3.058318 0.300103,0.968014 0.571893,1.636166 0.775707,2.088924 0.203816,0.452761 0.339706,0.690572 0.49824,0.935661 0.158534,0.245087 0.340061,0.498098 0.516415,0.676055 0.176356,0.177955 0.34163,0.277383 0.507333,0.240501 0.165705,-0.03688 0.302181,-0.197375 0.372306,-0.879994 0.07012,-0.682619 0.05644,-1.763001 0.01665,-2.493602 -0.03979,-0.730605 -0.104441,-1.053884 -0.195561,-1.378401 -0.09111,-0.324517 -0.206116,-0.641178 -0.309487,-0.997198 -0.103373,-0.356019 -0.193798,-0.748494 -0.301908,-1.192326 -0.108111,-0.443834 -0.231895,-0.930901 -0.390461,-1.386021 -0.158567,-0.455119 -0.351086,-0.874133 -0.50399,-1.287208 -0.152904,-0.413075 -0.26615,-0.82076 -0.544661,-1.161841 -0.278552,-0.341083 -0.697164,-0.598718 -0.928681,-0.741206 -0.231518,-0.142487 -0.231515,-0.142478 -0.255384,-0.142478 z"
       clip-path="none"
       style="fill:#443983;stroke:#000000;stroke-width:0.124536;stroke-linecap:butt;stroke-linejoin:miter;stroke-dasharray:none"
       id="path1441752">
      <title
         id="title280603">LDTg_CGPn_lateral_L</title>
    </path>
    <path
       d="m 54.644744,24.150225 c -0.02067,-0.13753 -0.06164,-0.410427 -0.224249,-0.608738 -0.162606,-0.198308 -0.443569,-0.319197 -0.729699,-0.276221 -0.286131,0.04297 -0.565983,0.247693 -0.542497,0.666733 0.02349,0.419041 0.347783,1.038976 0.611518,1.57665 0.263732,0.537674 0.450951,0.960515 0.588782,1.358235 0.13783,0.397718 0.222028,0.759329 0.38297,1.209643 0.160942,0.450316 0.397174,0.98468 0.569109,1.024776 0.171941,0.04009 0.280255,-0.41183 0.265954,-1.001979 -0.01432,-0.590149 -0.150113,-1.299229 -0.23152,-1.733546 -0.08141,-0.434319 -0.106231,-0.582391 -0.208894,-0.882569 -0.102662,-0.300176 -0.280593,-0.744939 -0.370705,-0.970198 -0.09012,-0.225256 -0.09011,-0.225256 -0.110769,-0.362786 z"
       clip-path="none"
       style="fill:#4ec36b;stroke:#000000;stroke-width:0.124536;stroke-linecap:butt;stroke-linejoin:miter;stroke-dasharray:none"
       id="path1441756">
      <title
         id="title281801">Ve_lateral_L</title>
    </path>
    <path
       d="m 54.217969,20.09791 c -0.09937,-0.190366 -0.29878,-0.57239 -0.550253,-0.880528 -0.25147,-0.308139 -0.553971,-0.540832 -0.973204,-0.779466 -0.419232,-0.238634 -0.954428,-0.482968 -1.209727,-0.499092 -0.255301,-0.01613 -0.232031,0.193298 -0.187729,0.42698 0.0443,0.233681 0.108124,0.486787 0.157101,0.869685 0.04898,0.382899 0.08152,0.885188 0.2064,1.257501 0.124878,0.372313 0.341456,0.610472 0.461445,0.753119 0.119988,0.142645 0.143241,0.189143 0.258279,0.258622 0.115036,0.06948 0.323622,0.163463 0.562412,0.146566 0.238791,-0.01689 0.501882,-0.143147 0.737265,-0.390307 0.235383,-0.247158 0.436325,-0.609832 0.536852,-0.791274 0.100529,-0.181441 0.100526,-0.181441 0.0012,-0.371806 z"
       clip-path="none"
       style="fill:#46307e;stroke:#000000;stroke-width:0.124536;stroke-linecap:butt;stroke-linejoin:miter;stroke-dasharray:none"
       id="path1441760">
      <title
         id="title279998">LC_lateral_L</title>
    </path>
    <path
       d="m 53.287011,24.240774 c 0.0087,-0.31458 0.02629,-0.946268 0.01633,-1.532496 -0.01,-0.586228 -0.04771,-1.128085 -0.359567,-1.690753 -0.311855,-0.562669 -0.888292,-1.13331 -1.257827,-0.823855 -0.369536,0.309453 -0.520971,1.477501 -0.683531,2.322283 -0.162559,0.844782 -0.322208,1.297809 -0.379791,1.871069 -0.05759,0.573261 -0.0073,1.226313 0.07502,1.781815 0.08227,0.5555 0.195462,1.001672 0.680472,1.202484 0.485013,0.200812 1.341562,0.157128 1.721877,-0.35485 0.380315,-0.511978 0.279811,-1.481625 0.229047,-1.971389 -0.05077,-0.489764 -0.05077,-0.489727 -0.04204,-0.804308 z"
       clip-path="none"
       style="fill:#40bd72;stroke:#000000;stroke-width:0.124536;stroke-linecap:butt;stroke-linejoin:miter;stroke-dasharray:none"
       id="path1441764">
      <title
         id="title281204">SubC_lateral_L</title>
    </path>
    <path
       d="m 52.862878,26.339841 c -0.199056,0.01332 -0.588247,0.0394 -0.900152,0.196116 -0.311904,0.156725 -0.534942,0.440677 -0.697651,0.76327 -0.162709,0.322591 -0.26622,0.682906 -0.207407,1.173368 0.0588,0.490463 0.280132,1.10638 0.52384,1.503058 0.243709,0.396679 0.509496,0.575253 0.802713,0.687026 0.293219,0.111775 0.601125,0.152775 0.891925,-0.0018 0.290799,-0.154537 0.549287,-0.497704 0.675175,-0.869727 0.125888,-0.372023 0.113873,-0.759097 0.08864,-1.097839 -0.02523,-0.338741 -0.06264,-0.615613 -0.110347,-0.905053 -0.04771,-0.289442 -0.104979,-0.585281 -0.251679,-0.830717 -0.1467,-0.245434 -0.37944,-0.436645 -0.497723,-0.533819 -0.118279,-0.09718 -0.118276,-0.09718 -0.317333,-0.08385 z"
       clip-path="none"
       style="fill:#31688e;stroke:#000000;stroke-width:0.124536;stroke-linecap:butt;stroke-linejoin:miter;stroke-dasharray:none"
       id="path1441768">
      <title
         id="title282394">PCRtA_lateral_L</title>
    </path>
    <path
       d="m 46.789156,12.051864 c -0.105675,0.13858 -0.309052,0.405287 -0.38956,0.79043 -0.08052,0.385144 -0.03344,0.880008 -0.01,1.186683 0.02344,0.306678 0.02344,0.424894 0.102498,0.675493 0.07906,0.2506 0.23669,0.634827 0.407966,0.961777 0.171275,0.326951 0.356744,0.597928 0.647365,0.799898 0.290624,0.201972 0.683404,0.333896 0.993087,0.424382 0.309683,0.09049 0.532217,0.137941 0.715861,0.108279 0.183644,-0.02966 0.319118,-0.131359 0.363553,-0.32375 0.04443,-0.192391 -0.01466,-0.468227 -0.04443,-0.645251 -0.02975,-0.177028 -0.02975,-0.255841 -0.06898,-0.517144 -0.03923,-0.261305 -0.118042,-0.704609 -0.172257,-1.034571 -0.05422,-0.329959 -0.08377,-0.546682 -0.17237,-0.773973 -0.0886,-0.22729 -0.236365,-0.463716 -0.369567,-0.641372 -0.133203,-0.177657 -0.251418,-0.295872 -0.422908,-0.465004 -0.171488,-0.169132 -0.395842,-0.388779 -0.650126,-0.511132 -0.254287,-0.122353 -0.534996,-0.147467 -0.679732,-0.160415 -0.144737,-0.01294 -0.144732,-0.0129 -0.250406,0.12567 z"
       clip-path="none"
       style="fill:#2e6f8e;stroke:#000000;stroke-width:0.124536;stroke-linecap:butt;stroke-linejoin:miter;stroke-dasharray:none"
       id="path1441772">
      <title
         id="title278159">PMnR_lateral_B</title>
    </path>
    <path
       d="m 48.145191,12.553399 c -0.102112,0.0709 -0.304151,0.211186 -0.416767,0.339771 -0.112613,0.128586 -0.137367,0.244114 -0.153686,0.347163 -0.01633,0.103049 -0.02458,0.193855 0.01597,0.250068 0.04055,0.05621 0.131339,0.08098 0.333129,0.09358 0.201791,0.0126 0.515386,0.0126 0.701248,-0.0232 0.185863,-0.0358 0.243602,-0.110043 0.230206,-0.280734 -0.0134,-0.170692 -0.100482,-0.436364 -0.21463,-0.585624 -0.114147,-0.149258 -0.252233,-0.180241 -0.322798,-0.196073 -0.07056,-0.01584 -0.07056,-0.01585 -0.172675,0.05505 z"
       clip-path="none"
       style="fill:#3b528b;stroke:#000000;stroke-width:0.124536;stroke-linecap:butt;stroke-linejoin:miter;stroke-dasharray:none"
       id="path1441776">
      <title
         id="title277538">MnR_lateral_B</title>
    </path>
    <path
       d="m 49.991441,13.55398 c -0.170205,0.04596 -0.501554,0.135436 -0.767479,0.430829 -0.265923,0.295391 -0.458185,0.789877 -0.413733,1.258384 0.04446,0.468509 0.326403,0.907389 0.68898,1.273735 0.362575,0.366349 0.805932,0.660593 1.258085,0.940962 0.452155,0.280369 0.907818,0.543624 1.256653,0.788262 0.348837,0.244638 0.588545,0.46936 0.914274,0.77583 0.32573,0.306471 0.73842,0.695576 1.039468,0.647695 0.301049,-0.04789 0.484171,-0.520159 0.595044,-0.888018 0.110873,-0.367859 0.138485,-0.594138 0.11567,-0.786566 -0.02281,-0.192428 -0.09773,-0.342247 -0.435487,-0.58268 -0.337761,-0.240432 -0.93704,-0.570041 -1.288805,-0.779653 -0.351767,-0.209614 -0.456621,-0.299485 -0.786285,-0.561706 -0.329664,-0.26222 -0.884,-0.696697 -1.243152,-1.085578 -0.359153,-0.38888 -0.52396,-0.733487 -0.618919,-0.972776 -0.09496,-0.239288 -0.119215,-0.370259 -0.131663,-0.437471 -0.01245,-0.06721 -0.01245,-0.06721 -0.182651,-0.02125 z"
       clip-path="none"
       style="fill:#375a8c;stroke:#000000;stroke-width:0.124536;stroke-linecap:butt;stroke-linejoin:miter;stroke-dasharray:none"
       id="path1441780">
      <title
         id="title279389">MPB_lateral_L</title>
    </path>
    <path
       d="m 54.761178,14.513415 c -0.181849,-0.181847 -0.545539,-0.545536 -0.818594,-0.788187 -0.273054,-0.242653 -0.454901,-0.363883 -0.956002,-0.880049 -0.501101,-0.516168 -1.317968,-1.423144 -1.995739,-1.54042 -0.67777,-0.117278 -1.205343,0.556487 -1.346488,1.069912 -0.141147,0.513423 0.106394,0.86216 0.351292,1.345877 0.244898,0.483718 0.486801,1.101765 0.778565,1.601597 0.291762,0.499833 0.632931,0.880756 1.014337,1.17785 0.381406,0.297092 0.800916,0.509125 1.323777,0.837684 0.522861,0.328558 1.139061,0.767307 1.640541,0.837837 0.501489,0.07053 0.881908,-0.228633 1.091918,-0.663398 0.210009,-0.434764 0.244627,-0.978081 0.05883,-1.487773 -0.185791,-0.509692 -0.565978,-0.911761 -0.763281,-1.120422 -0.197304,-0.208661 -0.197311,-0.208661 -0.379156,-0.390508 z"
       clip-path="none"
       style="fill:#424186;stroke:#000000;stroke-width:0.124536;stroke-linecap:butt;stroke-linejoin:miter;stroke-dasharray:none"
       id="path1441784">
      <title
         id="title278776">LPB_lateral_L</title>
    </path>
    <path
       d="m 39.629099,7.2323259 c -0.01269,-0.106412 -0.03824,-0.320766 -0.101786,-0.500798 -0.06355,-0.180033 -0.163888,-0.322768 -0.238461,-0.434015 -0.07457,-0.111248 -0.123224,-0.190819 -0.253868,-0.338678 C 38.904339,5.8109759 38.694058,5.597288 38.432475,5.4135148 38.170892,5.2297401 37.863955,5.0806355 37.57004,4.9367917 37.276125,4.7929478 36.996655,4.6550844 36.781824,4.5279698 36.566993,4.4008544 36.421503,4.2871984 36.251364,4.1676698 36.081226,4.0481406 35.890958,3.9257732 35.643387,3.8734169 c -0.24757,-0.052354 -0.535305,-0.0315 -0.662228,0.2497967 -0.126927,0.2812974 -0.08588,0.8194547 -0.0028,1.4059339 0.08305,0.5864774 0.207967,1.2224174 0.55981,1.8233364 0.351845,0.600919 0.931001,1.168718 1.350943,1.543313 0.41994,0.374594 0.681127,0.556293 0.926008,0.716023 0.244881,0.159728 0.473445,0.297433 0.83101,0.4339331 0.357564,0.136501 0.840575,0.270666 0.800768,0.09478 -0.0398,-0.1758881 -0.602291,-0.6592281 -0.909191,-1.0491681 -0.306901,-0.38994 -0.353257,-0.672166 -0.306959,-0.824905 0.0463,-0.152739 0.174794,-0.152854 0.406872,-0.161672 0.232078,-0.0088 0.534815,-0.02526 0.716297,-0.04664 0.18148,-0.02136 0.228289,-0.04691 0.25382,-0.166724 0.02553,-0.119815 0.02984,-0.3381 0.03196,-0.44539 0.0021,-0.107288 0.0021,-0.107288 -0.01056,-0.213702 z"
       clip-path="none"
       style="fill:#6ece58;stroke:#000000;stroke-width:0.124536;stroke-linecap:butt;stroke-linejoin:miter;stroke-dasharray:none"
       id="path1441788">
      <title
         id="title270443">VTA_PBP_lateral_L</title>
    </path>
    <path
       d="m 33.2574,8.5853789 c -0.06755,0.117382 -0.195507,0.339741 -0.131962,0.551764 0.06355,0.212023 0.318669,0.397687 0.662456,0.57072 0.343783,0.173033 0.778858,0.3341991 1.193799,0.4413661 0.41494,0.107167 0.798433,0.158092 1.230123,0.184613 0.43169,0.02652 0.893784,0.02743 1.238249,-0.10947 0.344465,-0.136898 0.55991,-0.4066921 0.691371,-0.6796891 0.131461,-0.272996 0.172356,-0.537861 0.261234,-0.840564 0.08888,-0.302703 0.226934,-0.646545 0.437188,-1.005833 0.210251,-0.359286 0.484039,-0.721265 0.35715,-0.786091 -0.126888,-0.06482 -0.6431,0.170695 -1.134951,0.308575 -0.491851,0.137879 -0.925329,0.168023 -1.366991,0.186595 -0.441661,0.01857 -0.87261,0.02471 -1.345364,0.0858 -0.472755,0.06109 -0.976753,0.1763 -1.317953,0.34711 -0.341201,0.170811 -0.521296,0.396109 -0.614047,0.512142 -0.09275,0.116032 -0.09275,0.115583 -0.160302,0.232964 z"
       clip-path="none"
       style="fill:#25ab82;stroke:#000000;stroke-width:0.124536;stroke-linecap:butt;stroke-linejoin:miter;stroke-dasharray:none"
       id="path1441792">
      <title
         id="title271769">SN1_lateral_L</title>
    </path>
    <path
       d="M 37.626281,5.6595183 C 37.547244,5.6298999 37.393955,5.5724675 37.1952,5.512245 36.996444,5.4520245 36.756528,5.3905044 36.306261,5.3041916 35.855996,5.2178788 35.200256,5.1074927 34.556437,5.0413286 33.912615,4.975168 33.288866,4.9542948 32.828512,4.9977507 32.368155,5.0412087 32.06984,5.1485992 31.761389,5.2816738 31.452936,5.4147481 31.141062,5.5706833 30.94974,5.7093279 c -0.19132,0.138645 -0.263289,0.258591 -0.341632,0.448148 -0.07835,0.189557 -0.163865,0.448821 -0.07394,0.784795 0.08993,0.335973 0.35945,0.759402 0.809943,0.95963 0.450493,0.200227 1.081747,0.181342 1.578879,0.100428 0.497133,-0.08092 0.856988,-0.224849 1.103031,-0.30328 0.246045,-0.07843 0.378009,-0.09043 0.594018,-0.09654 0.216008,-0.0061 0.515883,-0.0061 0.937278,-0.04445 0.421394,-0.03833 0.964265,-0.115325 1.347295,-0.158059 0.38303,-0.04274 0.597458,-0.05064 0.971791,-0.140957 0.374333,-0.09032 0.870736,-0.253794 1.155416,-0.402441 0.284677,-0.148647 0.335801,-0.273088 0.690702,-0.186186 0.354901,0.08691 1.005015,0.384291 1.586379,0.559812 0.581364,0.175522 1.080144,0.225554 1.400051,0.145153 0.319908,-0.0804 0.444888,-0.286062 0.564405,-0.502946 0.119515,-0.216884 0.232499,-0.444394 0.220276,-0.684683 -0.01222,-0.24029 -0.144836,-0.472907 -0.396211,-0.6631576 -0.251375,-0.1902516 -0.610182,-0.3268109 -0.930062,-0.3206724 -0.319882,0.00613 -0.592668,0.156273 -0.877681,0.3167345 -0.285013,0.1604625 -0.577827,0.3286645 -0.831983,0.4593225 -0.254157,0.130658 -0.462507,0.220071 -0.696469,0.23651 -0.23396,0.01644 -0.489728,-0.04083 -0.834607,-0.140584 -0.344875,-0.09976 -0.778588,-0.241768 -0.999949,-0.314248 -0.221359,-0.07248 -0.221359,-0.07253 -0.300394,-0.1021415 z"
       clip-path="none"
       style="fill:#2cb17e;stroke:#000000;stroke-width:0.124536;stroke-linecap:butt;stroke-linejoin:miter;stroke-dasharray:none"
       id="path1441796">
      <title
         id="title271108">SN2_lateral_L</title>
    </path>
    <path
       d="m 42.374277,4.4009497 c 0.02084,-0.079559 0.06289,-0.240116 0.05397,-0.4017882 C 42.419347,3.8374893 42.363317,3.6875761 42.311017,3.573288 42.258706,3.4589991 42.217089,3.3995428 42.121764,3.3041546 42.02644,3.2087672 41.877892,3.0780447 41.770586,2.9946909 41.66328,2.9113369 41.59793,2.8756876 41.546625,2.8580914 c -0.0513,-0.017596 -0.08696,-0.017596 -0.151348,-0.050449 -0.06439,-0.032853 -0.159482,-0.09822 -0.3061,-0.1370272 -0.146619,-0.038807 -0.345928,-0.051468 -0.879455,0.00203 -0.533529,0.0535 -1.314503,0.161388 -1.715934,0.3744067 -0.401432,0.2130189 -0.289111,0.4616614 -0.118932,0.7053733 0.170179,0.2437111 0.387418,0.4586207 0.647721,0.6630857 0.2603,0.2044649 0.565971,0.3999588 0.882773,0.5315448 0.316802,0.131586 0.65172,0.202613 0.948541,0.2247766 0.296824,0.022167 0.548272,-0.00459 0.704558,-0.026682 0.156286,-0.022089 0.215708,-0.039902 0.313923,-0.1104672 0.09821,-0.070566 0.234877,-0.1953501 0.32164,-0.2960696 0.08676,-0.1007203 0.122402,-0.1779316 0.140911,-0.21803 0.0185,-0.0401 0.0185,-0.040079 0.03934,-0.1196393 z"
       clip-path="none"
       style="fill:#b5de2b;stroke:#000000;stroke-width:0.124536;stroke-linecap:butt;stroke-linejoin:miter;stroke-dasharray:none"
       id="path1441800">
      <title
         id="title269101">mRta_lateral_L</title>
    </path>
    <path
       d="m 46.526329,8.0948249 c -0.242597,0.100288 -0.716218,0.296081 -1.02193,0.521615 -0.305708,0.225535 -0.427103,0.47127 -0.486939,0.669808 -0.05984,0.198541 -0.05984,0.35089 -0.05555,0.511643 0.0043,0.160754 0.01275,0.3300621 0.03825,0.5026241 0.02548,0.172561 0.06786,0.349636 0.192845,0.514545 0.124992,0.164909 0.337268,0.321989 0.584144,0.417938 0.246878,0.09595 0.537182,0.135283 0.816801,0.08746 0.279617,-0.04781 0.53805,-0.179542 0.75384,-0.393828 0.215789,-0.214286 0.376576,-0.498026 0.469817,-0.794281 0.09324,-0.2962551 0.11041,-0.5782581 -0.07834,-0.9372141 -0.188741,-0.358955 -0.575985,-0.775953 -0.773162,-0.988278 -0.197177,-0.212328 -0.197181,-0.212328 -0.439778,-0.112039 z"
       clip-path="none"
       style="fill:#287c8e;stroke:#000000;stroke-width:0.124536;stroke-linecap:butt;stroke-linejoin:miter;stroke-dasharray:none"
       id="path1441804">
      <title
         id="title275651">PTg_lateral_L</title>
    </path>
    <path
       d="M 50.450136,5.2752814 C 50.394834,5.2167189 50.284159,5.0995454 50.160282,4.9854604 50.036406,4.8713753 49.899679,4.7606929 49.823734,4.7054696 49.747784,4.650244 49.734757,4.650244 49.663171,4.5817596 49.591583,4.513271 49.460254,4.3776164 49.22437,4.1918137 48.988487,4.0060117 48.65344,3.7742692 48.320644,3.6228111 47.98785,3.4713522 47.665411,3.4038054 47.38493,3.3707222 c -0.280485,-0.03308 -0.514183,-0.030943 -0.670841,-0.026505 -0.156657,0.00444 -0.234757,0.010949 -0.306261,0.047861 -0.0715,0.036904 -0.136653,0.1020508 -0.185706,0.1440265 -0.04905,0.041976 -0.08156,0.061505 -0.143206,0.1172167 -0.06165,0.055713 -0.152803,0.1468675 -0.207645,0.2122048 -0.05484,0.065335 -0.07435,0.1043697 -0.103624,0.1662741 -0.02927,0.061907 -0.06831,0.1464824 -0.08716,0.2829638 -0.01886,0.136482 -0.01886,0.325259 0.144109,0.6759227 0.162962,0.3506635 0.488491,0.8649961 0.726134,1.2458941 0.237643,0.380897 0.387388,0.628307 0.520698,0.816828 0.133311,0.18852 0.250501,0.318734 0.403571,0.507646 0.153069,0.188912 0.341877,0.436311 0.47501,0.588981 0.133133,0.152669 0.211261,0.211266 0.289698,0.289681 0.07844,0.07841 0.156577,0.176085 0.263695,0.276704 0.107117,0.100619 0.243842,0.204792 0.338495,0.286393 0.09465,0.0816 0.146732,0.140189 0.250626,0.224617 0.103893,0.08442 0.261861,0.196346 0.463273,0.269895 0.20141,0.07356 0.451649,0.111222 0.707311,0.133522 0.255665,0.02231 0.507651,0.0287 0.736915,-0.02238 0.229263,-0.05109 0.421907,-0.156365 0.570173,-0.251193 0.148267,-0.09483 0.239212,-0.170615 0.362322,-0.295534 0.12311,-0.124918 0.250329,-0.269346 0.340031,-0.479966 0.0897,-0.210619 0.109683,-0.419694 0.09727,-0.583713 -0.01242,-0.164019 -0.05915,-0.270678 -0.09242,-0.36937 -0.03325,-0.09869 -0.05279,-0.189853 -0.06276,-0.26118 -0.01,-0.07132 -0.01,-0.123387 -0.01623,-0.1726 -0.0062,-0.04922 -0.01931,-0.09483 -0.250653,-0.346283 -0.231337,-0.251449 -0.680562,-0.707167 -0.95726,-0.993623 -0.276698,-0.2864562 -0.380919,-0.4037061 -0.432984,-0.4622806 -0.05207,-0.058575 -0.05207,-0.058882 -0.107372,-0.1174359 z"
       clip-path="none"
       style="fill:#34618d;stroke:#000000;stroke-width:0.124536;stroke-linecap:butt;stroke-linejoin:miter;stroke-dasharray:none"
       id="path1441808">
      <title
         id="title273728">PAG_lateral_B</title>
    </path>
    <path
       d="m 50.144798,5.5755109 c -0.01948,-0.045925 -0.05894,-0.1389166 -0.09324,-0.1960477 -0.03431,-0.057135 -0.06249,-0.076871 -0.120083,-0.127484 -0.05759,-0.050611 -0.144963,-0.1323444 -0.207162,-0.1860171 -0.06219,-0.053673 -0.09887,-0.079061 -0.133319,-0.096035 -0.03445,-0.016974 -0.06539,-0.025397 -0.107021,-0.049271 -0.04164,-0.023873 -0.0952,-0.063339 -0.139466,-0.088815 -0.04427,-0.025475 -0.07802,-0.036714 -0.10417,-0.050661 -0.02615,-0.013947 -0.04583,-0.030823 -0.108325,-0.062005 -0.0625,-0.031183 -0.166777,-0.076275 -0.287132,-0.1028671 -0.120356,-0.026589 -0.255629,-0.035034 -0.36422,-0.03919 -0.10859,-0.00417 -0.190331,-0.00417 -0.249522,-0.00417 -0.05918,0 -0.09583,0 -0.159404,0.00726 -0.06358,0.00726 -0.153766,0.021327 -0.20575,0.028156 -0.05199,0.00684 -0.06609,0.00684 -0.12693,0.034329 -0.06085,0.027507 -0.167951,0.08106 -0.248063,0.1336509 -0.08011,0.052594 -0.133678,0.1033384 -0.192897,0.1568214 -0.05923,0.053483 -0.124073,0.1098788 -0.1715,0.1665901 -0.04742,0.056714 -0.07841,0.1130367 -0.09857,0.1452294 -0.02016,0.032192 -0.02866,0.040685 -0.04336,0.081765 -0.01471,0.041078 -0.03724,0.1143408 -0.04808,0.2028937 -0.01083,0.088548 -0.01083,0.1928334 -0.0023,0.3562154 0.0085,0.163382 0.02544,0.386054 0.08476,0.578341 0.05931,0.192285 0.160775,0.355756 0.250925,0.49235 0.09015,0.136594 0.169085,0.246532 0.288807,0.39721 0.119722,0.150679 0.280376,0.342335 0.375161,0.44071 0.09479,0.09837 0.12574,0.104026 0.256673,0.116808 0.130934,0.01277 0.362057,0.03253 0.598544,0.02298 0.236485,-0.0095 0.478886,-0.049 0.622535,-0.07817 0.14365,-0.02918 0.188745,-0.04891 0.237619,-0.129837 0.04888,-0.08093 0.09961,-0.224673 0.143287,-0.347285 0.04368,-0.122609 0.08033,-0.22407 0.150631,-0.386133 0.0703,-0.162064 0.174598,-0.384751 0.25064,-0.542611 0.07604,-0.157859 0.123944,-0.250836 0.137616,-0.333275 0.01368,-0.08244 -0.0089,-0.152907 -0.02584,-0.214751 -0.01695,-0.06185 -0.02823,-0.115404 -0.05093,-0.161369 -0.0227,-0.04596 -0.05652,-0.082598 -0.07347,-0.1009722 -0.01695,-0.01837 -0.01697,-0.018428 -0.03644,-0.064343 z"
       clip-path="none"
       style="fill:#460b5e;stroke:#000000;stroke-width:0.124536;stroke-linecap:butt;stroke-linejoin:miter;stroke-dasharray:none"
       id="path1441812">
      <title
         id="title274373">CnF_lateral_L</title>
    </path>
    <path
       d="m 46.329584,5.9052979 c -0.03077,-0.04089 -0.09269,-0.123179 -0.149114,-0.188245 -0.05642,-0.065073 -0.107077,-0.1125321 -0.189811,-0.154494 -0.08273,-0.041961 -0.185859,-0.074679 -0.257274,-0.018303 -0.07142,0.056377 -0.102368,0.20193 -0.11612,0.304568 -0.01375,0.102636 -0.01093,0.162744 0.04638,0.220062 0.05732,0.05732 0.169849,0.114263 0.270275,0.129046 0.100426,0.01479 0.190465,-0.0137 0.239559,-0.0294 0.04909,-0.0157 0.05769,-0.01891 0.07766,-0.03724 0.01998,-0.01833 0.05095,-0.05318 0.0713,-0.08622 0.02033,-0.03303 0.02881,-0.06478 0.03336,-0.08185 0.0046,-0.01706 0.0045,-0.01703 -0.02624,-0.05793 z"
       clip-path="none"
       style="fill:#a2da37;stroke:#000000;stroke-width:0.124536;stroke-linecap:butt;stroke-linejoin:miter;stroke-dasharray:none"
       id="path1441816">
      <title
         id="title268424">isRt_lateral_L</title>
    </path>
    <path
       d="m 49.430553,7.0107279 c -0.02151,-0.07741 -0.06497,-0.233913 -0.104085,-0.368709 -0.03911,-0.134796 -0.07388,-0.247812 -0.213382,-0.400849 -0.139496,-0.153039 -0.382918,-0.344294 -0.566344,-0.44863 -0.183423,-0.104335 -0.305155,-0.12172 -0.452998,-0.1390633 -0.147843,-0.017343 -0.321729,-0.034724 -0.530945,-0.012103 -0.209215,0.022622 -0.43657,0.080112 -0.606899,0.1492553 -0.170329,0.06914 -0.24786,0.137798 -0.315868,0.201647 -0.06801,0.06384 -0.128843,0.124684 -0.218194,0.211954 -0.08935,0.08727 -0.203348,0.197325 -0.282384,0.327647 -0.07904,0.130321 -0.115145,0.268184 -0.106156,0.474931 0.009,0.206748 0.0631,0.472367 0.125666,0.673315 0.06258,0.200949 0.132021,0.331169 0.286719,0.460934 0.154699,0.129765 0.3961,0.260228 0.648763,0.372668 0.252659,0.112437 0.511147,0.204679 0.788176,0.201216 0.277026,-0.0035 0.562401,-0.102567 0.810277,-0.260354 0.247873,-0.157785 0.442749,-0.361885 0.561474,-0.52367 0.118724,-0.161787 0.144802,-0.266111 0.170846,-0.366073 0.02605,-0.09996 0.05213,-0.195593 0.05708,-0.274505 0.0049,-0.07891 -0.01242,-0.139706 -0.02134,-0.170936 -0.0089,-0.03123 -0.0089,-0.03125 -0.03041,-0.108671 z"
       clip-path="none"
       style="fill:#3e4989;stroke:#000000;stroke-width:0.124536;stroke-linecap:butt;stroke-linejoin:miter;stroke-dasharray:none"
       id="path1441820">
      <title
         id="title276913">MiTg_PBG_lateral_L</title>
    </path>
    <path
       d="m 51.400131,5.4615588 c -0.01861,0 -0.05338,0 -0.08816,0 -0.03477,0 -0.06955,0 -0.173814,-0.00442 -0.104263,-0.00441 -0.278123,-0.013091 -0.494436,0.032315 -0.216312,0.045406 -0.474455,0.1436675 -0.658983,0.2775241 -0.184529,0.133857 -0.299662,0.306347 -0.375387,0.537151 -0.07573,0.230806 -0.111346,0.516877 -0.129003,0.703402 -0.01765,0.186524 -0.01765,0.273408 0.0087,0.372705 0.02633,0.0993 0.07849,0.212313 0.189627,0.392944 0.111136,0.180632 0.284232,0.433591 0.584847,0.581747 0.300615,0.148155 0.7359,0.193051 1.009308,0.184931 0.273412,-0.0081 0.403791,-0.06896 0.521215,-0.133915 0.117424,-0.06496 0.221753,-0.134504 0.28311,-0.181899 0.06136,-0.04738 0.07869,-0.0734 0.17409,-0.18217 0.09535,-0.108774 0.269215,-0.300028 0.366107,-0.528787 0.09689,-0.228761 0.11411,-0.487007 0.03608,-0.768992 -0.07799,-0.281979 -0.25186,-0.58624 -0.47428,-0.804219 -0.222422,-0.217979 -0.49192,-0.3483878 -0.626158,-0.4133438 -0.134237,-0.064957 -0.134239,-0.064976 -0.152848,-0.064976 z"
       clip-path="none"
       style="fill:#481f70;stroke:#000000;stroke-width:0.124536;stroke-linecap:butt;stroke-linejoin:miter;stroke-dasharray:none"
       id="path1441824">
      <title
         id="title275014">IC_lateral_L</title>
    </path>
    <path
       d="M 45.655546,2.4894433 C 45.448809,2.2888765 45.150816,2.0809935 44.946063,1.916337 44.74131,1.7516806 44.63275,1.6322656 44.52929,1.5397459 44.425828,1.447226 44.328126,1.3820831 44.257982,1.3227301 44.187835,1.2633775 44.144394,1.2090735 44.089507,1.1652614 44.034617,1.1214495 43.969474,1.0888828 43.872148,1.0184695 43.774821,0.94805631 43.644555,0.83949741 43.410331,0.75256561 c -0.234224,-0.0869314 -0.570749,-0.1520704 -0.821143,-0.1486075 -0.250398,0.00346 -0.413714,0.073926 -0.580262,0.1759911 -0.166546,0.1020663 -0.34843,0.24421319 -0.429572,0.39048799 -0.08114,0.1462744 -0.07245,0.3124123 -0.02249,0.4861147 0.04996,0.1737025 0.140968,0.3572366 0.229601,0.5298372 0.08863,0.1726008 0.175777,0.3360038 0.295145,0.4824835 0.119367,0.1464801 0.272414,0.2776515 0.443012,0.4435688 0.1706,0.1659178 0.362166,0.3697802 0.629845,0.4244724 0.267677,0.054689 0.603906,-0.039486 0.860484,-0.1087776 0.256579,-0.069293 0.430293,-0.1127213 0.764259,-0.1705493 0.333965,-0.057829 0.80539,-0.1264437 0.996497,-0.2562352 0.191107,-0.1297913 0.08658,-0.3113418 -0.12016,-0.5119084 z"
       clip-path="none"
       style="fill:#c8e020;stroke:#000000;stroke-width:0.124536;stroke-linecap:butt;stroke-linejoin:miter;stroke-dasharray:none"
       id="path1441828">
      <title
         id="title266369">mRtd_lateral_L</title>
    </path>
    <path
       d="m 49.521442,3.8275159 c 0.03362,-0.1281461 0.101663,-0.387512 0.03332,-0.621261 C 49.486428,2.9725063 49.285667,2.7721957 48.968958,2.5857532 48.652247,2.399311 48.22382,2.2301932 47.950397,2.1230867 47.676973,2.0159804 47.5586,1.9708851 47.473484,1.9485866 c -0.08511,-0.022298 -0.13585,-0.022298 -0.186309,-0.028137 -0.05045,-0.00584 -0.101138,-0.017089 -0.290831,0.054795 -0.18969,0.071884 -0.50843,0.2210193 -0.6331,0.4536868 -0.124673,0.2326676 -0.04717,0.5425894 0.02231,0.7274541 0.06949,0.1848644 0.131491,0.2468682 0.204782,0.3201585 0.07329,0.073291 0.157829,0.1578322 0.340603,0.2759773 0.182771,0.1181458 0.46463,0.2703461 0.742888,0.3466798 0.278256,0.076334 0.554474,0.076334 0.816557,0.070761 0.262082,-0.00558 0.510105,-0.016833 0.673505,-0.052474 0.163402,-0.035641 0.242324,-0.097651 0.283125,-0.1297102 0.0408,-0.032057 0.04081,-0.032114 0.07443,-0.1602604 z"
       clip-path="none"
       style="fill:#20a486;stroke:#000000;stroke-width:0.124536;stroke-linecap:butt;stroke-linejoin:miter;stroke-dasharray:none"
       id="path1441832">
      <title
         id="title267743">SC_lateral_L</title>
    </path>
    <path
       d="M 46.609905,4.6438749 C 46.730732,4.459764 46.853213,4.2731345 46.874227,4.1065649 46.895236,3.9399951 46.81685,3.786005 46.709669,3.6404291 46.602489,3.4948527 46.46775,3.3601132 46.353762,3.2550139 46.239773,3.1499148 46.14959,3.0769279 45.990352,2.9852524 45.831117,2.8935775 45.605332,2.78502 45.3567,2.7091715 45.108069,2.6333237 44.839058,2.5903591 44.594902,2.5881475 c -0.244158,-0.00222 -0.445505,0.035659 -0.64969,0.087477 -0.204185,0.051818 -0.394241,0.1133852 -0.559786,0.3332459 -0.165545,0.2198601 -0.300981,0.5942112 -0.198182,0.9760483 0.102799,0.381837 0.447786,0.7789555 0.880096,1.0044601 0.432308,0.2255047 0.958188,0.2844643 1.278412,0.2906204 0.320223,0.00613 0.435734,-0.04197 0.615863,-0.1594209 0.180128,-0.1174538 0.411627,-0.2950989 0.64829,-0.4767034 z"
       clip-path="none"
       style="fill:#dae319;stroke:#000000;stroke-width:0.124536;stroke-linecap:butt;stroke-linejoin:miter;stroke-dasharray:none"
       id="path1441836">
      <title
         id="title267058">mRtl_lateral_L</title>
    </path>
  </g>
</svg>
