<?xml version='1.0' encoding='UTF-8'?>
<svg version="1.1" xmlns="http://www.w3.org/2000/svg" width="1000" height="600" viewBox="0 0 1000 600">
  <path d="M 683.754,430.456 C 688.014,426.856 694.701,422.354 698.614,420.451 C 707.013,416.366 714.730,409.890 716.637,405.327 C 719.861,397.609 717.307,388.855 710.794,385.299 C 708.024,383.786 705.034,383.500 692.000,383.500 C 671.497,383.500 666.645,384.872 659.250,392.763 C 652.609,399.848 652.286,403.191 657.530,410.548 C 659.472,413.271 663.310,418.650 666.058,422.500 C 668.807,426.350 671.805,431.188 672.721,433.250 C 673.636,435.312 674.750,437.000 675.197,437.000 C 675.643,437.000 679.494,434.055 683.754,430.456 Z" fill="#e06461" stroke="black" stroke-width="0.5" fill-rule="evenodd"/>
</svg>
