<?xml version='1.0' encoding='UTF-8'?>
<svg version="1.1" xmlns="http://www.w3.org/2000/svg" width="1000" height="600" viewBox="0 0 1000 600">
  <path d="M 647.293,257.079 C 648.626,256.572 650.731,254.210 651.972,251.829 C 653.213,249.448 655.462,245.925 656.969,244.000 C 661.232,238.557 662.002,236.532 661.978,230.816 C 661.950,223.940 659.333,218.297 654.094,213.812 C 648.272,208.829 642.752,207.485 628.500,207.580 C 610.324,207.700 603.617,210.174 597.487,219.018 C 594.861,222.809 594.602,223.933 594.650,231.376 C 594.678,235.880 595.251,241.230 595.922,243.265 C 596.989,246.497 597.763,247.149 602.038,248.419 C 604.730,249.218 610.211,250.168 614.216,250.529 C 623.911,251.404 628.640,252.683 632.914,255.588 C 636.684,258.149 642.807,258.784 647.293,257.079 Z" fill="#4f02a2" stroke="black" stroke-width="0.5" fill-rule="evenodd"/>
</svg>
