<?xml version='1.0' encoding='UTF-8'?>
<svg version="1.1" xmlns="http://www.w3.org/2000/svg" width="1000" height="600" viewBox="0 0 1000 600">
  <path d="M 577.418,258.058 C 578.364,255.614 580.004,252.399 581.062,250.913 C 584.093,246.656 585.899,231.856 586.803,203.856 C 587.492,182.508 587.912,177.784 589.307,175.654 C 590.966,173.122 590.936,173.050 586.406,168.797 C 583.889,166.434 581.122,164.101 580.259,163.613 C 578.400,162.563 559.791,163.423 557.800,164.651 C 557.042,165.118 554.318,167.780 551.745,170.567 L 547.068,175.634 L 545.445,188.067 C 544.532,195.056 544.100,202.623 544.458,205.349 C 545.300,211.755 547.795,217.820 550.095,219.051 C 551.251,219.670 552.953,223.264 554.618,228.605 C 556.917,235.977 558.311,238.420 564.657,246.192 C 569.729,252.405 572.376,256.607 573.148,259.674 C 574.403,264.656 574.944,264.451 577.418,258.058 Z" fill="#eff821" stroke="black" stroke-width="0.5" fill-rule="evenodd"/>
</svg>
