<?xml version='1.0' encoding='UTF-8'?>
<svg version="1.1" xmlns="http://www.w3.org/2000/svg" width="1000" height="600" viewBox="0 0 1000 600">
  <path d="M 558.269,195.750 C 560.543,193.963 567.233,187.550 573.136,181.500 C 581.361,173.070 585.056,168.363 588.949,161.354 C 595.026,150.414 596.464,143.989 595.633,131.500 C 594.787,118.790 593.563,115.290 588.030,109.750 C 583.980,105.695 582.716,105.003 579.393,105.018 C 575.238,105.038 561.865,110.131 554.248,114.595 C 548.076,118.212 537.596,128.884 531.754,137.500 C 527.820,143.302 526.905,145.527 526.404,150.500 C 525.982,154.696 526.254,157.702 527.310,160.500 C 531.736,172.236 533.039,176.004 534.449,181.150 C 535.547,185.155 537.500,188.577 541.156,192.900 C 545.847,198.447 546.669,199.000 550.225,199.000 C 553.121,199.000 555.206,198.158 558.269,195.750 Z" fill="#f9db24" stroke="black" stroke-width="0.5" fill-rule="evenodd"/>
</svg>
