<?xml version='1.0' encoding='UTF-8'?>
<svg version="1.1" xmlns="http://www.w3.org/2000/svg" width="1000" height="600" viewBox="0 0 1000 600">
  <path d="M 660.500,388.005 C 673.519,386.589 682.006,385.066 686.000,383.430 C 687.925,382.642 693.077,381.327 697.449,380.509 C 707.363,378.652 714.060,375.427 715.855,371.644 C 718.046,367.028 716.030,357.219 710.210,344.177 C 704.413,331.184 699.223,323.997 690.279,316.572 C 682.460,310.083 664.375,301.438 660.600,302.386 C 659.231,302.729 654.373,305.937 649.805,309.513 C 645.237,313.090 639.299,317.250 636.610,318.758 C 630.528,322.168 614.755,335.131 612.028,338.960 C 608.955,343.277 609.452,348.209 613.889,357.424 C 616.028,361.866 618.573,367.724 619.545,370.441 C 621.452,375.777 627.705,383.279 632.166,385.586 C 638.616,388.922 646.154,389.565 660.500,388.005 Z" fill="#f9db24" stroke="black" stroke-width="0.5" fill-rule="evenodd"/>
</svg>
