<?xml version='1.0' encoding='UTF-8'?>
<svg version="1.1" xmlns="http://www.w3.org/2000/svg" width="1000" height="600" viewBox="0 0 1000 600">
  <path d="M 604.510,335.536 C 607.673,333.631 616.012,329.106 623.040,325.480 C 636.263,318.657 646.071,310.630 649.656,303.699 C 651.914,299.333 650.939,292.204 647.703,289.421 C 641.903,284.432 627.994,277.925 617.802,275.433 C 612.136,274.047 604.125,271.499 600.000,269.771 C 592.828,266.765 591.777,266.609 575.942,266.203 C 556.282,265.698 546.651,267.297 539.904,272.184 C 537.633,273.829 536.163,275.510 536.638,275.919 C 537.112,276.328 539.525,277.237 542.000,277.940 C 545.889,279.043 549.147,281.898 566.000,298.972 C 583.633,316.836 593.773,329.019 597.115,336.352 C 597.778,337.809 598.419,339.000 598.539,339.000 C 598.659,339.000 601.346,337.441 604.510,335.536 Z" fill="#eff821" stroke="black" stroke-width="0.5" fill-rule="evenodd"/>
</svg>
