<?xml version='1.0' encoding='UTF-8'?>
<svg version="1.1" xmlns="http://www.w3.org/2000/svg" width="1000" height="600" viewBox="0 0 1000 600">
  <path d="M 436.008,245.494 C 441.609,238.785 443.135,236.112 445.427,228.994 C 447.269,223.273 449.081,219.651 450.979,217.899 C 455.703,213.539 456.615,206.339 454.571,189.529 L 452.872,175.558 L 447.686,170.029 C 441.898,163.859 439.810,163.107 428.500,163.128 C 420.042,163.143 419.455,163.366 413.609,168.776 C 408.992,173.049 408.990,173.054 410.715,175.688 C 412.174,177.915 412.570,182.289 413.267,203.912 C 414.290,235.679 415.445,243.137 421.157,254.870 L 425.493,263.776 L 427.408,258.638 C 428.501,255.704 432.191,250.065 436.008,245.494 Z" fill="#eff821" stroke="black" stroke-width="0.5" fill-rule="evenodd"/>
</svg>
