<?xml version='1.0' encoding='UTF-8'?>
<svg version="1.1" xmlns="http://www.w3.org/2000/svg" width="1000" height="600" viewBox="0 0 1000 600">
  <path d="M 434.745,254.421 C 439.567,247.526 443.053,243.174 445.750,240.682 C 447.538,239.030 449.000,236.945 449.000,236.049 C 449.000,231.001 452.221,222.330 454.978,219.955 C 458.996,216.495 460.423,209.438 459.715,196.521 C 458.845,180.652 457.582,176.496 451.760,170.340 C 446.084,164.339 445.707,164.168 435.781,163.105 C 425.760,162.033 422.435,162.979 417.945,168.182 C 414.305,172.400 414.254,172.569 415.755,175.482 C 416.949,177.801 417.468,184.245 418.087,204.482 C 419.114,238.072 419.655,241.402 426.315,255.118 L 430.500,263.735 L 432.245,259.618 C 433.205,257.353 434.330,255.014 434.745,254.421 Z" fill="#eff821" stroke="black" stroke-width="0.5" fill-rule="evenodd"/>
</svg>
