<?xml version='1.0' encoding='UTF-8'?>
<svg version="1.1" xmlns="http://www.w3.org/2000/svg" width="1000" height="600" viewBox="0 0 1000 600">
  <path d="M 365.826,386.453 C 372.075,383.952 379.000,375.752 381.908,367.409 C 383.232,363.609 385.595,358.214 387.158,355.419 C 390.572,349.316 390.823,344.067 387.925,339.378 C 385.431,335.343 371.973,323.580 366.805,320.919 C 364.773,319.872 358.063,315.187 351.894,310.508 C 345.726,305.829 339.692,302.000 338.487,302.000 C 337.281,302.000 331.616,304.220 325.897,306.933 C 307.473,315.675 297.344,326.209 289.145,345.157 C 282.508,360.496 281.612,369.663 286.255,374.721 C 288.671,377.352 291.384,378.315 303.886,380.981 C 309.049,382.081 313.774,383.380 314.386,383.868 C 315.334,384.622 330.029,387.039 342.000,388.409 C 348.701,389.177 361.683,388.111 365.826,386.453 Z" fill="#f9db24" stroke="black" stroke-width="0.5" fill-rule="evenodd"/>
</svg>
