<?xml version='1.0' encoding='UTF-8'?>
<svg version="1.1" xmlns="http://www.w3.org/2000/svg" width="1000" height="600" viewBox="0 0 1000 600">
  <path d="M 359.202,386.399 C 366.024,384.182 374.104,375.203 376.937,366.690 C 378.109,363.166 380.354,358.257 381.925,355.780 C 385.852,349.587 386.441,346.144 384.433,341.124 C 382.373,335.977 372.239,326.474 364.268,322.217 C 361.095,320.523 353.160,315.056 346.634,310.068 C 340.108,305.081 334.093,301.000 333.269,301.000 C 332.445,301.000 329.685,302.101 327.135,303.447 C 324.586,304.793 319.575,307.207 316.000,308.811 C 303.593,314.379 291.200,327.673 286.108,340.877 C 284.429,345.230 282.144,350.336 281.030,352.224 C 279.917,354.112 278.727,358.322 278.386,361.581 C 277.620,368.913 279.545,374.196 283.781,376.387 C 288.117,378.629 310.018,384.024 321.500,385.679 C 346.390,389.265 350.160,389.337 359.202,386.399 Z" fill="#f9db24" stroke="black" stroke-width="0.5" fill-rule="evenodd"/>
</svg>
