<?xml version='1.0' encoding='UTF-8'?>
<svg version="1.1" xmlns="http://www.w3.org/2000/svg" width="1000" height="600" viewBox="0 0 1000 600">
  <path d="M 617.847,419.113 C 619.688,417.800 624.638,415.460 628.847,413.914 C 635.943,411.307 637.173,410.396 645.748,401.395 C 654.153,392.571 657.416,387.825 664.645,373.903 C 669.577,364.406 668.901,325.630 663.690,319.166 C 663.099,318.432 659.489,316.182 655.669,314.166 C 651.849,312.150 647.573,309.871 646.167,309.102 C 644.116,307.980 642.272,307.912 636.815,308.757 C 630.888,309.674 629.070,310.523 622.607,315.387 C 615.059,321.068 609.797,326.797 608.603,330.634 C 608.238,331.808 607.526,336.385 607.022,340.806 C 606.353,346.673 605.301,350.282 603.124,354.172 C 601.485,357.102 599.826,361.300 599.438,363.500 C 598.566,368.446 596.367,372.922 594.448,373.658 C 592.416,374.438 592.644,375.992 595.187,378.699 C 598.458,382.180 598.955,391.537 596.065,395.200 C 594.167,397.605 571.481,409.572 565.250,411.455 C 564.013,411.829 563.000,412.461 563.000,412.860 C 563.000,414.376 579.678,420.951 584.500,421.335 C 587.250,421.554 595.125,421.681 602.000,421.617 C 613.474,421.510 614.775,421.304 617.847,419.113 Z" fill="#330497" stroke="black" stroke-width="0.5" fill-rule="evenodd"/>
</svg>
