<?xml version='1.0' encoding='UTF-8'?>
<svg version="1.1" xmlns="http://www.w3.org/2000/svg" width="1000" height="600" viewBox="0 0 1000 600">
  <path d="M 428.664,417.303 C 433.239,415.211 436.986,413.269 436.991,412.986 C 436.996,412.704 431.156,409.779 424.013,406.486 C 416.870,403.194 408.995,399.033 406.513,397.240 C 402.308,394.203 402.000,393.672 402.000,389.458 C 402.000,384.452 403.832,379.212 406.296,377.168 C 407.739,375.971 407.564,375.498 404.579,372.512 C 402.193,370.126 401.063,367.903 400.572,364.630 C 400.196,362.123 398.499,357.468 396.801,354.286 C 394.485,349.947 393.482,346.374 392.790,340.000 C 391.744,330.364 389.379,325.362 383.293,319.916 C 370.592,308.552 360.552,305.511 352.000,310.435 C 349.525,311.861 344.907,314.222 341.739,315.682 C 336.385,318.149 335.862,318.697 334.349,323.419 C 332.204,330.112 331.350,355.431 332.956,364.718 C 333.699,369.012 335.475,373.885 337.797,378.000 C 339.814,381.575 342.196,386.075 343.091,388.000 C 343.985,389.925 349.082,396.084 354.417,401.688 C 363.405,411.129 364.606,412.034 370.808,414.045 C 374.489,415.238 379.104,417.242 381.063,418.498 C 386.301,421.854 387.060,421.952 404.423,421.510 L 420.346,421.106 L 428.664,417.303 Z" fill="#330497" stroke="black" stroke-width="0.5" fill-rule="evenodd"/>
</svg>
