<?xml version='1.0' encoding='UTF-8'?>
<svg version="1.1" xmlns="http://www.w3.org/2000/svg" width="1000" height="600" viewBox="0 0 1000 600">
  <path d="M 556.419,474.161 C 565.582,471.008 578.453,460.667 600.106,439.061 C 621.377,417.837 626.803,411.127 629.657,402.519 C 630.572,399.758 632.784,395.250 634.572,392.500 C 638.701,386.152 639.434,382.473 638.006,375.270 C 636.244,366.381 636.192,366.293 631.712,364.518 C 629.396,363.600 625.379,361.496 622.786,359.843 C 618.240,356.945 616.000,356.778 616.000,359.337 C 616.000,360.646 615.258,361.721 604.432,376.108 C 600.544,381.273 595.628,388.807 593.506,392.848 C 590.407,398.752 587.864,401.780 580.574,408.246 C 567.258,420.058 565.676,421.063 539.932,434.068 C 526.969,440.617 514.606,447.493 512.458,449.350 C 508.961,452.373 508.669,452.974 509.657,455.112 C 512.967,462.272 526.217,473.516 533.895,475.681 C 539.495,477.260 549.345,476.596 556.419,474.161 Z" fill="#330497" stroke="black" stroke-width="0.5" fill-rule="evenodd"/>
</svg>
