<?xml version='1.0' encoding='UTF-8'?>
<svg version="1.1" xmlns="http://www.w3.org/2000/svg" width="1000" height="600" viewBox="0 0 1000 600">
  <path d="M 374.675,331.450 C 377.300,329.912 382.973,328.149 388.978,327.004 C 394.451,325.961 399.788,324.649 400.837,324.087 C 403.928,322.433 419.558,304.849 421.803,300.500 C 422.939,298.300 427.268,292.030 431.423,286.566 C 439.260,276.262 440.720,272.650 439.556,266.444 C 438.430,260.443 436.529,259.392 425.404,258.620 C 405.473,257.236 393.977,255.256 390.042,252.529 C 386.696,250.210 385.523,250.003 375.946,250.035 C 369.602,250.057 364.698,250.548 363.458,251.285 C 355.146,256.230 350.093,263.329 339.224,285.332 C 333.667,296.582 332.753,299.231 332.283,305.444 C 331.548,315.155 333.654,322.286 338.707,327.196 C 344.923,333.237 347.208,333.987 359.412,333.994 C 369.310,333.999 370.729,333.763 374.675,331.450 Z" fill="#0c0786" stroke="black" stroke-width="0.5" fill-rule="evenodd"/>
</svg>
