<?xml version='1.0' encoding='UTF-8'?>
<svg version="1.1" xmlns="http://www.w3.org/2000/svg" width="1000" height="600" viewBox="0 0 1000 600">
  <path d="M 551.268,540.802 C 554.375,539.871 555.590,538.831 556.713,536.144 C 558.511,531.842 557.671,528.082 551.429,512.482 C 548.993,506.394 546.998,500.757 546.996,499.956 C 546.994,499.155 544.333,493.058 541.083,486.407 C 536.075,476.160 534.281,473.520 529.337,469.112 C 523.283,463.717 518.821,461.843 507.737,460.039 C 504.683,459.542 500.361,458.205 498.132,457.067 C 493.097,454.499 492.167,454.495 489.471,457.027 C 488.284,458.142 484.205,460.360 480.407,461.955 C 473.899,464.688 473.395,465.134 471.683,469.678 C 470.684,472.330 468.180,476.525 466.119,479.000 C 460.601,485.626 460.598,485.639 463.401,490.422 C 466.379,495.502 483.937,512.393 491.379,517.335 C 504.478,526.035 526.903,538.663 531.930,540.170 C 538.652,542.185 545.863,542.421 551.268,540.802 Z" fill="#0c0786" stroke="black" stroke-width="0.5" fill-rule="evenodd"/>
</svg>
