<?xml version='1.0' encoding='UTF-8'?>
<svg version="1.1" xmlns="http://www.w3.org/2000/svg" width="1000" height="600" viewBox="0 0 1000 600">
  <path d="M 649.634,323.235 C 650.257,322.831 652.102,319.575 653.733,316.000 C 655.363,312.425 657.670,308.639 658.859,307.586 C 663.292,303.659 664.303,297.334 664.758,270.679 C 665.022,255.156 664.769,243.494 664.081,239.546 C 662.740,231.844 654.010,210.389 649.359,203.366 C 645.155,197.017 641.266,193.057 638.020,191.820 C 630.916,189.112 607.667,198.827 603.577,206.212 C 602.358,208.412 600.526,210.017 598.577,210.592 C 595.738,211.430 595.476,211.887 595.185,216.497 C 594.711,224.023 595.759,227.728 599.551,231.925 C 603.798,236.626 606.231,242.231 605.423,245.452 C 604.996,247.153 605.545,248.882 607.246,251.193 C 610.350,255.410 611.619,258.775 613.454,267.654 C 614.267,271.588 616.527,277.708 618.475,281.254 C 620.424,284.799 622.691,289.964 623.513,292.730 C 624.334,295.497 625.717,298.350 626.585,299.070 C 627.453,299.791 629.534,303.107 631.209,306.440 C 632.884,309.773 636.063,315.087 638.272,318.250 C 641.707,323.166 642.740,323.998 645.395,323.985 C 647.103,323.976 649.010,323.639 649.634,323.235 Z" fill="#fdc029" stroke="black" stroke-width="0.5" fill-rule="evenodd"/>
</svg>
