<?xml version='1.0' encoding='UTF-8'?>
<svg version="1.1" xmlns="http://www.w3.org/2000/svg" width="1000" height="600" viewBox="0 0 1000 600">
  <path d="M 660.712,446.027 C 674.673,440.435 679.121,438.155 684.216,433.979 C 692.162,427.466 698.888,420.165 699.642,417.236 C 700.982,412.026 699.506,401.556 696.717,396.488 C 695.207,393.745 692.453,388.291 690.597,384.368 C 685.840,374.317 676.629,362.551 661.947,347.769 C 648.114,333.842 643.711,331.054 635.500,331.028 C 627.867,331.003 623.591,332.603 619.655,336.960 C 614.898,342.225 613.741,344.682 610.138,357.167 C 605.273,374.026 596.808,390.276 584.452,406.474 C 581.796,409.955 581.500,411.088 581.500,417.756 C 581.500,424.532 581.727,425.364 584.148,427.448 C 585.604,428.702 590.329,431.151 594.648,432.890 C 605.972,437.449 607.793,438.469 617.165,445.503 C 621.811,448.989 627.162,452.312 629.056,452.886 C 635.442,454.821 642.664,453.256 660.712,446.027 Z" fill="#fca635" stroke="black" stroke-width="0.5" fill-rule="evenodd"/>
</svg>
