<?xml version='1.0' encoding='UTF-8'?>
<svg version="1.1" xmlns="http://www.w3.org/2000/svg" width="1000" height="600" viewBox="0 0 1000 600">
  <path d="M 373.947,451.528 C 375.473,450.738 380.520,447.228 385.162,443.727 C 391.137,439.220 396.454,436.256 403.364,433.578 C 408.733,431.498 414.335,428.755 415.813,427.482 C 418.243,425.390 418.499,424.514 418.494,418.334 C 418.487,410.720 418.885,411.558 407.136,394.379 C 398.406,381.613 393.950,372.251 389.822,358.000 C 386.356,346.037 384.271,341.517 379.944,336.589 C 376.005,332.103 371.352,330.618 363.271,331.266 C 354.860,331.941 349.676,335.477 335.300,350.342 C 320.738,365.399 313.621,375.118 306.221,390.057 C 300.393,401.820 300.000,403.052 300.004,409.557 C 300.009,419.331 302.586,423.235 316.576,434.661 C 321.346,438.558 326.072,440.985 338.576,445.963 C 347.334,449.450 355.850,452.663 357.500,453.103 C 361.504,454.171 370.501,453.309 373.947,451.528 Z" fill="#fca635" stroke="black" stroke-width="0.5" fill-rule="evenodd"/>
</svg>
