<?xml version='1.0' encoding='UTF-8'?>
<svg version="1.1" xmlns="http://www.w3.org/2000/svg" width="1000" height="600" viewBox="0 0 1000 600">
  <path d="M 375.241,452.950 C 377.374,452.357 381.458,449.634 384.741,446.614 C 392.104,439.841 402.930,433.348 408.307,432.479 C 414.545,431.470 420.609,428.526 422.552,425.562 C 425.270,421.412 424.052,412.116 420.083,406.718 C 408.108,390.432 400.102,374.660 394.333,355.989 C 390.699,344.226 390.468,343.806 384.484,338.060 C 377.068,330.939 372.700,329.782 363.413,332.482 C 358.152,334.012 356.428,335.346 344.234,347.331 C 328.859,362.442 319.503,374.467 315.314,384.500 C 313.707,388.350 310.729,393.913 308.696,396.862 C 305.245,401.869 305.000,402.718 305.000,409.678 C 305.000,420.238 308.332,425.460 321.189,435.048 C 328.126,440.220 340.256,445.781 361.000,453.299 C 363.565,454.228 371.323,454.038 375.241,452.950 Z" fill="#fca635" stroke="black" stroke-width="0.5" fill-rule="evenodd"/>
</svg>
