<?xml version='1.0' encoding='UTF-8'?>
<svg version="1.1" xmlns="http://www.w3.org/2000/svg" width="1000" height="600" viewBox="0 0 1000 600">
  <path d="M 380.645,228.235 C 381.275,227.831 387.575,222.008 394.645,215.296 C 401.715,208.583 409.525,201.593 412.000,199.762 C 425.421,189.834 427.546,174.381 419.050,148.500 C 413.203,130.689 412.970,130.118 410.235,126.867 C 405.087,120.749 397.878,123.929 383.001,138.881 C 371.595,150.344 367.326,157.049 357.456,179.000 C 353.819,187.090 352.620,191.051 352.233,196.258 C 351.668,203.856 353.475,214.131 355.903,217.127 C 356.781,218.211 361.100,221.305 365.500,224.002 C 373.126,228.678 377.882,230.007 380.645,228.235 Z" fill="#fca635" stroke="black" stroke-width="0.5" fill-rule="evenodd"/>
</svg>
