<?xml version='1.0' encoding='UTF-8'?>
<svg version="1.1" xmlns="http://www.w3.org/2000/svg" width="1000" height="600" viewBox="0 0 1000 600">
  <path d="M 475.823,436.356 C 478.396,434.845 483.524,432.134 487.220,430.332 C 492.359,427.826 494.576,426.048 496.640,422.777 C 498.124,420.425 502.933,413.325 507.325,407.000 C 511.718,400.675 516.405,392.800 517.741,389.500 C 519.078,386.200 521.491,381.423 523.103,378.884 C 525.623,374.919 526.123,372.948 526.652,364.883 L 527.269,355.497 L 522.048,349.248 C 519.176,345.812 516.506,343.000 516.113,343.000 C 515.720,343.000 512.901,340.774 509.848,338.052 C 506.795,335.331 501.966,332.219 499.117,331.137 C 496.268,330.054 491.635,327.691 488.820,325.885 C 486.006,324.079 479.383,321.190 474.102,319.465 C 468.821,317.740 461.575,314.793 458.000,312.916 L 451.500,309.503 L 432.000,309.502 L 412.500,309.500 L 396.844,315.817 C 388.234,319.291 380.525,322.891 379.714,323.817 C 378.798,324.863 377.775,329.850 377.011,337.000 C 375.491,351.223 375.917,352.656 385.824,366.653 C 389.776,372.237 396.959,384.163 401.785,393.155 C 406.612,402.147 412.407,411.978 414.664,415.002 C 416.921,418.026 419.499,421.949 420.394,423.720 C 422.210,427.316 424.708,429.000 428.224,429.000 C 433.893,429.000 444.834,432.875 454.000,438.128 C 459.023,441.007 469.333,440.170 475.823,436.356 Z" fill="#fdc029" stroke="black" stroke-width="0.5" fill-rule="evenodd"/>
</svg>
