<?xml version='1.0' encoding='UTF-8'?>
<svg version="1.1" xmlns="http://www.w3.org/2000/svg" width="1000" height="600" viewBox="0 0 1000 600">
  <path d="M 655.529,446.769 C 673.382,439.654 683.684,432.951 691.119,423.613 L 695.181,418.512 L 694.840,409.904 C 694.514,401.642 694.331,401.054 690.293,395.300 C 687.979,392.002 685.107,386.648 683.911,383.402 C 680.785,374.916 671.043,362.374 656.320,347.878 C 642.575,334.345 640.041,332.579 632.812,331.494 C 626.163,330.497 621.485,332.396 614.742,338.827 C 609.470,343.856 608.734,345.100 606.399,352.921 C 600.599,372.358 595.513,383.301 584.877,399.235 C 577.927,409.647 576.625,412.255 576.257,416.500 C 575.443,425.908 578.641,429.411 590.845,432.476 C 598.567,434.416 607.206,439.395 614.830,446.299 C 622.209,452.981 625.100,454.143 633.000,453.602 C 637.967,453.262 643.280,451.651 655.529,446.769 Z" fill="#fca635" stroke="black" stroke-width="0.5" fill-rule="evenodd"/>
</svg>
