<?xml version='1.0' encoding='UTF-8'?>
<svg version="1.1" xmlns="http://www.w3.org/2000/svg" width="1000" height="600" viewBox="0 0 1000 600">
  <path d="M 480.239,435.724 C 483.231,433.663 488.498,431.025 491.942,429.862 C 497.408,428.016 498.566,427.159 501.049,423.124 C 503.721,418.779 509.101,411.024 516.873,400.310 C 518.728,397.753 521.160,392.925 522.278,389.580 C 523.396,386.236 525.894,381.025 527.829,378.000 C 530.942,373.133 531.399,371.564 531.793,364.369 C 532.206,356.836 532.064,356.066 529.869,353.901 C 528.566,352.615 526.239,349.995 524.697,348.078 C 520.032,342.276 510.903,335.207 503.500,331.664 C 499.650,329.821 494.786,327.143 492.692,325.712 C 490.582,324.270 485.454,322.351 481.192,321.407 C 476.549,320.379 469.851,317.793 464.294,314.882 C 455.207,310.124 454.934,310.053 443.294,309.418 C 428.737,308.625 418.553,309.975 409.982,313.833 C 406.417,315.438 400.814,317.523 397.530,318.467 C 389.860,320.673 384.420,323.463 383.594,325.615 C 382.277,329.049 380.709,346.637 381.395,350.294 C 381.803,352.467 385.409,359.027 389.909,365.782 C 397.847,377.698 409.717,398.030 412.301,404.135 C 413.084,405.986 415.848,410.309 418.442,413.743 C 421.036,417.176 424.162,421.882 425.387,424.200 C 427.583,428.353 427.740,428.440 436.058,430.118 C 446.523,432.230 451.859,434.138 456.725,437.509 C 460.090,439.840 461.276,440.089 467.649,439.798 C 474.006,439.508 475.401,439.056 480.239,435.724 Z" fill="#fdc029" stroke="black" stroke-width="0.5" fill-rule="evenodd"/>
</svg>
