<?xml version='1.0' encoding='UTF-8'?>
<svg version="1.1" xmlns="http://www.w3.org/2000/svg" width="1000" height="600" viewBox="0 0 1000 600">
  <path d="M 555.500,355.020 C 572.260,353.848 577.530,352.649 584.119,348.510 C 594.202,342.176 593.841,342.637 591.273,339.350 C 590.047,337.783 586.558,333.125 583.518,329.000 C 573.193,314.991 560.412,300.511 555.448,297.199 C 540.658,287.331 531.254,284.027 518.000,284.042 C 504.735,284.056 497.878,287.363 493.594,295.812 C 492.286,298.390 490.302,301.326 489.184,302.336 C 486.371,304.878 484.638,316.063 485.216,327.950 C 485.742,338.774 486.854,341.581 492.960,347.494 L 497.084,351.488 L 500.178,349.712 C 502.889,348.157 503.472,348.116 504.886,349.384 C 507.965,352.145 525.564,355.574 538.000,355.835 C 540.475,355.887 548.350,355.520 555.500,355.020 Z" fill="#c23d80" stroke="black" stroke-width="0.5" fill-rule="evenodd"/>
</svg>
