<?xml version='1.0' encoding='UTF-8'?>
<svg version="1.1" xmlns="http://www.w3.org/2000/svg" width="1000" height="600" viewBox="0 0 1000 600">
  <path d="M 564.012,374.098 C 572.015,366.368 582.201,358.953 590.789,354.605 C 594.120,352.918 596.509,350.923 597.244,349.214 C 597.953,347.564 598.388,341.204 598.352,333.000 C 598.295,319.813 598.206,319.280 594.537,310.000 C 589.564,297.419 587.762,294.050 584.203,290.670 C 579.804,286.492 574.515,286.096 566.200,289.324 C 562.515,290.754 555.225,292.829 550.000,293.935 C 542.908,295.437 537.159,297.600 527.318,302.470 C 519.526,306.327 513.926,309.711 513.620,310.747 C 512.003,316.235 510.982,325.724 511.570,329.802 C 511.943,332.386 513.270,336.975 514.519,340.000 C 515.768,343.025 517.788,348.875 519.007,353.000 C 522.804,365.842 524.756,368.468 538.000,378.558 C 542.282,381.820 542.840,381.971 549.512,381.659 L 556.524,381.331 L 564.012,374.098 Z" fill="#c23d80" stroke="black" stroke-width="0.5" fill-rule="evenodd"/>
</svg>
