<?xml version='1.0' encoding='UTF-8'?>
<svg version="1.1" xmlns="http://www.w3.org/2000/svg" width="1000" height="600" viewBox="0 0 1000 600">
  <path d="M 496.425,315.070 C 500.591,311.157 501.238,307.041 501.736,281.250 C 502.415,246.137 500.775,239.394 488.954,228.696 C 480.759,221.281 477.062,219.599 470.594,220.348 C 462.756,221.255 448.239,228.910 440.334,236.304 C 434.031,242.199 423.785,254.734 421.038,259.910 C 419.256,263.267 418.530,277.623 419.889,282.626 C 422.221,291.209 436.267,304.622 447.500,308.994 C 450.800,310.278 455.300,312.223 457.500,313.315 C 462.599,315.846 476.283,317.931 486.174,317.684 C 492.767,317.519 494.210,317.151 496.425,315.070 Z" fill="#b02a8f" stroke="black" stroke-width="0.5" fill-rule="evenodd"/>
</svg>
