<?xml version='1.0' encoding='UTF-8'?>
<svg version="1.1" xmlns="http://www.w3.org/2000/svg" width="1000" height="600" viewBox="0 0 1000 600">
  <path d="M 482.000,353.396 C 486.125,352.563 491.221,351.049 493.324,350.030 C 496.917,348.290 497.322,348.278 500.038,349.837 L 502.928,351.495 L 507.900,346.598 C 514.307,340.288 515.484,335.794 514.732,320.518 C 514.175,309.222 512.706,303.658 509.597,301.080 C 508.655,300.298 507.304,298.273 506.594,296.580 C 502.532,286.887 494.712,283.341 479.533,284.307 C 467.332,285.083 461.269,287.095 449.725,294.197 C 440.729,299.732 439.012,301.337 428.161,314.355 C 421.676,322.135 414.825,330.691 412.935,333.368 C 411.046,336.045 408.866,339.108 408.091,340.173 C 406.879,341.840 406.879,342.308 408.092,343.520 C 411.145,346.574 421.128,351.831 426.176,353.044 C 438.903,356.103 467.688,356.284 482.000,353.396 Z" fill="#c23d80" stroke="black" stroke-width="0.5" fill-rule="evenodd"/>
</svg>
