<?xml version='1.0' encoding='UTF-8'?>
<svg version="1.1" xmlns="http://www.w3.org/2000/svg" width="1000" height="600" viewBox="0 0 1000 600">
  <path d="M 535.102,316.625 C 541.188,315.814 545.948,314.586 548.102,313.270 C 549.971,312.129 554.425,309.976 558.000,308.486 C 564.651,305.714 576.502,296.141 581.671,289.365 C 584.772,285.299 586.342,274.217 584.910,266.500 C 582.688,254.523 564.341,234.091 548.282,225.709 C 536.706,219.667 531.120,218.796 524.501,222.000 C 517.555,225.362 508.668,234.066 505.878,240.240 C 503.550,245.390 503.500,246.106 503.500,274.500 C 503.500,290.450 503.860,305.197 504.299,307.271 C 504.739,309.346 506.473,312.608 508.153,314.521 C 511.115,317.895 511.422,317.999 518.354,317.952 C 522.284,317.925 529.821,317.328 535.102,316.625 Z" fill="#b02a8f" stroke="black" stroke-width="0.5" fill-rule="evenodd"/>
</svg>
