<?xml version='1.0' encoding='UTF-8'?>
<svg version="1.1" xmlns="http://www.w3.org/2000/svg" width="1000" height="600" viewBox="0 0 1000 600">
  <path d="M 548.199,398.177 C 557.561,395.549 559.626,393.940 561.576,387.753 C 563.737,380.899 564.540,366.699 563.074,361.268 C 561.558,355.647 551.075,343.395 547.020,342.504 C 545.409,342.151 543.827,341.029 543.504,340.013 C 543.182,338.997 542.033,337.040 540.951,335.665 C 539.156,333.383 538.660,333.255 535.242,334.197 C 528.918,335.942 518.070,341.894 513.442,346.160 C 511.023,348.390 506.502,354.242 503.396,359.164 L 497.750,368.113 L 498.213,376.116 L 498.676,384.119 L 504.930,390.429 C 511.101,396.656 513.335,397.797 524.500,400.427 C 528.267,401.315 541.498,400.059 548.199,398.177 Z" fill="#9b179e" stroke="black" stroke-width="0.5" fill-rule="evenodd"/>
</svg>
