<?xml version='1.0' encoding='UTF-8'?>
<svg version="1.1" xmlns="http://www.w3.org/2000/svg" width="1000" height="600" viewBox="0 0 1000 600">
  <path d="M 478.000,353.858 C 482.675,352.758 487.563,351.171 488.863,350.332 C 491.006,348.948 491.536,348.974 494.585,350.616 L 497.945,352.425 L 502.975,347.463 C 509.018,341.499 509.993,338.514 509.977,326.000 C 509.962,313.743 507.881,304.048 503.952,297.925 C 497.371,287.669 492.372,284.994 479.807,285.006 C 465.157,285.019 456.805,287.459 444.824,295.227 C 436.591,300.565 433.479,303.438 423.944,314.500 C 417.781,321.650 411.000,330.060 408.874,333.188 C 406.749,336.316 404.558,339.155 404.005,339.497 C 401.889,340.805 403.151,343.163 406.750,344.631 C 408.812,345.471 411.890,347.645 413.590,349.460 C 417.273,353.395 423.146,354.673 443.500,355.970 C 459.167,356.967 466.767,356.502 478.000,353.858 Z" fill="#c23d80" stroke="black" stroke-width="0.5" fill-rule="evenodd"/>
</svg>
