<?xml version='1.0' encoding='UTF-8'?>
<svg version="1.1" xmlns="http://www.w3.org/2000/svg" width="1000" height="600" viewBox="0 0 1000 600">
  <path d="M 480.500,397.731 C 483.250,396.259 487.975,392.832 491.000,390.116 L 496.500,385.176 L 496.500,376.338 L 496.500,367.500 L 490.679,358.279 C 487.477,353.208 483.448,347.872 481.724,346.421 C 476.979,342.428 458.568,333.568 456.592,334.326 C 455.667,334.681 454.275,336.490 453.500,338.346 C 452.658,340.361 450.934,342.199 449.219,342.909 C 447.641,343.563 443.545,346.664 440.118,349.799 C 434.813,354.654 433.676,356.317 432.456,361.000 C 429.247,373.322 432.159,390.896 438.136,395.285 C 443.306,399.081 452.598,400.984 464.500,400.684 C 474.211,400.439 476.086,400.093 480.500,397.731 Z" fill="#9b179e" stroke="black" stroke-width="0.5" fill-rule="evenodd"/>
</svg>
