<?xml version='1.0' encoding='UTF-8'?>
<svg version="1.1" xmlns="http://www.w3.org/2000/svg" width="1000" height="600" viewBox="0 0 1000 600">
  <path d="M 458.669,404.515 C 461.876,403.699 471.475,402.591 480.000,402.053 C 504.021,400.536 505.481,399.717 513.496,383.266 C 518.769,372.443 519.269,370.819 519.738,363.000 C 520.375,352.350 518.393,343.998 513.091,335.000 C 506.122,323.171 502.189,314.598 500.018,306.500 C 495.443,289.437 495.305,289.161 490.676,287.896 C 477.430,284.276 469.226,285.017 456.342,290.997 C 433.788,301.466 423.702,311.990 414.417,334.739 L 409.617,346.500 L 409.558,359.500 L 409.500,372.500 L 415.407,382.500 C 418.656,388.000 422.031,393.346 422.907,394.380 C 424.986,396.833 430.775,399.267 439.684,401.435 C 443.635,402.396 447.685,403.803 448.684,404.560 C 450.996,406.312 451.623,406.309 458.669,404.515 Z" fill="#b02a8f" stroke="black" stroke-width="0.5" fill-rule="evenodd"/>
</svg>
