<?xml version='1.0' encoding='UTF-8'?>
<svg version="1.1" xmlns="http://www.w3.org/2000/svg" width="1000" height="600" viewBox="0 0 1000 600">
  <path d="M 470.256,355.003 L 476.723,353.005 L 482.495,343.466 C 488.197,334.042 488.259,333.857 487.598,328.233 C 486.820,321.616 484.975,318.335 481.198,316.852 C 479.714,316.269 472.875,314.940 466.000,313.897 C 453.367,311.981 448.455,310.073 429.367,299.670 C 424.852,297.209 421.963,298.023 413.736,304.079 C 405.860,309.875 401.859,314.990 399.047,322.855 C 397.938,325.960 396.384,329.712 395.594,331.193 C 394.510,333.226 394.445,334.107 395.329,334.785 C 397.925,336.777 405.044,338.850 414.995,340.510 C 428.433,342.753 431.339,343.822 440.207,349.786 C 444.218,352.484 448.850,355.175 450.500,355.767 C 455.265,357.475 463.252,357.166 470.256,355.003 Z" fill="#9b179e" stroke="black" stroke-width="0.5" fill-rule="evenodd"/>
</svg>
