<?xml version='1.0' encoding='UTF-8'?>
<svg version="1.1" xmlns="http://www.w3.org/2000/svg" width="1000" height="600" viewBox="0 0 1000 600">
  <path d="M 528.785,316.560 C 534.442,315.803 540.120,314.496 541.403,313.655 C 542.687,312.814 547.314,310.747 551.685,309.061 C 563.710,304.424 576.460,292.975 579.944,283.685 C 581.324,280.007 581.287,268.577 579.880,263.500 C 577.306,254.214 559.675,234.246 547.862,227.238 C 541.066,223.207 532.120,219.993 527.775,220.022 C 522.426,220.058 516.587,223.409 509.228,230.666 C 498.763,240.986 498.500,242.096 498.500,276.000 C 498.500,306.178 499.069,310.222 504.004,315.158 C 506.487,317.641 507.582,317.996 512.673,317.968 C 515.878,317.951 523.128,317.317 528.785,316.560 Z" fill="#b02a8f" stroke="black" stroke-width="0.5" fill-rule="evenodd"/>
</svg>
