<?xml version='1.0' encoding='UTF-8'?>
<svg version="1.1" xmlns="http://www.w3.org/2000/svg" width="1000" height="600" viewBox="0 0 1000 600">
  <path d="M 548.259,355.945 C 550.327,355.371 555.052,352.824 558.759,350.285 C 568.044,343.926 571.904,342.427 583.781,340.562 C 593.275,339.072 605.000,335.611 605.000,334.299 C 605.000,333.364 600.061,319.987 598.861,317.672 C 596.283,312.696 590.312,306.558 583.909,302.301 C 575.792,296.904 575.355,296.940 563.000,304.046 C 552.108,310.310 548.164,311.647 533.768,313.957 C 518.845,316.352 514.946,318.158 513.170,323.500 C 511.071,329.813 512.177,334.591 517.917,344.000 C 520.769,348.675 523.420,352.819 523.810,353.209 C 525.095,354.495 535.418,356.867 540.000,356.929 C 542.475,356.962 546.192,356.519 548.259,355.945 Z" fill="#9b179e" stroke="black" stroke-width="0.5" fill-rule="evenodd"/>
</svg>
