<?xml version='1.0' encoding='UTF-8'?>
<svg version="1.1" xmlns="http://www.w3.org/2000/svg" width="1000" height="600" viewBox="0 0 1000 600">
  <path d="M 588.584,397.900 C 595.735,392.945 600.634,388.397 607.116,380.698 C 611.492,375.500 612.000,374.392 612.000,370.048 C 612.000,364.601 606.189,349.386 603.010,346.509 C 598.120,342.083 585.890,340.709 577.285,343.617 C 574.653,344.507 569.020,347.683 564.766,350.675 C 560.512,353.667 553.537,357.715 549.266,359.670 C 535.214,366.102 533.854,369.616 541.485,379.768 C 546.213,386.058 551.497,390.795 561.457,397.674 C 567.206,401.644 567.870,401.851 575.084,401.924 C 582.388,401.997 582.888,401.848 588.584,397.900 Z" fill="#8405a6" stroke="black" stroke-width="0.5" fill-rule="evenodd"/>
</svg>
