<?xml version='1.0' encoding='UTF-8'?>
<svg version="1.1" xmlns="http://www.w3.org/2000/svg" width="1000" height="600" viewBox="0 0 1000 600">
  <path d="M 474.372,271.633 C 476.502,270.735 479.149,270.000 480.254,270.000 C 486.474,270.000 494.000,259.514 494.000,250.847 C 494.000,241.219 482.842,221.470 474.153,215.720 C 468.925,212.260 463.361,210.000 460.072,210.000 C 453.414,210.000 438.392,217.010 431.692,223.243 C 429.254,225.511 422.868,237.336 421.562,242.000 C 421.177,243.375 419.718,248.205 418.319,252.734 C 416.920,257.262 416.033,261.987 416.348,263.234 C 416.665,264.483 419.171,266.968 421.934,268.772 C 426.235,271.579 428.027,272.101 434.570,272.452 C 438.763,272.676 442.487,273.168 442.847,273.545 C 444.159,274.920 470.342,273.332 474.372,271.633 Z" fill="#beaed4" stroke="black" stroke-width="0.5" fill-rule="evenodd"/>
</svg>
