<?xml version='1.0' encoding='UTF-8'?>
<svg version="1.1" xmlns="http://www.w3.org/2000/svg" width="1000" height="600" viewBox="0 0 1000 600">
  <path d="M 457.808,410.464 C 462.095,409.191 463.075,408.464 463.535,406.214 C 463.841,404.721 464.513,401.896 465.030,399.936 C 470.185,380.368 471.197,366.369 468.078,357.788 C 467.021,354.879 465.859,350.025 465.495,347.000 C 465.132,343.975 463.747,339.371 462.417,336.768 C 461.088,334.166 460.000,330.958 460.000,329.640 C 460.000,328.322 459.147,326.627 458.105,325.872 C 457.063,325.117 451.856,320.949 446.533,316.609 L 436.856,308.717 L 434.178,310.867 C 432.705,312.049 429.201,314.085 426.390,315.391 C 420.315,318.215 417.644,321.498 411.657,333.500 C 405.219,346.408 403.635,357.793 406.003,374.157 C 408.396,390.705 420.936,407.136 433.821,410.605 C 440.333,412.358 451.654,412.292 457.808,410.464 Z" fill="#beaed4" stroke="black" stroke-width="0.5" fill-rule="evenodd"/>
</svg>
