<?xml version='1.0' encoding='UTF-8'?>
<svg version="1.1" xmlns="http://www.w3.org/2000/svg" width="1000" height="600" viewBox="0 0 1000 600">
  <path d="M 570.518,414.907 C 579.686,411.477 587.612,405.478 592.873,397.987 C 597.269,391.727 597.839,390.193 600.485,377.484 L 603.345,363.748 L 601.063,353.624 C 599.807,348.056 597.688,341.346 596.355,338.714 C 592.984,332.062 587.587,326.367 583.966,325.643 C 582.301,325.310 579.908,323.925 578.647,322.564 C 576.390,320.128 576.325,320.120 574.427,322.000 C 573.367,323.050 568.000,325.772 562.500,328.049 C 546.116,334.830 538.389,340.185 536.040,346.385 C 533.308,353.596 528.855,402.302 530.375,408.357 C 531.188,411.597 538.223,415.846 544.723,417.023 C 551.689,418.284 564.245,417.254 570.518,414.907 Z" fill="#beaed4" stroke="black" stroke-width="0.5" fill-rule="evenodd"/>
</svg>
