<?xml version='1.0' encoding='UTF-8'?>
<svg version="1.1" xmlns="http://www.w3.org/2000/svg" width="1000" height="600" viewBox="0 0 1000 600">
  <path d="M 560.525,381.959 C 560.879,381.387 562.070,381.205 563.171,381.554 C 564.767,382.061 567.137,380.168 574.837,372.236 C 584.646,362.132 587.775,360.337 592.644,362.018 C 593.665,362.371 595.625,362.068 597.000,361.344 C 599.258,360.157 599.301,360.028 597.441,360.015 C 592.981,359.983 591.507,357.623 591.390,350.328 C 591.330,346.573 591.218,341.602 591.140,339.283 L 591.000,335.065 L 581.514,329.483 C 576.297,326.412 569.975,322.992 567.465,321.881 L 562.901,319.863 L 553.085,322.973 C 541.475,326.652 530.247,331.881 527.620,334.833 C 525.174,337.580 525.771,340.487 531.204,352.294 C 538.660,368.498 543.886,375.241 553.000,380.419 C 557.917,383.213 559.545,383.546 560.525,381.959 Z" fill="#f0027f" stroke="black" stroke-width="0.5" fill-rule="evenodd"/>
</svg>
