<?xml version='1.0' encoding='UTF-8'?>
<svg version="1.1" xmlns="http://www.w3.org/2000/svg" width="1000" height="600" viewBox="0 0 1000 600">
  <path d="M 559.500,399.401 C 563.900,396.880 570.343,393.673 573.817,392.275 C 579.019,390.182 580.831,388.790 584.087,384.382 C 586.262,381.439 589.416,378.319 591.097,377.450 C 593.871,376.015 594.102,375.529 593.592,372.185 C 593.283,370.158 592.958,365.575 592.869,362.000 C 592.781,358.425 592.238,353.700 591.663,351.500 C 590.271,346.169 584.158,335.241 576.908,325.120 C 573.659,320.583 571.000,316.517 571.000,316.083 C 571.000,315.650 568.300,313.174 565.000,310.581 C 561.072,307.495 559.000,306.388 559.000,307.375 C 559.000,310.040 556.746,310.405 554.838,308.048 C 553.556,306.465 553.000,306.230 553.000,307.271 C 553.000,308.208 551.300,309.191 548.429,309.914 C 543.109,311.253 537.047,314.851 534.375,318.255 C 529.580,324.362 522.448,347.062 523.227,353.736 C 523.607,356.997 530.419,383.636 534.289,397.000 C 535.584,401.471 535.631,401.507 541.546,402.641 C 550.589,404.374 550.928,404.313 559.500,399.401 Z" fill="#f0027f" stroke="black" stroke-width="0.5" fill-rule="evenodd"/>
</svg>
