<?xml version='1.0' encoding='UTF-8'?>
<svg version="1.1" xmlns="http://www.w3.org/2000/svg" width="1000" height="600" viewBox="0 0 1000 600">
  <path d="M 445.495,381.002 C 453.560,377.545 460.841,369.119 467.531,355.500 C 474.111,342.106 475.158,336.329 471.500,333.587 C 464.725,328.509 440.455,319.466 436.560,320.569 C 433.880,321.328 424.233,326.280 415.885,331.183 C 409.442,334.967 409.257,335.189 408.755,339.784 C 408.472,342.378 408.408,346.946 408.614,349.935 C 409.046,356.211 407.213,359.991 403.727,360.015 C 402.016,360.027 401.830,360.239 402.924,360.932 C 403.707,361.428 406.294,361.833 408.671,361.833 C 414.491,361.833 418.349,364.404 427.098,374.108 C 432.073,379.627 434.880,382.003 436.060,381.695 C 437.005,381.447 438.391,381.633 439.139,382.107 C 440.845,383.188 440.089,383.319 445.495,381.002 Z" fill="#f0027f" stroke="black" stroke-width="0.5" fill-rule="evenodd"/>
</svg>
