<?xml version='1.0' encoding='UTF-8'?>
<svg version="1.1" xmlns="http://www.w3.org/2000/svg" width="1000" height="600" viewBox="0 0 1000 600">
  <path d="M 474.654,403.300 C 481.772,399.606 482.372,397.911 483.189,379.204 C 483.590,370.017 484.297,361.185 484.760,359.578 C 485.834,355.853 483.694,342.049 481.106,336.001 C 480.047,333.525 478.866,329.250 478.482,326.500 C 478.097,323.750 477.112,320.435 476.292,319.132 C 474.697,316.602 474.792,316.604 452.500,318.436 C 450.300,318.617 446.827,319.492 444.782,320.382 C 442.737,321.272 439.788,322.000 438.228,322.000 C 436.668,322.000 433.263,323.350 430.661,325.000 C 428.059,326.650 425.499,328.000 424.972,328.000 C 423.591,328.000 418.154,335.658 415.388,341.500 C 411.882,348.902 412.228,354.077 416.766,362.117 C 418.819,365.756 422.750,372.725 425.500,377.604 C 432.699,390.376 443.629,400.493 454.676,404.610 C 459.699,406.482 469.799,405.820 474.654,403.300 Z" fill="#f0027f" stroke="black" stroke-width="0.5" fill-rule="evenodd"/>
</svg>
