<?xml version='1.0' encoding='UTF-8'?>
<svg version="1.1" xmlns="http://www.w3.org/2000/svg" width="1000" height="600" viewBox="0 0 1000 600">
  <path d="M 465.454,372.379 C 468.063,371.378 475.589,360.061 478.523,352.725 C 480.013,348.999 482.950,343.292 485.050,340.044 C 488.597,334.556 495.000,321.228 495.000,319.332 C 495.000,318.875 492.985,318.422 490.521,318.327 C 488.058,318.232 483.221,317.035 479.771,315.668 C 476.322,314.300 469.333,312.168 464.241,310.930 L 454.981,308.680 L 447.241,315.982 C 436.054,326.534 432.000,331.036 432.000,332.907 C 432.000,339.163 447.391,361.619 456.873,369.198 C 461.669,373.031 462.730,373.424 465.454,372.379 Z" fill="#f0027f" stroke="black" stroke-width="0.5" fill-rule="evenodd"/>
</svg>
