<?xml version='1.0' encoding='UTF-8'?>
<svg version="1.1" xmlns="http://www.w3.org/2000/svg" width="1000" height="600" viewBox="0 0 1000 600">
  <path d="M 456.492,402.874 C 465.091,401.595 465.258,401.425 467.432,391.811 C 468.217,388.340 470.551,379.425 472.619,372.000 C 477.025,356.181 477.277,350.735 474.140,339.101 C 469.401,321.526 462.616,312.443 452.283,309.841 C 449.909,309.243 447.704,308.330 447.384,307.812 C 447.059,307.286 445.989,307.605 444.964,308.533 C 442.667,310.612 440.670,309.507 441.249,306.478 C 441.650,304.381 441.429,304.455 438.593,307.373 C 436.892,309.124 434.150,311.690 432.500,313.075 C 429.239,315.813 427.642,317.919 418.787,331.157 C 410.261,343.903 407.963,349.481 407.429,358.722 C 407.182,363.000 406.749,368.595 406.468,371.155 C 405.980,375.593 406.115,375.908 409.368,377.919 C 411.245,379.078 414.613,382.454 416.852,385.421 C 420.061,389.670 421.942,391.152 425.720,392.407 C 428.358,393.283 434.338,396.240 439.008,398.977 C 443.679,401.714 447.819,403.964 448.209,403.977 C 448.599,403.990 452.326,403.493 456.492,402.874 Z" fill="#f0027f" stroke="black" stroke-width="0.5" fill-rule="evenodd"/>
</svg>
