<?xml version='1.0' encoding='UTF-8'?>
<svg version="1.1" xmlns="http://www.w3.org/2000/svg" width="1000" height="600" viewBox="0 0 1000 600">
  <path d="M 508.285,411.979 C 524.247,409.671 535.560,398.998 538.552,383.425 C 539.905,376.378 539.909,374.835 538.583,369.500 C 536.156,359.731 533.078,344.967 532.015,338.000 C 531.469,334.425 530.611,330.076 530.106,328.336 C 528.676,323.402 521.164,311.154 518.496,309.405 C 512.993,305.800 494.967,311.963 484.814,320.922 C 472.567,331.729 468.858,341.005 466.391,366.997 C 464.809,383.665 464.805,385.374 466.334,391.570 C 468.035,398.462 472.507,405.826 477.000,409.133 C 481.550,412.482 495.826,413.781 508.285,411.979 Z" fill="#fdc086" stroke="black" stroke-width="0.5" fill-rule="evenodd"/>
</svg>
