<?xml version='1.0' encoding='UTF-8'?>
<svg version="1.1" xmlns="http://www.w3.org/2000/svg" width="1000" height="600" viewBox="0 0 1000 600">
  <path d="M 518.277,410.969 C 526.277,408.685 533.256,398.818 534.524,388.000 C 535.504,379.634 532.417,351.578 529.609,343.320 C 526.344,333.721 524.995,331.396 518.605,324.359 C 511.755,316.814 498.665,309.602 490.000,308.598 C 482.372,307.714 479.385,309.744 474.024,319.457 C 470.810,325.278 469.472,329.150 468.375,335.793 C 467.584,340.582 466.075,348.325 465.022,353.000 C 459.679,376.717 459.894,374.962 461.372,382.697 C 464.341,398.233 475.667,409.728 490.305,412.059 C 496.683,413.075 513.150,412.433 518.277,410.969 Z" fill="#fdc086" stroke="black" stroke-width="0.5" fill-rule="evenodd"/>
</svg>
