<?xml version='1.0' encoding='UTF-8'?>
<svg version="1.1" xmlns="http://www.w3.org/2000/svg" width="1000" height="600" viewBox="0 0 1000 600">
  <path d="M 514.500,410.580 C 516.700,409.659 520.413,407.033 522.750,404.744 C 526.700,400.877 527.000,400.207 527.000,395.242 C 527.000,392.304 527.686,388.574 528.525,386.953 C 529.896,384.300 529.891,383.764 528.477,381.605 C 527.460,380.053 526.784,376.259 526.562,370.853 C 526.373,366.259 525.719,361.233 525.109,359.685 C 524.499,358.137 524.000,354.404 524.000,351.390 C 524.000,348.377 523.350,343.119 522.556,339.706 C 521.762,336.292 520.858,332.280 520.547,330.789 C 519.736,326.901 513.981,321.748 508.081,319.626 C 501.984,317.434 497.684,318.133 483.306,323.657 C 474.039,327.217 468.660,331.158 466.362,336.068 C 465.004,338.973 458.584,380.781 458.619,386.500 C 458.659,393.023 460.633,403.378 461.919,403.806 C 462.575,404.025 463.874,404.968 464.806,405.903 C 470.555,411.668 477.236,413.027 497.500,412.557 C 506.838,412.341 511.627,411.784 514.500,410.580 Z" fill="#fdc086" stroke="black" stroke-width="0.5" fill-rule="evenodd"/>
</svg>
