<?xml version='1.0' encoding='UTF-8'?>
<svg version="1.1" xmlns="http://www.w3.org/2000/svg" width="1000" height="600" viewBox="0 0 1000 600">
  <path d="M 490.037,320.000 C 492.316,320.000 493.542,319.158 495.504,316.250 C 496.895,314.188 499.518,310.660 501.334,308.411 C 507.507,300.766 511.921,279.251 508.944,271.315 C 507.792,268.244 503.107,260.956 501.503,259.739 C 499.880,258.508 494.831,259.490 461.073,267.597 C 454.568,269.159 448.661,271.739 443.875,275.110 C 441.447,276.819 441.313,277.291 442.081,281.406 C 443.276,287.799 445.124,291.676 450.321,298.690 C 456.113,306.507 463.118,312.060 472.858,316.557 C 477.061,318.497 481.625,320.661 483.000,321.365 C 485.046,322.412 485.645,322.404 486.300,321.322 C 486.740,320.595 488.421,320.000 490.037,320.000 Z" fill="#fdc086" stroke="black" stroke-width="0.5" fill-rule="evenodd"/>
</svg>
