<?xml version='1.0' encoding='UTF-8'?>
<svg version="1.1" xmlns="http://www.w3.org/2000/svg" width="1000" height="600" viewBox="0 0 1000 600">
  <path d="M 520.000,319.503 C 525.055,318.019 538.057,310.702 542.344,306.928 C 549.080,300.999 556.149,290.006 557.577,283.241 C 558.766,277.608 558.739,277.456 556.144,275.158 C 551.966,271.457 544.283,268.324 534.000,266.128 C 528.775,265.011 519.366,262.920 513.091,261.481 C 506.816,260.041 500.741,259.130 499.591,259.455 C 498.441,259.781 495.963,262.391 494.085,265.255 C 491.212,269.635 490.597,271.594 490.213,277.588 C 489.829,283.568 490.251,286.303 492.842,294.606 C 494.539,300.048 496.957,305.888 498.214,307.585 C 499.471,309.281 502.049,312.769 503.943,315.335 C 506.636,318.984 508.003,320.000 510.224,320.000 C 511.860,320.000 513.314,320.654 513.655,321.543 C 514.169,322.884 514.461,322.899 515.874,321.661 C 516.768,320.878 518.625,319.906 520.000,319.503 Z" fill="#fdc086" stroke="black" stroke-width="0.5" fill-rule="evenodd"/>
</svg>
