<?xml version='1.0' encoding='UTF-8'?>
<svg version="1.1" xmlns="http://www.w3.org/2000/svg" width="1000" height="600" viewBox="0 0 1000 600">
  <path d="M 438.118,411.992 C 449.610,410.422 454.966,405.768 455.044,397.285 C 455.068,394.653 455.777,390.700 456.620,388.500 C 458.893,382.564 459.757,377.686 461.034,363.556 C 462.444,347.958 461.369,340.718 456.388,332.255 C 452.940,326.396 440.207,313.518 436.789,312.433 C 434.330,311.653 425.765,318.922 418.390,328.050 C 405.416,344.108 398.000,360.647 398.000,373.524 C 398.000,381.616 400.992,393.555 404.550,399.655 C 409.001,407.288 421.040,414.332 428.000,413.377 C 429.925,413.113 434.478,412.490 438.118,411.992 Z" fill="#7fc97f" stroke="black" stroke-width="0.5" fill-rule="evenodd"/>
</svg>
