<?xml version='1.0' encoding='UTF-8'?>
<svg version="1.1" xmlns="http://www.w3.org/2000/svg" width="1000" height="600" viewBox="0 0 1000 600">
  <path d="M 582.482,410.637 C 594.931,404.937 600.815,394.497 601.719,376.500 C 602.131,368.302 601.889,366.706 599.003,358.596 C 593.829,344.056 582.689,327.391 571.227,317.046 L 564.669,311.127 L 558.701,315.814 C 542.515,328.524 537.045,339.759 538.471,357.362 C 539.770,373.404 541.029,381.583 542.999,386.761 C 544.113,389.690 545.000,394.440 545.000,397.477 C 545.000,402.374 545.357,403.290 548.481,406.414 C 551.970,409.904 556.891,411.897 562.500,412.094 C 564.150,412.152 566.625,412.580 568.000,413.044 C 571.587,414.257 576.277,413.477 582.482,410.637 Z" fill="#7fc97f" stroke="black" stroke-width="0.5" fill-rule="evenodd"/>
</svg>
