<?xml version='1.0' encoding='UTF-8'?>
<svg version="1.1" xmlns="http://www.w3.org/2000/svg" width="1000" height="600" viewBox="0 0 1000 600">
  <path d="M 534.889,357.250 C 542.509,353.155 556.246,340.714 564.684,330.265 C 568.786,325.186 572.561,320.772 573.071,320.456 C 573.582,320.140 574.000,318.252 574.000,316.261 C 574.000,308.040 562.827,295.986 548.493,288.743 C 542.350,285.638 528.256,281.309 521.475,280.444 C 511.018,279.108 500.523,284.543 496.589,293.332 C 495.316,296.174 492.191,300.525 489.645,303.000 C 487.098,305.475 485.012,307.990 485.008,308.589 C 485.003,309.189 486.148,310.202 487.552,310.842 C 488.980,311.492 490.786,313.655 491.653,315.752 C 492.504,317.814 494.696,322.650 496.524,326.500 C 498.351,330.350 500.173,335.750 500.572,338.500 C 501.373,344.024 504.321,347.243 516.371,355.750 C 523.692,360.919 527.489,361.227 534.889,357.250 Z" fill="#bf5b16" stroke="black" stroke-width="0.5" fill-rule="evenodd"/>
  <path d="M 486.000,308.000 C 486.000,307.450 486.675,307.000 487.500,307.000 C 488.325,307.000 489.000,307.450 489.000,308.000 C 489.000,308.550 488.325,309.000 487.500,309.000 C 486.675,309.000 486.000,308.550 486.000,308.000 Z" fill="#bf5b16" stroke="black" stroke-width="0.5" fill-rule="evenodd"/>
</svg>
