<?xml version='1.0' encoding='UTF-8'?>
<svg version="1.1" xmlns="http://www.w3.org/2000/svg" width="1000" height="600" viewBox="0 0 1000 600">
  <path d="M 576.029,362.017 C 582.338,360.377 588.417,359.027 589.538,359.017 C 591.674,358.999 598.995,351.970 603.096,346.000 C 606.913,340.442 606.420,330.631 601.588,316.000 C 597.127,302.491 592.532,293.304 589.804,292.438 C 588.733,292.098 583.605,293.026 578.408,294.501 C 570.798,296.659 568.380,296.979 565.986,296.145 C 562.629,294.975 553.517,296.085 545.768,298.608 C 543.166,299.455 538.684,300.268 535.809,300.413 C 530.885,300.662 530.534,300.858 529.777,303.780 C 529.335,305.487 527.675,307.807 526.089,308.937 C 523.525,310.762 523.123,311.792 522.481,318.193 C 521.789,325.080 521.867,325.484 524.261,327.447 C 528.943,331.287 537.040,341.952 537.672,345.112 C 538.064,347.072 540.132,349.988 543.151,352.837 C 545.974,355.501 548.000,358.296 548.000,359.525 C 548.000,362.409 553.212,364.856 559.529,364.936 C 562.295,364.971 569.720,363.658 576.029,362.017 Z" fill="#386cb0" stroke="black" stroke-width="0.5" fill-rule="evenodd"/>
</svg>
