<?xml version='1.0' encoding='UTF-8'?>
<svg version="1.1" xmlns="http://www.w3.org/2000/svg" width="1000" height="600" viewBox="0 0 1000 600">
  <path d="M 546.027,347.297 C 547.387,346.361 551.469,343.099 555.098,340.047 C 558.727,336.996 565.141,331.646 569.352,328.159 C 573.563,324.671 577.277,320.745 577.606,319.435 C 578.514,315.817 574.550,308.685 568.671,303.360 C 562.931,298.160 540.843,286.915 527.824,282.565 C 519.355,279.735 509.474,279.178 502.866,281.158 C 498.511,282.463 498.625,282.152 500.063,288.859 C 501.030,293.365 500.893,294.278 498.563,298.875 C 496.375,303.194 496.000,305.254 496.000,312.967 C 496.000,320.548 496.309,322.309 497.924,323.924 C 500.870,326.870 502.000,329.521 502.000,333.485 C 502.000,336.649 502.423,337.279 505.379,338.514 C 507.237,339.290 513.033,340.562 518.258,341.339 C 524.873,342.323 529.543,343.682 533.630,345.812 C 540.457,349.370 542.638,349.631 546.027,347.297 Z" fill="#386cb0" stroke="black" stroke-width="0.5" fill-rule="evenodd"/>
</svg>
