<?xml version='1.0' encoding='UTF-8'?>
<svg version="1.1" xmlns="http://www.w3.org/2000/svg" width="1000" height="600" viewBox="0 0 1000 600">
  <path d="M 536.197,407.269 C 545.480,403.204 545.090,404.582 544.070,379.443 C 543.178,357.466 542.115,350.877 538.595,345.504 C 537.730,344.185 532.761,340.562 527.551,337.453 C 518.934,332.311 517.196,331.669 508.306,330.346 C 496.879,328.646 496.882,328.645 486.977,336.707 C 481.612,341.074 478.603,344.576 474.751,350.936 C 469.852,359.023 469.610,359.766 468.884,368.936 C 468.192,377.664 468.366,382.721 469.563,388.673 C 470.369,392.685 475.186,397.050 483.372,401.186 C 490.105,404.587 494.075,405.758 506.500,408.006 C 523.338,411.053 527.811,410.942 536.197,407.269 Z" fill="#666666" stroke="black" stroke-width="0.5" fill-rule="evenodd"/>
</svg>
