<?xml version='1.0' encoding='UTF-8'?>
<svg version="1.1" xmlns="http://www.w3.org/2000/svg" width="1000" height="600" viewBox="0 0 1000 600">
  <path d="M 482.449,356.537 C 485.171,354.671 489.953,350.974 493.075,348.322 C 498.173,343.992 498.822,342.998 499.433,338.580 C 500.351,331.948 510.274,311.365 512.966,310.511 C 515.680,309.649 515.589,308.033 512.866,308.745 C 511.318,309.150 510.872,308.918 511.241,307.902 C 511.521,307.131 512.340,306.640 513.061,306.812 C 513.782,306.984 512.376,305.070 509.936,302.561 C 505.492,297.989 502.000,292.599 502.000,290.311 C 502.000,288.368 493.102,282.104 488.631,280.901 C 481.367,278.945 468.020,281.739 454.156,288.119 C 441.771,293.818 433.823,299.883 429.574,306.879 C 424.505,315.223 424.750,317.840 431.309,325.389 C 434.229,328.750 437.818,333.104 439.286,335.065 C 442.995,340.018 460.184,355.027 465.268,357.750 C 471.389,361.028 476.415,360.673 482.449,356.537 Z" fill="#bf5b16" stroke="black" stroke-width="0.5" fill-rule="evenodd"/>
</svg>
