<?xml version='1.0' encoding='UTF-8'?>
<svg version="1.1" xmlns="http://www.w3.org/2000/svg" width="1000" height="600" viewBox="0 0 1000 600">
  <path d="M 485.184,301.738 C 486.660,297.757 488.145,292.395 488.484,289.822 C 488.824,287.248 489.978,282.647 491.051,279.597 C 494.427,269.991 493.024,257.271 488.000,251.934 C 486.625,250.473 483.004,248.158 479.954,246.788 C 476.904,245.418 472.784,242.871 470.798,241.127 C 468.811,239.383 464.743,237.116 461.756,236.088 C 458.769,235.061 454.925,233.495 453.212,232.610 C 451.500,231.724 447.894,231.000 445.199,231.000 C 440.883,231.000 439.531,231.581 433.870,235.866 C 424.087,243.272 415.199,255.981 413.145,265.500 C 410.733,276.679 410.676,281.444 412.902,285.807 C 416.418,292.699 423.786,295.808 440.888,297.615 C 449.170,298.490 480.350,306.550 480.812,307.935 C 481.562,310.186 482.593,308.725 485.184,301.738 Z" fill="#bf5b16" stroke="black" stroke-width="0.5" fill-rule="evenodd"/>
</svg>
