<?xml version='1.0' encoding='UTF-8'?>
<svg version="1.1" xmlns="http://www.w3.org/2000/svg" width="1000" height="600" viewBox="0 0 1000 600">
  <path d="M 497.016,342.284 C 499.482,341.174 502.625,339.247 504.000,338.000 C 505.375,336.754 508.750,334.264 511.500,332.466 C 514.250,330.669 518.059,327.570 519.965,325.579 C 523.367,322.027 523.438,321.776 523.831,312.007 C 524.051,306.533 523.959,300.971 523.626,299.648 C 523.294,298.324 521.020,295.015 518.574,292.293 C 516.127,289.571 513.815,286.109 513.436,284.599 C 512.665,281.528 511.137,280.762 500.090,277.912 C 490.315,275.390 488.858,275.468 478.941,279.044 C 458.820,286.300 447.063,293.903 440.406,303.963 C 437.794,307.909 437.741,308.234 439.203,311.296 C 441.219,315.519 460.501,339.627 463.363,341.502 C 468.944,345.159 489.559,345.638 497.016,342.284 Z" fill="#386cb0" stroke="black" stroke-width="0.5" fill-rule="evenodd"/>
</svg>
