<?xml version='1.0' encoding='UTF-8'?>
<svg version="1.1" xmlns="http://www.w3.org/2000/svg" width="1000" height="600" viewBox="0 0 1000 600">
  <path d="M 434.226,334.688 C 440.691,331.514 444.000,327.614 444.000,323.171 C 444.000,321.510 442.611,316.682 440.913,312.443 C 438.340,306.016 435.435,290.369 435.031,280.758 C 435.014,280.350 431.913,277.963 428.141,275.455 C 421.686,271.163 420.993,270.931 416.391,271.526 C 413.701,271.873 409.587,271.720 407.250,271.185 C 404.274,270.504 403.000,270.536 403.000,271.292 C 403.000,271.886 401.163,274.550 398.917,277.213 C 394.786,282.113 383.639,304.314 380.699,313.500 C 379.818,316.250 378.981,320.702 378.839,323.393 C 378.602,327.879 378.868,328.533 382.040,331.250 C 389.390,337.547 391.705,338.068 411.000,337.770 C 427.893,337.509 428.699,337.403 434.226,334.688 Z" fill="#666666" stroke="black" stroke-width="0.5" fill-rule="evenodd"/>
</svg>
