<?xml version='1.0' encoding='UTF-8'?>
<svg version="1.1" xmlns="http://www.w3.org/2000/svg" width="1000" height="600" viewBox="0 0 1000 600">
  <path d="M 603.932,352.561 C 616.271,349.448 619.000,346.140 619.000,334.294 C 619.000,321.212 608.706,287.583 602.763,281.250 C 599.888,278.187 597.456,278.407 588.802,282.517 C 584.647,284.490 577.251,286.864 571.949,287.925 C 563.320,289.653 546.238,295.772 543.282,298.194 C 542.612,298.743 540.899,301.276 539.475,303.824 C 536.899,308.433 536.894,308.489 538.409,315.202 C 541.016,326.745 542.691,328.976 555.233,337.609 C 561.430,341.874 567.704,346.350 569.175,347.555 C 570.737,348.833 574.692,350.277 578.675,351.023 C 582.429,351.725 587.075,352.894 589.000,353.619 C 592.847,355.068 594.438,354.956 603.932,352.561 Z" fill="#386cb0" stroke="black" stroke-width="0.5" fill-rule="evenodd"/>
</svg>
