<?xml version='1.0' encoding='UTF-8'?>
<svg version="1.1" xmlns="http://www.w3.org/2000/svg" width="1000" height="600" viewBox="0 0 1000 600">
  <path d="M 541.095,359.873 C 544.618,357.603 550.200,353.610 553.500,351.000 C 556.800,348.389 564.675,343.019 571.000,339.065 C 577.325,335.111 584.193,330.204 586.263,328.161 L 590.026,324.445 L 587.536,319.447 C 582.535,309.412 566.552,294.837 553.121,288.064 C 545.314,284.127 534.676,281.000 529.090,281.000 C 523.450,281.000 516.333,285.062 512.798,290.299 C 511.534,292.171 508.700,296.319 506.500,299.517 C 503.143,304.397 502.523,306.073 502.643,309.942 C 502.722,312.477 503.504,316.270 504.381,318.370 C 505.258,320.469 506.674,326.523 507.526,331.821 C 509.388,343.390 511.625,347.595 520.984,357.123 C 529.406,365.697 531.593,365.996 541.095,359.873 Z" fill="#bf5b16" stroke="black" stroke-width="0.5" fill-rule="evenodd"/>
</svg>
