<?xml version='1.0' encoding='UTF-8'?>
<svg version="1.1" xmlns="http://www.w3.org/2000/svg" width="1000" height="600" viewBox="0 0 1000 600">
  <path d="M 465.540,345.891 C 469.577,343.612 473.570,342.406 480.488,341.377 C 493.910,339.380 497.439,338.077 497.763,334.999 C 498.318,329.715 500.150,324.990 502.035,323.981 C 503.779,323.048 504.000,321.849 504.000,313.303 C 504.000,304.707 503.718,303.194 501.365,299.179 C 498.913,294.995 498.809,294.341 499.865,289.765 C 501.498,282.691 501.382,282.281 497.375,280.959 C 491.129,278.897 478.712,280.223 469.000,283.988 C 442.849,294.126 429.031,302.811 424.018,312.259 C 420.678,318.557 421.608,320.794 430.658,328.231 C 434.854,331.679 441.485,337.235 445.394,340.578 C 456.839,350.366 457.364,350.505 465.540,345.891 Z" fill="#386cb0" stroke="black" stroke-width="0.5" fill-rule="evenodd"/>
</svg>
