<?xml version='1.0' encoding='UTF-8'?>
<svg version="1.1" xmlns="http://www.w3.org/2000/svg" width="1000" height="600" viewBox="0 0 1000 600">
  <path d="M 549.755,296.587 C 551.958,295.809 557.302,294.639 561.630,293.986 C 579.593,291.275 591.428,285.355 597.634,275.976 C 601.014,270.869 600.578,267.149 595.279,255.891 C 587.709,239.810 576.287,227.360 564.635,222.492 C 561.372,221.129 560.896,221.247 551.375,225.778 C 537.236,232.508 524.087,241.558 521.266,246.500 C 517.742,252.675 514.908,263.027 514.664,270.618 C 514.445,277.433 514.482,277.540 518.471,281.541 C 520.687,283.764 524.638,288.120 527.251,291.222 C 529.865,294.324 533.015,297.056 534.251,297.294 C 539.156,298.239 545.950,297.929 549.755,296.587 Z" fill="#bf5b16" stroke="black" stroke-width="0.5" fill-rule="evenodd"/>
</svg>
