<?xml version='1.0' encoding='UTF-8'?>
<svg version="1.1" xmlns="http://www.w3.org/2000/svg" width="1000" height="600" viewBox="0 0 1000 600">
  <path d="M 447.736,363.250 C 450.566,362.086 451.994,360.883 451.996,359.659 C 451.998,358.646 454.229,355.541 456.953,352.759 C 459.678,349.977 462.185,346.436 462.524,344.891 C 463.206,341.786 474.125,327.550 476.533,326.626 C 477.773,326.150 477.962,324.630 477.558,318.386 C 477.286,314.175 476.936,310.645 476.781,310.541 C 470.526,306.349 469.901,305.647 470.193,303.141 C 470.467,300.782 470.199,300.532 467.684,300.798 C 466.135,300.962 460.417,299.947 454.978,298.543 C 445.822,296.178 442.728,295.861 431.318,296.115 C 429.017,296.166 424.181,295.225 420.571,294.024 C 408.511,290.010 406.252,292.094 398.905,314.009 C 391.853,335.045 392.415,341.144 402.481,352.807 C 407.324,358.419 407.684,358.626 415.481,360.280 C 419.892,361.216 425.750,362.630 428.500,363.423 C 435.363,365.402 442.660,365.337 447.736,363.250 Z" fill="#386cb0" stroke="black" stroke-width="0.5" fill-rule="evenodd"/>
</svg>
