<?xml version='1.0' encoding='UTF-8'?>
<svg version="1.1" xmlns="http://www.w3.org/2000/svg" width="1000" height="600" viewBox="0 0 1000 600">
  <path d="M 535.727,407.372 C 543.757,400.957 544.709,393.780 540.440,371.884 C 536.631,352.351 533.075,344.807 525.837,340.903 C 521.244,338.426 508.303,335.983 496.444,335.354 C 484.616,334.726 484.314,334.764 480.444,337.327 C 478.275,338.765 475.375,341.766 474.000,343.996 C 472.625,346.227 470.362,348.556 468.972,349.172 L 466.443,350.292 L 467.301,359.396 C 468.130,368.188 467.616,387.326 466.437,391.566 C 466.016,393.081 467.101,395.008 470.508,398.798 C 475.761,404.640 477.360,405.236 492.500,406.996 C 498.000,407.635 505.200,408.785 508.500,409.551 C 511.920,410.345 518.252,410.825 523.227,410.665 C 531.225,410.410 532.270,410.134 535.727,407.372 Z" fill="#666666" stroke="black" stroke-width="0.5" fill-rule="evenodd"/>
</svg>
