<?xml version='1.0' encoding='UTF-8'?>
<svg version="1.1" xmlns="http://www.w3.org/2000/svg" width="1000" height="600" viewBox="0 0 1000 600">
  <path d="M 416.876,351.908 C 426.032,349.655 430.302,348.093 432.598,346.158 C 434.331,344.696 440.328,340.367 445.924,336.537 C 451.521,332.707 456.976,328.157 458.047,326.424 C 459.117,324.692 460.706,320.119 461.577,316.262 C 463.153,309.285 463.148,309.226 460.658,304.312 C 459.282,301.596 457.544,298.867 456.796,298.246 C 453.753,295.720 437.932,289.790 429.500,288.014 C 419.327,285.872 414.237,284.203 408.496,281.126 C 403.352,278.369 400.814,278.444 397.232,281.458 C 393.044,284.982 389.586,293.472 385.007,311.471 C 380.856,327.792 380.080,336.146 382.055,343.259 C 383.360,347.959 386.245,349.906 395.931,352.624 C 400.094,353.793 403.681,354.805 403.902,354.874 C 404.124,354.944 409.962,353.608 416.876,351.908 Z" fill="#386cb0" stroke="black" stroke-width="0.5" fill-rule="evenodd"/>
</svg>
