<?xml version='1.0' encoding='UTF-8'?>
<svg version="1.1" xmlns="http://www.w3.org/2000/svg" width="1000" height="600" viewBox="0 0 1000 600">
  <path d="M 572.652,349.971 C 576.201,348.734 579.000,344.354 579.000,340.038 C 579.000,334.886 573.209,318.633 569.117,312.303 C 563.244,303.216 554.799,297.322 545.500,295.820 C 542.750,295.376 535.589,294.587 529.586,294.066 C 520.343,293.264 518.198,293.359 515.586,294.687 C 511.498,296.764 511.525,296.723 512.976,298.471 C 513.669,299.306 513.996,300.909 513.702,302.033 C 512.973,304.819 516.543,308.470 522.609,311.143 C 530.140,314.461 541.769,322.682 542.537,325.231 C 542.913,326.479 544.434,328.850 545.917,330.500 C 547.400,332.150 550.469,335.975 552.738,339.000 C 561.087,350.133 565.389,352.503 572.652,349.971 Z" fill="#9e0142" stroke="black" stroke-width="0.5" fill-rule="evenodd"/>
</svg>
