<?xml version='1.0' encoding='UTF-8'?>
<svg version="1.1" xmlns="http://www.w3.org/2000/svg" width="1000" height="600" viewBox="0 0 1000 600">
  <path d="M 439.313,348.245 C 442.586,345.329 457.048,327.004 457.952,324.627 C 458.934,322.044 470.555,313.971 477.635,310.954 C 483.945,308.265 486.705,305.348 486.199,301.901 C 485.984,300.436 486.301,298.932 486.904,298.559 C 488.768,297.408 488.134,296.292 484.688,294.656 C 481.887,293.327 479.764,293.234 470.938,294.054 C 456.997,295.349 451.279,296.382 446.550,298.459 C 440.681,301.037 434.096,306.828 430.305,312.746 C 426.627,318.486 421.000,334.442 421.000,339.130 C 421.000,342.937 424.452,349.699 426.731,350.357 C 429.903,351.274 437.308,350.031 439.313,348.245 Z" fill="#9e0142" stroke="black" stroke-width="0.5" fill-rule="evenodd"/>
</svg>
