<?xml version='1.0' encoding='UTF-8'?>
<svg version="1.1" xmlns="http://www.w3.org/2000/svg" width="1000" height="600" viewBox="0 0 1000 600">
  <path d="M 533.584,276.466 C 535.172,270.500 535.166,269.730 533.377,247.121 C 532.984,242.148 531.922,237.910 530.121,234.121 C 525.312,224.006 522.347,222.218 515.907,225.548 C 512.992,227.055 506.965,235.310 505.597,239.669 C 504.900,241.890 507.001,247.061 512.233,256.000 C 513.942,258.920 515.113,262.783 515.568,267.000 C 515.954,270.575 517.114,275.178 518.145,277.229 C 519.989,280.899 525.195,284.616 526.960,283.525 C 527.456,283.218 528.171,283.468 528.549,284.080 C 529.757,286.034 531.901,282.793 533.584,276.466 Z" fill="#9e0142" stroke="black" stroke-width="0.5" fill-rule="evenodd"/>
</svg>
