<?xml version='1.0' encoding='UTF-8'?>
<svg version="1.1" xmlns="http://www.w3.org/2000/svg" width="1000" height="600" viewBox="0 0 1000 600">
  <path d="M 498.000,383.248 C 500.301,382.099 502.421,379.793 504.187,376.517 L 506.875,371.534 L 504.752,368.017 C 502.850,364.865 500.692,362.062 489.921,348.750 C 487.452,345.698 486.230,345.000 483.356,345.000 C 480.208,345.000 478.888,345.986 471.163,354.108 C 466.398,359.118 462.190,363.754 461.811,364.411 C 461.431,365.068 460.819,367.882 460.450,370.664 L 459.779,375.721 L 465.721,379.330 C 474.243,384.508 475.510,384.866 485.500,384.935 C 492.164,384.981 495.408,384.543 498.000,383.248 Z" fill="#66c2a5" stroke="black" stroke-width="0.5" fill-rule="evenodd"/>
</svg>
