<?xml version='1.0' encoding='UTF-8'?>
<svg version="1.1" xmlns="http://www.w3.org/2000/svg" width="1000" height="600" viewBox="0 0 1000 600">
  <path d="M 511.362,388.243 L 522.225,385.500 L 527.064,379.500 C 529.725,376.200 533.042,372.097 534.434,370.383 C 536.925,367.315 536.969,366.957 537.233,347.765 L 537.500,328.265 L 533.559,322.532 C 529.366,316.432 520.461,308.517 515.500,306.479 C 512.002,305.042 499.362,306.222 495.266,308.368 C 493.896,309.087 487.649,314.360 481.384,320.087 C 471.876,328.780 469.408,331.665 466.443,337.553 C 461.030,348.301 461.051,352.705 466.573,364.603 C 469.939,371.855 472.554,375.793 477.264,380.702 C 487.948,391.838 492.844,392.920 511.362,388.243 Z" fill="#3286bc" stroke="black" stroke-width="0.5" fill-rule="evenodd"/>
</svg>
