<?xml version='1.0' encoding='UTF-8'?>
<svg version="1.1" xmlns="http://www.w3.org/2000/svg" width="1000" height="600" viewBox="0 0 1000 600">
  <path d="M 509.729,390.431 C 512.954,389.768 527.791,375.285 530.659,370.000 C 532.002,367.525 534.196,363.700 535.534,361.500 C 537.479,358.302 537.970,356.125 537.984,350.643 C 538.009,340.068 534.477,333.623 522.198,321.837 C 516.792,316.648 510.652,311.588 508.554,310.593 C 506.456,309.597 500.948,308.128 496.316,307.329 L 487.893,305.875 L 481.197,309.535 C 466.944,317.325 463.792,321.311 462.047,333.756 C 461.410,338.296 461.165,342.457 461.501,343.002 C 461.838,343.548 462.488,348.666 462.945,354.377 C 463.799,365.047 464.354,366.698 469.500,373.873 C 479.073,387.220 477.919,386.278 488.114,389.077 C 496.955,391.504 502.748,391.867 509.729,390.431 Z" fill="#3286bc" stroke="black" stroke-width="0.5" fill-rule="evenodd"/>
</svg>
