<?xml version='1.0' encoding='UTF-8'?>
<svg version="1.1" xmlns="http://www.w3.org/2000/svg" width="1000" height="600" viewBox="0 0 1000 600">
  <path d="M 584.655,398.904 C 593.004,393.744 600.000,381.280 600.000,371.565 C 600.000,362.545 594.787,349.533 587.109,339.388 C 585.027,336.638 582.168,331.862 580.755,328.775 C 576.290,319.024 570.420,311.398 563.744,306.678 C 555.348,300.742 541.709,294.528 530.186,291.389 C 518.759,288.276 517.096,288.739 513.589,296.008 L 511.145,301.075 L 513.572,308.212 C 514.908,312.138 516.015,316.509 516.033,317.925 C 516.051,319.341 516.974,322.975 518.086,326.000 C 519.197,329.025 520.271,333.750 520.473,336.500 C 520.674,339.250 521.153,343.216 521.537,345.314 C 522.000,347.851 521.674,350.908 520.560,354.449 C 519.024,359.331 519.015,360.268 520.443,365.780 C 521.299,369.085 522.000,373.406 522.000,375.382 C 522.000,378.514 522.538,379.315 526.191,381.621 C 531.921,385.238 539.245,386.720 554.048,387.258 C 560.950,387.508 567.583,388.241 568.788,388.886 C 569.993,389.532 571.712,391.508 572.607,393.280 C 574.752,397.525 577.993,401.000 579.806,401.000 C 580.608,401.000 582.790,400.057 584.655,398.904 Z" fill="#fefebe" stroke="black" stroke-width="0.5" fill-rule="evenodd"/>
</svg>
