<?xml version='1.0' encoding='UTF-8'?>
<svg version="1.1" xmlns="http://www.w3.org/2000/svg" width="1000" height="600" viewBox="0 0 1000 600">
  <path d="M 588.698,378.992 C 596.652,377.338 604.070,375.497 605.184,374.902 C 607.112,373.870 613.007,362.451 612.994,359.772 C 612.990,359.072 612.385,357.345 611.648,355.933 C 610.912,354.522 609.988,352.090 609.597,350.530 C 609.205,348.970 607.570,345.781 605.962,343.445 C 604.354,341.108 601.522,335.890 599.667,331.848 C 597.813,327.807 595.334,323.647 594.159,322.605 C 592.984,321.563 590.644,318.562 588.959,315.936 C 587.274,313.310 584.794,310.440 583.449,309.559 C 579.799,307.167 568.415,305.382 560.601,305.976 C 554.685,306.425 553.431,306.864 551.798,309.059 C 550.744,310.476 549.642,314.065 549.329,317.104 C 548.807,322.163 548.281,323.092 542.568,329.045 C 539.161,332.595 534.264,337.210 531.687,339.300 C 527.136,342.989 527.000,343.259 527.000,348.583 C 527.000,352.507 527.746,355.550 529.622,359.283 C 532.949,365.902 540.275,374.574 544.298,376.654 C 556.399,382.912 567.133,383.477 588.698,378.992 Z" fill="#fefebe" stroke="black" stroke-width="0.5" fill-rule="evenodd"/>
</svg>
