<?xml version='1.0' encoding='UTF-8'?>
<svg version="1.1" xmlns="http://www.w3.org/2000/svg" width="1000" height="600" viewBox="0 0 1000 600">
  <path d="M 599.759,385.582 C 614.112,382.925 615.301,382.480 619.100,378.336 C 623.081,373.994 625.077,367.878 624.343,362.271 C 623.633,356.844 622.117,353.428 617.568,347.000 C 615.817,344.525 611.556,337.192 608.101,330.705 C 599.739,315.007 597.623,313.585 579.500,311.481 C 569.184,310.284 568.242,310.325 564.343,312.146 C 559.226,314.537 556.505,319.500 557.363,324.878 C 557.916,328.338 557.636,328.777 551.102,334.698 C 547.340,338.107 542.401,341.866 540.126,343.051 C 537.851,344.237 535.764,345.573 535.487,346.021 C 534.556,347.528 537.015,361.246 539.036,365.814 C 541.421,371.206 546.842,378.039 551.192,381.137 C 561.413,388.415 576.828,389.825 599.759,385.582 Z" fill="#fefebe" stroke="black" stroke-width="0.5" fill-rule="evenodd"/>
</svg>
