<?xml version='1.0' encoding='UTF-8'?>
<svg version="1.1" xmlns="http://www.w3.org/2000/svg" width="1000" height="600" viewBox="0 0 1000 600">
  <path d="M 423.529,397.419 C 425.630,396.422 427.261,394.691 427.943,392.734 C 430.201,386.257 430.899,386.000 446.199,386.000 C 463.205,386.000 471.946,384.192 476.733,379.685 C 479.604,376.982 479.898,376.213 479.356,372.826 C 479.016,370.699 479.205,368.455 479.784,367.755 C 481.773,365.348 482.289,358.874 480.940,353.249 C 479.790,348.455 479.824,347.143 481.200,343.317 C 482.434,339.884 482.552,338.152 481.734,335.486 C 480.825,332.522 481.040,331.375 483.342,326.939 C 484.804,324.121 486.020,320.394 486.044,318.658 C 486.068,316.921 486.736,313.700 487.529,311.500 C 488.321,309.300 488.970,305.925 488.970,304.000 C 488.970,299.081 486.512,292.564 484.503,292.159 C 481.537,291.560 460.761,297.149 453.261,300.564 C 442.614,305.411 438.497,308.777 426.935,322.082 C 414.158,336.786 410.471,342.696 406.121,355.441 C 403.150,364.149 402.816,366.135 403.353,371.921 C 404.139,380.383 408.787,389.763 414.833,395.084 C 417.280,397.238 419.488,399.000 419.740,399.000 C 419.992,399.000 421.697,398.289 423.529,397.419 Z" fill="#fefebe" stroke="black" stroke-width="0.5" fill-rule="evenodd"/>
</svg>
