<?xml version='1.0' encoding='UTF-8'?>
<svg version="1.1" xmlns="http://www.w3.org/2000/svg" width="1000" height="600" viewBox="0 0 1000 600">
  <path d="M 560.888,392.482 C 563.283,390.318 565.659,386.758 567.059,383.232 C 568.311,380.079 571.116,374.209 573.292,370.188 C 576.961,363.409 577.272,362.207 577.553,353.717 C 577.946,341.895 577.027,337.306 572.882,330.391 C 568.488,323.059 564.687,319.000 562.216,319.000 C 560.003,319.000 552.556,325.991 550.562,329.940 C 549.065,332.905 546.563,345.446 546.809,348.747 C 547.068,352.218 542.769,360.992 538.253,366.208 C 536.011,368.798 533.886,372.398 533.529,374.208 C 533.173,376.019 532.397,379.814 531.805,382.643 C 531.214,385.472 531.013,388.917 531.360,390.299 C 531.900,392.450 532.745,392.915 537.245,393.532 C 540.135,393.929 543.400,394.618 544.500,395.063 C 545.600,395.509 548.861,395.902 551.747,395.937 C 556.388,395.993 557.444,395.593 560.888,392.482 Z" fill="#d33c4e" stroke="black" stroke-width="0.5" fill-rule="evenodd"/>
</svg>
