<?xml version='1.0' encoding='UTF-8'?>
<svg version="1.1" xmlns="http://www.w3.org/2000/svg" width="1000" height="600" viewBox="0 0 1000 600">
  <path d="M 460.738,393.942 C 466.240,392.959 468.120,392.199 468.571,390.775 C 468.898,389.745 468.391,384.893 467.445,379.994 C 465.896,371.980 465.257,370.535 461.076,365.590 C 456.160,359.776 452.987,352.599 452.995,347.312 C 453.000,343.853 450.321,331.396 449.104,329.221 C 447.563,326.468 439.697,319.000 438.339,319.000 C 435.418,319.000 431.957,322.400 427.344,329.803 L 422.580,337.447 L 422.548,349.473 L 422.516,361.500 L 428.365,373.500 C 431.582,380.100 434.713,386.551 435.321,387.834 C 435.930,389.118 437.966,391.519 439.846,393.169 C 443.652,396.511 445.902,396.595 460.738,393.942 Z" fill="#d33c4e" stroke="black" stroke-width="0.5" fill-rule="evenodd"/>
</svg>
