<?xml version='1.0' encoding='UTF-8'?>
<svg version="1.1" xmlns="http://www.w3.org/2000/svg" width="1000" height="600" viewBox="0 0 1000 600">
  <path d="M 474.852,270.261 C 476.568,268.980 477.783,266.634 478.646,262.938 C 481.276,251.670 479.757,245.609 472.144,237.000 L 468.164,232.500 L 458.983,232.147 C 450.134,231.806 449.540,231.923 442.543,235.382 C 434.124,239.542 427.707,245.908 425.921,251.871 C 424.117,257.890 425.462,259.000 434.557,259.000 L 441.870,259.000 L 447.251,264.381 C 451.557,268.688 453.517,269.908 457.066,270.494 C 459.505,270.896 462.175,271.636 463.000,272.137 C 465.220,273.487 471.961,272.420 474.852,270.261 Z" fill="#d33c4e" stroke="black" stroke-width="0.5" fill-rule="evenodd"/>
  <path d="M 465.639,261.306 C 464.513,260.180 464.954,259.000 466.500,259.000 C 467.325,259.000 468.000,259.423 468.000,259.941 C 468.000,261.202 466.438,262.105 465.639,261.306 Z" fill="#d33c4e" stroke="black" stroke-width="0.5" fill-rule="evenodd"/>
</svg>
