<?xml version='1.0' encoding='UTF-8'?>
<svg version="1.1" xmlns="http://www.w3.org/2000/svg" width="1000" height="600" viewBox="0 0 1000 600">
  <path d="M 533.384,265.677 C 541.808,261.681 547.920,256.739 549.205,252.884 C 549.518,251.947 552.039,251.564 558.071,251.538 L 566.500,251.500 L 566.783,247.000 C 567.216,240.112 563.862,234.488 556.237,229.317 C 548.516,224.081 543.619,222.700 534.426,223.164 C 526.075,223.586 521.592,226.126 514.724,234.329 C 510.904,238.892 510.516,239.881 510.175,245.915 C 509.829,252.025 511.621,261.282 513.819,264.741 C 514.615,265.995 521.748,269.886 523.384,269.960 C 523.871,269.982 528.371,268.054 533.384,265.677 Z" fill="#d33c4e" stroke="black" stroke-width="0.5" fill-rule="evenodd"/>
  <path d="M 522.553,256.085 C 522.231,255.564 522.394,254.875 522.915,254.553 C 523.436,254.231 524.125,254.394 524.447,254.915 C 524.769,255.436 524.606,256.125 524.085,256.447 C 523.564,256.769 522.875,256.606 522.553,256.085 Z" fill="#d33c4e" stroke="black" stroke-width="0.5" fill-rule="evenodd"/>
</svg>
