<?xml version='1.0' encoding='UTF-8'?>
<svg version="1.1" xmlns="http://www.w3.org/2000/svg" width="1000" height="600" viewBox="0 0 1000 600">
  <path d="M 462.000,395.182 C 468.129,393.596 468.550,393.299 469.374,389.966 C 470.599,385.009 465.595,375.106 458.850,369.137 C 452.830,363.811 448.608,356.063 449.503,351.987 C 449.897,350.192 449.511,347.955 448.454,345.910 C 447.533,344.130 445.933,340.212 444.897,337.201 C 443.000,331.686 437.430,322.432 434.590,320.075 C 431.396,317.424 423.303,324.701 419.072,334.028 C 416.411,339.895 416.205,353.949 418.688,360.230 C 420.929,365.898 433.568,387.867 436.323,390.883 C 442.179,397.294 449.256,398.479 462.000,395.182 Z" fill="#d33c4e" stroke="black" stroke-width="0.5" fill-rule="evenodd"/>
</svg>
