<?xml version='1.0' encoding='UTF-8'?>
<svg version="1.1" xmlns="http://www.w3.org/2000/svg" width="1000" height="600" viewBox="0 0 1000 600">
  <path d="M 470.072,390.461 C 476.917,388.082 477.971,386.869 479.058,380.120 C 479.951,374.575 479.822,373.578 477.657,369.257 C 476.346,366.641 474.706,362.700 474.013,360.500 C 471.978,354.036 469.485,352.003 463.576,351.985 C 460.784,351.976 457.840,351.552 457.032,351.041 C 455.901,350.326 455.328,350.845 454.532,353.306 C 453.965,355.063 452.600,356.897 451.500,357.382 C 450.301,357.911 448.836,360.314 447.842,363.382 C 446.385,367.876 446.355,368.911 447.592,371.872 C 448.366,373.727 449.000,376.861 449.000,378.838 C 449.000,381.777 449.858,383.302 453.712,387.216 C 459.035,392.619 462.108,393.229 470.072,390.461 Z" fill="#f46d43" stroke="black" stroke-width="0.5" fill-rule="evenodd"/>
</svg>
