<?xml version='1.0' encoding='UTF-8'?>
<svg version="1.1" xmlns="http://www.w3.org/2000/svg" width="1000" height="600" viewBox="0 0 1000 600">
  <path d="M 543.774,387.293 C 546.611,385.454 547.556,384.337 546.724,383.808 C 545.872,383.267 546.032,383.026 547.250,383.015 C 548.212,383.007 549.022,382.663 549.048,382.250 C 549.074,381.837 549.373,379.025 549.711,376.000 C 550.561,368.406 550.397,365.260 548.866,359.750 C 547.938,356.413 547.029,355.000 545.808,355.000 C 543.649,355.000 541.648,351.455 542.331,348.841 C 542.706,347.406 542.524,347.150 541.646,347.879 C 540.988,348.425 537.986,349.177 534.975,349.551 C 531.964,349.924 528.560,350.816 527.411,351.532 C 525.049,353.005 518.000,369.683 518.000,373.799 C 518.000,375.248 518.759,378.420 519.686,380.849 C 521.108,384.571 522.168,385.635 526.436,387.623 C 533.262,390.801 538.518,390.701 543.774,387.293 Z" fill="#f46d43" stroke="black" stroke-width="0.5" fill-rule="evenodd"/>
</svg>
