<?xml version='1.0' encoding='UTF-8'?>
<svg version="1.1" xmlns="http://www.w3.org/2000/svg" width="1000" height="600" viewBox="0 0 1000 600">
  <path d="M 586.577,303.000 C 588.700,303.000 589.369,296.412 588.138,287.615 C 586.810,278.132 581.067,265.263 572.872,253.409 C 568.267,246.748 566.998,245.623 560.618,242.549 C 547.953,236.447 545.469,236.950 536.521,247.424 C 531.007,253.878 529.706,258.728 530.999,268.000 C 531.421,271.025 531.543,275.795 531.270,278.600 C 530.793,283.507 530.929,283.853 534.879,287.763 C 537.136,289.998 540.479,292.751 542.307,293.881 C 544.136,295.011 546.459,296.850 547.471,297.968 C 548.482,299.085 550.265,300.000 551.432,300.000 C 552.600,300.000 554.556,300.701 555.779,301.558 C 557.002,302.414 563.514,303.935 570.251,304.937 C 582.206,306.715 582.533,306.713 583.872,304.879 C 584.627,303.846 585.844,303.000 586.577,303.000 Z" fill="#fcac60" stroke="black" stroke-width="0.5" fill-rule="evenodd"/>
</svg>
