<?xml version='1.0' encoding='UTF-8'?>
<svg version="1.1" xmlns="http://www.w3.org/2000/svg" width="1000" height="600" viewBox="0 0 1000 600">
  <path d="M 433.074,304.381 C 438.258,303.491 443.388,302.141 444.473,301.381 C 445.557,300.622 447.400,300.000 448.568,300.000 C 449.735,300.000 451.547,299.042 452.595,297.870 C 453.643,296.699 456.075,294.733 458.000,293.502 C 459.925,292.271 463.204,289.695 465.286,287.778 C 468.964,284.392 469.066,284.111 468.889,277.896 C 468.788,274.378 468.816,268.065 468.950,263.866 C 469.097,259.298 468.701,255.283 467.965,253.866 C 465.970,250.027 460.127,243.199 456.413,240.366 L 452.961,237.733 L 447.333,239.333 C 435.260,242.768 429.401,248.061 420.583,263.500 C 414.130,274.799 411.696,282.712 411.589,292.747 C 411.503,300.765 411.590,301.087 414.500,303.471 C 418.079,306.402 420.588,306.525 433.074,304.381 Z" fill="#fcac60" stroke="black" stroke-width="0.5" fill-rule="evenodd"/>
</svg>
