<?xml version='1.0' encoding='UTF-8'?>
<svg version="1.1" xmlns="http://www.w3.org/2000/svg" width="1000" height="600" viewBox="0 0 1000 600">
  <path d="M 538.524,377.459 C 549.821,371.026 549.629,371.304 547.650,364.249 C 546.742,361.015 546.000,356.991 546.000,355.307 C 546.000,348.357 540.615,339.911 528.816,328.354 L 520.500,320.209 L 515.310,320.917 C 512.218,321.340 508.072,322.900 505.051,324.778 C 502.262,326.511 499.329,327.680 498.534,327.375 C 497.330,326.913 497.261,327.378 498.125,330.160 C 498.695,331.997 499.237,338.013 499.331,343.530 L 499.500,353.559 L 505.341,365.030 C 508.554,371.338 512.032,377.378 513.071,378.452 C 514.834,380.274 520.203,381.543 527.524,381.866 C 529.458,381.952 533.425,380.362 538.524,377.459 Z" fill="#fee08b" stroke="black" stroke-width="0.5" fill-rule="evenodd"/>
</svg>
