<?xml version='1.0' encoding='UTF-8'?>
<svg version="1.1" xmlns="http://www.w3.org/2000/svg" width="1000" height="600" viewBox="0 0 1000 600">
  <path d="M 479.195,381.449 C 484.458,379.656 486.114,377.986 491.780,368.757 C 497.083,360.118 498.473,355.385 498.613,345.500 C 498.675,341.100 499.076,335.072 499.504,332.104 C 500.031,328.450 499.948,326.914 499.246,327.348 C 498.676,327.700 495.435,326.135 492.044,323.870 L 485.877,319.753 L 479.829,321.036 C 474.399,322.189 470.000,324.928 470.000,327.157 C 470.000,327.585 468.926,328.513 467.612,329.218 C 465.031,330.604 459.124,337.927 456.510,342.981 C 454.953,345.992 451.928,356.289 449.686,366.212 C 448.473,371.579 449.432,373.272 455.934,377.241 C 457.895,378.437 459.950,379.960 460.500,380.624 C 462.676,383.252 472.618,383.690 479.195,381.449 Z" fill="#fee08b" stroke="black" stroke-width="0.5" fill-rule="evenodd"/>
</svg>
