<?xml version='1.0' encoding='UTF-8'?>
<svg version="1.1" xmlns="http://www.w3.org/2000/svg" width="1000" height="600" viewBox="0 0 1000 600">
  <path d="M 423.100,475.796 C 429.461,472.056 438.656,461.881 440.135,456.943 C 440.797,454.734 442.278,451.913 443.426,450.675 C 444.573,449.436 445.365,447.655 445.184,446.716 C 445.003,445.778 445.594,442.468 446.498,439.360 L 448.140,433.711 L 443.342,428.839 C 435.796,421.179 429.166,420.181 417.840,425.000 C 413.963,426.650 410.240,428.000 409.568,428.000 C 408.895,428.000 405.489,426.840 401.999,425.421 C 394.229,422.264 391.278,422.659 384.565,427.754 C 381.119,430.369 378.252,433.908 375.065,439.478 C 370.978,446.622 369.884,447.782 364.615,450.562 C 351.810,457.318 353.939,464.908 371.058,473.529 C 380.882,478.477 383.449,478.905 402.000,478.691 C 417.966,478.506 418.649,478.412 423.100,475.796 Z" fill="#ff0028" stroke="black" stroke-width="0.5" fill-rule="evenodd"/>
</svg>
