<?xml version='1.0' encoding='UTF-8'?>
<svg version="1.1" xmlns="http://www.w3.org/2000/svg" width="1000" height="600" viewBox="0 0 1000 600">
  <path d="M 626.957,475.901 C 632.090,473.630 635.837,470.469 637.020,467.413 C 638.538,463.487 636.111,456.198 631.786,451.695 C 627.886,447.633 627.755,447.273 627.629,440.322 C 627.529,434.772 627.033,432.519 625.439,430.385 C 623.172,427.350 622.572,427.115 609.391,424.112 C 600.889,422.174 599.897,422.136 594.484,423.546 C 589.165,424.932 588.265,424.912 583.593,423.307 C 579.674,421.960 575.140,421.551 563.922,421.529 C 549.373,421.500 549.336,421.506 545.058,424.465 C 542.701,426.096 540.527,428.068 540.228,428.848 C 539.929,429.627 541.105,432.850 542.842,436.010 C 544.579,439.169 546.000,442.889 546.000,444.277 C 546.000,448.276 567.913,464.485 578.374,468.223 C 582.704,469.770 589.413,472.426 593.282,474.124 C 597.150,475.822 602.382,477.586 604.908,478.044 C 611.448,479.230 621.679,478.235 626.957,475.901 Z" fill="#ff0028" stroke="black" stroke-width="0.5" fill-rule="evenodd"/>
</svg>
