<?xml version='1.0' encoding='UTF-8'?>
<svg version="1.1" xmlns="http://www.w3.org/2000/svg" width="1000" height="600" viewBox="0 0 1000 600">
  <path d="M 619.500,248.027 C 623.350,247.546 628.248,247.411 630.385,247.726 L 634.271,248.299 L 633.628,244.899 C 631.655,234.474 631.728,233.812 635.931,224.071 C 640.453,213.591 641.040,208.199 638.456,200.876 C 637.606,198.469 636.201,193.350 635.334,189.500 C 633.288,180.420 632.088,178.208 626.988,174.110 C 622.955,170.869 622.277,170.686 611.634,169.944 C 605.510,169.518 598.700,169.558 596.500,170.033 C 594.300,170.508 586.875,173.588 580.000,176.876 C 572.120,180.646 565.092,183.275 560.985,183.990 C 553.541,185.285 544.688,189.651 544.184,192.275 C 543.712,194.736 549.374,209.211 552.800,214.300 C 554.354,216.610 556.849,221.047 558.343,224.161 C 562.016,231.814 567.368,236.528 573.412,237.435 C 581.794,238.691 589.399,241.043 594.000,243.801 C 601.098,248.056 606.249,249.912 609.500,249.386 C 611.150,249.118 615.650,248.507 619.500,248.027 Z" fill="#ff0028" stroke="black" stroke-width="0.5" fill-rule="evenodd"/>
</svg>
