<?xml version='1.0' encoding='UTF-8'?>
<svg version="1.1" xmlns="http://www.w3.org/2000/svg" width="1000" height="600" viewBox="0 0 1000 600">
  <path d="M 394.272,477.958 C 397.373,477.384 402.968,475.529 406.705,473.834 C 410.442,472.140 416.817,469.671 420.872,468.347 C 424.927,467.023 429.928,464.716 431.987,463.220 C 450.550,449.729 454.098,446.700 453.768,444.630 C 453.580,443.456 454.927,440.097 456.769,437.144 C 458.607,434.198 459.974,430.841 459.806,429.685 C 459.638,428.529 457.551,426.215 455.168,424.542 C 451.065,421.661 450.246,421.483 439.668,421.177 C 431.704,420.947 426.348,421.346 421.000,422.568 C 412.238,424.570 410.029,424.638 404.122,423.084 C 400.613,422.161 398.727,422.223 394.622,423.394 C 391.805,424.197 387.409,425.157 384.853,425.525 C 378.967,426.375 374.255,429.219 372.880,432.750 C 372.291,434.263 372.025,438.299 372.287,441.721 C 372.757,447.836 372.708,447.986 369.381,450.523 C 365.201,453.711 362.936,457.936 362.738,462.917 C 362.297,473.962 377.266,481.101 394.272,477.958 Z" fill="#ff0028" stroke="black" stroke-width="0.5" fill-rule="evenodd"/>
</svg>
