<?xml version='1.0' encoding='UTF-8'?>
<svg version="1.1" xmlns="http://www.w3.org/2000/svg" width="1000" height="600" viewBox="0 0 1000 600">
  <path d="M 506.316,284.868 C 507.517,284.246 511.688,281.316 515.584,278.357 C 519.710,275.223 526.390,271.459 531.584,269.342 C 539.595,266.075 541.414,265.709 549.500,265.737 C 555.689,265.758 560.530,266.404 565.000,267.805 C 577.780,271.811 613.904,271.687 621.789,267.609 C 623.329,266.813 627.901,265.702 631.948,265.141 C 635.996,264.580 639.954,263.475 640.744,262.685 C 642.816,260.612 640.642,256.951 632.825,249.351 C 625.631,242.358 615.944,237.543 605.697,235.869 C 598.470,234.688 596.117,233.880 586.000,229.109 C 578.686,225.659 578.117,225.557 563.000,224.992 C 550.860,224.538 546.774,224.026 544.150,222.629 C 541.110,221.011 538.901,220.912 520.288,221.568 L 499.775,222.290 L 495.638,225.440 C 493.362,227.172 491.362,229.536 491.194,230.693 C 491.025,231.850 489.450,234.445 487.694,236.459 C 484.919,239.640 483.767,240.195 478.914,240.683 C 475.594,241.018 472.480,240.792 471.236,240.127 C 469.491,239.193 468.595,239.450 465.822,241.681 C 458.515,247.562 454.000,252.495 454.000,254.598 C 454.000,256.775 461.079,267.208 464.411,269.942 C 465.378,270.736 467.430,273.219 468.972,275.459 C 471.357,278.925 472.875,279.903 479.138,282.003 C 483.187,283.361 487.625,284.762 489.000,285.117 C 493.248,286.215 504.016,286.060 506.316,284.868 Z" fill="#2bff00" stroke="black" stroke-width="0.5" fill-rule="evenodd"/>
</svg>
