<?xml version='1.0' encoding='UTF-8'?>
<svg version="1.1" xmlns="http://www.w3.org/2000/svg" width="1000" height="600" viewBox="0 0 1000 600">
  <path d="M 465.000,113.208 C 465.000,110.461 457.144,103.438 451.000,100.692 C 447.975,99.340 443.845,96.638 441.822,94.687 C 439.800,92.737 437.000,90.391 435.601,89.474 C 433.213,87.909 432.827,87.920 429.279,89.654 C 426.576,90.974 424.683,93.025 422.631,96.853 L 419.762,102.207 L 421.801,104.245 C 423.426,105.870 425.824,106.451 433.638,107.110 C 443.799,107.968 448.786,108.783 450.498,109.868 C 452.061,110.857 462.358,114.756 463.750,114.884 C 464.438,114.948 465.000,114.194 465.000,113.208 Z" fill="#ff1c00" stroke="black" stroke-width="0.5" fill-rule="evenodd"/>
</svg>
