<?xml version='1.0' encoding='UTF-8'?>
<svg version="1.1" xmlns="http://www.w3.org/2000/svg" width="1000" height="600" viewBox="0 0 1000 600">
  <path d="M 550.670,194.467 C 553.820,193.074 557.853,190.824 559.632,189.467 C 563.356,186.627 564.970,186.479 570.500,188.471 C 577.306,190.923 581.053,190.372 590.822,185.482 C 597.240,182.269 601.134,179.533 604.303,176.008 L 608.759,171.052 L 609.177,161.776 C 609.509,154.403 610.149,151.295 612.297,146.629 C 615.178,140.373 615.718,135.209 613.856,131.730 C 613.226,130.554 612.131,127.393 611.422,124.705 C 610.713,122.017 609.110,118.325 607.861,116.501 C 604.218,111.185 584.709,99.000 579.841,99.000 C 577.079,99.000 568.021,103.294 561.447,107.719 C 558.176,109.920 554.717,112.137 553.759,112.646 C 549.420,114.948 529.723,134.647 525.656,140.750 C 523.183,144.463 519.759,148.836 518.046,150.469 C 509.282,158.828 507.526,169.268 512.956,180.745 C 516.135,187.465 515.931,187.319 529.500,192.530 C 533.350,194.008 537.400,195.588 538.500,196.041 C 541.927,197.452 544.744,197.088 550.670,194.467 Z" fill="#ffae00" stroke="black" stroke-width="0.5" fill-rule="evenodd"/>
</svg>
