<?xml version='1.0' encoding='UTF-8'?>
<svg version="1.1" xmlns="http://www.w3.org/2000/svg" width="1000" height="600" viewBox="0 0 1000 600">
  <path d="M 489.035,263.916 C 493.729,261.212 498.059,259.000 498.658,259.000 C 499.256,259.000 504.641,256.440 510.623,253.312 L 521.500,247.624 L 539.500,247.039 C 550.609,246.678 558.320,245.993 559.641,245.250 C 562.252,243.782 576.922,242.019 586.622,242.008 C 591.565,242.003 596.134,242.780 601.552,244.549 C 609.220,247.052 616.920,247.521 617.148,245.500 C 617.330,243.886 608.847,238.199 604.500,237.021 C 602.300,236.425 598.475,235.094 596.000,234.063 C 593.525,233.032 587.538,230.960 582.696,229.458 C 575.810,227.323 573.392,226.956 571.598,227.773 C 570.337,228.348 566.649,229.105 563.403,229.456 C 546.427,231.291 539.336,232.305 537.803,233.116 C 536.870,233.609 532.734,234.659 528.611,235.447 C 524.488,236.236 519.048,237.583 516.523,238.441 C 509.677,240.765 506.458,240.393 495.882,236.056 L 486.264,232.112 L 476.882,236.177 C 471.722,238.413 464.575,241.200 461.000,242.371 C 455.058,244.317 454.477,244.758 454.230,247.500 C 454.081,249.150 454.756,251.668 455.730,253.095 C 456.703,254.523 459.182,258.206 461.238,261.279 C 465.386,267.479 465.979,267.984 470.413,269.088 C 475.501,270.354 480.047,269.092 489.035,263.916 Z" fill="#2bff00" stroke="black" stroke-width="0.5" fill-rule="evenodd"/>
</svg>
