<?xml version='1.0' encoding='UTF-8'?>
<svg version="1.1" xmlns="http://www.w3.org/2000/svg" width="1000" height="600" viewBox="0 0 1000 600">
  <path d="M 409.294,334.984 C 410.704,333.875 412.844,331.371 414.050,329.420 C 415.255,327.469 418.003,324.761 420.155,323.402 C 422.308,322.043 425.713,318.359 427.723,315.216 C 429.733,312.072 433.365,306.800 435.794,303.500 C 438.223,300.200 441.033,295.890 442.038,293.922 C 443.850,290.373 443.845,290.305 441.364,285.292 C 437.756,278.001 437.119,267.449 439.807,259.500 C 440.923,256.200 442.343,250.575 442.961,247.000 C 443.580,243.425 444.742,238.803 445.543,236.730 C 447.475,231.729 447.391,221.917 445.361,215.475 C 443.847,210.674 443.845,209.724 445.334,203.131 C 446.222,199.202 446.678,194.642 446.350,192.998 C 445.608,189.288 440.380,184.478 431.374,179.218 C 427.587,177.007 423.634,174.253 422.589,173.098 C 420.205,170.464 417.827,170.429 415.505,172.994 C 413.419,175.299 413.377,175.871 412.010,220.000 C 411.034,251.518 410.191,258.016 404.618,277.002 C 402.387,284.601 401.805,328.852 403.871,333.750 C 405.479,337.561 405.897,337.656 409.294,334.984 Z" fill="#2bff00" stroke="black" stroke-width="0.5" fill-rule="evenodd"/>
</svg>
