<?xml version='1.0' encoding='UTF-8'?>
<svg version="1.1" xmlns="http://www.w3.org/2000/svg" width="1000" height="600" viewBox="0 0 1000 600">
  <path d="M 415.364,260.250 C 416.341,258.352 416.892,252.852 417.142,242.500 C 417.474,228.754 417.706,227.166 419.922,223.500 C 422.189,219.751 422.327,218.686 422.120,206.500 C 421.958,196.958 421.381,191.810 419.950,187.145 C 418.462,182.295 417.995,177.793 417.978,168.145 C 417.960,157.715 417.610,154.736 415.978,151.141 C 413.577,145.849 413.516,144.136 415.623,141.128 C 416.515,139.854 417.448,136.041 417.696,132.656 C 418.054,127.771 417.722,125.688 416.089,122.568 C 413.691,117.989 413.935,117.261 417.163,119.359 C 418.448,120.194 423.429,122.294 428.230,124.026 C 439.521,128.098 448.157,133.719 452.260,139.665 C 458.425,148.600 464.536,156.305 466.327,157.400 C 468.995,159.032 472.000,154.956 472.000,149.705 C 472.000,140.493 463.962,130.638 449.000,121.505 C 443.775,118.316 437.025,113.787 434.000,111.440 C 430.887,109.026 426.113,106.479 423.000,105.573 C 419.975,104.692 414.451,102.809 410.723,101.388 C 404.389,98.973 403.788,98.909 401.518,100.396 C 394.982,104.679 393.529,108.529 397.101,112.101 C 399.052,114.052 399.153,114.889 398.520,123.851 C 397.718,135.201 398.437,137.717 404.031,143.146 C 407.999,146.997 408.000,146.999 408.106,155.249 C 408.252,166.654 408.026,169.051 406.474,172.500 C 402.212,181.976 402.092,182.592 403.957,185.435 C 404.923,186.906 406.643,188.762 407.780,189.558 C 410.298,191.322 412.385,197.213 411.490,200.031 C 411.130,201.166 408.618,204.759 405.908,208.015 C 401.244,213.619 400.947,214.327 400.372,221.218 C 399.796,228.116 399.950,228.882 403.295,235.737 C 407.011,243.352 410.000,253.565 410.000,258.647 C 410.000,263.805 413.063,264.720 415.364,260.250 Z" fill="#fff500" stroke="black" stroke-width="0.5" fill-rule="evenodd"/>
</svg>
