<?xml version='1.0' encoding='UTF-8'?>
<svg version="1.1" xmlns="http://www.w3.org/2000/svg" width="1000" height="600" viewBox="0 0 1000 600">
  <path d="M 713.810,393.936 C 719.338,389.070 722.980,382.749 727.600,370.000 C 730.738,361.338 731.094,359.221 731.630,346.000 C 731.954,338.025 732.844,329.572 733.609,327.215 C 734.374,324.858 735.000,321.434 735.000,319.605 C 735.000,313.458 725.718,302.450 713.118,293.654 C 709.058,290.819 705.008,287.992 704.118,287.371 C 690.562,277.917 665.817,264.000 662.563,264.000 C 661.748,264.000 657.146,261.975 652.336,259.500 C 643.296,254.848 640.635,254.164 639.393,256.172 C 637.958,258.494 649.523,266.567 667.753,275.969 C 673.336,278.849 677.541,281.912 680.753,285.437 C 686.156,291.369 696.000,309.687 696.000,313.810 C 696.000,317.044 693.494,321.000 691.446,321.000 C 689.344,321.000 680.863,327.338 678.270,330.847 C 677.044,332.506 675.616,335.753 675.098,338.061 C 674.496,340.741 672.772,343.674 670.327,346.177 L 666.500,350.097 L 666.562,360.298 C 666.601,366.536 667.118,371.409 667.895,372.838 C 670.601,377.822 676.757,383.434 682.500,386.155 C 688.976,389.224 691.955,389.629 695.213,387.886 C 697.047,386.904 697.945,387.439 702.775,392.386 C 705.790,395.474 708.468,398.000 708.725,398.000 C 708.982,398.000 711.271,396.171 713.810,393.936 Z" fill="#fff500" stroke="black" stroke-width="0.5" fill-rule="evenodd"/>
</svg>
