<?xml version='1.0' encoding='UTF-8'?>
<svg version="1.1" xmlns="http://www.w3.org/2000/svg" width="1000" height="600" viewBox="0 0 1000 600">
  <path d="M 296.500,391.000 C 297.495,389.900 299.481,389.000 300.913,389.000 C 302.345,389.000 305.629,387.875 308.212,386.500 C 311.172,384.925 314.534,384.000 317.305,384.000 C 324.907,384.000 327.587,382.427 332.525,375.066 C 337.507,367.641 339.000,363.575 339.000,357.431 C 339.000,354.463 338.372,352.758 336.699,351.187 C 334.434,349.059 334.280,349.050 326.949,350.603 C 321.643,351.728 317.342,351.983 312.000,351.489 C 307.875,351.109 302.286,350.844 299.579,350.902 C 296.767,350.961 293.698,350.377 292.417,349.537 C 290.286,348.142 290.241,347.850 291.500,343.666 C 293.951,335.523 296.745,331.550 307.796,320.500 C 316.984,311.312 318.984,308.759 319.933,305.000 C 324.225,288.016 329.656,281.961 349.500,272.034 C 356.112,268.727 362.210,266.502 367.500,265.467 C 371.900,264.606 378.346,263.028 381.825,261.960 C 385.456,260.846 394.189,259.556 402.325,258.933 C 410.121,258.336 419.200,257.380 422.500,256.808 C 425.800,256.237 431.200,255.612 434.500,255.420 C 442.703,254.943 456.143,253.191 456.823,252.510 C 457.130,252.203 456.673,251.244 455.807,250.378 C 453.548,248.119 440.660,246.812 419.000,246.644 L 400.500,246.500 L 392.500,250.089 C 378.681,256.289 376.734,256.846 367.000,257.384 C 360.519,257.742 355.297,258.696 350.568,260.386 C 345.302,262.268 342.481,262.726 338.826,262.293 L 334.016,261.723 L 331.428,267.612 C 330.005,270.850 328.388,274.442 327.835,275.594 C 326.522,278.328 321.399,283.646 310.585,293.500 C 293.028,309.500 277.473,338.499 274.112,361.500 C 273.469,365.900 272.427,370.930 271.797,372.677 C 270.768,375.530 270.929,376.219 273.385,379.438 C 274.889,381.410 277.555,383.636 279.310,384.385 C 281.064,385.134 284.525,387.374 287.000,389.364 C 292.149,393.503 293.954,393.813 296.500,391.000 Z" fill="#fff500" stroke="black" stroke-width="0.5" fill-rule="evenodd"/>
</svg>
