<?xml version='1.0' encoding='UTF-8'?>
<svg version="1.1" xmlns="http://www.w3.org/2000/svg" width="1000" height="600" viewBox="0 0 1000 600">
  <path d="M 400.883,339.369 C 402.164,338.472 403.884,336.110 404.706,334.119 C 405.528,332.129 407.832,327.800 409.827,324.500 C 413.424,318.549 413.457,318.393 413.829,305.500 C 414.153,294.287 413.915,291.645 412.102,286.282 C 409.666,279.075 409.306,268.273 411.366,264.200 C 412.117,262.715 413.241,258.000 413.864,253.723 C 414.487,249.445 415.672,244.328 416.498,242.351 C 418.563,237.409 418.379,231.054 416.022,225.859 C 413.715,220.775 413.442,212.632 415.458,209.000 C 416.709,206.746 416.592,206.033 414.264,201.750 C 410.360,194.567 409.299,195.482 408.467,206.750 C 408.064,212.216 406.928,218.593 405.883,221.264 C 404.857,223.884 403.576,229.734 403.036,234.264 C 402.496,238.794 401.354,244.750 400.498,247.500 C 399.256,251.491 398.975,257.143 399.106,275.500 L 399.269,298.500 L 396.044,309.000 C 392.355,321.010 392.140,330.530 395.406,337.250 C 397.479,341.516 397.697,341.601 400.883,339.369 Z" fill="#2bff00" stroke="black" stroke-width="0.5" fill-rule="evenodd"/>
</svg>
