<?xml version='1.0' encoding='UTF-8'?>
<svg version="1.1" xmlns="http://www.w3.org/2000/svg" width="1000" height="600" viewBox="0 0 1000 600">
  <path d="M 440.682,171.250 C 440.379,170.287 439.447,167.700 438.610,165.500 C 437.773,163.300 437.068,158.901 437.044,155.725 C 437.020,152.549 436.100,147.389 435.000,144.260 C 432.534,137.244 432.534,135.624 434.995,130.201 C 437.309,125.102 436.891,124.980 449.798,134.524 C 454.497,137.999 459.816,141.118 461.619,141.456 C 463.421,141.794 466.762,143.630 469.043,145.536 C 471.323,147.441 473.851,149.000 474.660,149.000 C 477.045,149.000 480.000,147.045 480.000,145.468 C 480.000,142.670 472.564,128.786 468.737,124.438 C 461.981,116.764 446.101,105.597 439.000,103.528 C 434.893,102.332 429.261,98.039 428.043,95.177 C 427.417,93.705 425.743,91.647 424.322,90.605 C 421.753,88.720 421.714,88.725 416.347,91.605 C 408.213,95.971 403.884,100.854 403.263,106.360 C 402.804,110.428 403.070,111.224 405.798,113.952 C 407.475,115.629 409.668,117.017 410.673,117.038 C 412.716,117.080 417.312,123.128 420.599,130.097 C 421.791,132.625 423.099,138.025 423.506,142.097 C 424.111,148.147 425.168,151.328 429.291,159.500 C 435.105,171.025 436.565,173.000 439.272,173.000 C 440.683,173.000 441.079,172.509 440.682,171.250 Z" fill="#fff500" stroke="black" stroke-width="0.5" fill-rule="evenodd"/>
</svg>
