<?xml version='1.0' encoding='UTF-8'?>
<svg version="1.1" xmlns="http://www.w3.org/2000/svg" width="1000" height="600" viewBox="0 0 1000 600">
  <path d="M 532.632,267.944 C 533.805,267.501 536.090,265.195 537.711,262.820 C 539.332,260.444 541.860,256.750 543.329,254.610 C 546.171,250.472 546.809,245.847 544.750,244.314 C 544.062,243.803 540.896,242.594 537.713,241.629 C 534.531,240.664 528.098,238.114 523.419,235.963 L 514.912,232.051 L 504.936,236.026 C 499.449,238.211 493.862,240.000 492.520,240.000 C 490.046,240.000 473.983,236.255 464.081,233.370 C 461.100,232.502 452.910,231.188 445.881,230.451 C 438.851,229.713 431.281,228.565 429.058,227.899 C 425.639,226.875 424.439,226.946 421.259,228.360 C 419.191,229.279 414.575,230.887 411.000,231.933 C 395.148,236.574 381.011,243.591 382.538,246.062 C 383.558,247.712 389.715,247.073 397.597,244.500 C 402.873,242.778 407.471,242.003 412.378,242.008 C 422.078,242.019 436.748,243.782 439.359,245.250 C 440.669,245.986 448.488,246.700 459.500,247.089 C 478.879,247.772 480.429,248.141 491.551,254.724 C 494.329,256.368 498.379,258.283 500.551,258.980 C 502.723,259.676 507.706,262.172 511.625,264.525 C 515.544,266.879 519.594,269.031 520.625,269.308 C 522.786,269.887 529.509,269.124 532.632,267.944 Z" fill="#2bff00" stroke="black" stroke-width="0.5" fill-rule="evenodd"/>
</svg>
