<?xml version='1.0' encoding='UTF-8'?>
<svg version="1.1" xmlns="http://www.w3.org/2000/svg" width="1000" height="600" viewBox="0 0 1000 600">
  <path d="M 364.750,400.369 C 369.741,399.821 370.995,399.221 374.250,395.827 C 377.230,392.719 378.000,391.141 378.000,388.142 C 378.000,379.669 380.216,372.407 386.283,361.000 C 391.034,352.065 393.885,348.050 399.063,343.000 C 407.391,334.877 409.315,331.606 411.903,321.177 C 415.800,305.471 426.507,294.622 441.620,291.067 C 447.261,289.740 453.532,284.479 452.146,282.236 C 451.530,281.239 450.441,281.264 446.801,282.359 C 443.476,283.360 434.955,283.774 415.534,283.877 C 389.169,284.017 379.402,285.015 373.618,288.159 C 372.583,288.722 370.015,289.789 367.911,290.531 C 365.807,291.274 360.592,294.239 356.321,297.121 C 352.049,300.003 344.988,303.843 340.628,305.655 C 335.432,307.813 330.772,310.684 327.101,313.987 C 324.020,316.759 317.208,322.565 311.962,326.890 C 296.527,339.617 294.273,343.985 295.405,358.972 C 295.932,365.937 296.704,368.782 299.746,374.972 C 304.110,383.849 310.852,393.088 314.154,394.715 C 323.496,399.317 327.012,400.264 337.500,401.001 C 348.265,401.757 353.130,401.644 364.750,400.369 Z" fill="#bdff00" stroke="black" stroke-width="0.5" fill-rule="evenodd"/>
</svg>
