<?xml version='1.0' encoding='UTF-8'?>
<svg version="1.1" xmlns="http://www.w3.org/2000/svg" width="1000" height="600" viewBox="0 0 1000 600">
  <path d="M 587.046,276.250 L 591.015,272.500 L 591.576,259.000 C 591.948,250.051 592.744,243.646 593.939,240.000 C 594.930,236.975 596.301,231.825 596.985,228.556 C 597.670,225.287 599.771,218.987 601.655,214.556 C 604.590,207.650 605.051,205.501 604.878,199.500 C 604.767,195.650 605.196,189.575 605.831,186.000 C 607.262,177.942 607.336,161.748 605.964,156.810 C 604.387,151.134 598.945,147.487 586.843,143.996 C 573.192,140.058 570.692,140.108 566.400,144.400 L 563.000,147.800 L 562.864,162.150 C 562.369,214.114 562.374,214.280 564.500,218.000 C 567.318,222.931 567.096,238.931 564.092,247.478 C 561.876,253.784 561.558,258.764 562.923,265.825 C 563.560,269.121 564.956,271.323 568.788,275.075 C 573.349,279.542 574.248,280.000 578.447,280.000 C 582.425,280.000 583.636,279.472 587.046,276.250 Z" fill="#76ff00" stroke="black" stroke-width="0.5" fill-rule="evenodd"/>
</svg>
