<?xml version='1.0' encoding='UTF-8'?>
<svg version="1.1" xmlns="http://www.w3.org/2000/svg" width="1000" height="600" viewBox="0 0 1000 600">
  <path d="M 727.000,398.918 C 727.000,398.323 725.481,395.961 723.625,393.668 C 721.768,391.376 719.456,387.925 718.488,386.000 C 716.266,381.585 711.128,375.000 709.905,375.000 C 709.395,375.000 706.983,374.062 704.543,372.915 C 701.881,371.664 699.283,371.093 698.043,371.486 C 694.000,372.770 691.566,381.452 693.984,385.970 C 694.638,387.192 696.627,388.036 699.921,388.489 C 703.388,388.966 707.094,390.614 712.275,393.981 C 716.346,396.626 720.536,399.011 721.588,399.279 C 725.012,400.154 727.000,400.022 727.000,398.918 Z" fill="#ff1c00" stroke="black" stroke-width="0.5" fill-rule="evenodd"/>
</svg>
