<?xml version='1.0' encoding='UTF-8'?>
<svg version="1.1" xmlns="http://www.w3.org/2000/svg" width="1000" height="600" viewBox="0 0 1000 600">
  <path d="M 297.212,392.291 C 301.724,387.825 303.245,386.845 304.191,387.791 C 308.685,392.285 325.099,384.016 331.209,374.180 C 333.214,370.954 333.490,369.236 333.448,360.248 L 333.401,349.995 L 329.623,346.126 C 327.224,343.669 325.501,340.725 324.902,338.061 C 324.384,335.753 322.956,332.503 321.730,330.839 C 319.012,327.152 310.827,321.000 308.639,321.000 C 305.861,321.000 303.691,316.460 304.474,312.288 C 305.593,306.322 316.599,287.641 321.852,282.793 C 324.409,280.432 331.353,276.025 337.283,273.000 C 349.411,266.813 361.341,258.524 360.735,256.705 C 359.922,254.260 356.709,254.948 348.052,259.419 C 343.174,261.939 338.555,264.000 337.788,264.000 C 331.856,264.000 288.865,290.732 276.806,301.919 C 265.813,312.118 263.238,318.264 266.415,326.730 C 267.265,328.995 268.050,336.286 268.383,345.000 C 268.991,360.903 271.156,369.466 277.984,382.977 C 280.659,388.269 289.030,397.945 290.971,397.989 C 291.230,397.995 294.038,395.431 297.212,392.291 Z" fill="#fff500" stroke="black" stroke-width="0.5" fill-rule="evenodd"/>
</svg>
