<?xml version='1.0' encoding='UTF-8'?>
<svg version="1.1" xmlns="http://www.w3.org/2000/svg" width="1000" height="600" viewBox="0 0 1000 600">
  <path d="M 549.000,191.507 C 551.478,189.416 556.702,187.028 563.283,184.978 C 567.812,183.568 572.590,180.729 580.881,174.524 C 587.155,169.829 594.004,165.538 596.143,164.962 C 600.720,163.729 608.589,158.637 610.004,155.992 C 611.793,152.649 611.147,146.496 608.616,142.766 C 606.754,140.022 606.147,137.592 605.849,131.677 C 605.564,126.038 604.941,123.386 603.410,121.301 C 601.027,118.055 591.074,112.424 586.056,111.483 C 581.469,110.622 573.776,106.651 567.461,101.883 C 563.393,98.811 561.444,98.000 558.137,98.000 C 550.941,98.000 542.342,102.753 532.274,112.294 C 526.340,117.918 520.888,122.039 516.372,124.316 C 512.592,126.221 508.676,128.692 507.669,129.808 C 506.662,130.924 504.983,135.172 503.939,139.248 C 502.895,143.324 501.412,148.198 500.643,150.080 C 496.665,159.819 497.934,171.707 503.623,178.005 C 509.307,184.296 523.619,194.092 529.813,195.931 C 535.328,197.568 535.526,197.555 541.462,195.185 C 544.783,193.858 548.175,192.203 549.000,191.507 Z" fill="#ffae00" stroke="black" stroke-width="0.5" fill-rule="evenodd"/>
</svg>
