<?xml version='1.0' encoding='UTF-8'?>
<svg version="1.1" xmlns="http://www.w3.org/2000/svg" width="1000" height="600" viewBox="0 0 1000 600">
  <path d="M 678.238,305.857 C 682.943,303.382 680.952,294.258 674.871,290.418 C 672.702,289.049 669.256,286.447 667.213,284.635 C 657.664,276.165 643.776,268.914 632.744,266.640 C 628.478,265.761 621.160,263.457 616.482,261.521 C 607.573,257.833 601.438,257.133 593.720,258.925 C 591.095,259.535 588.344,259.368 584.720,258.380 C 579.611,256.988 572.187,256.810 545.934,257.450 C 533.068,257.763 528.397,259.230 524.980,264.028 C 522.645,267.307 522.479,270.092 524.398,273.802 C 526.508,277.884 528.831,279.592 536.998,283.067 L 544.457,286.241 L 551.978,284.181 C 562.754,281.230 565.700,281.021 583.000,281.982 C 598.707,282.855 602.554,283.745 612.875,288.896 C 614.869,289.891 618.544,291.204 621.042,291.814 C 623.539,292.425 629.164,294.592 633.542,296.632 C 637.919,298.671 646.225,302.046 652.000,304.132 C 661.552,307.583 663.132,307.873 669.500,307.348 C 673.350,307.031 677.282,306.360 678.238,305.857 Z" fill="#76ff00" stroke="black" stroke-width="0.5" fill-rule="evenodd"/>
</svg>
