<?xml version='1.0' encoding='UTF-8'?>
<svg version="1.1" xmlns="http://www.w3.org/2000/svg" width="1000" height="600" viewBox="0 0 1000 600">
  <path d="M 436.751,274.348 C 439.202,272.339 442.519,268.886 444.121,266.674 L 447.035,262.652 L 446.903,244.456 L 446.771,226.260 L 451.886,216.428 L 457.000,206.595 L 457.011,190.548 C 457.025,170.292 457.371,168.360 462.112,162.097 C 466.836,155.855 467.064,152.529 463.290,144.955 C 458.274,134.889 453.383,131.430 430.133,121.510 C 425.531,119.546 420.966,118.194 419.988,118.504 C 417.137,119.409 409.136,128.565 408.489,131.664 C 408.164,133.224 406.916,136.975 405.717,140.000 C 402.797,147.366 402.661,165.547 405.486,170.987 C 406.702,173.329 407.530,177.961 408.006,185.092 C 408.462,191.919 409.300,196.744 410.352,198.605 C 415.575,207.850 417.341,216.625 414.898,221.190 C 413.312,224.155 413.658,233.439 415.488,236.976 C 416.348,238.639 417.459,244.304 417.956,249.564 C 418.454,254.824 419.329,259.692 419.901,260.381 C 420.474,261.071 421.820,264.455 422.892,267.902 C 426.311,278.886 429.438,280.340 436.751,274.348 Z" fill="#76ff00" stroke="black" stroke-width="0.5" fill-rule="evenodd"/>
</svg>
