<?xml version='1.0' encoding='UTF-8'?>
<svg version="1.1" xmlns="http://www.w3.org/2000/svg" width="1000" height="600" viewBox="0 0 1000 600">
  <path d="M 699.357,326.591 L 702.215,324.253 L 698.120,315.877 C 692.775,304.945 683.414,290.051 679.000,285.457 C 677.075,283.453 671.675,279.888 667.000,277.535 C 662.325,275.181 654.441,271.146 649.480,268.567 L 640.461,263.878 L 627.980,265.076 C 621.116,265.734 614.375,266.352 613.000,266.449 C 611.625,266.546 607.928,267.188 604.784,267.876 C 599.911,268.943 598.217,268.890 593.284,267.516 C 581.700,264.289 577.317,263.849 559.921,264.172 C 545.640,264.436 541.846,264.804 540.353,266.066 C 539.334,266.928 535.465,269.092 531.755,270.877 C 527.646,272.853 523.975,275.478 522.361,277.593 L 519.713,281.065 L 522.106,283.619 C 523.423,285.023 529.000,288.374 534.500,291.065 C 540.000,293.756 546.108,296.946 548.072,298.154 C 550.037,299.362 552.346,300.081 553.204,299.752 C 554.062,299.423 555.301,296.916 555.957,294.181 C 557.308,288.547 560.124,285.398 565.083,283.976 C 570.382,282.456 590.831,282.789 595.500,284.471 C 597.700,285.264 602.200,285.936 605.500,285.966 C 609.782,286.004 613.075,286.759 617.000,288.604 C 620.025,290.025 626.325,292.547 631.000,294.207 C 644.503,299.004 647.981,301.187 655.648,309.678 C 663.900,318.817 671.221,323.067 680.000,323.813 C 683.519,324.112 686.754,325.131 688.982,326.640 C 693.324,329.582 695.714,329.571 699.357,326.591 Z" fill="#76ff00" stroke="black" stroke-width="0.5" fill-rule="evenodd"/>
</svg>
