<?xml version='1.0' encoding='UTF-8'?>
<svg version="1.1" xmlns="http://www.w3.org/2000/svg" width="1000" height="600" viewBox="0 0 1000 600">
  <path d="M 713.987,388.750 C 717.156,386.413 721.117,383.756 722.789,382.846 C 724.461,381.936 726.567,380.065 727.469,378.688 C 728.956,376.419 728.970,375.684 727.622,370.842 C 726.803,367.904 725.827,363.025 725.451,360.000 C 722.919,339.615 705.577,307.988 688.438,292.500 C 675.268,280.599 672.174,277.035 670.009,271.272 C 666.662,262.363 666.388,262.127 659.552,262.223 C 655.276,262.283 652.102,261.660 648.735,260.100 C 645.275,258.498 640.891,257.668 632.735,257.072 C 622.353,256.313 620.703,255.893 611.000,251.529 C 598.142,245.746 591.671,245.100 565.574,246.995 C 551.656,248.005 547.452,248.655 544.935,250.186 C 543.197,251.243 541.969,252.303 542.207,252.541 C 542.795,253.128 557.101,254.913 564.500,255.321 C 567.800,255.504 573.200,256.153 576.500,256.764 C 579.800,257.376 588.846,258.356 596.603,258.942 C 604.360,259.528 612.910,260.693 615.603,261.530 C 618.296,262.368 624.630,263.925 629.677,264.989 C 641.232,267.426 648.793,270.492 659.610,277.125 C 672.708,285.158 676.264,289.936 680.433,305.111 C 681.778,310.005 682.968,311.664 689.738,318.085 C 701.504,329.247 705.668,334.564 707.983,341.387 L 710.057,347.500 L 707.918,349.250 C 705.629,351.123 702.332,351.497 700.174,350.129 C 699.408,349.643 697.297,349.842 695.174,350.600 C 690.289,352.345 681.087,352.302 672.553,350.494 C 665.790,349.061 665.544,349.079 663.303,351.185 C 658.964,355.261 660.591,364.213 667.652,375.130 C 672.632,382.827 674.538,383.984 682.315,384.031 C 686.037,384.054 688.629,384.758 691.500,386.526 C 693.700,387.881 696.893,388.992 698.595,388.995 C 700.415,388.998 702.436,389.824 703.500,391.000 C 706.075,393.845 707.492,393.541 713.987,388.750 Z" fill="#fff500" stroke="black" stroke-width="0.5" fill-rule="evenodd"/>
</svg>
