<?xml version='1.0' encoding='UTF-8'?>
<svg version="1.1" xmlns="http://www.w3.org/2000/svg" width="1000" height="600" viewBox="0 0 1000 600">
  <path d="M 576.087,240.248 C 580.151,236.392 580.812,235.146 581.889,229.297 C 582.558,225.667 583.720,221.509 584.471,220.057 C 585.221,218.605 586.321,213.930 586.913,209.667 C 587.506,205.405 588.620,200.698 589.389,199.209 C 590.158,197.719 591.111,192.900 591.506,188.500 C 592.338,179.239 594.699,171.956 601.987,156.160 L 607.220,144.819 L 606.841,134.587 C 606.561,127.025 606.007,123.660 604.717,121.691 C 601.768,117.190 598.236,115.534 591.546,115.516 C 586.011,115.502 584.206,116.121 571.815,122.291 C 559.654,128.347 557.428,129.870 551.275,136.347 C 547.480,140.342 541.831,147.874 538.722,153.084 C 531.397,165.361 530.644,170.209 534.399,180.924 C 536.482,186.871 537.000,190.201 537.000,197.654 C 537.000,209.219 538.609,213.724 543.937,217.073 C 546.383,218.610 548.954,221.598 550.952,225.224 C 552.687,228.372 554.509,231.196 555.000,231.500 C 556.684,232.541 561.979,241.069 562.628,243.785 C 562.985,245.278 563.456,246.822 563.676,247.216 C 564.430,248.567 571.503,244.596 576.087,240.248 Z" fill="#bdff00" stroke="black" stroke-width="0.5" fill-rule="evenodd"/>
</svg>
