<?xml version='1.0' encoding='UTF-8'?>
<svg version="1.1" xmlns="http://www.w3.org/2000/svg" width="1000" height="600" viewBox="0 0 1000 600">
  <path d="M 449.733,411.731 L 461.966,411.190 L 472.021,405.345 C 493.883,392.636 495.240,391.203 493.130,383.045 C 492.271,379.724 490.682,377.329 487.227,374.151 C 484.627,371.758 479.837,367.331 476.582,364.312 C 473.326,361.293 469.695,358.454 468.511,358.004 C 467.327,357.554 461.798,357.544 456.224,357.982 C 447.086,358.701 445.174,359.221 436.794,363.276 C 431.682,365.750 425.866,368.060 423.868,368.410 C 418.464,369.357 412.331,374.197 411.478,378.189 C 411.089,380.010 409.697,384.074 408.385,387.220 C 405.449,394.260 405.274,400.808 407.932,404.186 C 408.994,405.537 412.932,407.927 416.682,409.498 C 420.432,411.069 425.025,413.152 426.890,414.126 C 430.141,415.825 430.428,415.824 433.890,414.085 C 436.538,412.755 440.759,412.128 449.733,411.731 Z" fill="#00ff1a" stroke="black" stroke-width="0.5" fill-rule="evenodd"/>
</svg>
