<?xml version='1.0' encoding='UTF-8'?>
<svg version="1.1" xmlns="http://www.w3.org/2000/svg" width="1000" height="600" viewBox="0 0 1000 600">
  <path d="M 612.698,288.626 C 614.417,287.010 610.929,274.706 605.741,264.088 C 602.559,257.574 599.559,253.481 592.540,246.079 C 583.028,236.048 578.408,230.505 573.301,223.000 C 566.652,213.228 561.761,210.648 558.557,215.223 C 555.810,219.145 556.595,224.947 560.837,232.063 C 562.947,235.603 565.534,240.669 566.587,243.320 C 567.639,245.971 572.010,252.270 576.300,257.317 C 580.589,262.364 586.172,270.029 588.705,274.349 C 593.989,283.363 598.992,288.650 603.419,289.900 C 606.871,290.875 610.893,290.322 612.698,288.626 Z" fill="#00ff1a" stroke="black" stroke-width="0.5" fill-rule="evenodd"/>
</svg>
