<?xml version='1.0' encoding='UTF-8'?>
<svg version="1.1" xmlns="http://www.w3.org/2000/svg" width="1000" height="600" viewBox="0 0 1000 600">
  <path d="M 630.013,257.492 C 638.219,252.311 643.968,240.515 644.874,227.000 C 645.402,219.111 645.920,216.952 647.930,214.268 C 650.047,211.440 650.434,209.563 651.021,199.268 C 651.390,192.795 652.211,186.233 652.846,184.685 C 656.911,174.770 648.927,154.533 635.037,139.539 C 630.605,134.756 624.846,128.362 622.240,125.330 C 619.633,122.298 616.285,119.183 614.800,118.409 C 611.210,116.536 605.505,116.623 602.494,118.596 C 598.821,121.002 587.486,136.743 584.162,144.052 C 581.281,150.386 577.708,154.432 569.317,160.858 C 564.702,164.393 563.428,167.316 562.421,176.690 C 561.818,182.300 562.053,183.517 564.937,189.690 C 566.688,193.435 569.330,197.780 570.810,199.344 C 573.563,202.255 582.406,207.174 589.193,209.568 C 591.283,210.305 594.521,212.128 596.389,213.619 C 599.131,215.807 599.910,217.261 600.427,221.161 C 600.779,223.818 601.885,227.907 602.883,230.246 C 603.881,232.586 605.004,236.150 605.379,238.167 C 606.196,242.571 614.585,255.742 618.568,258.875 C 621.849,261.456 624.180,261.174 630.013,257.492 Z" fill="#00ff66" stroke="black" stroke-width="0.5" fill-rule="evenodd"/>
</svg>
