<?xml version='1.0' encoding='UTF-8'?>
<svg version="1.1" xmlns="http://www.w3.org/2000/svg" width="1000" height="600" viewBox="0 0 1000 600">
  <path d="M 364.768,313.452 C 369.563,311.449 372.700,308.468 375.240,303.500 C 376.365,301.300 379.014,297.532 381.127,295.127 C 387.056,288.378 391.987,280.457 395.456,272.107 C 400.150,260.807 405.774,252.783 409.810,251.626 C 411.691,251.086 414.811,248.750 417.056,246.199 C 420.634,242.134 420.842,241.605 419.305,240.481 C 417.767,239.356 417.985,238.794 421.670,234.371 C 423.903,231.692 427.225,226.800 429.051,223.500 C 430.878,220.200 435.214,214.454 438.686,210.731 C 442.159,207.008 445.000,203.149 445.000,202.156 C 445.000,200.229 441.905,196.974 438.316,195.125 C 434.589,193.206 428.584,193.861 421.830,196.923 C 418.285,198.530 412.498,200.594 408.969,201.508 C 405.441,202.422 398.492,205.346 393.527,208.005 C 382.138,214.105 377.347,215.440 372.000,214.000 L 368.000,212.923 L 367.750,201.711 C 367.338,183.222 367.867,172.874 369.588,165.742 C 371.374,158.343 370.939,153.365 368.218,150.051 C 366.395,147.830 366.550,147.814 356.775,151.261 C 352.769,152.674 346.572,159.900 344.515,165.559 C 343.528,168.276 341.192,174.155 339.325,178.623 C 337.457,183.090 335.481,189.615 334.931,193.123 C 333.777,200.497 331.647,207.411 328.347,214.500 C 326.166,219.185 326.020,220.698 326.028,238.500 L 326.037,257.500 L 329.528,265.977 C 331.534,270.848 333.669,278.494 334.548,283.954 C 335.522,290.005 336.968,294.976 338.531,297.644 C 341.093,302.016 348.490,309.000 350.558,309.000 C 351.216,309.000 352.373,309.744 353.127,310.653 C 354.201,311.947 359.156,314.735 360.782,314.961 C 360.937,314.982 362.731,314.304 364.768,313.452 Z" fill="#00ffac" stroke="black" stroke-width="0.5" fill-rule="evenodd"/>
</svg>
