<?xml version='1.0' encoding='UTF-8'?>
<svg version="1.1" xmlns="http://www.w3.org/2000/svg" width="1000" height="600" viewBox="0 0 1000 600">
  <path d="M 419.500,451.537 C 422.886,450.182 428.321,447.666 431.578,445.945 C 436.933,443.117 438.075,442.876 443.500,443.434 C 460.893,445.222 461.806,445.225 466.942,443.519 C 469.760,442.583 474.638,439.821 477.783,437.382 C 480.927,434.942 486.046,431.170 489.157,428.999 C 493.387,426.047 496.687,422.334 502.238,414.276 C 513.390,398.089 514.831,394.461 515.930,379.804 C 516.548,371.561 517.537,365.764 518.926,362.239 C 522.983,351.948 521.419,343.629 513.604,333.939 C 509.094,328.346 507.104,326.843 498.456,322.500 C 492.980,319.750 485.800,315.660 482.500,313.412 C 470.128,304.983 463.192,304.815 450.211,312.632 C 447.045,314.539 443.290,315.990 441.559,315.978 C 437.238,315.947 431.289,313.010 425.637,308.119 C 420.631,303.786 410.252,298.000 407.486,298.000 C 405.053,298.000 396.769,306.282 389.122,316.360 C 376.840,332.548 369.770,337.464 359.266,337.121 C 354.811,336.976 353.164,337.475 348.742,340.311 C 341.559,344.919 336.327,350.989 335.053,356.193 C 334.473,358.562 333.516,361.974 332.925,363.776 C 331.967,366.699 332.261,367.879 335.653,374.745 C 340.074,383.691 340.322,387.508 336.985,395.238 C 334.356,401.330 333.797,413.995 335.884,420.211 C 337.408,424.753 344.486,430.909 352.046,434.268 C 355.046,435.601 361.532,439.326 366.459,442.545 L 375.419,448.399 L 388.959,449.303 C 397.123,449.848 404.486,450.908 407.500,451.971 C 410.250,452.940 412.690,453.794 412.922,453.867 C 413.153,453.940 416.114,452.892 419.500,451.537 Z" fill="#00ffac" stroke="black" stroke-width="0.5" fill-rule="evenodd"/>
</svg>
