<?xml version='1.0' encoding='UTF-8'?>
<svg version="1.1" xmlns="http://www.w3.org/2000/svg" width="1000" height="600" viewBox="0 0 1000 600">
  <path d="M 380.980,258.750 C 388.337,253.697 396.123,238.278 399.481,222.114 C 401.011,214.750 403.341,212.263 411.721,209.051 C 418.701,206.376 427.161,201.534 429.710,198.756 C 430.849,197.515 433.222,193.800 434.983,190.500 C 437.953,184.936 438.143,184.010 437.586,177.754 C 436.719,167.999 434.702,163.786 428.663,159.119 C 421.020,153.212 417.355,149.032 415.409,144.000 C 413.472,138.992 412.072,136.761 404.276,126.259 C 398.299,118.207 396.639,116.979 391.816,117.045 C 386.088,117.123 383.370,119.150 371.275,132.366 C 357.071,147.887 355.459,150.116 350.559,161.000 C 345.968,171.197 344.897,179.423 347.383,185.374 C 348.431,187.884 349.015,192.278 349.044,197.872 C 349.088,206.534 350.540,212.682 353.283,215.816 C 354.261,216.934 354.932,220.695 355.278,227.000 C 355.721,235.058 356.288,237.486 359.012,243.000 C 363.503,252.089 365.635,254.813 370.849,258.119 C 376.316,261.586 376.806,261.617 380.980,258.750 Z" fill="#00ff66" stroke="black" stroke-width="0.5" fill-rule="evenodd"/>
</svg>
