<?xml version='1.0' encoding='UTF-8'?>
<svg version="1.1" xmlns="http://www.w3.org/2000/svg" width="1000" height="600" viewBox="0 0 1000 600">
  <path d="M 645.000,311.959 C 646.375,310.886 649.118,309.133 651.095,308.063 C 655.136,305.876 660.154,300.537 662.584,295.838 C 663.475,294.114 664.860,288.631 665.662,283.652 C 666.468,278.641 668.654,270.890 670.559,266.288 L 674.000,257.977 L 674.000,239.432 L 674.000,220.887 L 670.555,212.564 C 668.660,207.987 666.367,200.278 665.459,195.433 C 664.551,190.588 662.689,184.121 661.321,181.062 C 659.953,178.003 657.490,171.820 655.849,167.323 C 653.428,160.691 651.940,158.282 647.975,154.573 C 644.807,151.610 642.186,150.000 640.529,150.000 C 639.123,150.000 637.104,149.457 636.042,148.794 C 634.454,147.802 633.751,147.915 632.075,149.432 C 628.975,152.237 628.515,157.162 630.590,165.306 C 632.104,171.243 632.388,175.886 632.219,191.889 C 632.096,203.501 631.598,211.779 630.977,212.528 C 627.777,216.384 618.231,214.614 606.762,208.038 C 602.119,205.376 595.511,202.478 592.076,201.598 C 588.641,200.718 582.756,198.648 578.998,196.999 C 571.829,193.852 565.488,193.166 561.684,195.125 C 558.162,196.939 555.000,200.216 555.000,202.053 C 555.000,202.990 557.848,206.849 561.329,210.628 C 564.810,214.408 569.337,220.381 571.387,223.902 C 573.438,227.424 576.759,232.310 578.768,234.762 C 582.110,238.840 582.275,239.326 580.711,240.469 C 579.153,241.609 579.359,242.126 583.024,246.290 C 585.255,248.825 588.604,251.374 590.543,252.014 C 594.726,253.395 600.810,261.739 604.147,270.674 C 606.986,278.274 613.354,288.845 618.997,295.328 C 621.474,298.173 624.345,302.163 625.379,304.197 C 627.547,308.463 630.252,311.208 634.500,313.452 C 637.943,315.271 641.382,314.782 645.000,311.959 Z" fill="#00ffac" stroke="black" stroke-width="0.5" fill-rule="evenodd"/>
</svg>
