<?xml version='1.0' encoding='UTF-8'?>
<svg version="1.1" xmlns="http://www.w3.org/2000/svg" width="1000" height="600" viewBox="0 0 1000 600">
  <path d="M 360.999,324.500 C 363.309,323.042 365.858,320.230 367.116,317.750 C 368.303,315.413 370.612,311.546 372.248,309.158 C 373.884,306.771 377.155,300.696 379.517,295.658 C 381.880,290.621 384.880,284.925 386.185,283.000 C 391.054,275.816 393.854,270.312 395.474,264.737 C 396.951,259.655 402.950,250.385 405.969,248.519 C 406.552,248.159 407.899,246.207 408.963,244.182 C 410.027,242.157 416.770,234.427 423.949,227.004 C 432.820,217.830 437.000,212.786 437.000,211.256 C 437.000,210.019 435.346,207.175 433.325,204.938 C 425.390,196.155 419.854,195.792 404.911,203.073 C 399.185,205.863 391.931,210.153 388.792,212.607 C 381.174,218.560 377.359,220.003 369.282,219.986 C 357.283,219.962 358.000,220.920 358.000,204.918 C 358.000,195.572 358.465,189.677 359.430,186.785 C 360.217,184.428 361.188,180.704 361.587,178.509 C 361.986,176.314 364.042,170.757 366.156,166.160 C 369.787,158.264 371.166,151.000 369.035,151.000 C 368.505,151.000 367.578,151.920 366.976,153.044 C 366.375,154.169 362.829,157.046 359.098,159.437 C 355.367,161.829 351.418,164.925 350.323,166.316 C 349.139,167.821 346.809,169.133 344.572,169.552 C 339.074,170.584 336.304,173.580 333.066,182.000 C 331.479,186.125 329.005,192.294 327.568,195.709 C 325.186,201.366 324.903,203.496 324.381,219.709 C 324.012,231.146 323.170,240.357 322.022,245.500 C 318.723,260.286 318.716,260.529 321.398,269.810 C 322.780,274.589 324.377,281.996 324.947,286.268 C 326.307,296.450 329.644,302.901 337.860,311.235 C 341.512,314.939 346.402,320.001 348.727,322.485 C 353.580,327.669 355.484,327.982 360.999,324.500 Z" fill="#00ffac" stroke="black" stroke-width="0.5" fill-rule="evenodd"/>
</svg>
