<?xml version='1.0' encoding='UTF-8'?>
<svg version="1.1" xmlns="http://www.w3.org/2000/svg" width="1000" height="600" viewBox="0 0 1000 600">
  <path d="M 396.138,500.361 C 399.087,498.360 404.650,493.700 408.500,490.006 C 418.179,480.718 421.322,479.315 435.126,478.116 C 441.405,477.571 447.710,476.680 449.139,476.137 C 454.668,474.035 465.379,463.188 470.750,454.252 C 473.637,449.448 476.000,444.550 476.000,443.368 C 476.000,442.186 475.110,439.257 474.022,436.859 C 469.794,427.542 472.211,421.558 481.928,417.279 C 484.992,415.929 488.175,414.225 489.000,413.492 C 491.692,411.099 501.325,407.856 509.846,406.474 C 514.477,405.723 518.705,404.476 519.346,403.671 C 521.510,400.952 533.876,393.894 537.506,393.305 C 540.689,392.789 541.572,393.150 544.813,396.294 C 546.841,398.260 551.218,401.042 554.539,402.474 L 560.578,405.078 L 568.039,401.672 C 573.226,399.304 576.928,396.735 580.183,393.247 C 585.520,387.528 586.902,382.954 585.104,376.954 C 583.825,372.684 581.585,370.804 572.093,366.033 C 564.341,362.137 562.535,362.352 554.095,368.176 C 547.005,373.068 542.174,373.670 537.338,370.262 C 535.777,369.162 533.375,367.931 532.000,367.527 C 530.625,367.123 528.511,366.169 527.302,365.407 C 525.317,364.156 524.443,364.377 518.302,367.678 C 503.660,375.550 502.542,375.961 491.500,377.542 C 476.362,379.708 470.153,382.902 456.127,395.734 C 448.302,402.893 447.144,403.185 431.313,402.000 C 420.348,401.179 415.666,400.334 408.603,397.901 C 399.935,394.915 399.450,394.861 389.765,395.784 C 382.166,396.509 379.371,397.185 377.904,398.651 C 376.013,400.543 376.016,400.660 378.136,406.936 C 380.096,412.741 381.378,414.384 392.644,425.545 C 405.494,438.274 408.942,443.438 408.972,450.000 C 409.006,457.176 407.141,460.666 397.919,470.695 C 387.233,482.313 379.521,494.014 380.388,497.293 C 381.039,499.754 386.569,504.000 389.124,504.000 C 390.032,504.000 393.189,502.363 396.138,500.361 Z" fill="#ff00bf" stroke="black" stroke-width="0.5" fill-rule="evenodd"/>
</svg>
