<?xml version='1.0' encoding='UTF-8'?>
<svg version="1.1" xmlns="http://www.w3.org/2000/svg" width="1000" height="600" viewBox="0 0 1000 600">
  <path d="M 425.693,344.631 C 431.675,339.100 438.235,335.000 441.103,335.000 C 443.091,335.000 455.594,325.500 456.412,323.368 C 457.989,319.259 465.417,309.559 473.703,300.789 C 485.783,288.003 487.513,282.269 482.012,273.250 C 479.487,269.110 477.149,269.086 469.086,273.115 C 465.658,274.828 458.984,277.294 454.256,278.595 C 447.512,280.450 444.458,281.931 440.080,285.470 C 437.011,287.951 432.557,291.222 430.183,292.740 C 421.134,298.525 417.288,301.852 410.384,309.864 C 402.489,319.027 398.000,326.916 398.000,331.627 C 398.000,335.537 402.366,341.155 409.308,346.179 C 416.464,351.357 418.641,351.151 425.693,344.631 Z" fill="#6500ff" stroke="black" stroke-width="0.5" fill-rule="evenodd"/>
</svg>
