<?xml version='1.0' encoding='UTF-8'?>
<svg version="1.1" xmlns="http://www.w3.org/2000/svg" width="1000" height="600" viewBox="0 0 1000 600">
  <path d="M 480.320,413.489 C 485.720,411.559 491.425,409.315 492.996,408.502 C 494.631,407.657 500.914,406.644 507.677,406.135 C 518.676,405.307 520.057,404.962 527.500,401.176 C 535.029,397.346 536.249,397.048 548.221,396.114 C 560.506,395.155 564.728,394.027 569.500,390.424 C 571.196,389.143 571.500,387.744 571.500,381.207 C 571.500,374.166 571.143,372.790 567.368,365.289 C 561.147,352.926 552.994,341.263 543.417,331.026 C 538.684,325.967 533.992,319.954 532.991,317.664 C 531.990,315.374 530.667,309.285 530.051,304.133 C 529.435,298.982 528.207,293.357 527.321,291.633 C 524.585,286.306 513.340,276.154 509.345,275.405 C 504.028,274.407 493.334,275.551 490.477,277.423 C 489.089,278.332 485.388,279.551 482.252,280.131 C 479.115,280.710 475.344,282.043 473.870,283.092 C 472.397,284.142 470.482,285.000 469.616,285.000 C 468.749,285.000 466.225,285.727 464.005,286.615 C 457.908,289.054 453.277,297.873 451.909,309.653 C 449.396,331.284 446.944,340.753 440.536,353.581 C 438.041,358.575 436.000,363.118 436.000,363.676 C 436.000,364.234 435.079,365.523 433.954,366.542 C 432.828,367.560 430.797,370.604 429.440,373.306 L 426.972,378.219 L 429.191,381.860 C 431.194,385.145 435.952,390.514 453.825,409.652 C 461.785,418.176 465.644,418.735 480.320,413.489 Z" fill="#1e00ff" stroke="black" stroke-width="0.5" fill-rule="evenodd"/>
</svg>
