<?xml version='1.0' encoding='UTF-8'?>
<svg version="1.1" xmlns="http://www.w3.org/2000/svg" width="1000" height="600" viewBox="0 0 1000 600">
  <path d="M 581.710,365.900 C 589.158,357.971 589.337,357.394 589.811,339.846 C 590.218,324.778 590.140,323.991 587.728,318.846 C 584.270,311.472 572.596,297.334 567.072,293.831 C 563.311,291.446 555.137,288.508 540.652,284.335 C 539.635,284.042 536.381,281.609 533.421,278.928 C 523.622,270.055 521.213,268.889 512.675,268.889 C 503.288,268.889 500.727,270.144 494.721,277.684 C 486.102,288.506 485.857,288.910 486.183,291.740 C 486.447,294.043 487.245,294.730 491.000,295.889 C 494.261,296.896 496.336,298.410 498.537,301.389 C 500.908,304.598 502.885,305.951 507.549,307.558 C 515.789,310.396 523.660,314.832 525.537,317.697 C 526.401,319.015 529.446,321.596 532.304,323.431 C 540.238,328.528 549.012,338.430 554.958,349.000 C 563.508,364.198 564.126,364.820 576.710,370.899 C 576.825,370.954 579.075,368.705 581.710,365.900 Z" fill="#00c0ff" stroke="black" stroke-width="0.5" fill-rule="evenodd"/>
</svg>
