<?xml version='1.0' encoding='UTF-8'?>
<svg version="1.1" xmlns="http://www.w3.org/2000/svg" width="1000" height="600" viewBox="0 0 1000 600">
  <path d="M 561.096,350.603 C 577.550,350.494 579.247,350.064 580.573,345.660 C 581.308,343.219 586.511,330.724 588.282,327.149 C 589.268,325.158 589.144,324.574 587.473,323.326 C 582.857,319.881 582.468,319.914 573.511,324.522 C 561.722,330.588 558.424,330.584 553.338,324.500 L 549.576,320.000 L 542.479,320.000 C 538.336,320.000 534.705,320.520 533.755,321.250 C 532.859,321.938 531.450,325.650 530.623,329.500 C 529.795,333.350 528.862,337.400 528.550,338.500 C 528.193,339.756 529.075,342.224 530.920,345.134 C 533.194,348.718 534.725,349.995 537.680,350.770 C 539.781,351.321 542.400,351.532 543.500,351.239 C 544.600,350.946 552.518,350.660 561.096,350.603 Z" fill="#b100ff" stroke="black" stroke-width="0.5" fill-rule="evenodd"/>
</svg>
