<?xml version='1.0' encoding='UTF-8'?>
<svg version="1.1" xmlns="http://www.w3.org/2000/svg" width="1000" height="600" viewBox="0 0 1000 600">
  <path d="M 448.000,348.429 C 449.925,347.473 453.075,345.439 455.000,343.908 C 456.925,342.377 460.750,339.941 463.500,338.493 C 471.385,334.344 475.774,331.561 478.554,328.950 C 482.385,325.351 489.778,313.715 493.710,305.098 C 495.616,300.919 497.811,296.306 498.588,294.846 C 500.384,291.470 500.395,285.852 498.614,281.718 C 497.852,279.948 494.559,275.350 491.296,271.500 C 483.838,262.700 477.686,253.500 473.243,244.500 C 471.342,240.650 468.856,236.487 467.719,235.250 C 464.861,232.140 459.409,232.247 455.000,235.500 C 453.136,236.875 451.230,238.000 450.763,238.000 C 450.296,238.000 447.346,239.913 444.207,242.250 C 441.068,244.588 436.475,247.779 434.000,249.343 C 427.496,253.451 419.344,261.707 415.935,267.639 C 413.733,271.468 412.587,275.418 411.436,283.139 C 409.743,294.492 408.476,297.275 401.086,305.875 C 398.427,308.969 395.659,312.625 394.933,314.000 C 392.974,317.714 392.130,325.798 393.075,331.795 C 393.994,337.622 399.806,348.172 403.394,350.522 C 404.603,351.315 409.172,352.456 413.547,353.057 C 419.067,353.816 423.488,355.183 428.000,357.525 L 434.500,360.900 L 439.500,355.533 C 442.250,352.582 446.075,349.385 448.000,348.429 Z" fill="#1e00ff" stroke="black" stroke-width="0.5" fill-rule="evenodd"/>
</svg>
