<?xml version='1.0' encoding='UTF-8'?>
<svg version="1.1" xmlns="http://www.w3.org/2000/svg" width="1000" height="600" viewBox="0 0 1000 600">
  <path d="M 495.645,328.212 C 498.240,325.840 500.200,322.943 500.889,320.462 C 502.369,315.131 502.374,259.843 500.895,252.948 C 499.409,246.018 495.767,242.046 490.215,241.302 C 484.654,240.556 479.134,243.005 475.122,247.998 C 472.401,251.384 472.245,251.942 473.551,253.628 C 477.577,258.825 479.255,264.658 480.132,276.500 C 480.621,283.100 481.286,290.391 481.611,292.703 C 482.104,296.212 481.689,297.800 479.101,302.324 C 476.736,306.457 476.000,308.966 476.000,312.894 C 476.000,317.449 476.440,318.534 479.798,322.272 C 481.887,324.598 484.372,327.738 485.321,329.250 C 487.699,333.041 490.691,332.740 495.645,328.212 Z" fill="#002dff" stroke="black" stroke-width="0.5" fill-rule="evenodd"/>
</svg>
