<?xml version='1.0' encoding='UTF-8'?>
<svg version="1.1" xmlns="http://www.w3.org/2000/svg" width="1000" height="600" viewBox="0 0 1000 600">
  <path d="M 589.000,380.994 C 591.470,380.291 594.927,377.374 600.745,371.083 L 608.990,362.167 L 604.745,356.952 C 602.410,354.084 599.528,350.295 598.339,348.533 C 595.359,344.112 590.424,340.119 584.500,337.335 C 578.067,334.311 571.555,328.857 555.500,313.046 C 543.611,301.337 542.143,300.210 538.328,299.853 C 532.290,299.287 528.417,300.606 525.955,304.063 C 524.083,306.692 523.845,308.135 524.182,314.800 C 524.537,321.819 525.076,323.495 530.284,333.758 C 544.279,361.332 557.032,375.141 573.500,380.552 C 578.378,382.155 584.321,382.324 589.000,380.994 Z" fill="#6500ff" stroke="black" stroke-width="0.5" fill-rule="evenodd"/>
</svg>
