<?xml version='1.0' encoding='UTF-8'?>
<svg version="1.1" xmlns="http://www.w3.org/2000/svg" width="1000" height="600" viewBox="0 0 1000 600">
  <path d="M 596.500,367.912 C 601.741,366.500 607.780,362.326 609.560,358.884 C 610.495,357.076 610.777,354.649 610.384,351.783 C 609.968,348.750 610.433,345.339 611.916,340.536 L 614.045,333.643 L 611.554,326.071 C 610.184,321.907 608.574,316.250 607.976,313.500 C 606.902,308.562 595.260,284.061 592.558,281.052 C 591.791,280.198 589.626,276.125 587.746,272.000 C 585.849,267.837 582.128,262.053 579.383,259.000 C 576.663,255.975 572.467,251.025 570.059,248.000 C 563.215,239.403 561.214,238.011 555.700,238.005 C 553.061,238.002 549.622,238.661 548.058,239.470 C 544.494,241.313 539.881,247.123 537.292,253.031 C 536.200,255.523 532.296,260.923 528.618,265.031 C 524.939,269.139 520.257,275.200 518.214,278.500 L 514.500,284.500 L 514.540,297.559 L 514.580,310.618 L 518.638,317.059 C 520.869,320.602 523.229,325.127 523.881,327.115 C 525.569,332.263 548.195,354.325 554.690,357.156 C 557.336,358.308 561.596,360.740 564.158,362.558 C 572.164,368.241 586.478,370.611 596.500,367.912 Z" fill="#1e00ff" stroke="black" stroke-width="0.5" fill-rule="evenodd"/>
</svg>
