<?xml version='1.0' encoding='UTF-8'?>
<svg version="1.1" xmlns="http://www.w3.org/2000/svg" width="1000" height="600" viewBox="0 0 1000 600">
  <path d="M 519.760,299.367 C 523.209,298.443 527.670,291.046 528.508,284.862 C 530.066,273.364 534.714,270.428 545.000,274.444 C 546.925,275.196 550.075,276.397 552.000,277.113 C 553.925,277.829 557.865,280.640 560.756,283.359 C 566.506,288.766 576.293,293.998 579.225,293.231 C 580.245,292.964 581.748,291.341 582.566,289.623 C 583.384,287.905 584.710,285.375 585.512,284.000 C 586.314,282.625 586.977,279.181 586.985,276.346 C 586.997,272.142 586.147,269.561 582.376,262.346 C 568.221,235.268 557.582,222.907 547.171,221.441 C 544.602,221.079 541.503,220.157 540.285,219.392 C 537.726,217.784 532.674,217.569 530.079,218.958 C 529.095,219.485 523.527,220.314 517.707,220.802 C 502.082,222.111 498.968,224.840 498.213,237.884 C 497.615,248.204 499.640,271.573 501.446,275.192 C 502.240,276.785 503.177,280.206 503.526,282.794 C 504.623,290.911 505.901,293.663 509.792,296.282 C 513.094,298.504 515.492,299.710 517.000,299.907 C 517.275,299.943 518.517,299.700 519.760,299.367 Z" fill="#00c0ff" stroke="black" stroke-width="0.5" fill-rule="evenodd"/>
</svg>
