<?xml version='1.0' encoding='UTF-8'?>
<svg version="1.1" xmlns="http://www.w3.org/2000/svg" width="1000" height="600" viewBox="0 0 1000 600">
  <path d="M 514.429,330.429 C 515.293,329.564 516.000,328.377 516.000,327.790 C 516.000,327.204 517.851,324.716 520.113,322.262 C 524.089,317.948 524.212,317.612 523.807,312.150 C 523.507,308.107 522.585,305.292 520.564,302.254 C 518.072,298.507 517.822,297.448 518.446,293.254 C 518.835,290.639 519.474,283.325 519.865,277.000 C 520.488,266.917 520.971,264.681 523.788,258.857 C 525.554,255.203 527.000,251.893 527.000,251.501 C 527.000,250.283 521.866,244.588 519.117,242.757 C 513.327,238.900 503.887,241.633 500.299,248.206 C 498.693,251.146 498.466,254.956 498.188,283.662 C 497.979,305.127 498.246,317.201 498.990,319.964 C 500.324,324.918 507.126,332.000 510.549,332.000 C 511.819,332.000 513.564,331.293 514.429,330.429 Z" fill="#002dff" stroke="black" stroke-width="0.5" fill-rule="evenodd"/>
</svg>
