<?xml version='1.0' encoding='UTF-8'?>
<svg version="1.1" xmlns="http://www.w3.org/2000/svg" width="1000" height="600" viewBox="0 0 1000 600">
  <path d="M 374.000,515.441 C 379.813,513.142 383.559,510.210 400.319,494.837 C 407.920,487.866 415.746,481.399 417.712,480.467 C 419.677,479.534 424.709,478.367 428.893,477.873 C 440.797,476.468 443.677,474.965 454.109,464.711 C 459.274,459.634 465.270,453.288 467.434,450.609 C 469.598,447.930 473.133,444.947 475.291,443.981 L 479.214,442.225 L 474.701,438.862 C 469.062,434.661 467.000,431.290 467.000,426.270 C 467.000,421.399 469.715,418.592 476.358,416.593 C 478.972,415.806 484.124,413.357 487.806,411.151 C 491.488,408.945 497.169,406.455 500.431,405.618 L 506.363,404.095 L 510.184,407.548 C 513.120,410.199 514.881,411.000 517.780,411.000 C 523.146,411.000 525.640,408.888 526.420,403.683 C 526.996,399.841 527.859,398.664 533.584,393.907 C 544.502,384.836 546.985,384.709 547.024,393.219 C 547.056,399.970 548.669,406.977 550.713,409.235 C 553.272,412.063 557.743,411.312 569.901,406.010 C 586.305,398.858 588.110,397.785 590.158,393.965 C 592.377,389.828 592.571,382.005 590.551,378.099 C 588.519,374.170 582.915,369.491 576.150,366.076 C 570.622,363.285 569.633,363.137 551.943,362.457 C 536.156,361.851 532.949,361.980 529.672,363.356 C 527.567,364.240 522.103,365.428 517.530,365.996 C 511.415,366.756 506.875,368.111 500.363,371.120 C 495.493,373.369 488.357,375.855 484.505,376.644 C 474.322,378.730 474.318,378.732 468.152,384.310 C 460.122,391.574 456.196,396.558 454.999,401.005 C 454.053,404.517 454.188,405.097 456.479,407.388 C 461.382,412.291 458.373,421.000 451.776,421.000 C 445.989,421.000 439.015,414.896 439.004,409.821 C 438.998,407.093 432.860,401.455 427.824,399.552 L 423.148,397.785 L 417.324,400.553 C 412.146,403.015 409.982,403.389 397.810,403.930 C 385.304,404.486 383.906,404.740 381.645,406.864 C 376.055,412.115 377.394,418.343 386.512,429.500 C 397.259,442.650 397.271,447.143 386.611,464.306 C 383.129,469.913 379.108,476.579 377.675,479.119 C 376.241,481.660 372.622,486.968 369.632,490.915 C 366.642,494.862 363.197,500.550 361.977,503.556 L 359.759,509.021 L 363.630,513.414 C 365.758,515.831 367.950,517.676 368.500,517.514 C 369.050,517.352 371.525,516.419 374.000,515.441 Z" fill="#ff00bf" stroke="black" stroke-width="0.5" fill-rule="evenodd"/>
</svg>
