<?xml version='1.0' encoding='UTF-8'?>
<svg version="1.1" xmlns="http://www.w3.org/2000/svg" width="1000" height="600" viewBox="0 0 1000 600">
  <path d="M 578.754,350.250 C 580.945,347.063 585.007,335.989 585.727,331.243 C 586.273,327.642 583.906,323.000 581.525,323.000 C 580.739,323.000 575.687,320.789 570.298,318.087 C 550.566,308.192 550.525,308.189 542.784,315.930 C 538.588,320.127 538.000,321.231 538.000,324.923 C 538.000,329.312 539.186,332.431 541.846,335.037 C 543.258,336.421 544.167,336.357 550.957,334.395 C 560.619,331.604 563.147,332.555 564.934,339.654 C 565.767,342.960 567.427,345.690 570.432,348.695 C 572.800,351.063 575.215,353.000 575.800,353.000 C 576.385,353.000 577.714,351.762 578.754,350.250 Z" fill="#b100ff" stroke="black" stroke-width="0.5" fill-rule="evenodd"/>
</svg>
