<?xml version='1.0' encoding='UTF-8'?>
<svg version="1.1" xmlns="http://www.w3.org/2000/svg" width="1000" height="600" viewBox="0 0 1000 600">
  <path d="M 588.680,347.250 C 598.004,340.810 602.000,336.203 602.000,331.895 C 602.000,323.666 586.876,304.179 573.366,295.000 C 568.914,291.975 562.547,287.427 559.219,284.893 C 554.857,281.571 551.290,279.814 546.443,278.596 C 542.745,277.667 536.236,275.315 531.978,273.368 C 527.720,271.422 523.216,269.981 521.969,270.165 C 519.057,270.595 516.105,274.579 515.378,279.060 C 514.255,285.978 516.378,290.122 526.703,301.158 C 532.024,306.846 538.445,314.722 540.971,318.659 C 546.237,326.869 553.699,333.534 559.500,335.209 C 561.700,335.843 564.694,337.181 566.154,338.181 C 567.614,339.182 568.991,340.000 569.214,340.000 C 569.436,340.000 571.953,342.250 574.806,345.000 C 580.835,350.811 583.013,351.164 588.680,347.250 Z" fill="#6500ff" stroke="black" stroke-width="0.5" fill-rule="evenodd"/>
</svg>
