<?xml version='1.0' encoding='UTF-8'?>
<svg version="1.1" xmlns="http://www.w3.org/2000/svg" width="1000" height="600" viewBox="0 0 1000 600">
  <path d="M 429.126,367.608 C 435.839,364.620 437.169,363.097 444.934,349.500 C 451.758,337.551 459.358,328.856 467.696,323.458 C 470.554,321.607 473.634,318.963 474.539,317.580 C 476.604,314.429 483.556,310.438 492.000,307.555 C 497.249,305.763 499.077,304.544 501.500,301.223 C 503.714,298.189 505.679,296.762 509.000,295.776 C 516.422,293.574 515.585,290.263 504.047,276.166 C 499.183,270.223 496.157,268.857 487.917,268.883 C 479.344,268.910 476.018,270.416 467.700,278.038 C 461.843,283.405 460.458,284.141 450.908,286.965 C 435.474,291.529 430.861,294.103 424.222,301.857 C 421.075,305.531 416.700,311.171 414.500,314.389 L 410.500,320.240 L 410.500,335.870 C 410.500,356.117 410.939,357.998 417.216,364.634 C 420.007,367.585 422.619,370.000 423.021,370.000 C 423.422,370.000 426.170,368.924 429.126,367.608 Z" fill="#00c0ff" stroke="black" stroke-width="0.5" fill-rule="evenodd"/>
</svg>
