<?xml version='1.0' encoding='UTF-8'?>
<svg version="1.1" xmlns="http://www.w3.org/2000/svg" width="1000" height="600" viewBox="0 0 1000 600">
  <path d="M 462.045,330.701 C 462.731,328.941 465.702,322.054 468.646,315.397 C 473.377,304.702 474.000,302.516 474.000,296.608 C 474.000,290.213 473.830,289.740 470.082,285.722 L 466.164,281.522 L 461.832,283.805 C 459.449,285.061 455.025,287.656 452.000,289.574 C 448.975,291.491 443.404,293.982 439.621,295.110 C 431.893,297.415 421.000,302.645 421.000,304.052 C 421.000,304.559 422.688,306.045 424.750,307.352 C 426.812,308.660 430.626,312.378 433.225,315.615 C 437.850,321.375 448.884,331.851 453.823,335.172 C 456.035,336.658 456.558,336.681 458.554,335.373 C 459.788,334.564 461.359,332.462 462.045,330.701 Z" fill="#f800ff" stroke="black" stroke-width="0.5" fill-rule="evenodd"/>
</svg>
