<?xml version='1.0' encoding='UTF-8'?>
<svg version="1.1" xmlns="http://www.w3.org/2000/svg" width="1000" height="600" viewBox="0 0 1000 600">
  <path d="M 457.485,366.835 C 459.013,365.020 461.705,360.369 463.468,356.500 C 465.347,352.378 468.941,346.990 472.153,343.483 C 475.167,340.192 478.390,336.387 479.316,335.027 C 481.709,331.514 481.443,326.626 478.684,323.420 L 476.369,320.728 L 472.314,323.411 C 466.897,326.996 462.808,332.262 459.111,340.416 C 457.429,344.124 454.301,349.260 452.159,351.829 C 447.663,357.221 443.000,365.979 443.000,369.032 C 443.000,370.187 443.445,371.964 443.990,372.980 C 444.939,374.754 445.178,374.734 449.843,372.483 C 452.519,371.192 455.957,368.651 457.485,366.835 Z" fill="#b100ff" stroke="black" stroke-width="0.5" fill-rule="evenodd"/>
</svg>
