<?xml version='1.0' encoding='UTF-8'?>
<svg version="1.1" xmlns="http://www.w3.org/2000/svg" width="1000" height="600" viewBox="0 0 1000 600">
  <path d="M 557.019,371.990 C 558.057,371.434 560.608,368.417 562.687,365.285 C 565.928,360.401 566.465,358.800 566.454,354.045 C 566.436,346.154 563.381,341.414 551.965,331.568 C 540.878,322.006 535.156,318.480 529.327,317.618 C 519.568,316.175 497.621,306.192 490.067,299.759 C 487.005,297.151 484.172,295.014 483.771,295.009 C 482.489,294.993 474.328,308.231 470.523,316.500 C 468.498,320.900 466.191,325.625 465.395,327.000 C 464.600,328.375 462.620,332.353 460.996,335.841 C 458.259,341.718 458.149,342.387 459.491,344.983 C 461.327,348.533 468.166,354.000 470.772,354.000 C 471.863,354.000 474.498,353.255 476.628,352.344 C 479.345,351.181 484.531,350.549 494.011,350.223 C 511.450,349.624 517.142,350.770 524.743,356.411 C 530.260,360.504 538.543,365.218 546.000,368.509 C 547.925,369.359 550.625,370.710 552.000,371.512 C 555.004,373.264 554.693,373.235 557.019,371.990 Z" fill="#002dff" stroke="black" stroke-width="0.5" fill-rule="evenodd"/>
</svg>
