<?xml version='1.0' encoding='UTF-8'?>
<svg version="1.1" xmlns="http://www.w3.org/2000/svg" width="1000" height="600" viewBox="0 0 1000 600">
  <path d="M 459.355,365.630 C 465.326,362.578 472.526,358.310 475.355,356.146 C 482.347,350.798 488.210,349.634 505.079,350.243 C 515.201,350.609 519.901,351.236 524.199,352.793 L 529.899,354.858 L 534.279,351.513 C 536.689,349.673 539.423,347.003 540.357,345.578 C 541.983,343.096 541.948,342.751 539.511,337.244 C 538.112,334.085 536.276,330.375 535.429,329.000 C 534.583,327.625 533.221,324.925 532.403,323.000 C 528.074,312.820 517.702,294.979 516.133,295.014 C 515.785,295.021 512.716,297.384 509.313,300.264 C 505.798,303.239 499.969,306.844 495.813,308.612 C 482.248,314.386 474.717,317.106 469.619,318.072 C 463.535,319.226 459.494,321.796 447.106,332.390 C 437.221,340.844 433.006,347.166 433.032,353.500 C 433.049,357.779 438.346,368.216 442.016,371.204 C 444.497,373.225 444.499,373.224 459.355,365.630 Z" fill="#002dff" stroke="black" stroke-width="0.5" fill-rule="evenodd"/>
</svg>
