<?xml version='1.0' encoding='UTF-8'?>
<svg version="1.1" xmlns="http://www.w3.org/2000/svg" width="1000" height="600" viewBox="0 0 1000 600">
  <path d="M 451.145,404.104 C 459.039,401.748 478.279,400.702 509.000,400.958 C 530.538,401.137 531.821,401.039 539.002,398.664 C 543.129,397.299 550.230,395.637 554.783,394.971 C 562.863,393.790 563.151,393.652 566.781,389.217 L 570.500,384.673 L 570.435,374.040 L 570.371,363.408 L 559.520,347.644 C 553.552,338.975 546.200,329.114 543.183,325.733 C 536.278,317.995 531.230,307.177 529.455,296.313 C 528.719,291.811 527.453,286.861 526.641,285.313 C 524.148,280.561 517.830,275.265 510.667,271.922 C 504.398,268.997 503.510,268.830 499.928,269.903 C 497.781,270.547 493.964,273.019 491.446,275.397 C 487.159,279.447 486.422,279.758 479.807,280.313 C 474.322,280.773 471.844,281.529 468.715,283.698 C 462.716,287.855 444.198,313.917 438.658,326.000 C 436.209,331.341 434.037,334.828 427.221,344.359 C 423.137,350.071 421.580,357.754 422.330,368.500 C 422.900,376.657 423.525,378.865 428.971,391.940 C 432.722,400.944 433.405,401.819 438.500,404.137 C 443.481,406.402 443.441,406.402 451.145,404.104 Z" fill="#1e00ff" stroke="black" stroke-width="0.5" fill-rule="evenodd"/>
</svg>
