<?xml version='1.0' encoding='UTF-8'?>
<svg version="1.1" xmlns="http://www.w3.org/2000/svg" width="1000" height="600" viewBox="0 0 1000 600">
  <path d="M 417.800,307.362 C 429.841,300.903 442.507,289.715 446.041,282.416 C 450.886,272.406 459.351,271.201 467.835,279.311 C 472.310,283.589 473.613,286.384 474.453,293.500 C 475.297,300.648 477.185,304.000 480.368,304.000 C 483.947,304.000 485.958,300.901 486.926,293.898 C 487.412,290.379 488.475,285.700 489.288,283.500 C 490.302,280.754 490.987,273.029 491.475,258.854 C 492.144,239.398 492.068,237.941 490.149,233.604 C 488.297,229.416 487.409,228.671 480.306,225.346 C 472.774,221.818 472.023,221.674 458.892,221.236 C 438.760,220.563 436.871,221.743 423.255,243.500 C 420.158,248.450 415.461,257.225 412.819,263.000 C 408.270,272.944 408.015,273.956 408.008,282.114 C 408.004,286.851 407.505,293.151 406.899,296.114 C 406.294,299.076 405.468,303.111 405.064,305.081 C 404.355,308.543 405.226,313.000 406.613,313.000 C 406.985,313.000 412.019,310.463 417.800,307.362 Z" fill="#00c0ff" stroke="black" stroke-width="0.5" fill-rule="evenodd"/>
</svg>
