<?xml version='1.0' encoding='UTF-8'?>
<svg version="1.1" xmlns="http://www.w3.org/2000/svg" width="1000" height="600" viewBox="0 0 1000 600">
  <path d="M 558.414,365.767 C 562.025,360.504 562.339,359.514 562.251,353.670 C 562.124,345.349 560.466,341.666 553.841,335.000 C 544.621,325.722 532.319,317.856 516.469,311.105 C 512.086,309.238 506.700,306.935 504.500,305.987 C 502.267,305.024 497.246,300.891 493.134,296.631 C 489.082,292.434 485.522,289.000 485.222,289.000 C 484.921,289.000 482.742,290.133 480.380,291.518 C 473.678,295.445 469.414,302.770 467.000,314.500 C 465.888,319.904 463.633,328.244 461.989,333.032 C 457.994,344.668 458.069,347.705 462.457,351.959 L 465.914,355.309 L 472.478,353.155 C 477.648,351.458 481.466,351.000 490.456,351.000 C 509.805,351.000 526.501,355.848 533.984,363.639 C 539.421,369.300 545.104,372.094 550.490,371.753 C 554.120,371.523 554.837,370.982 558.414,365.767 Z" fill="#002dff" stroke="black" stroke-width="0.5" fill-rule="evenodd"/>
</svg>
