<?xml version='1.0' encoding='UTF-8'?>
<svg version="1.1" xmlns="http://www.w3.org/2000/svg" width="1000" height="600" viewBox="0 0 1000 600">
  <path d="M 568.683,379.416 C 569.884,378.660 572.134,376.379 573.683,374.348 C 576.103,371.176 576.543,369.587 576.803,363.078 C 577.074,356.288 576.800,354.928 574.164,350.000 C 570.618,343.372 568.348,342.041 560.500,341.991 C 546.233,341.899 538.067,336.767 540.165,329.210 C 541.238,325.344 543.629,324.191 551.176,323.901 C 558.984,323.601 562.000,321.796 562.000,317.425 C 562.000,310.484 558.774,307.159 550.460,305.529 C 545.083,304.475 541.595,301.551 538.727,295.695 C 535.178,288.446 534.470,282.790 536.351,276.702 C 537.957,271.503 537.552,268.792 534.302,263.012 L 532.341,259.523 L 537.133,253.426 C 539.768,250.072 542.392,246.100 542.962,244.599 C 543.533,243.098 544.000,235.363 544.000,227.410 C 544.000,215.143 543.678,212.082 541.880,207.225 C 540.713,204.076 539.389,198.449 538.937,194.719 C 537.826,185.552 537.585,184.977 532.960,180.461 L 528.928,176.524 L 523.327,179.456 C 515.842,183.375 510.684,191.087 509.489,200.146 C 507.435,215.708 506.987,230.972 508.053,249.000 C 508.687,259.725 509.048,270.750 508.853,273.500 C 508.659,276.250 508.539,288.625 508.587,301.000 L 508.675,323.500 L 511.449,329.000 C 515.324,336.681 518.517,340.670 523.114,343.572 C 528.548,347.002 534.533,353.163 536.858,357.721 C 541.136,366.108 554.517,379.495 560.265,381.140 C 562.891,381.891 565.652,381.326 568.683,379.416 Z" fill="#ff00bf" stroke="black" stroke-width="0.5" fill-rule="evenodd"/>
</svg>
