<?xml version='1.0' encoding='UTF-8'?>
<svg version="1.1" xmlns="http://www.w3.org/2000/svg" width="1000" height="600" viewBox="0 0 1000 600">
  <path d="M 542.024,413.603 C 544.117,412.218 547.556,408.950 549.665,406.341 C 551.774,403.732 556.892,397.976 561.038,393.549 C 565.183,389.122 569.648,383.972 570.959,382.105 L 573.343,378.710 L 570.507,373.605 C 568.947,370.797 566.620,367.228 565.335,365.673 C 564.051,364.119 563.000,362.353 563.000,361.749 C 563.000,361.145 561.219,357.192 559.042,352.963 C 552.888,341.011 550.337,331.073 548.121,310.418 C 546.550,295.773 539.451,285.013 531.349,284.996 C 530.332,284.994 527.986,284.069 526.135,282.941 C 524.284,281.813 520.426,280.456 517.561,279.927 C 514.696,279.397 510.602,278.072 508.464,276.982 C 505.667,275.556 502.581,275.000 497.460,275.000 C 491.179,275.000 489.795,275.363 485.676,278.091 C 480.408,281.581 473.253,289.265 471.835,292.957 C 471.316,294.309 470.451,299.034 469.912,303.457 C 468.252,317.085 466.823,320.047 456.737,330.779 C 446.663,341.500 436.763,355.881 431.484,367.466 C 425.608,380.361 426.866,389.294 435.163,393.584 C 436.984,394.526 443.097,395.501 450.825,396.082 C 462.789,396.982 463.968,397.268 471.844,401.191 C 479.584,405.047 481.017,405.407 491.662,406.177 C 500.508,406.816 504.325,407.564 508.319,409.438 C 511.168,410.776 514.850,412.199 516.500,412.601 C 518.150,413.004 521.300,414.176 523.500,415.206 C 528.887,417.729 536.827,417.042 542.024,413.603 Z" fill="#1e00ff" stroke="black" stroke-width="0.5" fill-rule="evenodd"/>
</svg>
