<?xml version='1.0' encoding='UTF-8'?>
<svg version="1.1" xmlns="http://www.w3.org/2000/svg" width="1000" height="600" viewBox="0 0 1000 600">
  <path d="M 564.482,402.167 C 567.390,400.168 568.943,398.093 570.246,394.465 C 571.226,391.734 572.887,387.700 573.935,385.500 C 576.914,379.251 578.358,369.794 577.678,360.986 C 576.947,351.502 575.474,347.723 569.364,339.649 C 566.804,336.267 563.353,330.575 561.695,327.000 C 559.008,321.210 547.583,303.399 538.602,291.000 C 533.387,283.800 528.728,281.097 519.812,280.097 C 512.755,279.305 511.900,278.955 509.027,275.684 C 507.311,273.729 503.965,271.388 501.593,270.482 C 497.316,268.849 497.214,268.862 489.889,271.973 C 477.759,277.126 472.326,283.467 470.837,294.212 C 469.240,305.732 464.013,317.386 456.727,325.667 C 453.302,329.561 445.857,339.576 440.182,347.924 L 429.864,363.101 L 429.291,371.943 C 428.790,379.669 428.989,381.347 430.868,385.227 C 434.296,392.308 436.380,393.641 446.814,395.427 C 451.937,396.304 458.912,397.960 462.314,399.107 C 467.926,400.998 470.541,401.173 490.500,400.998 C 521.495,400.725 541.196,401.795 548.000,404.119 C 554.691,406.406 559.067,405.887 564.482,402.167 Z" fill="#1e00ff" stroke="black" stroke-width="0.5" fill-rule="evenodd"/>
</svg>
