<?xml version='1.0' encoding='UTF-8'?>
<svg version="1.1" xmlns="http://www.w3.org/2000/svg" width="1000" height="600" viewBox="0 0 1000 600">
  <path d="M 429.385,348.750 C 432.332,345.916 434.188,343.067 434.955,340.197 C 435.588,337.831 436.989,335.011 438.068,333.932 C 440.196,331.804 441.156,331.888 450.827,335.044 L 456.154,336.782 L 459.077,333.925 C 462.444,330.633 463.041,324.914 460.526,320.051 C 458.578,316.284 451.159,310.000 448.659,310.000 C 447.032,310.000 437.186,314.460 417.000,324.339 C 413.395,326.104 413.374,329.794 416.914,339.576 C 420.070,348.297 422.586,353.000 424.097,353.000 C 424.575,353.000 426.954,351.087 429.385,348.750 Z" fill="#b100ff" stroke="black" stroke-width="0.5" fill-rule="evenodd"/>
</svg>
