<?xml version='1.0' encoding='UTF-8'?>
<svg version="1.1" xmlns="http://www.w3.org/2000/svg" width="1000" height="600" viewBox="0 0 1000 600">
  <path d="M 615.662,501.458 C 618.100,500.029 620.000,498.166 620.000,497.204 C 620.000,493.956 609.709,478.825 601.860,470.534 C 593.262,461.450 590.988,457.307 591.022,450.782 C 591.060,443.432 594.111,438.724 607.349,425.591 C 617.816,415.207 620.078,412.406 621.874,407.608 C 624.467,400.676 624.466,400.732 622.024,398.522 C 620.637,397.267 617.228,396.443 610.591,395.759 C 601.392,394.811 600.890,394.868 592.231,397.866 C 585.264,400.278 580.466,401.166 570.168,401.950 C 562.930,402.501 555.635,402.677 553.956,402.341 C 552.278,402.006 547.998,399.204 544.444,396.115 C 527.202,381.128 524.570,379.728 509.527,377.539 C 499.363,376.060 493.551,374.110 486.000,369.642 C 484.625,368.828 481.534,367.205 479.130,366.035 C 475.170,364.107 474.600,364.052 473.051,365.454 C 472.111,366.304 470.964,367.000 470.500,367.000 C 470.037,367.000 466.831,368.377 463.377,370.060 C 455.788,373.757 453.113,373.339 444.395,367.097 C 441.249,364.843 437.610,363.000 436.309,363.000 C 433.592,363.000 423.025,368.117 418.299,371.721 C 415.898,373.553 414.939,375.222 414.462,378.405 C 413.144,387.195 419.755,396.058 431.768,401.608 L 439.036,404.966 L 444.623,402.733 C 447.696,401.505 452.145,398.812 454.509,396.750 C 456.873,394.688 459.768,393.000 460.943,393.000 C 463.663,393.000 469.457,395.957 477.423,401.411 C 482.068,404.591 485.089,405.884 489.095,406.407 C 497.415,407.494 504.175,409.734 510.341,413.447 C 513.435,415.310 517.534,417.351 519.450,417.984 C 521.367,418.616 524.126,420.549 525.581,422.279 C 527.851,424.976 528.151,426.072 527.688,429.962 C 527.391,432.458 526.442,435.850 525.580,437.500 C 523.114,442.220 523.644,444.628 529.180,453.861 C 534.689,463.048 544.278,473.160 549.802,475.607 C 551.618,476.412 558.143,477.537 564.302,478.108 C 578.371,479.412 582.256,481.106 591.339,489.896 C 599.037,497.346 607.626,503.840 609.912,503.939 C 610.689,503.972 613.276,502.856 615.662,501.458 Z" fill="#ff00bf" stroke="black" stroke-width="0.5" fill-rule="evenodd"/>
</svg>
