<?xml version='1.0' encoding='UTF-8'?>
<svg version="1.1" xmlns="http://www.w3.org/2000/svg" width="1000" height="600" viewBox="0 0 1000 600">
  <path d="M 432.351,378.072 C 445.631,372.104 460.279,354.500 470.975,331.651 C 475.394,322.212 476.000,320.133 476.000,314.409 C 476.000,303.745 472.593,299.540 464.208,299.857 C 457.877,300.096 455.675,301.606 443.571,314.006 C 437.560,320.164 430.280,326.946 427.393,329.079 C 424.507,331.211 421.855,333.426 421.500,334.000 C 421.145,334.575 418.254,336.357 415.076,337.962 C 408.229,341.418 403.625,345.125 400.661,349.566 C 399.472,351.347 396.761,354.870 394.635,357.395 L 390.770,361.987 L 399.007,370.743 C 403.537,375.560 408.426,380.072 409.872,380.771 C 414.172,382.851 424.466,381.615 432.351,378.072 Z" fill="#6500ff" stroke="black" stroke-width="0.5" fill-rule="evenodd"/>
</svg>
