<?xml version='1.0' encoding='UTF-8'?>
<svg version="1.1" xmlns="http://www.w3.org/2000/svg" width="1000" height="600" viewBox="0 0 1000 600">
  <path d="M 576.629,354.139 C 587.325,345.622 590.398,342.590 594.398,336.610 C 598.239,330.869 598.002,323.470 593.722,315.500 C 591.016,310.460 589.284,308.700 582.901,304.500 C 578.721,301.750 571.971,296.638 567.901,293.139 C 560.805,287.041 548.447,280.000 544.838,280.000 C 543.893,280.000 540.055,278.908 536.310,277.573 C 522.843,272.772 513.383,272.968 507.458,278.171 C 504.423,280.835 504.000,281.790 504.000,285.968 C 504.000,292.079 506.683,295.565 521.735,309.012 C 533.219,319.271 536.079,322.960 544.381,338.215 C 549.503,347.627 561.950,362.000 564.978,362.000 C 565.957,362.000 571.200,358.463 576.629,354.139 Z" fill="#6500ff" stroke="black" stroke-width="0.5" fill-rule="evenodd"/>
</svg>
