<?xml version='1.0' encoding='UTF-8'?>
<svg version="1.1" xmlns="http://www.w3.org/2000/svg" width="1000" height="600" viewBox="0 0 1000 600">
  <path d="M 412.191,387.594 C 415.183,386.271 420.752,382.667 424.566,379.586 C 428.433,376.461 434.059,373.037 437.287,371.844 C 445.209,368.916 450.012,361.669 452.728,348.545 C 453.523,344.707 454.809,340.337 455.586,338.833 C 457.435,335.259 457.422,322.947 455.566,318.503 C 453.823,314.332 451.617,313.649 441.534,314.158 C 434.625,314.507 433.814,314.788 430.538,317.964 C 428.592,319.849 425.782,323.151 424.292,325.300 C 422.802,327.450 418.870,331.051 415.553,333.303 C 406.922,339.165 401.542,344.406 398.074,350.332 C 396.410,353.174 393.676,357.318 391.998,359.540 C 386.265,367.130 387.837,376.522 396.580,386.912 C 399.861,390.812 404.461,391.013 412.191,387.594 Z" fill="#6500ff" stroke="black" stroke-width="0.5" fill-rule="evenodd"/>
</svg>
