<?xml version='1.0' encoding='UTF-8'?>
<svg version="1.1" xmlns="http://www.w3.org/2000/svg" width="1000" height="600" viewBox="0 0 1000 600">
  <path d="M 681.811,442.094 C 704.365,434.729 717.406,425.857 724.301,413.188 C 730.924,401.020 730.538,376.560 723.383,355.000 C 713.069,323.919 689.259,294.649 659.831,276.873 C 644.510,267.619 613.709,253.945 594.911,248.053 C 591.287,246.917 582.962,245.295 576.411,244.448 C 569.860,243.601 562.925,242.482 561.000,241.960 C 556.119,240.637 523.387,240.764 518.500,242.125 C 516.300,242.738 509.775,244.263 504.000,245.515 C 475.891,251.608 465.541,255.318 449.302,265.122 C 435.991,273.158 421.850,285.971 414.680,296.492 C 412.435,299.787 408.021,305.253 404.872,308.638 C 394.712,319.559 391.525,328.355 391.517,345.500 C 391.511,359.203 393.342,366.540 400.252,380.500 C 403.623,387.310 406.092,390.368 416.856,401.063 C 423.810,407.973 431.750,415.136 434.500,416.981 C 438.423,419.614 436.344,417.102 424.840,405.317 C 409.008,389.098 405.269,383.481 402.506,371.760 C 400.267,362.266 400.683,352.206 403.974,336.207 C 408.204,315.649 413.815,305.417 427.153,293.937 C 437.392,285.125 449.876,279.383 469.428,274.492 C 480.023,271.842 480.982,271.774 500.928,272.268 C 524.316,272.848 527.500,273.481 543.175,280.672 C 557.830,287.395 566.054,293.279 577.500,305.226 C 611.956,341.194 624.325,359.115 638.996,394.330 C 640.639,398.273 645.186,407.125 649.101,414.000 C 656.185,426.438 661.482,438.158 662.642,443.958 C 663.044,445.972 663.848,447.000 665.019,447.000 C 665.992,447.000 673.548,444.792 681.811,442.094 Z" fill="#f4fac1" stroke="black" stroke-width="0.5" fill-rule="evenodd"/>
</svg>
