<?xml version='1.0' encoding='UTF-8'?>
<svg version="1.1" xmlns="http://www.w3.org/2000/svg" width="1000" height="600" viewBox="0 0 1000 600">
  <path d="M 648.500,393.447 C 657.518,388.226 662.230,382.818 668.155,370.887 C 671.266,364.624 674.092,358.150 674.436,356.500 C 675.261,352.539 674.097,354.190 668.882,364.377 C 666.321,369.380 662.596,374.551 658.675,378.546 C 653.561,383.757 651.497,385.126 646.661,386.516 C 640.966,388.152 640.648,388.137 633.741,385.917 C 625.727,383.340 621.337,379.957 617.491,373.394 C 612.869,365.508 606.454,335.619 604.850,314.500 C 604.348,307.900 603.223,298.000 602.348,292.500 C 600.253,279.321 599.170,202.428 600.961,194.000 C 603.981,179.784 605.570,119.703 603.115,112.500 C 601.295,107.158 597.593,102.358 593.766,100.379 C 588.468,97.639 577.875,98.900 568.888,103.341 C 546.943,114.184 531.125,134.016 530.164,151.890 C 529.690,160.727 530.069,162.107 539.670,186.449 C 543.780,196.871 547.841,208.121 548.693,211.449 C 550.245,217.509 551.405,220.157 559.450,236.000 C 566.591,250.064 575.517,273.967 579.427,289.500 C 581.404,297.350 584.735,307.494 586.980,312.500 C 587.967,314.700 589.786,319.650 591.022,323.500 C 594.278,333.641 601.118,349.397 609.053,365.035 C 618.363,383.384 627.161,393.147 636.994,396.041 C 640.306,397.016 643.631,396.267 648.500,393.447 Z" fill="#f4fac1" stroke="black" stroke-width="0.5" fill-rule="evenodd"/>
</svg>
