<?xml version='1.0' encoding='UTF-8'?>
<svg version="1.1" xmlns="http://www.w3.org/2000/svg" width="1000" height="600" viewBox="0 0 1000 600">
  <path d="M 640.424,383.963 C 647.424,380.587 649.091,379.030 654.423,370.889 C 658.856,364.122 665.225,347.924 661.854,351.990 C 660.719,353.360 658.696,356.639 657.360,359.276 C 652.348,369.167 642.227,378.000 635.905,378.000 C 630.262,378.000 618.223,372.129 613.807,367.223 C 609.281,362.195 608.013,359.787 603.613,347.868 C 597.411,331.071 594.971,320.037 593.948,304.170 C 593.428,296.101 592.570,286.575 592.042,283.000 C 589.413,265.212 589.937,208.215 592.947,184.500 C 593.435,180.650 594.165,163.550 594.567,146.500 C 595.428,110.066 594.928,106.665 587.640,99.376 C 579.891,91.628 569.549,91.142 555.500,97.866 C 532.666,108.795 517.000,130.328 517.000,150.784 C 517.000,155.012 520.521,165.170 523.661,170.001 C 524.913,171.927 526.820,175.977 527.901,179.001 C 528.981,182.026 531.292,187.875 533.037,192.000 C 534.782,196.125 537.447,203.100 538.958,207.500 C 540.470,211.900 545.123,222.706 549.299,231.514 C 558.301,250.506 562.325,261.730 571.523,293.500 C 575.373,306.800 584.900,327.617 598.753,353.000 C 606.037,366.348 626.374,387.000 632.234,387.000 C 633.275,387.000 636.960,385.633 640.424,383.963 Z" fill="#f4fac1" stroke="black" stroke-width="0.5" fill-rule="evenodd"/>
</svg>
