<?xml version='1.0' encoding='UTF-8'?>
<svg version="1.1" xmlns="http://www.w3.org/2000/svg" width="1000" height="600" viewBox="0 0 1000 600">
  <path d="M 340.261,430.040 C 342.969,424.257 347.600,415.817 350.554,411.286 C 357.663,400.380 358.733,398.208 362.613,386.804 C 366.683,374.840 369.761,368.655 376.449,359.000 C 379.306,354.875 382.816,349.452 384.248,346.949 C 391.045,335.067 411.929,310.730 426.285,297.961 C 440.726,285.117 458.694,277.060 479.656,274.029 C 488.587,272.738 516.480,272.728 521.111,274.014 C 523.098,274.566 528.795,275.888 533.772,276.951 C 548.263,280.048 564.234,289.005 573.664,299.323 C 581.831,308.259 586.517,318.454 588.929,332.537 C 590.057,339.117 591.434,346.072 591.989,347.993 C 593.285,352.472 593.249,364.200 591.921,370.000 C 590.409,376.610 581.700,393.707 576.776,399.733 C 574.424,402.611 570.025,407.775 567.000,411.209 L 561.500,417.453 L 567.842,412.507 C 578.561,404.146 589.044,390.974 594.711,378.743 C 595.955,376.056 598.202,368.603 599.704,362.179 C 603.390,346.408 603.352,336.437 599.563,325.500 C 595.963,315.108 595.751,314.733 588.823,306.500 C 585.583,302.650 578.902,294.686 573.976,288.802 C 567.051,280.530 562.728,276.479 554.907,270.934 C 538.213,259.098 513.839,248.878 494.000,245.397 C 489.325,244.577 483.572,243.252 481.215,242.453 C 478.063,241.384 471.918,241.000 457.973,241.000 C 437.451,241.000 423.683,242.933 403.000,248.718 C 392.264,251.721 370.784,260.105 358.899,265.930 C 342.877,273.784 315.150,294.010 302.356,307.177 C 291.116,318.745 281.003,336.416 273.844,357.000 C 270.572,366.411 270.540,366.674 270.520,385.000 C 270.500,403.421 270.512,403.526 273.418,409.500 C 277.337,417.559 287.417,427.409 296.762,432.312 C 305.195,436.736 321.800,440.942 329.919,440.711 L 335.338,440.556 L 340.261,430.040 Z" fill="#f4fac1" stroke="black" stroke-width="0.5" fill-rule="evenodd"/>
</svg>
