<?xml version='1.0' encoding='UTF-8'?>
<svg version="1.1" xmlns="http://www.w3.org/2000/svg" width="1000" height="600" viewBox="0 0 1000 600">
  <path d="M 373.569,384.074 C 381.859,379.319 397.143,361.374 404.293,348.000 C 416.875,324.468 423.233,310.594 427.578,297.189 C 429.460,291.382 431.000,286.074 431.000,285.394 C 431.000,281.837 443.934,245.878 448.947,235.500 C 457.811,217.147 459.713,212.841 460.876,208.491 C 461.465,206.286 463.786,200.211 466.033,194.991 C 468.281,189.771 471.066,182.800 472.224,179.500 C 473.381,176.200 475.549,171.475 477.043,169.000 C 481.487,161.636 483.345,154.569 482.671,147.599 C 481.023,130.546 470.447,114.202 453.675,102.788 C 436.243,90.924 421.934,89.971 411.900,100.005 C 404.910,106.995 404.552,109.493 405.383,145.481 C 405.764,161.991 406.500,178.875 407.018,183.000 C 410.069,207.296 410.605,264.187 407.950,282.000 C 407.417,285.575 406.579,295.025 406.088,303.000 C 405.086,319.258 402.363,331.439 395.856,348.761 C 389.847,364.759 384.933,370.844 374.182,375.598 C 366.014,379.211 361.245,378.843 355.297,374.140 C 349.249,369.360 345.667,365.152 341.773,358.252 C 340.115,355.313 338.589,353.078 338.382,353.285 C 337.782,353.885 341.160,363.150 343.379,366.992 C 348.611,376.048 353.147,381.043 358.781,383.952 C 365.948,387.651 367.312,387.663 373.569,384.074 Z" fill="#f4fac1" stroke="black" stroke-width="0.5" fill-rule="evenodd"/>
</svg>
