<?xml version='1.0' encoding='UTF-8'?>
<svg version="1.1" xmlns="http://www.w3.org/2000/svg" width="1000" height="600" viewBox="0 0 1000 600">
  <path d="M 607.000,403.211 C 608.658,402.352 611.352,402.120 615.000,402.523 C 618.025,402.856 622.075,403.213 624.000,403.315 L 627.500,403.500 L 627.288,398.311 C 627.156,395.107 625.966,390.677 624.177,386.731 C 621.210,380.186 605.724,353.670 603.330,351.036 C 602.185,349.775 602.000,349.892 602.000,351.882 C 602.000,353.153 601.214,356.736 600.253,359.846 C 598.855,364.370 598.515,369.099 598.551,383.500 C 598.575,393.400 598.947,404.111 599.376,407.303 L 600.157,413.105 L 602.329,408.806 C 603.523,406.441 605.625,403.924 607.000,403.211 Z" fill="#ccebb3" stroke="black" stroke-width="0.5" fill-rule="evenodd"/>
</svg>
