<?xml version='1.0' encoding='UTF-8'?>
<svg version="1.1" xmlns="http://www.w3.org/2000/svg" width="1000" height="600" viewBox="0 0 1000 600">
  <path d="M 405.500,412.427 C 414.995,412.022 422.557,411.081 429.000,409.504 C 434.225,408.224 440.975,406.866 444.000,406.484 C 450.140,405.710 458.866,401.511 463.662,397.022 C 468.600,392.401 469.460,388.456 467.475,379.534 C 465.151,369.086 461.284,364.238 451.365,359.336 L 443.743,355.569 L 428.025,355.169 C 409.187,354.689 404.808,355.671 393.904,362.821 C 379.860,372.029 373.706,380.726 371.873,393.953 C 370.777,401.857 371.708,406.521 374.971,409.474 C 377.901,412.126 384.129,414.057 388.000,413.515 C 389.925,413.245 397.800,412.756 405.500,412.427 Z" fill="#a6dcb7" stroke="black" stroke-width="0.5" fill-rule="evenodd"/>
</svg>
