<?xml version='1.0' encoding='UTF-8'?>
<svg version="1.1" xmlns="http://www.w3.org/2000/svg" width="1000" height="600" viewBox="0 0 1000 600">
  <path d="M 590.400,479.606 C 598.738,476.122 611.000,450.468 611.000,436.507 C 611.000,432.394 610.336,430.470 607.369,425.987 C 605.372,422.969 602.499,419.150 600.985,417.500 C 599.472,415.850 596.413,412.061 594.189,409.081 L 590.145,403.662 L 572.322,403.854 C 553.030,404.063 541.621,405.266 535.801,407.707 C 532.367,409.147 532.152,409.482 532.801,412.379 C 534.199,418.618 533.385,426.350 530.660,432.720 C 527.341,440.480 527.320,443.419 530.552,447.657 C 533.738,451.833 537.528,453.819 546.692,456.110 C 557.148,458.724 563.381,462.281 571.125,470.056 C 577.078,476.033 583.722,480.811 586.282,480.956 C 586.712,480.980 588.565,480.373 590.400,479.606 Z" fill="#243d98" stroke="black" stroke-width="0.5" fill-rule="evenodd"/>
</svg>
