<?xml version='1.0' encoding='UTF-8'?>
<svg version="1.1" xmlns="http://www.w3.org/2000/svg" width="1000" height="600" viewBox="0 0 1000 600">
  <path d="M 422.526,479.883 C 425.003,478.718 430.061,474.658 433.765,470.860 C 441.089,463.349 449.331,457.890 456.763,455.627 C 468.663,452.003 474.993,447.991 475.013,444.062 C 475.031,440.377 471.782,427.017 470.987,427.508 C 470.618,427.736 468.821,426.379 466.993,424.493 C 464.018,421.424 463.861,420.991 465.491,420.365 C 466.756,419.880 467.895,420.386 469.224,422.028 L 471.136,424.389 L 470.468,421.445 C 468.217,411.525 467.960,411.020 464.212,409.137 C 456.965,405.495 450.251,404.626 429.855,404.691 C 419.050,404.724 409.723,405.053 409.127,405.422 C 407.789,406.248 398.130,419.190 395.164,424.131 C 388.569,435.116 391.814,450.390 404.871,469.808 C 410.785,478.603 414.090,482.000 416.733,482.000 C 417.442,482.000 420.049,481.047 422.526,479.883 Z" fill="#243d98" stroke="black" stroke-width="0.5" fill-rule="evenodd"/>
</svg>
