<?xml version='1.0' encoding='UTF-8'?>
<svg version="1.1" xmlns="http://www.w3.org/2000/svg" width="1000" height="600" viewBox="0 0 1000 600">
  <path d="M 656.198,322.250 C 662.392,315.885 665.391,306.891 667.116,289.500 C 668.844,272.090 668.606,260.963 666.045,239.500 C 662.087,206.329 655.181,180.076 645.002,159.500 C 633.034,135.309 622.571,124.714 610.650,124.714 C 603.049,124.714 598.303,127.695 591.586,136.689 C 582.024,149.491 576.000,164.915 576.000,176.599 C 576.000,184.595 584.960,196.568 594.915,201.874 L 600.834,205.029 L 604.853,216.764 C 607.063,223.219 611.852,236.150 615.494,245.500 C 619.135,254.850 623.891,267.088 626.061,272.696 C 628.232,278.303 631.585,288.428 633.514,295.196 C 639.946,317.767 644.642,327.000 649.689,327.000 C 650.726,327.000 653.655,324.863 656.198,322.250 Z" fill="#ffffd9" stroke="black" stroke-width="0.5" fill-rule="evenodd"/>
</svg>
