<?xml version='1.0' encoding='UTF-8'?>
<svg version="1.1" xmlns="http://www.w3.org/2000/svg" width="1000" height="600" viewBox="0 0 1000 600">
  <path d="M 355.137,324.369 C 357.847,321.928 361.633,312.368 366.373,296.000 C 368.841,287.475 373.312,274.425 376.309,267.000 C 384.248,247.325 392.381,225.904 396.158,214.715 C 399.428,205.031 399.514,204.901 404.661,201.996 C 412.239,197.719 416.591,193.534 420.645,186.623 C 424.077,180.771 424.209,180.203 423.615,173.792 C 422.608,162.923 418.750,152.472 412.046,142.461 C 403.052,129.027 400.242,126.291 394.004,124.890 C 385.804,123.047 374.924,128.488 367.386,138.200 C 361.537,145.736 353.733,159.693 349.617,169.977 C 339.091,196.277 329.816,252.994 332.028,277.534 C 332.572,283.565 333.304,291.875 333.654,296.000 C 334.539,306.412 338.816,317.217 344.240,322.747 C 348.750,327.344 351.398,327.738 355.137,324.369 Z" fill="#ffffd9" stroke="black" stroke-width="0.5" fill-rule="evenodd"/>
</svg>
