<?xml version='1.0' encoding='UTF-8'?>
<svg version="1.1" xmlns="http://www.w3.org/2000/svg" width="1000" height="600" viewBox="0 0 1000 600">
  <path d="M 549.052,457.972 C 550.173,457.372 550.901,456.019 550.801,454.722 C 550.502,450.855 556.734,439.383 561.220,435.543 C 566.401,431.109 571.440,429.583 580.677,429.650 C 590.823,429.724 600.062,432.917 608.065,439.117 C 623.196,450.839 627.899,452.801 643.000,453.693 C 659.794,454.684 675.840,448.563 689.233,436.056 C 697.849,428.009 699.597,424.912 701.413,414.466 C 702.622,407.516 702.556,406.355 700.520,398.731 C 695.906,381.449 689.892,369.618 677.116,352.694 C 668.694,341.538 665.389,338.294 652.500,328.539 C 641.667,320.340 635.803,317.917 613.000,312.221 C 603.256,309.788 601.023,309.608 582.000,309.725 C 570.725,309.794 558.475,310.341 554.777,310.940 C 545.960,312.369 518.020,321.146 506.000,326.264 C 491.711,332.347 489.898,333.754 485.521,342.152 C 483.415,346.193 480.411,351.140 478.846,353.144 C 475.147,357.880 475.069,364.255 478.514,380.007 C 481.727,394.693 485.598,403.770 494.538,417.578 C 500.334,426.530 503.321,430.001 510.105,435.666 C 522.016,445.611 529.456,450.920 537.500,455.212 C 545.099,459.267 546.159,459.520 549.052,457.972 Z" fill="#ffffd9" stroke="black" stroke-width="0.5" fill-rule="evenodd"/>
</svg>
