<?xml version='1.0' encoding='UTF-8'?>
<svg version="1.1" xmlns="http://www.w3.org/2000/svg" width="1000" height="600" viewBox="0 0 1000 600">
  <path d="M 645.370,313.443 C 648.484,311.066 651.075,307.834 653.187,303.693 C 656.294,297.600 656.360,297.177 657.232,277.500 C 659.490,226.569 647.402,171.499 627.106,140.254 C 619.197,128.078 612.459,122.389 601.543,118.669 C 597.108,117.158 596.585,117.183 591.286,119.166 C 583.122,122.221 574.583,131.333 568.347,143.647 C 563.603,153.017 563.500,153.413 563.500,162.360 C 563.500,180.270 567.437,187.108 582.426,195.226 L 590.317,199.500 L 594.489,211.000 C 596.784,217.325 603.270,233.525 608.904,247.000 C 615.063,261.733 620.919,277.679 623.594,287.000 C 626.040,295.525 629.668,305.762 631.657,309.750 C 634.818,316.086 635.617,317.000 637.993,317.000 C 639.569,317.000 642.670,315.505 645.370,313.443 Z" fill="#ffffd9" stroke="black" stroke-width="0.5" fill-rule="evenodd"/>
</svg>
