<?xml version='1.0' encoding='UTF-8'?>
<svg version="1.1" xmlns="http://www.w3.org/2000/svg" width="1000" height="600" viewBox="0 0 1000 600">
  <path d="M 455.807,333.919 C 458.388,333.324 462.889,331.682 465.810,330.269 C 470.314,328.091 471.626,327.856 474.456,328.725 L 477.793,329.749 L 476.365,326.331 C 475.579,324.450 475.211,322.467 475.547,321.924 C 475.883,321.380 476.151,317.463 476.142,313.218 C 476.114,300.147 469.917,285.000 464.596,285.000 C 463.549,285.000 459.928,286.546 456.550,288.435 C 452.484,290.709 449.938,291.580 449.019,291.012 C 447.644,290.162 445.734,293.743 441.291,305.500 C 438.423,313.088 439.862,319.707 446.741,330.569 C 449.865,335.503 449.506,335.371 455.807,333.919 Z" fill="#53bcc1" stroke="black" stroke-width="0.5" fill-rule="evenodd"/>
</svg>
