<?xml version='1.0' encoding='UTF-8'?>
<svg version="1.1" xmlns="http://www.w3.org/2000/svg" width="1000" height="600" viewBox="0 0 1000 600">
  <path d="M 475.665,480.968 C 483.998,481.607 484.597,481.416 492.083,475.731 C 501.913,468.265 506.974,463.628 512.458,457.060 C 518.236,450.139 518.395,447.071 513.369,439.501 C 510.033,434.476 509.791,433.631 510.394,429.090 C 510.800,426.030 510.652,423.903 510.006,423.504 C 509.433,423.149 506.700,424.661 503.933,426.864 C 501.028,429.177 496.072,431.795 492.201,433.061 C 481.104,436.690 473.637,443.387 464.075,458.284 L 459.721,465.067 L 461.611,468.784 C 462.650,470.828 464.726,473.965 466.223,475.755 C 468.500,478.476 468.787,479.429 467.973,481.570 C 466.582,485.230 466.680,485.297 469.915,482.905 C 471.586,481.669 474.039,480.843 475.665,480.968 Z" fill="#53bcc1" stroke="black" stroke-width="0.5" fill-rule="evenodd"/>
</svg>
