<?xml version='1.0' encoding='UTF-8'?>
<svg version="1.1" xmlns="http://www.w3.org/2000/svg" width="1000" height="600" viewBox="0 0 1000 600">
  <path d="M 532.663,483.250 C 531.020,479.996 531.400,478.531 534.945,474.446 C 536.402,472.766 538.182,469.976 538.898,468.245 C 540.163,465.193 540.003,464.799 533.577,455.116 C 525.145,442.409 518.142,436.375 507.403,432.562 C 503.095,431.033 497.661,428.217 495.328,426.305 C 492.995,424.393 490.616,423.119 490.043,423.474 C 488.785,424.251 488.647,427.000 489.866,427.000 C 491.531,427.000 489.282,434.821 486.155,439.903 C 481.554,447.380 481.905,449.939 488.669,458.207 C 493.959,464.673 510.774,479.028 515.672,481.260 C 517.078,481.901 518.841,481.911 520.672,481.288 C 524.194,480.091 529.060,481.304 531.486,483.985 C 533.970,486.729 534.312,486.516 532.663,483.250 Z" fill="#53bcc1" stroke="black" stroke-width="0.5" fill-rule="evenodd"/>
</svg>
