<?xml version='1.0' encoding='UTF-8'?>
<svg version="1.1" xmlns="http://www.w3.org/2000/svg" width="1000" height="600" viewBox="0 0 1000 600">
  <path d="M 473.169,481.384 C 478.947,482.539 483.391,480.374 493.176,471.636 C 513.029,453.906 513.000,453.940 513.000,448.734 C 513.000,444.975 512.416,443.405 509.994,440.646 C 503.942,433.753 493.612,431.774 487.594,436.356 C 485.892,437.651 482.475,439.741 480.000,441.000 C 473.041,444.539 469.435,447.660 462.851,455.845 C 453.827,467.063 453.864,466.857 459.900,472.503 C 465.174,477.436 466.424,481.133 463.750,483.888 C 463.062,484.597 464.202,484.183 466.283,482.970 C 469.003,481.383 470.938,480.938 473.169,481.384 Z" fill="#53bcc1" stroke="black" stroke-width="0.5" fill-rule="evenodd"/>
</svg>
