<?xml version='1.0' encoding='UTF-8'?>
<svg version="1.1" xmlns="http://www.w3.org/2000/svg" width="1000" height="600" viewBox="0 0 1000 600">
  <path d="M 554.780,323.450 C 559.116,318.190 560.377,312.971 560.203,301.000 C 560.006,287.475 558.512,282.064 552.498,273.100 L 547.598,265.797 L 540.832,266.179 C 535.031,266.507 533.642,266.969 531.082,269.421 C 529.440,270.994 527.801,273.680 527.438,275.391 C 527.076,277.101 525.479,281.585 523.890,285.355 C 520.461,293.489 520.372,294.703 523.007,297.507 C 524.110,298.682 526.923,302.388 529.257,305.742 C 533.216,311.434 541.222,321.527 545.946,326.785 C 548.425,329.544 550.359,328.814 554.780,323.450 Z" fill="#1f93c0" stroke="black" stroke-width="0.5" fill-rule="evenodd"/>
</svg>
