<?xml version='1.0' encoding='UTF-8'?>
<svg version="1.1" xmlns="http://www.w3.org/2000/svg" width="1000" height="600" viewBox="0 0 1000 600">
  <path d="M 563.607,328.842 C 564.766,327.554 566.509,324.925 567.482,323.000 C 568.454,321.075 569.974,318.150 570.860,316.500 C 571.754,314.835 572.449,311.276 572.423,308.500 C 572.351,300.854 569.175,286.288 566.339,280.598 C 562.904,273.706 555.337,265.993 552.038,266.022 C 548.302,266.054 541.380,269.486 539.644,272.166 C 538.005,274.697 533.999,289.091 534.002,292.438 C 534.005,295.099 539.214,305.104 543.928,311.500 C 545.954,314.250 548.815,318.678 550.286,321.339 C 551.756,324.001 554.206,327.646 555.730,329.440 C 558.741,332.986 559.962,332.893 563.607,328.842 Z" fill="#1f93c0" stroke="black" stroke-width="0.5" fill-rule="evenodd"/>
</svg>
