<?xml version='1.0' encoding='UTF-8'?>
<svg version="1.1" xmlns="http://www.w3.org/2000/svg" width="1000" height="600" viewBox="0 0 1000 600">
  <path d="M 575.904,349.735 C 577.226,349.056 579.219,347.272 580.334,345.770 C 582.178,343.286 582.260,342.501 581.249,337.065 C 579.530,327.822 572.782,314.397 566.706,308.133 C 556.949,298.074 538.920,292.718 522.128,294.890 C 513.950,295.948 511.970,297.054 513.960,299.452 C 514.662,300.298 515.008,301.861 514.730,302.925 C 514.020,305.639 517.614,308.696 523.607,310.476 C 526.369,311.296 531.868,314.409 535.950,317.462 C 542.196,322.136 544.481,324.762 551.039,334.813 C 555.774,342.069 560.072,347.491 562.134,348.811 C 565.920,351.235 572.170,351.654 575.904,349.735 Z" fill="#9e0142" stroke="black" stroke-width="0.5" fill-rule="evenodd"/>
</svg>
