<?xml version='1.0' encoding='UTF-8'?>
<svg version="1.1" xmlns="http://www.w3.org/2000/svg" width="1000" height="600" viewBox="0 0 1000 600">
  <path d="M 473.645,283.139 C 475.552,283.607 480.103,280.490 481.860,277.513 C 482.888,275.770 484.047,271.389 484.433,267.779 C 484.863,263.763 486.086,259.522 487.583,256.857 C 488.929,254.461 491.172,250.028 492.568,247.007 L 495.105,241.513 L 491.722,235.007 C 488.233,228.296 483.492,224.000 479.575,224.000 C 473.520,224.000 467.578,234.545 466.602,247.022 C 466.280,251.135 465.740,257.718 465.400,261.651 C 464.955,266.810 465.259,270.711 466.492,275.651 C 468.461,283.546 469.659,285.528 471.527,283.977 C 472.222,283.401 473.174,283.024 473.645,283.139 Z" fill="#9e0142" stroke="black" stroke-width="0.5" fill-rule="evenodd"/>
</svg>
