<?xml version='1.0' encoding='UTF-8'?>
<svg version="1.1" xmlns="http://www.w3.org/2000/svg" width="1000" height="600" viewBox="0 0 1000 600">
  <path d="M 513.000,388.926 C 517.124,386.839 528.069,375.798 530.275,371.500 C 536.028,360.293 537.821,355.278 537.604,351.000 C 537.400,346.990 533.398,336.150 530.559,331.922 C 528.579,328.970 507.725,309.909 504.851,308.423 C 500.833,306.345 488.374,304.907 485.116,306.146 C 480.933,307.736 472.271,314.873 467.975,320.269 C 462.321,327.370 461.772,330.405 462.589,350.048 L 463.292,366.956 L 468.085,373.228 C 477.698,385.807 477.036,385.289 487.143,388.129 C 498.309,391.266 507.799,391.559 513.000,388.926 Z" fill="#3286bc" stroke="black" stroke-width="0.5" fill-rule="evenodd"/>
</svg>
