<?xml version='1.0' encoding='UTF-8'?>
<svg version="1.1" xmlns="http://www.w3.org/2000/svg" width="1000" height="600" viewBox="0 0 1000 600">
  <path d="M 513.658,388.359 C 522.304,385.790 522.305,385.789 530.501,374.000 C 531.839,372.075 533.669,369.497 534.567,368.272 C 535.663,366.778 536.479,362.577 537.043,355.519 C 537.507,349.730 538.186,344.508 538.552,343.915 C 539.580,342.253 536.944,326.931 534.955,323.000 C 532.601,318.350 528.958,315.124 520.390,310.104 L 513.280,305.938 L 505.890,307.081 C 492.935,309.084 488.895,311.190 478.070,321.579 C 465.377,333.763 462.000,339.746 462.000,350.053 C 462.000,357.082 462.184,357.634 467.482,366.513 C 471.275,372.870 475.415,378.042 480.917,383.299 C 488.749,390.781 488.958,390.901 494.685,391.232 C 501.828,391.645 503.403,391.406 513.658,388.359 Z" fill="#3286bc" stroke="black" stroke-width="0.5" fill-rule="evenodd"/>
</svg>
