<?xml version='1.0' encoding='UTF-8'?>
<svg version="1.1" xmlns="http://www.w3.org/2000/svg" width="1000" height="600" viewBox="0 0 1000 600">
  <path d="M 537.197,325.117 C 540.833,322.821 544.510,319.871 545.368,318.562 C 547.642,315.091 548.782,305.657 548.033,296.500 C 547.507,290.067 546.825,287.666 544.553,284.245 C 540.544,278.207 527.509,267.115 521.084,264.274 C 515.788,261.931 515.521,261.911 511.299,263.524 C 506.741,265.264 504.372,268.455 502.938,274.787 C 502.258,277.789 503.341,288.973 505.960,306.000 C 506.510,309.575 506.969,313.017 506.980,313.650 C 507.018,315.852 515.031,325.468 518.752,327.779 C 524.031,331.057 528.905,330.354 537.197,325.117 Z" fill="#3286bc" stroke="black" stroke-width="0.5" fill-rule="evenodd"/>
</svg>
