<?xml version='1.0' encoding='UTF-8'?>
<svg version="1.1" xmlns="http://www.w3.org/2000/svg" width="1000" height="600" viewBox="0 0 1000 600">
  <path d="M 439.335,385.388 C 445.927,383.193 448.123,381.852 453.107,376.975 C 456.368,373.784 459.937,369.137 461.038,366.648 C 463.130,361.917 465.238,348.785 464.298,346.335 C 463.999,345.554 462.056,344.049 459.982,342.991 C 457.908,341.933 453.012,338.252 449.102,334.811 C 442.575,329.068 442.040,328.303 442.570,325.481 C 443.466,320.702 440.571,314.686 436.205,312.253 C 432.651,310.273 432.028,310.241 420.871,311.466 C 411.548,312.490 408.211,313.305 404.047,315.571 C 398.026,318.848 396.950,320.211 390.288,333.000 C 387.566,338.225 383.301,345.527 380.810,349.227 C 375.022,357.823 373.935,364.344 377.068,371.669 C 380.820,380.439 384.559,383.130 395.500,384.933 C 399.350,385.568 404.300,386.466 406.500,386.928 C 408.700,387.391 415.223,387.822 420.997,387.885 C 429.843,387.982 432.726,387.589 439.335,385.388 Z" fill="#fefebe" stroke="black" stroke-width="0.5" fill-rule="evenodd"/>
</svg>
