<?xml version='1.0' encoding='UTF-8'?>
<svg version="1.1" xmlns="http://www.w3.org/2000/svg" width="1000" height="600" viewBox="0 0 1000 600">
  <path d="M 581.901,397.551 C 588.935,393.914 595.759,382.385 596.673,372.596 C 597.162,367.358 596.794,364.875 594.491,357.897 C 589.344,342.301 586.306,337.316 571.703,320.500 C 561.658,308.933 555.208,303.709 546.450,300.053 C 537.582,296.349 518.599,291.633 515.597,292.386 C 511.467,293.423 509.800,303.085 512.471,310.500 C 513.264,312.700 513.932,315.977 513.956,317.783 C 513.980,319.589 515.189,323.412 516.641,326.279 C 518.949,330.832 519.153,331.975 518.258,335.327 C 517.461,338.314 517.563,339.821 518.720,342.140 C 519.667,344.039 519.990,346.455 519.613,348.809 C 517.772,360.278 517.765,361.097 519.470,365.562 C 520.555,368.401 520.976,371.316 520.595,373.347 C 520.076,376.111 520.470,377.058 523.243,379.721 C 528.075,384.360 535.830,386.000 552.940,386.000 C 566.566,386.000 567.180,386.089 569.505,388.414 C 570.832,389.742 572.189,391.903 572.519,393.218 C 572.849,394.533 574.329,396.360 575.809,397.278 C 579.093,399.315 578.539,399.290 581.901,397.551 Z" fill="#fefebe" stroke="black" stroke-width="0.5" fill-rule="evenodd"/>
</svg>
