<?xml version='1.0' encoding='UTF-8'?>
<svg version="1.1" xmlns="http://www.w3.org/2000/svg" width="1000" height="600" viewBox="0 0 1000 600">
  <path d="M 422.791,399.434 C 424.021,398.573 425.888,396.180 426.940,394.117 C 430.016,388.088 430.935,387.717 443.795,387.313 C 458.875,386.839 466.377,385.498 472.536,382.177 C 476.891,379.828 477.532,379.071 477.763,376.000 C 477.907,374.075 478.725,369.888 479.580,366.695 C 481.120,360.943 480.814,355.798 478.782,353.274 C 478.223,352.580 478.076,349.978 478.444,347.274 C 478.801,344.648 479.240,340.001 479.419,336.947 C 479.598,333.893 480.458,330.015 481.329,328.330 C 482.200,326.646 483.340,322.617 483.862,319.379 C 484.383,316.141 485.723,310.894 486.838,307.720 L 488.867,301.948 L 486.539,296.684 C 483.547,289.918 481.979,288.634 477.791,289.518 C 462.326,292.781 446.087,299.600 435.888,307.114 C 429.037,312.161 422.211,321.052 418.276,330.054 C 417.181,332.559 414.614,336.798 412.571,339.475 C 404.409,350.168 399.297,364.267 400.317,373.271 C 400.643,376.147 401.395,380.164 401.988,382.199 C 403.887,388.716 415.331,400.981 419.527,400.996 C 420.093,400.998 421.561,400.295 422.791,399.434 Z" fill="#fefebe" stroke="black" stroke-width="0.5" fill-rule="evenodd"/>
</svg>
