<?xml version='1.0' encoding='UTF-8'?>
<svg version="1.1" xmlns="http://www.w3.org/2000/svg" width="1000" height="600" viewBox="0 0 1000 600">
  <path d="M 448.843,379.306 C 455.146,377.089 457.481,375.618 462.047,370.989 C 468.970,363.968 473.000,355.826 473.000,348.855 C 473.000,344.160 472.670,343.454 468.750,339.766 C 452.163,324.161 451.288,323.076 450.700,317.385 C 450.384,314.321 449.253,310.760 448.068,309.095 C 446.215,306.493 445.313,306.139 439.745,305.827 C 432.684,305.431 421.389,307.230 417.138,309.429 C 415.575,310.237 413.488,312.158 412.499,313.699 C 411.510,315.239 408.714,318.979 406.285,322.009 C 403.856,325.039 400.646,330.214 399.150,333.509 C 397.655,336.804 394.984,341.726 393.215,344.446 C 391.447,347.166 390.000,349.963 390.000,350.662 C 390.000,351.361 389.248,353.508 388.330,355.435 C 386.709,358.834 386.740,359.142 389.372,365.852 C 390.865,369.656 392.854,373.448 393.793,374.280 C 394.732,375.112 401.350,377.008 408.500,378.492 C 415.650,379.977 421.688,381.374 421.917,381.596 C 422.146,381.818 426.575,382.000 431.759,382.000 C 439.433,382.000 442.609,381.499 448.843,379.306 Z" fill="#fefebe" stroke="black" stroke-width="0.5" fill-rule="evenodd"/>
</svg>
