<?xml version='1.0' encoding='UTF-8'?>
<svg version="1.1" xmlns="http://www.w3.org/2000/svg" width="1000" height="600" viewBox="0 0 1000 600">
  <path d="M 557.379,395.615 C 562.866,393.322 570.643,382.452 579.282,365.000 C 582.062,359.384 582.546,357.249 582.845,349.297 C 583.154,341.060 582.913,339.490 580.555,334.339 C 575.517,323.335 569.342,317.672 565.395,320.436 C 562.259,322.632 556.350,332.124 554.461,338.000 C 553.489,341.025 552.047,344.494 551.258,345.709 C 550.341,347.122 550.060,348.997 550.480,350.910 C 551.486,355.489 547.859,362.422 540.740,369.526 C 531.644,378.604 528.306,387.389 531.872,392.866 C 534.060,396.226 551.435,398.099 557.379,395.615 Z" fill="#d33c4e" stroke="black" stroke-width="0.5" fill-rule="evenodd"/>
</svg>
