<?xml version='1.0' encoding='UTF-8'?>
<svg version="1.1" xmlns="http://www.w3.org/2000/svg" width="1000" height="600" viewBox="0 0 1000 600">
  <path d="M 481.290,267.870 C 483.605,266.698 485.947,265.011 486.493,264.120 C 489.730,258.840 491.086,245.986 488.988,240.469 C 487.384,236.249 480.900,228.910 476.054,225.828 C 472.220,223.389 470.605,223.000 464.315,223.000 C 455.561,223.000 449.069,225.218 441.878,230.665 C 436.058,235.075 432.993,240.277 433.015,245.710 C 433.038,251.398 434.037,252.365 439.139,251.642 C 443.986,250.955 451.266,252.299 451.828,253.984 C 452.913,257.240 458.249,261.613 465.888,265.508 C 470.625,267.923 475.080,269.922 475.790,269.949 C 476.499,269.977 478.974,269.041 481.290,267.870 Z" fill="#d33c4e" stroke="black" stroke-width="0.5" fill-rule="evenodd"/>
</svg>
