<?xml version='1.0' encoding='UTF-8'?>
<svg version="1.1" xmlns="http://www.w3.org/2000/svg" width="1000" height="600" viewBox="0 0 1000 600">
  <path d="M 546.216,387.288 C 549.926,383.633 551.000,381.865 551.000,379.413 C 551.000,377.674 551.606,374.507 552.346,372.376 C 553.457,369.177 553.465,367.976 552.391,365.500 C 551.676,363.850 551.067,361.600 551.039,360.500 C 551.009,359.359 549.702,357.769 547.994,356.797 C 545.882,355.595 545.000,354.333 545.000,352.511 C 545.000,350.269 544.746,350.066 543.066,350.965 C 542.002,351.534 538.930,352.000 536.240,352.000 C 530.231,352.000 527.873,354.151 525.126,362.135 C 524.077,365.182 522.524,369.020 521.673,370.666 C 519.861,374.170 520.701,383.727 523.074,386.594 C 525.339,389.331 532.107,391.954 536.966,391.978 C 540.957,391.998 541.939,391.500 546.216,387.288 Z" fill="#f46d43" stroke="black" stroke-width="0.5" fill-rule="evenodd"/>
</svg>
