<?xml version='1.0' encoding='UTF-8'?>
<svg version="1.1" xmlns="http://www.w3.org/2000/svg" width="1000" height="600" viewBox="0 0 1000 600">
  <path d="M 596.409,309.500 C 599.939,305.971 600.604,301.077 598.490,294.199 C 596.379,287.333 584.844,266.346 580.197,260.917 C 576.870,257.030 566.457,250.513 561.249,249.059 C 556.394,247.703 549.333,252.639 543.087,261.754 C 541.423,264.183 540.595,267.505 539.824,274.850 C 538.560,286.872 539.282,288.722 547.688,295.007 C 550.885,297.397 555.075,300.547 557.000,302.007 C 561.973,305.780 568.859,308.035 581.500,310.032 C 587.550,310.988 592.817,311.822 593.205,311.885 C 593.592,311.948 595.034,310.875 596.409,309.500 Z" fill="#fcac60" stroke="black" stroke-width="0.5" fill-rule="evenodd"/>
</svg>
