<?xml version='1.0' encoding='UTF-8'?>
<svg version="1.1" xmlns="http://www.w3.org/2000/svg" width="1000" height="600" viewBox="0 0 1000 600">
  <path d="M 417.697,309.989 C 427.988,308.708 439.028,305.230 442.322,302.231 C 443.520,301.140 446.300,299.128 448.500,297.761 C 450.700,296.393 454.413,293.413 456.750,291.138 C 461.478,286.537 461.621,285.754 459.997,273.254 C 458.845,264.381 457.323,261.324 450.615,254.398 C 444.241,247.817 441.649,247.514 432.261,252.250 C 422.868,256.989 418.974,260.775 412.783,271.194 C 402.143,289.099 399.465,295.948 400.475,302.681 C 401.183,307.400 404.572,311.954 407.000,311.447 C 407.825,311.274 412.638,310.618 417.697,309.989 Z" fill="#fcac60" stroke="black" stroke-width="0.5" fill-rule="evenodd"/>
</svg>
