<?xml version='1.0' encoding='UTF-8'?>
<svg version="1.1" xmlns="http://www.w3.org/2000/svg" width="1000" height="600" viewBox="0 0 1000 600">
  <path d="M 523.029,387.485 C 525.247,386.338 527.110,383.733 530.019,377.711 C 532.200,373.195 535.785,366.350 537.987,362.500 C 540.188,358.650 543.793,350.775 545.997,345.000 C 548.202,339.225 551.594,331.293 553.537,327.374 C 560.353,313.621 560.192,312.393 550.326,302.887 C 542.644,295.485 530.881,289.114 522.784,287.969 C 515.089,286.882 494.518,287.901 492.363,289.477 C 490.931,290.523 490.920,290.949 492.251,293.572 C 493.108,295.261 494.036,301.103 494.444,307.374 C 495.099,317.464 496.033,321.206 499.627,328.154 C 501.404,331.589 501.366,335.189 499.507,339.638 C 498.685,341.604 498.243,343.584 498.523,344.038 C 498.804,344.492 497.701,348.217 496.073,352.316 C 489.980,367.655 486.814,378.784 487.943,380.894 C 488.525,381.980 489.000,383.948 489.000,385.268 C 489.000,386.587 489.188,387.854 489.417,388.083 C 489.646,388.312 496.622,388.624 504.919,388.775 C 517.045,388.995 520.597,388.742 523.029,387.485 Z" fill="#fcac60" stroke="black" stroke-width="0.5" fill-rule="evenodd"/>
</svg>
