<?xml version='1.0' encoding='UTF-8'?>
<svg version="1.1" xmlns="http://www.w3.org/2000/svg" width="1000" height="600" viewBox="0 0 1000 600">
  <path d="M 511.118,384.487 C 511.467,382.339 512.255,380.415 512.869,380.210 C 513.673,379.942 513.685,379.280 512.911,377.833 C 512.320,376.730 510.562,371.928 509.003,367.164 C 507.444,362.399 505.011,355.710 503.596,352.300 C 502.182,348.890 501.294,345.397 501.624,344.537 C 501.954,343.678 501.764,342.418 501.201,341.737 C 500.639,341.057 499.858,338.784 499.466,336.686 C 498.770,332.960 499.455,330.423 503.567,321.500 C 504.327,319.850 505.236,313.775 505.586,308.000 C 505.937,302.225 506.848,296.193 507.612,294.596 C 510.589,288.369 509.360,287.909 489.160,287.681 L 475.339,287.525 L 464.871,292.677 C 456.078,297.005 453.335,298.962 447.725,304.908 C 441.628,311.372 441.100,312.270 441.652,315.244 C 441.985,317.035 443.556,320.816 445.142,323.646 C 446.729,326.476 449.772,333.451 451.905,339.146 C 457.007,352.770 461.104,361.690 465.245,368.192 C 467.105,371.111 469.713,376.136 471.041,379.357 C 474.970,388.884 475.580,389.129 494.421,388.731 L 510.484,388.392 L 511.118,384.487 Z" fill="#fcac60" stroke="black" stroke-width="0.5" fill-rule="evenodd"/>
</svg>
