<?xml version='1.0' encoding='UTF-8'?>
<svg version="1.1" xmlns="http://www.w3.org/2000/svg" width="1000" height="600" viewBox="0 0 1000 600">
  <path d="M 509.157,388.911 C 511.297,387.772 512.213,377.224 510.366,374.985 C 509.678,374.152 508.671,371.677 508.128,369.485 C 504.871,356.352 502.833,351.165 500.354,349.700 C 498.533,348.625 498.635,344.548 500.522,342.982 C 501.866,341.866 501.808,341.554 500.022,340.303 C 497.290,338.389 497.341,331.018 500.128,325.000 C 502.126,320.686 502.695,317.146 503.351,304.951 C 503.523,301.756 504.466,298.020 505.574,296.144 L 507.499,292.885 L 505.012,291.009 C 501.724,288.529 498.042,287.924 486.292,287.932 C 475.138,287.940 468.071,289.521 457.642,294.339 C 450.248,297.755 439.005,306.840 435.643,312.115 L 433.785,315.029 L 440.798,329.765 C 444.654,337.869 449.713,348.878 452.038,354.228 C 454.947,360.920 457.969,365.914 461.719,370.228 C 464.718,373.678 468.930,379.499 471.080,383.165 C 473.230,386.830 475.554,390.085 476.244,390.397 C 478.122,391.245 507.241,389.931 509.157,388.911 Z" fill="#fcac60" stroke="black" stroke-width="0.5" fill-rule="evenodd"/>
</svg>
