<?xml version='1.0' encoding='UTF-8'?>
<svg version="1.1" xmlns="http://www.w3.org/2000/svg" width="1000" height="600" viewBox="0 0 1000 600">
  <path d="M 524.947,389.053 C 526.018,387.982 527.654,385.620 528.584,383.803 C 530.510,380.040 534.757,374.333 539.974,368.500 C 541.997,366.239 545.868,359.283 548.880,352.500 C 551.811,345.900 556.927,334.918 560.249,328.096 L 566.289,315.693 L 564.541,312.447 C 562.013,307.752 550.769,298.412 542.836,294.418 C 533.098,289.513 526.133,287.936 514.221,287.938 C 503.598,287.939 497.832,288.940 494.525,291.358 C 492.647,292.731 492.647,292.812 494.498,295.629 C 495.572,297.263 496.491,300.654 496.631,303.500 C 497.291,316.923 497.893,320.870 499.870,324.745 C 502.501,329.902 502.758,338.099 500.364,340.493 C 499.144,341.714 499.017,342.417 499.864,343.264 C 501.642,345.042 501.197,348.824 499.077,349.959 C 497.257,350.933 492.000,364.708 492.000,368.504 C 492.000,369.381 491.249,371.539 490.332,373.300 C 488.561,376.699 488.430,385.066 490.099,388.185 C 491.059,389.980 494.014,390.293 514.750,390.799 C 521.758,390.970 523.293,390.707 524.947,389.053 Z" fill="#fcac60" stroke="black" stroke-width="0.5" fill-rule="evenodd"/>
</svg>
