<?xml version='1.0' encoding='UTF-8'?>
<svg version="1.1" xmlns="http://www.w3.org/2000/svg" width="1000" height="600" viewBox="0 0 1000 600">
  <path d="M 540.330,379.989 C 541.523,378.805 544.413,376.521 546.750,374.912 C 551.443,371.682 551.706,370.601 549.552,363.365 C 548.755,360.689 547.184,355.350 546.060,351.500 C 544.936,347.650 543.001,342.865 541.758,340.866 C 536.403,332.250 533.886,329.000 532.569,329.000 C 531.796,329.000 530.250,327.523 529.135,325.718 C 527.435,322.968 526.131,322.220 521.090,321.101 C 515.203,319.795 514.971,319.826 510.287,322.522 C 507.654,324.038 504.741,325.934 503.813,326.737 C 502.885,327.539 501.582,327.859 500.916,327.448 C 499.993,326.878 499.895,327.864 500.501,331.600 C 500.938,334.295 501.341,340.325 501.398,345.000 C 501.520,355.150 503.257,360.513 509.822,371.000 C 516.108,381.042 520.316,383.376 530.830,382.649 C 536.555,382.253 538.635,381.671 540.330,379.989 Z" fill="#fee08b" stroke="black" stroke-width="0.5" fill-rule="evenodd"/>
</svg>
