<?xml version='1.0' encoding='UTF-8'?>
<svg version="1.1" xmlns="http://www.w3.org/2000/svg" width="1000" height="600" viewBox="0 0 1000 600">
  <path d="M 484.968,379.662 C 487.206,378.608 495.300,365.811 498.037,359.000 C 498.589,357.625 499.539,355.524 500.146,354.331 C 500.795,353.058 500.981,350.362 500.598,347.805 C 499.964,343.579 501.101,332.312 502.522,328.739 C 503.034,327.452 502.833,327.127 501.777,327.532 C 500.981,327.837 497.961,326.493 495.065,324.544 C 491.665,322.256 488.623,321.000 486.481,321.000 C 484.657,321.000 482.448,320.725 481.573,320.390 C 480.477,319.969 477.303,322.383 471.381,328.140 C 461.722,337.529 455.280,346.608 454.499,351.932 C 454.211,353.894 453.215,358.829 452.284,362.898 L 450.592,370.296 L 453.719,372.898 C 455.438,374.329 459.693,376.991 463.173,378.813 C 469.062,381.897 469.950,382.081 476.000,381.475 C 479.575,381.117 483.610,380.301 484.968,379.662 Z" fill="#fee08b" stroke="black" stroke-width="0.5" fill-rule="evenodd"/>
</svg>
