<?xml version='1.0' encoding='UTF-8'?>
<svg version="1.1" xmlns="http://www.w3.org/2000/svg" width="1000" height="600" viewBox="0 0 1000 600">
  <path d="M 368.411,449.201 C 373.705,445.545 376.372,440.051 376.838,431.841 C 377.323,423.289 376.106,419.799 368.653,408.364 C 362.587,399.057 362.513,398.989 355.526,396.332 C 351.662,394.863 344.568,391.754 339.763,389.423 C 328.407,383.915 320.697,382.641 302.081,383.198 C 286.302,383.670 283.051,384.578 279.088,389.615 C 276.742,392.597 276.372,397.812 278.130,403.101 C 279.801,408.127 287.610,415.714 295.000,419.492 C 298.575,421.319 304.269,425.218 307.654,428.157 C 314.161,433.807 317.053,435.426 337.000,444.586 C 357.429,453.968 360.794,454.462 368.411,449.201 Z" fill="#db5b67" stroke="black" stroke-width="0.5" fill-rule="evenodd"/>
</svg>
