<?xml version='1.0' encoding='UTF-8'?>
<svg version="1.1" xmlns="http://www.w3.org/2000/svg" width="1000" height="600" viewBox="0 0 1000 600">
  <path d="M 567.043,189.478 C 570.317,187.785 571.294,185.199 573.975,171.133 C 575.054,165.467 577.039,157.606 578.386,153.665 C 579.732,149.724 581.367,142.913 582.019,138.528 C 582.671,134.143 584.058,128.389 585.102,125.741 C 588.220,117.831 587.772,116.041 581.074,109.652 C 575.380,104.220 574.941,104.001 569.824,104.022 C 562.148,104.054 557.289,106.688 550.279,114.621 C 546.936,118.404 541.412,124.650 538.005,128.500 C 523.982,144.345 516.605,169.401 522.548,181.000 C 524.218,184.259 529.829,189.604 533.000,190.956 C 536.637,192.507 563.435,191.343 567.043,189.478 Z" fill="#db5b67" stroke="black" stroke-width="0.5" fill-rule="evenodd"/>
</svg>
