<?xml version='1.0' encoding='UTF-8'?>
<svg version="1.1" xmlns="http://www.w3.org/2000/svg" width="1000" height="600" viewBox="0 0 1000 600">
  <path d="M 655.138,446.000 C 663.803,442.150 671.235,439.000 671.653,439.000 C 672.823,439.000 683.964,431.086 689.000,426.678 C 691.475,424.511 696.200,421.506 699.500,420.000 C 706.708,416.710 714.762,409.814 716.637,405.327 C 719.861,397.609 717.307,388.855 710.794,385.299 C 707.968,383.756 704.940,383.500 689.500,383.500 C 669.691,383.500 668.657,383.708 652.000,391.032 C 631.405,400.087 632.899,399.035 626.215,409.205 C 618.761,420.549 617.863,422.835 617.815,430.604 C 617.755,440.281 621.747,447.395 629.500,451.427 C 634.757,454.162 638.600,453.348 655.138,446.000 Z" fill="#db5b67" stroke="black" stroke-width="0.5" fill-rule="evenodd"/>
</svg>
