<?xml version='1.0' encoding='UTF-8'?>
<svg version="1.1" xmlns="http://www.w3.org/2000/svg" width="1000" height="600" viewBox="0 0 1000 600">
  <path d="M 661.501,444.968 C 669.887,441.136 677.148,438.000 677.638,438.000 C 678.801,438.000 689.323,430.675 696.122,425.131 C 699.069,422.728 703.735,419.744 706.490,418.500 C 712.023,416.001 720.298,408.068 721.943,403.685 C 724.651,396.472 721.754,388.139 715.463,385.042 C 711.427,383.055 687.200,382.379 677.124,383.971 C 671.889,384.799 666.367,386.671 659.500,389.948 C 654.000,392.573 646.727,395.723 643.337,396.949 C 637.329,399.123 637.018,399.418 630.978,408.693 C 623.689,419.885 622.603,423.199 623.252,432.269 C 623.876,440.999 627.543,447.302 634.000,450.743 C 640.139,454.015 643.037,453.406 661.501,444.968 Z" fill="#db5b67" stroke="black" stroke-width="0.5" fill-rule="evenodd"/>
</svg>
