<?xml version='1.0' encoding='UTF-8'?>
<svg version="1.1" xmlns="http://www.w3.org/2000/svg" width="1000" height="600" viewBox="0 0 1000 600">
  <path d="M 466.183,190.966 C 471.286,189.549 478.521,181.398 479.366,176.115 C 481.410,163.329 472.961,140.885 461.065,127.500 C 457.643,123.650 452.208,117.528 448.986,113.895 C 441.643,105.613 437.731,103.634 429.834,104.206 C 424.259,104.609 423.635,104.929 418.468,110.032 C 412.552,115.874 411.738,118.659 414.425,123.856 C 415.209,125.372 416.817,131.729 417.997,137.983 C 419.177,144.237 421.018,151.637 422.087,154.427 C 423.156,157.217 424.938,164.608 426.047,170.852 C 428.563,185.019 430.763,189.704 435.247,190.448 C 444.714,192.017 461.392,192.297 466.183,190.966 Z" fill="#db5b67" stroke="black" stroke-width="0.5" fill-rule="evenodd"/>
</svg>
