<?xml version='1.0' encoding='UTF-8'?>
<svg version="1.1" xmlns="http://www.w3.org/2000/svg" width="1000" height="600" viewBox="0 0 1000 600">
  <path d="M 590.682,537.912 C 596.102,535.288 601.417,529.150 603.480,523.133 C 607.973,510.025 607.418,484.988 602.399,474.378 C 599.413,468.065 585.807,455.516 577.620,451.523 C 570.270,447.938 554.997,446.284 542.618,447.732 C 531.581,449.024 527.519,450.843 525.304,455.488 C 523.808,458.627 523.810,459.215 525.342,463.225 C 526.254,465.612 529.971,471.597 533.602,476.524 C 539.703,484.803 547.246,498.938 552.005,511.013 C 558.124,526.536 562.578,531.638 575.105,537.469 C 581.689,540.534 585.067,540.630 590.682,537.912 Z" fill="#5201a3" stroke="black" stroke-width="0.5" fill-rule="evenodd"/>
</svg>
