<?xml version='1.0' encoding='UTF-8'?>
<svg version="1.1" xmlns="http://www.w3.org/2000/svg" width="1000" height="600" viewBox="0 0 1000 600">
  <path d="M 626.598,277.132 C 630.026,276.130 642.000,264.888 642.000,262.670 C 642.000,261.898 643.787,260.083 645.972,258.637 C 648.157,257.191 650.699,254.544 651.621,252.754 C 652.543,250.964 655.255,246.635 657.648,243.134 C 661.529,237.456 661.998,236.158 661.978,231.134 C 661.950,223.945 659.430,218.380 654.161,213.870 C 647.903,208.513 644.540,207.767 624.388,207.265 C 603.047,206.733 598.117,207.646 585.186,214.525 C 574.904,219.995 569.819,223.942 566.814,228.788 C 564.892,231.887 564.522,233.822 564.575,240.500 C 564.610,244.900 565.178,250.377 565.837,252.672 C 567.327,257.861 573.552,265.404 581.809,272.027 C 586.947,276.148 589.174,277.255 593.809,277.992 C 600.370,279.037 622.021,278.469 626.598,277.132 Z" fill="#5201a3" stroke="black" stroke-width="0.5" fill-rule="evenodd"/>
</svg>
