<?xml version='1.0' encoding='UTF-8'?>
<svg version="1.1" xmlns="http://www.w3.org/2000/svg" width="1000" height="600" viewBox="0 0 1000 600">
  <path d="M 577.418,258.058 C 578.364,255.614 580.004,252.399 581.062,250.913 C 584.034,246.739 585.881,232.037 586.768,205.500 C 587.500,183.620 587.768,181.092 589.811,176.882 C 591.615,173.161 591.851,171.740 591.025,169.567 C 589.419,165.341 589.790,162.166 592.718,155.078 C 595.185,149.110 595.435,147.341 595.421,136.000 C 595.401,120.143 594.216,115.931 588.037,109.752 C 583.982,105.696 582.715,105.003 579.393,105.018 C 575.238,105.038 561.865,110.131 554.248,114.595 C 548.006,118.253 537.583,128.906 531.527,137.818 C 526.633,145.020 526.553,145.260 526.544,152.818 C 526.536,158.793 527.016,161.409 528.705,164.589 C 529.899,166.837 531.978,172.589 533.324,177.371 C 534.671,182.152 537.001,187.837 538.502,190.004 C 540.004,192.170 541.831,196.800 542.563,200.292 C 544.475,209.415 547.844,217.846 550.048,219.026 C 551.260,219.674 552.916,223.145 554.618,228.605 C 556.917,235.977 558.311,238.420 564.657,246.192 C 569.729,252.405 572.376,256.607 573.148,259.674 C 574.403,264.656 574.944,264.451 577.418,258.058 Z" fill="#eff821" stroke="black" stroke-width="0.5" fill-rule="evenodd"/>
</svg>
