<?xml version='1.0' encoding='UTF-8'?>
<svg version="1.1" xmlns="http://www.w3.org/2000/svg" width="1000" height="600" viewBox="0 0 1000 600">
  <path d="M 365.826,386.453 C 372.152,383.922 378.964,375.792 382.237,366.869 C 384.354,361.097 386.684,357.377 392.517,350.453 C 396.666,345.529 401.863,338.575 404.066,335.000 C 412.726,320.951 417.509,315.196 435.169,297.580 C 451.579,281.211 454.071,279.107 458.947,277.501 L 464.394,275.708 L 460.502,272.441 C 454.474,267.380 444.409,265.639 424.406,266.197 C 409.398,266.616 408.063,266.819 400.762,269.786 C 396.505,271.515 388.429,274.064 382.814,275.450 C 372.345,278.034 349.382,288.690 344.000,293.462 C 337.965,298.813 328.964,304.997 322.409,308.296 C 313.405,312.828 303.044,321.650 297.578,329.439 C 289.130,341.477 281.964,361.842 283.544,369.321 C 284.931,375.883 287.866,377.565 303.886,380.981 C 309.049,382.081 313.774,383.380 314.386,383.868 C 315.334,384.622 330.029,387.039 342.000,388.409 C 348.701,389.177 361.683,388.111 365.826,386.453 Z" fill="#eff821" stroke="black" stroke-width="0.5" fill-rule="evenodd"/>
</svg>
