<?xml version='1.0' encoding='UTF-8'?>
<svg version="1.1" xmlns="http://www.w3.org/2000/svg" width="1000" height="600" viewBox="0 0 1000 600">
  <path d="M 571.000,261.920 C 571.000,261.392 572.785,257.256 574.967,252.729 C 580.104,242.075 580.944,236.539 581.905,207.000 C 582.630,184.733 582.910,182.021 584.979,177.240 C 587.037,172.483 587.135,171.555 586.007,167.525 C 584.855,163.409 584.970,162.552 587.518,156.285 C 592.356,144.386 592.048,120.541 586.947,112.154 C 584.440,108.031 579.395,105.008 575.014,105.004 C 573.097,105.002 569.272,106.090 566.514,107.422 C 563.756,108.755 557.938,111.507 553.584,113.540 C 544.294,117.876 534.201,127.316 527.078,138.331 C 523.000,144.636 522.625,145.772 522.201,153.097 C 521.781,160.351 521.997,161.567 524.727,167.266 C 526.369,170.695 528.502,176.539 529.468,180.253 C 530.438,183.983 532.467,188.571 534.000,190.500 C 535.527,192.421 537.077,195.682 537.444,197.747 C 539.449,209.016 542.421,217.497 545.279,220.108 C 547.537,222.170 548.661,224.622 550.079,230.573 C 551.500,236.534 552.714,239.178 555.292,241.922 C 561.624,248.663 566.997,256.258 568.147,260.096 C 569.152,263.452 571.000,264.633 571.000,261.920 Z" fill="#eff821" stroke="black" stroke-width="0.5" fill-rule="evenodd"/>
</svg>
