<?xml version='1.0' encoding='UTF-8'?>
<svg version="1.1" xmlns="http://www.w3.org/2000/svg" width="1000" height="600" viewBox="0 0 1000 600">
  <path d="M 630.263,416.592 C 640.945,411.477 642.719,410.213 651.059,401.777 C 657.382,395.381 661.180,390.554 663.450,386.027 C 665.251,382.437 668.014,377.045 669.591,374.045 L 672.458,368.589 L 672.843,339.002 C 673.115,318.109 672.867,307.676 671.999,303.495 C 671.269,299.979 667.488,291.073 662.686,281.560 C 655.736,267.792 653.590,264.489 647.392,258.022 L 640.182,250.500 L 629.336,250.168 C 620.195,249.888 617.662,250.163 613.223,251.912 C 610.314,253.059 601.135,254.892 592.728,256.007 C 571.850,258.774 566.769,259.762 565.833,261.235 C 564.715,262.998 564.801,272.345 565.964,275.404 C 566.494,276.798 569.627,281.336 572.927,285.489 C 576.227,289.642 580.556,295.843 582.547,299.270 C 584.538,302.696 587.867,307.300 589.944,309.500 C 596.312,316.243 607.770,330.996 609.546,334.739 C 611.857,339.608 611.061,346.798 607.639,351.969 C 606.176,354.180 604.354,358.671 603.589,361.951 C 602.823,365.231 601.181,369.341 599.939,371.086 C 597.963,373.861 597.848,374.524 599.017,376.379 C 603.869,384.074 604.334,389.261 600.572,393.732 C 599.135,395.440 591.798,399.822 582.607,404.462 C 568.872,411.396 565.249,414.000 569.337,414.000 C 570.008,414.000 573.906,415.605 577.999,417.567 C 586.569,421.674 595.378,423.059 609.542,422.525 C 618.151,422.201 619.145,421.917 630.263,416.592 Z" fill="#0c0786" stroke="black" stroke-width="0.5" fill-rule="evenodd"/>
</svg>
