<?xml version='1.0' encoding='UTF-8'?>
<svg version="1.1" xmlns="http://www.w3.org/2000/svg" width="1000" height="600" viewBox="0 0 1000 600">
  <path d="M 428.664,417.303 C 433.239,415.211 436.986,413.269 436.991,412.986 C 436.996,412.704 431.156,409.779 424.013,406.486 C 416.870,403.194 408.995,399.033 406.513,397.240 C 402.308,394.203 402.000,393.672 402.000,389.458 C 402.000,384.452 403.832,379.212 406.296,377.168 C 407.739,375.971 407.564,375.498 404.579,372.512 C 402.193,370.126 401.063,367.903 400.572,364.630 C 400.196,362.123 398.505,357.480 396.815,354.312 C 394.487,349.951 393.752,347.298 393.787,343.387 C 393.843,337.168 395.532,333.691 402.901,324.627 C 405.981,320.840 409.362,316.562 410.415,315.120 C 411.469,313.679 414.009,310.700 416.061,308.500 C 418.112,306.300 420.708,302.700 421.830,300.500 C 422.951,298.300 427.268,292.030 431.423,286.566 C 439.260,276.262 440.720,272.650 439.556,266.444 C 438.430,260.443 436.529,259.392 425.404,258.620 C 405.473,257.236 393.977,255.256 390.042,252.529 C 386.696,250.210 385.523,250.003 375.946,250.035 C 369.602,250.057 364.698,250.548 363.458,251.285 C 355.154,256.225 350.091,263.332 339.268,285.242 C 333.190,297.547 332.875,298.554 332.040,308.304 C 331.013,320.291 332.335,364.992 333.859,369.834 C 334.436,371.668 336.144,375.268 337.655,377.834 C 339.165,380.400 341.384,384.525 342.585,387.000 C 343.786,389.475 349.122,396.084 354.443,401.688 C 363.415,411.138 364.600,412.033 370.808,414.045 C 374.489,415.238 379.104,417.242 381.063,418.498 C 386.301,421.854 387.060,421.952 404.423,421.510 L 420.346,421.106 L 428.664,417.303 Z" fill="#0c0786" stroke="black" stroke-width="0.5" fill-rule="evenodd"/>
</svg>
