<?xml version='1.0' encoding='UTF-8'?>
<svg version="1.1" xmlns="http://www.w3.org/2000/svg" width="1000" height="600" viewBox="0 0 1000 600">
  <path d="M 404.500,422.058 C 411.085,421.408 415.378,420.322 420.500,418.010 C 424.350,416.273 428.844,414.276 430.487,413.574 L 433.475,412.296 L 418.676,404.898 C 400.259,395.691 397.000,393.179 397.000,388.192 C 397.000,386.177 398.191,382.176 399.646,379.300 L 402.291,374.071 L 399.773,370.769 C 398.388,368.953 396.931,365.552 396.536,363.212 C 396.140,360.871 394.283,356.066 392.408,352.533 C 386.321,341.063 388.003,335.745 403.500,317.464 C 413.186,306.038 414.553,304.223 420.178,295.321 C 422.201,292.119 426.214,286.592 429.095,283.037 C 434.690,276.137 436.039,271.352 434.582,263.584 C 433.813,259.484 431.624,258.634 419.000,257.531 C 406.569,256.445 393.208,254.050 387.344,251.856 C 382.669,250.107 380.100,249.844 370.798,250.162 L 359.785,250.539 L 352.463,258.176 C 345.963,264.956 344.153,267.793 336.321,283.486 L 327.500,301.161 L 327.178,327.429 C 326.813,357.156 327.868,370.545 330.954,375.338 C 332.074,377.077 334.623,381.774 336.618,385.776 C 341.434,395.433 357.425,411.775 364.688,414.460 C 367.335,415.439 371.525,417.398 374.000,418.814 C 381.243,422.957 388.051,423.681 404.500,422.058 Z" fill="#0c0786" stroke="black" stroke-width="0.5" fill-rule="evenodd"/>
</svg>
