<?xml version='1.0' encoding='UTF-8'?>
<svg version="1.1" xmlns="http://www.w3.org/2000/svg" width="1000" height="600" viewBox="0 0 1000 600">
  <path d="M 385.507,292.988 C 385.851,292.432 388.641,290.372 391.706,288.411 C 400.396,282.852 408.843,273.460 422.224,254.480 C 424.272,251.575 429.072,246.421 432.891,243.027 C 441.468,235.404 442.505,232.240 442.403,214.000 C 442.325,200.065 441.041,195.384 436.478,192.394 C 434.118,190.847 433.108,190.774 428.222,191.799 C 421.024,193.309 416.843,196.232 403.759,208.900 C 394.032,218.318 392.499,220.313 387.519,230.049 C 381.086,242.626 380.050,247.830 380.020,267.701 C 380.003,278.967 380.867,287.569 382.535,292.750 C 383.020,294.256 384.643,294.386 385.507,292.988 Z" fill="#f38748" stroke="black" stroke-width="0.5" fill-rule="evenodd"/>
</svg>
