<?xml version='1.0' encoding='UTF-8'?>
<svg version="1.1" xmlns="http://www.w3.org/2000/svg" width="1000" height="600" viewBox="0 0 1000 600">
  <path d="M 452.026,421.965 C 462.876,420.640 465.526,419.752 472.939,414.961 C 476.285,412.799 480.856,410.094 483.098,408.950 C 485.341,407.806 489.590,404.581 492.542,401.783 C 497.267,397.305 497.764,396.467 496.704,394.773 C 496.042,393.715 493.700,389.652 491.500,385.745 C 487.662,378.927 487.168,378.473 479.288,374.510 C 474.772,372.238 470.194,369.581 469.115,368.604 C 466.361,366.112 449.296,364.771 425.500,365.176 C 407.423,365.484 406.290,365.620 402.181,367.973 C 398.014,370.359 385.110,384.648 382.355,389.927 C 381.617,391.342 381.010,395.252 381.006,398.615 C 380.998,406.747 382.929,409.159 391.761,412.050 C 395.468,413.263 402.550,415.832 407.500,417.759 C 419.694,422.507 435.425,423.993 452.026,421.965 Z" fill="#f38748" stroke="black" stroke-width="0.5" fill-rule="evenodd"/>
</svg>
