<?xml version='1.0' encoding='UTF-8'?>
<svg version="1.1" xmlns="http://www.w3.org/2000/svg" width="1000" height="600" viewBox="0 0 1000 600">
  <path d="M 649.653,323.235 C 650.287,322.831 651.972,319.862 653.397,316.639 C 654.822,313.415 657.285,309.301 658.869,307.497 C 663.783,301.899 664.502,296.527 664.484,265.500 L 664.469,237.500 L 661.290,228.000 C 659.541,222.775 657.022,213.100 655.693,206.500 C 652.541,190.860 643.230,168.815 632.801,152.302 C 628.423,145.371 610.747,128.057 605.512,125.573 C 596.941,121.505 593.304,124.483 587.891,140.000 C 581.575,158.102 580.721,161.836 580.686,171.500 C 580.646,182.594 582.678,189.216 587.963,195.220 C 590.918,198.577 591.967,200.755 592.460,204.550 C 595.395,227.145 595.461,227.397 599.520,231.891 C 603.796,236.623 606.233,242.223 605.423,245.452 C 604.996,247.153 605.545,248.882 607.246,251.193 C 610.350,255.410 611.619,258.775 613.454,267.654 C 614.267,271.588 616.527,277.708 618.475,281.254 C 620.424,284.799 622.691,289.964 623.513,292.730 C 624.334,295.497 625.717,298.350 626.585,299.070 C 627.453,299.791 629.534,303.107 631.209,306.440 C 632.884,309.773 636.063,315.087 638.272,318.250 C 641.707,323.166 642.740,323.998 645.395,323.985 C 647.103,323.976 649.019,323.639 649.653,323.235 Z" fill="#fdbc2a" stroke="black" stroke-width="0.5" fill-rule="evenodd"/>
</svg>
