<?xml version='1.0' encoding='UTF-8'?>
<svg version="1.1" xmlns="http://www.w3.org/2000/svg" width="1000" height="600" viewBox="0 0 1000 600">
  <path d="M 655.529,446.769 C 673.382,439.654 683.684,432.951 691.119,423.613 L 695.181,418.512 L 694.840,409.904 C 694.514,401.642 694.331,401.054 690.293,395.300 C 687.979,392.002 685.107,386.648 683.911,383.402 C 682.715,380.156 678.908,373.675 675.451,369.000 C 668.122,359.090 644.094,335.228 639.000,332.802 C 620.284,323.887 614.115,321.325 604.560,318.500 C 598.477,316.701 590.709,314.043 587.297,312.594 C 579.871,309.439 564.431,308.244 551.242,309.803 C 544.304,310.624 541.903,311.433 536.213,314.871 C 531.639,317.635 526.334,319.732 519.864,321.335 C 513.644,322.876 508.697,324.800 505.756,326.824 C 503.266,328.537 498.866,330.870 495.979,332.008 C 489.412,334.597 480.263,342.108 471.623,352.005 L 467.746,356.446 L 468.253,364.573 C 468.708,371.864 469.133,373.241 472.388,377.974 C 474.384,380.875 476.705,385.617 477.547,388.513 C 478.388,391.408 481.785,397.765 485.095,402.639 C 493.335,414.773 499.729,424.145 501.238,426.304 C 501.932,427.296 505.488,429.148 509.141,430.419 C 512.794,431.691 517.669,434.247 519.975,436.100 C 523.728,439.116 524.919,439.501 531.334,439.774 C 536.419,439.989 539.226,439.637 541.000,438.561 C 549.633,433.324 554.425,431.725 562.939,431.239 C 572.060,430.719 590.057,432.328 596.000,434.194 C 600.812,435.705 609.548,441.367 615.266,446.681 C 625.560,456.247 631.713,456.261 655.529,446.769 Z" fill="#fdbc2a" stroke="black" stroke-width="0.5" fill-rule="evenodd"/>
</svg>
