<?xml version='1.0' encoding='UTF-8'?>
<svg version="1.1" xmlns="http://www.w3.org/2000/svg" width="1000" height="600" viewBox="0 0 1000 600">
  <path d="M 361.405,319.129 C 363.372,316.450 366.524,311.135 368.411,307.317 C 370.298,303.500 372.527,299.808 373.364,299.113 C 374.202,298.417 375.828,295.021 376.978,291.566 C 378.128,288.110 380.403,283.180 382.033,280.609 C 383.875,277.705 385.733,272.564 386.940,267.030 C 388.878,258.151 390.897,253.035 393.742,249.787 C 394.567,248.845 394.959,247.335 394.612,246.430 C 393.460,243.430 396.071,236.878 400.206,232.392 C 404.278,227.975 404.290,227.937 406.293,213.733 C 408.181,200.338 408.493,199.283 411.593,195.810 C 416.300,190.536 418.059,186.645 419.119,179.163 C 420.445,169.798 418.800,159.880 413.307,144.134 C 407.650,127.919 405.641,124.617 401.170,124.183 C 396.210,123.702 389.871,127.991 377.897,139.929 C 367.799,149.997 366.959,151.167 360.243,164.500 C 350.053,184.731 346.431,194.116 344.140,206.223 C 343.024,212.120 340.625,221.345 338.808,226.723 L 335.505,236.500 L 335.502,265.500 C 335.500,298.033 336.021,301.246 342.581,309.097 C 344.462,311.348 346.000,313.539 346.000,313.967 C 346.000,314.396 346.921,316.828 348.047,319.373 C 349.972,323.725 350.323,324.000 353.962,324.000 C 357.434,324.000 358.196,323.501 361.405,319.129 Z" fill="#fdbc2a" stroke="black" stroke-width="0.5" fill-rule="evenodd"/>
</svg>
