<?xml version='1.0' encoding='UTF-8'?>
<svg version="1.1" xmlns="http://www.w3.org/2000/svg" width="1000" height="600" viewBox="0 0 1000 600">
  <path d="M 660.712,446.027 C 674.673,440.435 679.121,438.155 684.216,433.979 C 692.162,427.466 698.888,420.165 699.642,417.236 C 700.982,412.026 699.506,401.556 696.717,396.488 C 695.207,393.745 692.453,388.291 690.597,384.368 C 685.794,374.221 676.587,362.500 661.548,347.391 C 649.947,335.735 647.613,333.873 640.500,330.597 C 636.100,328.571 630.379,325.790 627.786,324.418 C 623.535,322.170 601.289,314.222 588.500,310.382 C 584.650,309.226 579.589,308.966 566.500,309.251 L 549.500,309.621 L 539.500,314.223 C 534.000,316.754 526.462,319.721 522.750,320.816 C 519.037,321.910 513.637,324.343 510.750,326.222 C 507.862,328.100 503.131,330.597 500.235,331.770 C 494.652,334.031 487.077,339.964 478.239,349.000 L 472.859,354.500 L 473.370,363.327 C 473.856,371.733 474.190,372.780 480.401,385.336 C 483.987,392.587 489.445,402.115 492.530,406.510 C 495.615,410.904 500.133,417.505 502.571,421.178 C 506.305,426.803 507.911,428.279 512.752,430.534 C 515.913,432.006 520.731,434.620 523.457,436.342 C 527.949,439.180 529.168,439.474 536.457,439.476 C 543.799,439.478 544.919,439.203 549.312,436.324 C 551.958,434.589 556.423,432.618 559.234,431.944 C 569.260,429.539 596.163,432.982 605.813,437.905 C 607.998,439.019 613.340,442.610 617.684,445.883 C 622.028,449.156 627.139,452.306 629.041,452.882 C 635.444,454.821 642.654,453.260 660.712,446.027 Z" fill="#fdbc2a" stroke="black" stroke-width="0.5" fill-rule="evenodd"/>
</svg>
