<?xml version='1.0' encoding='UTF-8'?>
<svg version="1.1" xmlns="http://www.w3.org/2000/svg" width="1000" height="600" viewBox="0 0 1000 600">
  <path d="M 367.661,316.750 C 370.218,312.762 372.956,307.954 373.746,306.064 C 374.536,304.173 376.269,301.203 377.597,299.462 C 378.925,297.721 380.943,293.418 382.082,289.898 C 383.222,286.379 385.404,281.920 386.933,279.988 C 388.876,277.532 390.071,274.375 390.907,269.488 C 392.694,259.044 393.780,255.550 396.193,252.482 C 397.526,250.788 398.447,248.092 398.553,245.579 C 398.769,240.446 402.014,233.929 405.890,230.844 C 408.581,228.702 408.972,227.570 410.418,217.720 C 411.288,211.791 412.000,205.462 412.000,203.657 C 412.000,201.289 412.861,199.556 415.089,197.437 C 416.788,195.822 419.376,192.475 420.839,190.000 C 423.322,185.800 423.500,184.699 423.500,173.500 C 423.500,161.990 423.322,160.969 419.141,148.500 C 413.080,130.422 412.939,130.081 410.235,126.867 C 405.355,121.068 398.649,123.674 384.978,136.684 C 374.142,146.996 371.728,150.341 363.560,166.365 C 354.454,184.231 351.378,192.287 348.990,204.521 C 347.812,210.559 345.505,219.751 343.865,224.947 C 339.340,239.275 337.769,264.364 339.979,287.000 C 341.094,298.416 342.686,303.262 347.320,309.332 C 349.243,311.851 351.342,315.505 351.984,317.453 C 353.360,321.622 356.355,324.000 360.229,324.000 C 362.591,324.000 363.718,322.901 367.661,316.750 Z" fill="#fdbc2a" stroke="black" stroke-width="0.5" fill-rule="evenodd"/>
</svg>
