<?xml version='1.0' encoding='UTF-8'?>
<svg version="1.1" xmlns="http://www.w3.org/2000/svg" width="1000" height="600" viewBox="0 0 1000 600">
  <path d="M 439.273,400.854 C 444.121,398.259 454.444,389.326 461.448,381.665 C 466.895,375.708 469.484,371.934 471.026,367.708 C 472.188,364.522 476.535,355.555 480.686,347.782 C 488.135,333.834 488.225,333.576 487.581,328.094 C 486.819,321.610 484.955,318.327 481.198,316.852 C 479.714,316.269 472.875,314.940 466.000,313.897 C 454.880,312.211 452.396,311.443 443.500,306.945 C 438.000,304.164 431.925,300.996 430.000,299.905 C 425.327,297.257 422.309,297.965 414.488,303.546 C 406.191,309.466 403.409,312.848 399.304,322.000 C 397.453,326.125 395.255,330.873 394.419,332.552 C 393.209,334.981 393.129,336.205 394.028,338.552 C 395.774,343.111 395.579,353.763 393.607,361.561 C 391.079,371.559 392.141,374.807 401.066,384.364 C 407.405,391.152 418.091,399.782 422.000,401.271 C 424.744,402.316 437.099,402.017 439.273,400.854 Z" fill="#8b09a4" stroke="black" stroke-width="0.5" fill-rule="evenodd"/>
</svg>
