<?xml version='1.0' encoding='UTF-8'?>
<svg version="1.1" xmlns="http://www.w3.org/2000/svg" width="1000" height="600" viewBox="0 0 1000 600">
  <path d="M 439.581,396.750 C 448.568,390.774 459.690,380.045 462.184,374.944 C 463.110,373.050 466.581,365.812 469.897,358.861 C 473.213,351.910 477.517,343.585 479.461,340.361 C 483.441,333.760 484.116,327.606 481.536,321.432 C 479.643,316.901 476.066,315.426 462.293,313.496 C 456.357,312.665 449.925,311.476 448.000,310.854 C 443.806,309.500 432.683,303.913 428.500,301.060 C 426.533,299.718 423.883,299.011 420.802,299.007 C 416.644,299.001 415.431,299.560 410.250,303.872 C 401.204,311.400 396.575,317.266 393.001,325.731 C 389.513,333.993 389.502,334.094 390.560,346.663 C 391.092,352.983 390.880,355.903 389.623,359.592 C 388.731,362.212 388.000,366.597 388.000,369.336 C 388.000,373.606 388.562,375.041 391.943,379.408 C 397.092,386.056 404.159,392.915 411.000,397.902 C 416.251,401.730 416.843,401.913 424.093,401.956 C 431.611,402.000 431.762,401.949 439.581,396.750 Z" fill="#8b09a4" stroke="black" stroke-width="0.5" fill-rule="evenodd"/>
</svg>
