<?xml version='1.0' encoding='UTF-8'?>
<svg version="1.1" xmlns="http://www.w3.org/2000/svg" width="1000" height="600" viewBox="0 0 1000 600">
  <path d="M 571.054,373.000 C 575.929,368.050 580.412,364.000 581.017,364.000 C 581.622,364.000 583.778,362.671 585.809,361.046 C 587.839,359.422 592.098,356.948 595.274,355.548 C 602.815,352.226 603.295,350.871 602.742,334.500 C 602.320,322.017 602.095,320.883 597.085,306.000 C 594.215,297.475 590.534,285.167 588.904,278.648 C 585.171,263.713 584.276,261.615 577.588,252.124 C 569.584,240.767 559.220,231.428 548.273,225.709 C 536.707,219.667 531.121,218.795 524.501,222.000 C 517.553,225.363 508.668,234.066 505.879,240.240 C 503.599,245.289 503.490,246.583 503.174,272.500 C 502.963,289.821 503.249,301.559 503.972,305.245 C 504.631,308.604 508.169,317.118 512.492,325.745 C 516.558,333.860 521.470,345.403 523.407,351.395 C 525.345,357.388 528.130,364.024 529.598,366.141 C 532.164,369.845 546.607,380.264 550.580,381.278 C 551.636,381.547 554.680,381.820 557.345,381.884 C 562.170,382.000 562.226,381.963 571.054,373.000 Z" fill="#b83289" stroke="black" stroke-width="0.5" fill-rule="evenodd"/>
</svg>
