<?xml version='1.0' encoding='UTF-8'?>
<svg version="1.1" xmlns="http://www.w3.org/2000/svg" width="1000" height="600" viewBox="0 0 1000 600">
  <path d="M 588.584,397.900 C 595.735,392.945 600.634,388.397 607.116,380.698 C 611.453,375.547 611.999,374.370 611.989,370.198 C 611.983,367.614 611.308,363.291 610.489,360.591 C 608.716,354.745 608.571,346.589 610.131,340.394 C 611.064,336.688 610.988,335.342 609.695,332.701 C 608.832,330.940 606.815,326.554 605.211,322.953 C 601.905,315.530 598.064,310.795 589.698,303.830 C 581.869,297.312 578.431,297.260 567.781,303.494 C 557.298,309.630 551.778,311.650 541.912,312.960 C 529.801,314.568 521.416,316.882 519.322,319.196 C 517.917,320.749 517.500,322.846 517.500,328.355 C 517.500,334.333 517.921,336.153 520.078,339.500 C 522.962,343.975 530.976,359.506 536.430,371.194 C 540.673,380.285 548.665,388.933 560.017,396.719 C 567.358,401.753 567.644,401.852 575.084,401.925 C 582.387,401.997 582.888,401.848 588.584,397.900 Z" fill="#8b09a4" stroke="black" stroke-width="0.5" fill-rule="evenodd"/>
</svg>
