<?xml version='1.0' encoding='UTF-8'?>
<svg version="1.1" xmlns="http://www.w3.org/2000/svg" width="1000" height="600" viewBox="0 0 1000 600">
  <path d="M 429.745,405.624 C 435.983,403.308 439.389,402.805 454.245,402.006 C 463.735,401.496 472.863,400.671 474.528,400.173 C 479.771,398.604 485.312,395.221 491.000,390.114 L 496.500,385.176 L 496.500,376.338 L 496.500,367.500 L 490.659,358.248 C 487.447,353.160 483.172,347.615 481.159,345.927 C 479.147,344.238 472.100,340.196 465.500,336.943 C 451.536,330.061 443.208,328.292 433.343,330.111 C 425.775,331.506 423.289,332.588 412.002,339.392 C 405.995,343.013 400.091,347.656 395.564,352.317 C 391.679,356.318 386.587,361.276 384.250,363.336 L 380.000,367.081 L 380.004,375.290 C 380.008,384.915 380.895,386.790 389.670,395.716 C 393.496,399.607 398.079,402.933 403.000,405.390 C 409.705,408.737 411.136,409.090 416.500,408.724 C 419.800,408.498 425.760,407.103 429.745,405.624 Z" fill="#8b09a4" stroke="black" stroke-width="0.5" fill-rule="evenodd"/>
</svg>
