<?xml version='1.0' encoding='UTF-8'?>
<svg version="1.1" xmlns="http://www.w3.org/2000/svg" width="1000" height="600" viewBox="0 0 1000 600">
  <path d="M 564.328,190.964 C 568.633,190.446 572.617,189.737 573.180,189.389 C 575.083,188.213 576.909,182.312 578.534,172.089 C 579.424,166.493 581.239,158.803 582.567,155.001 C 583.895,151.199 585.674,143.789 586.520,138.534 C 588.187,128.173 589.258,124.576 590.997,123.502 C 594.561,121.299 584.780,107.073 578.210,104.904 C 573.127,103.227 566.097,104.242 561.484,107.321 C 559.293,108.783 554.350,113.880 550.500,118.646 C 546.650,123.412 541.741,129.376 539.590,131.901 C 537.440,134.425 533.420,141.140 530.657,146.823 L 525.633,157.156 L 525.567,167.828 C 525.501,178.320 525.556,178.580 528.797,183.249 C 535.136,192.378 541.352,193.728 564.328,190.964 Z" fill="#db5b67" stroke="black" stroke-width="0.5" fill-rule="evenodd"/>
</svg>
