<?xml version='1.0' encoding='UTF-8'?>
<svg version="1.1" xmlns="http://www.w3.org/2000/svg" width="1000" height="600" viewBox="0 0 1000 600">
  <path d="M 466.355,188.312 C 474.177,182.801 476.347,174.890 474.000,160.434 C 472.836,153.263 464.568,136.566 459.123,130.391 C 457.130,128.131 452.181,122.220 448.125,117.255 C 439.713,106.958 435.350,104.000 428.574,104.000 C 422.557,104.000 417.442,106.690 412.799,112.296 C 407.956,118.142 407.260,121.049 409.834,124.671 C 411.115,126.474 412.460,131.309 413.540,138.000 C 414.473,143.775 416.269,151.262 417.531,154.638 C 418.794,158.015 420.538,165.251 421.407,170.720 C 423.463,183.652 425.075,188.205 428.130,189.705 C 431.415,191.318 450.145,192.694 456.932,191.821 C 460.423,191.373 463.790,190.119 466.355,188.312 Z" fill="#db5b67" stroke="black" stroke-width="0.5" fill-rule="evenodd"/>
</svg>
