<?xml version='1.0' encoding='UTF-8'?>
<svg version="1.1" xmlns="http://www.w3.org/2000/svg" width="1000" height="600" viewBox="0 0 1000 600">
  <path d="M 369.768,451.452 C 378.033,447.999 382.270,441.034 382.176,431.057 C 382.103,423.285 381.343,421.352 373.574,409.157 C 366.927,398.723 367.206,398.918 346.500,390.212 C 331.001,383.696 325.664,382.722 307.917,383.168 C 296.277,383.461 292.755,383.898 289.632,385.436 C 282.767,388.815 280.518,395.322 283.163,404.150 C 284.702,409.287 291.883,415.909 300.767,420.383 C 304.624,422.325 309.852,425.708 312.385,427.901 C 317.224,432.088 327.206,439.000 328.415,439.000 C 328.805,439.000 331.458,440.097 334.312,441.437 C 360.379,453.681 362.799,454.364 369.768,451.452 Z" fill="#db5b67" stroke="black" stroke-width="0.5" fill-rule="evenodd"/>
</svg>
