<?xml version='1.0' encoding='UTF-8'?>
<svg version="1.1" xmlns="http://www.w3.org/2000/svg" width="1000" height="600" viewBox="0 0 1000 600">
  <path d="M 409.640,277.157 C 413.468,275.994 423.040,268.405 428.597,262.128 C 433.812,256.238 435.389,251.491 435.451,241.500 C 435.511,231.690 433.027,226.489 425.600,220.879 C 419.341,216.150 405.818,209.382 400.000,208.067 C 397.525,207.507 388.075,207.043 379.000,207.036 C 356.803,207.019 349.958,208.876 342.731,216.876 C 336.625,223.634 336.240,234.787 341.853,242.301 C 343.578,244.610 346.366,249.016 348.049,252.091 C 350.129,255.890 352.185,258.195 354.469,259.284 C 356.317,260.165 358.142,261.924 358.525,263.193 C 358.908,264.462 361.913,268.066 365.201,271.202 C 370.225,275.993 371.926,277.002 375.840,277.516 C 378.403,277.852 381.175,278.302 382.000,278.516 C 384.670,279.209 406.404,278.141 409.640,277.157 Z" fill="#5201a3" stroke="black" stroke-width="0.5" fill-rule="evenodd"/>
</svg>
