<?xml version='1.0' encoding='UTF-8'?>
<svg version="1.1" xmlns="http://www.w3.org/2000/svg" width="1000" height="600" viewBox="0 0 1000 600">
  <path d="M 421.152,538.974 C 426.622,537.455 439.396,528.715 441.761,524.873 C 442.904,523.018 445.943,516.550 448.516,510.500 C 455.371,494.380 461.248,483.524 468.007,474.500 C 475.473,464.531 476.782,460.808 474.632,455.661 C 472.472,450.492 467.096,448.248 454.930,447.436 C 442.299,446.593 430.189,448.247 422.557,451.857 C 413.655,456.067 399.849,468.599 397.118,474.948 C 392.997,484.526 392.213,501.522 395.178,517.000 C 397.077,526.914 402.083,534.347 409.252,537.896 C 414.029,540.260 415.909,540.431 421.152,538.974 Z" fill="#5201a3" stroke="black" stroke-width="0.5" fill-rule="evenodd"/>
</svg>
