<?xml version='1.0' encoding='UTF-8'?>
<svg version="1.1" xmlns="http://www.w3.org/2000/svg" width="1000" height="600" viewBox="0 0 1000 600">
  <path d="M 616.586,277.682 C 621.635,276.624 623.714,275.489 628.790,271.021 C 632.155,268.059 635.442,264.348 636.094,262.773 C 636.802,261.064 638.643,259.340 640.663,258.496 C 642.540,257.712 644.814,255.669 645.773,253.904 C 646.723,252.156 648.933,248.797 650.684,246.440 C 656.450,238.680 657.237,236.372 656.835,228.403 C 656.407,219.933 654.940,217.378 647.592,212.315 C 640.517,207.439 636.395,206.636 619.000,206.739 C 599.047,206.858 592.290,208.363 579.870,215.458 C 563.433,224.847 559.737,229.941 559.926,242.938 C 560.104,255.170 560.693,256.451 571.101,267.262 C 580.117,276.626 580.724,277.059 586.000,277.895 C 594.354,279.218 609.770,279.111 616.586,277.682 Z" fill="#5201a3" stroke="black" stroke-width="0.5" fill-rule="evenodd"/>
</svg>
