<?xml version='1.0' encoding='UTF-8'?>
<svg version="1.1" xmlns="http://www.w3.org/2000/svg" width="1000" height="600" viewBox="0 0 1000 600">
  <path d="M 431.722,536.503 C 442.480,531.121 447.100,526.513 450.442,517.833 C 455.921,503.602 465.879,484.391 472.554,475.173 C 478.183,467.400 479.387,465.033 479.777,460.969 C 480.197,456.596 479.942,455.788 477.309,453.156 C 473.065,448.911 465.705,447.654 448.518,448.239 C 437.243,448.622 433.374,449.149 428.748,450.930 C 418.765,454.774 406.340,465.931 402.312,474.668 C 398.020,483.975 397.110,502.312 400.162,518.000 C 401.508,524.924 403.903,529.619 408.162,533.689 C 415.854,541.038 421.345,541.694 431.722,536.503 Z" fill="#5201a3" stroke="black" stroke-width="0.5" fill-rule="evenodd"/>
</svg>
