<?xml version='1.0' encoding='UTF-8'?>
<svg version="1.1" xmlns="http://www.w3.org/2000/svg" width="1000" height="600" viewBox="0 0 1000 600">
  <path d="M 412.918,277.902 C 419.484,276.806 419.523,276.779 428.879,267.194 C 434.244,261.698 438.636,256.283 439.141,254.543 C 439.626,252.869 440.053,247.840 440.091,243.366 C 440.168,234.150 438.395,229.461 432.662,223.729 C 428.825,219.892 414.764,211.678 408.241,209.463 C 401.477,207.167 380.087,205.741 369.850,206.905 C 360.190,208.002 356.437,209.337 350.286,213.861 C 344.184,218.349 342.720,221.787 343.164,230.584 C 343.484,236.921 343.952,238.438 346.742,242.187 C 348.507,244.559 351.365,248.880 353.093,251.790 C 355.144,255.241 357.535,257.743 359.975,258.987 C 362.102,260.072 364.226,262.132 364.903,263.765 C 365.557,265.344 368.740,268.967 371.977,271.816 C 376.792,276.055 378.829,277.158 383.181,277.881 C 390.879,279.162 405.307,279.172 412.918,277.902 Z" fill="#5201a3" stroke="black" stroke-width="0.5" fill-rule="evenodd"/>
</svg>
