<?xml version='1.0' encoding='UTF-8'?>
<svg version="1.1" xmlns="http://www.w3.org/2000/svg" width="1000" height="600" viewBox="0 0 1000 600">
  <path d="M 587.565,536.750 C 598.348,529.436 601.316,521.522 601.351,500.000 C 601.386,478.724 598.148,470.749 584.883,459.438 C 577.196,452.882 572.310,450.363 564.435,448.892 C 557.147,447.532 531.690,448.246 527.500,449.929 C 522.367,451.990 520.000,454.923 520.000,459.224 C 520.000,463.898 521.262,466.459 528.591,476.661 C 534.725,485.198 543.738,502.577 548.994,516.000 C 551.511,522.427 553.446,525.597 556.929,529.000 C 562.993,534.923 572.962,540.000 578.527,540.000 C 581.669,540.000 584.021,539.154 587.565,536.750 Z" fill="#5201a3" stroke="black" stroke-width="0.5" fill-rule="evenodd"/>
</svg>
