<?xml version='1.0' encoding='UTF-8'?>
<svg version="1.1" xmlns="http://www.w3.org/2000/svg" width="1000" height="600" viewBox="0 0 1000 600">
  <path d="M 359.202,386.399 C 366.052,384.173 374.103,375.205 376.961,366.618 C 379.211,359.855 381.207,356.795 390.409,346.000 C 393.456,342.425 397.040,337.475 398.373,335.000 C 402.651,327.059 412.234,315.940 430.587,297.622 C 444.390,283.846 449.747,279.164 453.934,277.215 L 459.367,274.685 L 455.614,271.535 C 450.751,267.452 444.075,265.998 427.000,265.302 C 411.519,264.671 402.771,265.754 393.550,269.443 C 390.014,270.858 382.706,273.190 377.310,274.626 C 363.903,278.194 346.454,287.094 335.337,296.036 C 330.476,299.944 322.225,305.345 317.000,308.036 C 309.952,311.666 305.760,314.680 300.758,319.714 C 291.754,328.776 289.530,332.004 286.023,341.096 C 284.391,345.329 282.144,350.336 281.030,352.224 C 279.917,354.112 278.727,358.322 278.386,361.581 C 277.620,368.913 279.545,374.196 283.781,376.387 C 288.117,378.629 310.018,384.024 321.500,385.679 C 346.390,389.265 350.160,389.337 359.202,386.399 Z" fill="#eff821" stroke="black" stroke-width="0.5" fill-rule="evenodd"/>
</svg>
