<?xml version='1.0' encoding='UTF-8'?>
<svg version="1.1" xmlns="http://www.w3.org/2000/svg" width="1000" height="600" viewBox="0 0 1000 600">
  <path d="M 660.500,388.005 C 673.519,386.589 682.006,385.066 686.000,383.430 C 687.925,382.642 693.077,381.327 697.449,380.509 C 707.363,378.652 714.060,375.427 715.855,371.644 C 716.910,369.422 716.990,367.306 716.218,362.102 C 714.960,353.627 706.701,334.890 700.922,327.399 C 695.773,320.725 685.732,312.208 679.240,309.008 C 672.344,305.609 665.325,301.018 658.500,295.443 C 649.517,288.104 629.562,278.335 617.500,275.371 C 612.000,274.019 604.125,271.499 600.000,269.771 C 592.828,266.765 591.777,266.609 575.942,266.203 C 556.282,265.698 546.651,267.297 539.904,272.184 C 537.633,273.829 536.163,275.510 536.638,275.919 C 537.112,276.328 539.525,277.240 542.000,277.944 C 545.848,279.040 549.196,281.925 565.118,297.863 C 582.534,315.296 592.454,327.462 598.301,338.560 C 599.153,340.177 603.044,345.254 606.948,349.843 C 614.629,358.873 615.852,360.857 619.119,369.587 C 621.391,375.661 627.530,383.189 632.166,385.586 C 638.616,388.922 646.154,389.565 660.500,388.005 Z" fill="#eff821" stroke="black" stroke-width="0.5" fill-rule="evenodd"/>
</svg>
