<?xml version='1.0' encoding='UTF-8'?>
<svg version="1.1" xmlns="http://www.w3.org/2000/svg" width="1000" height="600" viewBox="0 0 1000 600">
  <path d="M 673.000,386.406 C 679.875,385.559 688.650,384.007 692.500,382.957 C 696.350,381.906 703.125,380.110 707.555,378.966 C 711.985,377.822 716.935,375.827 718.555,374.533 C 721.351,372.300 721.496,371.808 721.422,364.840 C 721.359,358.965 720.813,356.465 718.687,352.313 C 717.226,349.461 714.917,344.168 713.556,340.553 C 710.291,331.879 706.773,326.938 697.772,318.388 C 692.467,313.349 688.036,310.226 682.408,307.561 C 678.059,305.501 670.450,300.559 665.500,296.579 C 653.341,286.802 636.075,277.814 623.164,274.541 C 617.670,273.149 609.648,270.558 605.337,268.784 C 597.544,265.576 597.401,265.557 580.000,265.529 C 559.293,265.495 550.967,266.843 545.058,271.189 C 542.826,272.830 541.000,274.478 541.000,274.852 C 541.000,275.225 543.161,276.298 545.802,277.236 C 554.122,280.191 594.992,322.222 601.003,334.006 C 602.065,336.087 606.436,341.999 610.718,347.145 C 620.482,358.878 621.340,360.229 623.620,367.464 C 624.921,371.590 626.955,374.978 630.386,378.732 C 640.065,389.323 643.819,389.999 673.000,386.406 Z" fill="#eff821" stroke="black" stroke-width="0.5" fill-rule="evenodd"/>
</svg>
