<?xml version='1.0' encoding='UTF-8'?>
<svg version="1.1" xmlns="http://www.w3.org/2000/svg" width="1000" height="600" viewBox="0 0 1000 600">
  <path d="M 434.745,254.421 C 439.567,247.526 443.053,243.174 445.750,240.682 C 447.538,239.030 449.000,236.945 449.000,236.049 C 449.000,230.989 452.221,222.330 454.990,219.945 C 457.528,217.760 458.381,215.615 460.897,205.096 C 462.679,197.648 464.609,191.954 465.794,190.651 C 468.576,187.592 469.604,185.315 471.488,178.048 C 472.400,174.525 474.292,169.384 475.691,166.624 C 477.931,162.203 478.181,160.686 477.788,153.898 C 477.390,147.020 476.885,145.422 473.086,139.028 C 468.323,131.011 455.321,117.387 449.988,114.824 C 427.040,103.796 423.881,103.131 417.261,107.926 C 410.956,112.493 409.500,117.483 409.500,134.524 C 409.500,147.710 409.675,148.983 412.431,155.829 C 415.017,162.252 415.223,163.494 414.181,166.376 C 412.582,170.798 412.664,171.675 415.157,176.824 C 417.104,180.846 417.390,183.671 418.101,205.890 C 419.131,238.053 419.707,241.510 426.315,255.118 L 430.500,263.735 L 432.245,259.618 C 433.205,257.353 434.330,255.014 434.745,254.421 Z" fill="#eff821" stroke="black" stroke-width="0.5" fill-rule="evenodd"/>
</svg>
