<?xml version='1.0' encoding='UTF-8'?>
<svg version="1.1" xmlns="http://www.w3.org/2000/svg" width="1000" height="600" viewBox="0 0 1000 600">
  <path d="M 436.033,245.464 C 441.752,238.613 443.156,236.129 445.547,228.622 C 447.499,222.495 449.058,219.353 450.670,218.296 C 453.069,216.725 455.697,209.685 457.941,198.815 C 458.636,195.448 460.271,191.676 461.950,189.563 C 463.679,187.387 465.479,183.166 466.561,178.751 C 467.537,174.767 469.498,169.031 470.918,166.004 C 473.002,161.561 473.494,159.023 473.473,152.837 C 473.448,145.327 473.351,145.035 468.611,138.160 C 457.793,122.472 448.200,114.456 432.559,108.040 C 421.919,103.676 417.535,104.077 411.538,109.963 C 406.472,114.934 405.062,119.031 404.285,131.037 C 403.656,140.736 404.955,149.483 408.029,156.256 C 410.201,161.038 410.539,166.124 408.891,169.203 C 408.002,170.864 408.238,172.186 410.080,175.874 C 412.197,180.114 412.445,182.390 413.249,204.987 C 414.350,235.906 415.521,243.293 421.157,254.870 L 425.493,263.776 L 427.408,258.638 C 428.503,255.700 432.195,250.060 436.033,245.464 Z" fill="#eff821" stroke="black" stroke-width="0.5" fill-rule="evenodd"/>
</svg>
