<?xml version='1.0' encoding='UTF-8'?>
<svg version="1.1" xmlns="http://www.w3.org/2000/svg" width="1000" height="600" viewBox="0 0 1000 600">
  <path d="M 551.268,540.802 C 554.375,539.871 555.590,538.831 556.713,536.144 C 558.511,531.842 557.671,528.082 551.429,512.482 C 548.993,506.394 546.998,500.757 546.996,499.956 C 546.994,499.155 544.338,493.069 541.094,486.431 C 536.305,476.631 534.200,473.466 529.900,469.600 C 524.672,464.899 519.875,461.971 515.000,460.504 C 513.625,460.091 495.328,451.266 474.340,440.895 C 434.911,421.411 432.444,419.902 416.281,405.394 C 410.834,400.505 408.299,397.317 405.957,392.410 C 404.250,388.832 398.611,380.244 393.426,373.324 C 388.242,366.404 383.993,360.463 383.985,360.121 C 383.976,359.780 383.573,358.874 383.088,358.108 C 382.362,356.962 381.670,357.099 379.167,358.881 C 377.495,360.071 373.244,362.395 369.720,364.044 L 363.313,367.042 L 362.086,373.904 C 360.664,381.862 361.512,386.381 365.530,392.272 C 366.945,394.347 369.398,399.227 370.980,403.116 C 375.215,413.522 377.674,416.638 397.999,437.346 C 415.846,455.529 427.849,465.646 446.500,478.229 C 450.350,480.827 460.902,489.945 469.949,498.492 C 487.764,515.321 489.170,516.376 511.430,529.618 C 531.207,541.383 540.561,544.009 551.268,540.802 Z" fill="#0c0786" stroke="black" stroke-width="0.5" fill-rule="evenodd"/>
</svg>
