<?xml version='1.0' encoding='UTF-8'?>
<svg version="1.1" xmlns="http://www.w3.org/2000/svg" width="1000" height="600" viewBox="0 0 1000 600">
  <path d="M 470.995,540.433 C 474.832,539.560 479.572,537.654 481.693,536.131 C 485.970,533.058 499.168,525.141 509.056,519.716 C 512.906,517.604 520.335,511.712 527.056,505.442 C 545.484,488.248 553.848,481.054 560.129,476.995 C 573.334,468.460 586.377,457.598 603.319,441.027 C 625.344,419.483 629.348,414.497 637.164,398.876 C 642.640,387.932 643.343,385.864 643.236,381.000 C 643.169,377.975 642.510,373.475 641.772,371.000 C 640.482,366.677 640.067,366.318 631.234,361.878 L 622.039,357.256 L 610.155,373.878 C 603.618,383.020 597.450,392.300 596.447,394.500 C 593.812,400.282 578.882,414.842 569.000,421.266 C 558.821,427.883 499.774,457.520 488.620,461.610 C 477.827,465.568 471.234,471.572 466.390,481.854 C 464.409,486.059 461.704,490.942 460.378,492.704 C 459.053,494.466 457.684,497.391 457.336,499.204 C 456.988,501.017 454.654,507.900 452.149,514.500 C 446.985,528.106 446.158,535.307 449.354,538.839 C 452.450,542.260 460.391,542.845 470.995,540.433 Z" fill="#0c0786" stroke="black" stroke-width="0.5" fill-rule="evenodd"/>
</svg>
