<?xml version='1.0' encoding='UTF-8'?>
<svg version="1.1" xmlns="http://www.w3.org/2000/svg" width="1000" height="600" viewBox="0 0 1000 600">
  <path d="M 466.540,540.448 C 472.191,538.976 491.862,528.046 508.000,517.410 C 511.575,515.054 521.700,506.342 530.500,498.049 C 539.300,489.757 548.750,481.375 551.500,479.424 C 554.250,477.472 561.675,472.225 568.000,467.762 C 576.620,461.681 584.660,454.497 600.106,439.075 C 621.380,417.833 626.804,411.123 629.657,402.519 C 630.572,399.758 632.784,395.250 634.572,392.500 C 638.701,386.152 639.434,382.473 638.006,375.270 C 636.244,366.381 636.192,366.293 631.712,364.518 C 629.396,363.600 625.379,361.496 622.786,359.843 C 618.240,356.945 616.000,356.778 616.000,359.337 C 616.000,360.646 615.258,361.721 604.432,376.108 C 600.544,381.273 595.628,388.807 593.506,392.848 C 590.407,398.752 587.864,401.780 580.574,408.246 C 575.583,412.673 569.700,417.624 567.500,419.248 C 562.419,422.998 492.963,457.760 483.094,461.493 C 473.273,465.208 463.552,474.476 460.012,483.500 C 458.718,486.800 456.852,490.671 455.867,492.102 C 454.881,493.533 453.630,496.690 453.085,499.119 C 452.541,501.547 451.014,506.002 449.692,509.017 C 448.370,512.033 446.031,518.226 444.495,522.779 C 441.983,530.221 441.823,531.467 442.913,535.104 C 443.821,538.133 444.925,539.497 447.312,540.535 C 451.562,542.384 459.241,542.349 466.540,540.448 Z" fill="#0c0786" stroke="black" stroke-width="0.5" fill-rule="evenodd"/>
</svg>
