<?xml version='1.0' encoding='UTF-8'?>
<svg version="1.1" xmlns="http://www.w3.org/2000/svg" width="1000" height="600" viewBox="0 0 1000 600">
  <path d="M 547.452,540.585 C 554.358,537.699 554.570,533.401 548.597,517.340 C 546.175,510.828 543.479,502.971 542.607,499.881 C 541.734,496.790 540.361,493.715 539.556,493.046 C 538.750,492.378 536.277,488.032 534.060,483.388 C 528.130,470.966 523.028,465.995 511.687,461.587 C 499.056,456.676 439.018,426.495 430.136,420.591 C 419.144,413.283 406.925,401.220 402.995,393.796 C 401.162,390.333 395.801,382.185 391.081,375.688 C 386.362,369.192 381.498,362.355 380.272,360.497 L 378.045,357.117 L 368.772,361.994 C 360.538,366.324 359.351,367.297 358.170,370.685 C 357.438,372.783 356.772,377.017 356.689,380.092 C 356.557,385.030 357.218,387.075 362.341,397.567 C 370.246,413.755 374.999,419.788 396.235,440.593 C 413.432,457.440 427.988,469.623 441.271,478.285 C 447.457,482.319 455.860,489.540 473.711,506.160 C 481.530,513.441 487.580,518.074 493.711,521.478 C 498.545,524.163 507.209,529.289 512.964,532.871 C 518.808,536.508 525.651,539.923 528.464,540.606 C 535.384,542.288 543.398,542.278 547.452,540.585 Z" fill="#0c0786" stroke="black" stroke-width="0.5" fill-rule="evenodd"/>
</svg>
