<?xml version='1.0' encoding='UTF-8'?>
<svg version="1.1" xmlns="http://www.w3.org/2000/svg" width="1000" height="600" viewBox="0 0 1000 600">
  <path d="M 618.470,418.754 C 620.653,417.248 625.378,415.040 628.970,413.847 C 635.980,411.517 643.013,405.661 651.821,394.819 C 656.302,389.303 663.902,376.419 666.016,370.753 C 667.632,366.421 669.068,321.396 667.995,308.681 C 667.213,299.414 666.818,298.151 660.944,286.181 C 652.350,268.665 644.984,257.163 639.811,253.182 L 635.500,249.864 L 624.000,250.182 C 613.800,250.464 612.150,250.763 609.404,252.824 C 606.136,255.278 595.508,257.105 576.500,258.481 C 565.771,259.258 562.638,260.305 561.130,263.615 C 559.753,266.637 559.669,271.999 560.946,275.358 C 561.466,276.726 565.235,282.268 569.321,287.673 C 573.407,293.078 577.662,299.300 578.778,301.500 C 579.893,303.700 582.029,306.625 583.525,308.000 C 585.021,309.375 587.985,312.750 590.112,315.500 C 592.238,318.250 595.802,322.750 598.032,325.500 C 607.182,336.783 608.475,343.865 603.200,353.795 C 601.533,356.933 599.846,361.300 599.451,363.500 C 598.561,368.458 596.361,372.924 594.448,373.658 C 592.416,374.438 592.644,375.992 595.187,378.699 C 598.458,382.180 598.955,391.537 596.065,395.200 C 594.167,397.605 571.481,409.572 565.250,411.455 C 564.013,411.829 563.000,412.461 563.000,412.860 C 563.000,414.376 579.678,420.951 584.500,421.335 C 587.250,421.554 595.125,421.679 602.000,421.612 C 613.892,421.497 614.693,421.357 618.470,418.754 Z" fill="#0c0786" stroke="black" stroke-width="0.5" fill-rule="evenodd"/>
</svg>
