<?xml version='1.0' encoding='UTF-8'?>
<svg version="1.1" xmlns="http://www.w3.org/2000/svg" width="1000" height="600" viewBox="0 0 1000 600">
  <path d="M 585.500,419.989 C 588.250,418.985 596.125,416.122 603.000,413.625 C 610.469,410.913 616.204,408.219 617.250,406.932 C 619.537,404.118 619.626,394.112 617.403,389.812 C 614.466,384.134 601.176,369.314 597.287,367.382 C 594.071,365.784 590.659,365.450 574.649,365.171 C 564.281,364.990 550.659,365.311 544.379,365.885 C 534.264,366.810 532.550,367.247 529.371,369.714 C 527.397,371.246 522.593,374.075 518.696,376.000 C 511.812,379.400 511.475,379.743 506.915,388.000 L 502.220,396.500 L 506.860,401.291 C 509.412,403.926 514.385,407.718 517.912,409.718 C 521.439,411.718 526.480,414.804 529.115,416.578 C 532.444,418.818 535.980,420.139 540.703,420.907 C 544.441,421.514 548.625,422.199 550.000,422.427 C 556.166,423.453 580.607,421.774 585.500,419.989 Z" fill="#f38748" stroke="black" stroke-width="0.5" fill-rule="evenodd"/>
</svg>
