<?xml version='1.0' encoding='UTF-8'?>
<svg version="1.1" xmlns="http://www.w3.org/2000/svg" width="1000" height="600" viewBox="0 0 1000 600">
  <path d="M 623.235,290.435 C 624.741,285.195 625.261,265.759 624.178,255.146 C 623.232,245.880 622.563,243.588 617.810,233.325 C 613.289,223.562 611.313,220.586 604.513,213.293 C 596.369,204.561 583.207,193.790 578.488,191.995 C 574.123,190.336 568.213,190.787 566.056,192.944 C 563.299,195.701 562.497,200.705 562.521,215.000 C 562.549,232.406 563.272,234.317 573.811,244.855 C 578.590,249.634 586.486,259.003 591.358,265.675 C 596.230,272.347 601.855,279.384 603.858,281.313 C 608.417,285.702 620.180,293.926 621.445,293.608 C 621.965,293.477 622.771,292.049 623.235,290.435 Z" fill="#f38748" stroke="black" stroke-width="0.5" fill-rule="evenodd"/>
</svg>
