<?xml version='1.0' encoding='UTF-8'?>
<svg version="1.1" xmlns="http://www.w3.org/2000/svg" width="1000" height="600" viewBox="0 0 1000 600">
  <path d="M 457.000,420.492 C 466.935,417.411 481.019,409.148 487.250,402.744 C 490.413,399.494 493.000,396.500 493.000,396.092 C 493.000,395.683 491.908,394.323 490.573,393.069 C 489.239,391.815 487.140,388.249 485.910,385.145 C 483.020,377.852 482.374,377.089 477.216,374.878 C 474.844,373.862 470.842,371.611 468.323,369.878 C 464.089,366.965 462.673,366.618 449.621,365.295 C 431.127,363.421 405.037,363.928 399.713,366.266 C 394.971,368.348 385.242,377.550 380.494,384.445 C 374.439,393.236 374.616,406.242 380.833,409.381 C 382.300,410.121 387.325,411.983 392.000,413.518 C 396.675,415.053 402.525,417.182 405.000,418.248 C 413.798,422.041 420.699,422.990 436.500,422.583 C 446.869,422.316 453.198,421.670 457.000,420.492 Z" fill="#f38748" stroke="black" stroke-width="0.5" fill-rule="evenodd"/>
</svg>
