<?xml version='1.0' encoding='UTF-8'?>
<svg version="1.1" xmlns="http://www.w3.org/2000/svg" width="1000" height="600" viewBox="0 0 1000 600">
  <path d="M 387.287,288.206 C 396.107,282.442 402.321,275.448 416.949,254.823 C 419.163,251.701 423.909,246.526 427.495,243.323 C 436.495,235.286 437.505,232.372 437.484,214.500 C 437.466,199.651 436.289,193.760 432.986,191.992 C 430.672,190.754 424.898,190.708 421.756,191.903 C 417.398,193.559 403.528,204.725 395.869,212.742 C 389.679,219.221 387.270,222.758 382.651,232.151 C 377.366,242.895 376.929,244.342 375.883,254.568 C 374.074,272.239 376.103,295.233 379.304,293.346 C 379.962,292.959 383.554,290.646 387.287,288.206 Z" fill="#f38748" stroke="black" stroke-width="0.5" fill-rule="evenodd"/>
</svg>
