<?xml version='1.0' encoding='UTF-8'?>
<svg version="1.1" xmlns="http://www.w3.org/2000/svg" width="1000" height="600" viewBox="0 0 1000 600">
  <path d="M 618.853,287.057 C 620.241,278.653 620.319,258.105 618.998,248.500 C 617.479,237.450 609.611,222.776 599.500,212.138 C 587.510,199.523 579.053,193.107 572.733,191.829 C 563.064,189.875 559.477,193.166 557.734,205.592 C 556.502,214.369 558.007,231.228 560.428,235.788 C 561.221,237.280 564.825,241.117 568.438,244.315 C 572.050,247.513 576.692,252.522 578.753,255.446 C 586.408,266.307 593.790,275.651 598.575,280.534 C 603.462,285.522 614.486,293.691 616.603,293.894 C 617.216,293.953 618.217,290.910 618.853,287.057 Z" fill="#f38748" stroke="black" stroke-width="0.5" fill-rule="evenodd"/>
</svg>
