<?xml version='1.0' encoding='UTF-8'?>
<svg version="1.1" xmlns="http://www.w3.org/2000/svg" width="1000" height="600" viewBox="0 0 1000 600">
  <path d="M 597.000,417.284 C 604.425,414.548 612.962,411.451 615.971,410.403 C 622.882,407.995 624.250,405.664 623.668,397.290 C 623.367,392.958 622.438,389.716 620.595,386.571 C 616.835,380.156 607.496,370.376 602.100,367.204 C 597.681,364.607 596.850,364.487 581.000,364.180 C 558.323,363.741 538.291,365.880 533.137,369.290 C 531.062,370.664 526.564,373.201 523.141,374.929 C 517.229,377.913 516.752,378.432 513.624,385.285 C 511.812,389.253 509.581,393.118 508.665,393.872 C 507.749,394.627 507.000,395.547 507.000,395.917 C 507.000,396.286 509.363,399.125 512.250,402.225 C 517.002,407.328 530.480,416.221 538.000,419.216 C 544.442,421.781 555.016,422.937 569.000,422.604 L 583.500,422.258 L 597.000,417.284 Z" fill="#f38748" stroke="black" stroke-width="0.5" fill-rule="evenodd"/>
</svg>
