<?xml version='1.0' encoding='UTF-8'?>
<svg version="1.1" xmlns="http://www.w3.org/2000/svg" width="1000" height="600" viewBox="0 0 1000 600">
  <path d="M 375.241,452.950 C 377.363,452.360 381.474,449.627 384.741,446.632 C 387.909,443.728 393.295,439.645 396.711,437.558 C 402.062,434.289 404.348,433.575 413.211,432.403 C 434.356,429.608 446.423,430.953 456.262,437.200 C 460.616,439.965 461.618,440.191 467.932,439.834 C 473.940,439.494 475.543,438.958 480.259,435.710 C 483.240,433.657 488.498,431.025 491.942,429.862 C 497.408,428.016 498.566,427.159 501.049,423.124 C 503.721,418.779 509.101,411.024 516.873,400.310 C 518.728,397.753 521.160,392.925 522.278,389.580 C 523.396,386.236 525.894,381.025 527.829,378.000 C 530.942,373.133 531.399,371.564 531.793,364.369 C 532.206,356.836 532.064,356.066 529.869,353.901 C 528.566,352.615 526.239,349.995 524.697,348.078 C 520.032,342.276 510.903,335.207 503.500,331.664 C 499.650,329.821 494.786,327.143 492.692,325.712 C 490.582,324.270 485.454,322.351 481.192,321.407 C 476.549,320.379 469.851,317.793 464.294,314.882 C 455.207,310.124 454.934,310.053 443.294,309.418 C 428.722,308.624 418.542,309.976 409.982,313.843 C 406.417,315.453 399.000,317.986 393.500,319.471 C 388.000,320.957 381.025,323.470 378.000,325.056 C 374.975,326.642 368.930,329.537 364.566,331.490 C 357.538,334.634 355.158,336.495 343.745,347.770 C 328.782,362.553 319.437,374.626 315.314,384.500 C 313.707,388.350 310.729,393.913 308.696,396.862 C 305.245,401.869 305.000,402.718 305.000,409.678 C 305.000,420.238 308.332,425.460 321.189,435.048 C 328.126,440.220 340.256,445.781 361.000,453.299 C 363.565,454.228 371.323,454.038 375.241,452.950 Z" fill="#fdbc2a" stroke="black" stroke-width="0.5" fill-rule="evenodd"/>
</svg>
