<?xml version='1.0' encoding='UTF-8'?>
<svg version="1.1" xmlns="http://www.w3.org/2000/svg" width="1000" height="600" viewBox="0 0 1000 600">
  <path d="M 373.947,451.528 C 375.473,450.738 380.601,447.167 385.342,443.591 C 390.499,439.701 395.956,436.497 398.921,435.616 C 408.483,432.776 423.911,430.745 432.489,431.195 C 439.867,431.582 441.855,432.138 449.519,435.952 C 457.818,440.082 458.481,440.244 464.715,439.662 C 469.189,439.244 472.686,438.200 475.867,436.331 C 478.415,434.834 483.524,432.134 487.220,430.332 C 492.359,427.826 494.576,426.048 496.640,422.777 C 498.124,420.425 502.933,413.325 507.325,407.000 C 511.718,400.675 516.405,392.800 517.741,389.500 C 519.078,386.200 521.491,381.423 523.103,378.884 C 525.623,374.919 526.123,372.948 526.652,364.883 L 527.269,355.497 L 522.048,349.248 C 519.176,345.812 516.506,343.000 516.113,343.000 C 515.720,343.000 512.901,340.774 509.848,338.052 C 506.795,335.331 501.966,332.219 499.117,331.137 C 496.268,330.054 491.635,327.691 488.820,325.885 C 486.006,324.079 479.383,321.190 474.102,319.465 C 468.821,317.740 461.575,314.816 458.000,312.967 L 451.500,309.605 L 433.996,309.196 C 417.092,308.801 416.234,308.878 408.996,311.434 C 404.873,312.890 396.550,315.654 390.500,317.576 C 384.450,319.499 375.900,322.814 371.500,324.943 C 367.100,327.072 360.800,330.063 357.500,331.591 C 352.782,333.774 348.602,337.267 337.942,347.934 C 321.136,364.749 314.185,373.980 306.221,390.057 C 300.393,401.820 300.000,403.052 300.004,409.557 C 300.009,419.331 302.586,423.235 316.576,434.661 C 321.346,438.558 326.072,440.985 338.576,445.963 C 347.334,449.450 355.850,452.663 357.500,453.103 C 361.504,454.171 370.501,453.309 373.947,451.528 Z" fill="#fdbc2a" stroke="black" stroke-width="0.5" fill-rule="evenodd"/>
</svg>
