<?xml version='1.0' encoding='UTF-8'?>
<svg version="1.1" xmlns="http://www.w3.org/2000/svg" width="1000" height="600" viewBox="0 0 1000 600">
  <path d="M 643.430,323.027 C 645.166,322.367 646.959,320.051 649.003,315.832 C 650.661,312.411 652.891,308.680 653.961,307.542 C 655.030,306.404 656.617,303.768 657.487,301.685 C 661.743,291.499 662.018,246.470 657.913,232.000 C 655.671,224.098 652.388,211.178 649.019,197.000 C 647.580,190.943 644.243,182.933 637.408,169.131 C 628.483,151.108 627.262,149.184 619.827,141.440 C 603.999,124.953 596.542,121.149 590.317,126.387 C 587.777,128.524 586.297,131.772 581.950,144.742 C 577.397,158.325 576.607,161.837 576.221,170.184 C 575.646,182.617 577.530,189.149 583.658,195.965 C 586.195,198.786 587.997,201.772 587.993,203.147 C 587.989,204.441 588.722,210.609 589.622,216.852 C 591.240,228.083 591.304,228.251 595.566,232.514 C 599.984,236.931 602.648,243.384 601.521,246.935 C 601.156,248.083 601.879,249.891 603.447,251.755 C 606.053,254.851 608.237,261.736 609.466,270.727 C 609.941,274.197 611.138,277.157 613.029,279.537 C 614.595,281.508 616.874,286.131 618.093,289.810 C 619.312,293.490 621.314,297.850 622.543,299.500 C 623.771,301.150 625.967,304.877 627.422,307.783 C 628.877,310.689 631.641,315.527 633.564,318.533 C 637.193,324.205 638.620,324.855 643.430,323.027 Z" fill="#fdbc2a" stroke="black" stroke-width="0.5" fill-rule="evenodd"/>
</svg>
