<?xml version='1.0' encoding='UTF-8'?>
<svg version="1.1" xmlns="http://www.w3.org/2000/svg" width="1000" height="600" viewBox="0 0 1000 600">
  <path d="M 585.840,396.118 C 595.107,389.249 605.686,377.793 607.065,373.134 C 607.930,370.211 607.734,367.685 606.063,360.225 C 604.012,351.072 604.017,346.347 606.089,339.487 C 606.854,336.952 606.283,334.824 602.482,326.069 C 597.052,313.559 592.955,308.316 583.909,302.301 C 575.792,296.904 575.355,296.940 563.000,304.046 C 552.287,310.207 547.946,311.717 535.500,313.614 C 516.302,316.539 513.292,318.433 512.364,328.173 C 511.956,332.445 512.295,334.292 514.074,337.500 C 519.795,347.814 528.400,364.991 530.106,369.500 C 532.431,375.645 542.285,386.728 553.411,395.711 L 561.475,402.222 L 570.097,401.810 C 578.700,401.398 578.735,401.386 585.840,396.118 Z" fill="#8b09a4" stroke="black" stroke-width="0.5" fill-rule="evenodd"/>
</svg>
