<?xml version='1.0' encoding='UTF-8'?>
<svg version="1.1" xmlns="http://www.w3.org/2000/svg" width="1000" height="600" viewBox="0 0 1000 600">
  <path d="M 461.000,379.000 C 462.848,377.350 464.739,376.000 465.202,376.000 C 466.603,376.000 474.856,367.973 476.893,364.629 C 477.941,362.908 479.791,357.900 481.004,353.500 C 482.218,349.100 486.981,337.799 491.590,328.386 C 501.620,307.901 501.952,306.240 501.980,276.434 C 502.009,245.403 500.237,238.907 488.954,228.696 C 477.340,218.186 472.086,217.680 456.192,225.541 C 445.100,231.027 436.154,238.998 426.677,251.838 C 421.059,259.451 419.959,261.712 417.601,270.500 C 413.836,284.533 407.215,305.464 404.448,312.084 C 400.313,321.979 400.204,346.911 404.275,351.828 C 404.880,352.558 407.653,354.299 410.437,355.696 C 418.758,359.871 428.047,366.530 435.891,373.943 C 439.956,377.784 443.781,381.133 444.391,381.385 C 445.001,381.636 448.231,381.878 451.570,381.921 C 456.958,381.991 458.017,381.663 461.000,379.000 Z" fill="#b83289" stroke="black" stroke-width="0.5" fill-rule="evenodd"/>
</svg>
