<?xml version='1.0' encoding='UTF-8'?>
<svg version="1.1" xmlns="http://www.w3.org/2000/svg" width="1000" height="600" viewBox="0 0 1000 600">
  <path d="M 466.500,404.462 C 469.800,403.725 479.101,402.665 487.169,402.108 C 502.393,401.056 507.515,399.726 511.840,395.702 C 513.142,394.491 516.906,388.100 520.203,381.500 C 530.601,360.686 534.501,358.260 562.000,355.500 C 579.504,353.743 583.471,352.702 586.883,348.969 C 588.322,347.394 591.188,345.400 593.250,344.539 C 595.312,343.678 597.000,342.503 597.000,341.928 C 597.000,341.353 595.722,339.222 594.161,337.191 C 592.600,335.161 589.787,331.427 587.911,328.893 C 586.035,326.360 579.987,319.060 574.472,312.671 C 566.172,303.057 562.816,300.012 555.001,295.001 C 549.808,291.671 543.350,288.290 540.649,287.489 C 528.079,283.756 486.573,283.097 474.000,286.431 C 470.975,287.233 463.331,290.501 457.012,293.694 C 448.244,298.126 443.812,301.122 438.289,306.351 C 429.481,314.692 425.983,319.827 421.908,330.398 C 420.190,334.854 417.844,340.300 416.695,342.500 C 414.886,345.963 414.599,348.315 414.553,360.019 L 414.500,373.537 L 418.902,381.019 C 428.886,397.986 427.685,396.967 443.500,401.885 C 449.000,403.595 454.175,405.451 455.000,406.010 C 455.825,406.569 457.400,406.751 458.500,406.415 C 459.600,406.079 463.200,405.200 466.500,404.462 Z" fill="#b83289" stroke="black" stroke-width="0.5" fill-rule="evenodd"/>
</svg>
