<?xml version='1.0' encoding='UTF-8'?>
<svg version="1.1" xmlns="http://www.w3.org/2000/svg" width="1000" height="600" viewBox="0 0 1000 600">
  <path d="M 546.790,405.115 C 548.830,404.078 553.425,402.420 557.000,401.430 C 571.277,397.475 571.708,397.135 580.321,383.000 L 585.500,374.500 L 585.474,361.000 C 585.450,348.982 585.191,346.951 583.112,342.500 C 581.828,339.750 579.301,333.801 577.496,329.280 C 571.244,313.619 560.575,302.534 543.201,293.647 C 526.534,285.122 523.474,284.514 497.500,284.564 C 465.620,284.626 459.177,285.931 444.824,295.231 C 436.587,300.568 433.483,303.432 423.944,314.500 C 417.781,321.650 411.000,330.060 408.874,333.188 C 406.749,336.316 404.558,339.155 404.005,339.497 C 401.789,340.866 403.234,343.171 407.436,344.972 C 409.875,346.018 412.621,348.019 413.538,349.418 C 415.740,352.778 419.591,353.759 437.468,355.513 C 464.585,358.174 470.075,361.538 479.880,381.500 C 485.912,393.779 489.257,398.025 494.445,399.986 C 496.065,400.598 503.490,401.517 510.945,402.029 C 528.068,403.204 533.503,403.913 537.949,405.551 C 542.641,407.280 542.517,407.286 546.790,405.115 Z" fill="#b83289" stroke="black" stroke-width="0.5" fill-rule="evenodd"/>
</svg>
