<?xml version='1.0' encoding='UTF-8'?>
<svg version="1.1" xmlns="http://www.w3.org/2000/svg" width="1000" height="600" viewBox="0 0 1000 600">
  <path d="M 430.120,406.940 C 438.980,404.080 444.345,403.216 460.651,402.028 C 480.671,400.568 486.604,398.568 494.948,390.466 L 501.454,384.150 L 501.837,376.553 L 502.221,368.957 L 496.691,359.691 C 489.374,347.430 483.458,342.039 470.703,336.010 C 449.754,326.107 435.856,326.475 419.660,337.364 C 415.049,340.464 410.745,343.000 410.095,343.000 C 409.446,343.000 405.446,346.522 401.207,350.827 C 396.968,355.132 391.475,360.285 389.000,362.278 L 384.500,365.902 L 384.702,375.079 C 384.883,383.279 385.197,384.676 387.650,388.217 C 391.407,393.638 398.244,399.479 405.735,403.669 C 416.342,409.600 420.254,410.125 430.120,406.940 Z" fill="#8b09a4" stroke="black" stroke-width="0.5" fill-rule="evenodd"/>
</svg>
