<?xml version='1.0' encoding='UTF-8'?>
<svg version="1.1" xmlns="http://www.w3.org/2000/svg" width="1000" height="600" viewBox="0 0 1000 600">
  <path d="M 457.669,376.406 C 469.314,369.212 472.467,365.356 475.990,354.000 C 478.984,344.351 486.432,327.177 491.171,319.000 C 496.300,310.148 496.500,308.569 496.500,277.000 C 496.500,241.188 496.286,240.236 485.920,229.889 C 473.956,217.948 467.547,217.421 449.993,226.940 C 439.178,232.805 431.628,239.621 422.888,251.412 C 416.556,259.952 413.979,265.800 410.988,278.414 C 409.933,282.861 406.520,294.150 403.404,303.500 C 397.862,320.126 397.727,320.797 397.279,334.000 C 396.697,351.130 397.097,352.229 405.239,355.886 C 408.683,357.433 412.850,359.825 414.500,361.201 C 416.150,362.577 418.557,364.259 419.848,364.939 C 421.140,365.619 425.640,369.745 429.848,374.108 L 437.500,382.039 L 443.669,381.641 C 448.934,381.302 450.985,380.535 457.669,376.406 Z" fill="#b83289" stroke="black" stroke-width="0.5" fill-rule="evenodd"/>
</svg>
