<?xml version='1.0' encoding='UTF-8'?>
<svg version="1.1" xmlns="http://www.w3.org/2000/svg" width="1000" height="600" viewBox="0 0 1000 600">
  <path d="M 585.588,407.419 C 593.353,404.782 603.946,397.830 609.480,391.737 C 614.631,386.067 614.725,385.850 615.366,378.162 C 615.755,373.500 615.595,369.136 614.969,367.341 C 614.355,365.579 611.037,361.962 606.959,358.606 C 603.130,355.456 598.535,351.058 596.749,348.832 C 594.962,346.606 591.337,343.688 588.693,342.347 C 586.049,341.005 581.024,337.949 577.527,335.555 C 568.032,329.055 556.090,327.263 543.725,330.483 C 535.587,332.603 518.627,341.381 513.451,346.152 C 511.027,348.387 506.502,354.242 503.396,359.164 L 497.750,368.113 L 498.213,376.116 L 498.676,384.119 L 504.877,390.376 C 513.662,399.239 517.783,400.452 547.672,402.971 C 555.342,403.617 562.555,404.885 567.172,406.400 C 576.017,409.300 579.481,409.492 585.588,407.419 Z" fill="#8b09a4" stroke="black" stroke-width="0.5" fill-rule="evenodd"/>
</svg>
