<?xml version='1.0' encoding='UTF-8'?>
<svg version="1.1" xmlns="http://www.w3.org/2000/svg" width="1000" height="600" viewBox="0 0 1000 600">
  <path d="M 564.012,374.098 C 572.015,366.368 582.201,358.953 590.789,354.605 C 594.120,352.918 596.509,350.923 597.244,349.214 C 597.947,347.581 598.402,341.124 598.388,333.000 C 598.366,320.314 598.182,319.048 595.334,312.000 C 591.849,303.377 586.392,286.126 582.420,271.180 C 580.031,262.190 578.876,259.740 573.453,252.159 C 562.796,237.262 549.797,226.589 536.707,221.988 C 525.888,218.186 519.988,220.049 509.238,230.666 C 499.186,240.593 498.768,242.118 498.240,270.780 C 497.633,303.792 498.135,306.683 507.907,326.500 C 512.247,335.300 517.023,346.550 518.522,351.500 C 522.945,366.111 524.503,368.276 538.000,378.558 C 542.282,381.820 542.840,381.971 549.512,381.659 L 556.524,381.331 L 564.012,374.098 Z" fill="#b83289" stroke="black" stroke-width="0.5" fill-rule="evenodd"/>
</svg>
