<?xml version='1.0' encoding='UTF-8'?>
<svg version="1.1" xmlns="http://www.w3.org/2000/svg" width="1000" height="600" viewBox="0 0 1000 600">
  <path d="M 593.029,406.989 C 601.333,403.716 608.315,398.660 614.340,391.558 L 620.000,384.886 L 620.000,376.273 L 620.000,367.660 L 607.831,355.713 C 592.345,340.509 578.804,331.978 567.186,330.107 C 556.664,328.413 549.319,330.072 534.136,337.573 C 518.780,345.160 514.819,348.591 507.662,360.500 L 502.855,368.500 L 503.256,376.889 L 503.656,385.278 L 510.078,391.156 C 519.394,399.682 523.520,400.965 545.061,402.029 C 560.888,402.811 563.405,403.190 570.561,405.867 C 580.017,409.404 586.126,409.709 593.029,406.989 Z" fill="#8b09a4" stroke="black" stroke-width="0.5" fill-rule="evenodd"/>
</svg>
