<?xml version='1.0' encoding='UTF-8'?>
<svg version="1.1" xmlns="http://www.w3.org/2000/svg" width="1000" height="600" viewBox="0 0 1000 600">
  <path d="M 458.669,404.515 C 461.876,403.699 471.475,402.591 480.000,402.053 C 503.222,400.587 505.524,399.430 512.348,385.788 C 518.874,372.742 523.731,366.014 529.323,362.277 C 535.236,358.325 538.938,357.206 550.500,355.875 C 573.307,353.248 577.675,352.231 585.077,347.815 C 588.951,345.505 592.291,343.338 592.499,343.001 C 593.366,341.598 587.064,332.960 571.339,313.995 C 560.050,300.381 558.498,298.918 549.717,293.605 C 544.513,290.457 538.190,287.260 535.665,286.500 C 524.802,283.230 498.685,282.067 480.094,284.025 C 458.510,286.299 433.771,300.974 422.340,318.286 C 420.601,320.919 417.027,328.344 414.398,334.786 L 409.617,346.500 L 409.558,359.500 L 409.500,372.500 L 415.407,382.500 C 418.656,388.000 422.031,393.346 422.907,394.380 C 424.986,396.833 430.775,399.267 439.684,401.435 C 443.635,402.396 447.685,403.803 448.684,404.560 C 450.996,406.312 451.623,406.309 458.669,404.515 Z" fill="#b83289" stroke="black" stroke-width="0.5" fill-rule="evenodd"/>
</svg>
