<?xml version='1.0' encoding='UTF-8'?>
<svg version="1.1" xmlns="http://www.w3.org/2000/svg" width="1000" height="600" viewBox="0 0 1000 600">
  <path d="M 557.500,402.455 C 573.020,397.299 574.527,396.627 577.403,393.578 C 579.000,391.885 582.600,386.675 585.403,382.000 L 590.500,373.500 L 590.423,360.000 L 590.346,346.500 L 585.135,334.125 C 579.032,319.632 575.960,314.840 567.061,305.934 C 561.812,300.680 558.067,298.131 548.337,293.189 C 530.703,284.233 527.243,283.563 499.000,283.637 C 469.720,283.715 464.804,284.774 449.567,294.293 C 441.284,299.467 438.291,302.066 432.511,309.104 C 428.655,313.799 423.250,320.352 420.500,323.666 C 413.743,331.809 407.500,340.692 407.500,342.163 C 407.500,343.441 413.848,347.723 420.500,350.933 C 422.700,351.994 428.438,353.344 433.250,353.931 C 438.062,354.519 445.888,355.476 450.639,356.057 C 470.186,358.449 477.400,364.363 488.991,387.500 C 495.201,399.895 496.814,400.670 519.300,402.076 C 528.468,402.649 537.889,403.739 540.235,404.499 C 545.305,406.140 547.022,405.937 557.500,402.455 Z" fill="#b83289" stroke="black" stroke-width="0.5" fill-rule="evenodd"/>
</svg>
