<?xml version='1.0' encoding='UTF-8'?>
<svg version="1.1" xmlns="http://www.w3.org/2000/svg" width="1000" height="600" viewBox="0 0 1000 600">
  <path d="M 654.309,448.144 C 662.659,444.287 682.328,431.720 684.938,428.574 C 686.850,426.271 687.461,417.425 686.066,412.246 C 685.189,408.989 682.829,405.879 675.875,398.818 C 667.808,390.627 666.615,389.760 664.897,390.832 C 663.837,391.494 659.939,392.722 656.235,393.560 C 652.531,394.398 646.740,395.984 643.367,397.084 C 637.308,399.061 637.160,399.200 631.008,408.646 C 623.688,419.886 622.602,423.192 623.252,432.269 C 623.876,440.999 627.543,447.302 634.000,450.743 C 639.669,453.764 643.094,453.326 654.309,448.144 Z" fill="#fcc726" stroke="black" stroke-width="0.5" fill-rule="evenodd"/>
</svg>
