<?xml version='1.0' encoding='UTF-8'?>
<svg version="1.1" xmlns="http://www.w3.org/2000/svg" width="1000" height="600" viewBox="0 0 1000 600">
  <path d="M 616.592,277.681 C 621.531,276.646 623.755,275.467 628.343,271.452 C 634.460,266.100 635.985,262.799 635.994,254.885 C 636.001,249.693 635.119,248.275 625.368,237.801 C 621.938,234.117 616.316,226.802 612.874,221.545 C 607.584,213.465 606.067,211.836 603.059,211.000 C 595.213,208.820 588.789,210.340 576.921,217.183 C 563.420,224.966 559.745,230.536 559.926,242.938 C 560.104,255.170 560.693,256.451 571.101,267.262 C 580.117,276.626 580.724,277.059 586.000,277.895 C 594.357,279.219 609.771,279.111 616.592,277.681 Z" fill="#fca934" stroke="black" stroke-width="0.5" fill-rule="evenodd"/>
</svg>
