<?xml version='1.0' encoding='UTF-8'?>
<svg version="1.1" xmlns="http://www.w3.org/2000/svg" width="1000" height="600" viewBox="0 0 1000 600">
  <path d="M 426.800,512.601 C 429.403,511.282 433.326,509.737 435.517,509.169 C 437.708,508.600 441.453,507.626 443.841,507.004 C 449.920,505.421 455.942,499.492 464.665,486.500 C 468.727,480.450 473.684,473.324 475.680,470.665 C 478.353,467.104 479.433,464.545 479.778,460.960 C 480.197,456.597 479.941,455.787 477.309,453.156 C 473.094,448.940 465.662,447.648 449.011,448.236 C 428.647,448.955 421.982,452.270 410.929,467.176 C 404.805,475.436 403.000,480.656 403.000,490.106 C 403.000,498.926 404.696,503.299 410.087,508.388 C 412.789,510.938 415.000,513.469 415.000,514.012 C 415.000,515.854 422.043,515.012 426.800,512.601 Z" fill="#fca934" stroke="black" stroke-width="0.5" fill-rule="evenodd"/>
</svg>
