<?xml version='1.0' encoding='UTF-8'?>
<svg version="1.1" xmlns="http://www.w3.org/2000/svg" width="1000" height="600" viewBox="0 0 1000 600">
  <path d="M 441.144,168.459 C 446.277,164.972 455.609,155.560 457.463,152.000 C 458.180,150.625 459.088,147.119 459.482,144.208 C 459.937,140.850 461.090,137.858 462.637,136.019 L 465.075,133.122 L 460.397,126.811 C 454.014,118.202 452.123,116.701 439.767,110.439 C 426.954,103.946 423.316,103.540 417.261,107.926 C 410.946,112.501 409.500,117.474 409.500,134.624 L 409.500,148.747 L 414.000,157.524 C 416.475,162.352 419.742,167.636 421.259,169.267 C 423.865,172.067 424.375,172.209 430.404,171.825 C 435.410,171.506 437.729,170.780 441.144,168.459 Z" fill="#ea7455" stroke="black" stroke-width="0.5" fill-rule="evenodd"/>
</svg>
