<?xml version='1.0' encoding='UTF-8'?>
<svg version="1.1" xmlns="http://www.w3.org/2000/svg" width="1000" height="600" viewBox="0 0 1000 600">
  <path d="M 581.476,170.829 C 585.152,169.154 593.736,153.769 595.130,146.356 C 596.349,139.875 595.686,124.811 593.904,118.500 C 593.199,116.005 590.940,112.664 587.901,109.621 C 583.188,104.903 582.873,104.758 578.264,105.220 C 572.237,105.823 561.354,110.456 555.290,115.000 C 552.721,116.925 548.058,121.650 544.927,125.500 L 539.234,132.500 L 541.971,135.618 C 543.861,137.771 544.924,140.373 545.409,144.025 C 545.795,146.933 546.726,150.504 547.479,151.959 C 549.603,156.067 562.621,168.932 566.248,170.508 C 570.239,172.243 578.013,172.407 581.476,170.829 Z" fill="#ea7455" stroke="black" stroke-width="0.5" fill-rule="evenodd"/>
</svg>
