<?xml version='1.0' encoding='UTF-8'?>
<svg version="1.1" xmlns="http://www.w3.org/2000/svg" width="1000" height="600" viewBox="0 0 1000 600">
  <path d="M 403.343,335.750 C 404.097,333.962 406.525,330.218 408.738,327.429 C 410.952,324.640 413.464,321.003 414.321,319.347 C 415.177,317.690 417.480,314.417 419.439,312.073 C 424.755,305.710 424.382,302.755 417.302,295.133 C 414.169,291.760 411.201,289.000 410.707,289.000 C 410.213,289.000 406.042,286.467 401.438,283.372 C 392.072,277.075 387.546,275.792 378.974,277.004 C 373.262,277.811 371.082,278.722 358.718,285.467 C 350.367,290.024 348.570,292.495 349.247,298.496 C 350.266,307.539 361.601,318.435 378.500,326.617 C 383.450,329.014 390.425,332.743 394.000,334.903 C 397.575,337.064 400.831,338.870 401.237,338.916 C 401.642,338.962 402.590,337.538 403.343,335.750 Z" fill="#f0814d" stroke="black" stroke-width="0.5" fill-rule="evenodd"/>
</svg>
