<?xml version='1.0' encoding='UTF-8'?>
<svg version="1.1" xmlns="http://www.w3.org/2000/svg" width="1000" height="600" viewBox="0 0 1000 600">
  <path d="M 576.800,170.603 C 580.143,168.872 588.518,155.056 589.926,148.947 C 591.379,142.644 591.212,126.534 589.625,119.788 C 588.000,112.884 585.933,109.540 581.696,106.956 C 576.552,103.820 572.712,104.472 560.253,110.600 C 548.655,116.304 544.086,119.913 539.227,127.206 C 537.727,129.457 536.055,131.902 535.512,132.639 C 534.798,133.607 535.136,134.407 536.733,135.526 C 538.864,137.018 540.105,140.361 541.444,148.214 C 541.852,150.608 543.752,153.868 546.789,157.383 C 551.370,162.687 560.020,170.084 563.017,171.260 C 565.873,172.381 574.124,171.987 576.800,170.603 Z" fill="#ea7455" stroke="black" stroke-width="0.5" fill-rule="evenodd"/>
</svg>
