<?xml version='1.0' encoding='UTF-8'?>
<svg version="1.1" xmlns="http://www.w3.org/2000/svg" width="1000" height="600" viewBox="0 0 1000 600">
  <path d="M 458.639,420.902 C 462.643,420.205 467.049,418.514 470.721,416.265 C 473.899,414.318 479.197,411.175 482.492,409.280 C 485.788,407.385 490.596,403.762 493.176,401.228 C 497.244,397.233 497.710,396.371 496.684,394.735 C 496.033,393.698 493.700,389.652 491.500,385.745 C 487.662,378.927 487.168,378.473 479.288,374.510 C 474.772,372.238 470.155,369.545 469.028,368.525 C 466.232,365.995 448.431,365.152 442.500,367.269 C 438.855,368.570 438.224,369.354 435.393,376.098 C 433.684,380.169 431.131,385.199 429.720,387.276 C 426.793,391.583 425.202,401.894 426.830,406.000 C 427.376,407.375 430.299,410.923 433.327,413.883 C 440.946,421.333 446.817,422.961 458.639,420.902 Z" fill="#f5e926" stroke="black" stroke-width="0.5" fill-rule="evenodd"/>
</svg>
