<?xml version='1.0' encoding='UTF-8'?>
<svg version="1.1" xmlns="http://www.w3.org/2000/svg" width="1000" height="600" viewBox="0 0 1000 600">
  <path d="M 559.500,419.539 C 561.150,418.843 565.087,415.545 568.250,412.211 C 572.569,407.657 574.000,405.418 574.000,403.211 C 574.000,397.197 571.948,389.784 569.154,385.706 C 567.570,383.392 565.929,380.375 565.507,379.000 C 565.084,377.625 563.850,374.592 562.764,372.260 C 560.201,366.756 556.213,365.562 542.811,366.283 C 534.101,366.752 532.752,367.092 529.452,369.652 C 527.434,371.219 522.593,374.075 518.696,376.000 C 511.812,379.400 511.475,379.743 506.915,388.000 L 502.220,396.500 L 506.860,401.304 C 509.412,403.946 514.650,407.918 518.500,410.130 C 522.350,412.343 527.525,415.459 530.000,417.056 C 537.315,421.775 551.393,422.960 559.500,419.539 Z" fill="#f5e926" stroke="black" stroke-width="0.5" fill-rule="evenodd"/>
</svg>
