<?xml version='1.0' encoding='UTF-8'?>
<svg version="1.1" xmlns="http://www.w3.org/2000/svg" width="1000" height="600" viewBox="0 0 1000 600">
  <path d="M 412.115,294.148 C 413.427,293.130 417.650,291.266 421.500,290.007 C 427.030,288.199 429.584,286.644 433.659,282.602 C 439.248,277.060 440.766,272.899 439.556,266.444 C 438.357,260.054 437.131,259.549 419.370,258.122 C 398.705,256.463 393.610,257.635 390.936,264.667 C 390.443,265.964 388.889,267.549 387.481,268.190 C 385.929,268.898 385.134,269.907 385.460,270.757 C 385.756,271.527 386.914,275.834 388.035,280.329 C 390.622,290.705 391.861,293.813 393.881,294.993 C 394.772,295.514 398.702,295.953 402.615,295.970 C 408.049,295.993 410.294,295.562 412.115,294.148 Z" fill="#0c0786" stroke="black" stroke-width="0.5" fill-rule="evenodd"/>
</svg>
