<?xml version='1.0' encoding='UTF-8'?>
<svg version="1.1" xmlns="http://www.w3.org/2000/svg" width="1000" height="600" viewBox="0 0 1000 600">
  <path d="M 605.455,295.379 C 607.768,294.491 609.711,290.261 611.918,281.306 C 612.976,277.012 614.132,272.573 614.487,271.441 C 614.980,269.872 614.534,269.109 612.615,268.234 C 611.230,267.603 609.330,265.605 608.394,263.793 C 604.960,257.146 601.769,256.443 582.079,257.993 C 565.677,259.285 562.744,260.072 561.130,263.615 C 558.474,269.443 560.197,275.960 566.102,282.421 C 570.125,286.823 572.049,288.054 577.712,289.851 C 581.445,291.035 585.850,292.900 587.500,293.995 C 589.740,295.483 592.188,295.988 597.168,295.993 C 600.836,295.997 604.565,295.720 605.455,295.379 Z" fill="#0c0786" stroke="black" stroke-width="0.5" fill-rule="evenodd"/>
</svg>
