<?xml version='1.0' encoding='UTF-8'?>
<svg version="1.1" xmlns="http://www.w3.org/2000/svg" width="1000" height="600" viewBox="0 0 1000 600">
  <path d="M 369.244,329.805 C 375.830,325.428 385.000,313.863 385.000,309.933 C 385.000,308.484 384.567,305.994 384.039,304.399 C 383.510,302.805 382.627,297.288 382.077,292.141 C 381.111,283.105 381.165,282.609 383.626,277.751 C 386.691,271.703 387.902,260.262 386.065,254.697 C 384.593,250.236 382.013,249.563 368.802,250.195 L 359.698,250.630 L 352.420,258.221 C 345.986,264.931 344.133,267.833 336.450,283.231 C 327.994,300.180 327.755,300.851 327.629,308.075 C 327.427,319.713 328.314,322.249 334.796,328.548 L 340.500,334.091 L 352.091,333.796 C 363.580,333.503 363.732,333.467 369.244,329.805 Z" fill="#5701a4" stroke="black" stroke-width="0.5" fill-rule="evenodd"/>
</svg>
