<?xml version='1.0' encoding='UTF-8'?>
<svg version="1.1" xmlns="http://www.w3.org/2000/svg" width="1000" height="600" viewBox="0 0 1000 600">
  <path d="M 610.929,295.038 C 613.248,293.797 614.635,290.274 616.457,281.000 C 617.267,276.875 618.218,272.508 618.570,271.295 C 619.082,269.530 618.721,268.968 616.756,268.475 C 615.292,268.107 613.654,266.497 612.691,264.479 C 609.687,258.180 607.435,257.484 590.535,257.631 C 575.837,257.759 567.241,259.051 565.765,261.353 C 564.535,263.273 564.915,272.863 566.357,276.282 C 568.611,281.630 576.740,288.347 584.520,291.290 C 588.359,292.743 592.625,294.368 594.000,294.902 C 597.277,296.175 608.634,296.266 610.929,295.038 Z" fill="#0c0786" stroke="black" stroke-width="0.5" fill-rule="evenodd"/>
</svg>
