<?xml version='1.0' encoding='UTF-8'?>
<svg version="1.1" xmlns="http://www.w3.org/2000/svg" width="1000" height="600" viewBox="0 0 1000 600">
  <path d="M 406.328,425.250 C 408.310,423.738 411.103,421.668 412.535,420.651 C 414.334,419.374 414.920,418.292 414.433,417.151 C 414.045,416.243 411.772,409.981 409.382,403.236 C 403.835,387.579 403.344,386.658 393.517,373.500 C 388.999,367.450 384.723,361.375 384.016,360.000 C 383.308,358.625 382.591,357.338 382.422,357.141 C 382.253,356.943 380.768,357.741 379.121,358.914 C 377.475,360.086 373.244,362.395 369.720,364.044 L 363.313,367.042 L 362.083,373.925 C 360.639,382.006 361.404,385.829 365.868,392.815 C 367.515,395.392 369.831,400.102 371.015,403.282 C 374.035,411.393 378.434,416.752 386.525,422.174 C 396.472,428.841 400.752,429.505 406.328,425.250 Z" fill="#7601a8" stroke="black" stroke-width="0.5" fill-rule="evenodd"/>
</svg>
