<?xml version='1.0' encoding='UTF-8'?>
<svg version="1.1" xmlns="http://www.w3.org/2000/svg" width="1000" height="600" viewBox="0 0 1000 600">
  <path d="M 629.551,416.979 C 643.383,410.403 650.000,404.509 650.000,398.765 C 650.000,395.689 649.203,394.091 645.861,390.465 C 641.541,385.778 638.491,384.502 625.500,381.947 C 622.200,381.297 617.475,379.757 615.000,378.523 C 612.444,377.249 607.481,375.980 603.513,375.588 L 596.526,374.896 L 599.405,377.901 C 601.532,380.121 602.406,382.173 602.750,385.749 C 603.439,392.925 601.036,395.158 582.607,404.462 C 568.872,411.396 565.249,414.000 569.337,414.000 C 570.008,414.000 573.906,415.605 577.999,417.567 C 586.571,421.675 595.379,423.059 609.551,422.525 C 618.066,422.204 619.251,421.876 629.551,416.979 Z" fill="#7601a8" stroke="black" stroke-width="0.5" fill-rule="evenodd"/>
</svg>
