<?xml version='1.0' encoding='UTF-8'?>
<svg version="1.1" xmlns="http://www.w3.org/2000/svg" width="1000" height="600" viewBox="0 0 1000 600">
  <path d="M 371.185,333.062 C 373.885,331.969 381.056,325.148 385.847,319.117 C 388.758,315.452 389.128,314.357 388.688,310.702 C 388.410,308.391 387.623,301.191 386.938,294.703 L 385.694,282.906 L 388.097,279.703 C 390.290,276.781 390.500,275.551 390.500,265.663 C 390.500,255.030 390.448,254.782 387.694,252.413 C 385.138,250.214 384.027,250.003 375.194,250.035 C 369.441,250.056 364.670,250.565 363.458,251.285 C 355.146,256.230 350.093,263.329 339.224,285.332 C 333.667,296.582 332.753,299.231 332.283,305.444 C 331.317,318.210 335.833,327.431 345.500,332.435 C 348.922,334.206 367.255,334.654 371.185,333.062 Z" fill="#5701a4" stroke="black" stroke-width="0.5" fill-rule="evenodd"/>
</svg>
