<?xml version='1.0' encoding='UTF-8'?>
<svg version="1.1" xmlns="http://www.w3.org/2000/svg" width="1000" height="600" viewBox="0 0 1000 600">
  <path d="M 375.426,452.899 C 380.742,451.423 401.027,431.849 399.500,429.669 C 398.950,428.884 396.401,425.150 393.836,421.371 C 387.952,412.702 362.600,386.741 354.000,380.577 C 349.708,377.500 344.780,375.088 339.491,373.472 C 335.086,372.127 330.541,370.367 329.390,369.561 C 327.425,368.184 327.024,368.415 322.734,373.383 C 320.224,376.291 316.850,381.581 315.237,385.138 C 313.624,388.696 310.660,393.996 308.652,396.915 C 305.251,401.860 305.000,402.736 305.000,409.678 C 305.000,420.238 308.332,425.460 321.189,435.048 C 328.126,440.220 340.256,445.781 361.000,453.299 C 363.610,454.244 371.352,454.030 375.426,452.899 Z" fill="#c13c80" stroke="black" stroke-width="0.5" fill-rule="evenodd"/>
</svg>
