<?xml version='1.0' encoding='UTF-8'?>
<svg version="1.1" xmlns="http://www.w3.org/2000/svg" width="1000" height="600" viewBox="0 0 1000 600">
  <path d="M 584.316,394.836 C 590.316,391.637 597.926,383.443 606.847,370.577 C 618.072,354.387 618.895,352.824 618.955,347.568 C 619.041,340.067 616.740,325.900 615.111,323.904 C 614.225,322.817 609.000,320.400 603.500,318.532 C 598.000,316.665 590.709,313.972 587.297,312.548 C 579.866,309.446 564.310,308.258 551.286,309.798 C 544.073,310.652 542.202,311.327 535.921,315.345 C 531.988,317.862 527.261,320.419 525.418,321.027 C 522.689,321.928 521.942,322.790 521.402,325.668 C 520.844,328.646 521.465,330.592 525.348,338.022 C 530.105,347.124 535.000,359.132 535.000,361.699 C 535.000,363.350 539.873,369.497 548.000,378.096 C 555.004,385.508 572.576,395.851 578.316,395.941 C 580.414,395.973 583.114,395.476 584.316,394.836 Z" fill="#dc5d66" stroke="black" stroke-width="0.5" fill-rule="evenodd"/>
</svg>
