<?xml version='1.0' encoding='UTF-8'?>
<svg version="1.1" xmlns="http://www.w3.org/2000/svg" width="1000" height="600" viewBox="0 0 1000 600">
  <path d="M 480.239,435.724 C 483.231,433.663 488.498,431.025 491.942,429.862 C 497.408,428.016 498.566,427.159 501.049,423.124 C 503.721,418.779 509.101,411.024 516.873,400.310 C 518.728,397.753 521.160,392.925 522.278,389.580 C 523.396,386.236 525.894,381.025 527.829,378.000 C 530.930,373.152 531.400,371.550 531.787,364.487 L 532.226,356.474 L 527.863,351.564 C 518.448,340.970 510.607,334.536 503.750,331.778 C 500.863,330.616 497.057,328.608 495.293,327.315 L 492.085,324.963 L 488.714,330.232 C 484.316,337.104 472.335,348.132 463.943,353.033 C 456.471,357.397 441.857,369.275 434.905,376.635 C 426.467,385.567 415.801,399.098 415.056,401.815 C 414.064,405.434 415.376,409.641 418.844,413.956 C 420.426,415.924 423.154,420.075 424.906,423.180 C 428.002,428.665 428.240,428.845 433.296,429.523 C 441.038,430.562 452.087,434.301 456.556,437.395 C 460.109,439.854 461.209,440.092 467.649,439.798 C 474.006,439.508 475.401,439.056 480.239,435.724 Z" fill="#d3516f" stroke="black" stroke-width="0.5" fill-rule="evenodd"/>
</svg>
