<?xml version='1.0' encoding='UTF-8'?>
<svg version="1.1" xmlns="http://www.w3.org/2000/svg" width="1000" height="600" viewBox="0 0 1000 600">
  <path d="M 649.634,323.235 C 650.257,322.831 652.102,319.575 653.733,316.000 C 655.363,312.425 657.670,308.639 658.859,307.586 C 663.079,303.848 664.274,297.089 664.753,274.260 C 665.437,241.644 663.787,233.668 654.607,225.205 C 649.021,220.056 644.824,219.595 640.057,223.605 C 633.435,229.178 630.206,237.696 629.053,252.637 C 628.300,262.386 627.281,264.447 618.600,273.780 C 616.038,276.535 615.743,277.336 616.764,278.780 C 619.341,282.427 622.259,288.511 623.604,293.038 C 624.375,295.635 625.717,298.350 626.585,299.070 C 627.453,299.791 629.534,303.107 631.209,306.440 C 632.884,309.773 636.063,315.087 638.272,318.250 C 641.707,323.166 642.740,323.998 645.395,323.985 C 647.103,323.976 649.010,323.639 649.634,323.235 Z" fill="#d3516f" stroke="black" stroke-width="0.5" fill-rule="evenodd"/>
</svg>
