<?xml version='1.0' encoding='UTF-8'?>
<svg version="1.1" xmlns="http://www.w3.org/2000/svg" width="1000" height="600" viewBox="0 0 1000 600">
  <path d="M 634.543,223.744 C 646.202,216.902 647.500,214.573 647.500,200.500 C 647.500,190.804 647.372,190.233 643.289,181.736 C 637.648,169.994 631.271,160.316 624.088,152.595 L 618.151,146.213 L 614.582,148.638 C 612.619,149.972 608.517,152.018 605.466,153.186 C 597.977,156.052 591.359,163.333 588.012,172.389 C 586.644,176.091 584.743,179.828 583.788,180.692 C 582.141,182.183 582.146,182.398 583.884,184.882 C 584.892,186.322 586.711,190.520 587.927,194.210 C 589.830,199.990 590.967,201.653 596.133,206.210 C 599.431,209.120 606.075,215.438 610.897,220.250 C 621.621,230.952 622.132,231.028 634.543,223.744 Z" fill="#cb4777" stroke="black" stroke-width="0.5" fill-rule="evenodd"/>
</svg>
