<?xml version='1.0' encoding='UTF-8'?>
<svg version="1.1" xmlns="http://www.w3.org/2000/svg" width="1000" height="600" viewBox="0 0 1000 600">
  <path d="M 374.336,451.347 C 378.886,449.025 385.776,442.505 391.200,435.387 L 395.901,429.220 L 393.804,427.360 C 392.651,426.337 390.132,423.025 388.207,420.000 C 383.983,413.364 362.289,390.989 352.299,382.965 C 346.701,378.470 343.249,376.585 336.799,374.505 C 332.234,373.033 326.999,370.907 325.164,369.780 L 321.828,367.731 L 317.164,373.030 C 314.599,375.944 309.688,383.724 306.250,390.318 C 300.294,401.743 300.000,402.641 300.004,409.404 C 300.009,419.350 302.526,423.186 316.576,434.661 C 321.346,438.558 326.072,440.985 338.576,445.963 C 347.334,449.450 355.850,452.663 357.500,453.103 C 361.657,454.212 370.539,453.286 374.336,451.347 Z" fill="#c13c80" stroke="black" stroke-width="0.5" fill-rule="evenodd"/>
</svg>
