<?xml version='1.0' encoding='UTF-8'?>
<svg version="1.1" xmlns="http://www.w3.org/2000/svg" width="1000" height="600" viewBox="0 0 1000 600">
  <path d="M 643.430,323.027 C 645.166,322.367 646.959,320.051 649.003,315.832 C 650.661,312.411 652.891,308.680 653.961,307.542 C 659.262,301.899 661.563,285.801 660.542,261.500 C 659.525,237.304 657.684,230.442 650.524,224.155 C 638.342,213.459 624.035,231.502 624.006,257.600 C 624.000,262.974 621.576,267.448 614.760,274.666 L 611.770,277.832 L 614.271,281.166 C 615.646,283.000 617.532,287.163 618.462,290.417 C 619.392,293.671 621.193,297.721 622.465,299.417 C 623.736,301.113 625.967,304.877 627.422,307.783 C 628.877,310.689 631.641,315.527 633.564,318.533 C 637.193,324.205 638.620,324.855 643.430,323.027 Z" fill="#d3516f" stroke="black" stroke-width="0.5" fill-rule="evenodd"/>
</svg>
