<?xml version='1.0' encoding='UTF-8'?>
<svg version="1.1" xmlns="http://www.w3.org/2000/svg" width="1000" height="600" viewBox="0 0 1000 600">
  <path d="M 471.500,354.819 C 477.163,353.399 484.920,347.082 490.938,338.989 C 495.567,332.764 495.973,331.818 494.885,329.785 C 494.218,328.539 493.466,323.227 493.213,317.981 C 492.816,309.742 493.052,307.749 494.944,303.351 C 496.966,298.653 497.022,297.988 495.671,294.754 C 494.394,291.699 493.530,291.087 488.942,289.986 C 485.529,289.167 480.628,288.940 474.999,289.339 C 467.584,289.866 465.170,290.531 458.410,293.912 C 454.060,296.087 447.293,298.596 443.373,299.486 L 436.247,301.104 L 427.373,311.134 C 412.173,328.316 403.000,339.971 403.000,342.101 C 403.000,342.652 404.688,343.790 406.750,344.631 C 408.812,345.471 411.890,347.645 413.590,349.460 C 417.280,353.404 423.225,354.692 443.500,355.945 C 457.178,356.790 464.872,356.480 471.500,354.819 Z" fill="#ac2593" stroke="black" stroke-width="0.5" fill-rule="evenodd"/>
</svg>
