<?xml version='1.0' encoding='UTF-8'?>
<svg version="1.1" xmlns="http://www.w3.org/2000/svg" width="1000" height="600" viewBox="0 0 1000 600">
  <path d="M 585.588,407.419 C 593.353,404.782 603.946,397.830 609.480,391.737 C 614.631,386.067 614.725,385.850 615.366,378.162 C 615.755,373.500 615.595,369.136 614.969,367.341 C 614.355,365.579 611.037,361.962 606.959,358.606 C 603.130,355.456 598.535,351.058 596.749,348.832 C 594.962,346.606 591.250,343.653 588.500,342.269 C 585.750,340.886 581.325,338.168 578.666,336.230 C 566.526,327.381 554.094,327.959 549.526,337.586 C 546.010,344.995 546.363,375.879 550.118,389.500 C 551.599,394.869 556.774,399.583 566.860,404.750 C 575.947,409.406 578.616,409.786 585.588,407.419 Z" fill="#fdb82c" stroke="black" stroke-width="0.5" fill-rule="evenodd"/>
</svg>
