<?xml version='1.0' encoding='UTF-8'?>
<svg version="1.1" xmlns="http://www.w3.org/2000/svg" width="1000" height="600" viewBox="0 0 1000 600">
  <path d="M 551.790,404.149 C 553.830,403.131 558.592,401.537 562.372,400.607 C 570.102,398.705 575.729,396.110 578.095,393.356 C 578.972,392.335 581.194,388.800 583.033,385.500 C 584.872,382.200 587.248,378.301 588.313,376.835 C 590.790,373.428 590.994,362.822 588.669,358.326 C 586.814,354.740 580.980,352.136 568.000,349.100 C 563.325,348.006 556.842,346.186 553.593,345.056 C 533.457,338.047 523.072,348.391 523.026,375.500 C 523.009,385.800 524.153,390.906 527.297,394.554 C 529.124,396.675 544.617,405.446 547.290,405.874 C 547.724,405.943 549.749,405.167 551.790,404.149 Z" fill="#47029f" stroke="black" stroke-width="0.5" fill-rule="evenodd"/>
</svg>
