<?xml version='1.0' encoding='UTF-8'?>
<svg version="1.1" xmlns="http://www.w3.org/2000/svg" width="1000" height="600" viewBox="0 0 1000 600">
  <path d="M 593.473,352.576 C 597.824,350.758 598.549,347.632 598.359,331.500 C 598.226,320.188 598.004,318.955 594.499,310.000 C 589.594,297.466 587.781,294.068 584.168,290.636 C 579.566,286.265 574.058,286.024 565.420,289.815 C 561.614,291.486 555.475,293.612 551.777,294.541 C 543.198,296.696 542.321,297.715 544.776,302.674 C 545.818,304.778 547.721,309.200 549.005,312.500 C 552.278,320.914 560.060,331.767 566.254,336.556 C 569.139,338.787 573.655,343.287 576.290,346.556 C 582.584,354.368 586.174,355.626 593.473,352.576 Z" fill="#b7308a" stroke="black" stroke-width="0.5" fill-rule="evenodd"/>
</svg>
