<?xml version='1.0' encoding='UTF-8'?>
<svg version="1.1" xmlns="http://www.w3.org/2000/svg" width="1000" height="600" viewBox="0 0 1000 600">
  <path d="M 522.792,277.416 C 529.497,274.075 541.772,262.583 547.064,254.693 C 551.071,248.718 551.198,248.286 550.662,242.413 C 550.356,239.065 549.578,235.167 548.932,233.751 C 548.287,232.335 544.244,228.887 539.947,226.088 C 533.221,221.707 531.448,221.000 527.182,221.000 C 523.039,221.000 521.212,221.678 516.025,225.142 C 509.129,229.747 502.860,237.007 500.832,242.736 C 500.006,245.071 499.500,251.055 499.500,258.500 C 499.500,271.661 500.955,276.152 506.055,278.733 C 510.144,280.802 517.094,280.256 522.792,277.416 Z" fill="#47029f" stroke="black" stroke-width="0.5" fill-rule="evenodd"/>
</svg>
