<?xml version='1.0' encoding='UTF-8'?>
<svg version="1.1" xmlns="http://www.w3.org/2000/svg" width="1000" height="600" viewBox="0 0 1000 600">
  <path d="M 535.102,316.625 C 541.188,315.814 545.948,314.586 548.102,313.270 C 549.971,312.129 554.424,309.973 557.998,308.480 C 564.989,305.560 576.250,296.385 581.171,289.600 C 584.424,285.115 584.772,280.964 582.529,273.408 C 581.324,269.352 579.491,266.928 572.427,260.045 C 566.276,254.052 563.435,251.905 562.534,252.569 C 561.839,253.081 558.735,255.181 555.637,257.236 C 552.540,259.291 546.704,263.595 542.669,266.802 C 535.080,272.833 528.002,276.021 517.781,278.014 C 510.463,279.441 508.670,281.088 506.098,288.754 C 502.534,299.378 503.550,309.834 508.667,315.175 C 511.149,317.765 511.961,317.996 518.437,317.952 C 522.322,317.925 529.821,317.328 535.102,316.625 Z" fill="#360498" stroke="black" stroke-width="0.5" fill-rule="evenodd"/>
</svg>
