<?xml version='1.0' encoding='UTF-8'?>
<svg version="1.1" xmlns="http://www.w3.org/2000/svg" width="1000" height="600" viewBox="0 0 1000 600">
  <path d="M 505.238,350.377 C 507.708,349.100 508.772,349.001 510.236,349.915 C 511.844,350.919 512.870,350.311 517.798,345.436 C 523.495,339.800 525.223,338.801 554.250,324.360 L 565.000,319.012 L 565.000,315.326 C 565.000,311.952 564.042,310.696 553.670,300.477 C 547.036,293.941 540.957,288.832 539.004,288.151 C 537.169,287.512 531.355,286.708 526.084,286.366 C 514.637,285.622 506.225,287.098 502.093,290.576 C 497.470,294.465 492.706,302.790 491.321,309.400 C 489.795,316.676 489.599,334.117 490.989,338.961 C 491.771,341.688 500.291,352.000 501.762,352.000 C 501.948,352.000 503.512,351.270 505.238,350.377 Z" fill="#b7308a" stroke="black" stroke-width="0.5" fill-rule="evenodd"/>
</svg>
