<?xml version='1.0' encoding='UTF-8'?>
<svg version="1.1" xmlns="http://www.w3.org/2000/svg" width="1000" height="600" viewBox="0 0 1000 600">
  <path d="M 456.771,403.601 C 458.822,402.282 462.238,400.598 464.363,399.859 C 470.178,397.838 474.971,393.175 476.039,388.500 C 477.312,382.927 477.222,368.145 475.877,361.799 C 474.367,354.674 471.843,349.947 467.524,346.155 C 464.457,343.462 463.152,343.000 458.622,343.000 C 455.702,343.000 450.655,343.920 447.407,345.045 C 444.158,346.170 436.894,348.184 431.265,349.520 C 419.236,352.377 411.454,356.001 410.421,359.229 C 410.021,360.478 409.715,364.079 409.742,367.231 C 409.783,372.172 410.414,374.031 414.320,380.731 C 423.810,397.007 424.797,397.812 439.684,401.435 C 443.635,402.396 447.685,403.803 448.684,404.560 C 451.232,406.491 452.516,406.339 456.771,403.601 Z" fill="#47029f" stroke="black" stroke-width="0.5" fill-rule="evenodd"/>
</svg>
