<?xml version='1.0' encoding='UTF-8'?>
<svg version="1.1" xmlns="http://www.w3.org/2000/svg" width="1000" height="600" viewBox="0 0 1000 600">
  <path d="M 458.703,375.663 C 463.541,372.597 468.765,368.483 470.312,366.520 C 471.859,364.557 474.835,357.900 476.927,351.726 C 479.018,345.552 481.445,338.700 482.321,336.500 C 484.088,332.057 484.471,322.380 483.091,317.000 C 482.598,315.075 481.909,312.230 481.560,310.677 C 480.834,307.447 475.879,304.811 466.919,302.889 C 463.949,302.252 460.527,301.081 459.313,300.286 C 456.527,298.460 454.537,299.495 451.662,304.266 C 450.473,306.239 446.975,311.599 443.890,316.177 C 440.804,320.755 437.253,326.525 435.998,329.000 C 434.743,331.475 431.830,335.975 429.524,339.000 C 424.576,345.492 419.401,355.207 418.506,359.684 C 417.958,362.427 418.260,363.117 420.685,364.660 C 422.233,365.646 423.919,367.138 424.431,367.976 C 424.944,368.814 428.094,372.302 431.431,375.726 L 437.500,381.953 L 443.703,381.595 C 449.221,381.277 450.879,380.621 458.703,375.663 Z" fill="#ac2593" stroke="black" stroke-width="0.5" fill-rule="evenodd"/>
</svg>
