<?xml version='1.0' encoding='UTF-8'?>
<svg version="1.1" xmlns="http://www.w3.org/2000/svg" width="1000" height="600" viewBox="0 0 1000 600">
  <path d="M 620.282,476.928 C 627.283,474.594 636.322,469.843 639.856,466.637 C 645.993,461.070 644.214,454.991 635.010,450.086 C 630.581,447.725 628.397,445.740 626.074,441.966 C 624.383,439.218 623.000,436.542 623.000,436.020 C 623.000,434.190 616.875,428.117 612.361,425.471 C 607.294,422.502 605.948,422.553 596.500,426.073 L 590.500,428.308 L 583.332,425.154 C 571.747,420.056 564.296,421.085 556.660,428.838 L 551.864,433.707 L 553.543,438.842 C 554.485,441.723 554.943,445.089 554.587,446.510 C 554.130,448.332 554.404,449.218 555.565,449.663 C 556.453,450.004 558.641,453.482 560.428,457.391 C 564.352,465.976 574.422,476.124 580.657,477.775 C 582.771,478.335 591.152,478.840 599.282,478.897 C 611.753,478.984 615.035,478.676 620.282,476.928 Z" fill="#ff0028" stroke="black" stroke-width="0.5" fill-rule="evenodd"/>
</svg>
