<?xml version='1.0' encoding='UTF-8'?>
<svg version="1.1" xmlns="http://www.w3.org/2000/svg" width="1000" height="600" viewBox="0 0 1000 600">
  <path d="M 625.585,261.889 C 631.443,259.233 633.201,258.866 637.597,259.382 C 644.190,260.157 647.172,258.050 649.046,251.288 C 649.776,248.655 651.400,243.956 652.655,240.847 C 655.578,233.608 656.582,221.704 655.082,212.070 C 653.745,203.475 649.593,195.796 642.157,188.161 C 634.381,180.177 633.553,179.850 620.661,179.665 L 609.231,179.500 L 604.866,182.792 C 598.882,187.304 588.504,192.000 584.516,192.000 C 582.702,192.000 579.257,191.110 576.859,190.022 C 570.571,187.169 561.354,187.289 556.898,190.283 C 554.038,192.204 553.450,193.251 553.187,196.896 C 552.917,200.636 553.925,203.291 560.585,216.363 C 568.665,232.226 573.046,238.834 578.245,243.000 C 581.740,245.800 615.877,264.816 617.612,264.928 C 618.223,264.968 621.811,263.600 625.585,261.889 Z" fill="#ff0028" stroke="black" stroke-width="0.5" fill-rule="evenodd"/>
</svg>
