<?xml version='1.0' encoding='UTF-8'?>
<svg version="1.1" xmlns="http://www.w3.org/2000/svg" width="1000" height="600" viewBox="0 0 1000 600">
  <path d="M 403.507,244.946 C 410.716,241.242 415.880,239.382 422.837,237.982 C 434.118,235.713 436.869,233.583 442.596,222.686 C 444.620,218.833 447.290,214.188 448.529,212.362 C 449.768,210.537 452.021,205.644 453.536,201.489 C 457.717,190.027 455.958,187.837 439.477,183.995 C 434.044,182.728 426.136,179.684 418.169,175.794 L 405.500,169.608 L 393.132,169.840 C 379.074,170.104 376.324,170.933 370.422,176.687 C 367.047,179.979 366.114,181.768 365.007,187.082 C 364.271,190.612 362.843,195.933 361.834,198.907 C 358.933,207.458 359.411,212.719 364.091,223.713 C 367.007,230.564 368.036,234.210 367.675,236.412 C 367.397,238.110 366.862,241.301 366.486,243.502 L 365.803,247.504 L 375.456,247.733 C 380.765,247.859 385.872,248.407 386.805,248.950 C 390.057,250.847 393.738,249.965 403.507,244.946 Z" fill="#ff0028" stroke="black" stroke-width="0.5" fill-rule="evenodd"/>
</svg>
