<?xml version='1.0' encoding='UTF-8'?>
<svg version="1.1" xmlns="http://www.w3.org/2000/svg" width="1000" height="600" viewBox="0 0 1000 600">
  <path d="M 388.869,261.628 C 391.966,259.774 399.900,255.417 406.500,251.946 C 425.464,241.974 427.923,239.338 439.598,216.472 C 448.252,199.524 448.912,195.758 444.077,190.923 C 441.455,188.302 440.501,188.002 434.827,188.022 C 430.700,188.036 426.984,188.732 424.141,190.022 C 421.743,191.110 418.227,192.000 416.326,192.000 C 411.628,192.000 403.633,188.521 397.000,183.589 L 391.500,179.500 L 382.000,179.545 C 367.389,179.614 365.953,180.116 358.237,187.837 C 353.955,192.122 350.236,197.074 348.033,201.423 C 344.600,208.199 344.567,208.389 344.657,220.883 C 344.745,232.937 344.928,234.008 348.759,244.874 C 353.964,259.641 354.386,260.115 361.729,259.456 C 366.637,259.017 368.472,259.377 374.000,261.869 C 377.575,263.481 381.116,264.844 381.869,264.899 C 382.622,264.955 385.772,263.483 388.869,261.628 Z" fill="#ff0028" stroke="black" stroke-width="0.5" fill-rule="evenodd"/>
</svg>
