<?xml version='1.0' encoding='UTF-8'?>
<svg version="1.1" xmlns="http://www.w3.org/2000/svg" width="1000" height="600" viewBox="0 0 1000 600">
  <path d="M 437.000,245.112 C 437.000,243.211 441.932,235.085 445.566,231.000 C 446.789,229.625 448.968,226.250 450.408,223.500 C 452.074,220.318 454.462,217.618 456.974,216.074 C 459.145,214.739 461.236,212.939 461.620,212.074 C 462.004,211.208 462.614,204.875 462.976,198.000 C 463.468,188.637 464.104,184.622 465.509,182.000 C 468.314,176.768 468.090,165.879 465.058,160.000 C 456.513,143.433 443.401,128.574 434.066,124.881 C 431.005,123.670 425.854,121.076 422.620,119.117 C 417.298,115.893 416.045,115.556 409.406,115.556 C 401.043,115.556 397.771,117.227 394.695,123.071 C 393.205,125.902 392.953,128.331 393.250,137.000 C 393.599,147.177 393.750,147.777 398.178,156.500 C 404.693,169.334 407.656,178.299 408.477,187.658 C 408.870,192.145 409.840,197.065 410.631,198.591 C 411.423,200.117 412.529,204.662 413.090,208.691 C 413.650,212.719 414.716,217.475 415.459,219.258 C 416.201,221.041 417.379,225.406 418.075,228.958 C 419.102,234.192 420.115,236.258 423.421,239.859 C 427.356,244.145 434.569,248.384 436.206,247.373 C 436.643,247.103 437.000,246.086 437.000,245.112 Z" fill="#bdff00" stroke="black" stroke-width="0.5" fill-rule="evenodd"/>
</svg>
