<?xml version='1.0' encoding='UTF-8'?>
<svg version="1.1" xmlns="http://www.w3.org/2000/svg" width="1000" height="600" viewBox="0 0 1000 600">
  <path d="M 571.000,102.500 C 573.787,100.025 576.714,98.000 577.506,98.000 C 578.298,98.000 581.423,96.827 584.451,95.393 C 589.201,93.144 590.322,92.042 592.607,87.370 C 595.789,80.867 595.501,75.047 591.816,71.362 C 589.507,69.053 589.451,69.048 586.459,70.867 C 584.462,72.082 581.796,75.794 578.602,81.808 C 574.066,90.350 573.350,91.163 566.997,95.002 C 559.587,99.479 557.589,101.344 556.551,104.750 C 555.903,106.876 556.142,107.000 560.899,107.000 C 565.448,107.000 566.421,106.566 571.000,102.500 Z" fill="#ff6300" stroke="black" stroke-width="0.5" fill-rule="evenodd"/>
</svg>
