<?xml version='1.0' encoding='UTF-8'?>
<svg version="1.1" xmlns="http://www.w3.org/2000/svg" width="1000" height="600" viewBox="0 0 1000 600">
  <path d="M 520.000,282.135 C 526.059,279.986 529.074,278.326 530.500,276.353 C 531.600,274.831 534.341,271.541 536.592,269.043 C 542.179,262.840 546.000,256.941 546.000,254.518 C 546.000,253.316 543.129,249.780 538.899,245.770 C 532.684,239.879 531.542,239.175 529.755,240.131 C 526.727,241.752 517.384,240.672 514.209,238.335 C 512.719,237.239 510.375,234.140 509.000,231.449 C 504.633,222.902 503.136,222.386 480.309,221.572 C 462.671,220.943 460.062,221.057 456.500,222.611 C 453.565,223.892 448.371,224.536 437.000,225.029 L 421.500,225.701 L 412.725,229.910 C 407.477,232.427 400.746,234.724 395.978,235.623 C 391.593,236.450 384.282,238.847 379.731,240.949 C 373.000,244.059 370.203,246.102 364.729,251.905 C 361.028,255.828 358.000,259.649 358.000,260.396 C 358.000,262.772 360.681,264.106 367.358,265.051 C 370.930,265.557 376.248,266.976 379.176,268.205 C 384.178,270.304 385.834,270.432 406.548,270.317 C 424.281,270.219 429.345,269.883 432.422,268.597 C 447.895,262.132 467.227,265.914 484.882,278.859 C 488.522,281.528 492.400,284.245 493.500,284.896 C 496.947,286.938 510.412,285.535 520.000,282.135 Z" fill="#2bff00" stroke="black" stroke-width="0.5" fill-rule="evenodd"/>
</svg>
