<?xml version='1.0' encoding='UTF-8'?>
<svg version="1.1" xmlns="http://www.w3.org/2000/svg" width="1000" height="600" viewBox="0 0 1000 600">
  <path d="M 454.996,252.191 C 454.994,251.261 454.174,249.150 453.173,247.500 C 449.339,241.178 448.849,238.130 450.917,233.455 C 453.591,227.409 460.494,217.307 465.576,212.000 C 470.792,206.555 471.665,204.397 472.505,194.877 C 472.863,190.820 473.833,185.712 474.660,183.527 C 476.673,178.205 477.633,159.447 476.126,154.882 C 475.345,152.517 471.915,148.593 465.520,142.751 C 453.410,131.688 446.692,126.764 440.711,124.565 C 438.076,123.597 434.701,121.790 433.211,120.551 C 428.849,116.924 426.430,116.000 421.316,116.004 C 415.997,116.008 410.859,118.526 408.971,122.054 C 407.019,125.702 408.169,141.657 410.783,147.195 C 412.002,149.777 413.000,152.376 413.000,152.970 C 413.000,153.564 413.871,156.528 414.935,159.556 C 416.076,162.802 417.157,169.462 417.568,175.781 C 418.046,183.132 418.856,187.673 420.144,190.232 C 421.246,192.422 422.259,197.175 422.595,201.732 C 422.910,206.004 423.990,211.525 424.995,214.000 C 426.000,216.475 427.299,221.100 427.882,224.278 C 429.086,230.838 433.325,237.714 438.252,241.097 C 440.039,242.323 444.114,245.964 447.308,249.186 C 452.948,254.876 455.004,255.680 454.996,252.191 Z" fill="#bdff00" stroke="black" stroke-width="0.5" fill-rule="evenodd"/>
</svg>
