<?xml version='1.0' encoding='UTF-8'?>
<svg version="1.1" xmlns="http://www.w3.org/2000/svg" width="1000" height="600" viewBox="0 0 1000 600">
  <path d="M 757.762,393.146 C 761.381,388.688 762.057,387.188 761.804,384.182 L 761.500,380.573 L 748.714,380.440 C 741.682,380.367 735.693,380.688 735.405,381.154 C 734.427,382.736 733.389,382.006 730.213,377.500 C 726.766,372.610 724.528,371.942 721.045,374.762 C 718.183,377.080 719.208,379.744 725.662,386.757 C 728.323,389.649 731.592,393.416 732.927,395.129 C 734.262,396.842 737.136,399.535 739.314,401.112 L 743.273,403.981 L 748.345,401.240 C 751.223,399.685 755.296,396.184 757.762,393.146 Z" fill="#ff6300" stroke="black" stroke-width="0.5" fill-rule="evenodd"/>
</svg>
