<?xml version='1.0' encoding='UTF-8'?>
<svg version="1.1" xmlns="http://www.w3.org/2000/svg" width="1000" height="600" viewBox="0 0 1000 600">
  <path d="M 573.264,276.007 C 574.919,274.705 576.231,272.192 577.050,268.757 C 577.739,265.866 578.942,262.517 579.723,261.316 C 580.504,260.115 581.522,255.165 581.985,250.316 C 582.448,245.467 583.373,240.150 584.041,238.500 C 586.424,232.614 586.880,227.678 585.425,223.505 C 583.143,216.957 583.690,212.470 588.000,202.381 C 591.474,194.249 592.000,192.037 592.000,185.547 C 592.000,180.264 592.645,176.379 594.203,172.288 C 597.246,164.290 597.281,147.876 594.269,140.500 C 593.147,137.750 591.742,133.698 591.147,131.495 C 590.444,128.890 588.335,125.785 585.111,122.609 L 580.156,117.728 L 566.904,123.077 C 546.849,131.171 541.496,135.108 536.131,145.710 C 532.983,151.931 533.346,155.856 537.584,161.407 C 539.556,163.988 541.581,167.538 542.084,169.294 C 542.588,171.050 543.000,179.914 543.000,188.991 L 543.000,205.494 L 548.092,215.588 L 553.183,225.683 L 553.077,243.409 C 552.952,264.114 553.310,265.341 561.698,273.007 C 567.715,278.506 569.499,278.969 573.264,276.007 Z" fill="#76ff00" stroke="black" stroke-width="0.5" fill-rule="evenodd"/>
</svg>
