<?xml version='1.0' encoding='UTF-8'?>
<svg version="1.1" xmlns="http://www.w3.org/2000/svg" width="1000" height="600" viewBox="0 0 1000 600">
  <path d="M 671.810,399.914 C 674.180,399.379 679.032,397.565 682.593,395.882 C 687.650,393.493 689.947,391.633 693.087,387.383 C 702.328,374.873 706.139,362.275 704.545,349.511 C 703.623,342.132 699.384,336.138 689.423,328.129 C 685.066,324.625 678.669,319.111 675.209,315.876 C 669.257,310.309 663.954,307.032 656.000,304.008 C 654.075,303.276 649.201,300.465 645.170,297.761 C 636.328,291.830 627.780,287.908 618.852,285.685 C 613.579,284.371 606.754,284.006 585.852,283.920 C 565.688,283.837 558.244,283.458 554.150,282.306 C 550.265,281.212 548.499,281.101 547.702,281.898 C 545.866,283.734 552.448,289.624 557.857,290.984 C 568.304,293.612 579.422,301.744 584.564,310.520 C 585.910,312.816 587.498,317.352 588.093,320.598 C 589.387,327.663 594.228,337.175 598.396,340.844 C 605.815,347.374 608.931,351.612 614.805,363.162 C 620.444,374.250 621.142,376.291 621.692,383.309 C 622.194,389.726 622.810,391.818 625.143,395.038 C 626.704,397.194 628.998,399.210 630.241,399.518 C 639.230,401.749 662.688,401.972 671.810,399.914 Z" fill="#bdff00" stroke="black" stroke-width="0.5" fill-rule="evenodd"/>
</svg>
