<?xml version='1.0' encoding='UTF-8'?>
<svg version="1.1" xmlns="http://www.w3.org/2000/svg" width="1000" height="600" viewBox="0 0 1000 600">
  <path d="M 263.283,402.390 C 272.624,397.716 276.000,393.232 276.000,385.500 C 276.000,379.601 274.210,376.233 268.658,371.683 C 262.015,366.240 259.930,361.062 258.918,347.503 C 257.509,328.626 256.883,327.907 248.947,336.054 C 245.197,339.904 243.650,342.465 242.455,346.804 C 241.592,349.937 240.170,354.183 239.296,356.240 C 238.184,358.854 237.676,363.368 237.608,371.240 C 237.513,382.165 237.610,382.691 240.871,388.928 C 244.608,396.075 253.065,405.000 256.100,405.000 C 257.182,405.000 260.414,403.825 263.283,402.390 Z" fill="#ff6300" stroke="black" stroke-width="0.5" fill-rule="evenodd"/>
</svg>
