<?xml version='1.0' encoding='UTF-8'?>
<svg version="1.1" xmlns="http://www.w3.org/2000/svg" width="1000" height="600" viewBox="0 0 1000 600">
  <path d="M 260.673,401.122 C 262.858,399.539 265.738,396.821 267.073,395.081 C 268.408,393.342 271.867,389.350 274.759,386.209 C 281.263,379.148 281.985,377.216 279.016,374.812 C 277.785,373.815 276.119,373.000 275.312,373.000 C 273.742,373.000 269.008,377.345 267.372,380.289 C 266.474,381.904 266.110,381.938 263.609,380.641 C 261.539,379.567 259.964,379.447 257.363,380.165 C 255.450,380.694 250.423,380.985 246.193,380.813 L 238.500,380.500 L 238.199,384.095 C 237.952,387.044 238.642,388.632 242.030,392.919 C 245.556,397.380 253.930,404.000 256.046,404.000 C 256.406,404.000 258.488,402.705 260.673,401.122 Z" fill="#ff6300" stroke="black" stroke-width="0.5" fill-rule="evenodd"/>
</svg>
