<?xml version='1.0' encoding='UTF-8'?>
<svg version="1.1" xmlns="http://www.w3.org/2000/svg" width="1000" height="600" viewBox="0 0 1000 600">
  <path d="M 597.109,331.647 C 598.944,324.912 597.386,284.227 594.978,276.000 C 589.308,256.632 588.888,253.133 587.897,217.000 C 586.925,181.531 586.036,172.611 583.368,171.588 C 581.434,170.846 577.000,171.920 577.000,173.131 C 577.000,173.634 573.062,176.564 568.250,179.644 C 552.897,189.468 552.131,190.705 554.580,201.717 C 556.102,208.555 556.104,209.568 554.614,214.878 C 552.608,222.029 552.542,230.773 554.457,235.730 C 555.258,237.803 556.409,242.425 557.015,246.000 C 557.620,249.575 559.055,255.325 560.202,258.778 C 562.943,267.026 562.242,277.616 558.459,285.081 L 555.894,290.143 L 558.572,294.822 C 560.045,297.395 563.146,301.975 565.463,305.000 C 567.780,308.025 570.918,312.640 572.436,315.255 C 573.954,317.870 576.544,321.020 578.192,322.255 C 581.629,324.829 585.152,328.274 589.624,333.431 C 593.470,337.865 595.549,337.370 597.109,331.647 Z" fill="#2bff00" stroke="black" stroke-width="0.5" fill-rule="evenodd"/>
</svg>
