<?xml version='1.0' encoding='UTF-8'?>
<svg version="1.1" xmlns="http://www.w3.org/2000/svg" width="1000" height="600" viewBox="0 0 1000 600">
  <path d="M 564.711,170.750 C 565.843,169.512 567.104,167.375 567.512,166.000 C 567.919,164.625 569.948,160.575 572.021,157.000 C 575.172,151.563 575.906,149.192 576.506,142.500 C 576.953,137.523 577.938,133.322 579.112,131.382 C 580.151,129.667 581.000,127.763 581.000,127.150 C 581.000,125.008 587.521,117.189 589.836,116.557 C 596.023,114.867 598.685,108.160 595.565,102.125 C 593.821,98.753 586.521,92.000 584.620,92.000 C 583.863,92.000 582.685,91.325 582.000,90.500 C 579.976,88.062 577.384,88.765 574.348,92.577 C 568.782,99.566 565.915,101.838 559.574,104.289 C 551.870,107.266 537.651,117.370 531.434,124.285 C 528.961,127.035 525.325,132.640 523.353,136.740 C 520.331,143.021 519.939,144.572 520.862,146.597 C 522.409,149.992 525.677,149.635 530.875,145.503 C 533.281,143.590 536.720,141.619 538.517,141.123 C 541.595,140.273 547.931,136.224 557.822,128.788 L 562.143,125.539 L 564.050,128.019 C 567.104,131.993 567.419,136.202 565.187,143.193 C 564.079,146.662 562.948,152.935 562.672,157.133 C 562.397,161.332 561.458,166.147 560.586,167.834 C 559.714,169.521 559.000,171.373 559.000,171.950 C 559.000,173.818 562.594,173.063 564.711,170.750 Z" fill="#fff500" stroke="black" stroke-width="0.5" fill-rule="evenodd"/>
</svg>
