<?xml version='1.0' encoding='UTF-8'?>
<svg version="1.1" xmlns="http://www.w3.org/2000/svg" width="1000" height="600" viewBox="0 0 1000 600">
  <path d="M 478.538,191.842 C 485.789,187.513 496.105,178.968 498.667,175.167 C 501.790,170.532 502.560,162.662 500.601,155.401 C 496.723,141.031 493.829,132.318 492.165,130.000 C 491.177,128.625 487.171,125.897 483.263,123.938 C 478.441,121.521 473.280,117.639 467.205,111.858 C 462.282,107.173 456.059,102.292 453.377,101.011 C 446.824,97.882 439.324,97.318 435.912,99.696 C 424.992,107.308 420.417,109.909 415.336,111.395 C 406.090,114.099 398.761,118.134 396.259,121.898 C 394.480,124.573 394.000,126.711 394.000,131.954 C 394.000,137.485 393.577,139.185 391.500,142.000 C 388.848,145.595 388.233,150.853 389.940,155.341 C 391.054,158.273 400.150,164.502 404.728,165.468 C 406.503,165.843 412.353,169.533 417.728,173.668 C 428.608,182.038 432.419,184.242 439.006,185.971 C 441.478,186.620 446.425,188.838 450.000,190.900 C 461.584,197.582 462.793,197.934 468.500,196.289 C 471.250,195.497 475.767,193.495 478.538,191.842 Z" fill="#ffae00" stroke="black" stroke-width="0.5" fill-rule="evenodd"/>
</svg>
