<?xml version='1.0' encoding='UTF-8'?>
<svg version="1.1" xmlns="http://www.w3.org/2000/svg" width="1000" height="600" viewBox="0 0 1000 600">
  <path d="M 554.304,247.750 C 557.874,244.312 562.192,240.452 563.902,239.170 C 568.088,236.031 571.632,229.572 572.487,223.523 C 572.874,220.786 573.986,216.961 574.959,215.023 C 575.996,212.956 576.946,208.164 577.257,203.430 C 577.574,198.596 578.580,193.583 579.765,190.930 C 581.069,188.012 581.970,183.086 582.405,176.500 C 583.038,166.914 586.090,154.806 590.401,144.782 C 591.428,142.395 592.000,138.171 592.000,132.982 C 592.000,120.190 588.775,116.000 578.928,116.000 C 574.238,116.000 572.596,116.510 569.079,119.057 C 566.758,120.739 561.628,123.603 557.679,125.423 C 550.895,128.548 545.251,132.928 529.500,147.287 L 523.500,152.757 L 523.586,165.629 C 523.650,175.265 524.090,179.473 525.336,182.372 C 526.251,184.502 527.000,187.840 527.000,189.790 C 527.000,191.740 527.514,196.286 528.141,199.891 C 529.160,205.739 529.844,207.040 534.498,211.972 C 539.940,217.740 548.128,229.577 549.900,234.238 C 551.011,237.158 549.490,243.034 546.532,247.258 C 544.605,250.009 544.531,254.000 546.407,254.000 C 547.181,254.000 550.735,251.188 554.304,247.750 Z" fill="#bdff00" stroke="black" stroke-width="0.5" fill-rule="evenodd"/>
</svg>
