<?xml version='1.0' encoding='UTF-8'?>
<svg version="1.1" xmlns="http://www.w3.org/2000/svg" width="1000" height="600" viewBox="0 0 1000 600">
  <path d="M 590.127,257.487 C 591.079,249.911 592.852,244.244 596.597,236.807 C 602.021,226.036 601.076,216.641 593.652,207.527 C 591.087,204.379 588.733,200.786 588.422,199.543 C 587.691,196.633 590.268,190.462 592.774,189.121 C 593.842,188.549 595.449,186.964 596.343,185.599 C 597.887,183.243 597.818,182.782 594.985,176.466 C 592.285,170.449 592.000,168.813 592.000,159.341 C 592.000,147.667 592.570,145.903 597.835,141.286 L 601.500,138.071 L 601.500,125.469 C 601.500,114.509 601.728,112.739 603.250,111.884 C 606.115,110.274 605.321,106.540 601.279,102.614 C 599.233,100.626 597.045,99.000 596.417,99.000 C 595.789,99.000 592.116,100.303 588.256,101.895 C 584.395,103.487 579.720,105.116 577.868,105.515 C 573.312,106.497 569.563,108.509 563.800,113.064 C 561.137,115.169 555.030,119.258 550.229,122.152 C 536.318,130.537 528.000,140.400 528.000,148.510 C 528.000,152.729 530.462,158.000 532.433,158.000 C 533.981,158.000 539.263,151.836 546.336,141.776 C 552.644,132.805 559.912,127.878 574.000,123.024 C 577.575,121.793 581.552,120.122 582.837,119.313 C 586.119,117.244 586.430,118.157 583.902,122.441 C 582.033,125.610 581.811,127.068 582.338,132.712 C 582.683,136.409 583.619,140.027 584.476,140.973 C 586.490,143.199 586.370,145.588 583.978,150.859 C 582.339,154.471 582.000,157.401 582.000,167.953 C 582.000,177.951 581.583,181.898 580.060,186.325 C 578.580,190.626 578.057,195.244 577.854,205.788 C 577.599,219.013 577.692,219.759 580.001,223.002 C 582.239,226.145 582.456,227.559 582.984,242.446 C 583.397,254.105 583.956,259.122 585.026,260.773 C 587.393,264.423 589.419,263.118 590.127,257.487 Z" fill="#fff500" stroke="black" stroke-width="0.5" fill-rule="evenodd"/>
</svg>
