<?xml version='1.0' encoding='UTF-8'?>
<svg version="1.1" xmlns="http://www.w3.org/2000/svg" width="1000" height="600" viewBox="0 0 1000 600">
  <path d="M 347.216,304.093 C 353.422,301.944 361.675,298.617 365.555,296.701 C 369.435,294.784 375.477,292.481 378.982,291.583 C 382.487,290.685 385.837,289.556 386.427,289.075 C 387.017,288.593 390.425,286.988 394.000,285.508 C 399.649,283.169 402.595,282.703 416.500,281.948 C 433.047,281.050 441.011,281.681 449.086,284.530 C 454.356,286.390 457.308,285.850 466.146,281.415 C 476.308,276.315 479.419,270.621 475.397,264.482 C 471.901,259.148 467.885,257.784 454.686,257.447 C 427.269,256.747 422.284,256.872 416.350,258.409 C 411.923,259.557 409.462,259.706 406.935,258.981 C 400.139,257.032 392.926,257.795 384.470,261.357 C 380.086,263.203 372.338,265.670 367.252,266.839 C 362.166,268.008 355.764,270.100 353.026,271.487 C 346.095,274.999 334.879,282.360 332.582,284.904 C 331.527,286.072 328.283,288.609 325.373,290.541 C 321.050,293.410 319.955,294.725 319.393,297.719 C 318.343,303.314 320.496,306.357 326.032,307.100 C 334.382,308.221 335.927,308.002 347.216,304.093 Z" fill="#76ff00" stroke="black" stroke-width="0.5" fill-rule="evenodd"/>
</svg>
