<?xml version='1.0' encoding='UTF-8'?>
<svg version="1.1" xmlns="http://www.w3.org/2000/svg" width="1000" height="600" viewBox="0 0 1000 600">
  <path d="M 680.830,396.578 C 686.727,393.432 690.085,390.572 698.001,381.950 C 704.819,374.524 708.172,370.044 708.915,367.366 C 710.275,362.469 710.305,349.638 708.968,344.824 C 707.560,339.755 700.442,330.377 689.238,318.832 C 681.015,310.357 678.924,308.764 673.111,306.542 C 669.215,305.054 663.399,301.597 659.150,298.245 C 651.492,292.203 642.811,287.932 629.474,283.645 C 621.801,281.178 620.288,281.052 594.974,280.782 L 568.500,280.500 L 564.500,282.924 C 562.300,284.257 560.325,285.482 560.111,285.646 C 559.465,286.142 564.340,292.082 571.479,299.500 C 580.570,308.944 588.489,318.052 589.801,320.571 C 590.394,321.711 591.404,325.761 592.045,329.571 C 593.659,339.168 596.715,343.994 604.772,349.670 C 622.280,362.007 624.228,364.998 625.963,382.210 C 626.850,391.010 627.770,392.503 634.867,396.662 C 641.430,400.508 643.879,400.908 659.500,400.687 L 673.500,400.489 L 680.830,396.578 Z" fill="#bdff00" stroke="black" stroke-width="0.5" fill-rule="evenodd"/>
</svg>
