<?xml version='1.0' encoding='UTF-8'?>
<svg version="1.1" xmlns="http://www.w3.org/2000/svg" width="1000" height="600" viewBox="0 0 1000 600">
  <path d="M 680.500,471.158 C 684.017,470.519 684.462,470.134 684.183,467.966 C 682.748,456.801 682.765,456.648 685.992,451.802 C 688.037,448.730 691.436,445.655 695.810,442.920 C 705.639,436.774 719.607,426.255 722.489,422.831 C 725.659,419.063 725.666,415.564 722.518,408.446 C 718.843,400.134 714.994,395.893 707.857,392.291 C 701.739,389.202 700.824,389.044 683.500,388.074 C 673.600,387.520 663.928,386.602 662.007,386.033 C 656.509,384.407 652.304,384.802 646.406,387.500 C 643.400,388.875 640.549,390.000 640.070,390.000 C 639.591,390.000 633.823,395.288 627.253,401.750 C 615.540,413.270 615.271,413.635 613.502,420.398 C 612.379,424.691 612.038,427.775 612.599,428.562 C 613.094,429.258 616.732,434.704 620.682,440.664 C 624.632,446.624 629.093,452.995 630.594,454.823 C 633.959,458.918 642.997,465.137 651.275,469.054 C 656.848,471.690 658.494,471.992 667.000,471.942 C 672.225,471.910 678.300,471.558 680.500,471.158 Z" fill="#ffae00" stroke="black" stroke-width="0.5" fill-rule="evenodd"/>
</svg>
