<?xml version='1.0' encoding='UTF-8'?>
<svg version="1.1" xmlns="http://www.w3.org/2000/svg" width="1000" height="600" viewBox="0 0 1000 600">
  <path d="M 667.500,474.317 C 671.900,472.362 678.375,469.580 681.890,468.134 C 690.306,464.673 696.207,459.396 698.478,453.302 C 700.871,446.880 703.714,443.133 714.081,432.739 C 720.002,426.803 723.847,421.935 726.003,417.644 L 729.185,411.310 L 725.959,404.905 C 722.510,398.058 710.314,385.000 707.367,385.000 C 706.462,385.000 703.554,386.334 700.905,387.963 C 696.969,390.385 695.578,390.766 693.294,390.046 C 691.757,389.562 685.297,388.924 678.938,388.630 C 665.724,388.017 663.139,387.261 657.822,382.458 C 655.717,380.556 653.504,379.000 652.905,379.000 C 651.588,379.000 647.583,381.958 640.664,388.040 C 637.824,390.537 633.825,393.813 631.777,395.320 C 629.730,396.827 626.647,400.106 624.926,402.607 C 621.965,406.911 617.047,420.399 617.015,424.306 C 617.007,425.299 619.193,428.822 621.873,432.135 C 629.581,441.660 629.648,441.883 627.151,449.488 C 625.968,453.093 625.003,456.595 625.006,457.271 C 625.031,462.951 630.463,471.781 636.152,475.390 C 643.602,480.116 655.355,479.714 667.500,474.317 Z" fill="#ffae00" stroke="black" stroke-width="0.5" fill-rule="evenodd"/>
</svg>
