<?xml version='1.0' encoding='UTF-8'?>
<svg version="1.1" xmlns="http://www.w3.org/2000/svg" width="1000" height="600" viewBox="0 0 1000 600">
  <path d="M 311.834,326.151 C 313.300,325.126 317.073,324.031 320.218,323.719 C 328.799,322.867 336.787,318.154 344.769,309.236 C 351.749,301.437 358.554,297.195 370.000,293.508 C 373.025,292.533 378.294,290.446 381.708,288.868 C 386.209,286.789 389.510,285.988 393.708,285.956 C 396.894,285.932 401.300,285.264 403.500,284.471 C 408.339,282.728 428.619,282.489 434.446,284.107 C 440.722,285.849 442.778,287.916 444.138,293.851 C 444.812,296.794 445.951,299.428 446.669,299.703 C 447.388,299.979 450.117,298.949 452.735,297.415 C 455.354,295.881 461.772,292.517 466.998,289.940 C 472.224,287.364 477.326,284.332 478.336,283.204 C 480.124,281.206 480.112,281.070 477.851,278.012 C 475.245,274.487 471.905,272.244 461.989,267.359 L 455.171,264.000 L 437.803,264.000 C 425.190,264.000 418.939,264.422 414.968,265.541 C 402.897,268.944 401.901,269.076 396.651,267.959 C 390.881,266.732 390.198,266.647 373.706,265.094 C 367.219,264.484 360.694,264.277 359.206,264.636 C 355.613,265.502 346.303,270.188 340.803,273.900 C 338.369,275.543 333.916,277.808 330.906,278.934 C 323.856,281.572 318.675,286.882 310.807,299.537 C 304.868,309.089 298.136,321.621 298.044,323.298 C 298.020,323.737 299.229,325.234 300.731,326.627 C 303.825,329.494 307.267,329.346 311.834,326.151 Z" fill="#76ff00" stroke="black" stroke-width="0.5" fill-rule="evenodd"/>
</svg>
