<?xml version='1.0' encoding='UTF-8'?>
<svg version="1.1" xmlns="http://www.w3.org/2000/svg" width="1000" height="600" viewBox="0 0 1000 600">
  <path d="M 431.125,275.250 C 438.407,268.299 439.915,259.543 435.854,247.806 C 432.810,239.010 432.614,222.814 435.500,218.535 C 437.416,215.695 437.487,214.181 437.201,182.641 C 436.891,148.430 436.703,146.846 432.452,142.595 C 430.177,140.319 424.774,140.610 415.000,143.533 C 404.432,146.694 398.195,149.858 395.544,153.406 C 393.874,155.640 393.436,157.980 393.153,166.191 C 392.961,171.718 393.367,179.899 394.053,184.370 C 394.740,188.842 395.208,195.440 395.093,199.034 C 394.917,204.557 395.436,206.875 398.452,214.026 C 400.414,218.678 402.687,225.638 403.503,229.492 C 404.319,233.347 405.645,238.300 406.449,240.500 C 407.254,242.700 407.955,247.875 408.007,252.000 C 408.060,256.125 408.440,262.536 408.853,266.248 C 409.498,272.051 410.078,273.486 412.998,276.498 C 415.964,279.558 417.008,280.000 421.271,280.000 C 425.725,280.000 426.581,279.587 431.125,275.250 Z" fill="#76ff00" stroke="black" stroke-width="0.5" fill-rule="evenodd"/>
</svg>
