<?xml version='1.0' encoding='UTF-8'?>
<svg version="1.1" xmlns="http://www.w3.org/2000/svg" width="1000" height="600" viewBox="0 0 1000 600">
  <path d="M 362.591,475.956 C 364.903,474.837 368.395,471.867 370.351,469.355 C 375.096,463.264 375.803,458.320 373.082,450.243 C 371.937,446.844 371.002,443.486 371.005,442.782 C 371.008,442.077 373.708,438.003 377.005,433.728 C 380.302,429.453 383.000,425.523 383.000,424.993 C 383.000,424.464 381.874,420.145 380.498,415.396 C 377.552,405.229 373.125,398.633 365.437,392.954 C 362.527,390.804 359.855,388.574 359.500,388.000 C 359.145,387.426 356.435,385.168 353.478,382.983 C 347.443,378.526 345.512,378.606 341.000,383.500 C 337.442,387.360 335.257,387.951 322.156,388.595 C 315.745,388.910 309.094,389.596 307.375,390.120 C 304.685,390.940 303.548,390.636 299.212,387.941 C 295.618,385.707 293.545,385.010 291.976,385.507 C 288.209,386.703 276.575,399.143 273.562,405.197 L 270.727,410.894 L 274.113,417.470 C 276.472,422.050 280.613,427.213 287.758,434.486 C 296.123,442.998 298.635,446.282 301.364,452.271 C 305.204,460.698 309.662,464.978 317.753,468.007 C 320.642,469.089 325.817,471.415 329.253,473.177 C 341.034,479.217 353.677,480.271 362.591,475.956 Z" fill="#ffae00" stroke="black" stroke-width="0.5" fill-rule="evenodd"/>
</svg>
