<?xml version='1.0' encoding='UTF-8'?>
<svg version="1.1" xmlns="http://www.w3.org/2000/svg" width="1000" height="600" viewBox="0 0 1000 600">
  <path d="M 604.335,337.753 C 605.720,335.898 606.432,332.953 606.771,327.673 C 607.182,321.262 606.788,318.693 603.968,309.394 L 600.686,298.574 L 600.593,273.537 C 600.527,255.895 600.142,247.875 599.287,246.384 C 598.620,245.221 597.562,240.061 596.937,234.917 C 596.311,229.774 594.999,223.526 594.020,221.033 C 593.041,218.540 591.919,212.408 591.526,207.407 C 590.596,195.560 589.927,194.571 586.508,199.987 C 584.366,203.381 583.963,204.901 584.549,207.380 C 585.892,213.059 585.417,223.313 583.663,226.500 C 581.597,230.254 581.532,236.945 583.516,241.692 C 584.349,243.687 585.500,248.510 586.073,252.410 C 586.646,256.309 587.764,261.197 588.558,263.270 C 590.650,268.740 590.365,278.531 587.900,285.830 C 586.094,291.179 585.854,293.826 586.185,304.774 C 586.544,316.654 586.767,317.854 589.535,322.827 C 591.166,325.756 593.625,330.320 595.000,332.967 C 599.561,341.749 600.856,342.413 604.335,337.753 Z" fill="#2bff00" stroke="black" stroke-width="0.5" fill-rule="evenodd"/>
</svg>
