<?xml version='1.0' encoding='UTF-8'?>
<svg version="1.1" xmlns="http://www.w3.org/2000/svg" width="1000" height="600" viewBox="0 0 1000 600">
  <path d="M 363.361,397.479 C 371.988,393.094 373.564,390.772 374.305,381.359 C 375.375,367.765 378.560,361.811 388.745,354.364 C 405.186,342.343 406.152,341.148 407.940,330.602 C 408.584,326.809 409.949,322.084 410.975,320.102 C 412.677,316.817 419.583,308.803 430.885,297.000 C 433.255,294.525 436.466,290.903 438.022,288.951 L 440.850,285.401 L 435.675,282.951 C 430.539,280.518 430.308,280.502 404.758,280.807 L 379.017,281.114 L 368.758,284.460 C 356.799,288.361 347.350,292.881 342.757,296.897 C 337.748,301.277 330.213,305.769 324.928,307.524 C 321.079,308.802 318.199,311.133 310.174,319.465 C 292.335,337.986 290.016,342.201 290.006,356.124 C 289.997,367.258 291.622,370.744 302.134,382.145 C 312.485,393.372 314.996,395.375 322.892,398.701 C 328.064,400.880 329.627,401.040 343.000,400.760 C 356.815,400.471 357.777,400.316 363.361,397.479 Z" fill="#bdff00" stroke="black" stroke-width="0.5" fill-rule="evenodd"/>
</svg>
