<?xml version='1.0' encoding='UTF-8'?>
<svg version="1.1" xmlns="http://www.w3.org/2000/svg" width="1000" height="600" viewBox="0 0 1000 600">
  <path d="M 350.573,467.581 C 361.919,461.965 368.650,456.763 372.709,450.473 C 374.474,447.738 378.524,441.738 381.709,437.139 C 384.894,432.541 387.640,428.407 387.812,427.954 C 387.983,427.501 387.150,423.838 385.961,419.815 C 383.876,412.764 383.408,412.113 372.995,401.803 C 358.247,387.202 349.205,383.008 338.993,386.036 C 337.072,386.605 327.400,387.510 317.500,388.046 C 299.867,389.000 299.355,389.091 292.374,392.504 C 284.796,396.208 282.017,399.077 277.642,407.717 C 274.077,414.756 274.186,419.003 278.044,423.398 C 281.746,427.613 296.182,438.443 304.833,443.495 C 313.310,448.445 317.373,454.511 316.558,461.000 C 315.335,470.739 315.270,470.403 318.500,471.108 C 320.150,471.469 326.033,471.817 331.573,471.882 C 341.569,471.999 341.713,471.967 350.573,467.581 Z" fill="#ffae00" stroke="black" stroke-width="0.5" fill-rule="evenodd"/>
</svg>
