<?xml version='1.0' encoding='UTF-8'?>
<svg version="1.1" xmlns="http://www.w3.org/2000/svg" width="1000" height="600" viewBox="0 0 1000 600">
  <path d="M 470.012,192.599 C 483.723,187.390 484.218,187.055 487.192,180.990 C 489.220,176.854 489.898,173.934 489.942,169.151 C 490.012,161.446 488.504,157.987 481.635,150.096 C 478.811,146.853 474.700,141.620 472.500,138.468 C 462.283,123.830 429.914,99.000 421.049,99.000 C 417.846,99.000 409.898,102.883 401.381,108.609 C 392.812,114.369 391.705,115.874 387.095,128.019 C 384.330,135.303 384.452,139.155 387.661,145.904 C 389.729,150.252 390.454,153.618 390.911,161.000 C 391.389,168.709 391.933,171.108 393.799,173.723 C 397.101,178.352 403.504,183.215 411.079,186.846 C 418.373,190.343 422.657,190.738 429.000,188.500 C 434.515,186.554 437.429,186.603 439.128,188.670 C 441.527,191.590 454.200,197.066 457.512,196.614 C 459.168,196.388 464.793,194.581 470.012,192.599 Z" fill="#ffae00" stroke="black" stroke-width="0.5" fill-rule="evenodd"/>
</svg>
