<?xml version='1.0' encoding='UTF-8'?>
<svg version="1.1" xmlns="http://www.w3.org/2000/svg" width="1000" height="600" viewBox="0 0 1000 600">
  <path d="M 568.483,418.461 C 571.033,416.514 575.455,413.871 578.310,412.586 C 586.451,408.921 591.701,404.523 594.478,399.043 C 598.438,391.230 599.016,392.712 584.778,374.206 C 577.063,364.179 574.779,362.144 563.500,355.242 C 557.644,351.659 557.222,351.562 545.918,351.205 C 534.685,350.851 534.099,350.939 526.493,354.132 C 519.635,357.011 517.292,358.751 507.825,367.995 C 501.871,373.809 497.000,379.187 497.000,379.945 C 497.000,383.244 503.798,391.525 511.261,397.317 C 524.240,407.390 529.216,410.609 534.500,412.350 C 537.250,413.257 542.425,415.798 546.000,417.999 C 551.578,421.431 553.305,421.999 558.173,421.999 C 563.130,422.000 564.433,421.553 568.483,418.461 Z" fill="#00ff1a" stroke="black" stroke-width="0.5" fill-rule="evenodd"/>
</svg>
