<?xml version='1.0' encoding='UTF-8'?>
<svg version="1.1" xmlns="http://www.w3.org/2000/svg" width="1000" height="600" viewBox="0 0 1000 600">
  <path d="M 399.926,288.240 C 403.779,285.831 406.759,282.177 412.157,273.240 C 414.926,268.655 420.336,261.254 424.178,256.794 C 428.444,251.841 432.677,245.534 435.052,240.592 C 437.192,236.141 439.855,230.932 440.971,229.016 C 444.707,222.600 442.813,213.000 437.812,213.000 C 435.283,213.000 429.049,219.301 423.000,227.972 C 420.525,231.520 414.000,239.183 408.500,245.001 C 401.317,252.599 397.324,257.821 394.326,263.539 C 390.268,271.281 385.555,286.470 386.657,288.254 C 388.401,291.075 395.402,291.068 399.926,288.240 Z" fill="#00ff1a" stroke="black" stroke-width="0.5" fill-rule="evenodd"/>
</svg>
