<?xml version='1.0' encoding='UTF-8'?>
<svg version="1.1" xmlns="http://www.w3.org/2000/svg" width="1000" height="600" viewBox="0 0 1000 600">
  <path d="M 620.477,301.025 C 622.023,299.317 622.202,297.646 621.802,288.658 C 621.361,278.739 621.123,277.815 616.585,268.383 C 613.969,262.947 611.305,257.375 610.665,256.000 C 607.855,249.969 571.422,215.000 567.947,215.000 C 567.016,215.000 564.409,217.002 562.153,219.450 L 558.052,223.899 L 560.425,230.200 C 565.414,243.441 567.935,247.856 575.378,256.393 C 579.593,261.227 585.478,269.304 588.456,274.341 C 594.140,283.956 602.890,293.477 611.545,299.463 C 617.383,303.501 618.120,303.630 620.477,301.025 Z" fill="#00ff1a" stroke="black" stroke-width="0.5" fill-rule="evenodd"/>
</svg>
