<?xml version='1.0' encoding='UTF-8'?>
<svg version="1.1" xmlns="http://www.w3.org/2000/svg" width="1000" height="600" viewBox="0 0 1000 600">
  <path d="M 581.209,410.173 C 586.869,407.518 592.124,404.585 592.887,403.655 C 594.668,401.485 593.863,391.247 591.647,387.864 C 590.785,386.550 589.576,383.120 588.959,380.242 C 587.615,373.979 582.961,369.507 576.681,368.446 C 574.473,368.073 568.722,365.752 563.900,363.287 C 555.807,359.151 554.315,358.741 544.496,357.955 C 538.442,357.470 532.862,357.482 531.546,357.982 C 530.274,358.466 526.994,361.030 524.256,363.681 C 521.519,366.331 516.754,370.654 513.668,373.287 C 507.601,378.464 505.475,383.127 506.606,388.781 C 507.438,392.942 510.845,395.881 521.905,401.982 C 527.078,404.835 532.478,408.032 533.905,409.084 C 536.003,410.632 539.136,411.155 550.262,411.812 C 558.500,412.298 564.501,413.101 565.212,413.812 C 567.289,415.889 570.654,415.124 581.209,410.173 Z" fill="#00ff1a" stroke="black" stroke-width="0.5" fill-rule="evenodd"/>
</svg>
