<?xml version='1.0' encoding='UTF-8'?>
<svg version="1.1" xmlns="http://www.w3.org/2000/svg" width="1000" height="600" viewBox="0 0 1000 600">
  <path d="M 454.000,417.848 C 457.025,415.906 462.650,413.111 466.500,411.637 C 470.350,410.163 475.369,407.504 477.653,405.728 C 479.936,403.953 485.205,399.909 489.360,396.742 C 496.990,390.927 503.000,383.682 503.000,380.299 C 503.000,377.786 481.562,357.119 477.087,355.318 C 475.114,354.525 472.006,353.192 470.180,352.357 C 467.639,351.196 463.996,350.917 454.648,351.170 C 442.668,351.494 442.352,351.562 438.021,354.750 C 435.593,356.538 433.192,358.000 432.687,358.000 C 430.309,358.000 421.569,365.808 416.686,372.295 C 413.703,376.258 409.625,381.459 407.624,383.853 C 402.635,389.823 402.319,391.867 405.383,398.344 C 408.436,404.799 411.901,407.918 421.239,412.620 C 425.052,414.540 430.045,417.476 432.335,419.145 C 436.100,421.887 437.076,422.140 442.500,421.778 C 447.248,421.462 449.648,420.641 454.000,417.848 Z" fill="#00ff1a" stroke="black" stroke-width="0.5" fill-rule="evenodd"/>
</svg>
