<?xml version='1.0' encoding='UTF-8'?>
<svg version="1.1" xmlns="http://www.w3.org/2000/svg" width="1000" height="600" viewBox="0 0 1000 600">
  <path d="M 389.454,298.496 C 398.325,292.165 407.805,281.708 412.490,273.084 C 414.684,269.045 419.734,262.086 423.711,257.620 C 427.688,253.154 432.474,246.575 434.348,243.000 C 438.194,235.660 441.551,226.248 441.124,224.000 C 440.749,222.022 433.932,215.000 432.387,215.000 C 430.207,215.000 420.742,223.124 405.728,237.883 L 390.956,252.403 L 384.846,264.951 C 378.816,277.336 378.730,277.635 378.234,287.815 C 377.714,298.496 378.754,303.000 381.740,303.000 C 382.511,303.000 385.982,300.973 389.454,298.496 Z" fill="#00ff1a" stroke="black" stroke-width="0.5" fill-rule="evenodd"/>
</svg>
