<?xml version='1.0' encoding='UTF-8'?>
<svg version="1.1" xmlns="http://www.w3.org/2000/svg" width="1000" height="600" viewBox="0 0 1000 600">
  <path d="M 650.682,323.540 C 652.905,321.637 655.291,318.712 655.983,317.040 C 656.676,315.368 657.648,314.000 658.144,314.000 C 660.044,314.000 668.132,305.512 670.989,300.520 C 673.081,296.863 674.298,292.921 675.041,287.396 C 675.624,283.053 677.235,275.444 678.620,270.488 L 681.138,261.475 L 678.959,251.488 C 677.482,244.717 676.517,235.577 675.963,223.109 C 675.514,212.995 674.869,203.545 674.530,202.109 C 673.992,199.834 672.392,195.877 664.235,176.641 C 662.374,172.253 659.637,170.112 655.165,169.546 C 653.172,169.294 650.942,167.865 648.882,165.519 C 647.126,163.519 643.941,160.990 641.803,159.900 C 639.666,158.809 636.136,156.082 633.959,153.838 L 630.000,149.759 L 630.000,153.324 C 630.000,155.285 631.581,160.358 633.513,164.597 C 639.522,177.784 641.390,186.566 641.769,203.409 C 642.026,214.855 641.801,218.510 640.802,219.144 C 638.857,220.377 625.793,220.169 621.899,218.841 C 620.030,218.204 614.878,215.067 610.451,211.871 C 599.544,203.995 586.615,198.000 580.537,198.000 C 574.889,198.000 572.775,199.006 567.250,204.325 C 560.653,210.676 560.982,211.552 575.586,226.563 C 582.508,233.678 589.329,241.300 590.744,243.500 C 592.159,245.700 595.470,249.924 598.103,252.887 C 601.602,256.827 603.429,260.051 604.900,264.887 C 606.006,268.524 608.740,274.425 610.976,278.000 C 613.212,281.575 617.451,289.225 620.397,295.000 C 632.297,318.332 638.838,327.000 644.542,327.000 C 645.696,327.000 648.459,325.443 650.682,323.540 Z" fill="#00ffac" stroke="black" stroke-width="0.5" fill-rule="evenodd"/>
</svg>
