<?xml version='1.0' encoding='UTF-8'?>
<svg version="1.1" xmlns="http://www.w3.org/2000/svg" width="1000" height="600" viewBox="0 0 1000 600">
  <path d="M 549.042,439.173 C 561.394,431.636 567.050,429.941 582.080,429.273 C 593.055,428.785 595.896,429.003 603.386,430.914 C 615.892,434.104 619.801,433.324 626.963,426.210 C 630.008,423.185 634.336,419.530 636.580,418.087 C 648.079,410.694 647.797,411.465 648.384,385.807 C 648.727,370.819 648.988,368.756 650.933,365.609 C 652.124,363.681 654.018,361.812 655.141,361.455 C 656.264,361.099 657.854,359.163 658.676,357.154 C 660.510,352.666 663.631,350.052 667.191,350.022 C 671.538,349.986 671.343,348.354 666.557,344.699 C 663.443,342.322 660.149,340.902 655.786,340.059 C 645.336,338.038 636.617,331.444 631.079,321.377 C 629.661,318.798 627.573,316.085 626.441,315.349 C 624.459,314.060 624.379,314.200 624.305,319.113 C 624.205,325.706 621.962,328.110 615.333,328.727 C 609.114,329.306 603.732,327.002 594.500,319.807 C 590.650,316.806 584.695,312.822 581.266,310.954 L 575.033,307.556 L 570.266,309.421 C 560.691,313.167 556.692,312.467 546.124,305.198 C 541.061,301.715 540.306,301.502 533.124,301.535 C 524.764,301.573 522.539,302.447 508.094,311.367 C 504.021,313.883 497.760,316.915 494.181,318.106 C 488.812,319.893 486.566,321.396 481.340,326.700 C 477.856,330.235 474.757,334.337 474.453,335.814 C 474.149,337.291 472.797,342.019 471.450,346.319 C 470.102,350.620 469.000,355.155 469.000,356.397 C 469.000,358.665 474.632,372.393 479.517,382.033 C 480.956,384.874 482.773,390.534 483.552,394.610 C 484.332,398.687 485.925,403.893 487.091,406.179 C 489.941,411.765 515.308,437.172 521.000,440.141 C 533.303,446.558 537.155,446.425 549.042,439.173 Z" fill="#00ffac" stroke="black" stroke-width="0.5" fill-rule="evenodd"/>
</svg>
