<?xml version='1.0' encoding='UTF-8'?>
<svg version="1.1" xmlns="http://www.w3.org/2000/svg" width="1000" height="600" viewBox="0 0 1000 600">
  <path d="M 652.155,452.175 C 660.528,447.925 667.969,441.404 672.045,434.745 C 673.810,431.860 678.976,425.900 683.525,421.500 C 691.125,414.149 702.249,401.520 705.660,396.373 C 710.209,389.506 708.450,383.075 700.114,376.095 C 697.267,373.712 691.040,366.528 686.277,360.131 C 676.731,347.311 651.699,320.568 644.366,315.354 C 641.797,313.528 638.076,311.738 636.097,311.377 C 634.119,311.016 627.987,308.580 622.471,305.964 C 616.955,303.349 610.205,300.536 607.471,299.714 C 604.737,298.892 598.900,296.487 594.500,294.370 C 586.590,290.564 586.370,290.522 574.931,290.600 C 564.189,290.673 562.988,290.882 558.142,293.519 C 555.272,295.081 551.090,298.349 548.849,300.780 C 544.881,305.085 544.785,305.355 545.200,311.091 C 545.575,316.279 546.310,317.988 551.370,325.437 C 557.832,334.950 561.898,338.901 568.850,342.424 C 575.407,345.747 580.568,351.802 585.116,361.507 C 590.296,372.560 591.358,378.213 590.767,391.591 C 590.332,401.462 589.905,403.547 587.050,409.740 L 583.825,416.737 L 585.854,420.713 C 588.284,425.478 593.217,429.977 600.544,434.112 C 603.516,435.789 609.625,440.485 614.119,444.548 C 625.300,454.656 628.545,456.181 638.053,455.802 C 644.264,455.554 646.768,454.910 652.155,452.175 Z" fill="#00ff66" stroke="black" stroke-width="0.5" fill-rule="evenodd"/>
</svg>
