<?xml version='1.0' encoding='UTF-8'?>
<svg version="1.1" xmlns="http://www.w3.org/2000/svg" width="1000" height="600" viewBox="0 0 1000 600">
  <path d="M 364.072,449.534 C 366.507,448.728 372.718,447.355 377.873,446.482 C 396.124,443.393 411.219,435.380 415.405,426.559 C 417.888,421.327 417.489,413.962 414.503,409.898 C 404.714,396.575 405.368,384.438 416.982,363.894 C 419.379,359.654 424.476,353.087 428.929,348.500 C 439.874,337.226 447.732,325.090 449.094,317.358 C 450.993,306.578 447.228,299.546 438.219,297.044 C 432.256,295.388 417.755,295.804 409.224,297.876 C 404.976,298.907 398.296,300.246 394.380,300.850 C 389.433,301.614 383.633,303.659 375.380,307.551 C 357.272,316.089 349.794,320.069 346.467,322.941 C 344.799,324.380 340.190,327.714 336.226,330.349 C 323.363,338.901 317.583,345.639 302.294,369.903 C 297.688,377.213 297.000,378.970 297.000,383.417 C 297.000,389.575 299.470,394.695 305.482,401.000 C 307.842,403.475 311.012,407.525 312.527,410.000 C 314.042,412.475 318.273,418.100 321.930,422.500 C 325.586,426.900 329.780,432.134 331.250,434.132 C 335.792,440.306 343.272,447.218 347.481,449.131 C 352.368,451.350 358.160,451.491 364.072,449.534 Z" fill="#00ff66" stroke="black" stroke-width="0.5" fill-rule="evenodd"/>
</svg>
