<?xml version='1.0' encoding='UTF-8'?>
<svg version="1.1" xmlns="http://www.w3.org/2000/svg" width="1000" height="600" viewBox="0 0 1000 600">
  <path d="M 477.278,440.850 C 481.873,438.459 487.202,433.906 497.654,423.442 C 505.439,415.649 512.531,407.873 513.416,406.163 C 514.300,404.453 515.664,399.780 516.448,395.777 C 517.304,391.406 520.492,382.711 524.433,374.000 C 528.041,366.025 530.994,358.407 530.996,357.070 C 530.998,355.734 530.113,351.909 529.029,348.570 C 527.945,345.232 526.585,340.616 526.007,338.312 C 524.845,333.682 518.792,325.412 514.139,322.099 C 512.489,320.924 508.295,318.884 504.819,317.567 C 501.344,316.249 493.616,312.228 487.646,308.631 C 471.598,298.962 463.702,298.480 452.000,306.455 C 443.518,312.235 439.883,312.855 431.698,309.920 L 425.318,307.632 L 418.928,310.958 C 415.413,312.787 409.829,316.484 406.519,319.174 C 397.253,326.704 391.061,329.404 384.765,328.659 C 377.969,327.854 375.667,325.550 375.667,319.556 C 375.667,312.487 373.118,313.627 367.705,323.117 C 366.257,325.656 362.621,329.974 359.625,332.712 C 354.350,337.533 353.281,338.019 341.478,340.954 C 337.376,341.974 329.000,347.433 329.000,349.087 C 329.000,349.589 330.147,350.000 331.550,350.000 C 335.737,350.000 339.522,352.615 341.417,356.815 C 342.397,358.990 344.277,361.345 345.593,362.050 C 350.586,364.722 351.211,367.087 351.624,384.897 C 351.836,394.029 352.249,403.340 352.542,405.590 C 353.127,410.080 356.410,413.852 363.614,418.309 C 365.877,419.708 370.129,423.340 373.062,426.380 C 377.805,431.293 378.957,431.971 383.448,432.497 C 387.039,432.917 390.523,432.497 395.497,431.044 C 403.367,428.745 417.093,428.321 428.000,430.039 C 434.208,431.017 442.848,434.740 456.000,442.105 C 460.685,444.728 462.208,445.104 466.278,444.636 C 468.906,444.335 473.856,442.631 477.278,440.850 Z" fill="#00ffac" stroke="black" stroke-width="0.5" fill-rule="evenodd"/>
</svg>
