<?xml version='1.0' encoding='UTF-8'?>
<svg version="1.1" xmlns="http://www.w3.org/2000/svg" width="1000" height="600" viewBox="0 0 1000 600">
  <path d="M 388.000,248.077 C 389.925,246.572 393.300,242.137 395.500,238.221 C 408.244,215.540 415.717,206.600 424.008,204.116 C 430.919,202.045 438.344,197.549 440.860,193.912 C 443.090,190.688 443.186,189.923 442.605,180.000 C 441.776,165.853 440.746,162.109 435.626,154.630 C 433.116,150.964 430.817,146.181 430.218,143.377 C 429.645,140.695 428.629,135.800 427.961,132.500 C 425.980,122.718 418.434,117.000 407.504,117.000 C 399.104,117.000 392.317,120.890 381.965,131.638 C 368.390,145.732 365.484,149.863 364.064,157.081 C 363.384,160.536 361.989,165.490 360.964,168.092 C 358.404,174.585 357.596,185.688 358.867,196.897 C 359.726,204.483 360.468,207.069 362.716,210.313 C 365.424,214.223 365.490,214.641 365.147,225.549 C 364.754,238.065 365.767,241.613 371.321,247.167 C 376.877,252.723 381.721,252.987 388.000,248.077 Z" fill="#00ff66" stroke="black" stroke-width="0.5" fill-rule="evenodd"/>
</svg>
