<?xml version='1.0' encoding='UTF-8'?>
<svg version="1.1" xmlns="http://www.w3.org/2000/svg" width="1000" height="600" viewBox="0 0 1000 600">
  <path d="M 592.500,451.611 C 595.250,450.781 603.390,449.715 610.589,449.241 L 623.678,448.380 L 633.589,442.276 C 639.040,438.919 646.000,434.997 649.056,433.561 C 652.112,432.125 656.752,429.048 659.367,426.725 C 663.788,422.797 664.186,422.043 665.030,416.000 C 666.065,408.595 664.833,398.505 662.299,393.624 C 659.681,388.581 660.271,383.332 664.368,375.231 L 668.045,367.961 L 666.610,362.731 C 665.820,359.854 664.895,356.236 664.553,354.691 C 663.752,351.066 657.195,343.975 650.922,339.950 C 646.846,337.334 645.266,336.868 641.749,337.245 C 635.846,337.876 626.705,334.092 621.159,328.722 C 618.760,326.400 614.287,321.125 611.218,317.000 C 603.654,306.834 595.100,298.000 592.819,298.000 C 589.783,298.000 579.171,303.803 574.666,307.927 C 569.409,312.739 563.021,316.000 558.850,316.000 C 556.832,316.000 553.041,314.442 548.747,311.847 C 537.025,304.765 529.883,305.345 515.920,314.515 C 511.289,317.556 504.339,321.553 500.475,323.397 C 491.823,327.527 488.354,330.388 483.560,337.348 C 478.369,344.886 477.781,351.603 481.303,363.128 C 482.985,368.632 484.059,375.024 484.438,381.787 C 484.971,391.290 485.320,392.662 489.021,399.787 C 495.316,411.909 504.714,424.712 509.906,428.241 C 512.433,429.958 516.787,433.297 519.583,435.660 C 522.379,438.024 527.251,441.141 530.410,442.587 C 536.460,445.357 538.031,445.409 555.328,443.412 C 560.697,442.792 561.720,443.022 568.328,446.332 C 577.579,450.966 585.234,453.986 586.500,453.502 C 587.050,453.292 589.750,452.440 592.500,451.611 Z" fill="#00ffac" stroke="black" stroke-width="0.5" fill-rule="evenodd"/>
</svg>
