<?xml version='1.0' encoding='UTF-8'?>
<svg version="1.1" xmlns="http://www.w3.org/2000/svg" width="1000" height="600" viewBox="0 0 1000 600">
  <path d="M 376.109,452.547 C 378.453,450.996 383.382,446.898 387.063,443.441 C 390.744,439.983 396.398,435.670 399.628,433.854 C 406.573,429.951 414.655,422.222 415.559,418.620 C 415.993,416.891 415.533,414.980 414.138,412.723 C 408.750,404.006 407.204,383.328 411.072,371.718 C 416.508,355.400 423.323,346.008 433.660,340.587 C 439.600,337.471 440.710,336.554 444.648,331.500 C 457.024,315.619 458.102,307.088 448.835,298.358 C 442.279,292.181 437.715,290.659 425.500,290.575 C 416.708,290.515 413.798,290.865 411.000,292.319 C 407.303,294.242 392.231,300.255 388.000,301.496 C 386.625,301.899 383.925,303.070 382.000,304.098 C 377.102,306.712 369.313,309.952 364.000,311.585 C 361.525,312.346 357.570,314.258 355.212,315.833 C 348.723,320.169 321.535,349.248 312.654,361.350 C 308.339,367.231 302.558,373.940 299.806,376.260 C 297.055,378.580 294.173,381.698 293.402,383.190 C 291.702,386.476 291.591,391.355 293.149,394.316 C 295.336,398.475 306.540,411.539 315.603,420.500 C 320.610,425.450 326.555,432.263 328.816,435.640 C 333.949,443.309 339.491,448.098 348.489,452.638 C 355.141,455.995 355.919,456.155 363.674,455.771 C 370.571,455.430 372.513,454.926 376.109,452.547 Z" fill="#00ff66" stroke="black" stroke-width="0.5" fill-rule="evenodd"/>
</svg>
