<?xml version='1.0' encoding='UTF-8'?>
<svg version="1.1" xmlns="http://www.w3.org/2000/svg" width="1000" height="600" viewBox="0 0 1000 600">
  <path d="M 624.633,249.936 C 627.337,248.627 630.045,246.158 632.037,243.186 L 635.178,238.500 L 634.776,226.514 C 634.377,214.606 634.393,214.501 637.283,210.401 C 642.715,202.694 643.371,181.320 638.604,167.306 C 637.299,163.470 635.921,158.492 635.541,156.243 C 634.565,150.463 630.776,145.017 619.496,133.179 C 612.477,125.813 608.000,122.019 603.859,119.929 C 594.916,115.415 585.796,116.090 578.191,121.830 C 573.876,125.087 572.314,128.273 571.000,136.501 C 569.697,144.656 568.114,148.623 563.020,156.500 C 559.876,161.362 558.937,163.984 558.070,170.322 C 555.898,186.197 557.065,193.546 562.427,197.764 C 563.896,198.919 569.073,201.512 573.933,203.527 C 580.125,206.093 583.986,208.433 586.833,211.345 C 591.031,215.636 600.174,229.402 605.161,238.939 C 608.614,245.540 611.527,248.822 615.500,250.588 C 619.463,252.350 619.678,252.334 624.633,249.936 Z" fill="#00ff66" stroke="black" stroke-width="0.5" fill-rule="evenodd"/>
</svg>
