<?xml version='1.0' encoding='UTF-8'?>
<svg version="1.1" xmlns="http://www.w3.org/2000/svg" width="1000" height="600" viewBox="0 0 1000 600">
  <path d="M 651.282,449.627 C 656.583,447.364 662.517,441.993 669.704,432.952 C 673.442,428.250 678.577,421.950 681.115,418.952 C 683.653,415.953 686.978,411.475 688.504,409.000 C 690.030,406.525 693.192,402.433 695.532,399.907 C 701.146,393.847 703.000,390.049 703.000,384.615 C 703.000,378.263 702.030,376.234 691.344,360.251 C 681.227,345.119 673.213,336.311 664.097,330.303 C 661.019,328.274 655.788,324.563 652.474,322.057 C 649.159,319.551 643.534,316.203 639.974,314.619 C 636.413,313.034 628.838,309.510 623.140,306.788 C 617.087,303.895 610.227,301.420 606.640,300.833 C 603.263,300.281 596.332,298.915 591.237,297.798 C 573.472,293.905 557.956,296.151 552.557,303.398 C 550.150,306.629 549.891,315.084 552.001,321.543 C 553.841,327.175 563.928,341.085 573.240,350.831 C 579.763,357.657 582.083,361.010 586.092,369.403 C 591.774,381.297 593.337,387.953 592.046,394.750 C 590.796,401.331 589.622,404.107 586.542,407.768 C 583.476,411.411 582.479,416.042 583.416,422.287 C 583.916,425.625 585.259,428.013 588.984,432.193 C 593.192,436.913 595.206,438.225 603.078,441.370 C 608.130,443.388 616.366,445.709 621.381,446.528 C 626.397,447.347 632.525,448.658 635.000,449.442 C 640.817,451.283 647.230,451.356 651.282,449.627 Z" fill="#00ff66" stroke="black" stroke-width="0.5" fill-rule="evenodd"/>
</svg>
