<?xml version='1.0' encoding='UTF-8'?>
<svg version="1.1" xmlns="http://www.w3.org/2000/svg" width="1000" height="600" viewBox="0 0 1000 600">
  <path d="M 559.114,328.327 C 560.552,326.772 563.198,322.695 564.994,319.267 L 568.261,313.034 L 566.130,308.081 C 564.959,305.358 564.000,302.398 564.000,301.505 C 564.000,299.421 554.432,289.275 550.598,287.292 C 548.637,286.278 546.009,285.937 542.644,286.260 C 538.564,286.652 537.074,287.353 534.723,289.984 C 532.122,292.895 531.879,293.746 532.331,298.362 C 532.608,301.188 533.552,306.875 534.429,311.000 C 535.307,315.125 536.486,320.750 537.050,323.500 C 537.842,327.362 539.120,329.561 542.661,333.160 L 547.247,337.819 L 551.873,334.487 C 554.418,332.654 557.676,329.882 559.114,328.327 Z" fill="#f800ff" stroke="black" stroke-width="0.5" fill-rule="evenodd"/>
</svg>
