<?xml version='1.0' encoding='UTF-8'?>
<svg version="1.1" xmlns="http://www.w3.org/2000/svg" width="1000" height="600" viewBox="0 0 1000 600">
  <path d="M 483.151,333.250 C 485.012,331.188 487.652,327.700 489.017,325.500 L 491.500,321.500 L 491.500,286.500 C 491.500,254.897 491.328,251.186 489.729,248.259 C 487.567,244.302 483.745,241.667 480.168,241.667 C 476.935,241.667 464.993,246.740 463.258,248.850 C 462.249,250.077 462.391,250.997 464.008,253.738 C 465.103,255.595 466.010,258.101 466.022,259.307 C 466.034,260.513 466.981,263.525 468.127,266.000 C 472.644,275.761 474.000,282.851 474.000,296.711 C 474.000,303.981 473.480,314.504 472.844,320.096 C 471.792,329.346 471.851,330.568 473.501,333.632 C 475.935,338.152 478.832,338.037 483.151,333.250 Z" fill="#002dff" stroke="black" stroke-width="0.5" fill-rule="evenodd"/>
</svg>
