<?xml version='1.0' encoding='UTF-8'?>
<svg version="1.1" xmlns="http://www.w3.org/2000/svg" width="1000" height="600" viewBox="0 0 1000 600">
  <path d="M 605.498,384.250 C 607.988,381.087 610.414,377.109 610.888,375.408 C 612.341,370.205 610.500,362.324 606.741,357.659 C 604.898,355.372 602.185,351.407 600.711,348.849 C 597.784,343.769 591.416,337.729 583.277,332.315 C 580.404,330.405 576.443,326.647 574.475,323.966 C 568.016,315.167 565.970,314.000 557.005,314.000 C 552.692,314.000 548.435,314.280 547.545,314.621 C 542.460,316.572 541.428,330.029 545.483,341.500 C 546.844,345.350 547.972,349.625 547.989,351.000 C 548.027,354.090 552.051,362.890 555.486,367.393 C 557.249,369.704 559.496,371.159 562.676,372.049 C 565.491,372.837 570.221,375.664 574.754,379.266 C 583.762,386.424 591.044,389.977 596.735,389.990 C 600.704,389.999 601.256,389.638 605.498,384.250 Z" fill="#6500ff" stroke="black" stroke-width="0.5" fill-rule="evenodd"/>
</svg>
