<?xml version='1.0' encoding='UTF-8'?>
<svg version="1.1" xmlns="http://www.w3.org/2000/svg" width="1000" height="600" viewBox="0 0 1000 600">
  <path d="M 525.955,334.548 C 528.259,332.096 528.259,332.094 526.999,319.298 C 526.286,312.057 525.959,300.638 526.246,293.000 C 526.756,279.406 527.075,277.990 532.383,265.782 C 533.273,263.737 534.000,261.090 534.000,259.900 C 534.000,258.710 534.926,256.239 536.057,254.408 C 538.905,249.800 537.712,248.152 528.733,244.293 C 522.358,241.554 520.763,241.227 517.785,242.049 C 513.687,243.180 511.645,245.213 509.538,250.254 C 508.261,253.311 508.000,259.444 508.000,286.366 L 508.000,318.797 L 511.065,324.648 C 514.547,331.294 519.608,337.000 522.022,337.000 C 522.918,337.000 524.688,335.896 525.955,334.548 Z" fill="#002dff" stroke="black" stroke-width="0.5" fill-rule="evenodd"/>
</svg>
