<?xml version='1.0' encoding='UTF-8'?>
<svg version="1.1" xmlns="http://www.w3.org/2000/svg" width="1000" height="600" viewBox="0 0 1000 600">
  <path d="M 444.071,354.173 C 449.196,348.880 453.221,343.459 456.505,337.423 C 464.882,322.031 467.703,318.363 478.749,308.494 C 493.051,295.717 496.000,291.947 496.000,286.441 C 496.000,281.181 492.610,276.686 487.327,274.943 C 482.447,273.332 472.755,274.429 464.539,277.522 C 460.917,278.885 457.153,280.000 456.174,280.000 C 452.526,280.000 438.269,287.894 431.616,293.598 C 427.829,296.844 421.335,301.750 417.183,304.500 C 407.833,310.694 403.802,316.593 403.196,324.970 C 402.685,332.036 404.281,335.915 410.566,342.881 C 416.326,349.265 432.497,362.000 434.844,362.000 C 435.751,362.000 439.903,358.478 444.071,354.173 Z" fill="#6500ff" stroke="black" stroke-width="0.5" fill-rule="evenodd"/>
</svg>
