<?xml version='1.0' encoding='UTF-8'?>
<svg version="1.1" xmlns="http://www.w3.org/2000/svg" width="1000" height="600" viewBox="0 0 1000 600">
  <path d="M 554.455,369.317 C 558.726,366.225 559.992,358.722 557.892,348.933 C 556.434,342.132 551.384,336.542 543.500,333.002 C 540.200,331.520 536.992,329.676 536.372,328.904 C 534.740,326.872 530.000,312.598 530.000,309.713 C 530.000,308.365 529.317,303.344 528.482,298.556 C 527.291,291.725 527.206,288.950 528.088,285.675 C 529.910,278.911 529.452,266.288 527.157,260.000 C 525.156,254.517 525.156,254.490 527.128,251.297 C 528.751,248.668 529.174,245.852 529.489,235.589 C 529.720,228.065 530.543,220.695 531.556,217.086 C 532.482,213.787 532.962,209.984 532.623,208.635 C 531.841,205.519 517.653,191.094 512.933,188.615 L 509.366,186.742 L 505.049,190.728 C 500.978,194.488 500.681,195.136 499.836,202.107 C 499.343,206.173 498.701,220.750 498.411,234.500 C 497.999,253.952 498.188,260.636 499.261,264.621 C 500.196,268.094 500.338,270.506 499.702,272.121 C 498.527,275.101 498.217,306.161 499.310,311.327 C 499.945,314.328 502.539,317.680 511.310,326.835 C 521.216,337.174 523.131,339.774 528.000,349.486 C 531.887,357.239 535.168,362.191 539.186,366.370 C 544.485,371.879 545.114,372.243 548.409,371.708 C 550.354,371.393 553.075,370.317 554.455,369.317 Z" fill="#ff00bf" stroke="black" stroke-width="0.5" fill-rule="evenodd"/>
</svg>
