<?xml version='1.0' encoding='UTF-8'?>
<svg version="1.1" xmlns="http://www.w3.org/2000/svg" width="1000" height="600" viewBox="0 0 1000 600">
  <path d="M 547.082,334.243 C 552.213,330.778 563.129,320.367 568.026,314.268 C 570.778,310.840 574.373,307.341 576.015,306.492 C 577.657,305.643 579.000,304.398 578.999,303.724 C 578.998,302.302 567.339,296.914 558.189,294.108 C 554.717,293.043 548.332,289.844 543.999,286.999 C 535.078,281.142 533.860,281.118 528.962,286.696 C 525.897,290.187 525.814,290.525 526.226,297.898 C 526.596,304.509 527.309,306.869 531.695,316.000 C 534.469,321.775 537.087,327.625 537.513,329.000 C 538.732,332.932 541.080,336.001 542.865,335.993 C 543.764,335.990 545.662,335.202 547.082,334.243 Z" fill="#f800ff" stroke="black" stroke-width="0.5" fill-rule="evenodd"/>
</svg>
