<?xml version='1.0' encoding='UTF-8'?>
<svg version="1.1" xmlns="http://www.w3.org/2000/svg" width="1000" height="600" viewBox="0 0 1000 600">
  <path d="M 466.708,349.011 C 467.667,348.961 471.998,339.805 471.468,338.948 C 471.090,338.337 470.115,334.618 469.301,330.685 C 467.067,319.892 467.178,320.000 458.328,320.000 L 450.727,320.000 L 446.684,324.500 C 441.476,330.295 438.681,330.370 428.000,325.000 C 419.207,320.579 416.606,320.193 413.210,322.806 L 410.921,324.569 L 414.984,334.034 C 417.220,339.240 419.826,345.075 420.776,347.000 L 422.504,350.500 L 439.295,350.627 C 448.530,350.696 456.333,351.000 456.635,351.301 C 456.936,351.603 459.279,351.213 461.841,350.436 C 464.404,349.658 466.594,349.017 466.708,349.011 Z" fill="#b100ff" stroke="black" stroke-width="0.5" fill-rule="evenodd"/>
</svg>
