<?xml version='1.0' encoding='UTF-8'?>
<svg version="1.1" xmlns="http://www.w3.org/2000/svg" width="1000" height="600" viewBox="0 0 1000 600">
  <path d="M 490.669,295.878 C 494.900,292.973 495.161,292.403 496.565,283.000 C 496.934,280.525 497.862,277.277 498.628,275.782 C 500.378,272.362 502.380,249.068 501.786,239.050 C 501.027,226.267 496.506,221.077 486.000,220.931 C 482.975,220.889 478.025,220.418 475.000,219.885 C 471.975,219.353 468.097,218.668 466.382,218.364 C 464.549,218.040 462.077,218.420 460.382,219.288 C 458.797,220.099 455.611,221.077 453.302,221.461 C 443.642,223.066 432.089,234.895 422.499,253.000 C 419.440,258.775 416.051,265.068 414.969,266.984 C 411.835,272.531 412.304,279.876 416.250,287.049 C 418.038,290.298 420.016,293.159 420.647,293.407 C 422.802,294.254 433.629,288.264 439.675,282.878 C 444.463,278.614 447.419,276.929 453.946,274.745 C 461.723,272.142 462.358,272.076 465.450,273.543 C 469.211,275.328 470.549,277.758 471.550,284.620 C 472.312,289.847 476.142,297.387 478.848,298.988 C 481.227,300.395 485.868,299.174 490.669,295.878 Z" fill="#00c0ff" stroke="black" stroke-width="0.5" fill-rule="evenodd"/>
</svg>
