<?xml version='1.0' encoding='UTF-8'?>
<svg version="1.1" xmlns="http://www.w3.org/2000/svg" width="1000" height="600" viewBox="0 0 1000 600">
  <path d="M 421.458,374.582 C 430.593,370.765 437.272,363.240 446.197,346.708 C 450.162,339.363 459.248,330.842 464.929,329.139 C 472.795,326.783 479.723,321.877 493.747,308.734 C 500.254,302.636 504.001,295.376 503.994,288.878 C 503.986,280.779 502.383,276.203 498.787,274.017 C 496.005,272.325 495.338,272.276 492.098,273.526 C 487.557,275.278 474.116,277.104 471.258,276.357 C 469.956,276.017 467.989,276.567 466.300,277.744 C 459.432,282.532 449.892,287.054 443.567,288.521 C 439.789,289.397 435.016,290.971 432.962,292.019 C 428.700,294.194 419.844,303.702 417.521,308.598 C 415.611,312.622 414.072,323.885 414.031,334.143 C 414.014,338.347 413.272,345.308 412.381,349.613 C 409.685,362.650 411.797,376.000 416.555,376.000 C 417.385,376.000 419.591,375.362 421.458,374.582 Z" fill="#00c0ff" stroke="black" stroke-width="0.5" fill-rule="evenodd"/>
</svg>
