<?xml version='1.0' encoding='UTF-8'?>
<svg version="1.1" xmlns="http://www.w3.org/2000/svg" width="1000" height="600" viewBox="0 0 1000 600">
  <path d="M 422.738,367.885 C 427.121,367.122 430.774,365.666 434.320,363.268 C 437.169,361.342 441.975,358.591 445.000,357.156 C 451.745,353.955 475.446,331.391 476.466,327.199 C 476.827,325.714 478.997,321.350 481.290,317.500 L 485.457,310.500 L 485.479,297.500 L 485.500,284.500 L 482.020,279.015 C 480.106,275.999 475.227,269.699 471.178,265.015 C 467.130,260.332 462.778,254.182 461.507,251.349 C 460.237,248.515 457.353,244.353 455.099,242.099 C 451.338,238.338 450.567,238.001 445.750,238.007 C 439.098,238.015 436.326,239.811 429.095,248.797 C 426.018,252.621 421.397,258.177 418.827,261.143 C 416.257,264.109 413.196,268.966 412.025,271.936 C 410.854,274.906 408.918,278.711 407.722,280.391 C 404.243,285.276 393.259,307.518 392.523,311.168 C 392.153,313.000 390.524,318.670 388.901,323.766 L 385.952,333.032 L 388.097,340.094 C 389.523,344.788 390.057,348.537 389.690,351.275 C 387.918,364.486 401.900,371.514 422.738,367.885 Z" fill="#1e00ff" stroke="black" stroke-width="0.5" fill-rule="evenodd"/>
</svg>
