<?xml version='1.0' encoding='UTF-8'?>
<svg version="1.1" xmlns="http://www.w3.org/2000/svg" width="1000" height="600" viewBox="0 0 1000 600">
  <path d="M 636.381,513.397 C 639.718,509.495 640.110,508.553 639.176,506.679 C 638.579,505.481 637.463,502.925 636.696,501.000 C 635.930,499.075 632.986,494.480 630.153,490.789 C 627.321,487.098 622.583,479.898 619.623,474.789 C 616.663,469.680 612.621,463.105 610.640,460.178 C 602.601,448.300 603.447,441.556 614.673,428.000 C 621.043,420.308 622.691,415.589 620.684,410.787 C 618.308,405.102 617.006,404.620 602.092,403.903 C 589.992,403.321 587.809,402.937 583.133,400.567 C 577.918,397.925 577.785,397.911 572.981,399.506 C 566.048,401.809 563.320,404.338 560.094,411.453 C 556.869,418.566 554.064,421.000 549.092,421.000 C 541.628,421.000 538.457,413.176 543.495,407.188 C 545.913,404.315 545.944,404.092 544.493,399.981 C 542.852,395.330 538.454,390.046 530.245,382.862 C 525.698,378.883 523.933,378.020 518.367,377.050 C 512.232,375.982 501.449,372.171 494.381,368.572 C 492.665,367.699 487.796,366.545 483.560,366.008 C 479.324,365.471 473.752,364.303 471.179,363.414 C 467.217,362.044 463.752,361.902 448.580,362.488 C 431.586,363.145 430.352,363.329 424.712,366.061 C 412.593,371.932 408.010,377.206 408.004,385.290 C 407.999,390.739 410.714,396.822 414.051,398.842 C 419.380,402.068 441.325,411.000 443.922,411.000 C 449.834,411.000 452.922,405.486 452.976,394.832 C 453.023,385.698 454.743,384.993 462.409,390.967 C 472.345,398.708 473.044,399.491 473.668,403.564 C 474.525,409.165 476.477,411.000 481.578,411.000 C 485.461,411.000 490.495,408.271 493.049,404.782 C 494.006,403.474 508.488,408.551 513.355,411.901 C 515.926,413.669 520.386,415.808 523.265,416.652 C 526.144,417.497 529.556,419.158 530.846,420.344 C 532.865,422.200 533.126,423.195 532.719,427.492 C 532.288,432.055 531.758,432.929 526.567,437.646 L 520.888,442.808 L 524.412,443.971 C 526.626,444.702 529.713,447.226 532.718,450.764 C 542.053,461.755 555.201,473.914 559.416,475.453 C 561.662,476.274 567.000,477.404 571.278,477.966 C 575.555,478.528 580.752,479.853 582.826,480.911 C 584.900,481.969 592.650,488.394 600.048,495.187 C 607.447,501.981 615.360,508.989 617.633,510.761 C 621.545,513.811 629.326,517.814 631.500,517.897 C 632.050,517.917 634.247,515.892 636.381,513.397 Z" fill="#ff00bf" stroke="black" stroke-width="0.5" fill-rule="evenodd"/>
</svg>
