<?xml version='1.0' encoding='UTF-8'?>
<svg version="1.1" xmlns="http://www.w3.org/2000/svg" width="1000" height="600" viewBox="0 0 1000 600">
  <path d="M 587.976,370.147 C 589.266,365.501 589.247,356.657 587.934,351.500 C 587.375,349.300 586.506,340.823 586.004,332.663 C 584.831,313.595 583.383,308.651 576.648,300.717 C 569.762,292.605 566.536,290.543 557.639,288.563 C 550.123,286.891 548.317,286.106 537.080,279.621 C 533.549,277.584 529.988,276.174 529.168,276.489 C 527.183,277.251 512.335,275.093 508.333,273.462 C 505.626,272.359 504.682,272.413 501.833,273.836 C 497.577,275.961 495.704,281.229 496.211,289.648 C 496.517,294.715 497.232,296.776 500.276,301.361 C 502.308,304.421 505.648,308.404 507.699,310.212 C 509.749,312.020 513.693,315.563 516.464,318.085 C 521.889,323.025 530.246,328.043 536.215,329.947 C 542.797,332.047 549.377,339.146 557.462,352.871 C 565.183,365.979 568.223,369.128 578.467,374.631 C 582.058,376.560 582.648,376.621 584.698,375.278 C 585.944,374.462 587.419,372.153 587.976,370.147 Z" fill="#00c0ff" stroke="black" stroke-width="0.5" fill-rule="evenodd"/>
</svg>
