<?xml version='1.0' encoding='UTF-8'?>
<svg version="1.1" xmlns="http://www.w3.org/2000/svg" width="1000" height="600" viewBox="0 0 1000 600">
  <path d="M 444.309,378.386 C 450.068,374.617 459.813,364.289 462.500,359.105 C 465.907,352.532 468.573,349.587 476.446,343.697 C 486.238,336.371 489.966,329.782 491.226,317.579 C 491.741,312.586 491.896,300.625 491.570,291.000 C 491.243,281.375 490.955,272.600 490.928,271.500 C 490.902,270.400 491.379,260.725 491.990,250.000 C 493.026,231.810 492.560,216.978 490.435,200.502 C 489.202,190.942 481.700,180.376 474.446,177.982 C 470.814,176.784 470.696,176.831 466.340,181.186 C 462.157,185.369 461.889,185.979 461.349,192.553 C 461.035,196.374 459.843,201.525 458.701,204.000 C 456.956,207.778 456.558,210.981 456.218,223.965 C 455.739,242.225 456.390,245.120 462.813,253.296 L 467.415,259.153 L 465.312,263.327 C 461.991,269.915 461.843,271.012 463.575,276.225 C 465.682,282.568 464.823,288.618 460.717,296.355 C 457.145,303.085 455.557,304.299 448.059,306.033 C 441.089,307.645 438.000,310.633 438.000,315.763 C 438.000,321.779 439.674,323.237 447.096,323.686 C 455.407,324.188 458.641,325.532 459.843,328.981 C 460.598,331.146 460.420,332.424 459.049,334.679 C 456.080,339.561 452.569,341.158 443.628,341.689 C 431.465,342.413 429.580,343.243 426.036,349.437 C 420.946,358.334 422.131,370.294 428.803,377.354 C 433.794,382.635 437.444,382.878 444.309,378.386 Z" fill="#ff00bf" stroke="black" stroke-width="0.5" fill-rule="evenodd"/>
</svg>
