<?xml version='1.0' encoding='UTF-8'?>
<svg version="1.1" xmlns="http://www.w3.org/2000/svg" width="1000" height="600" viewBox="0 0 1000 600">
  <path d="M 455.800,370.582 C 460.875,367.918 465.828,361.502 472.426,349.043 C 478.287,337.975 480.184,335.408 489.436,326.020 C 495.593,319.771 500.186,314.237 500.674,312.476 C 501.913,308.010 501.484,276.000 500.141,272.685 C 499.266,270.527 499.291,269.359 500.247,267.685 C 501.999,264.616 502.548,226.683 501.053,212.000 C 499.429,196.046 498.682,193.708 494.031,190.024 L 490.100,186.911 L 485.800,189.602 C 480.116,193.158 468.163,205.504 467.378,208.629 C 467.037,209.988 467.494,213.441 468.394,216.302 C 469.419,219.562 470.200,226.495 470.487,234.884 C 470.818,244.579 471.365,248.908 472.472,250.598 C 474.423,253.575 474.399,255.812 472.364,260.628 C 470.447,265.163 470.196,280.034 471.947,285.338 C 472.807,287.945 472.712,290.710 471.530,297.487 C 470.689,302.313 470.000,307.305 470.000,308.579 C 470.000,312.281 465.187,326.492 462.986,329.291 C 461.880,330.697 458.813,332.566 456.172,333.443 C 451.467,335.005 445.412,340.201 443.161,344.604 C 442.570,345.762 441.779,349.697 441.405,353.350 C 440.580,361.403 442.551,367.639 446.743,370.237 C 450.131,372.338 452.298,372.421 455.800,370.582 Z" fill="#ff00bf" stroke="black" stroke-width="0.5" fill-rule="evenodd"/>
</svg>
