<?xml version='1.0' encoding='UTF-8'?>
<svg version="1.1" xmlns="http://www.w3.org/2000/svg" width="1000" height="600" viewBox="0 0 1000 600">
  <path d="M 595.000,307.327 C 595.000,304.875 594.501,301.936 593.891,300.796 C 593.281,299.657 592.469,292.824 592.087,285.612 L 591.393,272.500 L 585.244,260.000 C 581.862,253.125 576.936,244.095 574.297,239.934 C 562.837,221.859 560.548,220.559 541.240,221.161 C 528.564,221.556 528.279,221.617 519.658,225.754 C 507.536,231.570 507.586,231.424 508.510,257.963 C 508.987,271.669 509.703,279.830 510.665,282.500 C 511.457,284.700 512.489,289.328 512.960,292.784 C 513.973,300.230 516.126,304.000 519.368,304.000 C 522.856,304.000 524.682,301.162 525.478,294.500 C 526.447,286.389 527.950,283.172 532.822,278.775 C 537.516,274.539 540.528,273.501 545.446,274.424 C 548.960,275.083 554.000,279.885 554.000,282.574 C 554.000,284.697 567.440,298.435 573.344,302.346 C 581.774,307.931 591.922,312.967 593.514,312.356 C 594.521,311.970 595.000,310.350 595.000,307.327 Z" fill="#00c0ff" stroke="black" stroke-width="0.5" fill-rule="evenodd"/>
</svg>
