<?xml version='1.0' encoding='UTF-8'?>
<svg version="1.1" xmlns="http://www.w3.org/2000/svg" width="1000" height="600" viewBox="0 0 1000 600">
  <path d="M 457.347,369.967 C 459.727,368.848 463.884,365.786 466.587,363.162 C 474.688,355.295 489.629,351.003 508.934,350.997 C 516.853,350.994 521.326,351.535 526.790,353.154 L 534.080,355.315 L 537.540,351.961 C 541.882,347.753 541.929,345.563 537.930,333.648 C 536.242,328.616 534.025,320.450 533.003,315.500 C 531.981,310.550 530.676,305.375 530.104,304.000 C 527.998,298.943 523.297,293.437 519.105,291.120 L 514.801,288.740 L 506.150,297.342 C 499.152,304.301 496.433,306.311 491.912,307.863 C 488.838,308.918 485.463,310.244 484.412,310.810 C 483.360,311.376 478.591,313.683 473.814,315.936 C 458.680,323.074 442.514,336.133 439.306,343.811 C 435.992,351.742 437.534,360.554 443.669,368.750 C 446.618,372.690 450.768,373.059 457.347,369.967 Z" fill="#002dff" stroke="black" stroke-width="0.5" fill-rule="evenodd"/>
</svg>
