<?xml version='1.0' encoding='UTF-8'?>
<svg version="1.1" xmlns="http://www.w3.org/2000/svg" width="1000" height="600" viewBox="0 0 1000 600">
  <path d="M 605.401,402.445 C 616.501,399.475 622.880,395.731 625.324,390.750 C 626.921,387.498 627.004,386.335 625.990,381.450 C 625.015,376.757 623.654,374.464 617.462,367.084 C 613.410,362.254 606.330,354.409 601.730,349.651 C 593.064,340.687 590.640,339.517 585.945,342.030 C 583.209,343.494 574.384,356.908 570.388,365.676 C 566.680,373.812 566.276,377.699 568.399,384.812 C 569.168,387.390 570.317,391.432 570.952,393.794 C 572.430,399.291 576.575,403.918 581.014,405.026 C 585.853,406.234 594.771,405.290 605.401,402.445 Z" fill="#00fff7" stroke="black" stroke-width="0.5" fill-rule="evenodd"/>
</svg>
