<?xml version='1.0' encoding='UTF-8'?>
<svg version="1.1" xmlns="http://www.w3.org/2000/svg" width="1000" height="600" viewBox="0 0 1000 600">
  <path d="M 586.500,352.979 C 596.246,351.784 598.288,350.403 603.382,341.563 C 606.986,335.308 607.263,334.267 607.263,327.001 C 607.263,317.465 605.463,313.267 597.434,304.087 C 590.732,296.422 590.197,295.172 588.506,283.235 C 587.651,277.199 586.255,272.145 584.499,268.735 C 581.241,262.404 573.330,254.004 566.404,249.520 C 563.601,247.706 559.101,244.531 556.404,242.465 C 553.707,240.399 550.114,238.125 548.420,237.412 C 546.727,236.699 544.759,235.415 544.048,234.558 C 542.157,232.279 535.804,232.580 532.599,235.101 C 531.130,236.256 528.672,239.968 527.136,243.351 C 523.488,251.386 514.647,264.667 506.894,273.759 C 497.359,284.943 497.502,287.722 508.733,309.500 C 517.058,325.644 521.718,330.757 534.175,337.415 C 538.204,339.568 543.075,342.546 545.000,344.032 C 546.925,345.518 550.302,347.647 552.505,348.762 C 554.708,349.878 558.415,353.050 560.743,355.810 L 564.975,360.829 L 571.738,357.394 C 576.608,354.920 580.739,353.685 586.500,352.979 Z" fill="#1e00ff" stroke="black" stroke-width="0.5" fill-rule="evenodd"/>
</svg>
