<?xml version='1.0' encoding='UTF-8'?>
<svg version="1.1" xmlns="http://www.w3.org/2000/svg" width="1000" height="600" viewBox="0 0 1000 600">
  <path d="M 368.411,449.201 C 370.562,447.716 373.253,444.700 374.391,442.500 C 376.919,437.612 377.733,426.750 375.970,421.410 C 374.180,415.986 363.272,399.732 360.399,398.209 C 359.060,397.499 353.495,395.812 348.032,394.460 C 342.569,393.108 336.961,391.484 335.569,390.850 C 333.178,389.760 332.551,390.197 324.099,398.844 C 318.505,404.568 314.707,409.358 313.953,411.642 C 312.549,415.895 313.226,426.362 315.046,428.555 C 317.252,431.214 334.691,442.819 342.182,446.613 C 356.154,453.691 361.190,454.188 368.411,449.201 Z" fill="#fdc427" stroke="black" stroke-width="0.5" fill-rule="evenodd"/>
</svg>
