<?xml version='1.0' encoding='UTF-8'?>
<svg version="1.1" xmlns="http://www.w3.org/2000/svg" width="1000" height="600" viewBox="0 0 1000 600">
  <path d="M 568.316,158.883 C 569.517,158.269 572.432,155.906 574.794,153.633 C 579.181,149.410 581.024,144.985 582.555,135.000 C 582.934,132.525 584.089,128.346 585.122,125.713 C 588.216,117.825 587.765,116.034 581.074,109.652 C 575.380,104.220 574.941,104.001 569.824,104.022 C 559.849,104.063 556.471,106.643 541.273,125.830 C 534.548,134.321 534.182,135.027 536.013,136.007 C 537.094,136.586 538.684,138.423 539.546,140.089 C 541.989,144.813 548.001,151.006 553.684,154.651 C 556.535,156.480 559.149,158.432 559.493,158.988 C 560.327,160.339 565.592,160.276 568.316,158.883 Z" fill="#fad524" stroke="black" stroke-width="0.5" fill-rule="evenodd"/>
</svg>
