<?xml version='1.0' encoding='UTF-8'?>
<svg version="1.1" xmlns="http://www.w3.org/2000/svg" width="1000" height="600" viewBox="0 0 1000 600">
  <path d="M 409.640,277.157 C 413.468,275.994 423.040,268.405 428.597,262.128 C 433.816,256.233 435.392,251.483 435.440,241.500 C 435.503,228.595 431.793,223.537 416.148,215.201 C 408.854,211.315 407.686,211.000 400.582,211.000 C 391.239,211.000 388.281,212.363 385.058,218.152 C 381.427,224.677 375.387,232.687 368.235,240.463 C 359.708,249.734 358.695,251.870 359.184,259.541 C 359.572,265.641 359.699,265.884 365.374,271.336 C 370.233,276.005 371.919,277.001 375.834,277.515 C 378.400,277.852 381.175,278.302 382.000,278.516 C 384.670,279.209 406.404,278.141 409.640,277.157 Z" fill="#fba337" stroke="black" stroke-width="0.5" fill-rule="evenodd"/>
</svg>
