<?xml version='1.0' encoding='UTF-8'?>
<svg version="1.1" xmlns="http://www.w3.org/2000/svg" width="1000" height="600" viewBox="0 0 1000 600">
  <path d="M 449.211,226.348 C 449.920,225.440 452.189,222.982 454.252,220.886 C 459.111,215.952 460.452,209.971 459.715,196.521 C 458.845,180.652 457.582,176.496 451.760,170.340 C 446.084,164.339 445.707,164.168 435.781,163.105 C 425.760,162.033 422.435,162.979 417.945,168.182 C 414.473,172.205 414.310,172.677 415.555,175.095 C 416.289,176.522 417.353,182.822 417.918,189.095 C 418.483,195.368 419.421,202.159 420.002,204.186 C 421.404,209.075 428.028,216.907 435.941,223.032 C 442.753,228.304 446.879,229.335 449.211,226.348 Z" fill="#ec7853" stroke="black" stroke-width="0.5" fill-rule="evenodd"/>
</svg>
