<?xml version='1.0' encoding='UTF-8'?>
<svg version="1.1" xmlns="http://www.w3.org/2000/svg" width="1000" height="600" viewBox="0 0 1000 600">
  <path d="M 559.416,194.612 C 562.379,192.199 566.378,188.480 568.304,186.349 L 571.804,182.474 L 569.402,179.681 C 568.081,178.145 567.010,175.901 567.022,174.694 C 567.049,172.017 570.357,164.515 571.944,163.535 C 572.707,163.063 572.876,161.249 572.443,158.161 C 571.837,153.833 570.889,152.589 559.160,140.750 C 552.213,133.737 545.775,128.000 544.853,128.000 C 543.931,128.000 539.566,131.487 535.154,135.750 C 527.400,143.239 527.108,143.690 526.463,149.146 C 525.706,155.553 526.416,159.864 529.105,165.177 C 530.129,167.199 531.925,172.374 533.098,176.677 C 535.706,186.243 536.180,187.167 541.855,193.750 C 545.846,198.379 546.834,199.000 550.205,199.000 C 553.237,199.000 555.144,198.092 559.416,194.612 Z" fill="#dd5f65" stroke="black" stroke-width="0.5" fill-rule="evenodd"/>
</svg>
