<?xml version='1.0' encoding='UTF-8'?>
<svg version="1.1" xmlns="http://www.w3.org/2000/svg" width="1000" height="600" viewBox="0 0 1000 600">
  <path d="M 669.000,386.940 C 680.041,385.283 680.992,384.930 684.811,381.073 C 686.851,379.012 689.184,377.105 689.996,376.835 C 691.255,376.415 691.213,375.987 689.712,373.921 C 688.744,372.590 686.396,369.250 684.493,366.500 C 671.967,348.394 670.421,346.562 665.000,343.392 C 658.507,339.594 655.211,336.269 651.327,329.596 C 647.892,323.695 643.224,321.550 635.645,322.391 C 630.334,322.981 626.179,325.799 615.750,335.879 C 610.656,340.803 610.000,341.889 610.000,345.392 C 610.000,347.937 611.387,352.228 613.889,357.424 C 616.028,361.866 618.573,367.724 619.545,370.441 C 621.452,375.777 627.705,383.279 632.166,385.586 C 633.689,386.373 636.637,387.447 638.718,387.972 C 642.863,389.018 658.765,388.476 669.000,386.940 Z" fill="#dd5f65" stroke="black" stroke-width="0.5" fill-rule="evenodd"/>
</svg>
