<?xml version='1.0' encoding='UTF-8'?>
<svg version="1.1" xmlns="http://www.w3.org/2000/svg" width="1000" height="600" viewBox="0 0 1000 600">
  <path d="M 607.566,335.850 C 608.702,334.831 616.499,330.481 624.894,326.183 C 646.971,314.879 656.000,306.168 656.000,296.172 C 656.000,292.422 655.480,291.254 652.638,288.618 C 650.789,286.903 645.282,283.475 640.402,281.000 C 631.802,276.639 631.243,276.500 622.361,276.500 L 613.195,276.500 L 607.348,280.714 C 604.131,283.032 599.254,286.182 596.508,287.714 C 593.762,289.246 589.375,292.573 586.758,295.107 C 582.483,299.247 582.000,300.166 582.000,304.167 C 582.000,307.927 582.661,309.425 586.250,313.796 C 595.185,324.679 598.998,329.943 601.137,334.345 C 603.397,338.996 603.920,339.119 607.566,335.850 Z" fill="#ec7853" stroke="black" stroke-width="0.5" fill-rule="evenodd"/>
</svg>
