<?xml version='1.0' encoding='UTF-8'?>
<svg version="1.1" xmlns="http://www.w3.org/2000/svg" width="1000" height="600" viewBox="0 0 1000 600">
  <path d="M 458.526,193.250 C 462.425,189.063 464.323,186.005 465.508,182.000 C 467.364,175.730 468.924,171.061 472.017,162.515 C 473.799,157.591 474.060,155.375 473.492,150.015 L 472.800,143.500 L 464.853,135.750 C 460.481,131.487 456.178,128.000 455.288,128.000 C 454.399,128.000 447.947,133.665 440.950,140.588 C 429.843,151.577 428.145,153.692 427.578,157.235 C 427.043,160.586 427.377,161.972 429.494,165.171 C 433.277,170.887 433.622,174.120 430.956,178.864 L 428.695,182.888 L 431.834,186.464 C 433.561,188.431 437.342,192.024 440.237,194.449 C 444.373,197.914 446.321,198.873 449.336,198.929 C 452.755,198.992 453.752,198.376 458.526,193.250 Z" fill="#dd5f65" stroke="black" stroke-width="0.5" fill-rule="evenodd"/>
</svg>
