<?xml version='1.0' encoding='UTF-8'?>
<svg version="1.1" xmlns="http://www.w3.org/2000/svg" width="1000" height="600" viewBox="0 0 1000 600">
  <path d="M 461.656,194.764 C 468.077,188.692 469.244,186.705 471.493,178.027 C 472.403,174.516 474.239,169.488 475.574,166.855 C 478.260,161.554 478.802,153.427 476.920,146.652 C 475.553,141.728 461.766,128.000 458.188,128.000 C 457.641,128.000 451.524,133.447 444.596,140.103 C 432.302,151.917 432.000,152.310 432.000,156.502 C 432.000,159.328 433.013,162.723 434.963,166.430 C 438.113,172.417 437.968,175.167 434.292,179.229 C 432.849,180.825 433.072,181.384 437.112,186.273 C 439.525,189.193 443.300,193.186 445.500,195.146 C 452.620,201.490 454.594,201.443 461.656,194.764 Z" fill="#dd5f65" stroke="black" stroke-width="0.5" fill-rule="evenodd"/>
</svg>
