<?xml version='1.0' encoding='UTF-8'?>
<svg version="1.1" xmlns="http://www.w3.org/2000/svg" width="1000" height="600" viewBox="0 0 1000 600">
  <path d="M 469.838,414.884 C 477.850,410.821 481.993,407.960 486.727,403.220 C 490.177,399.766 493.000,396.582 493.000,396.145 C 493.000,395.707 491.908,394.323 490.573,393.069 C 489.239,391.815 487.140,388.249 485.910,385.145 C 483.020,377.852 482.374,377.089 477.216,374.878 C 474.844,373.862 470.788,371.561 468.202,369.765 C 463.645,366.601 463.146,366.491 452.000,366.208 C 436.695,365.820 434.429,366.886 431.192,375.996 C 429.923,379.568 427.336,384.479 425.442,386.910 C 422.192,391.082 422.000,391.762 422.000,399.119 L 422.000,406.909 L 427.413,412.542 C 434.459,419.876 437.976,421.146 449.861,420.655 C 458.871,420.282 459.621,420.065 469.838,414.884 Z" fill="#f5e726" stroke="black" stroke-width="0.5" fill-rule="evenodd"/>
</svg>
