<?xml version='1.0' encoding='UTF-8'?>
<svg version="1.1" xmlns="http://www.w3.org/2000/svg" width="1000" height="600" viewBox="0 0 1000 600">
  <path d="M 482.144,521.615 C 487.999,518.493 493.958,514.769 495.388,513.339 C 496.818,511.910 500.152,509.111 502.798,507.120 C 510.345,501.442 525.896,484.027 527.016,480.000 C 528.278,475.460 528.258,471.039 526.959,467.311 C 526.084,464.801 525.114,464.139 520.882,463.162 C 513.142,461.375 501.168,461.706 494.847,463.880 C 484.760,467.351 471.818,474.127 467.272,478.317 C 464.793,480.602 460.796,485.230 458.391,488.600 C 454.859,493.550 453.728,496.244 452.509,502.614 C 450.703,512.052 450.614,516.552 452.142,521.101 C 454.306,527.546 455.610,528.278 464.000,527.757 C 470.773,527.337 472.532,526.742 482.144,521.615 Z" fill="#0c0786" stroke="black" stroke-width="0.5" fill-rule="evenodd"/>
</svg>
