<?xml version='1.0' encoding='UTF-8'?>
<svg version="1.1" xmlns="http://www.w3.org/2000/svg" width="1000" height="600" viewBox="0 0 1000 600">
  <path d="M 606.889,323.250 C 609.419,321.152 610.987,313.718 611.031,303.614 C 611.062,296.573 613.362,275.415 614.529,271.441 C 614.984,269.891 614.511,269.098 612.615,268.234 C 611.230,267.603 609.330,265.605 608.394,263.793 C 606.283,259.708 604.455,258.323 600.079,257.494 C 595.894,256.700 568.507,258.758 564.880,260.138 C 561.799,261.310 560.000,264.755 560.000,269.482 C 560.000,274.579 561.216,276.951 569.321,287.673 C 573.407,293.078 577.680,299.300 578.816,301.500 C 579.953,303.700 585.071,309.891 590.191,315.258 C 600.139,325.687 602.555,326.844 606.889,323.250 Z" fill="#0c0786" stroke="black" stroke-width="0.5" fill-rule="evenodd"/>
</svg>
