<?xml version='1.0' encoding='UTF-8'?>
<svg version="1.1" xmlns="http://www.w3.org/2000/svg" width="1000" height="600" viewBox="0 0 1000 600">
  <path d="M 652.000,392.248 C 653.925,391.287 656.177,389.150 657.005,387.500 C 657.833,385.850 659.892,382.250 661.580,379.500 C 666.605,371.315 667.233,368.497 667.750,351.827 C 668.137,339.307 667.888,334.579 666.509,328.327 C 665.559,324.022 664.295,319.900 663.699,319.166 C 663.103,318.432 659.489,316.182 655.669,314.166 C 651.849,312.150 647.573,309.871 646.167,309.102 C 644.116,307.980 642.272,307.912 636.815,308.757 C 630.888,309.674 629.070,310.523 622.607,315.387 C 615.059,321.068 609.797,326.797 608.603,330.634 C 608.238,331.808 607.534,336.314 607.040,340.648 C 606.401,346.252 605.254,350.214 603.071,354.366 C 600.029,360.149 598.880,368.747 600.765,371.619 C 601.169,372.234 603.975,373.979 607.000,375.496 C 610.025,377.013 614.356,379.885 616.625,381.877 C 628.789,392.562 631.267,393.713 642.500,393.898 C 646.385,393.962 649.734,393.380 652.000,392.248 Z" fill="#3a049a" stroke="black" stroke-width="0.5" fill-rule="evenodd"/>
</svg>
