<?xml version='1.0' encoding='UTF-8'?>
<svg version="1.1" xmlns="http://www.w3.org/2000/svg" width="1000" height="600" viewBox="0 0 1000 600">
  <path d="M 610.986,324.008 C 613.932,322.431 614.905,317.653 615.974,299.500 C 617.116,280.128 617.789,274.263 619.167,271.689 C 619.966,270.195 619.615,269.681 617.166,268.757 C 615.425,268.099 613.552,266.284 612.638,264.367 C 609.692,258.189 607.380,257.484 590.535,257.631 C 575.837,257.759 567.241,259.051 565.765,261.353 C 564.702,263.013 564.835,272.435 565.964,275.404 C 566.494,276.798 569.634,281.344 572.942,285.507 C 576.249,289.670 580.737,296.096 582.913,299.788 C 585.090,303.479 590.837,310.666 595.685,315.759 C 604.650,325.175 606.719,326.291 610.986,324.008 Z" fill="#0c0786" stroke="black" stroke-width="0.5" fill-rule="evenodd"/>
</svg>
