<?xml version='1.0' encoding='UTF-8'?>
<svg version="1.1" xmlns="http://www.w3.org/2000/svg" width="1000" height="600" viewBox="0 0 1000 600">
  <path d="M 545.465,525.626 C 548.690,522.401 549.560,515.682 547.986,506.163 C 546.357,496.312 545.072,493.241 539.608,486.140 C 531.792,475.983 525.195,471.520 507.829,464.642 C 500.292,461.657 489.795,461.104 479.583,463.155 C 474.845,464.106 473.655,464.766 472.823,466.905 C 471.542,470.196 472.375,478.899 474.328,482.637 C 476.476,486.748 492.556,503.920 497.823,507.727 C 500.278,509.502 503.460,512.126 504.894,513.558 C 506.327,514.990 512.593,518.825 518.818,522.081 C 529.242,527.532 530.647,528.000 536.613,528.000 C 542.098,528.000 543.455,527.636 545.465,525.626 Z" fill="#0c0786" stroke="black" stroke-width="0.5" fill-rule="evenodd"/>
</svg>
