<?xml version='1.0' encoding='UTF-8'?>
<svg version="1.1" xmlns="http://www.w3.org/2000/svg" width="1000" height="600" viewBox="0 0 1000 600">
  <path d="M 405.263,314.807 C 410.082,309.688 415.436,303.025 417.161,300.000 C 418.885,296.975 423.041,290.964 426.398,286.642 C 429.754,282.321 433.080,277.821 433.790,276.642 C 435.563,273.697 434.950,261.205 432.973,259.983 C 430.573,258.500 421.251,257.590 408.000,257.543 C 393.773,257.494 389.732,258.888 387.000,264.788 C 386.159,266.605 384.475,268.298 383.167,268.643 C 381.356,269.121 380.972,269.733 381.452,271.379 C 381.792,272.546 382.510,279.575 383.047,287.000 C 385.686,323.432 386.270,325.677 392.848,324.672 C 395.853,324.212 398.053,322.465 405.263,314.807 Z" fill="#0c0786" stroke="black" stroke-width="0.5" fill-rule="evenodd"/>
</svg>
