<?xml version='1.0' encoding='UTF-8'?>
<svg version="1.1" xmlns="http://www.w3.org/2000/svg" width="1000" height="600" viewBox="0 0 1000 600">
  <path d="M 367.264,392.621 C 371.551,391.331 374.954,389.026 383.863,381.378 C 385.863,379.661 390.312,376.842 393.750,375.113 L 400.000,371.971 L 400.000,366.126 C 400.000,361.489 399.351,359.065 396.856,354.391 C 394.482,349.942 393.487,346.419 392.790,340.000 C 391.744,330.364 389.379,325.362 383.293,319.916 C 370.592,308.552 360.552,305.511 352.000,310.435 C 349.525,311.861 344.907,314.222 341.739,315.682 C 336.385,318.149 335.862,318.697 334.349,323.419 C 332.202,330.118 331.358,355.267 332.961,364.770 C 333.870,370.160 335.431,373.965 339.867,381.612 C 343.197,387.350 346.626,392.010 348.049,392.730 C 351.325,394.388 361.588,394.329 367.264,392.621 Z" fill="#3a049a" stroke="black" stroke-width="0.5" fill-rule="evenodd"/>
</svg>
