<?xml version='1.0' encoding='UTF-8'?>
<svg version="1.1" xmlns="http://www.w3.org/2000/svg" width="1000" height="600" viewBox="0 0 1000 600">
  <path d="M 389.703,219.750 C 394.803,214.662 401.446,208.305 404.464,205.622 C 408.660,201.892 410.424,199.420 411.954,195.122 C 413.056,192.030 414.816,187.837 415.866,185.803 C 417.677,182.298 417.686,182.026 416.038,180.535 C 415.083,179.670 413.032,175.729 411.482,171.776 C 407.666,162.050 402.506,156.601 393.000,152.261 C 388.875,150.378 384.729,148.144 383.787,147.297 C 382.215,145.884 381.640,146.229 376.787,151.493 C 369.568,159.324 361.938,170.532 356.895,180.711 C 353.433,187.701 352.603,190.501 352.218,196.500 C 351.735,204.038 353.204,212.868 355.572,216.653 C 356.313,217.838 360.650,221.086 365.210,223.872 C 377.390,231.314 378.256,231.168 389.703,219.750 Z" fill="#c03b81" stroke="black" stroke-width="0.5" fill-rule="evenodd"/>
</svg>
