<?xml version='1.0' encoding='UTF-8'?>
<svg version="1.1" xmlns="http://www.w3.org/2000/svg" width="1000" height="600" viewBox="0 0 1000 600">
  <path d="M 425.083,392.300 C 427.512,390.635 431.525,388.250 434.000,386.999 C 439.740,384.097 449.699,374.978 453.229,369.392 C 454.730,367.017 457.092,364.330 458.479,363.422 C 459.865,362.513 461.000,361.084 461.000,360.245 C 461.000,359.406 461.870,356.870 462.934,354.610 C 475.160,328.630 475.913,325.816 471.750,321.667 C 470.512,320.434 465.450,317.191 460.500,314.462 L 451.500,309.500 L 432.000,309.500 L 412.500,309.500 L 396.844,315.817 C 388.234,319.291 380.530,322.891 379.724,323.817 C 377.548,326.318 375.484,346.378 376.875,351.503 C 378.480,357.416 395.864,381.371 404.283,389.273 C 411.301,395.858 411.627,396.035 416.083,395.686 C 419.112,395.448 422.164,394.299 425.083,392.300 Z" fill="#d4526e" stroke="black" stroke-width="0.5" fill-rule="evenodd"/>
</svg>
