<?xml version='1.0' encoding='UTF-8'?>
<svg version="1.1" xmlns="http://www.w3.org/2000/svg" width="1000" height="600" viewBox="0 0 1000 600">
  <path d="M 541.000,438.508 C 548.002,434.410 554.239,431.926 561.009,430.540 C 565.129,429.696 569.507,428.773 570.738,428.487 C 572.088,428.174 573.831,426.289 575.133,423.734 C 576.319,421.405 579.002,417.025 581.094,414.000 C 587.680,404.478 587.278,402.853 574.617,387.825 C 568.907,381.046 562.494,373.863 560.367,371.863 C 552.176,364.158 541.475,355.837 536.014,352.927 C 529.226,349.309 514.516,335.916 511.000,330.152 C 509.625,327.898 508.121,326.042 507.658,326.027 C 507.194,326.012 505.695,326.882 504.325,327.959 C 502.955,329.037 499.337,330.853 496.286,331.994 C 489.500,334.533 480.505,341.832 471.623,352.005 L 467.746,356.446 L 468.253,364.573 C 468.708,371.864 469.133,373.241 472.388,377.974 C 474.384,380.875 476.705,385.617 477.547,388.513 C 478.388,391.408 481.785,397.765 485.095,402.639 C 488.405,407.512 493.086,414.425 495.498,418.000 C 501.934,427.540 503.254,428.727 509.421,430.520 C 512.502,431.416 516.327,433.245 517.920,434.586 C 519.513,435.927 522.095,437.690 523.658,438.506 C 527.332,440.422 537.727,440.423 541.000,438.508 Z" fill="#cb4777" stroke="black" stroke-width="0.5" fill-rule="evenodd"/>
</svg>
