<?xml version='1.0' encoding='UTF-8'?>
<svg version="1.1" xmlns="http://www.w3.org/2000/svg" width="1000" height="600" viewBox="0 0 1000 600">
  <path d="M 549.397,436.167 C 555.155,432.516 561.132,430.438 569.758,429.088 C 573.199,428.549 576.419,427.859 576.912,427.554 C 577.405,427.249 579.266,424.412 581.047,421.250 C 582.828,418.087 585.571,413.935 587.142,412.022 C 591.159,407.134 591.042,401.931 586.770,395.421 C 582.753,389.302 566.835,372.733 559.347,366.878 C 556.268,364.470 551.788,360.843 549.392,358.818 C 546.996,356.793 542.320,353.689 539.000,351.919 C 531.043,347.678 520.918,338.288 516.387,330.948 L 512.744,325.046 L 509.853,327.105 C 508.262,328.237 504.281,330.214 501.005,331.498 C 494.813,333.924 487.439,339.594 478.239,349.000 L 472.859,354.500 L 473.370,363.327 C 473.856,371.733 474.190,372.780 480.401,385.336 C 483.987,392.587 489.445,402.115 492.530,406.510 C 495.615,410.904 500.133,417.505 502.572,421.179 C 506.473,427.056 507.815,428.240 513.752,431.043 C 517.464,432.794 521.789,435.144 523.365,436.264 C 530.100,441.051 541.765,441.007 549.397,436.167 Z" fill="#cb4777" stroke="black" stroke-width="0.5" fill-rule="evenodd"/>
</svg>
