<?xml version='1.0' encoding='UTF-8'?>
<svg version="1.1" xmlns="http://www.w3.org/2000/svg" width="1000" height="600" viewBox="0 0 1000 600">
  <path d="M 595.064,389.750 C 599.931,385.528 605.324,379.201 611.684,370.252 C 624.600,352.080 624.539,352.258 622.947,337.531 C 621.395,323.178 621.030,322.672 608.942,318.103 C 604.299,316.348 597.800,313.695 594.500,312.206 C 588.638,309.562 588.052,309.500 569.000,309.500 L 549.500,309.500 L 539.500,314.850 C 534.000,317.793 528.712,320.900 527.750,321.755 C 525.567,323.695 525.464,329.449 527.542,333.432 C 530.368,338.853 539.000,358.784 539.000,359.890 C 539.000,360.492 540.395,362.226 542.101,363.742 C 543.806,365.259 546.272,368.300 547.579,370.500 C 550.711,375.768 560.353,383.831 571.500,390.502 C 583.900,397.923 585.708,397.865 595.064,389.750 Z" fill="#d4526e" stroke="black" stroke-width="0.5" fill-rule="evenodd"/>
</svg>
