<?xml version='1.0' encoding='UTF-8'?>
<svg version="1.1" xmlns="http://www.w3.org/2000/svg" width="1000" height="600" viewBox="0 0 1000 600">
  <path d="M 645.697,271.942 C 648.556,269.173 651.121,266.141 651.398,265.204 C 651.676,264.267 652.388,259.011 652.981,253.524 C 653.911,244.916 654.420,243.171 656.690,240.802 L 659.320,238.056 L 657.001,226.778 C 654.041,212.384 651.828,206.382 647.258,200.347 C 640.660,191.634 638.096,190.430 629.374,191.949 C 620.759,193.449 606.182,201.509 603.577,206.212 C 602.358,208.412 600.526,210.017 598.577,210.592 C 595.738,211.430 595.476,211.887 595.185,216.497 C 594.704,224.129 595.732,227.569 599.950,232.443 C 604.146,237.290 606.489,242.885 605.555,245.825 C 605.171,247.037 606.060,249.042 608.113,251.591 C 609.844,253.741 612.154,257.620 613.247,260.211 C 614.806,263.907 615.953,265.159 618.569,266.023 C 620.403,266.628 624.271,269.346 627.164,272.062 C 631.684,276.305 632.992,276.998 636.462,276.988 C 639.949,276.977 641.210,276.288 645.697,271.942 Z" fill="#d4526e" stroke="black" stroke-width="0.5" fill-rule="evenodd"/>
</svg>
