<?xml version='1.0' encoding='UTF-8'?>
<svg version="1.1" xmlns="http://www.w3.org/2000/svg" width="1000" height="600" viewBox="0 0 1000 600">
  <path d="M 372.282,276.616 C 374.052,275.855 377.288,273.371 379.474,271.095 C 381.711,268.765 385.006,266.537 387.012,265.997 C 390.124,265.159 390.726,264.473 391.769,260.575 C 392.425,258.121 394.278,254.614 395.886,252.783 C 398.016,250.357 398.675,248.752 398.315,246.869 C 397.608,243.169 401.680,234.409 405.616,231.165 C 408.649,228.665 409.006,227.785 409.605,221.341 C 410.209,214.840 410.082,214.109 408.051,212.381 C 406.834,211.347 403.737,208.408 401.169,205.850 C 391.442,196.163 374.787,189.549 366.275,191.993 C 363.568,192.770 361.320,194.578 358.328,198.384 C 353.486,204.543 351.804,208.256 348.446,220.196 C 345.352,231.196 345.336,235.398 348.372,239.946 C 350.152,242.614 351.033,245.988 351.907,253.480 C 352.547,258.968 353.760,264.511 354.602,265.796 C 357.977,270.948 365.201,277.132 368.782,277.937 C 368.937,277.971 370.512,277.377 372.282,276.616 Z" fill="#d4526e" stroke="black" stroke-width="0.5" fill-rule="evenodd"/>
</svg>
