<?xml version='1.0' encoding='UTF-8'?>
<svg version="1.1" xmlns="http://www.w3.org/2000/svg" width="1000" height="600" viewBox="0 0 1000 600">
  <path d="M 371.230,273.551 C 373.714,271.654 376.005,269.429 376.321,268.607 C 376.636,267.785 378.730,266.562 380.974,265.890 C 384.419,264.858 385.368,263.954 387.072,260.084 C 388.183,257.563 390.448,253.804 392.107,251.732 C 394.182,249.140 394.925,247.340 394.489,245.966 C 393.476,242.772 395.936,237.025 400.381,232.203 C 404.375,227.869 404.508,227.503 404.856,219.830 L 405.215,211.924 L 401.247,210.365 C 398.554,209.307 396.777,207.755 395.719,205.537 C 393.764,201.437 380.182,193.802 371.716,192.045 C 364.088,190.461 360.243,191.783 354.919,197.820 C 349.212,204.292 346.600,209.919 344.160,221.000 C 340.419,237.990 340.426,237.792 343.402,240.898 C 345.641,243.235 346.204,245.045 347.034,252.582 C 348.505,265.941 348.733,266.546 354.324,271.962 C 360.918,278.349 364.505,278.686 371.230,273.551 Z" fill="#d4526e" stroke="black" stroke-width="0.5" fill-rule="evenodd"/>
</svg>
