<?xml version='1.0' encoding='UTF-8'?>
<svg version="1.1" xmlns="http://www.w3.org/2000/svg" width="1000" height="600" viewBox="0 0 1000 600">
  <path d="M 528.785,316.560 C 534.442,315.803 540.120,314.496 541.403,313.655 C 542.687,312.814 547.296,310.754 551.646,309.076 C 562.899,304.737 576.854,292.414 578.659,285.224 C 579.576,281.567 578.247,270.018 576.631,267.612 C 575.851,266.451 570.879,260.775 565.582,255.000 C 560.285,249.225 554.171,241.511 551.995,237.859 C 548.630,232.211 546.848,230.454 540.075,226.109 C 533.245,221.727 531.407,221.000 527.169,221.000 C 517.507,221.000 503.886,233.066 500.261,244.836 C 498.784,249.633 498.522,254.557 498.552,277.000 C 498.591,306.080 499.202,310.356 504.004,315.158 C 506.487,317.641 507.582,317.996 512.673,317.968 C 515.878,317.951 523.128,317.317 528.785,316.560 Z" fill="#7e03a7" stroke="black" stroke-width="0.5" fill-rule="evenodd"/>
</svg>
