<?xml version='1.0' encoding='UTF-8'?>
<svg version="1.1" xmlns="http://www.w3.org/2000/svg" width="1000" height="600" viewBox="0 0 1000 600">
  <path d="M 470.897,354.978 C 479.959,353.802 484.909,351.068 491.972,343.340 C 500.323,334.203 500.385,334.054 498.414,328.026 C 496.483,322.124 496.894,313.208 499.432,305.919 C 501.067,301.224 501.451,295.228 500.235,293.390 C 499.831,292.779 497.925,291.429 496.000,290.390 C 490.634,287.493 474.078,287.728 468.282,290.784 C 465.962,292.007 458.466,294.821 451.625,297.037 C 442.153,300.106 438.805,301.649 437.588,303.506 C 436.709,304.848 431.890,310.571 426.879,316.223 C 421.868,321.875 415.908,329.144 413.634,332.376 C 411.360,335.608 408.866,339.121 408.091,340.182 C 406.337,342.584 407.137,343.506 415.177,348.348 C 422.265,352.616 428.506,354.137 442.500,355.008 C 458.967,356.033 462.801,356.029 470.897,354.978 Z" fill="#9b179e" stroke="black" stroke-width="0.5" fill-rule="evenodd"/>
</svg>
