<?xml version='1.0' encoding='UTF-8'?>
<svg version="1.1" xmlns="http://www.w3.org/2000/svg" width="1000" height="600" viewBox="0 0 1000 600">
  <path d="M 466.500,404.462 C 469.800,403.725 479.101,402.665 487.169,402.108 C 509.086,400.593 511.778,398.997 519.472,382.955 C 523.786,373.960 524.301,372.127 524.757,364.126 C 525.410,352.677 524.006,347.036 518.170,337.668 C 515.602,333.544 512.733,328.782 511.797,327.085 C 509.152,322.295 505.253,322.855 490.791,330.105 C 477.594,336.720 456.251,344.394 438.000,349.085 C 431.675,350.711 424.475,353.044 422.000,354.271 C 412.641,358.907 411.598,368.603 419.089,381.335 C 428.854,397.933 427.720,396.978 443.500,401.885 C 449.000,403.595 454.175,405.451 455.000,406.010 C 455.825,406.569 457.400,406.751 458.500,406.415 C 459.600,406.079 463.200,405.200 466.500,404.462 Z" fill="#7e03a7" stroke="black" stroke-width="0.5" fill-rule="evenodd"/>
</svg>
