<?xml version='1.0' encoding='UTF-8'?>
<svg version="1.1" xmlns="http://www.w3.org/2000/svg" width="1000" height="600" viewBox="0 0 1000 600">
  <path d="M 555.500,355.020 C 572.260,353.848 577.530,352.649 584.119,348.510 C 593.950,342.334 593.676,342.646 591.694,339.896 C 584.579,330.030 577.469,321.034 571.497,314.344 C 567.646,310.030 563.562,305.209 562.423,303.632 C 560.778,301.353 557.800,299.885 547.926,296.486 C 541.092,294.133 532.800,291.214 529.500,289.998 C 522.028,287.247 511.079,287.602 503.750,290.834 C 499.283,292.804 499.001,293.154 499.015,296.714 C 499.023,298.797 499.694,302.409 500.507,304.742 C 503.085,312.142 503.514,322.130 501.495,327.744 C 500.345,330.941 500.034,333.236 500.610,334.261 C 502.541,337.696 512.937,348.685 516.767,351.339 C 522.892,355.583 533.305,356.573 555.500,355.020 Z" fill="#9b179e" stroke="black" stroke-width="0.5" fill-rule="evenodd"/>
</svg>
