<?xml version='1.0' encoding='UTF-8'?>
<svg version="1.1" xmlns="http://www.w3.org/2000/svg" width="1000" height="600" viewBox="0 0 1000 600">
  <path d="M 508.201,346.250 C 513.674,340.629 514.989,336.610 514.989,325.500 C 514.988,314.661 513.448,306.028 510.976,303.005 C 509.848,301.627 508.155,299.206 507.213,297.624 C 504.269,292.680 500.874,288.986 497.829,287.412 C 493.051,284.941 479.547,284.455 470.650,286.434 C 464.038,287.905 462.591,288.626 460.236,291.619 C 458.731,293.531 455.925,296.069 454.000,297.260 C 447.371,301.360 440.084,309.037 439.410,312.629 C 438.336,318.355 440.389,320.019 461.194,330.280 C 473.872,336.533 482.704,341.598 486.921,345.035 C 492.415,349.512 493.611,350.099 495.207,349.103 C 496.678,348.184 497.536,348.262 499.259,349.469 C 502.458,351.709 503.115,351.472 508.201,346.250 Z" fill="#a92395" stroke="black" stroke-width="0.5" fill-rule="evenodd"/>
</svg>
