<?xml version='1.0' encoding='UTF-8'?>
<svg version="1.1" xmlns="http://www.w3.org/2000/svg" width="1000" height="600" viewBox="0 0 1000 600">
  <path d="M 496.554,314.901 C 500.232,311.223 500.971,306.953 501.645,285.500 C 502.787,249.160 500.008,238.000 487.180,227.418 C 476.511,218.618 471.881,218.543 459.056,226.963 C 452.667,231.158 450.470,233.277 448.030,237.600 C 446.354,240.570 440.040,248.512 433.999,255.250 C 421.920,268.720 420.511,271.569 421.203,281.125 C 421.541,285.804 422.277,287.645 425.495,291.865 C 430.784,298.800 440.259,306.176 447.500,308.994 C 450.800,310.278 455.300,312.223 457.500,313.315 C 462.611,315.853 476.292,317.931 486.234,317.681 C 493.081,317.509 494.264,317.190 496.554,314.901 Z" fill="#7e03a7" stroke="black" stroke-width="0.5" fill-rule="evenodd"/>
</svg>
