<?xml version='1.0' encoding='UTF-8'?>
<svg version="1.1" xmlns="http://www.w3.org/2000/svg" width="1000" height="600" viewBox="0 0 1000 600">
  <path d="M 579.000,348.000 C 581.651,345.250 584.535,343.000 585.410,343.000 C 587.696,343.000 587.423,341.281 583.514,331.036 C 576.869,313.624 566.732,302.548 549.330,293.687 C 534.597,286.185 528.358,284.589 519.343,286.013 C 507.313,287.914 505.204,288.852 503.865,292.900 C 502.134,298.128 502.379,312.717 504.272,317.171 C 505.868,320.926 525.790,341.890 529.626,343.851 C 530.795,344.448 536.606,346.084 542.539,347.486 C 548.472,348.888 555.166,350.681 557.413,351.470 C 559.661,352.259 564.353,352.926 567.840,352.952 C 574.162,353.000 574.195,352.985 579.000,348.000 Z" fill="#8c0aa4" stroke="black" stroke-width="0.5" fill-rule="evenodd"/>
</svg>
