<?xml version='1.0' encoding='UTF-8'?>
<svg version="1.1" xmlns="http://www.w3.org/2000/svg" width="1000" height="600" viewBox="0 0 1000 600">
  <path d="M 503.285,347.122 C 509.079,341.217 510.005,338.297 509.983,326.007 C 509.950,308.242 505.093,295.349 496.168,289.334 C 492.202,286.661 482.692,285.487 472.688,286.435 C 460.059,287.631 459.238,288.066 446.624,300.253 C 436.738,309.803 434.983,311.961 434.991,314.559 C 435.004,319.057 436.625,320.542 445.628,324.310 C 450.098,326.181 455.273,328.826 457.128,330.188 C 458.982,331.551 463.360,333.873 466.855,335.350 C 474.531,338.592 475.983,339.576 482.653,346.059 C 487.215,350.493 488.087,350.963 489.786,349.901 C 491.357,348.920 492.168,349.004 494.084,350.346 C 495.382,351.256 496.907,351.999 497.473,351.999 C 498.038,351.998 500.653,349.803 503.285,347.122 Z" fill="#a92395" stroke="black" stroke-width="0.5" fill-rule="evenodd"/>
</svg>
