<?xml version='1.0' encoding='UTF-8'?>
<svg version="1.1" xmlns="http://www.w3.org/2000/svg" width="1000" height="600" viewBox="0 0 1000 600">
  <path d="M 539.782,296.417 C 541.827,295.546 549.253,293.525 556.284,291.925 C 571.182,288.535 573.441,287.510 580.065,281.125 C 584.525,276.826 584.999,275.941 584.994,271.934 C 584.991,269.495 584.525,265.829 583.958,263.787 C 581.939,256.520 563.389,234.321 556.249,230.629 C 554.517,229.733 550.715,228.495 547.800,227.877 C 544.885,227.259 540.925,225.965 539.000,225.002 L 535.500,223.250 L 525.500,228.177 C 507.692,236.952 506.500,239.388 506.500,267.000 C 506.500,288.742 507.667,292.988 514.310,295.405 C 522.373,298.339 534.168,298.807 539.782,296.417 Z" fill="#8c0aa4" stroke="black" stroke-width="0.5" fill-rule="evenodd"/>
</svg>
