<?xml version='1.0' encoding='UTF-8'?>
<svg version="1.1" xmlns="http://www.w3.org/2000/svg" width="1000" height="600" viewBox="0 0 1000 600">
  <path d="M 460.408,379.498 C 461.893,378.122 464.375,376.340 465.924,375.539 C 467.473,374.738 470.817,371.773 473.355,368.950 C 476.932,364.972 478.426,362.208 480.000,356.659 C 481.116,352.721 483.336,346.125 484.933,342.000 C 488.725,332.201 489.332,327.840 488.035,319.717 C 486.604,310.761 485.476,308.599 481.153,306.529 C 476.839,304.463 461.601,299.000 460.155,299.000 C 459.602,299.000 458.104,300.775 456.825,302.945 C 455.546,305.114 451.491,311.148 447.814,316.352 C 444.136,321.557 439.952,327.994 438.514,330.657 C 437.077,333.321 432.998,339.756 429.451,344.958 C 422.758,354.769 422.028,357.220 424.418,361.842 C 425.789,364.493 442.065,380.431 444.367,381.377 C 444.990,381.633 448.247,381.878 451.604,381.921 C 456.792,381.988 458.113,381.625 460.408,379.498 Z" fill="#9b179e" stroke="black" stroke-width="0.5" fill-rule="evenodd"/>
</svg>
