<?xml version='1.0' encoding='UTF-8'?>
<svg version="1.1" xmlns="http://www.w3.org/2000/svg" width="1000" height="600" viewBox="0 0 1000 600">
  <path d="M 500.741,349.469 C 502.536,348.212 503.287,348.162 504.936,349.192 C 506.690,350.287 507.360,350.054 510.222,347.350 C 516.041,341.854 524.150,336.959 541.000,328.771 C 550.075,324.361 558.288,320.064 559.250,319.222 C 561.366,317.370 561.496,313.860 559.587,310.169 C 558.046,307.189 548.657,298.000 547.153,298.000 C 546.640,298.000 543.757,295.576 540.747,292.613 C 535.611,287.559 534.820,287.150 527.916,285.986 C 518.878,284.461 507.237,285.227 502.257,287.674 C 500.213,288.678 497.088,291.525 495.314,294.000 C 493.540,296.475 490.971,299.880 489.606,301.567 C 486.292,305.660 484.621,315.673 485.209,327.899 C 485.728,338.679 486.485,340.684 492.325,346.750 C 496.855,351.456 497.573,351.688 500.741,349.469 Z" fill="#a92395" stroke="black" stroke-width="0.5" fill-rule="evenodd"/>
</svg>
