<?xml version='1.0' encoding='UTF-8'?>
<svg version="1.1" xmlns="http://www.w3.org/2000/svg" width="1000" height="600" viewBox="0 0 1000 600">
  <path d="M 429.249,404.750 C 445.507,396.098 446.870,393.199 447.719,365.473 C 448.354,344.763 447.258,338.537 442.110,333.605 C 439.334,330.946 438.712,330.791 432.279,331.154 C 425.959,331.511 424.538,332.053 414.456,337.946 C 406.533,342.576 401.424,346.460 396.000,351.972 C 391.875,356.165 386.587,361.279 384.250,363.338 L 380.000,367.081 L 380.004,375.290 C 380.008,384.915 380.895,386.790 389.670,395.716 C 397.432,403.611 408.019,409.000 415.766,409.000 C 420.313,409.000 422.642,408.266 429.249,404.750 Z" fill="#fdb32e" stroke="black" stroke-width="0.5" fill-rule="evenodd"/>
</svg>
