<?xml version='1.0' encoding='UTF-8'?>
<svg version="1.1" xmlns="http://www.w3.org/2000/svg" width="1000" height="600" viewBox="0 0 1000 600">
  <path d="M 535.102,316.625 C 541.188,315.814 545.948,314.586 548.102,313.270 C 549.971,312.129 554.424,309.973 557.998,308.480 C 564.989,305.560 576.250,296.385 581.171,289.600 C 584.419,285.122 584.778,280.903 582.543,273.475 C 581.455,269.861 579.342,266.841 574.210,261.566 C 566.716,253.863 558.479,242.950 555.096,236.239 C 553.462,232.997 550.947,230.647 544.575,226.406 C 532.328,218.256 527.833,218.583 515.646,228.511 C 508.477,234.350 505.303,240.430 503.872,251.062 C 502.539,260.968 503.263,304.076 504.844,308.925 C 505.458,310.808 507.179,313.621 508.667,315.175 C 511.149,317.765 511.961,317.996 518.437,317.952 C 522.322,317.925 529.821,317.328 535.102,316.625 Z" fill="#7e03a7" stroke="black" stroke-width="0.5" fill-rule="evenodd"/>
</svg>
