<?xml version='1.0' encoding='UTF-8'?>
<svg version="1.1" xmlns="http://www.w3.org/2000/svg" width="1000" height="600" viewBox="0 0 1000 600">
  <path d="M 459.988,415.504 C 462.267,414.700 465.516,413.057 467.207,411.853 L 470.281,409.664 L 469.585,394.715 C 468.816,378.194 465.906,353.755 463.918,347.120 C 461.785,340.002 454.115,334.568 435.500,326.988 C 431.100,325.196 426.645,322.924 425.600,321.938 C 423.766,320.207 423.600,320.246 420.774,323.073 C 419.163,324.683 416.891,326.000 415.724,326.000 C 412.585,326.000 404.444,335.194 402.165,341.312 C 399.150,349.404 396.703,361.805 397.325,365.838 C 399.115,377.456 402.362,389.897 404.756,394.308 C 410.557,404.999 422.325,413.699 435.000,416.668 C 441.519,418.195 454.010,417.613 459.988,415.504 Z" fill="#beaed4" stroke="black" stroke-width="0.5" fill-rule="evenodd"/>
</svg>
