<?xml version='1.0' encoding='UTF-8'?>
<svg version="1.1" xmlns="http://www.w3.org/2000/svg" width="1000" height="600" viewBox="0 0 1000 600">
  <path d="M 564.596,267.694 C 566.193,266.861 568.695,264.901 570.155,263.339 C 572.778,260.535 572.794,260.427 571.500,254.500 C 569.302,244.432 566.840,235.631 565.487,233.000 C 561.836,225.903 545.789,214.667 536.897,212.980 C 522.087,210.172 507.645,218.823 499.445,235.415 C 496.029,242.326 495.795,243.372 496.173,250.055 C 496.540,256.545 496.862,257.478 499.446,259.539 C 503.198,262.530 511.160,264.690 523.473,266.054 C 528.958,266.662 536.383,267.775 539.973,268.527 C 547.913,270.189 560.641,269.759 564.596,267.694 Z" fill="#beaed4" stroke="black" stroke-width="0.5" fill-rule="evenodd"/>
</svg>
