<?xml version='1.0' encoding='UTF-8'?>
<svg version="1.1" xmlns="http://www.w3.org/2000/svg" width="1000" height="600" viewBox="0 0 1000 600">
  <path d="M 570.328,408.628 C 582.126,402.855 592.007,388.922 593.981,375.273 C 596.396,358.571 594.942,347.518 588.618,334.500 C 582.940,322.813 579.132,317.751 574.366,315.562 C 572.240,314.585 568.824,312.655 566.776,311.275 L 563.052,308.764 L 553.466,316.632 C 548.194,320.959 543.007,325.117 541.940,325.872 C 540.873,326.627 540.000,328.107 540.000,329.162 C 540.000,330.217 539.049,332.943 537.887,335.221 C 536.725,337.498 535.177,342.768 534.447,346.931 C 533.717,351.094 532.418,356.173 531.560,358.218 C 529.263,363.692 529.633,374.328 532.588,387.746 C 534.012,394.211 535.389,400.625 535.649,402.000 C 535.909,403.375 536.313,405.456 536.548,406.623 C 536.942,408.586 539.541,410.144 544.500,411.390 C 545.600,411.667 550.640,411.756 555.700,411.588 C 563.231,411.339 565.884,410.802 570.328,408.628 Z" fill="#beaed4" stroke="black" stroke-width="0.5" fill-rule="evenodd"/>
</svg>
