<?xml version='1.0' encoding='UTF-8'?>
<svg version="1.1" xmlns="http://www.w3.org/2000/svg" width="1000" height="600" viewBox="0 0 1000 600">
  <path d="M 544.084,368.352 C 547.338,365.796 550.001,363.434 550.001,363.102 C 550.002,362.771 552.693,359.209 555.981,355.186 C 563.362,346.156 568.461,335.977 567.510,332.171 C 567.117,330.598 562.455,325.301 556.171,319.287 C 545.942,309.497 545.355,309.099 542.000,309.687 C 536.795,310.600 519.608,315.604 517.135,316.928 C 515.952,317.561 512.743,318.174 510.004,318.289 C 505.534,318.478 505.086,318.704 505.626,320.500 C 506.232,322.517 509.269,328.703 521.336,352.500 C 527.947,365.537 533.479,373.000 536.533,373.000 C 537.433,373.000 540.831,370.909 544.084,368.352 Z" fill="#f0027f" stroke="black" stroke-width="0.5" fill-rule="evenodd"/>
</svg>
