<?xml version='1.0' encoding='UTF-8'?>
<svg version="1.1" xmlns="http://www.w3.org/2000/svg" width="1000" height="600" viewBox="0 0 1000 600">
  <path d="M 549.823,402.375 C 562.617,394.907 566.472,391.074 574.157,378.178 C 584.893,360.163 586.865,356.026 586.937,351.374 C 587.008,346.700 583.605,338.362 579.343,332.771 C 575.623,327.891 566.476,322.474 560.595,321.668 C 558.023,321.316 554.925,320.464 553.710,319.776 C 552.494,319.088 549.925,318.445 548.000,318.347 C 546.075,318.249 540.161,317.847 534.859,317.454 C 525.432,316.755 525.184,316.792 523.705,319.119 C 522.873,320.429 521.876,323.525 521.489,326.000 C 521.103,328.475 519.927,332.525 518.877,335.001 C 516.304,341.067 514.172,354.868 515.235,358.578 C 515.695,360.185 516.418,369.182 516.841,378.572 C 517.537,394.016 517.826,395.947 519.875,398.824 C 523.788,404.319 528.759,406.126 538.323,405.530 C 543.413,405.212 546.335,404.411 549.823,402.375 Z" fill="#f0027f" stroke="black" stroke-width="0.5" fill-rule="evenodd"/>
</svg>
