<?xml version='1.0' encoding='UTF-8'?>
<svg version="1.1" xmlns="http://www.w3.org/2000/svg" width="1000" height="600" viewBox="0 0 1000 600">
  <path d="M 519.781,412.068 C 525.281,411.431 528.062,410.525 531.150,408.362 C 533.399,406.788 536.309,404.825 537.618,404.000 C 539.358,402.903 539.997,401.591 539.998,399.116 C 539.999,397.255 540.502,394.056 541.116,392.007 C 542.014,389.011 541.836,385.950 540.209,376.390 C 539.097,369.851 537.413,358.650 536.468,351.500 C 535.523,344.350 534.244,337.390 533.625,336.034 C 530.393,328.950 521.949,324.157 503.944,319.186 L 497.388,317.376 L 491.444,320.047 C 484.694,323.080 480.224,327.107 479.391,330.907 C 479.078,332.333 478.187,336.124 477.411,339.331 C 476.635,342.538 476.000,347.491 476.000,350.337 C 476.000,353.184 475.524,357.085 474.942,359.007 C 474.360,360.928 473.700,365.982 473.475,370.237 C 473.248,374.523 472.364,379.329 471.494,381.012 C 470.077,383.751 470.074,384.268 471.461,386.248 C 472.415,387.610 473.000,390.640 473.000,394.220 C 473.000,399.467 473.336,400.366 476.675,404.062 C 480.966,408.812 484.936,411.109 490.500,412.064 C 496.246,413.049 511.296,413.052 519.781,412.068 Z" fill="#fdc086" stroke="black" stroke-width="0.5" fill-rule="evenodd"/>
</svg>
