<?xml version='1.0' encoding='UTF-8'?>
<svg version="1.1" xmlns="http://www.w3.org/2000/svg" width="1000" height="600" viewBox="0 0 1000 600">
  <path d="M 435.869,391.039 C 443.539,389.930 451.924,386.009 456.579,381.355 C 459.527,378.406 460.000,377.267 460.000,373.116 C 460.000,370.466 459.486,366.769 458.858,364.899 C 457.299,360.258 444.766,342.732 441.455,340.562 C 439.979,339.595 434.267,337.906 428.762,336.809 C 419.889,335.040 417.508,334.936 407.770,335.891 C 390.776,337.557 386.424,340.744 382.968,354.055 C 380.217,364.648 380.413,368.683 383.952,374.263 C 387.955,380.575 393.813,384.569 403.435,387.547 C 416.418,391.566 425.479,392.541 435.869,391.039 Z" fill="#7fc97f" stroke="black" stroke-width="0.5" fill-rule="evenodd"/>
</svg>
