<?xml version='1.0' encoding='UTF-8'?>
<svg version="1.1" xmlns="http://www.w3.org/2000/svg" width="1000" height="600" viewBox="0 0 1000 600">
  <path d="M 436.815,408.235 C 441.388,407.167 446.338,405.403 447.815,404.315 C 452.023,401.214 453.791,394.181 454.942,375.959 C 455.893,360.894 455.819,359.124 453.921,351.691 C 451.000,340.251 447.888,334.866 436.739,321.966 C 433.166,317.832 432.692,317.607 427.239,317.455 C 414.303,317.095 404.001,328.439 395.823,352.050 C 392.842,360.657 392.547,362.571 392.525,373.500 C 392.500,385.329 392.550,385.592 395.986,391.931 C 400.023,399.379 404.467,404.028 411.500,408.159 C 415.912,410.750 417.206,411.042 422.500,410.636 C 425.800,410.382 432.242,409.302 436.815,408.235 Z" fill="#7fc97f" stroke="black" stroke-width="0.5" fill-rule="evenodd"/>
</svg>
