<?xml version='1.0' encoding='UTF-8'?>
<svg version="1.1" xmlns="http://www.w3.org/2000/svg" width="1000" height="600" viewBox="0 0 1000 600">
  <path d="M 596.027,388.999 C 611.030,386.924 617.034,385.243 623.000,381.446 C 632.416,375.453 636.297,367.658 634.920,357.505 C 633.990,350.658 629.633,340.981 625.844,337.349 C 623.161,334.777 622.222,334.507 616.186,334.571 C 608.119,334.656 590.068,338.302 580.635,341.752 C 572.179,344.844 567.875,348.512 564.423,355.567 C 562.020,360.479 561.837,361.641 562.502,367.749 C 562.907,371.462 563.297,376.742 563.369,379.481 C 563.496,384.305 563.643,384.541 568.000,386.946 C 570.475,388.312 574.300,389.726 576.500,390.089 C 578.700,390.453 580.737,390.806 581.027,390.875 C 581.317,390.944 588.067,390.099 596.027,388.999 Z" fill="#7fc97f" stroke="black" stroke-width="0.5" fill-rule="evenodd"/>
</svg>
