<?xml version='1.0' encoding='UTF-8'?>
<svg version="1.1" xmlns="http://www.w3.org/2000/svg" width="1000" height="600" viewBox="0 0 1000 600">
  <path d="M 431.075,387.328 L 436.650,384.884 L 436.691,379.692 C 436.714,376.836 437.058,371.721 437.456,368.325 C 438.094,362.872 437.865,361.449 435.497,356.173 C 434.022,352.887 431.619,349.053 430.158,347.655 C 425.939,343.620 416.816,339.998 405.740,337.962 C 400.108,336.926 393.928,335.611 392.007,335.040 C 387.175,333.602 381.558,333.740 377.600,335.394 C 367.835,339.474 361.506,360.231 366.839,370.685 C 372.187,381.167 381.693,386.153 401.500,388.863 C 417.543,391.058 423.245,390.762 431.075,387.328 Z" fill="#7fc97f" stroke="black" stroke-width="0.5" fill-rule="evenodd"/>
</svg>
