<?xml version='1.0' encoding='UTF-8'?>
<svg version="1.1" xmlns="http://www.w3.org/2000/svg" width="1000" height="600" viewBox="0 0 1000 600">
  <path d="M 493.500,407.969 C 503.696,406.362 508.118,405.137 514.000,402.292 C 522.843,398.015 527.519,394.754 529.174,391.709 C 531.161,388.052 531.846,379.762 531.022,369.347 C 530.342,360.753 529.824,358.800 526.954,354.000 C 520.939,343.941 519.314,341.938 512.831,336.591 C 503.221,328.664 503.475,328.742 492.646,330.353 C 482.792,331.820 477.242,334.201 466.000,341.788 C 457.932,347.233 456.992,350.661 455.932,378.497 C 455.206,397.563 455.299,400.807 456.631,402.841 C 459.329,406.958 471.714,411.335 478.000,410.393 C 479.375,410.187 486.350,409.097 493.500,407.969 Z" fill="#666666" stroke="black" stroke-width="0.5" fill-rule="evenodd"/>
</svg>
