<?xml version='1.0' encoding='UTF-8'?>
<svg version="1.1" xmlns="http://www.w3.org/2000/svg" width="1000" height="600" viewBox="0 0 1000 600">
  <path d="M 440.800,334.589 C 443.874,332.983 448.219,328.545 449.878,325.316 C 451.259,322.627 451.302,308.708 449.968,296.000 C 449.215,288.823 448.522,286.133 447.133,285.000 C 446.123,284.175 443.894,280.995 442.180,277.934 C 438.361,271.113 436.519,269.435 431.952,268.619 C 425.638,267.491 419.236,269.367 414.828,273.638 C 409.818,278.492 400.690,292.316 396.406,301.537 C 392.096,310.812 389.141,324.820 390.749,328.349 C 393.172,333.666 395.953,334.453 414.451,335.056 C 423.828,335.362 432.985,335.699 434.800,335.806 C 436.614,335.913 439.314,335.365 440.800,334.589 Z" fill="#666666" stroke="black" stroke-width="0.5" fill-rule="evenodd"/>
</svg>
