<?xml version='1.0' encoding='UTF-8'?>
<svg version="1.1" xmlns="http://www.w3.org/2000/svg" width="1000" height="600" viewBox="0 0 1000 600">
  <path d="M 525.494,343.891 C 531.204,343.191 535.448,342.105 537.116,340.917 C 540.318,338.637 560.145,313.885 561.400,310.600 C 562.142,308.658 561.572,307.207 558.148,302.327 C 551.476,292.814 541.695,286.514 522.500,279.363 C 511.954,275.434 510.828,275.365 500.410,278.004 C 489.321,280.813 487.067,281.886 486.362,284.692 C 486.026,286.033 483.561,289.689 480.884,292.815 L 476.018,298.500 L 476.014,307.500 C 476.013,312.450 476.464,318.131 477.018,320.125 C 478.101,324.023 484.506,330.447 492.123,335.274 C 494.530,336.799 497.651,338.960 499.058,340.075 C 502.404,342.728 508.616,344.902 513.000,344.953 C 514.925,344.976 520.547,344.498 525.494,343.891 Z" fill="#386cb0" stroke="black" stroke-width="0.5" fill-rule="evenodd"/>
</svg>
