<?xml version='1.0' encoding='UTF-8'?>
<svg version="1.1" xmlns="http://www.w3.org/2000/svg" width="1000" height="600" viewBox="0 0 1000 600">
  <path d="M 519.995,307.505 C 522.050,305.645 550.200,298.468 559.000,297.560 C 575.171,295.892 583.939,292.242 587.454,285.715 C 589.065,282.723 589.125,281.520 588.063,273.449 C 587.398,268.392 585.820,262.156 584.435,259.111 C 580.672,250.839 572.227,240.163 565.570,235.262 C 559.972,231.141 559.220,230.871 554.531,231.287 C 548.154,231.854 533.356,237.681 529.010,241.338 C 527.185,242.874 522.724,245.657 519.096,247.524 C 515.468,249.391 511.788,251.949 510.917,253.209 C 506.523,259.569 505.813,269.539 509.067,279.199 C 510.204,282.573 511.403,287.621 511.733,290.417 C 512.062,293.213 513.377,297.750 514.656,300.500 C 515.934,303.250 516.985,306.288 516.990,307.250 C 517.002,309.393 517.831,309.463 519.995,307.505 Z" fill="#bf5b16" stroke="black" stroke-width="0.5" fill-rule="evenodd"/>
</svg>
