<?xml version='1.0' encoding='UTF-8'?>
<svg version="1.1" xmlns="http://www.w3.org/2000/svg" width="1000" height="600" viewBox="0 0 1000 600">
  <path d="M 609.175,336.600 C 611.196,335.878 614.683,333.835 616.925,332.060 C 620.694,329.074 621.000,328.466 621.000,323.951 C 621.000,321.266 620.274,316.932 619.387,314.320 C 615.823,303.823 605.130,282.135 600.931,276.888 L 596.500,271.352 L 587.000,271.467 C 577.526,271.582 577.483,271.593 571.283,275.856 C 564.466,280.543 565.005,279.265 563.135,295.150 C 562.535,300.241 560.860,307.029 559.063,311.650 C 555.502,320.805 555.276,324.301 557.965,328.710 C 559.951,331.967 566.046,335.728 571.500,337.062 C 576.876,338.376 605.172,338.029 609.175,336.600 Z" fill="#666666" stroke="black" stroke-width="0.5" fill-rule="evenodd"/>
</svg>
