<?xml version='1.0' encoding='UTF-8'?>
<svg version="1.1" xmlns="http://www.w3.org/2000/svg" width="1000" height="600" viewBox="0 0 1000 600">
  <path d="M 599.913,334.371 C 605.410,333.695 610.000,329.539 610.000,325.237 C 610.000,321.006 606.379,307.504 603.659,301.590 C 600.114,293.884 588.769,276.998 584.185,272.606 C 580.270,268.855 579.865,268.710 573.078,268.648 C 564.395,268.569 561.826,270.180 557.343,278.519 C 555.606,281.748 553.446,284.932 552.542,285.593 C 549.393,287.896 547.678,318.907 550.347,325.282 C 551.088,327.052 553.523,330.150 555.758,332.167 L 559.822,335.834 L 577.661,335.374 C 587.472,335.121 597.486,334.670 599.913,334.371 Z" fill="#666666" stroke="black" stroke-width="0.5" fill-rule="evenodd"/>
</svg>
