<?xml version='1.0' encoding='UTF-8'?>
<svg version="1.1" xmlns="http://www.w3.org/2000/svg" width="1000" height="600" viewBox="0 0 1000 600">
  <path d="M 469.229,295.412 C 470.595,294.382 473.464,291.116 475.606,288.153 C 477.748,285.191 480.807,281.741 482.405,280.487 C 484.950,278.489 485.304,277.574 485.266,273.089 C 485.242,270.275 484.915,265.920 484.539,263.412 C 483.722,257.965 478.826,245.570 476.457,242.952 C 472.159,238.203 448.294,224.091 441.000,221.985 C 437.532,220.984 425.811,227.141 420.147,232.939 C 410.774,242.535 401.392,259.135 400.321,268.019 C 399.819,272.185 400.103,272.951 403.970,277.842 C 411.258,287.063 419.882,291.074 439.586,294.407 C 444.584,295.252 449.759,296.405 451.086,296.970 C 454.887,298.586 466.322,297.605 469.229,295.412 Z" fill="#bf5b16" stroke="black" stroke-width="0.5" fill-rule="evenodd"/>
</svg>
