<?xml version='1.0' encoding='UTF-8'?>
<svg version="1.1" xmlns="http://www.w3.org/2000/svg" width="1000" height="600" viewBox="0 0 1000 600">
  <path d="M 490.371,409.495 C 494.378,408.667 502.884,407.341 509.274,406.549 C 515.663,405.756 522.220,404.420 523.845,403.580 C 527.670,401.602 534.202,393.968 533.541,392.247 C 532.429,389.349 531.911,368.957 532.716,359.750 C 533.298,353.097 533.237,350.000 532.524,350.000 C 530.977,350.000 526.563,345.647 524.150,341.742 C 520.668,336.108 515.861,334.590 503.752,335.299 C 492.811,335.940 480.411,338.333 475.500,340.751 C 466.300,345.281 463.256,351.307 459.061,373.301 C 455.701,390.908 456.570,399.645 462.298,405.864 C 467.162,411.145 476.521,412.356 490.371,409.495 Z" fill="#666666" stroke="black" stroke-width="0.5" fill-rule="evenodd"/>
</svg>
