<?xml version='1.0' encoding='UTF-8'?>
<svg version="1.1" xmlns="http://www.w3.org/2000/svg" width="1000" height="600" viewBox="0 0 1000 600">
  <path d="M 472.904,362.550 C 476.010,360.944 484.996,351.479 488.604,346.014 C 490.156,343.663 491.450,339.222 492.514,332.593 C 493.389,327.144 494.685,321.294 495.395,319.593 C 497.420,314.741 498.077,309.756 497.128,306.446 C 495.809,301.847 484.510,286.625 480.196,283.636 C 475.072,280.085 468.890,280.150 457.882,283.871 C 449.015,286.868 439.191,292.322 430.213,299.231 C 418.702,308.090 409.199,321.211 411.187,325.500 C 412.377,328.068 422.277,335.498 432.500,341.497 C 436.900,344.078 443.425,348.575 447.000,351.488 C 455.300,358.253 464.847,363.994 467.800,363.997 C 469.064,363.999 471.361,363.347 472.904,362.550 Z" fill="#bf5b16" stroke="black" stroke-width="0.5" fill-rule="evenodd"/>
</svg>
