<?xml version='1.0' encoding='UTF-8'?>
<svg version="1.1" xmlns="http://www.w3.org/2000/svg" width="1000" height="600" viewBox="0 0 1000 600">
  <path d="M 684.356,433.802 C 686.635,432.043 690.353,428.938 692.618,426.903 C 694.883,424.867 700.058,421.602 704.118,419.647 C 711.970,415.865 720.105,408.581 721.943,403.685 C 724.652,396.470 721.750,388.127 715.463,385.050 C 711.410,383.066 688.875,382.371 680.711,383.977 C 672.891,385.516 670.176,386.938 663.886,392.788 C 658.851,397.471 658.824,397.529 659.455,402.327 C 660.108,407.296 663.297,412.739 673.207,425.802 C 675.837,429.268 678.264,433.205 678.602,434.552 C 678.940,435.898 679.441,437.000 679.715,437.000 C 679.988,437.000 682.077,435.561 684.356,433.802 Z" fill="#fad524" stroke="black" stroke-width="0.5" fill-rule="evenodd"/>
</svg>
