<?xml version='1.0' encoding='UTF-8'?>
<svg version="1.1" xmlns="http://www.w3.org/2000/svg" width="1000" height="600" viewBox="0 0 1000 600">
  <path d="M 594.023,509.057 C 600.777,502.198 601.986,498.975 601.994,487.815 C 602.001,478.267 601.423,476.751 594.107,467.140 C 583.295,452.937 577.841,449.664 561.856,447.789 C 550.533,446.460 535.342,447.738 530.076,450.461 C 528.343,451.357 526.196,453.619 525.304,455.488 C 523.805,458.633 523.810,459.213 525.374,463.309 C 526.303,465.743 529.555,471.056 532.600,475.117 C 535.645,479.178 539.764,485.200 541.753,488.500 C 550.196,502.505 553.134,504.847 569.360,510.498 C 586.231,516.374 586.855,516.337 594.023,509.057 Z" fill="#fba337" stroke="black" stroke-width="0.5" fill-rule="evenodd"/>
</svg>
