<?xml version='1.0' encoding='UTF-8'?>
<svg version="1.1" xmlns="http://www.w3.org/2000/svg" width="1000" height="600" viewBox="0 0 1000 600">
  <path d="M 626.625,277.124 C 628.344,276.622 632.281,273.639 635.375,270.496 C 640.979,264.802 641.000,264.757 640.996,258.640 C 640.992,251.341 640.078,249.664 630.043,238.538 C 623.193,230.945 613.000,216.831 613.000,214.942 C 613.000,212.815 606.829,211.000 599.597,211.000 C 592.749,211.000 591.418,211.357 584.325,215.092 C 574.673,220.176 569.784,223.999 566.814,228.788 C 564.892,231.887 564.522,233.822 564.575,240.500 C 564.610,244.900 565.178,250.377 565.837,252.672 C 567.327,257.861 573.552,265.404 581.809,272.027 C 586.947,276.148 589.174,277.255 593.809,277.992 C 600.389,279.040 622.026,278.467 626.625,277.124 Z" fill="#fba337" stroke="black" stroke-width="0.5" fill-rule="evenodd"/>
</svg>
