<?xml version='1.0' encoding='UTF-8'?>
<svg version="1.1" xmlns="http://www.w3.org/2000/svg" width="1000" height="600" viewBox="0 0 1000 600">
  <path d="M 686.030,383.485 C 687.642,382.651 693.271,381.102 698.539,380.042 C 714.794,376.772 717.924,373.596 716.218,362.102 C 714.962,353.640 706.704,334.894 700.943,327.427 C 694.405,318.952 685.664,312.239 674.146,306.847 C 668.452,304.181 663.002,302.000 662.036,302.000 C 658.251,302.000 646.747,311.485 642.777,317.878 C 640.355,321.777 639.940,330.006 641.830,336.622 C 643.090,341.030 648.651,348.369 661.529,362.617 C 665.945,367.503 671.247,374.282 673.311,377.683 C 677.824,385.119 680.505,386.342 686.030,383.485 Z" fill="#e56c5b" stroke="black" stroke-width="0.5" fill-rule="evenodd"/>
</svg>
