<?xml version='1.0' encoding='UTF-8'?>
<svg version="1.1" xmlns="http://www.w3.org/2000/svg" width="1000" height="600" viewBox="0 0 1000 600">
  <path d="M 568.217,223.308 C 578.224,214.422 582.988,209.274 584.456,205.758 C 585.266,203.820 586.375,196.733 586.919,190.011 C 587.554,182.172 588.460,176.946 589.446,175.441 C 590.924,173.186 590.806,172.928 586.406,168.797 C 583.889,166.434 581.122,164.101 580.259,163.613 C 578.400,162.563 559.791,163.423 557.800,164.651 C 557.042,165.118 554.318,167.780 551.745,170.567 L 547.068,175.634 L 545.445,188.067 C 543.181,205.398 544.571,213.771 550.734,219.934 C 552.255,221.455 554.309,223.892 555.297,225.350 C 558.116,229.509 561.909,228.909 568.217,223.308 Z" fill="#ec7853" stroke="black" stroke-width="0.5" fill-rule="evenodd"/>
</svg>
