<?xml version='1.0' encoding='UTF-8'?>
<svg version="1.1" xmlns="http://www.w3.org/2000/svg" width="1000" height="600" viewBox="0 0 1000 600">
  <path d="M 320.829,383.910 C 323.036,383.140 324.861,381.238 327.031,377.446 C 328.722,374.490 334.020,367.715 338.803,362.390 C 351.014,348.797 356.745,341.302 358.132,337.110 C 360.016,331.419 359.616,323.077 357.241,318.500 C 353.888,312.039 342.493,302.000 338.513,302.000 C 337.293,302.000 331.616,304.220 325.897,306.933 C 307.484,315.670 297.343,326.211 289.160,345.123 C 279.735,366.904 281.547,376.222 295.740,378.969 C 306.416,381.036 310.489,382.110 313.000,383.523 C 316.068,385.248 316.875,385.288 320.829,383.910 Z" fill="#e56c5b" stroke="black" stroke-width="0.5" fill-rule="evenodd"/>
</svg>
