<?xml version='1.0' encoding='UTF-8'?>
<svg version="1.1" xmlns="http://www.w3.org/2000/svg" width="1000" height="600" viewBox="0 0 1000 600">
  <path d="M 432.490,171.004 C 436.070,169.643 442.997,163.720 448.604,157.225 C 452.594,152.604 453.461,150.799 454.624,144.694 C 455.575,139.704 456.715,136.831 458.419,135.127 L 460.854,132.692 L 457.677,128.627 C 446.306,114.081 433.072,105.559 421.793,105.520 C 416.398,105.501 415.844,105.737 411.678,109.825 C 406.350,115.054 404.964,119.196 404.266,131.972 C 403.891,138.845 404.185,143.209 405.323,147.634 C 406.926,153.872 415.936,170.407 418.237,171.333 C 420.492,172.242 429.800,172.027 432.490,171.004 Z" fill="#e56c5b" stroke="black" stroke-width="0.5" fill-rule="evenodd"/>
</svg>
