<?xml version='1.0' encoding='UTF-8'?>
<svg version="1.1" xmlns="http://www.w3.org/2000/svg" width="1000" height="600" viewBox="0 0 1000 600">
  <path d="M 594.766,418.014 C 599.020,416.357 606.766,413.538 611.980,411.750 C 623.271,407.879 624.314,406.588 623.668,397.290 C 623.151,389.840 620.441,384.750 612.326,375.985 C 603.755,366.728 599.677,364.720 589.711,364.849 C 585.215,364.907 579.221,365.435 576.390,366.023 L 571.244,367.091 L 567.037,375.796 C 564.724,380.583 562.081,385.335 561.165,386.355 C 559.822,387.851 559.500,390.366 559.500,399.355 C 559.500,413.322 560.502,415.989 566.813,418.818 C 569.391,419.973 572.400,421.136 573.500,421.401 C 577.753,422.429 587.365,420.898 594.766,418.014 Z" fill="#eff821" stroke="black" stroke-width="0.5" fill-rule="evenodd"/>
</svg>
