<?xml version='1.0' encoding='UTF-8'?>
<svg version="1.1" xmlns="http://www.w3.org/2000/svg" width="1000" height="600" viewBox="0 0 1000 600">
  <path d="M 410.302,314.807 C 415.143,309.688 420.176,303.475 421.485,301.000 C 422.794,298.525 427.266,292.030 431.422,286.566 C 439.260,276.262 440.720,272.650 439.556,266.444 C 438.357,260.054 437.131,259.549 419.370,258.122 C 398.705,256.463 393.610,257.635 390.936,264.667 C 390.443,265.964 388.876,267.555 387.453,268.203 C 385.477,269.104 385.017,269.867 385.503,271.441 C 386.595,274.974 388.911,296.179 388.956,303.066 C 389.014,311.788 390.785,321.064 392.826,323.342 C 394.059,324.718 395.366,325.049 397.988,324.649 C 400.816,324.218 403.214,322.301 410.302,314.807 Z" fill="#0c0786" stroke="black" stroke-width="0.5" fill-rule="evenodd"/>
</svg>
