<?xml version='1.0' encoding='UTF-8'?>
<svg version="1.1" xmlns="http://www.w3.org/2000/svg" width="1000" height="600" viewBox="0 0 1000 600">
  <path d="M 471.900,527.928 C 474.649,527.338 478.780,525.494 481.078,523.828 C 483.377,522.163 488.206,519.478 491.809,517.861 C 504.424,512.202 511.471,505.837 526.891,486.181 C 532.185,479.432 533.537,475.056 532.197,469.000 C 531.153,464.281 526.661,462.744 513.500,462.605 L 503.500,462.500 L 489.622,468.938 C 475.060,475.693 472.918,477.311 464.000,488.291 C 457.754,495.982 456.042,500.891 455.908,511.504 C 455.797,520.257 458.052,526.480 461.837,527.867 C 465.397,529.171 466.087,529.175 471.900,527.928 Z" fill="#0c0786" stroke="black" stroke-width="0.5" fill-rule="evenodd"/>
</svg>
