<?xml version='1.0' encoding='UTF-8'?>
<svg version="1.1" xmlns="http://www.w3.org/2000/svg" width="1000" height="600" viewBox="0 0 1000 600">
  <path d="M 612.612,424.901 C 614.751,423.196 618.103,420.980 620.061,419.977 C 626.333,416.763 631.540,410.261 637.574,398.108 C 642.609,387.969 643.324,385.804 643.226,381.000 C 643.165,377.975 642.510,373.475 641.772,371.000 C 640.482,366.676 640.068,366.319 631.224,361.873 L 622.019,357.246 L 612.260,370.819 C 599.998,387.870 599.487,388.847 597.098,399.794 C 596.016,404.753 593.927,411.183 592.457,414.085 L 589.784,419.360 L 594.642,423.641 C 598.836,427.338 600.130,427.928 604.112,427.962 C 607.802,427.992 609.503,427.379 612.612,424.901 Z" fill="#4c02a1" stroke="black" stroke-width="0.5" fill-rule="evenodd"/>
</svg>
