<?xml version='1.0' encoding='UTF-8'?>
<svg version="1.1" xmlns="http://www.w3.org/2000/svg" width="1000" height="600" viewBox="0 0 1000 600">
  <path d="M 617.847,419.113 C 619.688,417.800 624.607,415.452 628.779,413.896 C 637.419,410.673 646.000,403.369 646.000,399.238 C 646.000,392.718 638.957,385.940 629.270,383.139 C 617.604,379.765 612.631,378.204 608.500,376.621 C 604.577,375.117 594.898,374.435 593.752,375.581 C 593.432,375.901 594.257,377.764 595.585,379.721 C 597.383,382.370 598.000,384.626 598.000,388.551 C 598.000,393.226 597.647,394.119 594.877,396.450 C 591.949,398.914 570.200,409.920 565.250,411.443 C 564.013,411.823 563.000,412.461 563.000,412.860 C 563.000,414.376 579.678,420.951 584.500,421.335 C 587.250,421.554 595.125,421.681 602.000,421.617 C 613.474,421.510 614.775,421.304 617.847,419.113 Z" fill="#4c02a1" stroke="black" stroke-width="0.5" fill-rule="evenodd"/>
</svg>
