<?xml version='1.0' encoding='UTF-8'?>
<svg version="1.1" xmlns="http://www.w3.org/2000/svg" width="1000" height="600" viewBox="0 0 1000 600">
  <path d="M 537.330,527.925 C 542.213,526.570 544.191,522.267 544.121,513.158 C 544.027,500.818 542.585,496.847 534.599,486.925 C 526.108,476.376 524.132,474.913 509.097,468.044 C 500.287,464.019 496.277,462.746 491.128,462.336 C 484.241,461.789 470.576,464.024 468.576,466.024 C 467.995,466.605 467.557,469.784 467.602,473.090 C 467.665,477.691 468.195,479.732 469.865,481.800 C 471.064,483.285 473.956,486.996 476.292,490.046 C 488.211,505.615 496.669,512.965 509.474,518.882 C 513.310,520.655 517.894,523.207 519.661,524.555 C 524.677,528.381 531.205,529.626 537.330,527.925 Z" fill="#0c0786" stroke="black" stroke-width="0.5" fill-rule="evenodd"/>
</svg>
