<?xml version='1.0' encoding='UTF-8'?>
<svg version="1.1" xmlns="http://www.w3.org/2000/svg" width="1000" height="600" viewBox="0 0 1000 600">
  <path d="M 466.231,540.440 C 470.173,539.419 477.988,535.474 488.875,529.010 C 510.810,515.987 514.479,513.313 526.618,501.500 C 536.799,491.593 539.136,488.234 538.237,484.798 C 537.696,482.728 525.432,470.111 515.678,461.590 L 508.914,455.680 L 505.207,457.711 C 503.168,458.829 498.594,460.029 495.043,460.378 C 482.747,461.587 477.858,463.594 470.756,470.351 C 466.085,474.794 463.791,477.887 462.484,481.500 C 461.490,484.250 458.000,492.350 454.730,499.500 C 445.415,519.869 442.997,526.541 443.032,531.776 C 443.067,536.978 444.435,539.448 448.091,540.910 C 451.759,542.377 459.534,542.175 466.231,540.440 Z" fill="#250591" stroke="black" stroke-width="0.5" fill-rule="evenodd"/>
</svg>
