<?xml version='1.0' encoding='UTF-8'?>
<svg version="1.1" xmlns="http://www.w3.org/2000/svg" width="1000" height="600" viewBox="0 0 1000 600">
  <path d="M 633.517,277.000 C 634.261,277.000 637.361,274.509 640.406,271.463 C 646.549,265.321 647.521,262.851 648.600,250.652 C 649.142,244.523 649.809,242.192 651.647,240.008 C 653.201,238.161 654.000,235.940 654.000,233.467 C 654.000,229.277 648.841,210.544 646.343,205.664 C 643.786,200.669 636.914,192.918 634.090,191.844 C 626.921,189.119 608.138,196.799 598.388,206.444 C 595.577,209.225 592.487,212.128 591.523,212.897 C 590.026,214.090 589.869,215.297 590.450,221.185 C 591.083,227.614 591.422,228.369 595.502,232.449 C 599.976,236.924 602.655,243.361 601.525,246.922 C 601.146,248.115 602.119,250.150 604.337,252.805 C 606.202,255.038 608.233,258.868 608.850,261.318 C 609.840,265.248 610.361,265.845 613.285,266.394 C 615.398,266.790 618.211,268.677 621.049,271.603 C 625.741,276.439 628.629,278.161 630.832,277.437 C 631.564,277.197 632.772,277.000 633.517,277.000 Z" fill="#d4526e" stroke="black" stroke-width="0.5" fill-rule="evenodd"/>
</svg>
