<?xml version='1.0' encoding='UTF-8'?>
<svg version="1.1" xmlns="http://www.w3.org/2000/svg" width="1000" height="600" viewBox="0 0 1000 600">
  <path d="M 617.068,199.095 C 627.870,188.169 628.484,186.498 628.493,168.000 C 628.499,156.092 628.247,154.028 626.353,150.500 C 623.544,145.267 613.595,134.474 606.619,129.092 C 599.400,123.523 594.656,122.735 590.317,126.387 C 587.791,128.512 586.259,131.842 581.872,144.742 C 576.540,160.421 576.514,160.560 576.567,172.500 C 576.628,186.449 577.710,189.763 584.380,196.433 C 587.549,199.601 590.491,201.328 595.588,203.010 C 599.390,204.264 603.388,205.900 604.473,206.645 C 605.557,207.390 606.854,208.000 607.354,208.000 C 607.854,208.000 612.225,203.993 617.068,199.095 Z" fill="#b52e8c" stroke="black" stroke-width="0.5" fill-rule="evenodd"/>
</svg>
