<?xml version='1.0' encoding='UTF-8'?>
<svg version="1.1" xmlns="http://www.w3.org/2000/svg" width="1000" height="600" viewBox="0 0 1000 600">
  <path d="M 380.239,224.146 C 383.133,221.476 387.508,217.538 389.961,215.396 C 392.415,213.253 397.153,208.800 400.491,205.500 C 405.720,200.331 406.808,198.599 408.343,193.000 C 409.324,189.425 410.832,185.412 411.695,184.083 C 413.130,181.874 413.122,181.562 411.604,180.453 C 410.691,179.785 408.372,175.210 406.451,170.287 C 404.483,165.243 401.767,160.204 400.229,158.744 C 397.604,156.251 380.332,147.000 378.304,147.000 C 376.344,147.000 365.092,159.792 359.787,168.053 C 353.585,177.709 349.573,186.365 347.860,193.787 C 346.872,198.068 346.961,200.398 348.390,207.714 C 349.335,212.546 350.646,217.025 351.304,217.667 C 351.962,218.309 355.875,221.106 360.000,223.883 C 370.156,230.720 373.073,230.758 380.239,224.146 Z" fill="#c03b81" stroke="black" stroke-width="0.5" fill-rule="evenodd"/>
</svg>
