<?xml version='1.0' encoding='UTF-8'?>
<svg version="1.1" xmlns="http://www.w3.org/2000/svg" width="1000" height="600" viewBox="0 0 1000 600">
  <path d="M 411.981,429.174 C 417.735,426.969 419.232,424.180 418.645,416.756 C 418.156,410.570 418.133,410.526 407.157,394.454 C 398.443,381.695 393.947,372.240 389.822,358.000 C 386.356,346.037 384.271,341.517 379.944,336.589 C 376.005,332.103 371.352,330.618 363.271,331.266 C 357.936,331.695 355.899,332.426 351.387,335.534 C 345.351,339.691 337.592,347.770 332.823,354.863 C 331.108,357.414 328.594,360.705 327.235,362.178 L 324.764,364.855 L 329.132,370.132 C 331.534,373.035 337.195,379.266 341.711,383.979 C 348.240,390.794 350.727,394.294 353.857,401.070 C 358.467,411.047 362.295,414.642 374.329,420.297 C 378.635,422.321 383.513,424.941 385.169,426.120 C 391.951,430.950 403.820,432.301 411.981,429.174 Z" fill="#c03b81" stroke="black" stroke-width="0.5" fill-rule="evenodd"/>
</svg>
