<?xml version='1.0' encoding='UTF-8'?>
<svg version="1.1" xmlns="http://www.w3.org/2000/svg" width="1000" height="600" viewBox="0 0 1000 600">
  <path d="M 475.823,436.356 C 478.396,434.845 483.524,432.134 487.220,430.332 C 492.359,427.826 494.576,426.048 496.640,422.777 C 498.124,420.425 502.933,413.325 507.325,407.000 C 511.718,400.675 516.405,392.800 517.741,389.500 C 519.078,386.200 521.491,381.423 523.103,378.884 C 525.623,374.919 526.123,372.948 526.652,364.883 L 527.269,355.497 L 522.048,349.248 C 519.176,345.812 516.506,343.000 516.113,343.000 C 515.720,343.000 512.947,340.820 509.950,338.156 C 506.717,335.282 502.455,332.635 499.473,331.649 C 496.708,330.735 492.735,328.825 490.645,327.405 C 488.555,325.984 486.710,324.975 486.545,325.161 C 486.381,325.347 485.226,327.525 483.979,330.000 C 480.680,336.549 468.731,347.991 460.500,352.483 C 456.650,354.584 451.925,357.725 450.000,359.462 C 448.075,361.200 444.700,363.935 442.500,365.541 C 435.891,370.366 422.083,384.016 415.850,391.886 C 410.809,398.249 410.000,399.855 410.000,403.488 C 410.000,406.391 410.770,408.762 412.474,411.102 C 413.834,412.971 416.197,416.717 417.724,419.426 C 421.620,426.339 424.405,429.000 427.744,429.000 C 433.882,429.000 444.537,432.704 454.000,438.128 C 459.023,441.007 469.333,440.170 475.823,436.356 Z" fill="#cb4777" stroke="black" stroke-width="0.5" fill-rule="evenodd"/>
</svg>
