<?xml version='1.0' encoding='UTF-8'?>
<svg version="1.1" xmlns="http://www.w3.org/2000/svg" width="1000" height="600" viewBox="0 0 1000 600">
  <path d="M 413.154,430.874 C 416.612,430.132 419.408,428.746 421.336,426.818 C 424.113,424.041 424.238,423.554 423.747,417.442 C 423.332,412.271 422.610,410.155 420.096,406.748 C 407.832,390.122 399.812,374.191 393.917,354.744 C 390.779,344.389 390.428,343.767 384.507,338.082 C 377.096,330.965 372.698,329.783 363.539,332.446 C 358.872,333.802 356.474,335.435 349.807,341.795 C 345.364,346.033 339.099,352.949 335.884,357.165 L 330.040,364.830 L 334.770,370.594 C 337.371,373.765 343.245,380.563 347.823,385.701 C 353.034,391.551 357.210,397.372 358.995,401.272 C 362.786,409.558 370.452,416.987 379.377,421.024 C 383.159,422.735 388.109,425.308 390.377,426.743 C 398.211,431.698 404.225,432.789 413.154,430.874 Z" fill="#c03b81" stroke="black" stroke-width="0.5" fill-rule="evenodd"/>
</svg>
