<?xml version='1.0' encoding='UTF-8'?>
<svg version="1.1" xmlns="http://www.w3.org/2000/svg" width="1000" height="600" viewBox="0 0 1000 600">
  <path d="M 655.529,446.769 C 673.382,439.654 683.684,432.951 691.119,423.613 L 695.181,418.512 L 694.840,409.852 C 694.526,401.852 694.249,400.862 691.199,396.847 C 689.383,394.456 686.342,389.204 684.440,385.175 C 682.538,381.147 679.120,375.689 676.844,373.046 L 672.705,368.241 L 669.588,370.080 C 667.874,371.092 663.328,372.885 659.486,374.066 C 649.567,377.114 641.727,383.047 624.682,400.408 C 612.305,413.013 600.000,428.241 600.000,430.951 C 600.000,432.469 619.936,451.078 623.091,452.505 C 629.415,455.366 637.582,453.922 655.529,446.769 Z" fill="#b52e8c" stroke="black" stroke-width="0.5" fill-rule="evenodd"/>
</svg>
