<?xml version='1.0' encoding='UTF-8'?>
<svg version="1.1" xmlns="http://www.w3.org/2000/svg" width="1000" height="600" viewBox="0 0 1000 600">
  <path d="M 639.514,223.991 C 643.877,221.236 648.018,218.411 648.717,217.712 C 649.415,217.013 650.735,212.712 651.649,208.153 C 653.010,201.369 653.103,198.957 652.160,194.871 C 649.034,181.328 639.793,165.118 628.184,152.812 L 621.778,146.022 L 619.139,147.881 C 617.688,148.904 613.125,151.312 609.000,153.232 C 604.875,155.152 600.292,158.023 598.814,159.612 C 597.337,161.200 594.695,166.473 592.941,171.329 C 591.188,176.184 589.118,180.401 588.341,180.699 C 587.137,181.162 587.131,181.555 588.305,183.371 C 589.062,184.542 590.698,188.875 591.940,193.000 C 594.301,200.839 595.910,202.832 610.063,215.457 C 612.504,217.634 616.889,221.572 619.808,224.207 C 626.848,230.564 629.145,230.538 639.514,223.991 Z" fill="#c03b81" stroke="black" stroke-width="0.5" fill-rule="evenodd"/>
</svg>
