<?xml version='1.0' encoding='UTF-8'?>
<svg version="1.1" xmlns="http://www.w3.org/2000/svg" width="1000" height="600" viewBox="0 0 1000 600">
  <path d="M 434.785,390.289 C 442.505,386.174 447.177,382.875 451.500,378.484 C 459.493,370.367 465.000,363.502 465.000,361.656 C 465.000,359.377 470.624,345.809 475.060,337.386 C 480.943,326.216 480.432,324.005 470.751,318.727 C 467.313,316.853 462.464,314.141 459.976,312.701 C 456.043,310.424 453.888,309.997 443.476,309.429 C 428.727,308.624 418.592,309.957 409.982,313.833 C 406.417,315.438 400.814,317.523 397.530,318.467 C 389.689,320.722 384.277,323.543 383.595,325.733 C 382.622,328.853 381.040,341.354 381.020,346.081 C 381.008,348.883 381.874,352.385 383.250,355.101 C 387.550,363.585 403.486,385.203 408.500,389.353 C 411.250,391.629 414.095,394.056 414.821,394.746 C 417.742,397.518 423.728,396.182 434.785,390.289 Z" fill="#d4526e" stroke="black" stroke-width="0.5" fill-rule="evenodd"/>
</svg>
