<?xml version='1.0' encoding='UTF-8'?>
<svg version="1.1" xmlns="http://www.w3.org/2000/svg" width="1000" height="600" viewBox="0 0 1000 600">
  <path d="M 557.500,402.455 C 573.020,397.299 574.527,396.627 577.403,393.578 C 579.000,391.885 582.518,386.675 585.221,382.000 C 589.607,374.416 590.141,372.844 590.180,367.416 C 590.261,355.990 588.150,354.274 567.000,348.566 C 548.253,343.507 526.330,335.675 513.636,329.503 C 505.693,325.640 501.130,324.000 498.327,324.000 C 494.434,324.000 494.200,324.204 489.103,332.029 C 481.039,344.410 480.572,345.879 480.534,359.000 L 480.500,370.500 L 487.000,383.500 C 495.443,400.386 495.800,400.595 518.577,402.034 C 527.357,402.589 536.781,403.669 539.520,404.435 C 545.458,406.095 547.083,405.916 557.500,402.455 Z" fill="#7e03a7" stroke="black" stroke-width="0.5" fill-rule="evenodd"/>
</svg>
