<?xml version='1.0' encoding='UTF-8'?>
<svg version="1.1" xmlns="http://www.w3.org/2000/svg" width="1000" height="600" viewBox="0 0 1000 600">
  <path d="M 569.089,374.979 C 572.890,371.117 576.000,367.614 576.000,367.194 C 576.000,366.775 577.335,365.642 578.968,364.678 C 581.559,363.147 581.857,362.519 581.321,359.713 C 580.433,355.067 575.896,346.395 570.740,339.493 C 568.278,336.197 565.474,331.925 564.509,330.000 C 562.928,326.848 546.720,301.712 544.943,299.657 C 544.543,299.194 543.217,299.349 541.997,300.002 C 540.777,300.655 536.633,302.061 532.787,303.126 C 528.942,304.192 524.125,305.916 522.084,306.957 C 518.648,308.710 518.285,309.327 517.187,315.290 C 515.603,323.886 515.755,330.644 517.642,335.500 C 518.497,337.700 520.955,344.655 523.104,350.955 C 525.253,357.255 528.194,364.116 529.639,366.201 C 532.172,369.856 546.639,380.272 550.580,381.278 C 551.636,381.547 554.678,381.820 557.339,381.884 C 562.061,381.997 562.346,381.830 569.089,374.979 Z" fill="#9b179e" stroke="black" stroke-width="0.5" fill-rule="evenodd"/>
</svg>
