<?xml version='1.0' encoding='UTF-8'?>
<svg version="1.1" xmlns="http://www.w3.org/2000/svg" width="1000" height="600" viewBox="0 0 1000 600">
  <path d="M 601.768,351.352 C 602.859,349.899 603.060,346.377 602.703,335.000 C 602.262,321.004 602.101,320.101 598.059,309.015 C 593.097,295.404 591.023,291.795 586.582,289.050 C 582.094,286.277 578.837,286.458 567.317,290.122 C 553.837,294.408 548.000,296.989 548.000,298.663 C 548.000,299.442 548.899,301.841 549.997,303.994 C 551.095,306.146 552.931,310.413 554.076,313.475 C 556.959,321.178 566.584,333.793 573.838,339.375 C 577.170,341.939 581.527,346.027 583.520,348.459 C 585.512,350.890 588.123,353.093 589.321,353.354 C 593.712,354.309 600.349,353.242 601.768,351.352 Z" fill="#a92395" stroke="black" stroke-width="0.5" fill-rule="evenodd"/>
</svg>
