<?xml version='1.0' encoding='UTF-8'?>
<svg version="1.1" xmlns="http://www.w3.org/2000/svg" width="1000" height="600" viewBox="0 0 1000 600">
  <path d="M 546.790,405.115 C 548.830,404.078 553.425,402.420 557.000,401.430 C 566.088,398.913 571.696,396.298 573.554,393.711 C 574.427,392.495 577.439,387.675 580.247,383.000 C 584.956,375.162 585.359,373.991 585.427,367.956 C 585.551,356.897 581.982,353.885 563.468,349.423 C 557.671,348.026 549.920,345.751 546.243,344.367 C 542.565,342.983 535.269,340.493 530.028,338.835 C 524.788,337.176 515.400,333.160 509.167,329.910 C 495.788,322.933 491.131,322.225 488.365,326.750 C 487.440,328.262 484.532,332.875 481.902,337.000 C 475.937,346.358 474.586,351.601 475.230,362.892 C 475.669,370.596 476.298,372.930 480.437,382.201 C 485.297,393.090 489.160,397.995 494.445,399.988 C 496.065,400.599 503.490,401.517 510.945,402.029 C 528.068,403.204 533.503,403.913 537.949,405.551 C 542.641,407.280 542.517,407.286 546.790,405.115 Z" fill="#7e03a7" stroke="black" stroke-width="0.5" fill-rule="evenodd"/>
</svg>
