<?xml version='1.0' encoding='UTF-8'?>
<svg version="1.1" xmlns="http://www.w3.org/2000/svg" width="1000" height="600" viewBox="0 0 1000 600">
  <path d="M 536.997,295.551 C 541.123,294.203 548.696,292.398 553.824,291.538 C 565.196,289.631 568.053,288.236 574.620,281.387 C 580.396,275.363 581.387,272.313 579.979,264.891 C 578.892,259.159 571.815,248.780 562.101,238.672 C 555.836,232.153 552.597,230.233 540.716,225.993 C 532.532,223.072 532.490,223.068 529.864,224.976 C 528.414,226.029 524.366,228.054 520.868,229.475 C 512.327,232.946 505.435,239.716 503.429,246.603 C 500.191,257.727 501.573,292.360 505.350,294.726 C 507.507,296.078 517.488,297.832 523.497,297.916 C 527.351,297.970 532.173,297.125 536.997,295.551 Z" fill="#8c0aa4" stroke="black" stroke-width="0.5" fill-rule="evenodd"/>
</svg>
