<?xml version='1.0' encoding='UTF-8'?>
<svg version="1.1" xmlns="http://www.w3.org/2000/svg" width="1000" height="600" viewBox="0 0 1000 600">
  <path d="M 442.124,351.449 C 444.531,350.596 451.120,348.804 456.767,347.466 C 462.414,346.128 468.489,344.304 470.267,343.412 C 474.279,341.398 494.832,320.523 496.223,317.048 C 497.614,313.574 497.540,298.460 496.107,293.280 C 495.063,289.509 494.501,288.943 490.812,287.949 C 475.475,283.820 469.172,284.652 452.464,293.011 C 433.546,302.476 423.681,312.649 416.774,329.814 C 412.422,340.627 412.188,342.607 415.149,343.547 C 416.330,343.922 419.215,346.203 421.559,348.615 C 425.655,352.828 426.055,353.000 431.785,353.000 C 435.065,353.000 439.718,352.302 442.124,351.449 Z" fill="#8c0aa4" stroke="black" stroke-width="0.5" fill-rule="evenodd"/>
</svg>
