<?xml version='1.0' encoding='UTF-8'?>
<svg version="1.1" xmlns="http://www.w3.org/2000/svg" width="1000" height="600" viewBox="0 0 1000 600">
  <path d="M 458.669,404.515 C 461.876,403.699 471.475,402.591 480.000,402.053 C 504.006,400.537 505.466,399.719 513.532,383.266 C 518.893,372.330 519.332,370.898 519.762,362.962 C 520.414,350.923 518.376,343.728 511.210,332.766 C 505.722,324.371 505.354,324.031 501.757,324.016 C 499.230,324.005 494.034,325.903 485.757,329.862 C 473.130,335.901 443.919,346.288 429.098,350.010 C 418.637,352.637 411.386,356.216 410.421,359.229 C 410.021,360.478 409.715,364.082 409.742,367.237 C 409.785,372.386 410.382,373.977 415.552,382.737 C 418.721,388.107 422.031,393.350 422.907,394.388 C 424.935,396.792 429.362,398.664 439.895,401.573 C 444.513,402.848 448.765,404.365 449.345,404.945 C 450.728,406.328 451.732,406.282 458.669,404.515 Z" fill="#7e03a7" stroke="black" stroke-width="0.5" fill-rule="evenodd"/>
</svg>
