<?xml version='1.0' encoding='UTF-8'?>
<svg version="1.1" xmlns="http://www.w3.org/2000/svg" width="1000" height="600" viewBox="0 0 1000 600">
  <path d="M 417.131,352.705 C 418.578,352.042 422.048,348.728 424.843,345.339 C 427.638,341.951 432.038,337.676 434.622,335.839 C 438.987,332.736 451.000,316.513 451.000,313.720 C 451.000,313.137 452.426,309.566 454.169,305.784 C 458.022,297.425 457.708,296.900 447.096,293.959 C 443.069,292.844 437.139,290.821 433.918,289.465 C 420.462,283.802 414.166,287.820 406.363,307.050 L 401.716,318.500 L 401.618,332.500 C 401.543,343.073 401.884,347.224 403.009,349.458 C 405.124,353.653 411.739,355.174 417.131,352.705 Z" fill="#a92395" stroke="black" stroke-width="0.5" fill-rule="evenodd"/>
</svg>
