<?xml version='1.0' encoding='UTF-8'?>
<svg version="1.1" xmlns="http://www.w3.org/2000/svg" width="1000" height="600" viewBox="0 0 1000 600">
  <path d="M 369.691,392.858 C 373.507,390.528 382.268,381.120 385.734,375.629 C 390.269,368.446 404.852,336.435 409.084,324.374 C 413.942,310.532 420.062,291.873 423.475,280.500 C 424.796,276.100 426.419,270.722 427.082,268.549 C 427.745,266.376 429.402,262.101 430.763,259.049 C 432.125,255.997 434.100,251.025 435.152,248.000 C 436.204,244.975 438.610,239.906 440.499,236.735 C 444.525,229.975 448.463,220.909 451.025,212.500 C 453.390,204.736 456.111,197.322 460.015,188.000 C 461.743,183.875 464.743,176.080 466.681,170.677 C 469.799,161.987 470.164,159.957 469.852,153.082 C 469.540,146.199 468.964,144.235 464.816,135.905 C 459.226,124.680 452.759,117.151 442.832,110.311 C 431.034,102.182 425.468,99.751 417.444,99.225 C 407.064,98.544 401.157,101.865 397.325,110.537 C 395.800,113.987 395.599,117.475 395.775,137.500 C 395.998,163.023 397.232,184.378 399.011,193.500 C 400.489,201.081 399.693,281.468 398.080,287.500 C 397.492,289.700 396.537,298.700 395.957,307.500 C 395.377,316.300 394.482,324.850 393.967,326.500 C 393.452,328.150 392.536,333.100 391.932,337.500 C 390.427,348.456 385.770,366.603 383.149,371.722 C 379.803,378.258 375.503,382.534 369.757,385.040 C 355.394,391.303 342.308,384.372 330.979,364.500 C 327.987,359.251 326.118,356.733 326.496,358.458 C 327.329,362.269 335.457,378.545 338.601,382.697 C 341.801,386.924 353.247,395.355 356.735,396.054 C 360.159,396.740 365.483,395.427 369.691,392.858 Z" fill="#f4fac1" stroke="black" stroke-width="0.5" fill-rule="evenodd"/>
</svg>
