<?xml version='1.0' encoding='UTF-8'?>
<svg version="1.1" xmlns="http://www.w3.org/2000/svg" width="1000" height="600" viewBox="0 0 1000 600">
  <path d="M 339.390,438.454 C 340.841,434.029 346.125,423.004 351.133,413.954 C 356.140,404.904 360.812,395.925 361.513,394.000 C 368.978,373.528 384.964,346.837 399.341,330.842 C 403.278,326.461 408.445,320.542 410.823,317.688 C 418.671,308.269 433.403,293.869 439.377,289.777 C 445.743,285.418 460.533,278.170 468.412,275.548 C 476.740,272.777 488.234,271.787 506.744,272.246 C 523.025,272.650 525.413,272.952 535.500,275.880 C 541.550,277.636 551.571,281.543 557.769,284.560 C 567.521,289.309 570.150,291.155 577.301,298.274 C 587.786,308.711 593.201,318.908 595.478,332.500 C 596.307,337.450 597.439,343.072 597.993,344.993 C 599.471,350.119 599.194,363.551 597.459,370.912 C 594.457,383.649 590.893,389.186 575.602,404.872 C 564.303,416.463 562.494,418.676 566.500,416.007 C 575.351,410.110 595.206,389.328 599.468,381.500 C 613.260,356.167 611.692,326.183 595.687,309.219 C 592.719,306.074 587.962,300.269 585.116,296.320 C 577.239,285.391 562.516,272.039 550.124,264.587 C 534.078,254.938 523.600,251.179 497.000,245.529 C 490.675,244.186 483.928,242.617 482.007,242.044 C 477.643,240.740 444.736,240.676 440.000,241.961 C 438.075,242.484 431.092,243.607 424.483,244.458 C 410.071,246.314 394.297,251.201 374.498,259.947 C 346.071,272.503 332.506,280.710 316.000,295.337 C 305.056,305.036 300.220,310.537 293.241,321.229 C 281.471,339.259 274.252,356.946 271.908,373.500 C 270.535,383.194 271.319,400.635 273.436,407.500 C 276.826,418.491 289.304,430.756 303.658,437.207 C 310.770,440.403 335.397,447.966 336.126,447.177 C 336.470,446.805 337.939,442.879 339.390,438.454 Z" fill="#f4fac1" stroke="black" stroke-width="0.5" fill-rule="evenodd"/>
</svg>
