<?xml version='1.0' encoding='UTF-8'?>
<svg version="1.1" xmlns="http://www.w3.org/2000/svg" width="1000" height="600" viewBox="0 0 1000 600">
  <path d="M 686.668,438.099 C 700.681,434.497 711.205,428.742 719.134,420.347 C 728.505,410.424 730.533,403.046 729.754,381.716 C 729.298,369.245 728.836,366.272 725.992,357.500 C 722.300,346.113 714.366,329.342 708.488,320.502 C 700.102,307.888 682.445,291.998 660.500,277.314 C 647.808,268.822 642.484,265.996 626.000,259.003 C 608.155,251.433 599.040,248.630 578.500,244.398 C 563.765,241.361 560.990,241.097 543.409,241.050 C 529.200,241.013 523.063,241.382 519.409,242.495 C 516.709,243.318 510.675,244.667 506.000,245.493 C 489.669,248.380 460.223,260.083 449.500,267.950 C 446.750,269.967 441.934,273.502 438.798,275.805 C 435.663,278.108 429.461,284.381 425.018,289.746 C 420.574,295.111 414.423,302.515 411.349,306.200 C 403.825,315.217 403.620,315.552 401.069,323.000 C 397.385,333.753 396.564,340.176 397.833,348.300 C 399.853,361.227 403.587,375.389 406.457,381.000 C 412.538,392.893 422.777,405.422 432.468,412.829 L 438.500,417.440 L 433.275,411.363 C 430.402,408.021 427.317,404.678 426.420,403.934 C 421.748,400.056 411.454,381.634 408.612,372.067 C 406.596,365.278 406.543,354.489 408.487,346.564 C 409.306,343.229 410.640,336.300 411.452,331.166 C 414.326,313.014 423.535,298.946 439.640,288.107 C 448.031,282.459 457.346,278.387 465.052,276.996 C 468.598,276.356 473.957,275.195 476.960,274.416 C 483.393,272.748 508.816,272.518 519.500,274.031 C 530.241,275.553 546.574,280.720 556.035,285.589 C 565.645,290.534 579.266,301.976 590.573,314.602 C 601.180,326.448 613.266,341.971 617.046,348.605 C 618.893,351.847 622.386,357.200 624.808,360.500 C 630.636,368.443 632.245,371.742 637.462,386.448 C 640.524,395.080 643.770,401.851 648.118,408.680 C 651.557,414.081 656.777,423.559 659.717,429.742 L 665.064,440.984 L 671.782,440.591 C 675.477,440.375 682.176,439.254 686.668,438.099 Z" fill="#f4fac1" stroke="black" stroke-width="0.5" fill-rule="evenodd"/>
</svg>
