<?xml version='1.0' encoding='UTF-8'?>
<svg version="1.1" xmlns="http://www.w3.org/2000/svg" width="1000" height="600" viewBox="0 0 1000 600">
  <path d="M 622.000,411.144 C 624.043,410.111 626.253,407.859 627.309,405.736 C 631.294,397.721 625.480,379.292 616.116,370.255 C 610.710,365.038 598.208,357.420 592.522,355.879 C 590.175,355.242 582.151,354.944 572.946,355.150 L 557.347,355.500 L 548.749,359.761 C 537.933,365.121 534.731,368.893 532.438,378.973 C 531.001,385.291 530.958,386.846 532.120,390.393 C 534.773,398.495 545.141,405.216 557.500,406.846 C 561.900,407.426 567.525,408.640 570.000,409.544 C 572.977,410.630 580.414,411.512 591.970,412.147 C 601.579,412.675 609.679,413.347 609.970,413.640 C 610.874,414.549 618.323,413.004 622.000,411.144 Z" fill="#a6dcb7" stroke="black" stroke-width="0.5" fill-rule="evenodd"/>
</svg>
