<?xml version='1.0' encoding='UTF-8'?>
<svg version="1.1" xmlns="http://www.w3.org/2000/svg" width="1000" height="600" viewBox="0 0 1000 600">
  <path d="M 418.097,478.950 C 420.307,477.823 425.476,473.518 429.583,469.384 C 437.678,461.237 442.563,458.531 454.500,455.582 C 462.259,453.665 466.944,451.158 469.984,447.294 C 472.631,443.928 472.528,440.444 469.586,433.791 C 466.505,426.823 465.601,420.655 466.853,415.127 C 467.397,412.722 467.613,410.156 467.333,409.425 C 466.084,406.171 452.280,404.206 428.234,403.858 L 409.968,403.594 L 403.234,411.908 C 391.664,426.192 388.998,430.693 389.015,435.909 C 389.048,446.359 395.385,462.968 403.721,474.454 C 408.652,481.249 411.714,482.207 418.097,478.950 Z" fill="#243d98" stroke="black" stroke-width="0.5" fill-rule="evenodd"/>
</svg>
