<?xml version='1.0' encoding='UTF-8'?>
<svg version="1.1" xmlns="http://www.w3.org/2000/svg" width="1000" height="600" viewBox="0 0 1000 600">
  <path d="M 587.048,479.966 C 591.319,476.925 601.475,460.984 605.052,451.708 C 608.872,441.804 609.199,434.500 606.135,427.572 C 603.979,422.698 594.185,408.228 591.577,406.064 C 590.493,405.164 584.644,404.789 570.785,404.729 C 550.430,404.641 544.018,405.494 535.952,409.364 C 531.926,411.295 531.389,411.979 530.346,416.500 C 529.711,419.250 529.177,422.400 529.159,423.500 C 529.130,425.289 529.223,425.261 530.039,423.228 C 531.086,420.623 533.695,419.295 535.069,420.669 C 535.649,421.249 534.674,422.893 532.502,424.998 C 530.252,427.179 528.971,427.875 528.920,426.946 C 528.778,424.370 525.033,440.398 525.016,443.656 C 525.003,446.316 525.739,447.301 529.708,449.930 C 532.297,451.645 537.276,453.932 540.773,455.012 C 550.167,457.913 559.365,463.468 564.743,469.490 C 570.101,475.487 579.187,482.000 582.196,482.000 C 583.293,482.000 585.477,481.085 587.048,479.966 Z" fill="#243d98" stroke="black" stroke-width="0.5" fill-rule="evenodd"/>
</svg>
