<?xml version='1.0' encoding='UTF-8'?>
<svg version="1.1" xmlns="http://www.w3.org/2000/svg" width="1000" height="600" viewBox="0 0 1000 600">
  <path d="M 457.255,455.643 C 460.690,453.246 466.200,449.782 469.500,447.944 C 477.775,443.336 494.597,430.683 499.852,425.113 C 504.800,419.867 512.000,410.675 512.000,409.602 C 512.000,409.208 513.938,406.099 516.307,402.693 C 524.384,391.078 530.000,376.150 530.000,366.294 C 530.000,362.941 528.623,358.730 524.750,350.232 C 515.983,330.998 511.157,327.058 485.389,318.096 C 476.100,314.865 464.900,310.817 460.500,309.099 C 456.100,307.382 449.575,305.466 446.000,304.842 C 437.469,303.352 409.599,304.422 401.500,306.550 C 398.200,307.417 393.390,308.531 390.811,309.026 C 385.252,310.092 364.233,317.835 357.141,321.429 C 347.869,326.127 340.543,332.011 330.729,342.641 C 321.259,352.898 316.788,359.440 309.988,372.987 C 302.107,388.688 299.391,400.954 300.610,415.341 C 301.190,422.185 301.759,423.909 305.083,428.887 C 309.091,434.889 320.382,444.133 329.101,448.551 C 339.498,453.820 360.695,457.967 367.652,456.094 C 372.480,454.794 381.947,448.804 391.498,441.007 C 405.765,429.360 415.028,425.929 426.711,427.963 C 434.485,429.317 437.298,430.650 441.905,435.164 C 447.035,440.190 450.030,447.684 450.333,456.250 C 450.406,458.312 450.588,460.000 450.738,460.000 C 450.887,460.000 453.820,458.039 457.255,455.643 Z" fill="#ffffd9" stroke="black" stroke-width="0.5" fill-rule="evenodd"/>
</svg>
