<?xml version='1.0' encoding='UTF-8'?>
<svg version="1.1" xmlns="http://www.w3.org/2000/svg" width="1000" height="600" viewBox="0 0 1000 600">
  <path d="M 549.570,456.747 C 549.609,454.961 550.610,450.319 551.794,446.430 C 555.325,434.841 562.761,428.895 575.500,427.473 C 586.029,426.299 596.153,430.857 612.000,443.907 C 619.854,450.375 631.724,457.000 635.458,457.000 C 644.709,457.000 666.521,451.165 674.000,446.690 C 680.399,442.860 691.527,434.131 693.623,431.296 C 698.873,424.195 699.395,422.153 699.320,409.000 C 699.259,398.312 698.886,395.485 696.748,389.500 C 693.159,379.456 685.590,364.036 680.584,356.571 C 673.661,346.248 659.419,331.526 651.037,326.031 C 641.355,319.683 621.168,311.492 608.000,308.568 C 604.425,307.775 599.475,306.589 597.000,305.933 C 594.323,305.224 584.397,304.692 572.500,304.620 L 552.500,304.500 L 543.500,307.869 C 530.972,312.559 510.649,319.814 503.575,322.121 C 490.124,326.508 483.574,332.727 475.791,348.500 C 470.075,360.086 469.885,360.724 470.288,367.000 C 471.056,378.948 475.303,389.989 484.397,403.676 C 486.654,407.072 489.537,411.572 490.804,413.676 C 496.533,423.186 517.927,441.773 530.884,448.498 C 533.423,449.815 538.425,452.899 542.000,455.349 C 545.575,457.800 548.725,459.848 549.000,459.900 C 549.275,459.952 549.532,458.533 549.570,456.747 Z" fill="#ffffd9" stroke="black" stroke-width="0.5" fill-rule="evenodd"/>
</svg>
