<?xml version='1.0' encoding='UTF-8'?>
<svg version="1.1" xmlns="http://www.w3.org/2000/svg" width="1000" height="600" viewBox="0 0 1000 600">
  <path d="M 366.351,313.750 C 369.711,309.298 371.260,305.266 376.491,287.368 C 378.973,278.877 383.000,267.109 385.442,261.215 C 401.906,221.468 405.073,213.627 407.612,206.339 L 410.455,198.179 L 418.330,194.339 C 429.141,189.069 433.291,184.411 435.387,175.198 C 436.274,171.297 437.000,166.151 437.000,163.763 C 437.000,146.606 421.898,123.511 407.426,118.536 C 403.185,117.078 398.695,118.076 390.401,122.323 C 372.450,131.513 355.159,167.557 347.141,212.500 C 343.017,235.617 341.818,252.843 342.747,275.635 L 343.609,296.770 L 347.054,303.635 C 350.780,311.058 357.215,317.000 361.527,317.000 C 363.032,317.000 364.794,315.813 366.351,313.750 Z" fill="#ffffd9" stroke="black" stroke-width="0.5" fill-rule="evenodd"/>
</svg>
