<?xml version='1.0' encoding='UTF-8'?>
<svg version="1.1" xmlns="http://www.w3.org/2000/svg" width="1000" height="600" viewBox="0 0 1000 600">
  <path d="M 458.623,456.863 C 469.409,452.136 493.481,434.231 499.834,426.209 C 504.961,419.737 515.725,401.345 517.481,396.059 C 520.526,386.888 524.000,369.586 524.000,363.584 C 524.000,358.459 523.502,356.857 520.421,352.066 C 518.453,349.004 515.149,343.575 513.079,340.000 C 509.470,333.765 508.933,333.308 499.908,328.794 C 491.965,324.821 466.958,315.981 452.500,312.035 C 446.960,310.523 415.116,308.794 406.000,309.511 C 392.350,310.583 367.331,316.848 358.000,321.529 C 352.667,324.205 335.005,338.103 329.928,343.619 C 325.038,348.932 313.977,364.312 310.236,371.000 C 306.141,378.322 301.148,390.922 299.028,399.288 C 297.477,405.405 297.446,406.878 298.710,414.196 C 300.413,424.062 301.770,426.816 308.375,433.816 C 319.251,445.342 334.278,452.797 348.500,453.721 C 365.011,454.794 377.096,450.989 389.207,440.905 C 397.029,434.391 403.434,431.409 412.673,429.980 C 431.355,427.089 445.461,435.948 448.571,452.525 C 448.929,454.436 449.623,456.000 450.111,456.000 C 450.600,456.000 450.947,456.337 450.882,456.750 C 450.423,459.657 452.187,459.683 458.623,456.863 Z" fill="#ffffd9" stroke="black" stroke-width="0.5" fill-rule="evenodd"/>
</svg>
