<?xml version='1.0' encoding='UTF-8'?>
<svg version="1.1" xmlns="http://www.w3.org/2000/svg" width="1000" height="600" viewBox="0 0 1000 600">
  <path d="M 544.083,326.209 C 545.405,322.772 546.469,317.291 546.755,312.437 C 547.163,305.528 546.918,303.760 545.045,300.087 C 542.001,294.121 535.791,287.660 531.042,285.519 C 527.074,283.730 527.012,283.734 523.635,286.048 C 517.684,290.126 515.150,297.046 513.584,313.493 C 512.832,321.383 511.866,328.437 511.437,329.169 C 511.008,329.901 511.556,329.712 512.657,328.750 C 515.026,326.678 519.762,326.470 522.527,328.318 C 523.612,329.043 526.750,330.461 529.500,331.470 C 532.250,332.479 535.400,333.925 536.500,334.683 C 538.264,335.899 538.700,335.817 540.193,333.990 C 541.125,332.850 542.875,329.349 544.083,326.209 Z" fill="#53bcc1" stroke="black" stroke-width="0.5" fill-rule="evenodd"/>
</svg>
