<?xml version='1.0' encoding='UTF-8'?>
<svg version="1.1" xmlns="http://www.w3.org/2000/svg" width="1000" height="600" viewBox="0 0 1000 600">
  <path d="M 553.097,331.250 C 557.479,324.089 558.253,322.476 559.451,318.000 C 560.856,312.748 559.688,306.863 555.532,298.255 C 554.140,295.370 553.000,292.509 553.000,291.898 C 553.000,291.286 552.287,291.060 551.415,291.394 C 550.514,291.740 547.127,290.491 543.569,288.501 C 540.125,286.576 536.392,285.000 535.273,285.000 C 532.406,285.000 528.293,290.821 525.928,298.225 C 523.950,304.416 523.208,315.947 524.460,321.032 C 524.834,322.551 524.341,324.915 523.178,327.179 L 521.288,330.857 L 523.656,329.306 C 526.403,327.506 530.628,328.049 534.685,330.724 C 537.091,332.311 544.714,334.491 549.151,334.862 C 550.075,334.939 551.814,333.347 553.097,331.250 Z" fill="#53bcc1" stroke="black" stroke-width="0.5" fill-rule="evenodd"/>
</svg>
