<?xml version='1.0' encoding='UTF-8'?>
<svg version="1.1" xmlns="http://www.w3.org/2000/svg" width="1000" height="600" viewBox="0 0 1000 600">
  <path d="M 536.200,483.800 C 533.651,481.251 534.888,477.536 539.944,472.555 L 544.888,467.685 L 543.296,464.593 C 539.915,458.028 529.604,446.701 523.576,442.930 C 520.234,440.839 515.642,437.975 513.370,436.564 C 508.238,433.378 502.269,433.207 496.339,436.078 C 488.566,439.841 485.650,445.368 487.601,452.640 C 488.100,454.497 510.699,475.976 516.307,479.921 C 517.570,480.810 520.643,481.307 524.520,481.248 C 528.961,481.180 531.532,481.677 533.607,483.004 C 537.035,485.196 537.844,485.444 536.200,483.800 Z" fill="#53bcc1" stroke="black" stroke-width="0.5" fill-rule="evenodd"/>
</svg>
