<?xml version='1.0' encoding='UTF-8'?>
<svg version="1.1" xmlns="http://www.w3.org/2000/svg" width="1000" height="600" viewBox="0 0 1000 600">
  <path d="M 450.511,320.500 C 452.019,317.750 454.946,313.250 457.015,310.500 C 461.728,304.235 466.000,295.792 466.000,292.740 C 466.000,289.578 461.097,272.842 459.658,271.092 C 458.082,269.175 451.022,266.049 448.207,266.022 C 444.902,265.990 436.672,274.106 433.561,280.464 C 432.118,283.415 430.242,289.580 429.394,294.164 C 426.346,310.629 426.307,310.042 431.081,319.546 C 433.464,324.289 436.686,329.241 438.241,330.550 L 441.069,332.929 L 444.419,329.215 C 446.262,327.172 449.003,323.250 450.511,320.500 Z" fill="#1f93c0" stroke="black" stroke-width="0.5" fill-rule="evenodd"/>
</svg>
