<?xml version='1.0' encoding='UTF-8'?>
<svg version="1.1" xmlns="http://www.w3.org/2000/svg" width="1000" height="600" viewBox="0 0 1000 600">
  <path d="M 456.954,323.325 C 457.901,321.771 460.922,318.025 463.666,315.000 C 466.411,311.975 470.531,306.715 472.823,303.312 C 475.115,299.909 477.442,296.845 477.995,296.503 C 479.549,295.542 479.190,292.294 477.071,288.139 C 476.010,286.060 474.191,281.413 473.027,277.813 C 470.144,268.889 467.603,266.681 459.718,266.252 C 452.753,265.874 452.619,265.936 448.455,271.500 C 442.418,279.566 441.019,283.309 439.985,294.158 C 438.463,310.132 441.054,320.502 448.035,326.376 C 450.848,328.743 451.359,328.862 453.194,327.577 C 454.314,326.792 456.006,324.879 456.954,323.325 Z" fill="#1f93c0" stroke="black" stroke-width="0.5" fill-rule="evenodd"/>
</svg>
