<?xml version='1.0' encoding='UTF-8'?>
<svg version="1.1" xmlns="http://www.w3.org/2000/svg" width="1000" height="600" viewBox="0 0 1000 600">
  <path d="M 586.403,512.250 C 587.204,510.738 589.236,508.600 590.919,507.500 C 596.411,503.912 598.524,492.204 595.893,479.936 C 594.539,473.625 584.845,460.370 577.536,454.838 C 570.512,449.521 565.834,448.500 548.500,448.500 C 531.105,448.500 527.180,449.136 523.029,452.629 C 520.596,454.676 520.000,455.957 520.000,459.139 C 520.000,463.779 521.733,467.454 527.480,475.000 C 529.784,478.025 534.384,484.556 537.701,489.513 C 545.482,501.140 550.284,505.465 557.709,507.534 C 568.161,510.447 572.674,512.041 574.601,513.499 C 575.646,514.290 578.401,514.951 580.724,514.968 C 584.329,514.995 585.162,514.597 586.403,512.250 Z" fill="#6a00a7" stroke="black" stroke-width="0.5" fill-rule="evenodd"/>
</svg>
