<?xml version='1.0' encoding='UTF-8'?>
<svg version="1.1" xmlns="http://www.w3.org/2000/svg" width="1000" height="600" viewBox="0 0 1000 600">
  <path d="M 643.827,255.135 C 646.608,252.154 650.864,246.323 654.787,240.117 C 656.748,237.016 657.033,235.405 656.783,228.818 C 656.445,219.921 655.088,217.481 647.611,212.328 C 641.293,207.974 637.351,207.012 625.799,207.006 C 609.543,206.996 601.017,209.701 595.500,216.617 C 590.399,223.012 590.068,224.056 590.135,233.500 C 590.239,248.050 589.321,247.050 605.541,250.278 C 613.597,251.881 621.403,254.066 624.000,255.444 C 627.291,257.190 630.200,257.854 634.827,257.916 C 640.555,257.992 641.407,257.729 643.827,255.135 Z" fill="#4f02a2" stroke="black" stroke-width="0.5" fill-rule="evenodd"/>
</svg>
