<?xml version='1.0' encoding='UTF-8'?>
<svg version="1.1" xmlns="http://www.w3.org/2000/svg" width="1000" height="600" viewBox="0 0 1000 600">
  <path d="M 587.114,537.143 C 593.159,533.309 597.568,527.748 599.017,522.129 C 599.674,519.583 600.447,512.770 600.736,506.989 C 602.174,478.178 594.320,462.980 578.007,463.006 C 571.022,463.017 567.615,464.799 559.404,472.737 C 554.987,477.007 549.490,482.110 547.187,484.078 C 541.915,488.583 541.804,491.048 546.373,502.238 C 548.229,506.782 550.541,513.875 551.513,518.000 C 553.014,524.373 553.902,526.101 557.421,529.500 C 559.700,531.700 564.425,534.962 567.922,536.750 C 576.111,540.935 580.977,541.035 587.114,537.143 Z" fill="#4f02a2" stroke="black" stroke-width="0.5" fill-rule="evenodd"/>
</svg>
