<?xml version='1.0' encoding='UTF-8'?>
<svg version="1.1" xmlns="http://www.w3.org/2000/svg" width="1000" height="600" viewBox="0 0 1000 600">
  <path d="M 430.832,510.207 C 437.065,508.024 444.040,504.894 446.332,503.251 C 448.637,501.600 452.828,496.740 455.708,492.382 C 458.572,488.047 463.747,480.577 467.208,475.783 C 475.457,464.355 476.786,460.773 474.659,455.709 C 472.467,450.488 467.132,448.251 454.930,447.436 C 437.041,446.243 423.129,449.558 414.598,457.048 C 410.267,460.851 400.395,473.831 398.957,477.614 C 397.585,481.221 397.857,495.855 399.375,500.100 C 400.082,502.080 403.100,506.233 406.081,509.329 C 411.157,514.601 411.753,514.933 415.500,514.566 C 417.700,514.351 424.599,512.389 430.832,510.207 Z" fill="#6a00a7" stroke="black" stroke-width="0.5" fill-rule="evenodd"/>
</svg>
