<?xml version='1.0' encoding='UTF-8'?>
<svg version="1.1" xmlns="http://www.w3.org/2000/svg" width="1000" height="600" viewBox="0 0 1000 600">
  <path d="M 412.918,277.902 C 419.484,276.806 419.523,276.779 428.879,267.194 C 434.244,261.698 438.636,256.283 439.141,254.543 C 439.626,252.869 440.053,247.840 440.091,243.366 C 440.169,234.124 438.396,229.462 432.598,223.665 C 427.951,219.018 413.145,211.119 407.677,210.369 C 401.103,209.468 393.280,211.609 391.265,214.862 C 384.470,225.831 379.821,232.086 372.471,240.148 L 364.000,249.440 L 364.076,254.970 C 364.184,262.806 365.718,266.023 372.130,271.858 C 376.798,276.106 378.679,277.135 383.130,277.874 C 390.878,279.161 405.291,279.175 412.918,277.902 Z" fill="#6a00a7" stroke="black" stroke-width="0.5" fill-rule="evenodd"/>
</svg>
