<?xml version='1.0' encoding='UTF-8'?>
<svg version="1.1" xmlns="http://www.w3.org/2000/svg" width="1000" height="600" viewBox="0 0 1000 600">
  <path d="M 374.865,255.569 C 377.503,254.231 384.576,252.191 390.581,251.035 C 406.933,247.887 408.686,247.299 409.372,244.742 C 410.513,240.482 410.020,225.983 408.622,222.718 C 406.558,217.897 399.037,210.668 394.500,209.145 C 388.851,207.249 368.179,206.471 362.266,207.932 C 356.181,209.436 347.499,215.133 344.969,219.284 C 343.580,221.561 343.006,224.306 343.004,228.685 C 342.999,236.134 343.983,238.949 348.879,245.498 C 350.935,248.249 353.852,252.188 355.360,254.250 C 357.999,257.860 358.325,258.000 364.084,258.000 C 368.438,258.000 371.373,257.338 374.865,255.569 Z" fill="#4f02a2" stroke="black" stroke-width="0.5" fill-rule="evenodd"/>
</svg>
