<?xml version='1.0' encoding='UTF-8'?>
<svg version="1.1" xmlns="http://www.w3.org/2000/svg" width="1000" height="600" viewBox="0 0 1000 600">
  <path d="M 403.354,335.750 C 404.114,333.962 406.820,329.834 409.368,326.575 C 411.915,323.317 414.000,320.241 414.000,319.741 C 414.000,319.241 422.887,309.931 433.750,299.053 C 451.597,281.179 454.025,279.101 458.947,277.490 L 464.394,275.708 L 460.502,272.441 C 454.474,267.380 444.409,265.639 424.406,266.197 C 409.398,266.616 408.063,266.819 400.762,269.786 C 396.505,271.515 388.444,274.060 382.848,275.442 C 377.251,276.823 371.059,278.803 369.086,279.842 C 349.890,289.950 348.437,291.316 349.247,298.496 C 350.266,307.539 361.601,318.435 378.500,326.617 C 383.450,329.014 390.425,332.743 394.000,334.903 C 397.575,337.064 400.831,338.870 401.237,338.916 C 401.642,338.962 402.595,337.538 403.354,335.750 Z" fill="#eff821" stroke="black" stroke-width="0.5" fill-rule="evenodd"/>
</svg>
