<?xml version='1.0' encoding='UTF-8'?>
<svg version="1.1" xmlns="http://www.w3.org/2000/svg" width="1000" height="600" viewBox="0 0 1000 600">
  <path d="M 549.526,198.553 C 551.431,197.758 558.775,191.345 565.848,184.303 C 576.286,173.911 579.666,169.801 583.797,162.481 C 589.860,151.736 590.948,147.560 590.960,135.000 C 590.974,119.356 588.185,110.913 581.696,106.956 C 577.416,104.347 572.573,104.495 566.514,107.422 C 563.756,108.755 557.938,111.507 553.584,113.540 C 544.294,117.876 534.201,127.316 527.078,138.331 C 523.000,144.636 522.625,145.772 522.201,153.097 C 521.781,160.351 521.997,161.567 524.727,167.266 C 526.369,170.695 528.517,176.650 529.501,180.500 C 531.099,186.750 531.953,188.169 537.479,193.750 C 540.882,197.188 544.206,200.000 544.865,200.000 C 545.525,200.000 547.622,199.349 549.526,198.553 Z" fill="#f9db24" stroke="black" stroke-width="0.5" fill-rule="evenodd"/>
</svg>
