<?xml version='1.0' encoding='UTF-8'?>
<svg version="1.1" xmlns="http://www.w3.org/2000/svg" width="1000" height="600" viewBox="0 0 1000 600">
  <path d="M 607.566,335.850 C 608.702,334.831 616.499,330.481 624.894,326.183 C 633.288,321.885 642.428,316.412 645.204,314.020 C 655.816,304.880 659.051,294.868 653.250,289.123 C 648.274,284.195 634.124,277.320 623.327,274.583 C 617.743,273.167 609.648,270.558 605.337,268.784 C 597.544,265.576 597.401,265.557 580.000,265.529 C 559.293,265.495 550.967,266.843 545.058,271.189 C 542.826,272.830 541.000,274.478 541.000,274.852 C 541.000,275.225 543.161,276.298 545.802,277.236 C 549.761,278.642 553.823,282.149 568.922,297.195 C 588.927,317.132 597.669,327.207 601.113,334.296 C 603.397,338.997 603.917,339.122 607.566,335.850 Z" fill="#eff821" stroke="black" stroke-width="0.5" fill-rule="evenodd"/>
</svg>
