<?xml version='1.0' encoding='UTF-8'?>
<svg version="1.1" xmlns="http://www.w3.org/2000/svg" width="1000" height="600" viewBox="0 0 1000 600">
  <path d="M 461.656,194.764 C 468.077,188.692 469.244,186.705 471.493,178.027 C 472.403,174.516 474.292,169.384 475.691,166.624 C 477.931,162.203 478.181,160.686 477.788,153.898 C 477.390,147.020 476.885,145.422 473.086,139.028 C 468.323,131.011 455.321,117.387 449.988,114.824 C 427.040,103.796 423.881,103.131 417.261,107.926 C 410.941,112.504 409.500,117.470 409.500,134.668 L 409.500,148.837 L 414.986,159.668 C 420.117,169.800 421.360,171.390 434.235,184.282 C 452.382,202.453 453.197,202.764 461.656,194.764 Z" fill="#f9db24" stroke="black" stroke-width="0.5" fill-rule="evenodd"/>
</svg>
