<?xml version='1.0' encoding='UTF-8'?>
<svg version="1.1" xmlns="http://www.w3.org/2000/svg" width="1000" height="600" viewBox="0 0 1000 600">
  <path d="M 398.795,334.750 C 401.817,327.950 411.373,316.788 430.582,297.622 C 444.385,283.850 449.748,279.163 453.934,277.215 L 459.367,274.685 L 455.614,271.535 C 450.751,267.452 444.075,265.998 427.000,265.302 C 411.519,264.671 402.771,265.754 393.550,269.443 C 390.014,270.858 382.706,273.179 377.310,274.601 C 366.964,277.329 351.722,284.608 346.846,289.151 C 340.813,294.771 344.144,304.722 355.333,314.510 C 358.304,317.109 366.392,321.955 374.551,326.026 C 382.300,329.891 390.184,334.373 392.070,335.986 C 393.957,337.599 395.816,338.937 396.203,338.959 C 396.590,338.982 397.756,337.087 398.795,334.750 Z" fill="#eff821" stroke="black" stroke-width="0.5" fill-rule="evenodd"/>
</svg>
