<?xml version='1.0' encoding='UTF-8'?>
<svg version="1.1" xmlns="http://www.w3.org/2000/svg" width="1000" height="600" viewBox="0 0 1000 600">
  <path d="M 673.000,386.406 C 679.875,385.559 688.650,384.007 692.500,382.957 C 696.350,381.906 703.125,380.110 707.555,378.966 C 711.985,377.822 716.935,375.827 718.555,374.533 C 721.351,372.300 721.496,371.808 721.422,364.840 C 721.359,358.965 720.813,356.465 718.687,352.313 C 717.226,349.461 714.917,344.168 713.556,340.553 C 712.195,336.937 709.765,332.065 708.155,329.725 C 704.685,324.681 691.500,312.001 687.975,310.318 C 678.180,305.639 667.542,301.000 666.612,301.001 C 666.000,301.002 660.100,305.078 653.500,310.060 C 646.900,315.041 638.905,320.508 635.732,322.207 C 628.466,326.101 617.793,335.808 615.525,340.588 C 613.344,345.185 613.973,348.503 618.415,355.837 C 620.301,358.952 622.663,364.169 623.662,367.432 C 624.957,371.657 626.892,374.909 630.386,378.732 C 640.065,389.323 643.819,389.999 673.000,386.406 Z" fill="#f9db24" stroke="black" stroke-width="0.5" fill-rule="evenodd"/>
</svg>
