<?xml version='1.0' encoding='UTF-8'?>
<svg version="1.1" xmlns="http://www.w3.org/2000/svg" width="1000" height="600" viewBox="0 0 1000 600">
  <path d="M 571.000,261.920 C 571.000,261.392 572.785,257.256 574.967,252.729 C 580.164,241.951 580.960,236.522 581.914,205.390 C 582.569,184.008 583.021,178.665 584.406,175.890 C 586.012,172.672 586.005,172.424 584.277,171.000 C 583.276,170.175 581.460,168.090 580.242,166.366 C 577.586,162.605 574.929,162.067 564.520,163.182 C 555.544,164.144 552.948,165.352 547.239,171.219 C 543.346,175.220 542.848,176.331 541.490,184.050 C 538.479,201.161 540.146,216.149 545.539,220.449 C 547.531,222.038 548.621,224.454 550.049,230.445 C 551.500,236.535 552.701,239.165 555.292,241.922 C 561.624,248.663 566.997,256.258 568.147,260.096 C 569.152,263.452 571.000,264.633 571.000,261.920 Z" fill="#eff821" stroke="black" stroke-width="0.5" fill-rule="evenodd"/>
</svg>
