<?xml version='1.0' encoding='UTF-8'?>
<svg version="1.1" xmlns="http://www.w3.org/2000/svg" width="1000" height="600" viewBox="0 0 1000 600">
  <path d="M 466.540,540.448 C 472.190,538.976 491.846,528.055 508.003,517.410 C 514.978,512.814 532.573,496.813 536.103,491.855 C 539.233,487.460 538.787,484.784 533.999,479.226 C 531.661,476.512 529.017,472.115 528.124,469.456 C 526.564,464.814 526.224,464.510 519.538,461.787 C 515.710,460.227 511.631,458.062 510.474,456.976 C 507.856,454.516 506.992,454.515 502.281,456.970 C 500.201,458.053 495.015,459.606 490.756,460.421 C 486.496,461.235 480.964,462.807 478.463,463.913 C 471.685,466.912 462.893,476.254 460.029,483.500 C 458.726,486.800 456.852,490.671 455.867,492.102 C 454.881,493.533 453.630,496.690 453.085,499.119 C 452.541,501.547 451.014,506.002 449.692,509.017 C 448.370,512.033 446.031,518.226 444.495,522.779 C 441.983,530.221 441.823,531.467 442.913,535.104 C 443.821,538.133 444.925,539.497 447.312,540.535 C 451.562,542.384 459.241,542.349 466.540,540.448 Z" fill="#0c0786" stroke="black" stroke-width="0.5" fill-rule="evenodd"/>
</svg>
