<?xml version='1.0' encoding='UTF-8'?>
<svg version="1.1" xmlns="http://www.w3.org/2000/svg" width="1000" height="600" viewBox="0 0 1000 600">
  <path d="M 547.452,540.585 C 554.358,537.699 554.570,533.401 548.597,517.340 C 546.175,510.828 543.479,502.971 542.607,499.881 C 541.734,496.790 540.361,493.715 539.556,493.046 C 538.750,492.378 536.277,488.032 534.060,483.388 C 531.793,478.639 528.016,472.794 525.427,470.025 C 520.682,464.953 517.825,463.646 502.500,459.539 C 499.200,458.655 494.816,457.205 492.758,456.317 L 489.016,454.703 L 478.556,460.102 L 468.096,465.500 L 466.076,471.027 C 464.933,474.154 462.523,478.039 460.528,479.973 C 454.316,485.994 454.950,487.421 470.750,502.969 C 482.088,514.126 486.079,517.365 493.500,521.429 C 498.450,524.140 507.209,529.289 512.964,532.871 C 518.808,536.508 525.651,539.923 528.464,540.606 C 535.384,542.288 543.398,542.278 547.452,540.585 Z" fill="#0c0786" stroke="black" stroke-width="0.5" fill-rule="evenodd"/>
</svg>
