<?xml version='1.0' encoding='UTF-8'?>
<svg version="1.1" xmlns="http://www.w3.org/2000/svg" width="1000" height="600" viewBox="0 0 1000 600">
  <path d="M 664.217,329.344 C 670.731,323.602 671.689,321.938 672.471,315.000 C 673.492,305.943 671.678,299.725 662.855,282.044 C 655.691,267.688 653.719,264.624 647.412,258.044 L 640.182,250.500 L 629.336,250.168 C 620.195,249.888 617.662,250.163 613.223,251.912 C 610.314,253.059 601.135,254.892 592.728,256.007 C 571.850,258.774 566.769,259.762 565.833,261.235 C 564.715,262.998 564.801,272.345 565.964,275.404 C 566.494,276.798 569.627,281.336 572.927,285.489 C 576.227,289.642 580.569,295.843 582.575,299.270 C 586.941,306.727 602.323,323.787 605.934,325.178 C 607.345,325.722 612.775,326.989 618.000,327.995 C 623.225,329.000 629.750,330.738 632.500,331.857 C 636.409,333.447 639.837,333.903 648.217,333.945 L 658.933,334.000 L 664.217,329.344 Z" fill="#0c0786" stroke="black" stroke-width="0.5" fill-rule="evenodd"/>
</svg>
