<?xml version='1.0' encoding='UTF-8'?>
<svg version="1.1" xmlns="http://www.w3.org/2000/svg" width="1000" height="600" viewBox="0 0 1000 600">
  <path d="M 470.750,473.403 C 476.775,470.476 485.914,462.492 489.053,457.414 C 493.002,451.025 490.438,449.005 458.000,432.942 C 436.187,422.140 431.460,419.019 416.281,405.394 C 410.834,400.505 408.299,397.317 405.957,392.410 C 404.250,388.832 398.611,380.244 393.426,373.324 C 388.242,366.404 383.993,360.463 383.985,360.121 C 383.976,359.780 383.573,358.874 383.088,358.108 C 382.362,356.962 381.670,357.099 379.167,358.881 C 377.495,360.071 373.244,362.395 369.720,364.044 L 363.313,367.042 L 362.086,373.904 C 360.664,381.862 361.512,386.381 365.530,392.272 C 366.945,394.347 369.398,399.227 370.980,403.116 C 375.213,413.517 377.669,416.630 398.000,437.367 C 416.492,456.229 432.108,469.294 440.871,473.235 C 450.541,477.584 462.011,477.648 470.750,473.403 Z" fill="#330497" stroke="black" stroke-width="0.5" fill-rule="evenodd"/>
</svg>
