<?xml version='1.0' encoding='UTF-8'?>
<svg version="1.1" xmlns="http://www.w3.org/2000/svg" width="1000" height="600" viewBox="0 0 1000 600">
  <path d="M 653.462,333.014 C 654.888,332.472 658.254,329.972 660.941,327.458 C 666.872,321.910 668.576,316.413 667.679,305.716 C 667.184,299.808 666.125,296.741 660.907,286.106 C 652.349,268.663 644.977,257.158 639.811,253.182 L 635.500,249.864 L 624.000,250.182 C 613.800,250.464 612.150,250.763 609.404,252.824 C 606.136,255.278 595.508,257.105 576.500,258.481 C 565.771,259.258 562.638,260.305 561.130,263.615 C 559.753,266.637 559.669,271.999 560.946,275.358 C 561.466,276.726 565.233,282.268 569.317,287.673 C 573.401,293.078 577.541,299.075 578.517,301.000 C 580.767,305.438 596.538,322.710 599.953,324.476 C 601.368,325.208 604.770,326.110 607.513,326.482 C 615.132,327.514 623.136,329.962 625.838,332.087 C 627.907,333.715 629.955,334.000 639.570,334.000 C 645.785,334.000 652.037,333.556 653.462,333.014 Z" fill="#0c0786" stroke="black" stroke-width="0.5" fill-rule="evenodd"/>
</svg>
