<?xml version='1.0' encoding='UTF-8'?>
<svg version="1.1" xmlns="http://www.w3.org/2000/svg" width="1000" height="600" viewBox="0 0 1000 600">
  <path d="M 630.263,416.592 C 640.945,411.477 642.719,410.213 651.059,401.777 C 657.382,395.381 661.180,390.554 663.450,386.027 C 665.251,382.437 668.018,377.038 669.599,374.029 L 672.474,368.558 L 672.459,349.529 C 672.447,333.136 672.172,329.738 670.473,325.000 C 668.517,319.548 668.413,319.454 658.522,314.180 C 649.322,309.275 647.989,308.850 641.412,308.724 C 632.952,308.562 631.995,309.074 621.921,319.148 C 614.195,326.874 612.000,330.781 612.000,336.809 C 612.000,341.826 609.797,349.072 607.136,352.810 C 605.979,354.435 604.394,358.498 603.615,361.839 C 602.835,365.180 601.181,369.341 599.939,371.086 C 597.963,373.861 597.848,374.524 599.017,376.379 C 603.869,384.074 604.334,389.261 600.572,393.732 C 599.135,395.440 591.798,399.822 582.607,404.462 C 568.872,411.396 565.249,414.000 569.337,414.000 C 570.008,414.000 573.906,415.605 577.999,417.567 C 586.569,421.674 595.378,423.059 609.542,422.525 C 618.151,422.201 619.145,421.917 630.263,416.592 Z" fill="#330497" stroke="black" stroke-width="0.5" fill-rule="evenodd"/>
</svg>
