<?xml version='1.0' encoding='UTF-8'?>
<svg version="1.1" xmlns="http://www.w3.org/2000/svg" width="1000" height="600" viewBox="0 0 1000 600">
  <path d="M 557.909,475.460 C 568.288,473.013 579.391,464.515 604.842,439.538 C 625.392,419.369 629.488,414.216 637.164,398.876 C 642.640,387.932 643.343,385.864 643.236,381.000 C 643.169,377.975 642.510,373.475 641.772,371.000 C 640.482,366.677 640.067,366.318 631.234,361.878 L 622.039,357.256 L 610.155,373.878 C 603.618,383.020 597.450,392.300 596.447,394.500 C 593.805,400.299 578.862,414.859 569.000,421.244 C 564.325,424.271 551.854,431.116 541.286,436.457 C 520.161,447.131 514.000,451.063 514.000,453.872 C 514.000,458.733 529.714,473.155 537.754,475.673 C 542.988,477.312 550.382,477.234 557.909,475.460 Z" fill="#330497" stroke="black" stroke-width="0.5" fill-rule="evenodd"/>
</svg>
