<?xml version='1.0' encoding='UTF-8'?>
<svg version="1.1" xmlns="http://www.w3.org/2000/svg" width="1000" height="600" viewBox="0 0 1000 600">
  <path d="M 470.995,540.433 C 474.832,539.560 479.572,537.654 481.693,536.131 C 486.059,532.993 499.264,525.085 509.500,519.477 C 514.569,516.700 520.156,512.036 529.754,502.571 C 545.037,487.498 545.406,486.602 539.157,479.728 C 537.044,477.402 534.487,473.156 533.475,470.292 C 531.647,465.118 531.567,465.050 521.467,460.030 C 511.603,455.128 511.197,455.020 507.899,456.393 C 506.030,457.172 500.000,459.030 494.500,460.521 C 489.000,462.013 482.905,464.043 480.955,465.032 C 475.648,467.726 469.250,475.257 465.870,482.790 C 464.217,486.475 461.763,490.934 460.416,492.699 C 459.070,494.464 457.684,497.391 457.336,499.204 C 456.988,501.017 454.654,507.900 452.149,514.500 C 446.985,528.106 446.158,535.307 449.354,538.839 C 452.450,542.260 460.391,542.845 470.995,540.433 Z" fill="#0c0786" stroke="black" stroke-width="0.5" fill-rule="evenodd"/>
</svg>
