<?xml version='1.0' encoding='UTF-8'?>
<svg version="1.1" xmlns="http://www.w3.org/2000/svg" width="1000" height="600" viewBox="0 0 1000 600">
  <path d="M 466.305,473.639 C 471.822,470.940 481.160,462.767 484.403,457.799 C 488.153,452.054 485.155,449.642 455.473,434.526 C 445.188,429.288 433.652,422.928 429.838,420.392 C 419.117,413.265 406.886,401.146 402.995,393.796 C 401.162,390.333 395.801,382.185 391.081,375.688 C 386.362,369.192 381.498,362.355 380.272,360.497 L 378.045,357.117 L 368.772,361.994 C 360.538,366.324 359.351,367.297 358.170,370.685 C 357.438,372.783 356.772,377.017 356.689,380.092 C 356.557,385.030 357.218,387.075 362.341,397.567 C 365.532,404.102 370.334,412.403 373.011,416.014 C 382.462,428.763 419.940,463.925 433.013,472.308 C 441.184,477.547 457.023,478.181 466.305,473.639 Z" fill="#330497" stroke="black" stroke-width="0.5" fill-rule="evenodd"/>
</svg>
