<?xml version='1.0' encoding='UTF-8'?>
<svg version="1.1" xmlns="http://www.w3.org/2000/svg" width="1000" height="600" viewBox="0 0 1000 600">
  <path d="M 367.826,331.652 C 369.655,330.672 375.934,328.964 381.779,327.856 C 387.624,326.748 393.602,325.223 395.063,324.467 C 398.761,322.555 414.032,305.550 417.484,299.500 C 419.054,296.750 423.074,290.964 426.419,286.642 C 434.548,276.139 434.970,275.292 434.972,269.500 C 434.974,259.493 434.118,258.852 419.000,257.531 C 406.569,256.445 393.208,254.050 387.344,251.856 C 382.669,250.107 380.100,249.844 370.798,250.162 L 359.785,250.539 L 352.463,258.176 C 345.979,264.939 344.148,267.803 336.450,283.231 C 327.994,300.180 327.755,300.851 327.629,308.075 C 327.427,319.709 328.315,322.248 334.796,328.560 L 340.500,334.115 L 352.500,333.774 C 361.606,333.516 365.302,333.004 367.826,331.652 Z" fill="#0c0786" stroke="black" stroke-width="0.5" fill-rule="evenodd"/>
</svg>
