<?xml version='1.0' encoding='UTF-8'?>
<svg version="1.1" xmlns="http://www.w3.org/2000/svg" width="1000" height="600" viewBox="0 0 1000 600">
  <path d="M 404.500,422.058 C 411.085,421.408 415.378,420.322 420.500,418.010 C 424.350,416.273 428.844,414.276 430.487,413.574 L 433.475,412.296 L 418.676,404.898 C 400.259,395.691 397.000,393.179 397.000,388.192 C 397.000,386.177 398.191,382.176 399.646,379.300 L 402.291,374.071 L 399.831,370.785 C 398.477,368.978 396.824,364.997 396.156,361.939 C 395.488,358.880 393.876,354.810 392.574,352.895 C 389.741,348.724 388.021,342.959 387.984,337.500 C 387.940,331.154 384.770,325.750 376.072,317.191 C 367.301,308.561 365.596,307.827 356.432,308.738 C 352.996,309.080 348.165,310.894 341.432,314.371 L 331.500,319.500 L 329.635,325.000 C 325.737,336.494 326.577,368.538 330.954,375.338 C 332.074,377.077 334.623,381.774 336.618,385.776 C 341.434,395.433 357.425,411.775 364.688,414.460 C 367.335,415.439 371.525,417.398 374.000,418.814 C 381.243,422.957 388.051,423.681 404.500,422.058 Z" fill="#330497" stroke="black" stroke-width="0.5" fill-rule="evenodd"/>
</svg>
