<?xml version='1.0' encoding='UTF-8'?>
<svg version="1.1" xmlns="http://www.w3.org/2000/svg" width="1000" height="600" viewBox="0 0 1000 600">
  <path d="M 590.500,418.236 C 594.350,416.635 601.299,414.062 605.941,412.517 C 617.159,408.785 619.000,406.878 619.000,398.996 C 619.000,391.450 617.830,389.123 608.440,377.993 C 598.650,366.390 596.681,365.474 582.149,365.762 C 575.478,365.895 569.771,366.506 568.310,367.244 C 566.649,368.083 564.863,370.798 562.931,375.425 C 561.340,379.234 558.793,383.651 557.270,385.241 C 554.577,388.052 554.501,388.441 554.527,399.321 C 554.566,415.141 555.903,417.489 566.941,421.116 C 571.769,422.703 583.084,421.319 590.500,418.236 Z" fill="#f68e44" stroke="black" stroke-width="0.5" fill-rule="evenodd"/>
</svg>
