<?xml version='1.0' encoding='UTF-8'?>
<svg version="1.1" xmlns="http://www.w3.org/2000/svg" width="1000" height="600" viewBox="0 0 1000 600">
  <path d="M 562.450,419.565 C 565.998,418.497 568.622,416.646 572.702,412.331 L 578.186,406.532 L 577.826,398.516 C 577.491,391.059 577.209,390.168 573.779,385.734 C 571.751,383.112 569.312,378.493 568.359,375.469 C 565.710,367.067 564.757,366.553 551.148,366.185 C 540.221,365.889 539.222,366.026 535.000,368.408 C 532.525,369.804 527.444,372.549 523.710,374.506 C 517.189,377.924 516.789,378.352 513.625,385.283 C 511.813,389.252 509.581,393.118 508.665,393.872 C 507.749,394.627 507.000,395.547 507.000,395.917 C 507.000,396.286 509.363,399.125 512.250,402.225 C 517.915,408.308 531.744,416.936 539.803,419.416 C 545.931,421.301 556.452,421.370 562.450,419.565 Z" fill="#ec7853" stroke="black" stroke-width="0.5" fill-rule="evenodd"/>
</svg>
