<?xml version='1.0' encoding='UTF-8'?>
<svg version="1.1" xmlns="http://www.w3.org/2000/svg" width="1000" height="600" viewBox="0 0 1000 600">
  <path d="M 367.661,316.750 C 370.218,312.762 372.956,307.954 373.746,306.064 C 374.536,304.173 376.269,301.203 377.597,299.462 C 378.925,297.721 380.943,293.418 382.082,289.898 C 383.222,286.379 385.404,281.920 386.933,279.988 C 388.876,277.532 390.071,274.375 390.907,269.488 C 392.694,259.044 393.780,255.550 396.193,252.482 C 397.526,250.788 398.447,248.092 398.553,245.579 C 398.771,240.405 402.031,233.903 405.942,230.842 C 408.614,228.752 409.012,227.721 409.601,221.380 C 410.209,214.837 410.084,214.111 408.051,212.381 C 406.834,211.347 403.737,208.408 401.169,205.850 C 391.442,196.163 374.787,189.549 366.275,191.993 C 363.536,192.780 361.303,194.598 358.134,198.623 C 353.454,204.568 343.820,224.973 341.430,234.000 C 339.442,241.511 338.506,271.767 339.836,285.500 C 341.086,298.401 342.561,303.097 347.320,309.332 C 349.243,311.851 351.342,315.505 351.984,317.453 C 353.360,321.622 356.355,324.000 360.229,324.000 C 362.591,324.000 363.718,322.901 367.661,316.750 Z" fill="#fdc029" stroke="black" stroke-width="0.5" fill-rule="evenodd"/>
</svg>
