<?xml version='1.0' encoding='UTF-8'?>
<svg version="1.1" xmlns="http://www.w3.org/2000/svg" width="1000" height="600" viewBox="0 0 1000 600">
  <path d="M 541.000,438.508 C 548.002,434.410 554.239,431.926 561.009,430.540 C 565.129,429.696 569.507,428.773 570.738,428.487 C 572.100,428.171 573.804,426.310 575.092,423.734 C 576.257,421.405 579.115,417.025 581.444,414.000 C 583.773,410.975 587.705,404.675 590.182,400.000 C 599.332,382.729 603.723,375.247 610.870,364.753 C 615.870,357.412 618.356,352.762 618.716,350.078 C 619.510,344.164 617.061,326.294 615.133,323.931 C 614.235,322.829 609.000,320.400 603.500,318.532 C 598.000,316.665 590.709,313.972 587.297,312.548 C 579.857,309.442 564.308,308.259 551.242,309.803 C 544.304,310.624 541.903,311.433 536.213,314.871 C 531.639,317.635 526.334,319.732 519.864,321.335 C 513.644,322.876 508.697,324.800 505.756,326.824 C 503.266,328.537 498.866,330.870 495.979,332.008 C 489.412,334.597 480.263,342.108 471.623,352.005 L 467.746,356.446 L 468.253,364.573 C 468.708,371.864 469.133,373.241 472.388,377.974 C 474.384,380.875 476.705,385.617 477.547,388.513 C 478.388,391.408 481.785,397.765 485.095,402.639 C 488.405,407.512 493.086,414.425 495.498,418.000 C 501.934,427.540 503.254,428.727 509.421,430.520 C 512.502,431.416 516.327,433.245 517.920,434.586 C 519.513,435.927 522.095,437.690 523.658,438.506 C 527.332,440.422 537.727,440.423 541.000,438.508 Z" fill="#fdc029" stroke="black" stroke-width="0.5" fill-rule="evenodd"/>
</svg>
