<?xml version='1.0' encoding='UTF-8'?>
<svg version="1.1" xmlns="http://www.w3.org/2000/svg" width="1000" height="600" viewBox="0 0 1000 600">
  <path d="M 640.056,223.656 C 644.700,220.718 649.023,217.230 649.662,215.906 C 650.301,214.583 651.396,210.046 652.095,205.823 C 653.316,198.447 653.261,197.831 650.706,190.076 C 647.346,179.877 639.274,162.712 633.425,153.328 C 628.531,145.475 611.256,128.299 605.512,125.573 C 597.435,121.740 592.663,125.144 588.728,137.548 C 587.341,141.921 585.255,148.090 584.092,151.256 C 579.426,163.963 579.357,179.908 583.927,189.350 C 585.791,193.200 602.240,209.248 620.311,224.847 C 626.917,230.550 629.401,230.400 640.056,223.656 Z" fill="#fca635" stroke="black" stroke-width="0.5" fill-rule="evenodd"/>
</svg>
