<?xml version='1.0' encoding='UTF-8'?>
<svg version="1.1" xmlns="http://www.w3.org/2000/svg" width="1000" height="600" viewBox="0 0 1000 600">
  <path d="M 361.405,319.129 C 363.372,316.450 366.524,311.135 368.411,307.317 C 370.298,303.500 372.527,299.808 373.364,299.113 C 374.202,298.417 375.828,295.021 376.978,291.566 C 378.128,288.110 380.403,283.180 382.033,280.609 C 383.875,277.705 385.733,272.564 386.940,267.030 C 388.878,258.151 390.897,253.035 393.742,249.787 C 394.567,248.845 394.959,247.335 394.612,246.430 C 393.449,243.399 396.078,236.871 400.312,232.278 C 404.385,227.858 404.507,227.526 404.856,219.830 L 405.215,211.924 L 401.247,210.365 C 398.554,209.307 396.777,207.755 395.719,205.537 C 393.764,201.437 380.182,193.802 371.716,192.045 C 359.772,189.565 352.660,195.787 343.611,216.633 C 335.199,236.014 335.500,234.181 335.500,266.000 C 335.500,297.979 336.040,301.268 342.581,309.097 C 344.462,311.348 346.000,313.539 346.000,313.967 C 346.000,314.396 346.921,316.828 348.047,319.373 C 349.972,323.725 350.323,324.000 353.962,324.000 C 357.434,324.000 358.196,323.501 361.405,319.129 Z" fill="#fdc029" stroke="black" stroke-width="0.5" fill-rule="evenodd"/>
</svg>
