<?xml version='1.0' encoding='UTF-8'?>
<svg version="1.1" xmlns="http://www.w3.org/2000/svg" width="1000" height="600" viewBox="0 0 1000 600">
  <path d="M 634.543,223.744 C 641.749,219.515 643.880,217.711 645.441,214.516 C 647.866,209.556 648.760,195.922 647.026,190.375 C 646.359,188.244 641.772,178.242 636.832,168.148 C 628.487,151.099 627.281,149.205 619.844,141.457 C 603.998,124.952 596.544,121.147 590.317,126.387 C 587.777,128.524 586.297,131.772 581.950,144.742 C 577.397,158.325 576.607,161.837 576.221,170.184 C 575.424,187.417 577.739,191.569 597.261,207.907 C 601.471,211.431 608.143,217.618 612.087,221.657 C 621.095,230.880 622.207,230.984 634.543,223.744 Z" fill="#fca635" stroke="black" stroke-width="0.5" fill-rule="evenodd"/>
</svg>
