<?xml version='1.0' encoding='UTF-8'?>
<svg version="1.1" xmlns="http://www.w3.org/2000/svg" width="1000" height="600" viewBox="0 0 1000 600">
  <path d="M 643.430,323.027 C 645.166,322.367 646.959,320.051 649.003,315.832 C 650.661,312.411 652.891,308.680 653.961,307.542 C 659.383,301.770 661.568,285.570 660.641,258.000 C 659.950,237.438 659.078,233.539 651.309,216.293 C 645.123,202.562 638.032,192.727 633.498,191.589 C 625.658,189.621 607.724,197.209 598.388,206.444 C 595.577,209.225 592.487,212.128 591.523,212.897 C 590.026,214.090 589.869,215.297 590.450,221.185 C 591.083,227.614 591.422,228.369 595.502,232.449 C 599.983,236.930 602.655,243.361 601.521,246.935 C 601.156,248.083 601.879,249.891 603.447,251.755 C 606.053,254.851 608.237,261.736 609.466,270.727 C 609.941,274.197 611.138,277.157 613.029,279.537 C 614.595,281.508 616.874,286.131 618.093,289.810 C 619.312,293.490 621.314,297.850 622.543,299.500 C 623.771,301.150 625.967,304.877 627.422,307.783 C 628.877,310.689 631.641,315.527 633.564,318.533 C 637.193,324.205 638.620,324.855 643.430,323.027 Z" fill="#fdc029" stroke="black" stroke-width="0.5" fill-rule="evenodd"/>
</svg>
