<?xml version='1.0' encoding='UTF-8'?>
<svg version="1.1" xmlns="http://www.w3.org/2000/svg" width="1000" height="600" viewBox="0 0 1000 600">
  <path d="M 549.397,436.167 C 555.155,432.516 561.132,430.438 569.758,429.088 C 573.199,428.549 576.419,427.859 576.913,427.554 C 577.407,427.249 579.053,424.862 580.571,422.250 C 582.090,419.637 584.761,415.700 586.508,413.500 C 588.255,411.300 591.724,405.675 594.218,401.000 C 604.508,381.709 609.026,374.034 615.282,365.213 C 624.184,352.662 624.513,351.455 622.921,337.171 C 621.363,323.198 620.957,322.644 608.942,318.103 C 604.299,316.348 597.800,313.695 594.500,312.206 C 588.638,309.562 588.052,309.500 569.000,309.500 L 549.500,309.500 L 539.500,314.163 C 534.000,316.727 526.462,319.721 522.750,320.816 C 519.037,321.910 513.637,324.343 510.750,326.222 C 507.862,328.100 503.131,330.597 500.235,331.770 C 494.652,334.031 487.077,339.964 478.239,349.000 L 472.859,354.500 L 473.370,363.327 C 473.856,371.733 474.190,372.780 480.401,385.336 C 483.987,392.587 489.445,402.115 492.530,406.510 C 495.615,410.904 500.133,417.505 502.572,421.179 C 506.473,427.056 507.815,428.240 513.752,431.043 C 517.464,432.794 521.789,435.144 523.365,436.264 C 530.100,441.051 541.765,441.007 549.397,436.167 Z" fill="#fdc029" stroke="black" stroke-width="0.5" fill-rule="evenodd"/>
</svg>
