<?xml version='1.0' encoding='UTF-8'?>
<svg version="1.1" xmlns="http://www.w3.org/2000/svg" width="1000" height="600" viewBox="0 0 1000 600">
  <path d="M 460.408,379.498 C 461.893,378.122 464.375,376.340 465.924,375.539 C 467.473,374.738 470.817,371.773 473.355,368.950 C 476.932,364.972 478.426,362.208 480.000,356.659 C 481.116,352.721 483.336,346.125 484.933,342.000 C 486.529,337.875 488.121,332.682 488.470,330.459 C 489.173,325.988 487.625,314.467 485.778,310.412 C 483.963,306.428 462.471,296.435 450.098,293.822 C 444.819,292.707 437.835,290.716 434.578,289.397 C 420.662,283.764 414.117,287.819 406.553,306.757 C 402.744,316.294 402.002,319.335 401.441,327.707 C 400.769,337.729 402.120,349.225 404.275,351.828 C 404.880,352.558 407.653,354.299 410.437,355.696 C 418.758,359.871 428.047,366.530 435.891,373.943 C 439.956,377.784 443.781,381.133 444.391,381.385 C 445.001,381.636 448.247,381.878 451.604,381.921 C 456.792,381.988 458.113,381.625 460.408,379.498 Z" fill="#c23d80" stroke="black" stroke-width="0.5" fill-rule="evenodd"/>
</svg>
