<?xml version='1.0' encoding='UTF-8'?>
<svg version="1.1" xmlns="http://www.w3.org/2000/svg" width="1000" height="600" viewBox="0 0 1000 600">
  <path d="M 466.500,354.871 C 469.887,353.710 471.457,352.073 476.750,344.185 C 482.328,335.872 483.000,334.336 483.000,329.903 C 483.000,322.799 480.822,318.241 476.578,316.468 C 474.657,315.666 468.228,314.328 462.293,313.496 C 456.357,312.665 449.925,311.476 448.000,310.854 C 443.806,309.500 432.683,303.913 428.500,301.060 C 426.533,299.718 423.883,299.011 420.802,299.007 C 416.644,299.001 415.431,299.560 410.250,303.872 C 398.932,313.290 395.416,318.630 390.377,334.052 C 389.826,335.738 397.187,337.776 412.000,340.036 C 420.974,341.406 427.759,344.300 436.320,350.409 C 439.816,352.903 443.762,355.406 445.088,355.969 C 448.224,357.302 461.377,356.627 466.500,354.871 Z" fill="#9b179e" stroke="black" stroke-width="0.5" fill-rule="evenodd"/>
</svg>
