<?xml version='1.0' encoding='UTF-8'?>
<svg version="1.1" xmlns="http://www.w3.org/2000/svg" width="1000" height="600" viewBox="0 0 1000 600">
  <path d="M 557.500,402.455 C 573.020,397.299 574.527,396.627 577.403,393.578 C 579.000,391.885 582.600,386.675 585.403,382.000 L 590.500,373.500 L 590.423,360.000 L 590.346,346.500 L 585.135,334.125 C 579.031,319.629 575.958,314.836 567.061,305.938 C 561.962,300.837 558.018,298.112 549.363,293.704 C 534.860,286.319 529.371,284.890 520.028,286.063 C 516.082,286.558 511.098,287.490 508.952,288.133 C 504.561,289.448 504.103,290.358 499.588,306.718 C 497.863,312.968 494.625,320.426 489.531,329.878 C 481.078,345.563 479.580,350.783 480.192,362.409 C 480.589,369.960 481.048,371.368 487.059,383.500 C 495.468,400.472 495.691,400.600 519.300,402.076 C 528.468,402.649 537.889,403.739 540.235,404.499 C 545.305,406.140 547.022,405.937 557.500,402.455 Z" fill="#b02a8f" stroke="black" stroke-width="0.5" fill-rule="evenodd"/>
</svg>
