<?xml version='1.0' encoding='UTF-8'?>
<svg version="1.1" xmlns="http://www.w3.org/2000/svg" width="1000" height="600" viewBox="0 0 1000 600">
  <path d="M 550.267,399.519 C 560.132,396.949 563.257,394.989 565.861,389.739 C 569.070,383.270 569.857,370.955 567.634,362.000 C 566.176,356.129 565.421,354.948 559.836,349.799 C 556.434,346.664 552.359,343.563 550.781,342.909 C 549.066,342.199 547.342,340.361 546.500,338.346 C 545.725,336.490 544.358,334.691 543.462,334.347 C 540.914,333.369 521.398,343.547 516.604,348.355 C 514.330,350.635 510.306,356.100 507.662,360.500 L 502.855,368.500 L 503.255,376.871 L 503.654,385.242 L 509.077,390.259 C 515.871,396.543 517.886,397.864 523.224,399.531 C 529.013,401.339 543.304,401.332 550.267,399.519 Z" fill="#9b179e" stroke="black" stroke-width="0.5" fill-rule="evenodd"/>
</svg>
