<?xml version='1.0' encoding='UTF-8'?>
<svg version="1.1" xmlns="http://www.w3.org/2000/svg" width="1000" height="600" viewBox="0 0 1000 600">
  <path d="M 483.500,398.093 C 488.042,396.492 490.954,394.524 495.480,389.999 L 501.460,384.020 L 501.840,376.488 L 502.221,368.957 L 496.691,359.691 C 489.944,348.384 483.679,342.343 473.921,337.735 C 463.523,332.825 461.551,332.492 459.007,335.223 C 457.861,336.453 456.671,338.461 456.364,339.685 C 456.014,341.081 454.557,342.321 452.447,343.017 C 448.574,344.296 439.766,353.923 437.494,359.361 C 434.587,366.318 436.262,383.804 440.647,392.284 C 444.561,399.853 469.084,403.177 483.500,398.093 Z" fill="#9b179e" stroke="black" stroke-width="0.5" fill-rule="evenodd"/>
</svg>
