<?xml version='1.0' encoding='UTF-8'?>
<svg version="1.1" xmlns="http://www.w3.org/2000/svg" width="1000" height="600" viewBox="0 0 1000 600">
  <path d="M 546.790,405.115 C 548.830,404.078 553.425,402.420 557.000,401.430 C 571.277,397.475 571.708,397.135 580.321,383.000 L 585.500,374.500 L 585.474,361.000 C 585.450,348.982 585.191,346.951 583.112,342.500 C 581.828,339.750 579.301,333.801 577.496,329.280 C 571.004,313.019 560.379,302.243 541.633,292.909 C 530.859,287.544 528.348,286.686 522.094,286.239 C 513.952,285.656 503.215,288.000 500.554,290.941 C 499.679,291.907 498.096,297.251 497.035,302.814 C 495.148,312.718 494.028,315.978 491.476,319.000 C 490.779,319.825 487.849,325.000 484.966,330.500 C 482.082,336.000 478.773,342.300 477.611,344.500 C 475.815,347.903 475.501,350.216 475.509,360.000 L 475.518,371.500 L 480.331,382.124 C 485.290,393.070 489.190,398.006 494.445,399.988 C 496.065,400.599 503.490,401.517 510.945,402.029 C 528.068,403.204 533.503,403.913 537.949,405.551 C 542.641,407.280 542.517,407.286 546.790,405.115 Z" fill="#b02a8f" stroke="black" stroke-width="0.5" fill-rule="evenodd"/>
</svg>
