<?xml version='1.0' encoding='UTF-8'?>
<svg version="1.1" xmlns="http://www.w3.org/2000/svg" width="1000" height="600" viewBox="0 0 1000 600">
  <path d="M 554.782,355.449 C 556.827,354.596 561.742,351.658 565.704,348.921 C 574.342,342.953 578.445,341.410 590.972,339.415 C 601.250,337.778 607.967,336.126 609.399,334.883 C 609.913,334.436 609.593,333.028 608.649,331.587 C 607.742,330.203 606.996,328.492 606.990,327.785 C 606.971,325.274 602.212,316.310 598.882,312.515 C 597.022,310.395 592.889,306.487 589.698,303.830 C 581.869,297.312 578.431,297.260 567.781,303.494 C 557.298,309.630 551.778,311.650 541.912,312.960 C 529.801,314.568 521.416,316.882 519.322,319.196 C 517.917,320.749 517.500,322.846 517.500,328.355 C 517.500,335.471 517.525,335.537 523.757,344.722 C 529.487,353.167 530.413,354.066 534.757,355.402 C 541.066,357.342 550.192,357.364 554.782,355.449 Z" fill="#9b179e" stroke="black" stroke-width="0.5" fill-rule="evenodd"/>
</svg>
