<?xml version='1.0' encoding='UTF-8'?>
<svg version="1.1" xmlns="http://www.w3.org/2000/svg" width="1000" height="600" viewBox="0 0 1000 600">
  <path d="M 566.000,354.956 C 579.259,353.804 583.601,352.559 586.883,348.969 C 588.322,347.394 591.188,345.400 593.250,344.539 C 595.312,343.678 597.000,342.503 597.000,341.928 C 597.000,341.353 595.722,339.222 594.161,337.191 C 592.600,335.161 589.787,331.427 587.911,328.893 C 586.035,326.360 579.987,319.060 574.472,312.671 C 566.163,303.047 562.819,300.014 554.974,294.984 C 542.490,286.979 537.663,285.597 522.000,285.543 C 510.514,285.503 509.152,285.699 505.210,287.957 C 500.577,290.610 494.625,298.603 492.185,305.449 C 490.308,310.715 489.408,333.168 490.860,338.513 C 491.563,341.102 493.676,344.226 496.818,347.321 L 501.687,352.117 L 505.322,350.384 C 508.651,348.796 509.105,348.784 510.728,350.243 C 512.340,351.692 526.132,355.371 533.500,356.317 C 537.198,356.792 552.007,356.172 566.000,354.956 Z" fill="#c23d80" stroke="black" stroke-width="0.5" fill-rule="evenodd"/>
</svg>
