<?xml version='1.0' encoding='UTF-8'?>
<svg version="1.1" xmlns="http://www.w3.org/2000/svg" width="1000" height="600" viewBox="0 0 1000 600">
  <path d="M 458.703,375.663 C 463.541,372.597 468.765,368.483 470.312,366.520 C 471.859,364.557 474.835,357.900 476.927,351.726 C 479.018,345.552 481.445,338.700 482.321,336.500 C 485.251,329.135 483.386,310.218 479.445,307.336 C 474.692,303.861 451.819,294.764 439.500,291.449 C 421.205,286.527 419.231,286.331 414.139,288.929 C 408.871,291.616 406.306,295.795 401.512,309.500 C 397.942,319.707 397.634,321.473 397.242,334.000 C 396.707,351.129 397.111,352.235 405.239,355.886 C 408.683,357.433 412.850,359.825 414.500,361.201 C 416.150,362.577 418.557,364.259 419.848,364.939 C 421.140,365.619 425.640,369.745 429.848,374.108 L 437.500,382.039 L 443.703,381.639 C 449.181,381.285 450.935,380.586 458.703,375.663 Z" fill="#c23d80" stroke="black" stroke-width="0.5" fill-rule="evenodd"/>
</svg>
