<?xml version='1.0' encoding='UTF-8'?>
<svg version="1.1" xmlns="http://www.w3.org/2000/svg" width="1000" height="600" viewBox="0 0 1000 600">
  <path d="M 466.500,404.462 C 469.800,403.725 479.101,402.665 487.169,402.108 C 509.148,400.589 511.760,399.026 519.596,382.710 L 524.500,372.500 L 524.500,360.967 C 524.500,349.794 524.394,349.231 521.109,342.967 C 519.243,339.410 515.757,332.675 513.361,328.000 C 510.964,323.325 508.085,318.356 506.962,316.957 C 505.628,315.297 504.305,310.913 503.151,304.324 C 502.178,298.773 500.619,293.067 499.685,291.642 C 497.195,287.842 488.743,285.642 478.839,286.215 C 471.623,286.633 470.006,287.172 458.254,293.081 C 438.683,302.919 428.452,313.424 421.908,330.398 C 420.190,334.854 417.844,340.300 416.695,342.500 C 414.886,345.963 414.599,348.315 414.553,360.019 L 414.500,373.537 L 418.902,381.019 C 428.886,397.986 427.685,396.967 443.500,401.885 C 449.000,403.595 454.175,405.451 455.000,406.010 C 455.825,406.569 457.400,406.751 458.500,406.415 C 459.600,406.079 463.200,405.200 466.500,404.462 Z" fill="#b02a8f" stroke="black" stroke-width="0.5" fill-rule="evenodd"/>
</svg>
