<?xml version='1.0' encoding='UTF-8'?>
<svg version="1.1" xmlns="http://www.w3.org/2000/svg" width="1000" height="600" viewBox="0 0 1000 600">
  <path d="M 571.054,373.000 C 575.929,368.050 580.412,364.000 581.017,364.000 C 581.622,364.000 583.778,362.671 585.809,361.046 C 587.839,359.422 592.098,356.948 595.274,355.548 C 602.882,352.196 603.322,350.917 602.689,334.000 C 602.213,321.305 601.935,319.815 598.028,309.015 C 593.112,295.427 591.033,291.802 586.582,289.050 C 582.447,286.495 578.950,286.470 570.855,288.937 C 567.360,290.003 560.787,291.788 556.249,292.903 C 548.183,294.887 527.518,303.182 521.448,306.874 C 518.834,308.463 518.223,309.664 517.198,315.230 C 515.603,323.884 515.751,330.634 517.642,335.500 C 518.497,337.700 520.955,344.655 523.104,350.955 C 525.253,357.255 528.194,364.116 529.639,366.201 C 532.172,369.856 546.639,380.272 550.580,381.278 C 551.636,381.547 554.680,381.820 557.345,381.884 C 562.170,382.000 562.226,381.963 571.054,373.000 Z" fill="#c23d80" stroke="black" stroke-width="0.5" fill-rule="evenodd"/>
</svg>
