<?xml version='1.0' encoding='UTF-8'?>
<svg version="1.1" xmlns="http://www.w3.org/2000/svg" width="1000" height="600" viewBox="0 0 1000 600">
  <path d="M 321.901,433.855 C 322.504,432.125 324.496,428.862 326.328,426.605 C 334.043,417.096 340.035,407.026 340.651,402.530 C 341.264,398.055 341.220,397.969 335.260,392.174 C 327.231,384.366 324.032,383.494 303.500,383.520 C 290.329,383.536 286.941,383.842 284.338,385.250 C 277.549,388.922 275.436,394.998 278.130,403.101 C 279.870,408.332 287.636,415.735 295.490,419.647 C 299.335,421.562 303.835,424.237 305.490,425.591 C 315.161,433.501 319.575,436.924 320.152,436.959 C 320.511,436.982 321.298,435.585 321.901,433.855 Z" fill="#fad824" stroke="black" stroke-width="0.5" fill-rule="evenodd"/>
</svg>
