<?xml version='1.0' encoding='UTF-8'?>
<svg version="1.1" xmlns="http://www.w3.org/2000/svg" width="1000" height="600" viewBox="0 0 1000 600">
  <path d="M 431.627,536.550 C 435.420,534.653 440.371,531.518 442.630,529.585 C 446.307,526.437 446.968,525.150 448.938,517.294 C 450.148,512.468 452.507,505.402 454.179,501.593 C 458.354,492.080 457.820,487.842 451.837,483.000 C 449.458,481.075 444.157,476.234 440.058,472.242 C 435.311,467.620 431.315,464.627 429.053,463.998 C 416.714,460.570 405.741,466.578 401.362,479.159 C 399.820,483.589 399.514,487.399 399.565,501.500 C 399.637,521.125 401.091,526.767 407.744,533.232 C 415.781,541.042 421.156,541.789 431.627,536.550 Z" fill="#f99a3c" stroke="black" stroke-width="0.5" fill-rule="evenodd"/>
</svg>
