<?xml version='1.0' encoding='UTF-8'?>
<svg version="1.1" xmlns="http://www.w3.org/2000/svg" width="1000" height="600" viewBox="0 0 1000 600">
  <path d="M 697.000,381.627 C 700.575,380.709 706.226,379.266 709.557,378.420 C 712.889,377.574 716.939,375.824 718.557,374.531 C 721.350,372.300 721.496,371.807 721.422,364.840 C 721.359,358.965 720.813,356.465 718.687,352.313 C 717.226,349.461 714.917,344.168 713.556,340.553 C 712.195,336.937 709.765,332.065 708.155,329.725 C 704.156,323.913 691.244,311.802 686.984,309.868 C 685.068,308.998 679.782,306.573 675.239,304.480 C 665.463,299.977 665.527,299.960 654.969,309.735 C 646.693,317.397 644.530,322.022 645.499,329.985 C 646.567,338.761 648.969,342.605 662.934,357.877 C 670.164,365.784 676.797,373.659 677.674,375.377 C 678.551,377.094 680.169,379.779 681.268,381.342 C 683.540,384.572 685.401,384.606 697.000,381.627 Z" fill="#ea7455" stroke="black" stroke-width="0.5" fill-rule="evenodd"/>
</svg>
