<?xml version='1.0' encoding='UTF-8'?>
<svg version="1.1" xmlns="http://www.w3.org/2000/svg" width="1000" height="600" viewBox="0 0 1000 600">
  <path d="M 359.202,386.399 C 366.024,384.182 374.104,375.203 376.937,366.690 C 378.109,363.166 380.354,358.257 381.925,355.780 C 383.495,353.303 385.086,349.887 385.459,348.188 C 386.879,341.723 379.969,332.376 368.299,324.975 C 364.301,322.439 362.641,322.005 357.054,322.035 C 353.449,322.055 349.544,322.617 348.375,323.285 C 347.206,323.953 344.056,327.402 341.375,330.949 C 338.694,334.497 333.687,339.447 330.249,341.949 C 325.320,345.537 322.180,349.144 315.403,359.000 C 310.676,365.875 306.064,372.345 305.154,373.377 C 303.607,375.133 303.628,375.327 305.479,376.377 C 306.567,376.995 309.042,379.166 310.979,381.202 C 314.276,384.669 315.071,384.978 323.500,386.069 C 328.450,386.710 335.200,387.591 338.500,388.027 C 345.814,388.993 352.946,388.432 359.202,386.399 Z" fill="#e3685e" stroke="black" stroke-width="0.5" fill-rule="evenodd"/>
</svg>
