<?xml version='1.0' encoding='UTF-8'?>
<svg version="1.1" xmlns="http://www.w3.org/2000/svg" width="1000" height="600" viewBox="0 0 1000 600">
  <path d="M 549.282,198.616 C 552.614,197.184 561.472,188.955 564.971,184.041 L 566.971,181.232 L 564.860,178.550 C 562.080,175.014 562.198,172.132 565.375,166.057 C 567.050,162.855 568.000,159.444 568.000,156.638 C 568.000,152.319 567.775,152.023 555.461,140.120 C 548.565,133.454 542.495,128.000 541.973,128.000 C 540.196,128.000 529.151,137.021 525.897,141.130 C 523.004,144.783 522.607,146.070 522.199,153.127 C 521.781,160.347 522.000,161.572 524.727,167.266 C 526.369,170.695 528.517,176.650 529.501,180.500 C 531.099,186.750 531.953,188.169 537.479,193.750 C 540.882,197.188 544.206,200.000 544.865,200.000 C 545.525,200.000 547.512,199.377 549.282,198.616 Z" fill="#e3685e" stroke="black" stroke-width="0.5" fill-rule="evenodd"/>
</svg>
