<?xml version='1.0' encoding='UTF-8'?>
<svg version="1.1" xmlns="http://www.w3.org/2000/svg" width="1000" height="600" viewBox="0 0 1000 600">
  <path d="M 444.703,225.360 C 445.691,223.907 448.152,221.000 450.171,218.899 C 455.819,213.022 456.707,207.096 454.571,189.529 L 452.872,175.558 L 447.686,170.029 C 441.898,163.859 439.810,163.107 428.500,163.128 C 420.042,163.143 419.455,163.366 413.609,168.776 C 409.098,172.950 409.026,173.111 410.593,175.502 C 411.636,177.093 412.512,181.858 413.095,189.102 C 414.494,206.507 414.705,206.971 426.342,218.194 C 434.881,226.430 437.011,227.992 439.703,227.996 C 442.048,227.999 443.388,227.292 444.703,225.360 Z" fill="#f0814d" stroke="black" stroke-width="0.5" fill-rule="evenodd"/>
</svg>
