<?xml version='1.0' encoding='UTF-8'?>
<svg version="1.1" xmlns="http://www.w3.org/2000/svg" width="1000" height="600" viewBox="0 0 1000 600">
  <path d="M 673.000,386.366 L 685.500,384.788 L 689.500,380.538 C 691.700,378.200 694.098,376.099 694.828,375.868 C 695.699,375.593 692.294,370.035 684.953,359.746 C 676.538,347.951 672.703,343.430 669.541,341.577 C 665.113,338.982 660.169,333.940 656.018,327.788 C 654.653,325.765 652.495,323.635 651.221,323.055 C 647.172,321.210 638.140,321.790 633.303,324.206 C 627.330,327.189 617.653,336.104 615.528,340.582 C 613.344,345.185 613.971,348.500 618.415,355.837 C 620.301,358.952 622.663,364.169 623.662,367.432 C 624.957,371.657 626.892,374.909 630.386,378.732 C 640.075,389.334 643.973,390.032 673.000,386.366 Z" fill="#e3685e" stroke="black" stroke-width="0.5" fill-rule="evenodd"/>
</svg>
