<?xml version='1.0' encoding='UTF-8'?>
<svg version="1.1" xmlns="http://www.w3.org/2000/svg" width="1000" height="600" viewBox="0 0 1000 600">
  <path d="M 558.512,226.715 C 568.260,220.831 576.730,212.285 579.584,205.452 C 580.418,203.457 581.554,196.577 582.108,190.162 C 582.662,183.748 583.787,177.150 584.607,175.500 C 585.971,172.755 585.943,172.373 584.277,171.000 C 583.276,170.175 581.460,168.090 580.242,166.366 C 577.586,162.605 574.929,162.067 564.520,163.182 C 555.544,164.144 552.948,165.352 547.239,171.219 C 543.346,175.220 542.848,176.331 541.490,184.050 C 538.493,201.081 540.238,216.960 545.485,220.398 C 546.845,221.290 548.654,223.365 549.505,225.009 C 551.200,228.288 554.783,228.966 558.512,226.715 Z" fill="#f0814d" stroke="black" stroke-width="0.5" fill-rule="evenodd"/>
</svg>
