<?xml version='1.0' encoding='UTF-8'?>
<svg version="1.1" xmlns="http://www.w3.org/2000/svg" width="1000" height="600" viewBox="0 0 1000 600">
  <path d="M 604.510,335.536 C 607.673,333.631 616.012,329.106 623.040,325.480 C 632.848,320.419 637.243,317.474 641.953,312.808 C 649.761,305.072 651.373,302.000 650.710,296.117 C 650.091,290.628 648.447,289.041 636.798,282.691 C 621.202,274.189 610.116,274.563 598.000,284.000 C 596.075,285.499 592.925,287.509 591.000,288.467 C 589.075,289.424 585.092,292.736 582.148,295.826 C 577.173,301.050 576.833,301.717 577.316,305.321 C 577.602,307.452 578.745,310.165 579.857,311.348 C 582.398,314.054 592.038,327.963 595.720,334.236 C 597.249,336.840 598.558,338.978 598.629,338.986 C 598.700,338.994 601.346,337.441 604.510,335.536 Z" fill="#f0814d" stroke="black" stroke-width="0.5" fill-rule="evenodd"/>
</svg>
