<?xml version='1.0' encoding='UTF-8'?>
<svg version="1.1" xmlns="http://www.w3.org/2000/svg" width="1000" height="600" viewBox="0 0 1000 600">
  <path d="M 316.957,383.023 C 317.962,382.485 320.222,379.496 321.981,376.379 C 323.740,373.263 329.760,365.715 335.358,359.606 C 352.486,340.919 352.712,340.599 354.037,333.157 C 355.919,322.583 354.566,319.140 344.842,309.746 C 340.427,305.481 335.757,301.726 334.465,301.402 C 332.953,301.022 330.403,301.718 327.308,303.353 C 324.664,304.751 319.575,307.207 316.000,308.811 C 303.593,314.379 291.200,327.673 286.108,340.877 C 284.429,345.230 282.144,350.336 281.030,352.224 C 278.199,357.023 277.338,366.480 279.305,371.187 C 281.253,375.850 284.295,377.408 296.652,380.075 C 302.068,381.244 307.175,382.592 308.000,383.070 C 310.028,384.245 314.720,384.220 316.957,383.023 Z" fill="#ea7455" stroke="black" stroke-width="0.5" fill-rule="evenodd"/>
</svg>
