<?xml version='1.0' encoding='UTF-8'?>
<svg version="1.1" xmlns="http://www.w3.org/2000/svg" width="1000" height="600" viewBox="0 0 1000 600">
  <path d="M 365.826,386.453 C 372.075,383.952 379.000,375.752 381.908,367.409 C 383.232,363.609 385.595,358.214 387.158,355.419 C 389.080,351.982 390.002,348.908 390.006,345.919 C 390.011,341.682 389.664,341.166 381.595,333.406 C 371.494,323.693 367.513,321.542 361.048,322.308 C 353.858,323.159 351.230,324.859 347.428,331.119 C 343.506,337.575 340.212,340.671 333.211,344.481 C 330.261,346.087 327.430,348.688 325.801,351.290 C 321.557,358.069 312.976,370.326 310.908,372.564 C 308.318,375.366 308.492,376.269 312.023,378.354 C 313.685,379.337 315.731,381.187 316.569,382.466 C 317.706,384.201 319.705,385.095 324.441,385.989 C 341.659,389.238 358.397,389.425 365.826,386.453 Z" fill="#e3685e" stroke="black" stroke-width="0.5" fill-rule="evenodd"/>
</svg>
