<?xml version='1.0' encoding='UTF-8'?>
<svg version="1.1" xmlns="http://www.w3.org/2000/svg" width="1000" height="600" viewBox="0 0 1000 600">
  <path d="M 398.540,335.250 C 400.102,331.510 408.472,319.862 414.710,312.747 C 417.391,309.689 418.000,308.158 418.000,304.475 C 418.000,300.555 417.442,299.350 413.795,295.393 C 411.482,292.884 407.770,289.912 405.545,288.788 C 403.320,287.664 398.916,284.813 395.757,282.452 C 388.143,276.761 384.334,275.610 375.355,276.289 C 369.128,276.760 366.675,277.561 358.866,281.671 C 346.410,288.227 344.000,290.587 344.000,296.230 C 344.000,306.046 353.947,315.747 374.551,326.026 C 382.300,329.891 390.184,334.373 392.070,335.986 C 393.957,337.599 395.831,338.937 396.237,338.959 C 396.642,338.982 397.678,337.312 398.540,335.250 Z" fill="#f0814d" stroke="black" stroke-width="0.5" fill-rule="evenodd"/>
</svg>
