<?xml version='1.0' encoding='UTF-8'?>
<svg version="1.1" xmlns="http://www.w3.org/2000/svg" width="1000" height="600" viewBox="0 0 1000 600">
  <path d="M 433.078,418.871 C 435.829,417.688 438.592,415.770 439.218,414.610 C 439.844,413.449 440.530,407.775 440.742,402.000 C 441.078,392.860 440.867,391.047 439.112,388.000 C 438.004,386.075 435.208,380.572 432.900,375.770 C 430.334,370.433 427.953,366.802 426.772,366.428 C 425.710,366.091 421.004,365.465 416.314,365.038 C 406.985,364.187 401.281,365.045 396.461,368.024 C 392.540,370.447 383.194,380.220 379.613,385.641 C 374.856,392.845 375.089,406.372 380.017,409.009 C 382.098,410.123 405.052,418.433 412.000,420.588 C 417.788,422.383 426.578,421.667 433.078,418.871 Z" fill="#eff821" stroke="black" stroke-width="0.5" fill-rule="evenodd"/>
</svg>
