<?xml version='1.0' encoding='UTF-8'?>
<svg version="1.1" xmlns="http://www.w3.org/2000/svg" width="1000" height="600" viewBox="0 0 1000 600">
  <path d="M 437.664,419.058 C 444.467,416.120 445.486,413.616 445.494,399.823 C 445.499,390.181 445.278,388.873 443.211,386.323 C 441.952,384.770 439.160,379.824 437.007,375.332 C 434.597,370.302 432.336,366.924 431.124,366.539 C 430.041,366.196 424.057,365.829 417.827,365.724 C 407.447,365.550 406.139,365.740 402.181,367.990 C 398.011,370.361 385.125,384.619 382.355,389.927 C 381.617,391.342 381.010,395.287 381.006,398.694 C 380.998,407.255 382.803,409.091 395.500,413.436 C 401.000,415.318 408.650,418.033 412.500,419.469 C 421.023,422.649 429.677,422.507 437.664,419.058 Z" fill="#eff821" stroke="black" stroke-width="0.5" fill-rule="evenodd"/>
</svg>
