<?xml version='1.0' encoding='UTF-8'?>
<svg version="1.1" xmlns="http://www.w3.org/2000/svg" width="1000" height="600" viewBox="0 0 1000 600">
  <path d="M 385.507,292.988 C 385.851,292.432 388.641,290.372 391.706,288.411 C 398.823,283.858 406.131,276.349 411.931,267.629 C 414.444,263.850 416.903,260.209 417.396,259.536 C 417.971,258.752 417.584,257.271 416.318,255.407 C 415.232,253.808 412.651,249.934 410.583,246.797 C 407.022,241.399 402.032,236.615 395.656,232.488 C 392.895,230.701 392.711,230.701 389.401,232.483 C 387.083,233.732 385.146,236.046 383.354,239.708 C 380.916,244.692 380.680,246.341 380.216,261.645 C 379.769,276.371 380.840,290.123 382.677,293.250 C 383.303,294.314 384.772,294.179 385.507,292.988 Z" fill="#f5e926" stroke="black" stroke-width="0.5" fill-rule="evenodd"/>
</svg>
