<?xml version='1.0' encoding='UTF-8'?>
<svg version="1.1" xmlns="http://www.w3.org/2000/svg" width="1000" height="600" viewBox="0 0 1000 600">
  <path d="M 404.500,422.058 C 411.085,421.408 415.378,420.322 420.500,418.010 C 424.350,416.273 428.844,414.276 430.487,413.574 L 433.475,412.296 L 418.676,404.898 C 400.594,395.858 397.000,393.138 397.000,388.492 C 397.000,384.226 398.548,380.125 401.244,377.247 L 403.355,374.994 L 396.927,375.639 C 393.392,375.994 388.475,377.295 386.000,378.529 C 383.525,379.763 377.675,381.546 373.000,382.491 C 361.997,384.715 358.330,386.289 353.750,390.752 C 350.626,393.796 350.000,395.087 350.000,398.487 C 350.000,402.090 350.616,403.172 355.250,407.720 C 358.552,410.960 362.540,413.666 366.000,415.015 C 369.025,416.193 373.037,418.105 374.917,419.263 C 380.813,422.897 388.568,423.630 404.500,422.058 Z" fill="#7601a8" stroke="black" stroke-width="0.5" fill-rule="evenodd"/>
</svg>
