<?xml version='1.0' encoding='UTF-8'?>
<svg version="1.1" xmlns="http://www.w3.org/2000/svg" width="1000" height="600" viewBox="0 0 1000 600">
  <path d="M 656.263,392.944 C 660.215,391.846 659.804,392.437 669.982,373.193 C 672.375,368.670 672.464,367.813 672.455,349.500 C 672.447,333.129 672.173,329.739 670.473,325.000 C 668.517,319.548 668.413,319.454 658.522,314.180 C 649.322,309.275 647.989,308.850 641.412,308.724 C 632.952,308.562 631.995,309.074 621.921,319.148 C 614.195,326.874 612.000,330.781 612.000,336.809 C 612.000,341.798 609.801,349.066 607.178,352.751 C 604.565,356.419 603.621,364.399 605.257,368.980 C 606.242,371.737 607.851,373.199 613.000,376.015 C 616.575,377.969 622.945,382.364 627.155,385.780 C 631.762,389.518 636.342,392.352 638.655,392.896 C 644.029,394.158 651.812,394.180 656.263,392.944 Z" fill="#6700a7" stroke="black" stroke-width="0.5" fill-rule="evenodd"/>
</svg>
