<?xml version='1.0' encoding='UTF-8'?>
<svg version="1.1" xmlns="http://www.w3.org/2000/svg" width="1000" height="600" viewBox="0 0 1000 600">
  <path d="M 474.500,539.465 C 477.250,538.527 481.075,536.517 483.000,534.998 C 484.925,533.478 491.225,529.645 497.000,526.480 C 513.840,517.248 519.810,512.822 531.750,500.714 C 546.225,486.037 546.187,486.570 533.632,474.416 C 528.472,469.420 521.431,463.189 517.986,460.569 C 512.400,456.321 511.457,455.926 509.272,456.922 C 507.925,457.536 502.025,459.170 496.161,460.554 C 490.298,461.938 483.700,463.945 481.500,465.015 C 475.105,468.124 469.309,475.794 465.036,486.801 C 462.965,492.136 458.208,503.475 454.466,512.000 C 448.864,524.759 447.685,528.364 447.797,532.385 C 447.944,537.635 449.753,540.561 453.354,541.371 C 457.357,542.270 469.477,541.178 474.500,539.465 Z" fill="#5701a4" stroke="black" stroke-width="0.5" fill-rule="evenodd"/>
</svg>
