<?xml version='1.0' encoding='UTF-8'?>
<svg version="1.1" xmlns="http://www.w3.org/2000/svg" width="1000" height="600" viewBox="0 0 1000 600">
  <path d="M 428.664,417.303 C 433.239,415.211 436.986,413.269 436.991,412.986 C 436.996,412.704 431.156,409.779 424.013,406.486 C 416.870,403.194 408.995,399.033 406.513,397.240 C 402.131,394.075 402.000,393.825 402.000,388.630 C 402.000,384.571 402.604,382.389 404.500,379.595 C 405.875,377.569 407.000,375.706 407.000,375.456 C 407.000,373.949 395.788,375.417 388.273,377.908 C 383.448,379.507 375.669,381.964 370.986,383.367 C 364.575,385.287 361.703,386.730 359.356,389.209 C 352.465,396.487 352.421,399.450 359.099,406.511 C 363.260,410.911 365.422,412.300 370.849,414.059 C 374.507,415.244 379.104,417.242 381.063,418.498 C 386.301,421.854 387.060,421.952 404.423,421.510 L 420.346,421.106 L 428.664,417.303 Z" fill="#7601a8" stroke="black" stroke-width="0.5" fill-rule="evenodd"/>
</svg>
