<?xml version='1.0' encoding='UTF-8'?>
<svg version="1.1" xmlns="http://www.w3.org/2000/svg" width="1000" height="600" viewBox="0 0 1000 600">
  <path d="M 410.377,293.041 C 415.191,291.414 420.621,289.161 422.444,288.035 C 427.842,284.699 433.804,277.560 434.561,273.527 C 435.485,268.604 434.532,260.947 432.868,259.918 C 430.570,258.498 421.050,257.589 408.000,257.543 C 393.773,257.494 389.732,258.888 387.000,264.788 C 386.159,266.605 384.475,268.298 383.167,268.643 C 381.339,269.125 380.976,269.717 381.491,271.379 C 381.852,272.546 382.991,277.481 384.022,282.346 C 386.694,294.957 387.558,296.000 395.335,296.000 C 399.665,296.000 404.352,295.078 410.377,293.041 Z" fill="#0c0786" stroke="black" stroke-width="0.5" fill-rule="evenodd"/>
</svg>
