<?xml version='1.0' encoding='UTF-8'?>
<svg version="1.1" xmlns="http://www.w3.org/2000/svg" width="1000" height="600" viewBox="0 0 1000 600">
  <path d="M 653.462,333.014 C 654.888,332.472 658.254,329.972 660.941,327.458 C 666.872,321.910 668.576,316.413 667.679,305.716 C 667.184,299.808 666.125,296.741 660.907,286.106 C 652.351,268.668 644.977,257.159 639.811,253.180 L 635.500,249.859 L 624.775,250.180 C 615.181,250.466 613.811,250.740 611.775,252.778 C 609.691,254.864 609.500,255.957 609.500,265.778 C 609.500,275.522 609.718,276.790 611.885,279.678 C 614.262,282.845 614.266,282.895 613.024,294.178 C 610.655,315.705 610.642,316.220 612.449,317.231 C 613.357,317.739 615.342,319.870 616.861,321.967 C 618.379,324.063 621.759,327.628 624.372,329.889 L 629.122,334.000 L 639.996,334.000 C 645.976,334.000 652.037,333.556 653.462,333.014 Z" fill="#5701a4" stroke="black" stroke-width="0.5" fill-rule="evenodd"/>
</svg>
