<?xml version='1.0' encoding='UTF-8'?>
<svg version="1.1" xmlns="http://www.w3.org/2000/svg" width="1000" height="600" viewBox="0 0 1000 600">
  <path d="M 551.193,540.824 C 555.805,539.442 557.171,537.342 557.154,531.660 C 557.141,527.344 552.157,514.306 545.089,500.096 C 543.011,495.918 540.025,488.900 538.452,484.500 C 535.977,477.573 534.731,475.662 529.163,470.249 C 522.050,463.335 517.745,461.497 506.116,460.410 C 502.477,460.070 497.577,458.893 495.226,457.795 L 490.952,455.798 L 483.226,462.636 C 473.635,471.124 464.557,480.221 462.415,483.490 C 460.876,485.838 460.927,486.199 463.378,490.382 C 466.615,495.905 483.358,511.718 491.997,517.410 C 506.192,526.762 528.285,539.285 532.765,540.518 C 538.848,542.192 546.218,542.315 551.193,540.824 Z" fill="#5701a4" stroke="black" stroke-width="0.5" fill-rule="evenodd"/>
</svg>
