<?xml version='1.0' encoding='UTF-8'?>
<svg version="1.1" xmlns="http://www.w3.org/2000/svg" width="1000" height="600" viewBox="0 0 1000 600">
  <path d="M 549.358,539.685 C 550.856,538.703 551.937,536.777 552.323,534.398 C 552.828,531.285 551.906,528.203 546.842,516.078 C 543.494,508.060 538.404,495.818 535.531,488.874 C 529.936,475.351 525.286,468.640 519.141,465.218 C 517.138,464.103 511.225,462.209 506.000,461.009 C 500.775,459.808 495.022,458.190 493.216,457.413 C 491.410,456.636 489.473,456.000 488.913,456.000 C 487.381,456.000 475.388,465.812 465.637,475.042 C 453.511,486.520 453.396,485.892 470.750,502.969 C 483.734,515.747 485.283,516.930 498.556,524.218 C 506.287,528.463 514.523,533.321 516.860,535.013 C 521.574,538.428 524.562,539.747 530.500,541.032 C 536.157,542.257 546.568,541.513 549.358,539.685 Z" fill="#5701a4" stroke="black" stroke-width="0.5" fill-rule="evenodd"/>
</svg>
