<?xml version='1.0' encoding='UTF-8'?>
<svg version="1.1" xmlns="http://www.w3.org/2000/svg" width="1000" height="600" viewBox="0 0 1000 600">
  <path d="M 359.961,392.915 C 363.821,392.087 366.974,390.261 373.260,385.211 C 377.792,381.571 384.395,376.997 387.934,375.046 C 392.876,372.323 394.564,370.804 395.213,368.500 C 396.440,364.148 395.212,357.045 392.520,352.909 C 389.692,348.565 388.021,342.888 387.984,337.500 C 387.940,331.154 384.770,325.750 376.072,317.191 C 367.301,308.561 365.596,307.827 356.432,308.738 C 352.996,309.080 348.165,310.894 341.432,314.371 C 331.536,319.481 331.493,319.520 329.538,325.000 C 327.896,329.600 327.570,333.199 327.542,347.000 C 327.503,366.575 328.217,371.601 331.760,376.687 C 333.221,378.784 335.785,383.182 337.458,386.460 C 339.582,390.622 341.254,392.628 343.000,393.110 C 346.910,394.190 354.419,394.103 359.961,392.915 Z" fill="#6700a7" stroke="black" stroke-width="0.5" fill-rule="evenodd"/>
</svg>
