<?xml version='1.0' encoding='UTF-8'?>
<svg version="1.1" xmlns="http://www.w3.org/2000/svg" width="1000" height="600" viewBox="0 0 1000 600">
  <path d="M 664.217,329.344 C 670.731,323.602 671.689,321.938 672.471,315.000 C 673.492,305.943 671.678,299.725 662.855,282.044 C 655.689,267.684 653.721,264.626 647.410,258.044 L 640.177,250.500 L 628.139,250.500 C 619.587,250.500 615.723,250.877 614.800,251.801 C 613.922,252.680 613.500,256.088 613.500,262.301 C 613.500,270.377 613.840,272.172 616.282,277.000 L 619.063,282.500 L 617.363,294.000 C 614.935,310.426 615.029,313.349 618.093,316.711 C 619.492,318.245 621.394,320.724 622.321,322.220 C 624.249,325.331 633.514,332.560 636.500,333.284 C 637.600,333.550 643.097,333.820 648.717,333.884 L 658.933,334.000 L 664.217,329.344 Z" fill="#5701a4" stroke="black" stroke-width="0.5" fill-rule="evenodd"/>
</svg>
