<?xml version='1.0' encoding='UTF-8'?>
<svg version="1.1" xmlns="http://www.w3.org/2000/svg" width="1000" height="600" viewBox="0 0 1000 600">
  <path d="M 607.554,425.491 C 619.427,419.469 626.444,412.208 629.604,402.678 C 630.548,399.830 632.784,395.250 634.572,392.500 C 638.701,386.152 639.434,382.473 638.006,375.270 C 636.244,366.381 636.192,366.293 631.712,364.518 C 629.396,363.600 625.436,361.533 622.912,359.924 C 620.389,358.316 618.033,357.000 617.676,357.000 C 617.319,357.000 616.411,358.462 615.658,360.250 C 614.906,362.038 612.656,365.448 610.659,367.828 C 602.052,378.086 595.819,388.161 593.082,396.235 C 591.541,400.781 589.027,407.622 587.496,411.438 L 584.712,418.376 L 587.390,420.438 C 588.862,421.572 591.514,423.724 593.283,425.221 C 597.349,428.660 601.164,428.732 607.554,425.491 Z" fill="#7601a8" stroke="black" stroke-width="0.5" fill-rule="evenodd"/>
</svg>
