<?xml version='1.0' encoding='UTF-8'?>
<svg version="1.1" xmlns="http://www.w3.org/2000/svg" width="1000" height="600" viewBox="0 0 1000 600">
  <path d="M 404.155,424.407 C 406.545,422.431 408.872,420.461 409.327,420.030 C 409.781,419.599 408.836,416.604 407.226,413.373 C 405.615,410.143 403.463,403.453 402.442,398.507 C 400.517,389.181 398.031,384.683 385.585,368.000 C 383.328,364.975 380.706,361.290 379.758,359.811 L 378.034,357.123 L 368.767,361.996 C 360.538,366.324 359.351,367.297 358.170,370.685 C 357.438,372.783 356.772,377.023 356.689,380.106 C 356.555,385.111 357.197,387.043 362.679,398.106 C 369.543,411.959 372.280,415.270 382.037,421.524 C 385.752,423.905 389.090,426.336 389.455,426.926 C 389.819,427.517 392.299,428.000 394.964,428.000 C 399.054,428.000 400.489,427.439 404.155,424.407 Z" fill="#7601a8" stroke="black" stroke-width="0.5" fill-rule="evenodd"/>
</svg>
