<?xml version='1.0' encoding='UTF-8'?>
<svg version="1.1" xmlns="http://www.w3.org/2000/svg" width="1000" height="600" viewBox="0 0 1000 600">
  <path d="M 367.661,316.750 C 370.218,312.762 372.956,307.954 373.746,306.064 C 374.536,304.173 376.251,301.227 377.556,299.515 C 378.862,297.803 380.786,293.654 381.832,290.293 C 382.877,286.933 384.711,282.810 385.907,281.131 L 388.080,278.079 L 382.040,270.885 C 376.390,264.156 376.000,263.363 375.992,258.596 C 375.971,244.381 372.549,233.086 366.171,226.184 C 361.804,221.459 360.992,221.000 357.006,221.000 C 353.097,221.000 352.146,221.505 348.058,225.750 C 345.542,228.363 342.917,232.300 342.225,234.500 C 340.007,241.546 338.594,270.499 339.799,284.228 C 341.033,298.289 342.417,302.909 347.320,309.332 C 349.243,311.851 351.342,315.505 351.984,317.453 C 353.360,321.622 356.355,324.000 360.229,324.000 C 362.591,324.000 363.718,322.901 367.661,316.750 Z" fill="#d3516f" stroke="black" stroke-width="0.5" fill-rule="evenodd"/>
</svg>
