<?xml version='1.0' encoding='UTF-8'?>
<svg version="1.1" xmlns="http://www.w3.org/2000/svg" width="1000" height="600" viewBox="0 0 1000 600">
  <path d="M 605.500,429.914 C 607.700,429.322 612.425,427.115 616.000,425.008 C 619.575,422.902 624.975,420.148 628.000,418.888 C 637.167,415.070 641.730,410.608 646.107,401.184 C 649.105,394.730 651.820,390.908 658.235,384.114 C 662.781,379.300 668.451,373.014 670.835,370.146 L 675.170,364.931 L 671.835,361.135 C 670.001,359.047 666.478,354.501 664.007,351.033 C 658.629,343.484 650.007,335.474 644.500,332.908 C 636.254,329.066 625.151,330.877 619.655,336.960 C 614.898,342.225 613.741,344.682 610.138,357.167 C 605.273,374.026 596.808,390.276 584.452,406.474 C 581.807,409.942 581.500,411.101 581.500,417.634 C 581.500,425.729 582.542,427.580 588.282,429.674 C 592.407,431.179 600.381,431.290 605.500,429.914 Z" fill="#cb4777" stroke="black" stroke-width="0.5" fill-rule="evenodd"/>
</svg>
