<?xml version='1.0' encoding='UTF-8'?>
<svg version="1.1" xmlns="http://www.w3.org/2000/svg" width="1000" height="600" viewBox="0 0 1000 600">
  <path d="M 660.712,446.027 C 674.673,440.435 679.121,438.155 684.216,433.979 C 692.162,427.466 698.888,420.165 699.642,417.236 C 700.635,413.373 699.514,401.653 697.849,398.500 C 689.404,382.507 685.894,376.657 682.307,372.596 L 678.115,367.849 L 673.807,370.346 C 671.438,371.719 666.800,373.595 663.500,374.514 C 660.200,375.433 655.025,377.789 652.000,379.750 C 644.175,384.824 617.671,411.186 612.008,419.529 C 609.384,423.395 606.525,427.149 605.655,427.871 C 604.247,429.040 604.596,429.875 608.816,435.450 C 614.955,443.560 624.129,451.552 628.808,452.865 C 635.620,454.779 642.596,453.283 660.712,446.027 Z" fill="#c13c80" stroke="black" stroke-width="0.5" fill-rule="evenodd"/>
</svg>
