<?xml version='1.0' encoding='UTF-8'?>
<svg version="1.1" xmlns="http://www.w3.org/2000/svg" width="1000" height="600" viewBox="0 0 1000 600">
  <path d="M 361.394,319.144 C 363.355,316.473 366.370,311.411 368.095,307.894 C 369.820,304.377 372.072,300.579 373.100,299.452 C 374.128,298.326 375.890,294.727 377.016,291.454 C 378.142,288.181 380.174,283.824 381.532,281.773 C 384.515,277.265 384.545,276.803 382.007,274.506 C 380.910,273.514 378.142,270.277 375.855,267.312 C 371.867,262.143 371.663,261.528 370.887,252.334 C 369.844,239.966 367.079,231.772 361.916,225.750 C 358.325,221.560 357.375,221.000 353.862,221.000 C 350.439,221.000 349.115,221.724 344.421,226.164 C 336.054,234.077 335.500,236.704 335.500,268.500 C 335.500,297.718 336.140,301.388 342.581,309.097 C 344.462,311.348 346.000,313.539 346.000,313.967 C 346.000,314.396 346.921,316.828 348.047,319.373 C 349.972,323.725 350.323,324.000 353.962,324.000 C 357.432,324.000 358.196,323.501 361.394,319.144 Z" fill="#d3516f" stroke="black" stroke-width="0.5" fill-rule="evenodd"/>
</svg>
