<?xml version='1.0' encoding='UTF-8'?>
<svg version="1.1" xmlns="http://www.w3.org/2000/svg" width="1000" height="600" viewBox="0 0 1000 600">
  <path d="M 390.500,206.000 C 392.150,204.907 394.046,204.010 394.712,204.007 C 395.379,204.003 398.384,203.080 401.389,201.956 C 407.134,199.806 413.996,193.842 416.667,188.677 C 419.144,183.886 420.174,173.496 419.010,165.046 C 417.851,156.642 409.802,132.493 406.540,127.634 C 401.911,120.738 394.084,123.769 379.944,137.931 C 368.276,149.618 366.533,153.401 366.550,167.000 C 366.567,180.993 368.099,187.337 373.090,194.072 C 376.653,198.879 385.661,207.870 387.000,207.955 C 387.275,207.972 388.850,207.093 390.500,206.000 Z" fill="#c13c80" stroke="black" stroke-width="0.5" fill-rule="evenodd"/>
</svg>
