<?xml version='1.0' encoding='UTF-8'?>
<svg version="1.1" xmlns="http://www.w3.org/2000/svg" width="1000" height="600" viewBox="0 0 1000 600">
  <path d="M 614.506,423.963 C 630.888,415.736 638.350,409.283 641.592,400.542 C 642.814,397.245 646.459,392.156 652.465,385.356 C 657.434,379.731 663.409,372.894 665.743,370.164 L 669.985,365.200 L 665.333,358.850 C 659.035,350.254 646.398,337.334 641.500,334.484 C 636.257,331.433 629.231,330.438 624.337,332.054 C 622.240,332.746 617.922,335.794 614.742,338.827 C 609.470,343.856 608.734,345.100 606.399,352.921 C 600.599,372.358 595.513,383.301 584.877,399.235 C 577.927,409.647 576.625,412.255 576.257,416.500 C 575.534,424.853 578.441,429.086 586.275,431.086 C 593.618,432.962 599.585,431.456 614.506,423.963 Z" fill="#cb4777" stroke="black" stroke-width="0.5" fill-rule="evenodd"/>
</svg>
