<?xml version='1.0' encoding='UTF-8'?>
<svg version="1.1" xmlns="http://www.w3.org/2000/svg" width="1000" height="600" viewBox="0 0 1000 600">
  <path d="M 397.400,205.623 C 400.205,204.315 404.698,202.455 407.384,201.489 C 412.632,199.601 418.790,194.139 421.686,188.803 C 423.125,186.153 423.481,183.129 423.490,173.500 C 423.500,161.977 423.327,160.983 419.141,148.500 C 413.080,130.422 412.939,130.081 410.235,126.867 C 405.249,120.942 397.827,123.973 384.480,137.385 C 379.492,142.398 374.536,148.300 373.468,150.500 C 370.723,156.152 370.228,172.434 372.493,182.612 C 374.136,189.998 374.344,190.328 382.835,199.014 C 387.601,203.889 391.680,207.906 391.900,207.939 C 392.121,207.973 394.596,206.930 397.400,205.623 Z" fill="#c13c80" stroke="black" stroke-width="0.5" fill-rule="evenodd"/>
</svg>
