<?xml version='1.0' encoding='UTF-8'?>
<svg version="1.1" xmlns="http://www.w3.org/2000/svg" width="1000" height="600" viewBox="0 0 1000 600">
  <path d="M 449.212,351.052 C 452.121,349.981 459.186,347.930 464.914,346.493 C 470.641,345.057 476.491,343.280 477.914,342.544 C 479.337,341.809 484.939,336.421 490.363,330.572 C 501.372,318.700 501.939,317.427 501.975,304.500 C 502.005,293.634 500.222,290.108 493.500,287.736 C 489.814,286.436 486.216,286.056 479.812,286.291 C 471.404,286.600 470.712,286.816 458.312,293.003 C 446.930,298.682 444.539,300.350 436.885,307.948 C 426.690,318.069 424.598,321.822 418.339,341.215 C 417.936,342.462 418.769,343.399 421.393,344.650 C 423.377,345.596 425.000,346.758 425.000,347.231 C 425.000,347.704 426.105,349.195 427.455,350.545 C 429.594,352.685 430.810,353.000 436.917,353.000 C 441.386,353.000 445.841,352.294 449.212,351.052 Z" fill="#9f1a9b" stroke="black" stroke-width="0.5" fill-rule="evenodd"/>
</svg>
