<?xml version='1.0' encoding='UTF-8'?>
<svg version="1.1" xmlns="http://www.w3.org/2000/svg" width="1000" height="600" viewBox="0 0 1000 600">
  <path d="M 566.882,371.310 C 575.577,362.713 577.000,360.848 577.000,358.056 C 577.000,354.759 573.290,348.086 565.686,337.706 C 563.588,334.843 560.540,330.025 558.912,327.000 C 557.284,323.975 553.251,317.741 549.949,313.147 C 546.647,308.554 543.271,303.491 542.447,301.897 C 541.623,300.304 540.623,299.000 540.224,299.000 C 538.680,299.001 519.490,306.188 516.819,307.766 C 513.681,309.620 513.561,309.894 511.998,318.802 C 510.686,326.287 511.425,332.508 514.519,340.000 C 515.768,343.025 517.788,348.875 519.007,353.000 C 522.804,365.842 524.756,368.468 538.000,378.558 C 542.298,381.833 542.819,381.972 549.632,381.651 L 556.765,381.315 L 566.882,371.310 Z" fill="#ac2593" stroke="black" stroke-width="0.5" fill-rule="evenodd"/>
</svg>
