<?xml version='1.0' encoding='UTF-8'?>
<svg version="1.1" xmlns="http://www.w3.org/2000/svg" width="1000" height="600" viewBox="0 0 1000 600">
  <path d="M 570.980,351.716 C 572.344,351.025 573.996,349.386 574.651,348.073 C 575.305,346.761 577.279,345.082 579.037,344.342 C 582.648,342.824 582.740,343.808 577.722,330.345 C 571.400,313.383 560.922,302.514 541.633,292.909 C 530.859,287.544 528.348,286.686 522.094,286.239 C 513.681,285.637 503.189,288.027 500.322,291.199 C 497.744,294.051 497.641,314.970 500.184,319.500 C 501.109,321.150 506.509,327.274 512.184,333.108 L 522.500,343.717 L 533.932,346.444 C 540.220,347.943 547.420,349.986 549.932,350.983 C 555.347,353.131 567.356,353.549 570.980,351.716 Z" fill="#9f1a9b" stroke="black" stroke-width="0.5" fill-rule="evenodd"/>
</svg>
