<?xml version='1.0' encoding='UTF-8'?>
<svg version="1.1" xmlns="http://www.w3.org/2000/svg" width="1000" height="600" viewBox="0 0 1000 600">
  <path d="M 545.220,405.386 C 546.936,404.499 551.976,402.749 556.420,401.497 C 571.938,397.127 571.607,397.384 580.247,383.000 C 584.956,375.162 585.359,373.991 585.427,367.956 C 585.555,356.518 582.553,354.196 560.393,348.591 C 552.752,346.658 544.673,344.539 542.440,343.882 C 537.409,342.403 534.621,343.068 528.385,347.235 C 521.132,352.083 518.887,357.299 518.252,370.783 C 517.559,385.500 519.051,392.373 523.955,397.058 C 526.039,399.048 530.379,401.599 533.807,402.849 C 537.176,404.078 540.200,405.514 540.526,406.042 C 541.309,407.309 541.572,407.273 545.220,405.386 Z" fill="#47029f" stroke="black" stroke-width="0.5" fill-rule="evenodd"/>
</svg>
