<?xml version='1.0' encoding='UTF-8'?>
<svg version="1.1" xmlns="http://www.w3.org/2000/svg" width="1000" height="600" viewBox="0 0 1000 600">
  <path d="M 528.785,316.560 C 534.442,315.803 540.120,314.496 541.403,313.655 C 542.687,312.814 547.299,310.753 551.652,309.074 C 557.060,306.989 561.510,304.355 565.698,300.761 C 576.288,291.673 579.012,287.480 578.976,280.316 C 578.929,270.871 577.691,268.240 569.343,259.842 C 565.055,255.529 561.256,252.000 560.900,252.000 C 559.186,252.000 544.714,261.523 539.518,266.069 C 530.667,273.815 527.242,275.675 518.500,277.489 C 504.455,280.402 503.458,281.177 500.445,291.541 C 497.607,301.302 499.778,312.630 505.217,316.439 C 507.976,318.372 514.979,318.408 528.785,316.560 Z" fill="#360498" stroke="black" stroke-width="0.5" fill-rule="evenodd"/>
</svg>
