<?xml version='1.0' encoding='UTF-8'?>
<svg version="1.1" xmlns="http://www.w3.org/2000/svg" width="1000" height="600" viewBox="0 0 1000 600">
  <path d="M 566.000,354.956 C 579.258,353.805 583.601,352.560 586.883,348.969 C 588.322,347.394 591.188,345.400 593.250,344.539 C 595.312,343.678 597.000,342.570 597.000,342.077 C 597.000,340.544 584.828,324.766 576.470,315.465 C 562.598,300.026 563.144,300.464 556.049,299.079 C 552.501,298.387 545.976,295.967 541.549,293.702 C 533.522,289.594 533.469,289.583 522.000,289.541 C 504.975,289.480 500.678,292.665 504.983,302.153 C 507.391,307.458 507.670,318.980 505.586,327.014 L 504.172,332.465 L 509.465,339.482 C 514.550,346.224 519.975,351.332 524.752,353.874 C 530.127,356.735 541.942,357.045 566.000,354.956 Z" fill="#ac2593" stroke="black" stroke-width="0.5" fill-rule="evenodd"/>
</svg>
