<?xml version='1.0' encoding='UTF-8'?>
<svg version="1.1" xmlns="http://www.w3.org/2000/svg" width="1000" height="600" viewBox="0 0 1000 600">
  <path d="M 491.000,295.755 C 497.486,293.828 498.295,290.897 498.193,269.699 C 498.063,242.674 495.224,237.104 477.045,228.209 L 467.421,223.500 L 460.960,225.760 C 447.324,230.530 445.723,231.362 440.010,236.651 C 436.777,239.645 431.114,246.146 427.427,251.098 C 417.060,265.022 416.689,272.541 425.907,281.906 C 432.275,288.375 435.087,289.702 447.264,291.986 C 452.894,293.042 460.200,294.833 463.500,295.968 C 468.335,297.629 471.150,297.939 478.000,297.561 C 482.675,297.304 488.525,296.491 491.000,295.755 Z" fill="#9f1a9b" stroke="black" stroke-width="0.5" fill-rule="evenodd"/>
</svg>
