<?xml version='1.0' encoding='UTF-8'?>
<svg version="1.1" xmlns="http://www.w3.org/2000/svg" width="1000" height="600" viewBox="0 0 1000 600">
  <path d="M 519.500,398.489 C 523.900,397.658 528.740,396.556 530.255,396.039 C 534.745,394.510 545.326,383.152 548.287,376.685 C 549.745,373.501 551.851,369.733 552.969,368.313 C 554.086,366.892 555.000,365.390 555.000,364.975 C 555.000,362.640 543.236,352.704 536.036,348.958 C 529.693,345.658 527.044,343.567 523.727,339.242 C 517.940,331.697 505.474,324.049 498.916,324.020 L 494.333,324.000 L 489.103,332.029 C 481.039,344.410 480.572,345.879 480.534,359.000 L 480.500,370.500 L 487.000,383.500 C 492.525,394.550 494.025,396.762 497.000,398.248 C 501.337,400.415 508.875,400.495 519.500,398.489 Z" fill="#360498" stroke="black" stroke-width="0.5" fill-rule="evenodd"/>
</svg>
