<?xml version='1.0' encoding='UTF-8'?>
<svg version="1.1" xmlns="http://www.w3.org/2000/svg" width="1000" height="600" viewBox="0 0 1000 600">
  <path d="M 436.327,402.783 C 450.935,394.297 452.493,390.269 452.491,361.000 C 452.490,344.165 452.296,342.079 450.333,337.821 C 445.503,327.346 434.854,327.265 419.388,337.586 C 414.926,340.564 410.745,343.000 410.095,343.000 C 409.446,343.000 405.446,346.522 401.207,350.827 C 396.968,355.132 391.475,360.285 389.000,362.278 L 384.500,365.902 L 384.702,375.079 C 384.883,383.279 385.197,384.676 387.650,388.217 C 392.753,395.580 405.921,405.220 414.751,408.057 C 420.429,409.880 426.784,408.327 436.327,402.783 Z" fill="#fdb82c" stroke="black" stroke-width="0.5" fill-rule="evenodd"/>
</svg>
