<?xml version='1.0' encoding='UTF-8'?>
<svg version="1.1" xmlns="http://www.w3.org/2000/svg" width="1000" height="600" viewBox="0 0 1000 600">
  <path d="M 503.038,397.750 C 507.168,395.668 507.940,394.606 513.409,383.500 C 518.934,372.281 519.348,370.945 519.771,362.962 C 520.410,350.918 518.369,343.716 511.210,332.766 C 505.512,324.050 505.491,324.031 501.229,324.016 C 498.439,324.005 495.663,324.819 493.229,326.359 C 491.178,327.657 487.338,329.941 484.695,331.434 C 481.945,332.988 478.389,336.237 476.381,339.032 C 472.796,344.023 469.019,346.854 460.925,350.618 C 456.721,352.573 445.000,362.841 445.000,364.569 C 445.000,364.977 446.107,366.762 447.460,368.536 C 448.813,370.310 451.040,374.294 452.409,377.390 C 453.992,380.969 457.265,385.409 461.396,389.581 C 467.821,396.070 467.992,396.163 476.697,397.975 C 489.349,400.609 497.507,400.539 503.038,397.750 Z" fill="#360498" stroke="black" stroke-width="0.5" fill-rule="evenodd"/>
</svg>
