<?xml version='1.0' encoding='UTF-8'?>
<svg version="1.1" xmlns="http://www.w3.org/2000/svg" width="1000" height="600" viewBox="0 0 1000 600">
  <path d="M 504.277,399.940 C 510.375,398.247 514.161,394.029 519.413,383.078 C 523.791,373.951 524.300,372.145 524.757,364.126 C 525.410,352.677 524.006,347.036 518.170,337.668 C 515.602,333.544 512.733,328.782 511.797,327.085 C 510.373,324.507 509.489,324.000 506.420,324.000 C 501.177,324.000 489.091,330.970 480.466,338.968 C 476.554,342.595 470.200,347.435 466.346,349.725 C 460.015,353.486 450.000,363.295 450.000,365.735 C 450.000,366.239 451.099,367.683 452.441,368.945 C 453.784,370.206 456.077,374.222 457.537,377.869 C 459.644,383.136 461.531,385.752 466.710,390.587 C 472.347,395.850 474.127,396.896 479.865,398.313 C 491.401,401.162 498.235,401.618 504.277,399.940 Z" fill="#360498" stroke="black" stroke-width="0.5" fill-rule="evenodd"/>
</svg>
