<?xml version='1.0' encoding='UTF-8'?>
<svg version="1.1" xmlns="http://www.w3.org/2000/svg" width="1000" height="600" viewBox="0 0 1000 600">
  <path d="M 601.936,337.387 C 610.034,335.398 610.744,334.784 608.649,331.587 C 607.742,330.203 606.996,328.492 606.990,327.785 C 606.971,325.274 602.212,316.310 598.882,312.515 C 597.022,310.395 592.889,306.487 589.698,303.830 C 584.893,299.830 583.210,299.000 579.898,299.000 C 574.436,299.000 571.645,300.690 563.553,308.900 C 556.993,315.555 556.620,316.180 556.852,320.118 C 556.987,322.412 557.713,325.461 558.464,326.894 C 560.598,330.966 566.370,336.014 570.625,337.531 C 576.083,339.477 593.763,339.395 601.936,337.387 Z" fill="#920fa2" stroke="black" stroke-width="0.5" fill-rule="evenodd"/>
</svg>
