<?xml version='1.0' encoding='UTF-8'?>
<svg version="1.1" xmlns="http://www.w3.org/2000/svg" width="1000" height="600" viewBox="0 0 1000 600">
  <path d="M 466.964,402.183 C 472.170,399.607 477.262,396.340 478.281,394.923 C 480.855,391.341 481.948,385.870 481.976,376.434 C 482.026,359.646 479.060,351.878 470.414,346.151 C 464.819,342.445 462.094,342.273 453.718,345.097 C 450.298,346.250 443.475,348.073 438.556,349.148 C 419.088,353.401 414.489,356.889 414.516,367.380 C 414.531,372.922 415.014,374.424 418.918,381.053 C 428.838,397.896 428.081,397.236 442.161,401.318 C 446.891,402.689 452.052,404.510 453.630,405.365 C 455.209,406.220 456.725,406.908 457.000,406.893 C 457.275,406.878 461.759,404.758 466.964,402.183 Z" fill="#47029f" stroke="black" stroke-width="0.5" fill-rule="evenodd"/>
</svg>
