<?xml version='1.0' encoding='UTF-8'?>
<svg version="1.1" xmlns="http://www.w3.org/2000/svg" width="1000" height="600" viewBox="0 0 1000 600">
  <path d="M 410.083,352.993 C 412.327,352.370 414.864,350.508 416.869,348.013 C 418.631,345.821 423.207,341.526 427.039,338.469 C 435.189,331.966 443.864,320.290 447.075,311.500 C 448.280,308.200 449.882,304.612 450.633,303.527 C 452.568,300.735 452.327,297.245 450.117,296.063 C 446.423,294.086 423.449,287.009 420.710,287.005 C 416.380,286.997 410.237,290.659 407.680,294.771 C 406.404,296.822 403.634,303.450 401.524,309.500 C 398.096,319.332 397.639,321.796 397.225,332.707 C 396.970,339.421 397.065,346.533 397.436,348.510 C 398.390,353.596 402.575,355.079 410.083,352.993 Z" fill="#b7308a" stroke="black" stroke-width="0.5" fill-rule="evenodd"/>
</svg>
