<?xml version='1.0' encoding='UTF-8'?>
<svg version="1.1" xmlns="http://www.w3.org/2000/svg" width="1000" height="600" viewBox="0 0 1000 600">
  <path d="M 497.011,314.314 C 501.859,308.888 502.188,297.157 497.784,286.781 C 496.682,284.186 495.213,281.591 494.518,281.015 C 493.824,280.439 489.103,279.061 484.029,277.953 C 472.770,275.496 469.436,273.810 460.664,266.138 C 454.721,260.940 441.050,252.000 439.045,252.000 C 438.665,252.000 434.717,255.727 430.271,260.281 C 423.095,267.633 422.108,269.100 421.471,273.344 C 420.254,281.464 421.344,286.422 425.564,291.956 C 430.789,298.807 440.292,306.189 447.500,308.994 C 450.800,310.278 455.300,312.223 457.500,313.315 C 462.634,315.864 476.308,317.932 486.342,317.676 C 493.773,317.487 494.333,317.311 497.011,314.314 Z" fill="#360498" stroke="black" stroke-width="0.5" fill-rule="evenodd"/>
</svg>
