<?xml version='1.0' encoding='UTF-8'?>
<svg version="1.1" xmlns="http://www.w3.org/2000/svg" width="1000" height="600" viewBox="0 0 1000 600">
  <path d="M 485.401,295.328 C 492.591,292.646 493.347,290.029 493.432,267.500 C 493.537,239.738 492.029,236.607 474.375,227.939 C 465.321,223.493 464.514,223.273 462.385,224.667 C 461.130,225.490 456.628,227.031 452.382,228.092 C 448.135,229.153 443.049,231.205 441.080,232.652 C 432.874,238.681 417.690,257.107 415.962,263.133 C 414.573,267.975 414.779,273.672 416.460,276.923 C 418.142,280.175 426.533,287.492 430.165,288.873 C 431.520,289.388 436.460,290.527 441.142,291.405 C 445.824,292.282 452.770,294.139 456.578,295.532 C 462.533,297.710 464.687,298.001 472.000,297.610 C 476.675,297.361 482.706,296.334 485.401,295.328 Z" fill="#9f1a9b" stroke="black" stroke-width="0.5" fill-rule="evenodd"/>
</svg>
