<?xml version='1.0' encoding='UTF-8'?>
<svg version="1.1" xmlns="http://www.w3.org/2000/svg" width="1000" height="600" viewBox="0 0 1000 600">
  <path d="M 489.438,316.846 C 495.680,314.002 497.784,301.284 493.925,289.718 C 490.692,280.027 490.187,279.546 481.224,277.609 C 470.827,275.363 463.073,271.568 454.597,264.577 C 450.800,261.446 446.044,258.043 444.030,257.015 C 442.015,255.987 439.779,254.438 439.061,253.573 C 438.343,252.708 437.248,252.000 436.628,252.001 C 436.007,252.001 431.613,255.939 426.862,260.751 C 417.901,269.828 416.018,273.343 416.006,281.016 C 415.985,293.912 442.340,313.412 464.000,316.527 C 475.215,318.139 486.295,318.278 489.438,316.846 Z" fill="#360498" stroke="black" stroke-width="0.5" fill-rule="evenodd"/>
</svg>
