<?xml version='1.0' encoding='UTF-8'?>
<svg version="1.1" xmlns="http://www.w3.org/2000/svg" width="1000" height="600" viewBox="0 0 1000 600">
  <path d="M 511.395,400.023 C 523.705,398.007 527.236,396.420 534.191,389.778 C 537.806,386.325 541.100,382.375 541.511,381.000 C 542.807,376.669 546.702,369.574 548.849,367.634 L 550.914,365.767 L 546.207,360.243 C 543.594,357.177 537.784,352.303 533.147,349.287 C 528.553,346.300 522.003,341.259 518.592,338.086 C 510.098,330.183 499.346,324.000 494.099,324.000 C 490.752,324.000 489.753,324.479 488.365,326.750 C 487.440,328.262 484.532,332.875 481.902,337.000 C 475.937,346.358 474.586,351.601 475.230,362.892 C 475.669,370.596 476.298,372.930 480.437,382.201 C 488.283,399.780 493.730,402.916 511.395,400.023 Z" fill="#360498" stroke="black" stroke-width="0.5" fill-rule="evenodd"/>
</svg>
